<svg width="83" height="88" viewBox="0 0 83 88" fill="none" xmlns="http://www.w3.org/2000/svg">
<path d="M70.6869 56.1676C49.8344 54.0726 44.3427 57.3262 33.745 78.0849C33.3069 78.9461 32.1458 78.5782 32.2786 77.6203C35.5645 54.5448 32.9554 48.7183 14.6996 38.4278C13.9422 38.0026 14.3546 36.7012 15.2204 36.7842C36.0729 38.8792 41.5646 35.6256 52.1623 14.8669C52.6004 14.0058 53.7615 14.3737 53.6287 15.3315C50.3428 38.407 52.9519 44.2336 71.2077 54.524C71.9651 54.9492 71.5527 56.2506 70.6869 56.1676Z" fill="black"/>
<path d="M67.89 51.559C47.0375 49.464 41.5458 52.7176 30.9481 73.4763C30.51 74.3375 29.349 73.9696 29.4817 73.0117C32.7676 49.9362 30.1585 44.1096 11.9028 33.8192C11.1453 33.394 11.5577 32.0926 12.4235 32.1756C33.2761 34.2706 38.7678 31.017 49.3654 10.2583C49.8035 9.39711 50.9646 9.76501 50.8318 10.7229C47.546 33.7984 50.155 39.6249 68.4108 49.9154C69.1682 50.3406 68.7559 51.642 67.89 51.559V51.559Z" fill="white"/>
<path d="M67.89 51.559C47.0375 49.464 41.5458 52.7176 30.9481 73.4763C30.51 74.3375 29.349 73.9696 29.4817 73.0117C32.7676 49.9362 30.1585 44.1096 11.9028 33.8192C11.1453 33.394 11.5577 32.0926 12.4235 32.1756C33.2761 34.2706 38.7678 31.017 49.3654 10.2583C49.8035 9.39711 50.9646 9.76501 50.8318 10.7229C47.546 33.7984 50.155 39.6249 68.4108 49.9154C69.1682 50.3406 68.7559 51.642 67.89 51.559V51.559Z" stroke="black" stroke-width="2.35" stroke-linecap="round" stroke-linejoin="round"/>
</svg>
