<svg width="152" height="163" viewBox="0 0 152 163" fill="none" xmlns="http://www.w3.org/2000/svg">
<path d="M136.643 97.0689C94.6288 98.4842 84.5822 106.422 69.0694 150.525C68.429 152.354 66.0224 151.934 66.03 149.994C66.3873 103.241 59.6414 92.3567 20.5961 76.7849C18.9766 76.1423 19.4481 73.4449 21.1915 73.3782C63.206 71.9629 73.2526 64.0253 88.7654 19.9221C89.4058 18.0929 91.8124 18.5136 91.8048 20.4533C91.4475 67.2056 98.1935 78.0904 137.239 93.6622C138.858 94.3047 138.387 97.0022 136.643 97.0689Z" fill="black"/>
<path d="M129.85 88.6562C87.8358 90.0715 77.7892 98.009 62.2765 142.112C61.636 143.941 59.2294 143.521 59.2371 141.581C59.5943 94.8287 52.8484 83.944 13.8031 68.3722C12.1836 67.7296 12.6551 65.0322 14.3986 64.9654C56.413 63.5502 66.4596 55.6126 81.9724 11.5094C82.6128 9.68017 85.0195 10.1008 85.0118 12.0406C84.6546 58.7929 91.4005 69.6776 130.446 85.2495C132.065 85.892 131.594 88.5895 129.85 88.6562Z" fill="#FCF43D"/>
<path d="M129.85 88.6562C87.8358 90.0715 77.7892 98.0091 62.2765 142.112C61.636 143.941 59.2294 143.521 59.2371 141.581C59.5943 94.8287 52.8484 83.944 13.8031 68.3722C12.1836 67.7296 12.6551 65.0322 14.3986 64.9654C56.413 63.5502 66.4596 55.6126 81.9724 11.5094C82.6128 9.68017 85.0195 10.1008 85.0118 12.0406C84.6546 58.7929 91.4005 69.6776 130.446 85.2495C132.065 85.892 131.594 88.5895 129.85 88.6562V88.6562Z" stroke="black" stroke-width="2.35" stroke-linecap="round" stroke-linejoin="round"/>
</svg>
