<svg width="392" height="547" viewBox="0 0 392 547" fill="none" xmlns="http://www.w3.org/2000/svg">
<g clip-path="url(#clip0_1562_1489)">
<path d="M52.7375 265.017C56.1486 266.635 56.4033 271.535 53.1225 273.227C38.1745 280.982 23.3967 289.109 8.83167 297.699C-15.956 312.476 -40.2886 328.167 -63.3879 346.625C-66.9771 349.506 -64.1821 355.6 -59.6565 354.76C-30.5983 349.293 -2.83219 341.087 24.5377 331.94C40.5498 326.504 56.3786 320.592 72.0076 314.321C75.4303 312.938 78.9779 316.328 77.9788 319.969C76.2413 326.344 74.5331 332.706 73.0135 339.169C68.5754 358.277 64.6898 377.58 62.3439 397.526C61.7663 402.396 68.0137 404.921 70.5386 400.805C80.7741 384.018 89.4545 366.633 97.5977 349.008C100.324 343.003 102.889 336.959 105.412 330.897C106.847 327.431 111.581 327.356 113.345 330.815C121.472 346.593 129.922 362.222 138.784 377.663C154.03 403.841 170.144 429.583 188.83 454.183C191.729 458.02 197.58 455.336 196.563 450.636C190.108 420.426 181.109 391.42 171.214 362.788C165.321 345.985 158.988 329.385 152.302 312.946C150.831 309.352 153.976 305.813 157.54 306.986C163.779 309.029 170.034 311.027 176.363 312.878C195.034 318.204 213.873 322.966 233.274 326.16C238.011 326.945 240.216 320.58 236.134 317.81C219.486 306.576 202.321 296.928 184.943 287.827C179.025 284.776 173.074 281.89 167.109 279.048C163.698 277.43 163.443 272.53 166.724 270.838C181.687 263.039 196.494 254.899 211.103 246.326C235.861 231.563 260.164 215.885 283.263 197.503C286.866 194.652 284.043 188.496 279.531 189.368C250.531 194.883 222.794 203.075 195.454 212.209C179.441 217.644 163.613 223.557 147.984 229.827C144.561 231.21 141.013 227.821 142.012 224.18C143.75 217.805 145.444 211.412 146.978 204.98C151.431 185.828 155.332 166.479 157.649 146.472C158.227 141.602 151.994 139.108 149.455 143.193C139.19 159.994 130.465 177.437 122.306 195.106C119.596 201.067 117.016 207.08 114.523 213.128C113.088 216.594 108.354 216.669 106.589 213.21C98.5059 197.45 90.0698 181.851 81.1926 166.454C65.9325 140.246 49.8045 114.473 31.0456 89.8687C28.1174 86.0452 22.3254 88.702 23.3131 93.4155C29.7235 123.684 38.7365 152.72 48.6456 181.384C54.5239 198.156 60.8432 214.725 67.5152 231.133C68.9856 234.727 65.8404 238.266 62.2772 237.092C56.0673 235.036 49.8269 233.069 43.5408 231.235C24.8266 225.892 5.94408 221.113 -13.5156 217.946C-18.2527 217.161 -20.4283 223.513 -16.3757 226.296C0.285774 237.56 17.5091 247.257 34.9301 256.375C40.8054 259.409 46.7264 262.309 52.6777 265.12L52.7375 265.017Z" fill="black"/>
<path d="M69.3801 265.845C72.7912 267.462 73.0459 272.362 69.7651 274.054C54.817 281.81 40.0392 289.936 25.4742 298.526C0.686553 313.303 -23.6461 328.994 -46.7454 347.452C-50.3345 350.334 -47.5395 356.427 -43.0139 355.587C-13.9557 350.12 13.8104 341.914 41.1802 332.767C57.1924 327.332 73.0211 321.419 88.6502 315.148C92.0729 313.766 95.6205 317.155 94.6214 320.796C92.8838 327.171 91.1757 333.533 89.6561 339.996C85.218 359.104 81.3323 378.408 78.9865 398.353C78.4089 403.223 84.6563 405.748 87.1812 401.633C97.4166 384.845 106.097 367.46 114.24 349.835C116.966 343.83 119.532 337.786 122.054 331.724C123.489 328.258 128.223 328.183 129.988 331.642C138.115 347.42 146.565 363.05 155.427 378.49C170.673 404.668 186.787 430.411 205.473 455.01C208.371 458.847 214.222 456.164 213.205 451.464C206.75 421.253 197.751 392.248 187.856 363.615C181.964 346.812 175.63 330.212 168.944 313.773C167.474 310.179 170.619 306.64 174.182 307.814C180.422 309.856 186.676 311.854 193.006 313.706C211.676 319.032 230.515 323.793 249.916 326.987C254.653 327.772 256.858 321.407 252.776 318.637C236.129 307.403 218.964 297.756 201.586 288.654C195.667 285.604 189.717 282.717 183.751 279.875C180.34 278.258 180.086 273.358 183.366 271.665C198.33 263.866 213.137 255.726 227.745 247.153C252.504 232.39 276.807 216.712 299.905 198.33C303.509 195.479 300.685 189.324 296.174 190.195C267.173 195.71 239.437 203.902 212.096 213.036C196.084 218.472 180.255 224.384 164.626 230.655C161.204 232.037 157.656 228.648 158.655 225.007C160.393 218.632 162.086 212.239 163.62 205.807C168.074 186.655 171.974 167.307 174.292 147.3C174.87 142.43 168.636 139.935 166.097 144.02C155.832 160.821 147.107 178.264 138.949 195.933C136.238 201.894 133.658 207.907 131.166 213.955C129.731 217.421 124.996 217.496 123.232 214.037C115.148 198.277 106.712 182.678 97.8352 167.282C82.575 141.073 66.447 115.3 47.6882 90.696C44.76 86.8725 38.968 89.5293 39.9557 94.2428C46.3661 124.511 55.379 153.548 65.2882 182.211C71.1664 198.983 77.4857 215.553 84.1578 231.96C85.6282 235.554 82.483 239.093 78.9198 237.92C72.7098 235.864 66.4694 233.896 60.1834 232.063C41.4692 226.719 22.5866 221.94 3.12698 218.773C-1.61021 217.988 -3.78568 224.34 0.26688 227.124C16.9283 238.388 34.1516 248.084 51.5727 257.203C57.448 260.236 63.3689 263.136 69.3203 265.947L69.3801 265.845Z" fill="#8F55FF" stroke="black" stroke-width="2.35" stroke-linecap="round" stroke-linejoin="round"/>
<path d="M359.687 312.168C338.834 310.073 333.343 313.326 322.745 334.085C322.307 334.946 321.146 334.578 321.279 333.62C324.564 310.545 321.955 304.718 303.7 294.428C302.942 294.003 303.355 292.701 304.22 292.784C325.073 294.879 330.565 291.626 341.162 270.867C341.6 270.006 342.761 270.374 342.629 271.332C339.343 294.407 341.952 300.234 360.208 310.524C360.965 310.949 360.553 312.251 359.687 312.168Z" fill="black"/>
<path d="M356.89 307.559C336.037 305.464 330.546 308.718 319.948 329.476C319.51 330.337 318.349 329.97 318.482 329.012C321.768 305.936 319.159 300.11 300.903 289.819C300.145 289.394 300.558 288.093 301.424 288.176C322.276 290.271 327.768 287.017 338.365 266.258C338.804 265.397 339.965 265.765 339.832 266.723C336.546 289.798 339.155 295.625 357.411 305.915C358.168 306.341 357.756 307.642 356.89 307.559Z" fill="white"/>
<path d="M356.89 307.559C336.037 305.464 330.546 308.718 319.948 329.476C319.51 330.337 318.349 329.97 318.482 329.012C321.768 305.936 319.159 300.11 300.903 289.819C300.145 289.394 300.558 288.093 301.424 288.176C322.276 290.271 327.768 287.017 338.365 266.258C338.804 265.397 339.965 265.765 339.832 266.723C336.546 289.798 339.155 295.625 357.411 305.915C358.168 306.341 357.756 307.642 356.89 307.559V307.559Z" stroke="black" stroke-width="2.35" stroke-linecap="round" stroke-linejoin="round"/>
</g>
<defs>
<clipPath id="clip0_1562_1489">
<rect width="402.52" height="415.607" fill="white" transform="translate(391.07 378.723) rotate(155.359)"/>
</clipPath>
</defs>
</svg>
