<svg width="464" height="888" viewBox="0 0 464 888" fill="none" xmlns="http://www.w3.org/2000/svg">
<path d="M679.301 529.028C683.388 513.118 494.591 464.777 494.591 464.777L430.563 448.383L461.047 425.191C461.047 425.191 578.948 335.496 572.937 321.969C566.926 308.441 449.025 398.136 449.025 398.136L418.54 421.328L439.326 340.409C439.326 340.409 500.617 101.81 488.028 98.5863C475.439 95.3629 414.148 333.963 414.148 333.963L393.362 414.881L377.82 379.904C377.82 379.904 317.709 244.63 305.919 253.599C294.128 262.569 354.24 397.843 354.24 397.843L369.782 432.82L305.754 416.425C305.754 416.425 116.957 368.084 112.87 383.994C108.783 399.904 297.58 448.245 297.58 448.245L361.608 464.64L331.124 487.831C331.124 487.831 213.223 577.526 219.234 591.054C225.245 604.581 343.146 514.886 343.146 514.886L373.63 491.695L352.844 572.613C352.844 572.613 291.553 811.213 304.142 814.436C316.732 817.659 378.022 579.06 378.022 579.06L398.809 498.142L414.351 533.118C414.351 533.118 474.462 668.393 486.252 659.423C498.042 650.454 437.931 515.179 437.931 515.179L422.389 480.203L486.417 496.597C486.417 496.597 675.214 544.938 679.301 529.028Z" fill="black"/>
<path d="M663.647 503.139C667.734 487.229 478.937 438.887 478.937 438.887L414.908 422.493L445.393 399.302C445.393 399.302 563.294 309.607 557.282 296.079C551.271 282.552 433.37 372.247 433.37 372.247L402.886 395.438L423.672 314.52C423.672 314.52 484.963 75.9204 472.374 72.697C459.785 69.4735 398.494 308.073 398.494 308.073L377.708 388.991L362.166 354.015C362.166 354.015 302.054 218.74 290.264 227.71C278.474 236.679 338.585 371.954 338.585 371.954L354.128 406.93L290.099 390.536C290.099 390.536 101.302 342.195 97.2153 358.105C93.1284 374.015 281.925 422.356 281.925 422.356L345.954 438.75L315.469 461.942C315.469 461.942 197.569 551.637 203.58 565.164C209.591 578.692 327.492 488.997 327.492 488.997L357.976 465.805L337.19 546.723C337.19 546.723 275.899 785.323 288.488 788.547C301.077 791.77 362.368 553.17 362.368 553.17L383.154 472.252L398.697 507.229C398.697 507.229 458.808 642.503 470.598 633.534C482.388 624.564 422.277 489.29 422.277 489.29L406.734 454.313L470.763 470.708C470.763 470.708 659.56 519.049 663.647 503.139Z" fill="#FCF43D" stroke="black" stroke-width="2.35" stroke-linecap="round" stroke-linejoin="round"/>
</svg>
