<svg width="522" height="216" viewBox="0 0 522 216" fill="none" xmlns="http://www.w3.org/2000/svg">
<path d="M36.18 -7.15256e-07H22.98C19.08 -7.15256e-07 16.2 2.1 14.76 6L6.06 30C1.8 41.7 5.76 48 17.46 48H31.5C38.04 48 42.72 44.94 45.54 42.18C46.32 44.94 48.78 48 55.26 48H68.7C79.32 48 89.88 40.26 93.78 29.64L102.36 6C103.8 2.1 102.48 -7.15256e-07 98.58 -7.15256e-07H85.38C81.48 -7.15256e-07 78.6 2.1 77.16 6L64.92 39.6C64.38 41.16 63.24 42 61.68 42H60.48C58.92 42 58.38 41.16 58.92 39.6L71.16 6C72.6 2.1 71.28 -7.15256e-07 67.38 -7.15256e-07H54.18C50.28 -7.15256e-07 47.4 2.1 45.96 6L33.72 39.6C33.18 41.16 32.04 42 30.48 42H29.28C27.72 42 27.18 41.16 27.72 39.6L39.96 6C41.4 2.1 40.08 -7.15256e-07 36.18 -7.15256e-07ZM99.0928 48H112.293C116.193 48 119.073 45.9 120.513 42L125.913 27.12H131.913L126.513 42C125.073 45.9 126.393 48 130.293 48H143.493C147.393 48 150.273 45.9 151.713 42L164.793 6C166.233 2.1 164.913 -7.15256e-07 161.013 -7.15256e-07H147.813C143.913 -7.15256e-07 141.033 2.1 139.593 6L134.073 21.12H128.073L133.593 6C135.033 2.1 133.713 -7.15256e-07 129.813 -7.15256e-07H116.613C112.713 -7.15256e-07 109.833 2.1 108.393 6L95.3128 42C93.8728 45.9 95.1928 48 99.0928 48ZM161.554 48H174.754C178.654 48 181.534 45.9 182.974 42L187.714 28.92H193.714L188.974 42C187.534 45.9 188.854 48 192.754 48H205.954C209.854 48 212.734 45.9 214.174 42L222.874 18C227.134 6.3 223.174 -7.15256e-07 211.474 -7.15256e-07H191.074C179.374 -7.15256e-07 170.734 6.3 166.474 18L157.774 42C156.334 45.9 157.654 48 161.554 48ZM189.934 22.92L195.214 8.4C195.754 6.84 196.894 6 198.454 6H199.654C201.214 6 201.754 6.84 201.214 8.4L195.934 22.92H189.934ZM238.715 48H251.915C255.815 48 258.695 45.9 260.135 42L266.915 23.4H275.615C279.515 23.4 282.335 21.3 283.775 17.4L287.915 6C289.355 2.1 288.035 -7.15256e-07 284.135 -7.15256e-07H241.535C237.635 -7.15256e-07 234.755 2.1 233.315 6L229.175 17.4C227.735 21.3 229.115 23.4 233.015 23.4H241.715L234.935 42C233.495 45.9 234.815 48 238.715 48ZM296.671 48H309.871C313.771 48 316.651 45.9 318.091 42L331.171 6C332.611 2.1 331.291 -7.15256e-07 327.391 -7.15256e-07H314.191C310.291 -7.15256e-07 307.411 2.1 305.971 6L292.891 42C291.451 45.9 292.771 48 296.671 48ZM327.9 48H366.3C374.1 48 379.86 43.8 382.68 36L383.76 33C386.64 25.2 383.94 21 376.14 21H359.34C357.78 21 357.24 20.16 357.84 18.6L361.56 8.4C362.1 6.84 363.24 6 364.8 6H366C367.56 6 368.1 6.84 367.56 8.4L366.66 10.8C365.22 14.7 366.6 16.8 370.5 16.8H383.7C387.6 16.8 390.42 14.7 391.86 10.8L393.6 6C395.04 2.1 393.72 -7.15256e-07 389.82 -7.15256e-07H351.42C343.62 -7.15256e-07 337.86 4.2 335.04 12L333.96 15C331.08 22.8 333.78 27 341.58 27H358.38C359.94 27 360.48 27.84 359.88 29.4L356.16 39.6C355.62 41.16 354.48 42 352.92 42H351.72C350.16 42 349.62 41.16 350.16 39.6L351.06 37.2C352.5 33.3 351.12 31.2 347.22 31.2H334.02C330.12 31.2 327.3 33.3 325.86 37.2L324.12 42C322.68 45.9 324 48 327.9 48ZM5.4 132H18.6C22.5 132 25.38 129.9 26.82 126L39.06 92.4C39.6 90.84 40.74 90 42.3 90H43.5C45.06 90 45.6 90.84 45.06 92.4L32.82 126C31.38 129.9 32.7 132 36.6 132H49.8C53.7 132 56.58 129.9 58.02 126L68.94 96C71.76 88.2 69.12 84 61.32 84H28.92C21.12 84 15.36 88.2 12.54 96L1.62 126C0.18 129.9 1.5 132 5.4 132ZM82.5623 132H95.7623C99.6623 132 102.542 129.9 103.982 126L110.762 107.4H119.462C123.362 107.4 126.182 105.3 127.622 101.4L131.762 90C133.202 86.1 131.882 84 127.982 84H85.3823C81.4823 84 78.6023 86.1 77.1623 90L73.0223 101.4C71.5823 105.3 72.9623 107.4 76.8623 107.4H85.5623L78.7823 126C77.3423 129.9 78.6623 132 82.5623 132ZM159.227 84H146.027C142.127 84 139.247 86.1 137.807 90L126.887 120C124.067 127.8 126.707 132 134.507 132H166.907C174.707 132 180.467 127.8 183.287 120L194.207 90C195.647 86.1 194.327 84 190.427 84H177.227C173.327 84 170.447 86.1 169.007 90L156.767 123.6C156.227 125.16 155.087 126 153.527 126H152.327C150.767 126 150.227 125.16 150.767 123.6L163.007 90C164.447 86.1 163.127 84 159.227 84ZM202.921 132H216.121C220.021 132 222.901 129.9 224.341 126L229.081 112.92H235.081L230.341 126C228.901 129.9 230.221 132 234.121 132H247.321C251.221 132 254.101 129.9 255.541 126L264.241 102C268.501 90.3 264.541 84 252.841 84H232.441C220.741 84 212.101 90.3 207.841 102L199.141 126C197.701 129.9 199.021 132 202.921 132ZM231.301 106.92L236.581 92.4C237.121 90.84 238.261 90 239.821 90H241.021C242.581 90 243.121 90.84 242.581 92.4L237.301 106.92H231.301ZM265.382 132H278.582C282.482 132 285.362 129.9 286.802 126L292.202 111.12H298.202L294.962 120C292.142 127.8 294.782 132 302.582 132H308.582C312.482 132 315.362 129.9 316.802 126L318.482 121.32C319.922 117.42 318.602 115.32 314.702 115.32H305.102C303.542 115.32 303.002 114.48 303.542 112.92L304.202 111.12H311.822C319.382 111.12 323.582 107.28 327.182 97.44C330.722 87.66 328.862 84 320.102 84H282.902C279.002 84 276.122 86.1 274.682 90L261.602 126C260.162 129.9 261.482 132 265.382 132ZM295.262 102.72L299.042 92.4C299.582 90.84 300.722 90 302.282 90H303.482C305.042 90 305.582 90.84 305.042 92.4L301.262 102.72C300.722 104.28 299.522 105.12 297.962 105.12H296.762C295.202 105.12 294.722 104.28 295.262 102.72ZM341.371 132H354.571C358.471 132 361.351 129.9 362.791 126L369.571 107.4H378.271C382.171 107.4 384.991 105.3 386.431 101.4L390.571 90C392.011 86.1 390.691 84 386.791 84H344.191C340.291 84 337.411 86.1 335.971 90L331.831 101.4C330.391 105.3 331.771 107.4 335.671 107.4H344.371L337.591 126C336.151 129.9 337.471 132 341.371 132ZM387.255 132H425.655C433.455 132 439.215 127.8 442.035 120L443.115 117C445.995 109.2 443.295 105 435.495 105H418.695C417.135 105 416.595 104.16 417.195 102.6L420.915 92.4C421.455 90.84 422.595 90 424.155 90H425.355C426.915 90 427.455 90.84 426.915 92.4L426.015 94.8C424.575 98.7 425.955 100.8 429.855 100.8H443.055C446.955 100.8 449.775 98.7 451.215 94.8L452.955 90C454.395 86.1 453.075 84 449.175 84H410.775C402.975 84 397.215 88.2 394.395 96L393.315 99C390.435 106.8 393.135 111 400.935 111H417.735C419.295 111 419.835 111.84 419.235 113.4L415.515 123.6C414.975 125.16 413.835 126 412.275 126H411.075C409.515 126 408.975 125.16 409.515 123.6L410.415 121.2C411.855 117.3 410.475 115.2 406.575 115.2H393.375C389.475 115.2 386.655 117.3 385.215 121.2L383.475 126C382.035 129.9 383.355 132 387.255 132ZM5.4 216H18.6C22.5 216 25.38 213.9 26.82 210L29.4 202.8H46.5C48.06 202.8 49.26 201.96 49.8 200.4L50.22 199.2C50.82 197.64 50.28 196.8 48.72 196.8H31.62L33.6 191.4H54.3C58.2 191.4 61.02 189.3 62.46 185.4L66.6 174C68.04 170.1 66.72 168 62.82 168H28.92C21.12 168 15.36 172.2 12.54 180L1.62 210C0.18 213.9 1.5 216 5.4 216ZM63.3506 216H103.251C107.151 216 110.031 213.9 111.471 210L115.611 198.6C117.051 194.7 115.671 192.6 111.771 192.6H91.0706L93.4706 186H109.971C111.531 186 112.671 185.16 113.271 183.6L113.691 182.4C114.291 180.84 113.751 180 112.191 180H95.6906L97.8506 174H119.751C121.311 174 122.451 173.16 123.051 171.6L123.471 170.4C124.011 168.84 123.531 168 121.971 168H80.8706C76.9706 168 74.0906 170.1 72.6506 174L59.5706 210C58.1306 213.9 59.4506 216 63.3506 216ZM121.24 216H159.64C167.44 216 173.2 211.8 176.02 204L177.1 201C179.98 193.2 177.28 189 169.48 189H152.68C151.12 189 150.58 188.16 151.18 186.6L154.9 176.4C155.44 174.84 156.58 174 158.14 174H159.34C160.9 174 161.44 174.84 160.9 176.4L160 178.8C158.56 182.7 159.94 184.8 163.84 184.8H177.04C180.94 184.8 183.76 182.7 185.2 178.8L186.94 174C188.38 170.1 187.06 168 183.16 168H144.76C136.96 168 131.2 172.2 128.38 180L127.3 183C124.42 190.8 127.12 195 134.92 195H151.72C153.28 195 153.82 195.84 153.22 197.4L149.5 207.6C148.96 209.16 147.82 210 146.26 210H145.06C143.5 210 142.96 209.16 143.5 207.6L144.4 205.2C145.84 201.3 144.46 199.2 140.56 199.2H127.36C123.46 199.2 120.64 201.3 119.2 205.2L117.46 210C116.02 213.9 117.34 216 121.24 216ZM198.402 216H211.602C215.502 216 218.382 213.9 219.822 210L226.602 191.4H235.302C239.202 191.4 242.022 189.3 243.462 185.4L247.602 174C249.042 170.1 247.722 168 243.822 168H201.222C197.322 168 194.442 170.1 193.002 174L188.862 185.4C187.422 189.3 188.802 191.4 192.702 191.4H201.402L194.622 210C193.182 213.9 194.502 216 198.402 216ZM244.347 216H257.547C261.447 216 264.327 213.9 265.767 210L278.847 174C280.287 170.1 278.967 168 275.067 168H261.867C257.967 168 255.087 170.1 253.647 174L240.567 210C239.127 213.9 240.447 216 244.347 216ZM287.636 216H307.676C318.296 216 328.856 208.26 332.756 197.64L341.336 174C342.776 170.1 341.456 168 337.556 168H324.356C320.456 168 317.576 170.1 316.136 174L303.896 207.6C303.356 209.16 302.216 210 300.656 210H299.456C297.896 210 297.356 209.16 297.896 207.6L310.136 174C311.576 170.1 310.256 168 306.356 168H293.156C289.256 168 286.376 170.1 284.936 174L276.236 198C271.976 209.7 275.936 216 287.636 216ZM338.097 216H351.297C355.197 216 358.077 213.9 359.517 210L364.257 196.92H370.257L365.517 210C364.077 213.9 365.397 216 369.297 216H382.497C386.397 216 389.277 213.9 390.717 210L399.417 186C403.677 174.3 399.717 168 388.017 168H367.617C355.917 168 347.277 174.3 343.017 186L334.317 210C332.877 213.9 334.197 216 338.097 216ZM366.477 190.92L371.757 176.4C372.297 174.84 373.437 174 374.997 174H376.197C377.757 174 378.297 174.84 377.757 176.4L372.477 190.92H366.477ZM406.558 216H437.458C441.358 216 444.238 213.9 445.678 210L449.818 198.6C451.258 194.7 449.878 192.6 445.978 192.6H428.278L435.058 174C436.498 170.1 435.178 168 431.278 168H418.078C414.178 168 411.298 170.1 409.858 174L398.938 204C396.118 211.8 398.758 216 406.558 216ZM474.179 201H487.379C491.279 201 494.099 199.08 495.359 195.6C495.959 194.04 497.099 193.2 498.659 193.2H502.259C510.059 193.2 515.759 189 518.639 181.2L519.059 180C521.879 172.2 519.239 168 511.439 168H473.039C469.139 168 466.259 170.1 464.819 174L463.739 177C462.299 180.9 463.679 183 467.579 183H480.779C484.679 183 487.499 180.9 488.939 177L489.179 176.4C489.719 174.84 490.859 174 492.419 174H493.619C495.179 174 495.719 174.84 495.179 176.4L492.119 184.8C491.519 186.36 490.379 187.2 488.819 187.2H479.219C475.319 187.2 472.439 189.3 471.059 193.2L470.399 195C468.959 198.9 470.279 201 474.179 201ZM463.859 213C463.139 214.92 463.799 216 465.719 216H484.919C486.839 216 488.339 214.92 489.059 213L491.219 207C491.939 205.08 491.219 204 489.299 204H470.099C468.179 204 466.739 205.08 466.019 207L463.859 213Z" fill="black"/>
<path d="M14.76 6L11.9457 4.96087L11.9426 4.96923L11.9396 4.9776L14.76 6ZM6.06 30L8.87896 31.0264L8.88041 31.0224L6.06 30ZM45.54 42.18L48.4269 41.3641L47.0528 36.5017L43.4416 40.036L45.54 42.18ZM93.78 29.64L96.5961 30.6742L96.6 30.6635L93.78 29.64ZM102.36 6L99.5457 4.96088L99.5428 4.96868L99.54 4.97649L102.36 6ZM77.16 6L74.3457 4.96086L74.3412 4.97315L77.16 6ZM64.92 39.6L62.1012 38.5732L62.0929 38.5958L62.085 38.6187L64.92 39.6ZM58.92 39.6L56.1012 38.5732L56.0929 38.5958L56.085 38.6187L58.92 39.6ZM71.16 6L68.3457 4.96086L68.3412 4.97315L71.16 6ZM45.96 6L43.1457 4.96087L43.1412 4.97315L45.96 6ZM33.72 39.6L30.9012 38.5732L30.8929 38.5958L30.885 38.6187L33.72 39.6ZM27.72 39.6L24.9012 38.5732L24.8929 38.5958L24.885 38.6187L27.72 39.6ZM39.96 6L37.1457 4.96087L37.1412 4.97315L39.96 6ZM36.18 -3H22.98V3H36.18V-3ZM22.98 -3C20.4709 -3 18.1387 -2.31583 16.1791 -0.885876C14.2307 0.535898 12.8314 2.56216 11.9457 4.96087L17.5743 7.03912C18.1286 5.53783 18.8893 4.5641 19.7159 3.96087C20.5313 3.36583 21.5891 3 22.98 3V-3ZM11.9396 4.9776L3.23959 28.9776L8.88041 31.0224L17.5804 7.02239L11.9396 4.9776ZM3.24104 28.9736C1.01201 35.0956 0.559553 40.7512 3.23913 44.9904C5.98034 49.3271 11.2204 51 17.46 51V45C11.9996 45 9.40966 43.5229 8.31087 41.7846C7.15045 39.9487 6.84799 36.6044 8.87896 31.0264L3.24104 28.9736ZM17.46 51H31.5V45H17.46V51ZM31.5 51C39.0482 51 44.441 47.4533 47.6384 44.324L43.4416 40.036C40.999 42.4267 37.0318 45 31.5 45V51ZM42.6531 42.9959C43.1912 44.8999 44.3355 46.9746 46.4951 48.5491C48.648 50.1187 51.5467 51 55.26 51V45C52.4933 45 50.9221 44.3513 50.0299 43.7009C49.1445 43.0554 48.6688 42.2201 48.4269 41.3641L42.6531 42.9959ZM55.26 51H68.7V45H55.26V51ZM68.7 51C80.6868 51 92.3012 42.3696 96.5961 30.6742L90.9639 28.6058C87.4588 38.1504 77.9532 45 68.7 45V51ZM96.6 30.6635L105.18 7.0235L99.54 4.97649L90.96 28.6165L96.6 30.6635ZM105.174 7.03912C105.994 4.81831 106.409 2.15926 105.011 -0.0609417C103.552 -2.37811 100.917 -3 98.58 -3V3C99.309 3 99.7198 3.1013 99.9119 3.17753C100.07 3.24016 100.007 3.25239 99.9338 3.13594C99.8699 3.03447 99.9333 3.04746 99.9262 3.34551C99.9186 3.6621 99.8311 4.18793 99.5457 4.96088L105.174 7.03912ZM98.58 -3H85.38V3H98.58V-3ZM85.38 -3C82.8709 -3 80.5387 -2.31583 78.5791 -0.885876C76.6307 0.535898 75.2314 2.56216 74.3457 4.96087L79.9743 7.03912C80.5286 5.53783 81.2893 4.5641 82.1159 3.96087C82.9313 3.36583 83.9891 3 85.38 3V-3ZM74.3412 4.97315L62.1012 38.5732L67.7388 40.6268L79.9788 7.02684L74.3412 4.97315ZM62.085 38.6187C61.9756 38.9349 61.8748 38.9906 61.8984 38.9732C61.9038 38.9691 61.9041 38.9715 61.8851 38.9774C61.8633 38.9841 61.7999 39 61.68 39V45C63.0175 45 64.3385 44.6314 65.4666 43.7968C66.5852 42.9694 67.3244 41.8251 67.755 40.5813L62.085 38.6187ZM61.68 39H60.48V45H61.68V39ZM60.48 39C60.3372 39 60.4106 38.9778 60.6026 39.0535C60.8273 39.1421 61.1694 39.3513 61.43 39.7533C61.6819 40.142 61.717 40.494 61.7165 40.6426C61.7161 40.7722 61.6911 40.7658 61.755 40.5813L56.085 38.6187C55.7158 39.6854 55.3684 41.4327 56.395 43.0167C57.4787 44.6885 59.3012 45 60.48 45V39ZM61.7388 40.6268L73.9788 7.02684L68.3412 4.97315L56.1012 38.5732L61.7388 40.6268ZM73.9743 7.03912C74.7943 4.81831 75.2091 2.15926 73.8112 -0.0609417C72.3522 -2.37811 69.7173 -3 67.38 -3V3C68.109 3 68.5198 3.1013 68.7119 3.17753C68.8697 3.24016 68.8071 3.25239 68.7338 3.13594C68.6699 3.03447 68.7333 3.04746 68.7262 3.34551C68.7186 3.6621 68.6311 4.18793 68.3457 4.96087L73.9743 7.03912ZM67.38 -3H54.18V3H67.38V-3ZM54.18 -3C51.6709 -3 49.3387 -2.31584 47.3791 -0.885876C45.4307 0.535898 44.0314 2.56216 43.1457 4.96087L48.7743 7.03912C49.3286 5.53783 50.0893 4.5641 50.9159 3.96087C51.7313 3.36583 52.7891 3 54.18 3V-3ZM43.1412 4.97315L30.9012 38.5732L36.5388 40.6268L48.7788 7.02684L43.1412 4.97315ZM30.885 38.6187C30.7756 38.9349 30.6748 38.9906 30.6984 38.9732C30.7038 38.9691 30.7041 38.9715 30.6851 38.9774C30.6633 38.9841 30.5999 39 30.48 39V45C31.8175 45 33.1385 44.6314 34.2666 43.7968C35.3852 42.9694 36.1244 41.8251 36.555 40.5813L30.885 38.6187ZM30.48 39H29.28V45H30.48V39ZM29.28 39C29.1372 39 29.2106 38.9778 29.4025 39.0535C29.6273 39.1421 29.9694 39.3513 30.23 39.7533C30.4819 40.142 30.517 40.494 30.5166 40.6426C30.5161 40.7722 30.4911 40.7658 30.555 40.5813L24.885 38.6187C24.5158 39.6854 24.1684 41.4327 25.195 43.0167C26.2787 44.6885 28.1012 45 29.28 45V39ZM30.5388 40.6268L42.7788 7.02684L37.1412 4.97315L24.9012 38.5732L30.5388 40.6268ZM42.7743 7.03912C43.5943 4.81831 44.0091 2.15926 42.6112 -0.0609417C41.1522 -2.37811 38.5173 -3 36.18 -3V3C36.909 3 37.3198 3.1013 37.5119 3.17753C37.6697 3.24016 37.6071 3.25239 37.5338 3.13594C37.4699 3.03447 37.5333 3.04746 37.5262 3.34551C37.5186 3.6621 37.4311 4.18793 37.1457 4.96087L42.7743 7.03912ZM120.513 42L123.327 43.0391L123.33 43.0313L123.333 43.0234L120.513 42ZM125.913 27.12V24.12H123.81L123.093 26.0966L125.913 27.12ZM131.913 27.12L134.733 28.1434L136.193 24.12H131.913V27.12ZM126.513 42L129.327 43.0391L129.33 43.0313L129.333 43.0234L126.513 42ZM151.713 42L154.527 43.0391L154.53 43.0318L154.532 43.0245L151.713 42ZM164.793 6L161.979 4.96087L161.976 4.96819L161.973 4.97552L164.793 6ZM139.593 6L136.779 4.96087L136.775 4.97118L139.593 6ZM134.073 21.12V24.12H136.171L136.891 22.1488L134.073 21.12ZM128.073 21.12L125.255 20.0912L123.784 24.12H128.073V21.12ZM133.593 6L130.779 4.96087L130.775 4.97118L133.593 6ZM108.393 6L105.579 4.96087L105.576 4.96819L105.573 4.97552L108.393 6ZM95.3128 42L98.1271 43.0391L98.1298 43.0318L98.1325 43.0245L95.3128 42ZM99.0928 51H112.293V45H99.0928V51ZM112.293 51C114.802 51 117.134 50.3158 119.094 48.8859C121.042 47.4641 122.441 45.4378 123.327 43.0391L117.699 40.9609C117.144 42.4622 116.384 43.4359 115.557 44.0391C114.741 44.6342 113.684 45 112.293 45V51ZM123.333 43.0234L128.733 28.1434L123.093 26.0966L117.693 40.9766L123.333 43.0234ZM125.913 30.12H131.913V24.12H125.913V30.12ZM129.093 26.0966L123.693 40.9766L129.333 43.0234L134.733 28.1434L129.093 26.0966ZM123.699 40.9609C122.879 43.1817 122.464 45.8407 123.862 48.0609C125.321 50.3781 127.956 51 130.293 51V45C129.564 45 129.153 44.8987 128.961 44.8225C128.803 44.7598 128.866 44.7476 128.939 44.8641C129.003 44.9655 128.94 44.9525 128.947 44.6545C128.954 44.3379 129.042 43.8121 129.327 43.0391L123.699 40.9609ZM130.293 51H143.493V45H130.293V51ZM143.493 51C146.002 51 148.334 50.3158 150.294 48.8859C152.242 47.4641 153.641 45.4378 154.527 43.0391L148.899 40.9609C148.344 42.4622 147.584 43.4359 146.757 44.0391C145.941 44.6342 144.884 45 143.493 45V51ZM154.532 43.0245L167.612 7.02447L161.973 4.97552L148.893 40.9755L154.532 43.0245ZM167.607 7.03912C168.427 4.81831 168.842 2.15926 167.444 -0.0609417C165.985 -2.37811 163.35 -3 161.013 -3V3C161.742 3 162.153 3.1013 162.345 3.17753C162.503 3.24016 162.44 3.25239 162.367 3.13594C162.303 3.03447 162.366 3.04746 162.359 3.34551C162.351 3.6621 162.264 4.18793 161.979 4.96087L167.607 7.03912ZM161.013 -3H147.813V3H161.013V-3ZM147.813 -3C145.304 -3 142.971 -2.31584 141.012 -0.885876C139.064 0.535898 137.664 2.56216 136.779 4.96087L142.407 7.03912C142.961 5.53783 143.722 4.5641 144.549 3.96087C145.364 3.36583 146.422 3 147.813 3V-3ZM136.775 4.97118L131.255 20.0912L136.891 22.1488L142.411 7.02882L136.775 4.97118ZM134.073 18.12H128.073V24.12H134.073V18.12ZM130.891 22.1488L136.411 7.02882L130.775 4.97118L125.255 20.0912L130.891 22.1488ZM136.407 7.03912C137.227 4.81831 137.642 2.15926 136.244 -0.0609417C134.785 -2.37811 132.15 -3 129.813 -3V3C130.542 3 130.953 3.1013 131.145 3.17753C131.303 3.24016 131.24 3.25239 131.167 3.13594C131.103 3.03447 131.166 3.04746 131.159 3.34551C131.151 3.6621 131.064 4.18793 130.779 4.96087L136.407 7.03912ZM129.813 -3H116.613V3H129.813V-3ZM116.613 -3C114.104 -3 111.771 -2.31583 109.812 -0.885876C107.864 0.535898 106.464 2.56216 105.579 4.96087L111.207 7.03912C111.761 5.53783 112.522 4.5641 113.349 3.96087C114.164 3.36583 115.222 3 116.613 3V-3ZM105.573 4.97552L92.4932 40.9755L98.1325 43.0245L111.212 7.02447L105.573 4.97552ZM92.4985 40.9609C91.6785 43.1817 91.2637 45.8407 92.6616 48.0609C94.1206 50.3781 96.7555 51 99.0928 51V45C98.3638 45 97.953 44.8987 97.7609 44.8225C97.6031 44.7598 97.6657 44.7476 97.739 44.8641C97.8029 44.9655 97.7395 44.9525 97.7466 44.6545C97.7542 44.3379 97.8417 43.8121 98.1271 43.0391L92.4985 40.9609ZM182.974 42L185.788 43.0391L185.791 43.0306L185.794 43.0221L182.974 42ZM187.714 28.92V25.92H185.61L184.893 27.8979L187.714 28.92ZM193.714 28.92L196.534 29.9421L197.992 25.92H193.714V28.92ZM188.974 42L191.788 43.0391L191.791 43.0306L191.794 43.0221L188.974 42ZM214.174 42L216.988 43.0391L216.991 43.0308L216.994 43.0224L214.174 42ZM222.874 18L220.055 16.9736L220.053 16.9776L222.874 18ZM166.474 18L163.655 16.9736L163.653 16.9776L166.474 18ZM157.774 42L160.588 43.0391L160.591 43.0308L160.594 43.0224L157.774 42ZM189.934 22.92L187.114 21.8948L185.651 25.92H189.934V22.92ZM195.214 8.4L198.033 9.42523L198.041 9.40334L198.049 9.38132L195.214 8.4ZM201.214 8.4L204.033 9.42523L204.041 9.40334L204.049 9.38133L201.214 8.4ZM195.934 22.92V25.92H198.035L198.753 23.9452L195.934 22.92ZM161.554 51H174.754V45H161.554V51ZM174.754 51C177.263 51 179.595 50.3158 181.555 48.8859C183.503 47.4641 184.902 45.4378 185.788 43.0391L180.159 40.9609C179.605 42.4622 178.844 43.4359 178.018 44.0391C177.202 44.6342 176.145 45 174.754 45V51ZM185.794 43.0221L190.534 29.9421L184.893 27.8979L180.153 40.9779L185.794 43.0221ZM187.714 31.92H193.714V25.92H187.714V31.92ZM190.893 27.8979L186.153 40.9779L191.794 43.0221L196.534 29.9421L190.893 27.8979ZM186.159 40.9609C185.339 43.1817 184.925 45.8407 186.323 48.0609C187.782 50.3781 190.416 51 192.754 51V45C192.025 45 191.614 44.8987 191.422 44.8225C191.264 44.7598 191.327 44.7476 191.4 44.8641C191.464 44.9655 191.4 44.9525 191.408 44.6545C191.415 44.3379 191.503 43.8121 191.788 43.0391L186.159 40.9609ZM192.754 51H205.954V45H192.754V51ZM205.954 51C208.463 51 210.795 50.3158 212.755 48.8859C214.703 47.4641 216.102 45.4378 216.988 43.0391L211.359 40.9609C210.805 42.4622 210.044 43.4359 209.218 44.0391C208.402 44.6342 207.345 45 205.954 45V51ZM216.994 43.0224L225.694 19.0224L220.053 16.9776L211.353 40.9776L216.994 43.0224ZM225.693 19.0264C227.922 12.9044 228.374 7.24875 225.695 3.00958C222.953 -1.32711 217.713 -3 211.474 -3V3C216.934 3 219.524 4.4771 220.623 6.21542C221.783 8.05125 222.086 11.3956 220.055 16.9736L225.693 19.0264ZM211.474 -3H191.074V3H211.474V-3ZM191.074 -3C184.665 -3 178.942 -1.2661 174.213 2.19065C169.495 5.63973 165.95 10.6699 163.655 16.9736L169.293 19.0264C171.257 13.6301 174.162 9.66026 177.754 7.03435C181.336 4.4161 185.782 3 191.074 3V-3ZM163.653 16.9776L154.953 40.9776L160.594 43.0224L169.294 19.0224L163.653 16.9776ZM154.959 40.9609C154.139 43.1817 153.725 45.8407 155.123 48.0609C156.582 50.3781 159.216 51 161.554 51V45C160.825 45 160.414 44.8987 160.222 44.8225C160.064 44.7598 160.127 44.7476 160.2 44.8641C160.264 44.9655 160.2 44.9525 160.208 44.6545C160.215 44.3379 160.303 43.8121 160.588 43.0391L154.959 40.9609ZM192.753 23.9452L198.033 9.42523L192.394 7.37477L187.114 21.8948L192.753 23.9452ZM198.049 9.38132C198.158 9.06506 198.259 9.00937 198.235 9.02684C198.23 9.03085 198.23 9.02849 198.249 9.02261C198.27 9.01592 198.334 9 198.454 9V3C197.116 3 195.795 3.36864 194.667 4.20316C193.549 5.03063 192.809 6.17494 192.379 7.41867L198.049 9.38132ZM198.454 9H199.654V3H198.454V9ZM199.654 9C199.797 9 199.723 9.02221 199.531 8.94654C199.306 8.85792 198.964 8.64867 198.704 8.24668C198.452 7.858 198.417 7.50598 198.417 7.35744C198.418 7.22777 198.443 7.23424 198.379 7.41867L204.049 9.38133C204.418 8.31463 204.765 6.56731 203.739 4.98331C202.655 3.31145 200.833 3 199.654 3V9ZM198.394 7.37477L193.114 21.8948L198.753 23.9452L204.033 9.42523L198.394 7.37477ZM195.934 19.92H189.934V25.92H195.934V19.92ZM260.135 42L262.949 43.0391L262.953 43.0274L260.135 42ZM266.915 23.4V20.4H264.815L264.096 22.3726L266.915 23.4ZM283.775 17.4L286.589 18.4391L286.592 18.4316L286.595 18.424L283.775 17.4ZM287.915 6L285.1 4.96088L285.098 4.96841L285.095 4.97596L287.915 6ZM233.315 6L230.5 4.96087L230.498 4.96841L230.495 4.97596L233.315 6ZM229.175 17.4L231.989 18.4391L231.992 18.4316L231.995 18.424L229.175 17.4ZM241.715 23.4L244.533 24.4274L246.001 20.4H241.715V23.4ZM234.935 42L237.749 43.0391L237.753 43.0274L234.935 42ZM238.715 51H251.915V45H238.715V51ZM251.915 51C254.424 51 256.756 50.3158 258.716 48.8859C260.664 47.4641 262.063 45.4378 262.949 43.0391L257.32 40.9609C256.766 42.4622 256.005 43.4359 255.179 44.0391C254.363 44.6342 253.306 45 251.915 45V51ZM262.953 43.0274L269.733 24.4274L264.096 22.3726L257.316 40.9726L262.953 43.0274ZM266.915 26.4H275.615V20.4H266.915V26.4ZM275.615 26.4C278.126 26.4 280.449 25.7145 282.398 24.2767C284.332 22.8498 285.709 20.8226 286.589 18.4391L280.96 16.3609C280.4 17.8774 279.647 18.8502 278.836 19.4483C278.04 20.0355 277.003 20.4 275.615 20.4V26.4ZM286.595 18.424L290.734 7.02403L285.095 4.97596L280.955 16.376L286.595 18.424ZM290.729 7.03912C291.549 4.81831 291.964 2.15926 290.566 -0.0609417C289.107 -2.37811 286.472 -3 284.135 -3V3C284.864 3 285.274 3.1013 285.467 3.17753C285.624 3.24016 285.562 3.25239 285.488 3.13594C285.425 3.03447 285.488 3.04746 285.481 3.34551C285.473 3.6621 285.386 4.18793 285.1 4.96088L290.729 7.03912ZM284.135 -3H241.535V3H284.135V-3ZM241.535 -3C239.026 -3 236.693 -2.31583 234.734 -0.885876C232.785 0.535898 231.386 2.56216 230.5 4.96087L236.129 7.03912C236.683 5.53783 237.444 4.5641 238.271 3.96087C239.086 3.36583 240.144 3 241.535 3V-3ZM230.495 4.97596L226.355 16.376L231.995 18.424L236.135 7.02403L230.495 4.97596ZM226.36 16.3609C225.532 18.6033 225.142 21.2705 226.57 23.4876C228.046 25.7779 230.675 26.4 233.015 26.4V20.4C231.455 20.4 231.443 19.9721 231.614 20.2374C231.675 20.3326 231.614 20.3197 231.618 20.0319C231.623 19.7236 231.706 19.2054 231.989 18.4391L226.36 16.3609ZM233.015 26.4H241.715V20.4H233.015V26.4ZM238.896 22.3726L232.116 40.9726L237.753 43.0274L244.533 24.4274L238.896 22.3726ZM232.12 40.9609C231.3 43.1817 230.886 45.8407 232.283 48.0609C233.742 50.3781 236.377 51 238.715 51V45C237.986 45 237.575 44.8987 237.383 44.8225C237.225 44.7598 237.288 44.7476 237.361 44.8641C237.425 44.9655 237.361 44.9525 237.369 44.6545C237.376 44.3379 237.464 43.8121 237.749 43.0391L232.12 40.9609ZM318.091 42L320.905 43.0391L320.908 43.0318L320.911 43.0245L318.091 42ZM331.171 6L328.357 4.96087L328.354 4.96819L328.351 4.97552L331.171 6ZM305.971 6L303.157 4.96087L303.154 4.96819L303.151 4.97552L305.971 6ZM292.891 42L295.705 43.0391L295.708 43.0318L295.711 43.0245L292.891 42ZM296.671 51H309.871V45H296.671V51ZM309.871 51C312.38 51 314.712 50.3158 316.672 48.8859C318.62 47.4641 320.02 45.4378 320.905 43.0391L315.277 40.9609C314.722 42.4622 313.962 43.4359 313.135 44.0391C312.32 44.6342 311.262 45 309.871 45V51ZM320.911 43.0245L333.991 7.02447L328.351 4.97552L315.271 40.9755L320.911 43.0245ZM333.985 7.03912C334.805 4.81831 335.22 2.15926 333.822 -0.0609417C332.363 -2.37811 329.728 -3 327.391 -3V3C328.12 3 328.531 3.1013 328.723 3.17753C328.881 3.24016 328.818 3.25239 328.745 3.13594C328.681 3.03447 328.744 3.04746 328.737 3.34551C328.73 3.6621 328.642 4.18793 328.357 4.96087L333.985 7.03912ZM327.391 -3H314.191V3H327.391V-3ZM314.191 -3C311.682 -3 309.35 -2.31583 307.39 -0.885876C305.442 0.535898 304.042 2.56216 303.157 4.96087L308.785 7.03912C309.34 5.53783 310.1 4.5641 310.927 3.96087C311.742 3.36583 312.8 3 314.191 3V-3ZM303.151 4.97552L290.071 40.9755L295.711 43.0245L308.791 7.02447L303.151 4.97552ZM290.077 40.9609C289.257 43.1817 288.842 45.8407 290.24 48.0609C291.699 50.3781 294.334 51 296.671 51V45C295.942 45 295.531 44.8987 295.339 44.8225C295.181 44.7598 295.244 44.7476 295.317 44.8641C295.381 44.9655 295.318 44.9525 295.325 44.6545C295.332 44.3379 295.42 43.8121 295.705 43.0391L290.077 40.9609ZM382.68 36L385.501 37.02L385.503 37.0162L382.68 36ZM383.76 33L380.946 31.9609L380.941 31.9723L380.937 31.9838L383.76 33ZM357.84 18.6L360.64 19.6769L360.649 19.6525L360.658 19.6279L357.84 18.6ZM361.56 8.4L364.378 9.42789L364.387 9.40468L364.395 9.38133L361.56 8.4ZM367.56 8.4L370.369 9.45337L370.382 9.41751L370.395 9.38133L367.56 8.4ZM366.66 10.8L363.851 9.74663L363.848 9.75375L363.846 9.76088L366.66 10.8ZM391.86 10.8L394.674 11.8391L394.677 11.8308L394.68 11.8224L391.86 10.8ZM393.6 6L390.786 4.96088L390.783 4.96923L390.78 4.9776L393.6 6ZM335.04 12L332.219 10.98L332.217 10.9838L335.04 12ZM333.96 15L336.774 16.0391L336.779 16.0277L336.783 16.0162L333.96 15ZM359.88 29.4L357.08 28.3231L357.071 28.3475L357.062 28.3721L359.88 29.4ZM356.16 39.6L353.342 38.5721L353.333 38.5953L353.325 38.6187L356.16 39.6ZM350.16 39.6L347.351 38.5466L347.338 38.5825L347.325 38.6187L350.16 39.6ZM351.06 37.2L353.869 38.2534L353.872 38.2463L353.874 38.2391L351.06 37.2ZM325.86 37.2L323.046 36.1609L323.043 36.1692L323.04 36.1776L325.86 37.2ZM324.12 42L326.934 43.0391L326.937 43.0308L326.94 43.0224L324.12 42ZM327.9 51H366.3V45H327.9V51ZM366.3 51C370.758 51 374.787 49.7912 378.129 47.3461C381.461 44.9083 383.926 41.3763 385.501 37.02L379.859 34.98C378.614 38.4237 376.789 40.8917 374.586 42.5039C372.393 44.1088 369.642 45 366.3 45V51ZM385.503 37.0162L386.583 34.0162L380.937 31.9838L379.857 34.9838L385.503 37.0162ZM386.574 34.0391C388.118 29.8575 388.544 25.6944 386.485 22.4632C384.373 19.147 380.429 18 376.14 18V24C379.651 24 380.957 24.953 381.425 25.6868C381.946 26.5056 382.282 28.3425 380.946 31.9609L386.574 34.0391ZM376.14 18H359.34V24H376.14V18ZM359.34 18C359.196 18 359.271 17.9775 359.467 18.0548C359.695 18.1452 360.052 18.3625 360.319 18.7866C360.578 19.1978 360.605 19.5696 360.6 19.7274C360.596 19.8654 360.569 19.8619 360.64 19.6769L355.04 17.5231C354.633 18.5807 354.215 20.354 355.241 21.9834C356.32 23.696 358.178 24 359.34 24V18ZM360.658 19.6279L364.378 9.42789L358.742 7.37211L355.022 17.5721L360.658 19.6279ZM364.395 9.38133C364.504 9.06506 364.605 9.00937 364.582 9.02684C364.576 9.03085 364.576 9.02849 364.595 9.02261C364.617 9.01592 364.68 9 364.8 9V3C363.462 3 362.142 3.36864 361.013 4.20316C359.895 5.03063 359.156 6.17494 358.725 7.41867L364.395 9.38133ZM364.8 9H366V3H364.8V9ZM366 9C366.143 9 366.069 9.02221 365.877 8.94654C365.653 8.85792 365.311 8.64868 365.05 8.24668C364.798 7.85801 364.763 7.50598 364.763 7.35744C364.764 7.22777 364.789 7.23424 364.725 7.41867L370.395 9.38133C370.764 8.31463 371.112 6.5673 370.085 4.98331C369.001 3.31145 367.179 3 366 3V9ZM364.751 7.34663L363.851 9.74663L369.469 11.8534L370.369 9.45337L364.751 7.34663ZM363.846 9.76088C363.018 12.0033 362.627 14.6705 364.056 16.8876C365.532 19.1779 368.16 19.8 370.5 19.8V13.8C368.94 13.8 368.928 13.3721 369.099 13.6374C369.161 13.7326 369.099 13.7197 369.104 13.4319C369.109 13.1236 369.191 12.6054 369.474 11.8391L363.846 9.76088ZM370.5 19.8H383.7V13.8H370.5V19.8ZM383.7 19.8C386.211 19.8 388.534 19.1145 390.483 17.6767C392.418 16.2498 393.794 14.2226 394.674 11.8391L389.046 9.76088C388.486 11.2774 387.732 12.2502 386.922 12.8483C386.126 13.4355 385.089 13.8 383.7 13.8V19.8ZM394.68 11.8224L396.42 7.0224L390.78 4.9776L389.04 9.7776L394.68 11.8224ZM396.414 7.03912C397.234 4.81831 397.649 2.15926 396.251 -0.0609417C394.792 -2.37811 392.157 -3 389.82 -3V3C390.549 3 390.96 3.1013 391.152 3.17753C391.31 3.24016 391.247 3.25239 391.174 3.13594C391.11 3.03447 391.173 3.04746 391.166 3.34551C391.159 3.6621 391.071 4.18793 390.786 4.96088L396.414 7.03912ZM389.82 -3H351.42V3H389.82V-3ZM351.42 -3C346.962 -3 342.933 -1.79123 339.591 0.653908C336.259 3.09166 333.794 6.62372 332.219 10.98L337.861 13.02C339.106 9.57627 340.931 7.10834 343.134 5.49609C345.327 3.89123 348.078 3 351.42 3V-3ZM332.217 10.9838L331.137 13.9838L336.783 16.0162L337.863 13.0162L332.217 10.9838ZM331.146 13.9609C329.602 18.1425 329.176 22.3056 331.235 25.5368C333.347 28.853 337.291 30 341.58 30V24C338.069 24 336.763 23.047 336.295 22.3132C335.774 21.4944 335.438 19.6575 336.774 16.0391L331.146 13.9609ZM341.58 30H358.38V24H341.58V30ZM358.38 30C358.524 30 358.449 30.0225 358.253 29.9452C358.025 29.8548 357.668 29.6375 357.401 29.2134C357.142 28.8022 357.115 28.4303 357.12 28.2726C357.124 28.1346 357.151 28.1381 357.08 28.3231L362.68 30.4769C363.087 29.4193 363.505 27.646 362.479 26.0166C361.4 24.304 359.542 24 358.38 24V30ZM357.062 28.3721L353.342 38.5721L358.978 40.6279L362.698 30.4279L357.062 28.3721ZM353.325 38.6187C353.216 38.9349 353.115 38.9906 353.138 38.9732C353.144 38.9691 353.144 38.9715 353.125 38.9774C353.103 38.9841 353.04 39 352.92 39V45C354.258 45 355.578 44.6314 356.707 43.7968C357.825 42.9694 358.564 41.8251 358.995 40.5813L353.325 38.6187ZM352.92 39H351.72V45H352.92V39ZM351.72 39C351.577 39 351.651 38.9778 351.843 39.0535C352.067 39.1421 352.409 39.3513 352.67 39.7533C352.922 40.142 352.957 40.494 352.957 40.6426C352.956 40.7722 352.931 40.7658 352.995 40.5813L347.325 38.6187C346.956 39.6854 346.608 41.4327 347.635 43.0167C348.719 44.6885 350.541 45 351.72 45V39ZM352.969 40.6534L353.869 38.2534L348.251 36.1466L347.351 38.5466L352.969 40.6534ZM353.874 38.2391C354.702 35.9967 355.093 33.3295 353.664 31.1124C352.188 28.8221 349.56 28.2 347.22 28.2V34.2C348.78 34.2 348.792 34.6279 348.621 34.3626C348.559 34.2674 348.621 34.2802 348.616 34.5681C348.611 34.8764 348.529 35.3946 348.246 36.1609L353.874 38.2391ZM347.22 28.2H334.02V34.2H347.22V28.2ZM334.02 28.2C331.509 28.2 329.186 28.8855 327.237 30.3233C325.302 31.7502 323.926 33.7774 323.046 36.1609L328.674 38.2391C329.234 36.7226 329.988 35.7498 330.798 35.1517C331.594 34.5645 332.631 34.2 334.02 34.2V28.2ZM323.04 36.1776L321.3 40.9776L326.94 43.0224L328.68 38.2224L323.04 36.1776ZM321.306 40.9609C320.486 43.1817 320.071 45.8407 321.469 48.0609C322.928 50.3781 325.563 51 327.9 51V45C327.171 45 326.76 44.8987 326.568 44.8225C326.41 44.7598 326.473 44.7476 326.546 44.8641C326.61 44.9655 326.547 44.9525 326.554 44.6545C326.561 44.3379 326.649 43.8121 326.934 43.0391L321.306 40.9609ZM26.82 126L29.6343 127.039L29.6388 127.027L26.82 126ZM39.06 92.4L41.8788 93.4268L41.8871 93.4042L41.895 93.3813L39.06 92.4ZM45.06 92.4L47.8788 93.4268L47.8871 93.4042L47.895 93.3813L45.06 92.4ZM32.82 126L35.6343 127.039L35.6388 127.027L32.82 126ZM58.02 126L60.8343 127.039L60.8391 127.026L58.02 126ZM68.94 96L71.7591 97.0261L71.7613 97.02L68.94 96ZM12.54 96L15.3591 97.0261L15.3613 97.02L12.54 96ZM1.62 126L4.43432 127.039L4.43905 127.026L1.62 126ZM5.4 135H18.6V129H5.4V135ZM18.6 135C21.1091 135 23.4413 134.316 25.4009 132.886C27.3493 131.464 28.7486 129.438 29.6343 127.039L24.0057 124.961C23.4514 126.462 22.6907 127.436 21.8641 128.039C21.0487 128.634 19.9909 129 18.6 129V135ZM29.6388 127.027L41.8788 93.4268L36.2412 91.3732L24.0012 124.973L29.6388 127.027ZM41.895 93.3813C42.0044 93.0651 42.1052 93.0094 42.0816 93.0268C42.0762 93.0309 42.0759 93.0285 42.0949 93.0226C42.1167 93.0159 42.1801 93 42.3 93V87C40.9625 87 39.6415 87.3686 38.5134 88.2032C37.3948 89.0306 36.6556 90.1749 36.225 91.4187L41.895 93.3813ZM42.3 93H43.5V87H42.3V93ZM43.5 93C43.6428 93 43.5694 93.0222 43.3775 92.9465C43.1527 92.8579 42.8106 92.6487 42.55 92.2467C42.2981 91.858 42.263 91.506 42.2635 91.3574C42.2639 91.2278 42.2889 91.2342 42.225 91.4187L47.895 93.3813C48.2642 92.3146 48.6116 90.5673 47.585 88.9833C46.5013 87.3115 44.6788 87 43.5 87V93ZM42.2412 91.3732L30.0012 124.973L35.6388 127.027L47.8788 93.4268L42.2412 91.3732ZM30.0057 124.961C29.1857 127.182 28.7709 129.841 30.1688 132.061C31.6278 134.378 34.2627 135 36.6 135V129C35.871 129 35.4602 128.899 35.2681 128.822C35.1103 128.76 35.1729 128.748 35.2462 128.864C35.3101 128.966 35.2467 128.953 35.2538 128.654C35.2614 128.338 35.3489 127.812 35.6343 127.039L30.0057 124.961ZM36.6 135H49.8V129H36.6V135ZM49.8 135C52.3091 135 54.6413 134.316 56.6009 132.886C58.5493 131.464 59.9486 129.438 60.8343 127.039L55.2057 124.961C54.6514 126.462 53.8907 127.436 53.0641 128.039C52.2487 128.634 51.1909 129 49.8 129V135ZM60.8391 127.026L71.7591 97.0261L66.121 94.9739L55.201 124.974L60.8391 127.026ZM71.7613 97.02C73.2698 92.8474 73.6886 88.6935 71.647 85.4698C69.5434 82.1484 65.6107 81 61.32 81V87C64.8293 87 66.1166 87.9516 66.578 88.6802C67.1014 89.5065 67.4302 91.3526 66.1187 94.98L71.7613 97.02ZM61.32 81H28.92V87H61.32V81ZM28.92 81C24.4618 81 20.4327 82.2088 17.091 84.6539C13.7594 87.0917 11.2937 90.6237 9.71872 94.98L15.3613 97.02C16.6063 93.5763 18.4306 91.1083 20.634 89.4961C22.8273 87.8912 25.5782 87 28.92 87V81ZM9.72095 94.9739L-1.19905 124.974L4.43905 127.026L15.3591 97.0261L9.72095 94.9739ZM-1.19429 124.961C-2.01428 127.182 -2.42911 129.841 -1.0312 132.061C0.427762 134.378 3.06271 135 5.4 135V129C4.67103 129 4.26021 128.899 4.0681 128.822C3.91027 128.76 3.97288 128.748 4.0462 128.864C4.11008 128.966 4.04671 128.953 4.05383 128.654C4.0614 128.338 4.14889 127.812 4.43429 127.039L-1.19429 124.961ZM103.982 126L106.797 127.039L106.801 127.027L103.982 126ZM110.762 107.4V104.4H108.663L107.944 106.373L110.762 107.4ZM127.622 101.4L130.437 102.439L130.439 102.432L130.442 102.424L127.622 101.4ZM131.762 90L128.948 88.9609L128.945 88.9684L128.943 88.976L131.762 90ZM77.1623 90L74.3481 88.9609L74.3453 88.9684L74.3425 88.976L77.1623 90ZM73.0223 101.4L75.8366 102.439L75.8394 102.432L75.8422 102.424L73.0223 101.4ZM85.5623 107.4L88.3809 108.427L89.849 104.4H85.5623V107.4ZM78.7823 126L81.5967 127.039L81.6009 127.027L78.7823 126ZM82.5623 135H95.7623V129H82.5623V135ZM95.7623 135C98.2714 135 100.604 134.316 102.563 132.886C104.512 131.464 105.911 129.438 106.797 127.039L101.168 124.961C100.614 126.462 99.8531 127.436 99.0264 128.039C98.211 128.634 97.1533 129 95.7623 129V135ZM106.801 127.027L113.581 108.427L107.944 106.373L101.164 124.973L106.801 127.027ZM110.762 110.4H119.462V104.4H110.762V110.4ZM119.462 110.4C121.974 110.4 124.297 109.714 126.246 108.277C128.18 106.85 129.557 104.823 130.437 102.439L124.808 100.361C124.248 101.877 123.495 102.85 122.684 103.448C121.888 104.036 120.851 104.4 119.462 104.4V110.4ZM130.442 102.424L134.582 91.024L128.943 88.976L124.803 100.376L130.442 102.424ZM134.577 91.0391C135.397 88.8183 135.811 86.1593 134.414 83.9391C132.955 81.6219 130.32 81 127.982 81V87C128.711 87 129.122 87.1013 129.314 87.1775C129.472 87.2402 129.409 87.2524 129.336 87.1359C129.272 87.0345 129.336 87.0475 129.329 87.3455C129.321 87.6621 129.233 88.1879 128.948 88.9609L134.577 91.0391ZM127.982 81H85.3823V87H127.982V81ZM85.3823 81C82.8732 81 80.541 81.6842 78.5814 83.1141C76.6331 84.5359 75.2337 86.5622 74.3481 88.9609L79.9766 91.0391C80.531 89.5378 81.2916 88.5641 82.1182 87.9609C82.9337 87.3658 83.9914 87 85.3823 87V81ZM74.3425 88.976L70.2025 100.376L75.8422 102.424L79.9822 91.024L74.3425 88.976ZM70.2081 100.361C69.3801 102.603 68.9894 105.271 70.4181 107.488C71.8941 109.778 74.5223 110.4 76.8623 110.4V104.4C75.3024 104.4 75.2906 103.972 75.4616 104.237C75.5229 104.333 75.4613 104.32 75.466 104.032C75.471 103.724 75.5537 103.205 75.8366 102.439L70.2081 100.361ZM76.8623 110.4H85.5623V104.4H76.8623V110.4ZM82.7438 106.373L75.9638 124.973L81.6009 127.027L88.3809 108.427L82.7438 106.373ZM75.9681 124.961C75.1481 127.182 74.7332 129.841 76.1311 132.061C77.5901 134.378 80.2251 135 82.5623 135V129C81.8334 129 81.4226 128.899 81.2304 128.822C81.0726 128.76 81.1352 128.748 81.2085 128.864C81.2724 128.966 81.2091 128.953 81.2162 128.654C81.2237 128.338 81.3112 127.812 81.5966 127.039L75.9681 124.961ZM137.807 90L134.993 88.9609L134.988 88.9739L137.807 90ZM126.887 120L124.068 118.974L124.066 118.98L126.887 120ZM183.287 120L180.468 118.974L180.466 118.98L183.287 120ZM194.207 90L191.393 88.9609L191.388 88.9739L194.207 90ZM169.007 90L166.193 88.9609L166.188 88.9732L169.007 90ZM156.767 123.6L153.948 122.573L153.94 122.596L153.932 122.619L156.767 123.6ZM150.767 123.6L147.948 122.573L147.94 122.596L147.932 122.619L150.767 123.6ZM163.007 90L160.193 88.9609L160.188 88.9732L163.007 90ZM159.227 81H146.027V87H159.227V81ZM146.027 81C143.518 81 141.186 81.6842 139.226 83.1141C137.278 84.5359 135.878 86.5622 134.993 88.9609L140.621 91.0391C141.175 89.5378 141.936 88.5641 142.763 87.9609C143.578 87.3658 144.636 87 146.027 87V81ZM134.988 88.9739L124.068 118.974L129.706 121.026L140.626 91.0261L134.988 88.9739ZM124.066 118.98C122.557 123.153 122.138 127.307 124.18 130.53C126.284 133.852 130.216 135 134.507 135V129C130.998 129 129.71 128.048 129.249 127.32C128.725 126.493 128.397 124.647 129.708 121.02L124.066 118.98ZM134.507 135H166.907V129H134.507V135ZM166.907 135C171.365 135 175.394 133.791 178.736 131.346C182.068 128.908 184.533 125.376 186.108 121.02L180.466 118.98C179.221 122.424 177.396 124.892 175.193 126.504C173 128.109 170.249 129 166.907 129V135ZM186.106 121.026L197.026 91.0261L191.388 88.9739L180.468 118.974L186.106 121.026ZM197.021 91.0391C197.841 88.8183 198.256 86.1593 196.858 83.9391C195.399 81.6219 192.764 81 190.427 81V87C191.156 87 191.567 87.1013 191.759 87.1775C191.917 87.2402 191.854 87.2524 191.781 87.1359C191.717 87.0345 191.78 87.0475 191.773 87.3455C191.765 87.6621 191.678 88.1879 191.393 88.9609L197.021 91.0391ZM190.427 81H177.227V87H190.427V81ZM177.227 81C174.718 81 172.386 81.6842 170.426 83.1141C168.478 84.5359 167.078 86.5622 166.193 88.9609L171.821 91.0391C172.375 89.5378 173.136 88.5641 173.963 87.9609C174.778 87.3658 175.836 87 177.227 87V81ZM166.188 88.9732L153.948 122.573L159.586 124.627L171.826 91.0268L166.188 88.9732ZM153.932 122.619C153.822 122.935 153.722 122.991 153.745 122.973C153.751 122.969 153.751 122.972 153.732 122.977C153.71 122.984 153.647 123 153.527 123V129C154.864 129 156.185 128.631 157.313 127.797C158.432 126.969 159.171 125.825 159.602 124.581L153.932 122.619ZM153.527 123H152.327V129H153.527V123ZM152.327 123C152.184 123 152.257 122.978 152.449 123.053C152.674 123.142 153.016 123.351 153.277 123.753C153.529 124.142 153.564 124.494 153.563 124.643C153.563 124.772 153.538 124.766 153.602 124.581L147.932 122.619C147.563 123.685 147.215 125.433 148.242 127.017C149.326 128.689 151.148 129 152.327 129V123ZM153.586 124.627L165.826 91.0268L160.188 88.9732L147.948 122.573L153.586 124.627ZM165.821 91.0391C166.641 88.8183 167.056 86.1593 165.658 83.9391C164.199 81.6219 161.564 81 159.227 81V87C159.956 87 160.367 87.1013 160.559 87.1775C160.717 87.2402 160.654 87.2524 160.581 87.1359C160.517 87.0345 160.58 87.0475 160.573 87.3455C160.565 87.6621 160.478 88.1879 160.193 88.9609L165.821 91.0391ZM224.341 126L227.155 127.039L227.158 127.031L227.161 127.022L224.341 126ZM229.081 112.92V109.92H226.977L226.26 111.898L229.081 112.92ZM235.081 112.92L237.901 113.942L239.359 109.92H235.081V112.92ZM230.341 126L233.155 127.039L233.158 127.031L233.161 127.022L230.341 126ZM255.541 126L258.355 127.039L258.358 127.031L258.361 127.022L255.541 126ZM264.241 102L261.422 100.974L261.421 100.978L264.241 102ZM207.841 102L205.022 100.974L205.021 100.978L207.841 102ZM199.141 126L201.955 127.039L201.958 127.031L201.961 127.022L199.141 126ZM231.301 106.92L228.482 105.895L227.018 109.92H231.301V106.92ZM236.581 92.4L239.4 93.4252L239.408 93.4033L239.416 93.3813L236.581 92.4ZM242.581 92.4L245.4 93.4252L245.408 93.4033L245.416 93.3813L242.581 92.4ZM237.301 106.92V109.92H239.402L240.12 107.945L237.301 106.92ZM202.921 135H216.121V129H202.921V135ZM216.121 135C218.63 135 220.962 134.316 222.922 132.886C224.87 131.464 226.27 129.438 227.155 127.039L221.527 124.961C220.972 126.462 220.212 127.436 219.385 128.039C218.57 128.634 217.512 129 216.121 129V135ZM227.161 127.022L231.901 113.942L226.26 111.898L221.52 124.978L227.161 127.022ZM229.081 115.92H235.081V109.92H229.081V115.92ZM232.26 111.898L227.52 124.978L233.161 127.022L237.901 113.942L232.26 111.898ZM227.527 124.961C226.707 127.182 226.292 129.841 227.69 132.061C229.149 134.378 231.784 135 234.121 135V129C233.392 129 232.981 128.899 232.789 128.822C232.631 128.76 232.694 128.748 232.767 128.864C232.831 128.966 232.768 128.953 232.775 128.654C232.782 128.338 232.87 127.812 233.155 127.039L227.527 124.961ZM234.121 135H247.321V129H234.121V135ZM247.321 135C249.83 135 252.162 134.316 254.122 132.886C256.07 131.464 257.47 129.438 258.355 127.039L252.727 124.961C252.172 126.462 251.412 127.436 250.585 128.039C249.77 128.634 248.712 129 247.321 129V135ZM258.361 127.022L267.061 103.022L261.421 100.978L252.721 124.978L258.361 127.022ZM267.06 103.026C269.289 96.9044 269.741 91.2487 267.062 87.0096C264.321 82.6729 259.081 81 252.841 81V87C258.301 87 260.891 88.4771 261.99 90.2154C263.15 92.0512 263.453 95.3956 261.422 100.974L267.06 103.026ZM252.841 81H232.441V87H252.841V81ZM232.441 81C226.032 81 220.309 82.7339 215.58 86.1906C210.862 89.6397 207.317 94.6699 205.022 100.974L210.66 103.026C212.625 97.6301 215.529 93.6603 219.121 91.0344C222.703 88.4161 227.149 87 232.441 87V81ZM205.021 100.978L196.321 124.978L201.961 127.022L210.661 103.022L205.021 100.978ZM196.327 124.961C195.507 127.182 195.092 129.841 196.49 132.061C197.949 134.378 200.584 135 202.921 135V129C202.192 129 201.781 128.899 201.589 128.822C201.431 128.76 201.494 128.748 201.567 128.864C201.631 128.966 201.568 128.953 201.575 128.654C201.582 128.338 201.67 127.812 201.955 127.039L196.327 124.961ZM234.12 107.945L239.4 93.4252L233.762 91.3748L228.482 105.895L234.12 107.945ZM239.416 93.3813C239.525 93.0651 239.626 93.0094 239.603 93.0268C239.597 93.0309 239.597 93.0285 239.616 93.0226C239.638 93.0159 239.701 93 239.821 93V87C238.483 87 237.162 87.3686 236.034 88.2032C234.916 89.0306 234.176 90.1749 233.746 91.4187L239.416 93.3813ZM239.821 93H241.021V87H239.821V93ZM241.021 93C241.164 93 241.09 93.0222 240.898 92.9465C240.674 92.8579 240.332 92.6487 240.071 92.2467C239.819 91.858 239.784 91.506 239.784 91.3574C239.785 91.2278 239.81 91.2342 239.746 91.4187L245.416 93.3813C245.785 92.3146 246.133 90.5673 245.106 88.9833C244.022 87.3115 242.2 87 241.021 87V93ZM239.762 91.3748L234.482 105.895L240.12 107.945L245.4 93.4252L239.762 91.3748ZM237.301 103.92H231.301V109.92H237.301V103.92ZM286.802 126L289.616 127.039L289.619 127.031L289.622 127.023L286.802 126ZM292.202 111.12V108.12H290.099L289.382 110.097L292.202 111.12ZM298.202 111.12L301.02 112.148L302.49 108.12H298.202V111.12ZM294.962 120L292.144 118.972L292.141 118.98L294.962 120ZM316.802 126L319.616 127.039L319.621 127.026L319.625 127.014L316.802 126ZM318.482 121.32L315.668 120.281L315.663 120.294L315.658 120.306L318.482 121.32ZM303.542 112.92L300.725 111.887L300.716 111.913L300.707 111.939L303.542 112.92ZM304.202 111.12V108.12H302.107L301.385 110.087L304.202 111.12ZM327.182 97.44L329.999 98.4707L330.003 98.4611L327.182 97.44ZM274.682 90L271.868 88.9609L271.865 88.9682L271.862 88.9755L274.682 90ZM261.602 126L264.416 127.039L264.419 127.032L264.422 127.024L261.602 126ZM295.262 102.72L292.445 101.688L292.436 101.713L292.427 101.739L295.262 102.72ZM299.042 92.4L301.859 93.4318L301.868 93.4066L301.877 93.3813L299.042 92.4ZM305.042 92.4L307.859 93.4318L307.868 93.4066L307.877 93.3813L305.042 92.4ZM301.262 102.72L298.445 101.688L298.436 101.713L298.427 101.739L301.262 102.72ZM265.382 135H278.582V129H265.382V135ZM278.582 135C281.091 135 283.423 134.316 285.383 132.886C287.331 131.464 288.73 129.438 289.616 127.039L283.988 124.961C283.433 126.462 282.673 127.436 281.846 128.039C281.031 128.634 279.973 129 278.582 129V135ZM289.622 127.023L295.022 112.143L289.382 110.097L283.982 124.977L289.622 127.023ZM292.202 114.12H298.202V108.12H292.202V114.12ZM295.384 110.092L292.144 118.972L297.78 121.028L301.02 112.148L295.384 110.092ZM292.141 118.98C290.632 123.153 290.213 127.307 292.255 130.53C294.358 133.852 298.291 135 302.582 135V129C299.073 129 297.785 128.048 297.324 127.32C296.8 126.493 296.472 124.647 297.783 121.02L292.141 118.98ZM302.582 135H308.582V129H302.582V135ZM308.582 135C311.091 135 313.423 134.316 315.383 132.886C317.331 131.464 318.73 129.438 319.616 127.039L313.988 124.961C313.433 126.462 312.673 127.436 311.846 128.039C311.031 128.634 309.973 129 308.582 129V135ZM319.625 127.014L321.305 122.334L315.658 120.306L313.978 124.986L319.625 127.014ZM321.296 122.359C322.116 120.138 322.531 117.479 321.133 115.259C319.674 112.942 317.039 112.32 314.702 112.32V118.32C315.431 118.32 315.842 118.421 316.034 118.498C316.192 118.56 316.129 118.572 316.056 118.456C315.992 118.354 316.055 118.367 316.048 118.666C316.04 118.982 315.953 119.508 315.668 120.281L321.296 122.359ZM314.702 112.32H305.102V118.32H314.702V112.32ZM305.102 112.32C304.959 112.32 305.032 112.298 305.224 112.373C305.449 112.462 305.791 112.671 306.052 113.073C306.304 113.462 306.339 113.814 306.338 113.963C306.338 114.092 306.313 114.086 306.377 113.901L300.707 111.939C300.338 113.005 299.99 114.753 301.017 116.337C302.101 118.009 303.923 118.32 305.102 118.32V112.32ZM306.359 113.953L307.018 112.153L301.385 110.087L300.725 111.887L306.359 113.953ZM304.202 114.12H311.822V108.12H304.202V114.12ZM311.822 114.12C316.17 114.12 319.878 112.99 322.988 110.205C325.978 107.527 328.138 103.559 329.999 98.4707L324.365 96.4093C322.626 101.161 320.886 104.033 318.985 105.735C317.205 107.33 315.034 108.12 311.822 108.12V114.12ZM330.003 98.4611C330.926 95.9091 331.56 93.5933 331.783 91.5379C332.006 89.4891 331.847 87.45 330.913 85.6626C328.929 81.8684 324.56 81 320.102 81V87C324.404 87 325.344 87.9616 325.596 88.4424C325.779 88.7925 325.969 89.5021 325.818 90.8903C325.668 92.2717 325.207 94.0809 324.361 96.4189L330.003 98.4611ZM320.102 81H282.902V87H320.102V81ZM282.902 81C280.393 81 278.061 81.6842 276.101 83.1141C274.153 84.5359 272.753 86.5622 271.868 88.9609L277.496 91.0391C278.05 89.5378 278.811 88.5641 279.638 87.9609C280.453 87.3658 281.511 87 282.902 87V81ZM271.862 88.9755L258.782 124.976L264.422 127.024L277.502 91.0245L271.862 88.9755ZM258.788 124.961C257.968 127.182 257.553 129.841 258.951 132.061C260.41 134.378 263.045 135 265.382 135V129C264.653 129 264.242 128.899 264.05 128.822C263.892 128.76 263.955 128.748 264.028 128.864C264.092 128.966 264.029 128.953 264.036 128.654C264.043 128.338 264.131 127.812 264.416 127.039L258.788 124.961ZM298.079 103.752L301.859 93.4318L296.225 91.3682L292.445 101.688L298.079 103.752ZM301.877 93.3813C301.986 93.0651 302.087 93.0094 302.063 93.0268C302.058 93.0309 302.058 93.0285 302.077 93.0226C302.099 93.0159 302.162 93 302.282 93V87C300.944 87 299.623 87.3686 298.495 88.2032C297.377 89.0306 296.637 90.1749 296.207 91.4187L301.877 93.3813ZM302.282 93H303.482V87H302.282V93ZM303.482 93C303.625 93 303.551 93.0222 303.359 92.9465C303.135 92.8579 302.792 92.6487 302.532 92.2467C302.28 91.858 302.245 91.506 302.245 91.3574C302.246 91.2278 302.271 91.2342 302.207 91.4187L307.877 93.3813C308.246 92.3146 308.594 90.5673 307.567 88.9833C306.483 87.3115 304.661 87 303.482 87V93ZM302.225 91.3682L298.445 101.688L304.079 103.752L307.859 93.4318L302.225 91.3682ZM298.427 101.739C298.377 101.882 298.327 101.966 298.296 102.01C298.266 102.052 298.247 102.067 298.241 102.07C298.236 102.074 298.223 102.083 298.19 102.093C298.154 102.104 298.082 102.12 297.962 102.12V108.12C299.294 108.12 300.615 107.755 301.747 106.94C302.878 106.126 303.653 104.984 304.097 103.701L298.427 101.739ZM297.962 102.12H296.762V108.12H297.962V102.12ZM296.762 102.12C296.617 102.12 296.704 102.097 296.915 102.182C297.165 102.282 297.523 102.514 297.784 102.941C298.031 103.344 298.051 103.696 298.048 103.819C298.046 103.928 298.027 103.903 298.097 103.701L292.427 101.739C292.077 102.751 291.692 104.479 292.665 106.069C293.728 107.809 295.59 108.12 296.762 108.12V102.12ZM362.791 126L365.605 127.039L365.61 127.027L362.791 126ZM369.571 107.4V104.4H367.471L366.752 106.373L369.571 107.4ZM386.431 101.4L389.245 102.439L389.248 102.432L389.251 102.424L386.431 101.4ZM390.571 90L387.757 88.9609L387.754 88.9684L387.751 88.976L390.571 90ZM335.971 90L333.157 88.9609L333.154 88.9684L333.151 88.976L335.971 90ZM331.831 101.4L334.645 102.439L334.648 102.432L334.651 102.424L331.831 101.4ZM344.371 107.4L347.19 108.427L348.658 104.4H344.371V107.4ZM337.591 126L340.405 127.039L340.41 127.027L337.591 126ZM341.371 135H354.571V129H341.371V135ZM354.571 135C357.08 135 359.412 134.316 361.372 132.886C363.32 131.464 364.72 129.438 365.605 127.039L359.977 124.961C359.422 126.462 358.662 127.436 357.835 128.039C357.02 128.634 355.962 129 354.571 129V135ZM365.61 127.027L372.39 108.427L366.752 106.373L359.972 124.973L365.61 127.027ZM369.571 110.4H378.271V104.4H369.571V110.4ZM378.271 110.4C380.782 110.4 383.105 109.714 385.054 108.277C386.989 106.85 388.365 104.823 389.245 102.439L383.617 100.361C383.057 101.877 382.303 102.85 381.492 103.448C380.697 104.036 379.66 104.4 378.271 104.4V110.4ZM389.251 102.424L393.391 91.024L387.751 88.976L383.611 100.376L389.251 102.424ZM393.385 91.0391C394.205 88.8183 394.62 86.1593 393.222 83.9391C391.763 81.6219 389.128 81 386.791 81V87C387.52 87 387.931 87.1013 388.123 87.1775C388.281 87.2402 388.218 87.2524 388.145 87.1359C388.081 87.0345 388.144 87.0475 388.137 87.3455C388.13 87.6621 388.042 88.1879 387.757 88.9609L393.385 91.0391ZM386.791 81H344.191V87H386.791V81ZM344.191 81C341.682 81 339.35 81.6842 337.39 83.1141C335.442 84.5359 334.042 86.5622 333.157 88.9609L338.785 91.0391C339.34 89.5378 340.1 88.5641 340.927 87.9609C341.742 87.3658 342.8 87 344.191 87V81ZM333.151 88.976L329.011 100.376L334.651 102.424L338.791 91.024L333.151 88.976ZM329.017 100.361C328.189 102.603 327.798 105.271 329.227 107.488C330.703 109.778 333.331 110.4 335.671 110.4V104.4C334.111 104.4 334.099 103.972 334.27 104.237C334.332 104.333 334.27 104.32 334.275 104.032C334.28 103.724 334.362 103.205 334.645 102.439L329.017 100.361ZM335.671 110.4H344.371V104.4H335.671V110.4ZM341.552 106.373L334.772 124.973L340.41 127.027L347.19 108.427L341.552 106.373ZM334.777 124.961C333.957 127.182 333.542 129.841 334.94 132.061C336.399 134.378 339.034 135 341.371 135V129C340.642 129 340.231 128.899 340.039 128.822C339.881 128.76 339.944 128.748 340.017 128.864C340.081 128.966 340.018 128.953 340.025 128.654C340.032 128.338 340.12 127.812 340.405 127.039L334.777 124.961ZM442.035 120L444.857 121.02L444.858 121.016L442.035 120ZM443.115 117L440.301 115.961L440.297 115.972L440.293 115.984L443.115 117ZM417.195 102.6L419.996 103.677L420.005 103.652L420.014 103.628L417.195 102.6ZM420.915 92.4L423.734 93.4279L423.742 93.4047L423.75 93.3813L420.915 92.4ZM426.915 92.4L429.724 93.4534L429.738 93.4175L429.75 93.3813L426.915 92.4ZM426.015 94.8L423.206 93.7466L423.204 93.7537L423.201 93.7609L426.015 94.8ZM451.215 94.8L454.03 95.8391L454.033 95.8308L454.036 95.8224L451.215 94.8ZM452.955 90L450.141 88.9609L450.138 88.9692L450.135 88.9776L452.955 90ZM394.395 96L391.574 94.98L391.573 94.9838L394.395 96ZM393.315 99L396.13 100.039L396.134 100.028L396.138 100.016L393.315 99ZM419.235 113.4L416.435 112.323L416.426 112.348L416.417 112.372L419.235 113.4ZM415.515 123.6L412.697 122.572L412.689 122.595L412.681 122.619L415.515 123.6ZM409.515 123.6L406.706 122.547L406.693 122.582L406.681 122.619L409.515 123.6ZM410.415 121.2L413.224 122.253L413.227 122.246L413.23 122.239L410.415 121.2ZM385.215 121.2L382.401 120.161L382.398 120.169L382.395 120.178L385.215 121.2ZM383.475 126L386.29 127.039L386.293 127.031L386.296 127.022L383.475 126ZM387.255 135H425.655V129H387.255V135ZM425.655 135C430.114 135 434.143 133.791 437.484 131.346C440.816 128.908 443.282 125.376 444.857 121.02L439.214 118.98C437.969 122.424 436.145 124.892 433.941 126.504C431.748 128.109 428.997 129 425.655 129V135ZM444.858 121.016L445.938 118.016L440.293 115.984L439.213 118.984L444.858 121.016ZM445.93 118.039C447.474 113.858 447.899 109.694 445.841 106.463C443.728 103.147 439.784 102 435.495 102V108C439.007 108 440.313 108.953 440.78 109.687C441.302 110.506 441.637 112.342 440.301 115.961L445.93 118.039ZM435.495 102H418.695V108H435.495V102ZM418.695 102C418.552 102 418.627 101.977 418.822 102.055C419.051 102.145 419.407 102.362 419.674 102.787C419.933 103.198 419.961 103.57 419.956 103.727C419.952 103.865 419.924 103.862 419.996 103.677L414.395 101.523C413.989 102.581 413.571 104.354 414.597 105.983C415.675 107.696 417.534 108 418.695 108V102ZM420.014 103.628L423.734 93.4279L418.097 91.3721L414.377 101.572L420.014 103.628ZM423.75 93.3813C423.86 93.0651 423.961 93.0094 423.937 93.0268C423.932 93.0309 423.931 93.0285 423.95 93.0226C423.972 93.0159 424.036 93 424.155 93V87C422.818 87 421.497 87.3686 420.369 88.2032C419.25 89.0306 418.511 90.1749 418.081 91.4187L423.75 93.3813ZM424.155 93H425.355V87H424.155V93ZM425.355 93C425.498 93 425.425 93.0222 425.233 92.9465C425.008 92.8579 424.666 92.6487 424.406 92.2467C424.154 91.858 424.118 91.506 424.119 91.3574C424.119 91.2278 424.144 91.2342 424.081 91.4187L429.75 93.3813C430.12 92.3146 430.467 90.5673 429.44 88.9833C428.357 87.3115 426.534 87 425.355 87V93ZM424.106 91.3466L423.206 93.7466L428.824 95.8534L429.724 93.4534L424.106 91.3466ZM423.201 93.7609C422.373 96.0033 421.982 98.6705 423.411 100.888C424.887 103.178 427.515 103.8 429.855 103.8V97.8C428.296 97.8 428.284 97.3721 428.455 97.6374C428.516 97.7326 428.454 97.7197 428.459 97.4319C428.464 97.1236 428.547 96.6054 428.83 95.8391L423.201 93.7609ZM429.855 103.8H443.055V97.8H429.855V103.8ZM443.055 103.8C445.567 103.8 447.89 103.114 449.839 101.677C451.773 100.25 453.15 98.2226 454.03 95.8391L448.401 93.7609C447.841 95.2774 447.088 96.2502 446.277 96.8483C445.481 97.4355 444.444 97.8 443.055 97.8V103.8ZM454.036 95.8224L455.776 91.0224L450.135 88.9776L448.395 93.7776L454.036 95.8224ZM455.77 91.0391C456.59 88.8183 457.005 86.1593 455.607 83.9391C454.148 81.6219 451.513 81 449.175 81V87C449.904 87 450.315 87.1013 450.507 87.1775C450.665 87.2402 450.603 87.2524 450.529 87.1359C450.465 87.0345 450.529 87.0475 450.522 87.3455C450.514 87.6621 450.427 88.1879 450.141 88.9609L455.77 91.0391ZM449.175 81H410.775V87H449.175V81ZM410.775 81C406.317 81 402.288 82.2088 398.946 84.6539C395.615 87.0917 393.149 90.6237 391.574 94.98L397.217 97.02C398.462 93.5763 400.286 91.1083 402.49 89.4961C404.683 87.8912 407.434 87 410.775 87V81ZM391.573 94.9838L390.493 97.9838L396.138 100.016L397.218 97.0162L391.573 94.9838ZM390.501 97.9609C388.957 102.142 388.532 106.306 390.59 109.537C392.703 112.853 396.647 114 400.935 114V108C397.424 108 396.118 107.047 395.651 106.313C395.129 105.494 394.794 103.658 396.13 100.039L390.501 97.9609ZM400.935 114H417.735V108H400.935V114ZM417.735 114C417.879 114 417.804 114.023 417.609 113.945C417.38 113.855 417.024 113.638 416.757 113.213C416.498 112.802 416.47 112.43 416.475 112.273C416.479 112.135 416.507 112.138 416.435 112.323L422.035 114.477C422.442 113.419 422.86 111.646 421.834 110.017C420.756 108.304 418.897 108 417.735 108V114ZM416.417 112.372L412.697 122.572L418.334 124.628L422.054 114.428L416.417 112.372ZM412.681 122.619C412.571 122.935 412.47 122.991 412.494 122.973C412.499 122.969 412.5 122.972 412.481 122.977C412.459 122.984 412.395 123 412.275 123V129C413.613 129 414.934 128.631 416.062 127.797C417.181 126.969 417.92 125.825 418.35 124.581L412.681 122.619ZM412.275 123H411.075V129H412.275V123ZM411.075 123C410.933 123 411.006 122.978 411.198 123.053C411.423 123.142 411.765 123.351 412.025 123.753C412.277 124.142 412.312 124.494 412.312 124.643C412.312 124.772 412.287 124.766 412.35 124.581L406.681 122.619C406.311 123.685 405.964 125.433 406.991 127.017C408.074 128.689 409.897 129 411.075 129V123ZM412.324 124.653L413.224 122.253L407.606 120.147L406.706 122.547L412.324 124.653ZM413.23 122.239C414.058 119.997 414.448 117.329 413.02 115.112C411.544 112.822 408.915 112.2 406.575 112.2V118.2C408.135 118.2 408.147 118.628 407.976 118.363C407.915 118.267 407.977 118.28 407.972 118.568C407.967 118.876 407.884 119.395 407.601 120.161L413.23 122.239ZM406.575 112.2H393.375V118.2H406.575V112.2ZM393.375 112.2C390.864 112.2 388.541 112.886 386.592 114.323C384.658 115.75 383.281 117.777 382.401 120.161L388.03 122.239C388.59 120.723 389.343 119.75 390.154 119.152C390.95 118.564 391.987 118.2 393.375 118.2V112.2ZM382.395 120.178L380.655 124.978L386.296 127.022L388.036 122.222L382.395 120.178ZM380.661 124.961C379.841 127.182 379.426 129.841 380.824 132.061C382.283 134.378 384.918 135 387.255 135V129C386.526 129 386.116 128.899 385.924 128.822C385.766 128.76 385.828 128.748 385.902 128.864C385.966 128.966 385.902 128.953 385.909 128.654C385.917 128.338 386.004 127.812 386.29 127.039L380.661 124.961ZM26.82 210L29.6343 211.039L29.6393 211.026L29.6442 211.012L26.82 210ZM29.4 202.8V199.8H27.2882L26.5758 201.788L29.4 202.8ZM49.8 200.4L46.9684 199.409L46.965 199.419L49.8 200.4ZM50.22 199.2L47.42 198.123L47.4035 198.166L47.3884 198.209L50.22 199.2ZM31.62 196.8L28.8034 195.767L27.3247 199.8H31.62V196.8ZM33.6 191.4V188.4H31.5047L30.7834 190.367L33.6 191.4ZM62.46 185.4L65.2743 186.439L65.2771 186.432L65.2798 186.424L62.46 185.4ZM66.6 174L63.7857 172.961L63.7829 172.968L63.7802 172.976L66.6 174ZM12.54 180L15.3591 181.026L15.3613 181.02L12.54 180ZM1.62 210L4.43432 211.039L4.43905 211.026L1.62 210ZM5.4 219H18.6V213H5.4V219ZM18.6 219C21.1091 219 23.4413 218.316 25.4009 216.886C27.3493 215.464 28.7486 213.438 29.6343 211.039L24.0057 208.961C23.4514 210.462 22.6907 211.436 21.8641 212.039C21.0487 212.634 19.9909 213 18.6 213V219ZM29.6442 211.012L32.2242 203.812L26.5758 201.788L23.9958 208.988L29.6442 211.012ZM29.4 205.8H46.5V199.8H29.4V205.8ZM46.5 205.8C47.8324 205.8 49.1534 205.435 50.2854 204.62C51.4159 203.806 52.1911 202.664 52.635 201.381L46.965 199.419C46.9153 199.562 46.8654 199.646 46.8342 199.69C46.8043 199.732 46.7848 199.747 46.7796 199.75C46.7745 199.754 46.7612 199.763 46.7278 199.773C46.6924 199.784 46.6201 199.8 46.5 199.8V205.8ZM52.6316 201.391L53.0516 200.191L47.3884 198.209L46.9684 199.409L52.6316 201.391ZM53.02 200.277C53.4268 199.219 53.8446 197.446 52.8187 195.817C51.7404 194.104 49.8818 193.8 48.72 193.8V199.8C48.8639 199.8 48.7885 199.823 48.5931 199.745C48.3646 199.655 48.0083 199.438 47.7413 199.013C47.4824 198.602 47.4547 198.23 47.4596 198.073C47.4639 197.935 47.4911 197.938 47.42 198.123L53.02 200.277ZM48.72 193.8H31.62V199.8H48.72V193.8ZM34.4366 197.833L36.4166 192.433L30.7834 190.367L28.8034 195.767L34.4366 197.833ZM33.6 194.4H54.3V188.4H33.6V194.4ZM54.3 194.4C56.8112 194.4 59.1344 193.714 61.0835 192.277C63.0177 190.85 64.3942 188.823 65.2743 186.439L59.6457 184.361C59.0858 185.877 58.3323 186.85 57.5216 187.448C56.7256 188.036 55.6888 188.4 54.3 188.4V194.4ZM65.2798 186.424L69.4198 175.024L63.7802 172.976L59.6402 184.376L65.2798 186.424ZM69.4143 175.039C70.2343 172.818 70.6491 170.159 69.2512 167.939C67.7922 165.622 65.1573 165 62.82 165V171C63.549 171 63.9598 171.101 64.1519 171.178C64.3097 171.24 64.2471 171.252 64.1738 171.136C64.1099 171.034 64.1733 171.047 64.1662 171.346C64.1586 171.662 64.0711 172.188 63.7857 172.961L69.4143 175.039ZM62.82 165H28.92V171H62.82V165ZM28.92 165C24.4618 165 20.4327 166.209 17.091 168.654C13.7594 171.092 11.2937 174.624 9.71872 178.98L15.3613 181.02C16.6063 177.576 18.4306 175.108 20.634 173.496C22.8273 171.891 25.5782 171 28.92 171V165ZM9.72095 178.974L-1.19905 208.974L4.43905 211.026L15.3591 181.026L9.72095 178.974ZM-1.19429 208.961C-2.01428 211.182 -2.42911 213.841 -1.0312 216.061C0.427762 218.378 3.06271 219 5.4 219V213C4.67103 213 4.26021 212.899 4.0681 212.822C3.91027 212.76 3.97288 212.748 4.0462 212.864C4.11008 212.966 4.04671 212.953 4.05383 212.654C4.0614 212.338 4.14889 211.812 4.43429 211.039L-1.19429 208.961ZM111.471 210L114.285 211.039L114.288 211.032L114.29 211.024L111.471 210ZM115.611 198.6L112.796 197.561L112.794 197.568L112.791 197.576L115.611 198.6ZM91.0706 192.6L88.2512 191.575L86.7875 195.6H91.0706V192.6ZM93.4706 186V183H91.3693L90.6512 184.975L93.4706 186ZM113.271 183.6L116.071 184.677L116.087 184.634L116.102 184.591L113.271 183.6ZM113.691 182.4L110.891 181.323L110.874 181.366L110.859 181.409L113.691 182.4ZM95.6906 180L92.868 178.984L91.4221 183H95.6906V180ZM97.8506 174V171H95.7421L95.028 172.984L97.8506 174ZM123.051 171.6L125.851 172.677L125.867 172.634L125.882 172.591L123.051 171.6ZM123.471 170.4L126.302 171.391L126.306 171.381L123.471 170.4ZM72.6506 174L69.8363 172.961L69.8336 172.968L69.831 172.976L72.6506 174ZM59.5706 210L62.3849 211.039L62.3876 211.032L62.3903 211.024L59.5706 210ZM63.3506 219H103.251V213H63.3506V219ZM103.251 219C105.76 219 108.092 218.316 110.052 216.886C112 215.464 113.399 213.438 114.285 211.039L108.656 208.961C108.102 210.462 107.341 211.436 106.515 212.039C105.699 212.634 104.642 213 103.251 213V219ZM114.29 211.024L118.43 199.624L112.791 197.576L108.651 208.976L114.29 211.024ZM118.425 199.639C119.253 197.397 119.644 194.729 118.215 192.512C116.739 190.222 114.111 189.6 111.771 189.6V195.6C113.331 195.6 113.342 196.028 113.171 195.763C113.11 195.667 113.172 195.68 113.167 195.968C113.162 196.276 113.079 196.795 112.796 197.561L118.425 199.639ZM111.771 189.6H91.0706V195.6H111.771V189.6ZM93.89 193.625L96.29 187.025L90.6512 184.975L88.2512 191.575L93.89 193.625ZM93.4706 189H109.971V183H93.4706V189ZM109.971 189C111.312 189 112.624 188.629 113.749 187.808C114.859 186.998 115.607 185.883 116.071 184.677L110.471 182.523C110.335 182.877 110.212 182.962 110.212 182.962C110.208 182.965 110.201 182.97 110.179 182.977C110.154 182.984 110.09 183 109.971 183V189ZM116.102 184.591L116.522 183.391L110.859 181.409L110.439 182.609L116.102 184.591ZM116.491 183.477C116.897 182.419 117.315 180.646 116.289 179.017C115.211 177.304 113.352 177 112.191 177V183C112.335 183 112.259 183.023 112.064 182.945C111.835 182.855 111.479 182.638 111.212 182.213C110.953 181.802 110.925 181.43 110.93 181.273C110.935 181.135 110.962 181.138 110.891 181.323L116.491 183.477ZM112.191 177H95.6906V183H112.191V177ZM98.5133 181.016L100.673 175.016L95.028 172.984L92.868 178.984L98.5133 181.016ZM97.8506 177H119.751V171H97.8506V177ZM119.751 177C121.092 177 122.404 176.629 123.529 175.808C124.639 174.998 125.387 173.883 125.851 172.677L120.251 170.523C120.115 170.877 119.992 170.962 119.992 170.962C119.988 170.965 119.981 170.97 119.959 170.977C119.934 170.984 119.87 171 119.751 171V177ZM125.882 172.591L126.302 171.391L120.639 169.409L120.219 170.609L125.882 172.591ZM126.306 171.381C126.656 170.369 127.04 168.641 126.068 167.051C125.005 165.311 123.143 165 121.971 165V171C122.116 171 122.028 171.023 121.818 170.938C121.568 170.838 121.209 170.606 120.948 170.179C120.702 169.776 120.681 169.424 120.684 169.301C120.687 169.192 120.705 169.217 120.636 169.419L126.306 171.381ZM121.971 165H80.8706V171H121.971V165ZM80.8706 165C78.3615 165 76.0293 165.684 74.0697 167.114C72.1214 168.536 70.722 170.562 69.8363 172.961L75.4649 175.039C76.0192 173.538 76.7799 172.564 77.6065 171.961C78.422 171.366 79.4797 171 80.8706 171V165ZM69.831 172.976L56.751 208.976L62.3903 211.024L75.4703 175.024L69.831 172.976ZM56.7563 208.961C55.9363 211.182 55.5215 213.841 56.9194 216.061C58.3784 218.378 61.0133 219 63.3506 219V213C62.6217 213 62.2108 212.899 62.0187 212.822C61.8609 212.76 61.9235 212.748 61.9968 212.864C62.0607 212.966 61.9973 212.953 62.0045 212.654C62.012 212.338 62.0995 211.812 62.3849 211.039L56.7563 208.961ZM176.02 204L178.841 205.02L178.843 205.016L176.02 204ZM177.1 201L174.286 199.961L174.281 199.972L174.277 199.984L177.1 201ZM151.18 186.6L153.98 187.677L153.989 187.652L153.998 187.628L151.18 186.6ZM154.9 176.4L157.718 177.428L157.727 177.405L157.735 177.381L154.9 176.4ZM160.9 176.4L163.709 177.453L163.722 177.418L163.735 177.381L160.9 176.4ZM160 178.8L157.191 177.747L157.188 177.754L157.186 177.761L160 178.8ZM185.2 178.8L188.014 179.839L188.017 179.831L188.02 179.822L185.2 178.8ZM186.94 174L184.126 172.961L184.122 172.969L184.119 172.978L186.94 174ZM128.38 180L125.559 178.98L125.557 178.984L128.38 180ZM127.3 183L130.114 184.039L130.118 184.028L130.123 184.016L127.3 183ZM153.22 197.4L150.42 196.323L150.41 196.348L150.401 196.372L153.22 197.4ZM149.5 207.6L146.681 206.572L146.673 206.595L146.665 206.619L149.5 207.6ZM143.5 207.6L140.691 206.547L140.677 206.582L140.665 206.619L143.5 207.6ZM144.4 205.2L147.209 206.253L147.212 206.246L147.214 206.239L144.4 205.2ZM119.2 205.2L116.386 204.161L116.382 204.169L116.379 204.178L119.2 205.2ZM117.46 210L120.274 211.039L120.277 211.031L120.28 211.022L117.46 210ZM121.24 219H159.64V213H121.24V219ZM159.64 219C164.098 219 168.127 217.791 171.469 215.346C174.8 212.908 177.266 209.376 178.841 205.02L173.199 202.98C171.954 206.424 170.129 208.892 167.926 210.504C165.732 212.109 162.982 213 159.64 213V219ZM178.843 205.016L179.923 202.016L174.277 199.984L173.197 202.984L178.843 205.016ZM179.914 202.039C181.458 197.858 181.883 193.694 179.825 190.463C177.713 187.147 173.769 186 169.48 186V192C172.991 192 174.297 192.953 174.765 193.687C175.286 194.506 175.622 196.342 174.286 199.961L179.914 202.039ZM169.48 186H152.68V192H169.48V186ZM152.68 186C152.536 186 152.611 185.977 152.807 186.055C153.035 186.145 153.392 186.362 153.659 186.787C153.917 187.198 153.945 187.57 153.94 187.727C153.936 187.865 153.909 187.862 153.98 187.677L148.38 185.523C147.973 186.581 147.555 188.354 148.581 189.983C149.659 191.696 151.518 192 152.68 192V186ZM153.998 187.628L157.718 177.428L152.081 175.372L148.361 185.572L153.998 187.628ZM157.735 177.381C157.844 177.065 157.945 177.009 157.921 177.027C157.916 177.031 157.916 177.028 157.935 177.023C157.957 177.016 158.02 177 158.14 177V171C156.802 171 155.481 171.369 154.353 172.203C153.235 173.031 152.495 174.175 152.065 175.419L157.735 177.381ZM158.14 177H159.34V171H158.14V177ZM159.34 177C159.483 177 159.409 177.022 159.217 176.947C158.993 176.858 158.65 176.649 158.39 176.247C158.138 175.858 158.103 175.506 158.103 175.357C158.104 175.228 158.129 175.234 158.065 175.419L163.735 177.381C164.104 176.315 164.451 174.567 163.425 172.983C162.341 171.311 160.519 171 159.34 171V177ZM158.091 175.347L157.191 177.747L162.809 179.853L163.709 177.453L158.091 175.347ZM157.186 177.761C156.358 180.003 155.967 182.671 157.396 184.888C158.872 187.178 161.5 187.8 163.84 187.8V181.8C162.28 181.8 162.268 181.372 162.439 181.637C162.5 181.733 162.439 181.72 162.444 181.432C162.449 181.124 162.531 180.605 162.814 179.839L157.186 177.761ZM163.84 187.8H177.04V181.8H163.84V187.8ZM177.04 187.8C179.551 187.8 181.874 187.114 183.823 185.677C185.758 184.25 187.134 182.223 188.014 179.839L182.386 177.761C181.826 179.277 181.072 180.25 180.261 180.848C179.465 181.436 178.429 181.8 177.04 181.8V187.8ZM188.02 179.822L189.76 175.022L184.119 172.978L182.379 177.778L188.02 179.822ZM189.754 175.039C190.574 172.818 190.989 170.159 189.591 167.939C188.132 165.622 185.497 165 183.16 165V171C183.889 171 184.3 171.101 184.492 171.178C184.65 171.24 184.587 171.252 184.514 171.136C184.45 171.034 184.513 171.047 184.506 171.346C184.498 171.662 184.411 172.188 184.126 172.961L189.754 175.039ZM183.16 165H144.76V171H183.16V165ZM144.76 165C140.302 165 136.273 166.209 132.931 168.654C129.599 171.092 127.134 174.624 125.559 178.98L131.201 181.02C132.446 177.576 134.27 175.108 136.474 173.496C138.667 171.891 141.418 171 144.76 171V165ZM125.557 178.984L124.477 181.984L130.123 184.016L131.202 181.016L125.557 178.984ZM124.486 181.961C122.942 186.142 122.516 190.306 124.575 193.537C126.687 196.853 130.631 198 134.92 198V192C131.409 192 130.103 191.047 129.635 190.313C129.113 189.494 128.778 187.658 130.114 184.039L124.486 181.961ZM134.92 198H151.72V192H134.92V198ZM151.72 198C151.864 198 151.788 198.023 151.593 197.945C151.364 197.855 151.008 197.638 150.741 197.213C150.482 196.802 150.454 196.43 150.459 196.273C150.464 196.135 150.491 196.138 150.42 196.323L156.02 198.477C156.427 197.419 156.844 195.646 155.819 194.017C154.74 192.304 152.882 192 151.72 192V198ZM150.401 196.372L146.681 206.572L152.318 208.628L156.038 198.428L150.401 196.372ZM146.665 206.619C146.555 206.935 146.455 206.991 146.478 206.973C146.484 206.969 146.484 206.972 146.465 206.977C146.443 206.984 146.38 207 146.26 207V213C147.597 213 148.918 212.631 150.046 211.797C151.165 210.969 151.904 209.825 152.335 208.581L146.665 206.619ZM146.26 207H145.06V213H146.26V207ZM145.06 207C144.917 207 144.99 206.978 145.182 207.053C145.407 207.142 145.749 207.351 146.01 207.753C146.262 208.142 146.297 208.494 146.296 208.643C146.296 208.772 146.271 208.766 146.335 208.581L140.665 206.619C140.296 207.685 139.948 209.433 140.975 211.017C142.059 212.689 143.881 213 145.06 213V207ZM146.309 208.653L147.209 206.253L141.591 204.147L140.691 206.547L146.309 208.653ZM147.214 206.239C148.042 203.997 148.433 201.329 147.004 199.112C145.528 196.822 142.9 196.2 140.56 196.2V202.2C142.12 202.2 142.132 202.628 141.961 202.363C141.899 202.267 141.961 202.28 141.956 202.568C141.951 202.876 141.868 203.395 141.586 204.161L147.214 206.239ZM140.56 196.2H127.36V202.2H140.56V196.2ZM127.36 196.2C124.849 196.2 122.525 196.886 120.576 198.323C118.642 199.75 117.266 201.777 116.386 204.161L122.014 206.239C122.574 204.723 123.328 203.75 124.138 203.152C124.934 202.564 125.971 202.2 127.36 202.2V196.2ZM116.379 204.178L114.639 208.978L120.28 211.022L122.02 206.222L116.379 204.178ZM114.646 208.961C113.826 211.182 113.411 213.841 114.809 216.061C116.268 218.378 118.903 219 121.24 219V213C120.511 213 120.1 212.899 119.908 212.822C119.75 212.76 119.813 212.748 119.886 212.864C119.95 212.966 119.887 212.953 119.894 212.654C119.901 212.338 119.989 211.812 120.274 211.039L114.646 208.961ZM219.822 210L222.637 211.039L222.641 211.027L219.822 210ZM226.602 191.4V188.4H224.503L223.784 190.373L226.602 191.4ZM243.462 185.4L246.276 186.439L246.279 186.432L246.282 186.424L243.462 185.4ZM247.602 174L244.788 172.961L244.785 172.968L244.782 172.976L247.602 174ZM193.002 174L190.188 172.961L190.185 172.968L190.182 172.976L193.002 174ZM188.862 185.4L191.676 186.439L191.679 186.432L191.682 186.424L188.862 185.4ZM201.402 191.4L204.221 192.427L205.689 188.4H201.402V191.4ZM194.622 210L197.437 211.039L197.441 211.027L194.622 210ZM198.402 219H211.602V213H198.402V219ZM211.602 219C214.111 219 216.444 218.316 218.403 216.886C220.351 215.464 221.751 213.438 222.636 211.039L217.008 208.961C216.454 210.462 215.693 211.436 214.866 212.039C214.051 212.634 212.993 213 211.602 213V219ZM222.641 211.027L229.421 192.427L223.784 190.373L217.004 208.973L222.641 211.027ZM226.602 194.4H235.302V188.4H226.602V194.4ZM235.302 194.4C237.813 194.4 240.137 193.714 242.086 192.277C244.02 190.85 245.396 188.823 246.276 186.439L240.648 184.361C240.088 185.877 239.334 186.85 238.524 187.448C237.728 188.036 236.691 188.4 235.302 188.4V194.4ZM246.282 186.424L250.422 175.024L244.782 172.976L240.642 184.376L246.282 186.424ZM250.416 175.039C251.236 172.818 251.651 170.159 250.253 167.939C248.794 165.622 246.159 165 243.822 165V171C244.551 171 244.962 171.101 245.154 171.178C245.312 171.24 245.249 171.252 245.176 171.136C245.112 171.034 245.175 171.047 245.168 171.346C245.161 171.662 245.073 172.188 244.788 172.961L250.416 175.039ZM243.822 165H201.222V171H243.822V165ZM201.222 165C198.713 165 196.381 165.684 194.421 167.114C192.473 168.536 191.074 170.562 190.188 172.961L195.816 175.039C196.371 173.538 197.131 172.564 197.958 171.961C198.774 171.366 199.831 171 201.222 171V165ZM190.182 172.976L186.042 184.376L191.682 186.424L195.822 175.024L190.182 172.976ZM186.048 184.361C185.22 186.603 184.829 189.271 186.258 191.488C187.734 193.778 190.362 194.4 192.702 194.4V188.4C191.142 188.4 191.13 187.972 191.301 188.237C191.363 188.333 191.301 188.32 191.306 188.032C191.311 187.724 191.394 187.205 191.676 186.439L186.048 184.361ZM192.702 194.4H201.402V188.4H192.702V194.4ZM198.584 190.373L191.804 208.973L197.441 211.027L204.221 192.427L198.584 190.373ZM191.808 208.961C190.988 211.182 190.573 213.841 191.971 216.061C193.43 218.378 196.065 219 198.402 219V213C197.673 213 197.262 212.899 197.07 212.822C196.912 212.76 196.975 212.748 197.048 212.864C197.112 212.966 197.049 212.953 197.056 212.654C197.064 212.338 197.151 211.812 197.436 211.039L191.808 208.961ZM265.767 210L268.581 211.039L268.584 211.032L268.586 211.024L265.767 210ZM278.847 174L276.032 172.961L276.03 172.968L276.027 172.976L278.847 174ZM253.647 174L250.832 172.961L250.83 172.968L250.827 172.976L253.647 174ZM240.567 210L243.381 211.039L243.384 211.032L243.386 211.024L240.567 210ZM244.347 219H257.547V213H244.347V219ZM257.547 219C260.056 219 262.388 218.316 264.348 216.886C266.296 215.464 267.695 213.438 268.581 211.039L262.952 208.961C262.398 210.462 261.637 211.436 260.811 212.039C259.995 212.634 258.938 213 257.547 213V219ZM268.586 211.024L281.666 175.024L276.027 172.976L262.947 208.976L268.586 211.024ZM281.661 175.039C282.481 172.818 282.896 170.159 281.498 167.939C280.039 165.622 277.404 165 275.067 165V171C275.796 171 276.207 171.101 276.399 171.178C276.556 171.24 276.494 171.252 276.421 171.136C276.357 171.034 276.42 171.047 276.413 171.346C276.405 171.662 276.318 172.188 276.032 172.961L281.661 175.039ZM275.067 165H261.867V171H275.067V165ZM261.867 165C259.358 165 257.025 165.684 255.066 167.114C253.117 168.536 251.718 170.562 250.832 172.961L256.461 175.039C257.015 173.538 257.776 172.564 258.603 171.961C259.418 171.366 260.476 171 261.867 171V165ZM250.827 172.976L237.747 208.976L243.386 211.024L256.466 175.024L250.827 172.976ZM237.752 208.961C236.932 211.182 236.518 213.841 237.916 216.061C239.374 218.378 242.009 219 244.347 219V213C243.618 213 243.207 212.899 243.015 212.822C242.857 212.76 242.92 212.748 242.993 212.864C243.057 212.966 242.993 212.953 243.001 212.654C243.008 212.338 243.096 211.812 243.381 211.039L237.752 208.961ZM332.756 197.64L335.572 198.674L335.576 198.663L332.756 197.64ZM341.336 174L338.521 172.961L338.519 172.969L338.516 172.976L341.336 174ZM316.136 174L313.321 172.961L313.317 172.973L316.136 174ZM303.896 207.6L301.077 206.573L301.069 206.596L301.061 206.619L303.896 207.6ZM297.896 207.6L295.077 206.573L295.069 206.596L295.061 206.619L297.896 207.6ZM310.136 174L307.321 172.961L307.317 172.973L310.136 174ZM284.936 174L282.121 172.961L282.118 172.969L282.115 172.978L284.936 174ZM276.236 198L279.055 199.026L279.056 199.022L276.236 198ZM287.636 219H307.676V213H287.636V219ZM307.676 219C319.663 219 331.277 210.37 335.572 198.674L329.94 196.606C326.435 206.15 316.929 213 307.676 213V219ZM335.576 198.663L344.156 175.023L338.516 172.976L329.936 196.617L335.576 198.663ZM344.15 175.039C344.97 172.818 345.385 170.159 343.987 167.939C342.528 165.622 339.893 165 337.556 165V171C338.285 171 338.696 171.101 338.888 171.178C339.046 171.24 338.983 171.252 338.91 171.136C338.846 171.034 338.909 171.047 338.902 171.346C338.894 171.662 338.807 172.188 338.521 172.961L344.15 175.039ZM337.556 165H324.356V171H337.556V165ZM324.356 165C321.847 165 319.514 165.684 317.555 167.114C315.607 168.536 314.207 170.562 313.322 172.961L318.95 175.039C319.504 173.538 320.265 172.564 321.092 171.961C321.907 171.366 322.965 171 324.356 171V165ZM313.317 172.973L301.077 206.573L306.715 208.627L318.955 175.027L313.317 172.973ZM301.061 206.619C300.951 206.935 300.851 206.991 300.874 206.973C300.88 206.969 300.88 206.972 300.861 206.977C300.839 206.984 300.776 207 300.656 207V213C301.993 213 303.314 212.631 304.442 211.797C305.561 210.969 306.3 209.825 306.731 208.581L301.061 206.619ZM300.656 207H299.456V213H300.656V207ZM299.456 207C299.313 207 299.386 206.978 299.578 207.053C299.803 207.142 300.145 207.351 300.406 207.753C300.658 208.142 300.693 208.494 300.692 208.643C300.692 208.772 300.667 208.766 300.731 208.581L295.061 206.619C294.692 207.685 294.344 209.433 295.371 211.017C296.454 212.689 298.277 213 299.456 213V207ZM300.715 208.627L312.955 175.027L307.317 172.973L295.077 206.573L300.715 208.627ZM312.95 175.039C313.77 172.818 314.185 170.159 312.787 167.939C311.328 165.622 308.693 165 306.356 165V171C307.085 171 307.496 171.101 307.688 171.178C307.846 171.24 307.783 171.252 307.71 171.136C307.646 171.034 307.709 171.047 307.702 171.346C307.694 171.662 307.607 172.188 307.322 172.961L312.95 175.039ZM306.356 165H293.156V171H306.356V165ZM293.156 165C290.647 165 288.314 165.684 286.355 167.114C284.407 168.536 283.007 170.562 282.121 172.961L287.75 175.039C288.304 173.538 289.065 172.564 289.892 171.961C290.707 171.366 291.765 171 293.156 171V165ZM282.115 172.978L273.415 196.978L279.056 199.022L287.756 175.022L282.115 172.978ZM273.417 196.974C271.188 203.096 270.735 208.751 273.415 212.99C276.156 217.327 281.396 219 287.636 219V213C282.175 213 279.585 211.523 278.487 209.785C277.326 207.949 277.024 204.604 279.055 199.026L273.417 196.974ZM359.517 210L362.331 211.039L362.334 211.031L362.337 211.022L359.517 210ZM364.257 196.92V193.92H362.153L361.436 195.898L364.257 196.92ZM370.257 196.92L373.077 197.942L374.535 193.92H370.257V196.92ZM365.517 210L368.331 211.039L368.334 211.031L368.337 211.022L365.517 210ZM390.717 210L393.531 211.039L393.534 211.031L393.537 211.022L390.717 210ZM399.417 186L396.598 184.974L396.596 184.978L399.417 186ZM343.017 186L340.198 184.974L340.196 184.978L343.017 186ZM334.317 210L337.131 211.039L337.134 211.031L337.137 211.022L334.317 210ZM366.477 190.92L363.657 189.895L362.194 193.92H366.477V190.92ZM371.757 176.4L374.576 177.425L374.584 177.403L374.592 177.381L371.757 176.4ZM377.757 176.4L380.576 177.425L380.584 177.403L380.592 177.381L377.757 176.4ZM372.477 190.92V193.92H374.578L375.296 191.945L372.477 190.92ZM338.097 219H351.297V213H338.097V219ZM351.297 219C353.806 219 356.138 218.316 358.098 216.886C360.046 215.464 361.445 213.438 362.331 211.039L356.702 208.961C356.148 210.462 355.387 211.436 354.561 212.039C353.745 212.634 352.688 213 351.297 213V219ZM362.337 211.022L367.077 197.942L361.436 195.898L356.696 208.978L362.337 211.022ZM364.257 199.92H370.257V193.92H364.257V199.92ZM367.436 195.898L362.696 208.978L368.337 211.022L373.077 197.942L367.436 195.898ZM362.702 208.961C361.882 211.182 361.468 213.841 362.866 216.061C364.324 218.378 366.959 219 369.297 219V213C368.568 213 368.157 212.899 367.965 212.822C367.807 212.76 367.87 212.748 367.943 212.864C368.007 212.966 367.943 212.953 367.951 212.654C367.958 212.338 368.046 211.812 368.331 211.039L362.702 208.961ZM369.297 219H382.497V213H369.297V219ZM382.497 219C385.006 219 387.338 218.316 389.298 216.886C391.246 215.464 392.645 213.438 393.531 211.039L387.902 208.961C387.348 210.462 386.587 211.436 385.761 212.039C384.945 212.634 383.888 213 382.497 213V219ZM393.537 211.022L402.237 187.022L396.596 184.978L387.896 208.978L393.537 211.022ZM402.236 187.026C404.465 180.904 404.917 175.249 402.238 171.01C399.496 166.673 394.256 165 388.017 165V171C393.477 171 396.067 172.477 397.166 174.215C398.326 176.051 398.629 179.396 396.598 184.974L402.236 187.026ZM388.017 165H367.617V171H388.017V165ZM367.617 165C361.208 165 355.485 166.734 350.756 170.191C346.038 173.64 342.493 178.67 340.198 184.974L345.836 187.026C347.8 181.63 350.705 177.66 354.297 175.034C357.879 172.416 362.325 171 367.617 171V165ZM340.196 184.978L331.496 208.978L337.137 211.022L345.837 187.022L340.196 184.978ZM331.502 208.961C330.682 211.182 330.268 213.841 331.666 216.061C333.124 218.378 335.759 219 338.097 219V213C337.368 213 336.957 212.899 336.765 212.822C336.607 212.76 336.67 212.748 336.743 212.864C336.807 212.966 336.743 212.953 336.751 212.654C336.758 212.338 336.846 211.812 337.131 211.039L331.502 208.961ZM369.296 191.945L374.576 177.425L368.937 175.375L363.657 189.895L369.296 191.945ZM374.592 177.381C374.701 177.065 374.802 177.009 374.778 177.027C374.773 177.031 374.773 177.028 374.792 177.023C374.813 177.016 374.877 177 374.997 177V171C373.659 171 372.338 171.369 371.21 172.203C370.091 173.031 369.352 174.175 368.922 175.419L374.592 177.381ZM374.997 177H376.197V171H374.997V177ZM376.197 177C376.34 177 376.266 177.022 376.074 176.947C375.849 176.858 375.507 176.649 375.247 176.247C374.995 175.858 374.96 175.506 374.96 175.357C374.961 175.228 374.986 175.234 374.922 175.419L380.592 177.381C380.961 176.315 381.308 174.567 380.282 172.983C379.198 171.311 377.376 171 376.197 171V177ZM374.937 175.375L369.657 189.895L375.296 191.945L380.576 177.425L374.937 175.375ZM372.477 187.92H366.477V193.92H372.477V187.92ZM445.678 210L448.492 211.039L448.495 211.032L448.497 211.024L445.678 210ZM449.818 198.6L447.003 197.561L447.001 197.568L446.998 197.576L449.818 198.6ZM428.278 192.6L425.459 191.573L423.991 195.6H428.278V192.6ZM435.058 174L432.243 172.961L432.239 172.973L435.058 174ZM409.858 174L407.043 172.961L407.039 172.974L409.858 174ZM398.938 204L396.119 202.974L396.116 202.98L398.938 204ZM406.558 219H437.458V213H406.558V219ZM437.458 219C439.967 219 442.299 218.316 444.259 216.886C446.207 215.464 447.606 213.438 448.492 211.039L442.863 208.961C442.309 210.462 441.548 211.436 440.722 212.039C439.906 212.634 438.849 213 437.458 213V219ZM448.497 211.024L452.637 199.624L446.998 197.576L442.858 208.976L448.497 211.024ZM452.632 199.639C453.46 197.397 453.851 194.729 452.422 192.512C450.946 190.222 448.318 189.6 445.978 189.6V195.6C447.538 195.6 447.549 196.028 447.378 195.763C447.317 195.667 447.379 195.68 447.374 195.968C447.369 196.276 447.286 196.795 447.003 197.561L452.632 199.639ZM445.978 189.6H428.278V195.6H445.978V189.6ZM431.096 193.627L437.876 175.027L432.239 172.973L425.459 191.573L431.096 193.627ZM437.872 175.039C438.692 172.818 439.107 170.159 437.709 167.939C436.25 165.622 433.615 165 431.278 165V171C432.007 171 432.417 171.101 432.61 171.178C432.767 171.24 432.705 171.252 432.631 171.136C432.568 171.034 432.631 171.047 432.624 171.346C432.616 171.662 432.529 172.188 432.243 172.961L437.872 175.039ZM431.278 165H418.078V171H431.278V165ZM418.078 165C415.569 165 413.236 165.684 411.277 167.114C409.328 168.536 407.929 170.562 407.043 172.961L412.672 175.039C413.226 173.538 413.987 172.564 414.814 171.961C415.629 171.366 416.687 171 418.078 171V165ZM407.039 172.974L396.119 202.974L401.757 205.026L412.677 175.026L407.039 172.974ZM396.116 202.98C394.608 207.153 394.189 211.307 396.231 214.53C398.334 217.852 402.267 219 406.558 219V213C403.048 213 401.761 212.048 401.3 211.32C400.776 210.493 400.447 208.647 401.759 205.02L396.116 202.98ZM495.359 195.6L492.559 194.523L492.548 194.551L492.538 194.579L495.359 195.6ZM518.639 181.2L521.453 182.239L521.462 182.215L521.47 182.191L518.639 181.2ZM519.059 180L516.237 178.98L516.232 178.994L516.227 179.009L519.059 180ZM464.819 174L462.004 172.961L462 172.972L461.996 172.984L464.819 174ZM463.739 177L466.553 178.039L466.557 178.028L466.561 178.016L463.739 177ZM488.939 177L486.153 175.886L486.138 175.923L486.124 175.961L488.939 177ZM489.179 176.4L491.964 177.514L491.99 177.448L492.014 177.381L489.179 176.4ZM495.179 176.4L497.997 177.427L498.006 177.404L498.014 177.381L495.179 176.4ZM492.119 184.8L494.919 185.877L494.928 185.852L494.937 185.827L492.119 184.8ZM471.059 193.2L473.875 194.233L473.881 194.217L473.887 194.201L471.059 193.2ZM470.399 195L473.213 196.039L473.215 196.033L470.399 195ZM463.859 213L466.668 214.053L466.675 214.035L466.681 214.016L463.859 213ZM489.059 213L491.868 214.053L491.875 214.035L491.881 214.016L489.059 213ZM491.219 207L488.41 205.947L488.403 205.965L488.396 205.984L491.219 207ZM466.019 207L463.21 205.947L463.203 205.965L463.196 205.984L466.019 207ZM474.179 204H487.379V198H474.179V204ZM487.379 204C489.827 204 492.117 203.393 494.042 202.088C495.974 200.778 497.359 198.886 498.179 196.621L492.538 194.579C492.098 195.794 491.443 196.602 490.675 197.122C489.9 197.647 488.83 198 487.379 198V204ZM498.159 196.677C498.295 196.323 498.417 196.238 498.417 196.238C498.421 196.235 498.428 196.23 498.45 196.223C498.475 196.216 498.539 196.2 498.659 196.2V190.2C497.317 190.2 496.005 190.571 494.88 191.392C493.77 192.202 493.022 193.317 492.559 194.523L498.159 196.677ZM498.659 196.2H502.259V190.2H498.659V196.2ZM502.259 196.2C506.719 196.2 510.734 194.99 514.068 192.544C517.39 190.107 519.85 186.58 521.453 182.239L515.824 180.161C514.547 183.62 512.718 186.093 510.519 187.706C508.333 189.31 505.598 190.2 502.259 190.2V196.2ZM521.47 182.191L521.89 180.991L516.227 179.009L515.807 180.209L521.47 182.191ZM521.88 181.02C523.388 176.847 523.807 172.693 521.766 169.47C519.662 166.148 515.729 165 511.439 165V171C514.948 171 516.235 171.952 516.697 172.68C517.22 173.507 517.549 175.353 516.237 178.98L521.88 181.02ZM511.439 165H473.039V171H511.439V165ZM473.039 165C470.53 165 468.197 165.684 466.238 167.114C464.289 168.536 462.89 170.562 462.004 172.961L467.633 175.039C468.187 173.538 468.948 172.564 469.775 171.961C470.59 171.366 471.648 171 473.039 171V165ZM461.996 172.984L460.916 175.984L466.561 178.016L467.641 175.016L461.996 172.984ZM460.924 175.961C460.096 178.203 459.706 180.871 461.134 183.088C462.61 185.378 465.239 186 467.579 186V180C466.019 180 466.007 179.572 466.178 179.837C466.239 179.933 466.178 179.92 466.182 179.632C466.187 179.324 466.27 178.805 466.553 178.039L460.924 175.961ZM467.579 186H480.779V180H467.579V186ZM480.779 186C483.29 186 485.613 185.314 487.562 183.877C489.496 182.45 490.873 180.423 491.753 178.039L486.124 175.961C485.564 177.477 484.811 178.45 484 179.048C483.204 179.636 482.167 180 480.779 180V186ZM491.724 178.114L491.964 177.514L486.393 175.286L486.153 175.886L491.724 178.114ZM492.014 177.381C492.123 177.065 492.224 177.009 492.2 177.027C492.195 177.031 492.194 177.028 492.214 177.023C492.235 177.016 492.299 177 492.419 177V171C491.081 171 489.76 171.369 488.632 172.203C487.513 173.031 486.774 174.175 486.344 175.419L492.014 177.381ZM492.419 177H493.619V171H492.419V177ZM493.619 177C493.761 177 493.688 177.022 493.496 176.947C493.271 176.858 492.929 176.649 492.669 176.247C492.417 175.858 492.382 175.506 492.382 175.357C492.382 175.228 492.407 175.234 492.344 175.419L498.014 177.381C498.383 176.315 498.73 174.567 497.704 172.983C496.62 171.311 494.797 171 493.619 171V177ZM492.36 175.373L489.3 183.773L494.937 185.827L497.997 177.427L492.36 175.373ZM489.319 183.723C489.182 184.077 489.06 184.162 489.06 184.162C489.056 184.165 489.049 184.17 489.027 184.177C489.002 184.184 488.938 184.2 488.819 184.2V190.2C490.16 190.2 491.472 189.829 492.597 189.008C493.707 188.198 494.455 187.083 494.919 185.877L489.319 183.723ZM488.819 184.2H479.219V190.2H488.819V184.2ZM479.219 184.2C476.711 184.2 474.375 184.883 472.419 186.319C470.472 187.747 469.085 189.785 468.23 192.199L473.887 194.201C474.413 192.715 475.156 191.753 475.968 191.156C476.772 190.567 477.826 190.2 479.219 190.2V184.2ZM468.242 192.167L467.582 193.967L473.215 196.033L473.875 194.233L468.242 192.167ZM467.584 193.961C466.764 196.182 466.349 198.841 467.747 201.061C469.206 203.378 471.841 204 474.179 204V198C473.45 198 473.039 197.899 472.847 197.822C472.689 197.76 472.751 197.748 472.825 197.864C472.889 197.966 472.825 197.953 472.832 197.654C472.84 197.338 472.927 196.812 473.213 196.039L467.584 193.961ZM461.05 211.947C460.579 213.202 460.193 215.091 461.246 216.796C462.365 218.608 464.327 219 465.719 219V213C465.498 213 465.51 212.966 465.653 213.025C465.831 213.097 466.128 213.283 466.351 213.644C466.564 213.989 466.576 214.279 466.575 214.354C466.573 214.413 466.566 214.324 466.668 214.053L461.05 211.947ZM465.719 219H484.919V213H465.719V219ZM484.919 219C488.186 219 490.744 217.051 491.868 214.053L486.25 211.947C485.934 212.789 485.491 213 484.919 213V219ZM491.881 214.016L494.041 208.016L488.396 205.984L486.236 211.984L491.881 214.016ZM494.028 208.053C494.515 206.754 494.866 204.849 493.767 203.15C492.629 201.391 490.694 201 489.299 201V207C489.517 207 489.518 207.033 489.39 206.982C489.234 206.919 488.951 206.751 488.73 206.41C488.515 206.077 488.492 205.786 488.492 205.691C488.493 205.616 488.506 205.689 488.41 205.947L494.028 208.053ZM489.299 201H470.099V207H489.299V201ZM470.099 201C466.783 201 464.315 202.998 463.21 205.947L468.828 208.053C469.162 207.162 469.574 207 470.099 207V201ZM463.196 205.984L461.036 211.984L466.681 214.016L468.841 208.016L463.196 205.984Z" fill="black"/>
</svg>
