<svg width="100%" height="656" viewBox="0 0 1024 656" fill="none" xmlns="http://www.w3.org/2000/svg" preserveAspectRatio="none">
<rect x="-8" y="91" width="1032" height="565" fill="#7C9885"/>
<path d="M378 42C210.5 61.0718 84.3333 27.8333 -2.5 0V144.5H1029V31C1005.83 49 994.5 59.5 912 42C850.371 28.9272 787 0 681.5 0C522 0 479 30.5 378 42Z" fill="#B5B682"/>
<path d="M378 58C210.5 77.0718 84.3333 43.8333 -2.5 16V160.5H1029V47C1005.83 65 994.5 75.5 912 58C850.371 44.9272 787 16 681.5 16C522 16 479 46.5 378 58Z" fill="#D48C8D"/>
<path d="M378 73C210.5 92.0718 84.3333 58.8333 -2.5 31V175.5H1029V62C1005.83 80 994.5 90.5 912 73C850.371 59.9272 787 31 681.5 31C522 31 479 61.5 378 73Z" fill="#7C9885"/>
</svg>
