<svg width="189" height="220" viewBox="0 0 189 220" fill="none" xmlns="http://www.w3.org/2000/svg">
<path d="M48.4995 99.3069C49.881 100.413 49.3895 102.631 47.6566 103.018C39.7553 104.802 31.8868 106.77 24.0594 108.969C10.7186 112.783 -2.52492 117.056 -15.5403 122.704C-17.5644 123.588 -17.0256 126.625 -14.8211 126.759C-0.657099 127.586 13.2482 127.043 27.0868 126.035C35.1931 125.408 43.2738 124.547 51.3064 123.504C53.0666 123.271 54.2911 125.184 53.3744 126.699C51.7749 129.352 50.1906 132.002 48.6813 134.719C44.2443 142.757 40.0392 150.944 36.4689 159.592C35.5949 161.703 38.1796 163.534 39.8633 161.979C46.7018 155.63 52.893 148.839 58.8647 141.88C60.8769 139.504 62.8195 137.092 64.7441 134.668C65.8413 133.281 68.0474 133.78 68.4358 135.524C70.2436 143.487 72.2199 151.421 74.4108 159.317C78.228 172.729 82.502 186.043 88.1118 199.137C88.9794 201.177 92.0283 200.636 92.1412 198.422C92.905 184.198 92.3386 170.226 91.3098 156.32C90.6664 148.149 89.7931 140.019 88.7361 131.922C88.5009 130.151 90.4008 128.924 91.9082 129.849C94.5492 131.464 97.2029 133.06 99.9096 134.599C107.911 139.079 116.06 143.326 124.665 146.936C126.765 147.82 128.581 145.224 127.031 143.527C120.704 136.635 113.939 130.393 107.008 124.372C104.641 122.343 102.239 120.384 99.8249 118.443C98.4434 117.336 98.9349 115.118 100.668 114.731C108.582 112.93 116.465 110.959 124.311 108.772C137.636 104.961 150.865 100.691 163.87 95.076C165.897 94.2076 165.353 91.1398 163.151 91.0216C149.008 90.223 135.118 90.763 121.295 91.7681C113.188 92.3952 105.107 93.2562 97.0749 94.2995C95.3147 94.5322 94.0902 92.6186 95.0069 91.1044C96.6064 88.4514 98.1879 85.7856 99.7 83.0845C104.15 75.0283 108.367 66.8224 111.932 58.1439C112.806 56.033 110.224 54.2172 108.538 55.7567C101.684 62.1086 95.4648 68.9204 89.4804 75.8973C87.4809 78.2555 85.5355 80.6519 83.6263 83.0737C82.5291 84.4609 80.3229 83.9618 79.9346 82.2179C78.1448 74.2667 76.1712 66.3482 73.9678 58.4704C70.1478 45.0436 65.871 31.7137 60.2279 18.6103C59.3449 16.5725 56.3267 17.108 56.1985 19.3251C55.4068 33.57 55.976 47.5576 57.0075 61.479C57.6481 69.6341 58.5187 77.7483 59.573 85.8299C59.8082 87.601 57.9083 88.8285 56.4009 87.9033C53.7752 86.286 51.1242 84.705 48.4355 83.1784C40.4165 78.6856 32.2492 74.4259 23.6135 70.8217C21.513 69.9381 19.7131 72.5313 21.2473 74.2309C27.577 81.1382 34.3626 87.4081 41.3117 93.4422C43.6606 95.4585 46.0472 97.4203 48.459 99.3458L48.4995 99.3069Z" fill="black"/>
<path d="M56.1186 101.549C57.5002 102.656 57.0086 104.874 55.2757 105.26C47.3744 107.044 39.506 109.012 31.6785 111.211C18.3377 115.025 5.09423 119.298 -7.92119 124.947C-9.94524 125.83 -9.40649 128.867 -7.20195 129.001C6.96206 129.828 20.8673 129.285 34.7059 128.277C42.8123 127.65 50.893 126.789 58.9255 125.746C60.6858 125.513 61.9102 127.427 60.9936 128.941C59.394 131.594 57.8097 134.244 56.3005 136.961C51.8634 144.999 47.6584 153.187 44.088 161.834C43.214 163.945 45.7987 165.776 47.4825 164.222C54.3209 157.872 60.5121 151.081 66.4839 144.123C68.496 141.746 70.4386 139.334 72.3632 136.91C73.4604 135.523 75.6665 136.022 76.0549 137.766C77.8627 145.73 79.8391 153.664 82.0299 161.56C85.8471 174.971 90.1212 188.285 95.7309 201.379C96.5986 203.419 99.6475 202.878 99.7603 200.664C100.524 186.44 99.9577 172.468 98.929 158.562C98.2855 150.391 97.4123 142.262 96.3552 134.165C96.12 132.394 98.0199 131.166 99.5273 132.091C102.168 133.706 104.822 135.302 107.529 136.842C115.53 141.322 123.679 145.569 132.284 149.178C134.385 150.062 136.2 147.466 134.65 145.769C128.323 138.877 121.559 132.635 114.627 126.614C112.261 124.585 109.859 122.626 107.444 120.685C106.063 119.578 106.554 117.36 108.287 116.974C116.201 115.172 124.085 113.201 131.93 111.014C145.256 107.203 158.484 102.933 171.489 97.3182C173.516 96.4498 172.972 93.382 170.77 93.2637C156.627 92.4652 142.737 93.0051 128.914 94.0103C120.807 94.6373 112.727 95.4983 104.694 96.5416C102.934 96.7744 101.709 94.8608 102.626 93.3466C104.226 90.6936 105.807 88.0278 107.319 85.3267C111.769 77.2705 115.986 69.0646 119.551 60.3861C120.425 58.2752 117.843 56.4594 116.157 57.9988C109.303 64.3508 103.084 71.1626 97.0996 78.1394C95.1 80.4977 93.1547 82.8941 91.2454 85.3158C90.1482 86.7031 87.9421 86.204 87.5537 84.4601C85.764 76.5089 83.7903 68.5904 81.5869 60.7125C77.767 47.2857 73.4902 33.9559 67.8471 20.8525C66.9641 18.8147 63.9458 19.3501 63.8176 21.5672C63.0259 35.8121 63.5951 49.7997 64.6266 63.7212C65.2673 71.8762 66.1378 79.9905 67.1922 88.0721C67.4273 89.8432 65.5274 91.0707 64.02 90.1455C61.3943 88.5282 58.7434 86.9472 56.0547 85.4206C48.0357 80.9278 39.8684 76.6681 31.2326 73.0639C29.1321 72.1803 27.3323 74.7735 28.8664 76.4731C35.1961 83.3804 41.9817 89.6503 48.9309 95.6844C51.2797 97.7007 53.6663 99.6625 56.0781 101.588L56.1186 101.549Z" fill="#FCF43D" stroke="black" stroke-width="2.35" stroke-linecap="round" stroke-linejoin="round"/>
</svg>
