<svg width="187" height="255" viewBox="0 0 187 255" fill="none" xmlns="http://www.w3.org/2000/svg">
<path d="M83.7072 228.565C88.0111 227.416 70.6911 162.751 70.6911 162.751L64.8172 140.82L74.7961 146.602C74.7961 146.602 113.391 168.962 115.617 165.101C117.843 161.24 79.2489 138.879 79.2489 138.879L69.27 133.098L91.1598 127.253C91.1598 127.253 155.705 110.018 154.55 105.706C153.395 101.394 88.8499 118.629 88.8499 118.629L66.9601 124.474L72.7166 114.491C72.7166 114.491 94.9805 75.8798 91.121 73.6438C87.2616 71.4077 64.9977 110.019 64.9977 110.019L59.2412 120.002L53.3673 98.0712C53.3673 98.0712 36.0473 33.4056 31.7433 34.5549C27.4394 35.7041 44.7595 100.37 44.7595 100.37L50.6333 122.3L40.6544 116.519C40.6544 116.519 2.05992 94.158 -0.166459 98.0191C-2.39284 101.88 36.2016 124.241 36.2016 124.241L46.1806 130.022L24.2908 135.867C24.2908 135.867 -40.2547 153.102 -39.0998 157.414C-37.9448 161.726 26.6006 144.491 26.6006 144.491L48.4904 138.646L42.7339 148.63C42.7339 148.63 20.4701 187.24 24.3295 189.477C28.189 191.713 50.4528 153.102 50.4528 153.102L56.2093 143.118L62.0832 165.049C62.0832 165.049 79.4033 229.715 83.7072 228.565Z" fill="black"/>
<path d="M87.342 219.916C91.6459 218.767 74.3258 154.102 74.3258 154.102L68.452 132.171L78.4309 137.953C78.4309 137.953 117.025 160.313 119.252 156.452C121.478 152.591 82.8837 130.23 82.8837 130.23L72.9047 124.449L94.7945 118.604C94.7945 118.604 159.34 101.369 158.185 97.0571C157.03 92.7452 92.4847 109.98 92.4847 109.98L70.5949 115.825L76.3514 105.842C76.3514 105.842 98.6152 67.2308 94.7558 64.9947C90.8963 62.7586 68.6325 101.37 68.6325 101.37L62.876 111.353L57.0021 89.4222C57.0021 89.4222 39.682 24.7566 35.3781 25.9058C31.0742 27.055 48.3942 91.7206 48.3942 91.7206L54.2681 113.651L44.2892 107.87C44.2892 107.87 5.69469 85.509 3.46829 89.3701C1.24191 93.2312 39.8364 115.592 39.8364 115.592L49.8153 121.373L27.9255 127.218C27.9255 127.218 -36.6199 144.453 -35.465 148.765C-34.3101 153.077 30.2354 135.842 30.2354 135.842L52.1252 129.997L46.3687 139.98C46.3687 139.98 24.1048 178.591 27.9643 180.827C31.8237 183.064 54.0876 144.453 54.0876 144.453L59.8441 134.469L65.718 156.4C65.718 156.4 83.038 221.066 87.342 219.916Z" fill="#0071C6" stroke="black" stroke-width="2.35" stroke-linecap="round" stroke-linejoin="round"/>
</svg>
