<svg preserveAspectRatio="xMaxYMid meet" width="100%" height="661" viewBox="0 0 196 661" fill="none" xmlns="http://www.w3.org/2000/svg">
<path d="M155.557 649.676C172.896 664.696 190.876 658.508 211.575 661C211.575 624.137 213.178 595.246 211.571 561.252C211.575 517.391 211.573 468.071 211.573 424.008C211.573 386.597 211.573 349.658 211.573 312.739L211.573 201.721C211.573 193.506 211.573 201.721 211.575 164.38C211.575 164.38 195.766 161.63 191.399 157.739C181.262 148.707 162.247 143.638 149.977 137.66C116.015 121.111 61.6288 130.535 42.4526 169.691C35.1866 184.527 38.2366 205.249 34.7262 221.322C30.7778 239.402 20.3349 253.724 18.6298 272.715C16.9038 291.939 22.2783 313.197 22.2783 332.953C22.2783 350.07 12.5634 360.449 3.821 374.306C-15.9157 405.588 46.5373 446.289 60.6952 464.423C77.2488 485.625 92.2127 514.697 97.6098 542.348C101.9 564.33 104.556 585.579 117.569 603.781C129.937 621.078 140.287 636.448 155.557 649.676Z" fill="#FED92F"/>
<path d="M173.906 43.1686C201.565 58.5235 204.426 82.1253 212.287 113.761L212.287 135.648C212.287 150.021 212.286 164.779 212.287 188.715V197.22C212.287 205.726 212.286 194.058 212.286 203.068C207.09 201.42 204.534 197.567 199.509 194.777C179.239 183.524 162.451 168.606 152.57 145.294C147.246 132.733 152.57 119.822 152.57 107.128C152.57 94.295 151.824 77.4191 149.37 64.8833C145.955 47.4418 139.983 30.9918 135.975 13.6892C134.485 7.25307 134.504 -2.49735 135.975 0.58804C141.281 11.7143 140.831 8.81473 148.303 18.2954C154.511 26.1726 165.288 38.3844 173.906 43.1686Z" fill="#0E7471"/>
<path d="M212.47 293.825C192.309 275.747 172.453 287.372 160.221 310.352C153.851 322.319 164.249 340.756 160.221 353.872C158.136 360.659 159.594 371.845 156.249 377.735C147.208 393.658 122.472 396.175 121.678 418.424C121.009 437.153 134.242 447.513 128.22 466.213C122.14 485.092 116.114 505.761 131.597 520.587C138.371 527.074 149.743 527.225 158.08 529.878C166.734 532.632 169.675 534.018 178.709 534.908C195.6 536.57 195.955 544.684 212.471 541.015" stroke="white" stroke-width="5" stroke-linecap="round" stroke-linejoin="round"/>
</svg>
