<svg preserveAspectRatio="xMinYMid meet" width="100%"  height="1216" viewBox="0 0 213 1216" fill="none" xmlns="http://www.w3.org/2000/svg">
<path d="M-29.0019 5.60059C121.924 55.707 50.1489 178.742 50.1489 265.931C50.1489 361.442 51.1715 460.71 104.6 551.528C119.36 576.617 128.552 604.1 137.876 630.159C152.458 670.914 162.395 691.285 175.034 741.129C187.673 790.974 187.673 806.144 195.352 863.356C192.904 885.981 186.296 924.173 175.035 945.708C143.923 1005.2 120.898 1058.24 72.3328 1112.65C35.6325 1153.77 24.2164 1178.3 -25.6009 1214" stroke="#E79565" stroke-width="3" stroke-linecap="round" stroke-linejoin="round"/>
<path d="M-20.5781 3C130.348 53.1064 58.5728 176.141 58.5728 263.331C58.5728 358.841 59.5954 458.109 113.024 548.928C127.784 574.016 136.976 601.5 146.3 627.558C160.882 668.313 170.819 688.684 183.458 738.529C196.097 788.373 196.097 803.543 203.776 860.756C201.328 883.381 194.72 921.572 183.459 943.107C152.347 1002.6 129.322 1055.64 80.7566 1110.05C44.0563 1151.17 32.6402 1175.7 -17.1771 1211.4" stroke="#E79565" stroke-width="5" stroke-linecap="round" stroke-linejoin="round"/>
<path d="M-13.3555 3C137.571 53.1064 65.7954 176.141 65.7954 263.331C65.7954 358.841 66.818 458.109 120.247 548.928C135.006 574.016 144.199 601.5 153.523 627.558C168.105 668.313 178.042 688.684 190.681 738.529C203.32 788.373 203.32 803.543 210.998 860.756C208.55 883.381 201.943 921.572 190.681 943.107C159.57 1002.6 136.545 1055.64 87.9793 1110.05C51.2789 1151.17 39.8629 1175.7 -9.95441 1211.4" stroke="#E79565" stroke-width="4" stroke-linecap="round" stroke-linejoin="round"/>
<path d="M39.625 510C39.625 475.432 33.8717 454.872 0.11518 428C0.11518 428 -0.666621 517.976 0.114047 578C0.114047 619.056 -0.634152 674.007 0.114047 718.112C0.754432 755.861 -0.664351 792.5 0.114048 830.388L0.114047 888.5C0.114047 905.424 0.148136 921.335 0.148136 939.204L0.148016 1065.47C0.14779 1073.26 -6.13412 1083.76 10.7088 1071.11C18.5854 1064.8 32.2632 1062 40.6312 1055.44C46.8766 1050.55 59.4725 1046.14 67.0332 1041.78C84.9665 1031.44 101.125 1011.16 109.277 996.798C140.371 942.008 129.538 886.526 112.015 830.388C100.008 791.923 75.1339 754.749 54.7123 718.112C44.9233 700.55 38.7696 680.62 35.3508 662C32.9404 648.873 32.3396 641.787 32.0804 628.5C31.9183 620.191 28.0179 604.5 28.0179 593C23.3722 584.665 24.5357 571.5 24.5357 566C24.5357 557 31.3919 545.881 32.0804 537.5C32.6608 530.434 35.9092 517.88 39.625 510Z" fill="#B35699"/>
</svg>
