<svg preserveAspectRatio="xMinYMid meet" width="100%" height="638" viewBox="0 0 237 638" fill="none" xmlns="http://www.w3.org/2000/svg">
<path d="M62.066 625.489C42.7903 639.43 22.8023 633.687 -0.209458 636C-0.20932 601.783 -1.99108 574.967 -0.205209 543.413C-0.209154 502.701 -0.207546 456.921 -0.207546 416.022C-0.207546 346.611 -0.207204 278.95 -0.207204 209.694C-0.207204 202.069 -0.207709 209.694 -0.209458 175.034C-0.209458 175.034 17.3659 172.481 22.2207 168.869C33.4895 160.486 54.6294 155.781 68.2695 150.231C106.025 134.871 166.487 143.618 187.805 179.963C195.883 193.734 192.492 212.968 196.395 227.888C200.784 244.669 212.394 257.963 214.289 275.591C216.208 293.434 210.233 313.166 210.233 331.504C210.233 347.393 221.034 357.027 230.752 369.888C252.694 398.925 183.264 436.703 167.525 453.535C149.122 473.215 132.487 500.201 126.487 525.867C121.717 546.27 118.765 565.993 104.297 582.888C90.5486 598.944 79.0415 613.211 62.066 625.489Z" fill="#E79565" stroke="#E8996A" stroke-width="3" stroke-linecap="round" stroke-linejoin="round"/>
<path d="M55.8748 51.0853C14.9275 69.2561 10.6916 97.1863 -0.944617 134.623L-0.944576 160.524C-0.944534 177.533 -0.944491 194.998 -0.944617 223.323L-0.944629 224.541L-0.944617 233.389C-0.944569 243.454 -0.944348 229.646 -0.944432 240.309C6.74806 238.358 10.5326 233.798 17.9718 230.497C47.9794 217.181 72.8329 199.527 87.4607 171.939C95.3418 157.075 87.4607 141.796 87.4607 126.775C87.4607 111.588 88.5649 91.6171 92.1986 76.7823C97.2542 56.1422 106.095 36.6754 112.027 16.1997C114.234 8.58322 114.205 -2.95535 112.027 0.695881C104.173 13.8626 104.839 10.4313 93.7779 21.6506C84.5876 30.9724 68.633 45.4238 55.8748 51.0853Z" fill="#0E7471"/>
<path d="M-0.942886 346.622C21.0946 330.796 42.7982 340.973 56.1686 361.091C63.1312 371.568 51.7654 387.709 56.1687 399.191C58.4475 405.133 56.8542 414.925 60.5098 420.082C70.3927 434.022 97.4311 436.225 98.2994 455.703C99.0304 472.1 84.5655 481.17 91.1481 497.54C97.7938 514.068 104.38 532.163 87.4566 545.143C80.0524 550.821 67.6219 550.954 58.5084 553.276C49.0493 555.687 45.8345 556.901 35.9596 557.68C17.4964 559.135 17.1092 566.238 -0.944463 563.027" stroke="white" stroke-width="5" stroke-linecap="round" stroke-linejoin="round"/>
</svg>
