<svg preserveAspectRatio="xMinYMid meet" height="645" viewBox="0 0 242 645" fill="none" xmlns="http://www.w3.org/2000/svg">
<path d="M176.228 632.468C195.701 646.552 215.894 640.75 239.142 643.087C239.142 608.519 240.942 581.428 239.137 549.551C239.141 508.422 239.14 462.173 239.14 420.854C239.14 350.731 239.14 282.377 239.14 212.411C239.14 204.708 239.14 212.411 239.142 177.396C239.142 177.396 221.386 174.816 216.482 171.168C205.098 162.698 183.741 157.945 169.961 152.339C131.818 136.821 70.7373 145.658 49.2006 182.375C41.0402 196.288 44.4657 215.719 40.5232 230.792C36.0887 247.745 24.3602 261.175 22.4452 278.984C20.5068 297.01 26.5429 316.944 26.5429 335.469C26.5429 351.521 15.6321 361.254 5.81354 374.247C-16.3527 403.581 53.7881 441.747 69.6889 458.752C88.2802 478.634 105.086 505.895 111.148 531.824C115.966 552.437 118.949 572.363 133.564 589.431C147.454 605.651 159.079 620.064 176.228 632.468Z" fill="#E79565" stroke="#E8996A" stroke-width="3" stroke-linecap="round" stroke-linejoin="round"/>
<path d="M182.483 52.1768C223.85 70.5338 228.129 98.7503 239.884 136.571L239.884 162.738C239.884 179.921 239.884 197.565 239.884 226.18V236.349C239.884 246.517 239.884 232.568 239.884 243.34C232.113 241.369 228.29 236.762 220.774 233.427C190.459 219.975 165.351 202.14 150.573 174.269C142.612 159.253 150.573 143.817 150.573 128.642C150.573 113.299 149.458 93.1239 145.787 78.1372C140.68 57.2855 131.748 37.6192 125.755 16.9336C123.526 9.23906 123.555 -2.41776 125.755 1.27088C133.689 14.5726 133.017 11.1061 144.192 22.4404C153.476 31.8577 169.594 46.4572 182.483 52.1768Z" fill="#0E7471"/>
<path d="M239.883 350.743C217.62 334.754 195.694 345.036 182.186 365.36C175.152 375.944 186.635 392.25 182.186 403.85C179.884 409.853 181.494 419.746 177.801 424.955C167.816 439.038 140.501 441.264 139.624 460.942C138.885 477.506 153.498 486.669 146.848 503.208C140.135 519.905 133.481 538.185 150.578 551.298C158.058 557.035 170.616 557.169 179.823 559.515C189.379 561.95 192.626 563.177 202.602 563.963C221.255 565.434 221.646 572.609 239.884 569.365" stroke="white" stroke-width="5" stroke-linecap="round" stroke-linejoin="round"/>
</svg>
