<svg preserveAspectRatio="xMaxYMid meet" width="100%" height="1418" viewBox="0 0 301 1418" fill="none" xmlns="http://www.w3.org/2000/svg">
<path d="M302.164 2.66081C127.147 66.5181 216.221 205.409 219.69 305.894C223.489 415.969 226.239 530.416 167.189 637.247C150.877 666.759 141.189 698.805 131.29 729.215C117.701 770.963 98.6207 808.426 78.1955 848.97C51.9869 900.995 30.3904 953.217 38.2821 1007.58C42.0532 1033.55 62.0813 1062.5 76.1454 1086.86C115.001 1154.17 168.232 1221.89 227.356 1282.63C272.035 1328.53 286.4 1356.34 346.247 1395.47" stroke="#E79565" stroke-width="5" stroke-linecap="round" stroke-linejoin="round"/>
<path d="M313.522 7.77202C138.505 71.6293 227.58 210.52 231.048 311.005C234.848 421.08 237.597 535.528 178.548 642.358C162.235 671.87 152.547 703.916 142.649 734.326C129.06 776.074 109.979 813.537 89.5539 854.081C63.3452 906.106 41.7487 958.328 49.6405 1012.69C53.4115 1038.67 73.4396 1067.61 87.5038 1091.97C126.359 1159.28 179.591 1227 238.714 1287.74C283.393 1333.64 297.758 1361.46 357.605 1400.58" stroke="#E79565" stroke-width="5" stroke-linecap="round" stroke-linejoin="round"/>
<path d="M321.672 12.4937C146.655 76.351 235.73 215.242 239.198 315.727C242.998 425.802 245.748 540.249 186.698 647.08C170.385 676.591 160.697 708.638 150.799 739.048C137.21 780.795 118.129 818.258 97.704 858.803C71.4953 910.828 49.8989 963.05 57.7906 1017.41C61.5616 1043.39 81.5898 1072.33 95.6539 1096.7C134.509 1164 187.741 1231.72 246.864 1292.46C291.543 1338.37 305.908 1366.18 365.756 1405.3" stroke="#E79565" stroke-width="3" stroke-linecap="round" stroke-linejoin="round"/>
<path d="M259.564 628C259.564 593.432 267.132 572.872 311.535 546C311.535 546 312.563 635.976 311.536 696C311.536 737.056 312.52 792.007 311.536 836.112C310.694 873.861 312.56 910.5 311.536 948.388L311.536 1006.5C311.536 1023.42 311.491 1039.34 311.491 1057.2L311.491 1183.47C311.492 1191.26 319.755 1201.76 297.6 1189.11C287.239 1182.8 269.248 1180 258.241 1173.44C250.025 1168.55 233.457 1164.14 223.512 1159.78C199.923 1149.44 178.668 1129.16 167.945 1114.8C127.044 1060.01 141.294 1004.53 164.344 948.388C180.137 909.923 212.856 872.749 239.718 836.112C252.595 818.55 260.689 798.62 265.186 780C268.357 766.873 269.147 759.787 269.488 746.5C269.701 738.191 274.832 722.5 274.832 711C280.943 702.665 279.412 689.5 279.412 684C279.412 675 270.394 663.881 269.488 655.5C268.725 648.434 264.452 635.88 259.564 628Z" fill="#5DA1A1"/>
</svg>