<svg preserveAspectRatio="xMidYMid meet" width="100%" height="64" viewBox="0 0 61 64" fill="none" xmlns="http://www.w3.org/2000/svg">
<path d="M36.2685 19.7358C42.5319 26.5088 46.9516 35.8242 46.64 45.8028C46.1687 43.4362 45.9198 41.1456 44.1293 39.6989C41.78 37.8006 39.0802 36.6151 36.6328 34.7827C33.695 32.5831 29.6611 32.8172 26.8482 30.5444C23.5902 27.9118 17.4596 24.4619 18.089 18.6581C18.6037 13.9127 21.7092 12.7781 25.3585 12.4691C29.3177 12.1337 33.4707 16.7104 36.2685 19.7358Z" fill="#B35699"/>
<path d="M38.6266 49.7239C39.5582 50.3482 40.2057 50.7113 41.1858 51.2369C40.3967 50.8732 39.4837 50.5639 38.6251 50.5431C38.1428 50.5314 37.5448 50.511 37.0909 50.6153C36.3878 50.7768 35.5778 50.6198 34.8559 50.7199C32.9356 50.9863 30.8607 50.792 28.8964 50.8357C25.8113 50.9044 22.6548 50.6032 19.7305 49.3635C17.4823 48.4103 14.751 46.5846 14.6016 44.2544C14.4004 41.1183 17.6658 39.1951 21.0347 39.5678C23.015 39.7868 24.8503 40.3917 26.644 41.2754C27.7676 41.829 28.8447 42.4919 29.9343 43.1023C30.7063 43.5347 31.4228 43.971 32.1243 44.4976C33.5425 45.5624 34.9107 46.691 36.2476 47.8345C37.021 48.496 37.768 49.1484 38.6266 49.7239Z" fill="#5DA1A1"/>
</svg>
