<svg preserveAspectRatio="xMinYMid meet" width="100%" height="663" viewBox="0 0 249 663" fill="none" xmlns="http://www.w3.org/2000/svg">
<path d="M47.543 481.86C25.0913 495.783 1.80996 490.047 -24.9933 492.358C-24.9934 458.712 -24.9914 429.255 -24.9951 398.75C-24.9997 358.091 -24.9911 313.512 -24.9911 272.667C-24.9911 203.345 -24.9907 135.772 -24.9907 66.6071C-24.9907 58.9916 -24.9913 66.6071 -24.9933 31.9919C-24.9933 31.9919 -4.52217 29.4422 1.13253 25.8352C14.2581 17.4628 38.8811 12.7641 54.7686 7.22195C98.7454 -8.11877 169.169 0.617004 194 36.9145C203.408 50.6678 199.459 69.8771 204.005 84.7772C209.117 101.537 222.64 114.814 224.848 132.418C227.082 150.238 220.123 169.944 220.123 188.258C220.123 204.126 232.703 213.748 244.023 226.593C269.58 255.591 188.711 293.321 170.378 310.131C148.943 329.785 129.566 356.735 122.578 382.368C117.022 402.744 113.584 422.442 96.7325 439.315C80.7185 455.35 67.3155 469.598 47.543 481.86Z" fill="#FED92F"/>
<path d="M37.7704 337.526C17.5837 326.952 -4.20144 326.263 -25.9728 326.432V433.256V506.159V573.042V606.287V630.928C-17.5248 646.453 -18.8221 640.023 -4.73428 648.521C22.5983 665.008 47.6844 668.041 76.3798 654.377C95.0997 645.462 98.3465 631.107 92.0756 610.203C86.5385 591.746 80.3444 573.615 74.5467 555.21C64.5409 523.444 74.7187 487.973 93.2213 462.917C99.1599 454.875 110.336 444.909 109.605 433.256C108.905 422.116 101.286 411.946 95.9709 402.958C80.2345 376.35 64.4673 351.51 37.7704 337.526Z" fill="#B35699"/>
<path d="M-26.2667 178.174C-12.7684 152.097 6.21347 140.115 29.4432 140.115C39.274 140.115 47.8835 148.945 47.8835 163.053C47.8835 174.113 51.179 179.481 43.4662 187.727C36.5711 195.098 29.416 211.322 26.4282 222.616C22.7167 236.646 22.642 249.415 22.642 265.024C22.642 282.726 21.3799 300.303 21.3799 318.13C21.3799 329.942 22.6707 343.184 19.4868 354.369C14.6839 371.241 6.57453 383.51 -3.1604 395.523C-15.2229 410.409 -10.7449 410.708 -26.562 416.43" stroke="white" stroke-width="5" stroke-linecap="round" stroke-linejoin="round"/>
</svg>
