<svg  preserveAspectRatio="xMaxYMid meet" width="100%" height="59" viewBox="0 0 51 59" fill="none" xmlns="http://www.w3.org/2000/svg">
<path d="M17.9537 50.2164C16.7511 50.8258 15.9125 51.1558 14.6422 51.6238C15.6671 51.3256 16.8571 51.1276 17.9862 51.2979C18.6205 51.3936 19.4067 51.5044 20.0079 51.7466C20.9392 52.1218 21.9994 52.1011 22.9532 52.3996C25.4902 53.1935 28.2136 53.4151 30.8002 53.9253C34.8627 54.7266 39.0055 55.0563 42.8077 54.0936C45.7309 53.3535 49.2571 51.573 49.367 48.5319C49.5149 44.439 45.146 41.1484 40.7263 40.8642C38.1285 40.6972 35.7358 41.0728 33.4081 41.826C31.9501 42.2977 30.5573 42.9246 29.1461 43.4792C28.1463 43.8721 27.2196 44.2828 26.3161 44.8164C24.4895 45.895 22.7309 47.0693 21.0142 48.2707C20.0211 48.9657 19.0623 49.6546 17.9537 50.2164Z" fill="#E79565"/>
<path d="M8.10321 36.4344C7.39058 37.7735 7.1926 39.0611 7.12281 40.491C7.06682 40.1669 6.99678 39.8389 6.99092 39.5417C6.97881 38.9269 6.96924 38.0178 6.74488 37.413C6.36903 36.3998 6.45272 35.4198 6.33659 34.4354C6.10034 32.4327 5.58952 30.0841 5.07347 28.0678C4.23131 24.7773 4.89529 21.256 5.70375 18.2427C6.96286 13.5499 9.86214 9.48582 14.2503 6.60139C15.5463 5.7495 17.2986 5.195 19.0297 4.98561C20.1554 4.84945 21.8004 4.97606 22.7478 4.55664C24.565 3.75217 27.1933 5.59125 28.6927 6.55755C35.4419 10.907 30.4898 17.6807 27.1764 21C24.6177 23.5633 21.3979 25.39 18.4281 27.579C16.2718 29.1683 13.3713 30.229 11.659 32.1802C10.4234 33.5882 8.97078 34.8041 8.10321 36.4344Z" fill="#5DA1A1"/>
</svg>
