<svg preserveAspectRatio="xMinYMax meet" width="70" height="81" viewBox="0 0 70 81" fill="none" xmlns="http://www.w3.org/2000/svg">
<path d="M40.8444 18.1716C29.0198 18.3608 17.1064 22.0559 9.57692 30.1459C11.9279 28.6737 13.9886 27.079 16.9837 27.4092C20.9135 27.8424 24.6458 29.1224 28.6255 29.6876C33.4028 30.3662 37.4013 33.8532 42.1067 34.372C47.5566 34.9729 56.6283 37.2841 60.543 32.2116C63.7436 28.0643 61.4163 24.6305 57.8755 21.3996C54.0342 17.8943 46.1262 18.0871 40.8444 18.1716Z" fill="#B35699"/>
<path d="M12.117 47.0191C10.9244 46.4018 10.1792 45.9294 9.07931 45.1994C9.8946 45.8236 10.7065 46.614 11.1514 47.5229C11.4013 48.0335 11.7182 48.6629 11.8174 49.2141C11.971 50.0679 12.5529 50.8412 12.7882 51.6776C13.4141 53.9022 14.6592 56.0105 15.5692 58.1459C16.9986 61.4998 18.8993 64.7036 21.7934 67.0827C24.0184 68.9117 27.5092 70.7243 30.331 69.4561C34.1289 67.7493 34.7988 63.0648 32.7098 59.6768C31.4819 57.6854 29.8698 56.0861 27.9492 54.7024C26.7462 53.8356 25.4369 53.0858 24.1834 52.2903C23.2954 51.7268 22.43 51.225 21.4653 50.7949C19.5149 49.9254 17.5139 49.1486 15.5104 48.4145C14.3515 47.9899 13.2162 47.588 12.117 47.0191Z" fill="#E79565"/>
</svg>
