<svg preserveAspectRatio="xMaxYMid meet" width="100%" height="517" viewBox="0 0 163 517" fill="none" xmlns="http://www.w3.org/2000/svg">
<path d="M122.305 346.673C135.938 356.69 150.074 352.563 166.349 354.225C166.349 330.019 166.348 308.826 166.35 286.879C166.353 257.627 166.347 225.555 166.347 196.169L166.347 47.9202C166.347 42.4413 166.348 47.9202 166.349 23.0164C166.349 23.0164 153.919 21.182 150.485 18.587C142.516 12.5635 127.565 9.18304 117.918 5.19577C91.2156 -5.84103 48.4549 0.443878 33.3778 26.558C27.665 36.4528 30.063 50.2728 27.303 60.9926C24.1986 73.0502 15.9879 82.6022 14.6473 95.2678C13.2902 108.089 17.5159 122.266 17.5159 135.442C17.5159 146.858 9.87764 153.78 3.00403 163.021C-12.5138 183.884 36.5894 211.028 47.7209 223.122C60.736 237.263 72.5013 256.652 76.7447 275.093C80.118 289.753 82.206 303.925 92.4378 316.064C102.161 327.6 110.3 337.851 122.305 346.673Z" fill="#0E7471"/>
<path d="M117.253 308.22C132.935 301.438 149.859 300.996 166.772 301.104V369.628V416.393V459.295V480.621V496.427C160.209 506.385 161.217 502.261 150.273 507.712C129.04 518.288 109.551 520.234 87.2591 511.468C72.7165 505.75 70.1942 496.542 75.0658 483.133C79.3673 471.293 84.1792 459.663 88.6832 447.856C96.4563 427.48 88.5496 404.727 74.1757 388.654C69.5623 383.495 60.8799 377.102 61.4483 369.628C61.9917 362.482 67.9103 355.958 72.0397 350.193C84.2646 333.125 96.5135 317.191 117.253 308.22Z" fill="#FED92F"/>
<path d="M167.053 197.816C160.157 181.897 150.46 174.582 138.593 174.582C133.571 174.582 129.173 179.973 129.173 188.585C129.173 195.337 127.489 198.614 131.429 203.648C134.952 208.148 138.607 218.052 140.133 224.946C142.029 233.511 142.068 241.306 142.068 250.834C142.068 261.641 142.712 272.371 142.712 283.253C142.712 290.464 142.053 298.548 143.679 305.375C146.133 315.675 150.276 323.165 155.249 330.499C161.411 339.585 159.124 339.768 167.204 343.261" stroke="white" stroke-width="5" stroke-linecap="round" stroke-linejoin="round"/>
</svg>
