<svg preserveAspectRatio="xMaxYMax meet" width="100%" height="231" viewBox="0 0 348 231" fill="none" xmlns="http://www.w3.org/2000/svg">
<path d="M319.987 21.1403C336.335 6.67564 344.836 -9.90519 344.836 7.39701V29.2796V48.1085C344.836 59.4612 344.619 72.3553 344.836 83.7302C345.205 103.047 344.836 111.714 344.836 131.057V187.035V210.68V219.84V228.491H301.332H221.825C189.5 228.491 158.317 229 127.317 229H112.301H102.319H92.3364H0C9.26131 214.518 20.7366 212.825 33.4405 200.343C56.9473 162.012 140.252 149.746 169.649 135.205C182.178 120.615 170.639 107.755 187.673 87.9058C221.825 48.1085 221.825 49.9195 244.568 43.4418C267.028 43.4418 269.986 57.9445 287.791 49.9195C296.007 46.2166 302.327 43.4971 308.206 36.6611C312.264 31.9413 315.384 25.2129 319.987 21.1403Z" fill="#FED92F"/>
<path d="M345 102.06C332.5 99 337.305 96.6163 313.114 102.059C284.344 108.533 261.995 129.745 242.045 150.143C231.38 161.048 222.13 172.602 209.681 181.715C197.706 190.48 185.418 198.174 174.278 208.134C164.964 216.463 161.23 216.443 157 228.5" stroke="#FFFEF2" stroke-width="5" stroke-linecap="round" stroke-linejoin="round"/>
</svg>
