<svg preserveAspectRatio="xMidYMid meet" width="100%" height="138" viewBox="0 0 354 138" fill="none" xmlns="http://www.w3.org/2000/svg">
<path d="M95.6494 20.5952C115.802 14.0941 135.638 10.3603 156.514 6.96181C161.505 6.96181 163.463 7.98822 168.311 8.73186C175.73 9.87002 181.544 11.0118 189.037 11.9916C201.358 13.6028 215.115 14.1094 227.534 14.1094C234.984 14.1094 242.29 15.3007 249.703 15.3007C257.668 15.3007 266.016 12.6694 273.597 10.5356C286.009 7.04234 298.158 0.360381 311.231 0.0127763C320.035 -0.221308 326.908 2.79601 334.677 6.20626L335.192 6.43236C348.498 12.27 356.334 26.1419 353.378 40.5819C349.435 59.8471 328.324 74.4626 313.475 84.7431L313.023 85.0557C292.314 99.3952 269.916 111.687 245.853 119.867C224.038 127.283 203.926 127.281 181.348 127.279L180.342 127.279C171.024 127.279 163.15 124.279 154.125 122.779C147.606 121.696 140.104 122.324 133.549 122.514C106.912 123.288 82.6397 139.141 55.427 137.935C36.2303 137.084 0.419708 132.813 0.00501199 106.763C-0.340358 85.0679 16.1967 78.3073 32.7936 68.378C47.9494 59.3109 59.3387 49.0574 71.6885 36.7434C79.5154 28.9392 84.9397 24.05 95.6494 20.5952Z" fill="#FED92F"/>
</svg>
