<svg preserveAspectRatio="xMidYMid meet" width="100%" height="176" viewBox="0 0 354 176" fill="none" xmlns="http://www.w3.org/2000/svg">
<path d="M68.6312 46.6766C117.945 29.3356 166.728 8.78933 218.487 0C228.781 0 251.701 4.31815 251.071 16.2915C250.755 22.2844 240.298 37.9387 248.743 42.4097C255.444 45.957 268.492 42.8134 275.766 40.5996C292.971 35.3635 310.248 30.6699 327.227 24.6959C330.394 23.5815 344.089 16.4739 347.656 20.0412C354.362 26.7474 354.46 50.5161 351.147 58.7013C342.256 80.668 301.62 90.7972 280.809 95.4219C268.943 98.0588 257.094 102.255 245.123 104.214C238.501 105.298 231.791 103.879 225.34 105.895C205.906 111.968 186.554 116.302 169.096 126.971C147.149 140.382 125.184 153.478 103.542 167.441C81.7825 181.479 55.6739 177.609 65.9159 146.882C68.1886 140.064 79.4834 115.292 64.3643 120.506C51.5312 124.931 15.4375 136.024 3.46499 126.712C-4.76092 120.314 6.34548 95.769 9.1541 89.2156C19.7481 64.4963 44.8009 55.0564 68.6312 46.6766Z" fill="#FED92F"/>
</svg>
