<svg preserveAspectRatio="xMidYMid meet" width="100%" height="219" viewBox="0 0 364 219" fill="none" xmlns="http://www.w3.org/2000/svg">
<path d="M310.934 214.73C264.611 223.195 209.612 208.53 170.651 187.808C166.474 180.453 137.545 173.664 130.145 179.648C121.771 186.419 105.561 190.987 94.9251 194.195C75.5126 200.052 52.0301 195.514 35.6511 182.936C22.435 172.787 11.9209 161.615 8.46204 146.052C2.8642 120.865 -2.14637 93.4098 1.81225 68.0027C5.03656 47.3084 16.619 26.4735 33.1394 11.633C51.8344 -5.16096 92.0027 1.26958 112.598 12.1477C136.119 24.5704 168.315 40.3042 196.859 37.3492C217.743 35.1872 238.017 28.7452 258.743 25.7547C275.936 23.2738 283.071 32.2551 293.372 43.9355C306.41 58.7183 292.447 76.6294 295.081 93.6747C298.66 116.848 314.922 133.251 333.583 149.176C344.882 158.818 360.302 170.257 361.632 185.397C362.134 191.109 365.443 192.041 360.451 196.933C350.145 207.032 325.503 212.068 310.934 214.73Z" fill="#FED92F"/>
</svg>
