<svg preserveAspectRatio="xMidYMid meet" width="100%" height="194" viewBox="0 0 354 194" fill="none" xmlns="http://www.w3.org/2000/svg">
<path d="M72.9868 64.0893C99.9292 49.503 132.258 44.2341 162.666 47.0433C177.202 52.0279 182.148 53.1624 197.435 49.6005C230.334 41.9353 264.968 41.8596 298.237 34.1079C315.508 30.0838 344.606 39.3335 339.021 68.5708C335.624 86.353 314.768 95.3991 302.626 103.696C289.836 112.437 279.88 120.568 264.488 118.652C253.498 117.283 246.836 112.144 235.841 118.517C216.162 129.922 198.444 145.032 178.688 156.406C173.712 159.271 166.157 163.254 160.574 158.85C154.121 153.76 151.244 143.529 144.895 139.263C137.433 134.248 131.077 137.005 123.496 138.771L77.736 149.433C66.8183 151.977 29.6445 166.849 19.526 152.338C9.12497 137.421 17.5243 107.797 25.1285 96.7046C36.2067 80.5439 57.4997 72.4739 72.9868 64.0893Z" fill="#E79565"/>
</svg>
