<svg width="149" height="147" viewBox="0 0 149 147" fill="none" xmlns="http://www.w3.org/2000/svg">
<path d="M89.9532 86.8777C89.3554 85.8692 90.1811 84.6131 91.3476 84.7807C96.6707 85.5331 102.017 86.1633 107.392 86.641C116.568 87.4149 125.791 87.8818 135.196 87.4451C136.66 87.3738 137.039 85.3695 135.702 84.7693C127.104 80.9329 118.345 78.0039 109.519 75.3783C104.34 73.8629 99.1217 72.4982 93.8909 71.2575C92.7436 70.9882 92.4328 69.5175 93.3572 68.7965C94.9728 67.5316 96.5784 66.2648 98.1529 64.9394C102.794 61.011 107.326 56.9356 111.572 52.4269C112.61 51.3269 111.436 49.5878 110.026 50.1539C104.29 52.4743 98.8533 55.2197 93.513 58.1204C91.7062 59.1174 89.9343 60.1526 88.1705 61.1998C87.1638 61.8 85.9116 60.9735 86.0799 59.804C86.8272 54.4554 87.4629 49.0858 87.9565 43.6893C88.7352 34.5007 89.2077 25.2647 88.7992 15.8519C88.7396 14.3866 86.7201 14.0052 86.1302 15.3479C82.3172 23.9635 79.389 32.7357 76.7632 41.5755C75.2447 46.7785 73.8784 52.0102 72.6338 57.2648C72.364 58.4151 70.8966 58.7281 70.1781 57.8021C68.9178 56.1838 67.6453 54.5737 66.3266 52.9865C62.4119 48.338 58.3504 43.7989 53.8564 39.5468C52.76 38.5073 51.0239 39.6863 51.5874 41.0992C53.8969 46.8459 56.6307 52.2935 59.5195 57.6438C60.5124 59.454 61.5434 61.2292 62.5866 62.9962C63.1843 64.0047 62.3586 65.2607 61.1921 65.0931C55.857 64.3491 50.5007 63.7169 45.1175 63.2272C35.9516 62.4551 26.7381 61.9902 17.3474 62.4085C15.8855 62.4696 15.5032 64.4942 16.8421 65.0842C25.4336 68.8984 34.1821 71.8254 42.9984 74.4491C48.1773 75.9645 53.3953 77.3292 58.6261 78.5699C59.7734 78.8393 60.0842 80.3099 59.1598 81.031C57.5441 82.2959 55.9367 83.5728 54.3641 84.888C49.711 88.8247 45.1668 92.9083 40.9168 97.4374C39.8788 98.5374 41.0552 100.266 42.4635 99.7104C48.2088 97.3919 53.6681 94.6402 59.0204 91.7312C60.8152 90.7425 62.5852 89.7175 64.3388 88.6683C65.3455 88.0681 66.5977 88.8947 66.4294 90.0641C65.6739 95.4006 65.0402 100.76 64.5586 106.148C63.7779 115.347 63.3036 124.593 63.7304 134.02C63.8002 135.487 65.7993 135.865 66.3994 134.524C70.2346 125.902 73.1648 117.12 75.7924 108.27C77.3091 103.077 78.6735 97.8555 79.9161 92.6109C80.1859 91.4607 81.6533 91.1477 82.3718 92.0737C83.622 93.6901 84.8963 95.29 86.2069 96.8651C90.1298 101.526 94.1995 106.077 98.7138 110.333C99.8102 111.372 101.536 110.191 100.983 108.78C98.6753 103.024 95.9351 97.5537 93.0381 92.1913C92.0534 90.3932 91.0325 88.6199 89.9875 86.8631L89.9532 86.8777Z" fill="black"/>
<path d="M85.7497 83.7026C85.1519 82.6941 85.9776 81.4381 87.1441 81.6057C92.4672 82.358 97.8133 82.9883 103.188 83.4659C112.364 84.2399 121.588 84.7067 130.993 84.27C132.457 84.1987 132.835 82.1944 131.498 81.5942C122.9 77.7579 114.142 74.8289 105.315 72.2032C100.136 70.6878 94.9182 69.3231 89.6874 68.0825C88.5401 67.8131 88.2293 66.3425 89.1537 65.6214C90.7693 64.3565 92.3749 63.0897 93.9494 61.7644C98.5904 57.836 103.123 53.7606 107.369 49.2518C108.407 48.1518 107.232 46.4127 105.822 46.9788C100.087 49.2992 94.6498 52.0447 89.3095 54.9454C87.5027 55.9424 85.7307 56.9775 83.967 58.0248C82.9603 58.625 81.7081 57.7984 81.8764 56.629C82.6237 51.2804 83.2593 45.9107 83.7529 40.5142C84.5317 31.3256 85.0042 22.0897 84.5957 12.6769C84.5361 11.2115 82.5166 10.8302 81.9267 12.1729C78.1137 20.7885 75.1854 29.5606 72.5597 38.4005C71.0412 43.6034 69.6748 48.8351 68.4303 54.0898C68.1605 55.2401 66.6931 55.553 65.9746 54.6271C64.7143 53.0087 63.4418 51.3986 62.123 49.8114C58.2084 45.163 54.1469 40.6238 49.6529 36.3717C48.5565 35.3323 46.8204 36.5112 47.3839 37.9242C49.6933 43.6709 52.4272 49.1184 55.316 54.4688C56.3089 56.2789 57.3399 58.0542 58.383 59.8212C58.9808 60.8297 58.1551 62.0857 56.9886 61.9181C51.6535 61.174 46.2972 60.5418 40.914 60.0521C31.7481 59.2801 22.5346 58.8151 13.1439 59.2334C11.682 59.2945 11.2996 61.3192 12.6386 61.9092C21.2301 65.7233 29.9786 68.6504 38.7948 71.2741C43.9738 72.7895 49.1918 74.1542 54.4226 75.3949C55.5699 75.6642 55.8807 77.1349 54.9563 77.8559C53.3406 79.1208 51.7332 80.3978 50.1606 81.713C45.5075 85.6496 40.9633 89.7333 36.7133 94.2624C35.6753 95.3624 36.8517 97.0913 38.2599 96.5354C44.0053 94.2169 49.4646 91.4651 54.8169 88.5561C56.6116 87.5674 58.3817 86.5424 60.1353 85.4932C61.1419 84.8931 62.3942 85.7196 62.2259 86.889C61.4704 92.2255 60.8366 97.585 60.3551 102.973C59.5744 112.172 59.1 121.418 59.5269 130.845C59.5967 132.312 61.5958 132.69 62.1958 131.349C66.0311 122.727 68.9613 113.945 71.5889 105.095C73.1056 99.9019 74.47 94.6804 75.7126 89.4359C75.9823 88.2856 77.4498 87.9727 78.1683 88.8986C79.4185 90.5151 80.6928 92.115 82.0034 93.6901C85.9263 98.3506 89.996 102.902 94.5103 107.158C95.6067 108.197 97.3326 107.016 96.7793 105.605C94.4717 99.8485 91.7316 94.3787 88.8346 89.0162C87.8499 87.2182 86.829 85.4448 85.784 83.688L85.7497 83.7026Z" fill="#FCF43D" stroke="black" stroke-width="2.35" stroke-linecap="round" stroke-linejoin="round"/>
</svg>
