<svg width="148" height="147" viewBox="0 0 148 147" fill="none" xmlns="http://www.w3.org/2000/svg">
<path d="M134.141 64.7268C96.8841 80.4689 90.5867 90.2886 91.8074 130.828C91.8607 132.509 89.5542 133.011 88.8944 131.462C73.1487 94.0833 63.348 87.7563 22.921 88.9293C21.2453 88.9807 20.7419 86.6672 22.2852 86.0076C59.5418 70.2654 65.8392 60.4457 64.6185 19.9058C64.5653 18.2255 66.8718 17.7236 67.5315 19.272C83.2772 56.651 93.0779 62.9781 133.505 61.805C135.181 61.7537 135.684 64.0672 134.141 64.7268Z" fill="black"/>
<path d="M125.147 60.3856C87.8904 76.1279 81.5931 85.9476 82.814 126.487C82.8673 128.168 80.5608 128.67 79.9011 127.121C64.1552 89.7424 54.3545 83.4154 13.9277 84.5887C12.252 84.64 11.7486 82.3266 13.2919 81.6669C50.5482 65.9246 56.8455 56.1049 55.6246 15.5652C55.5714 13.8849 57.8779 13.3829 58.5376 14.9313C74.2835 52.3101 84.0842 58.6371 124.511 57.4638C126.187 57.4125 126.69 59.7259 125.147 60.3856Z" fill="#FCF43D"/>
<path d="M125.147 60.3856C87.8904 76.1279 81.5932 85.9476 82.814 126.487C82.8673 128.168 80.5608 128.67 79.9011 127.121C64.1552 89.7424 54.3545 83.4154 13.9277 84.5887C12.252 84.64 11.7486 82.3266 13.2919 81.6669C50.5482 65.9246 56.8455 56.1049 55.6246 15.5652C55.5714 13.8849 57.8779 13.3829 58.5376 14.9313C74.2835 52.3101 84.0842 58.6371 124.511 57.4638C126.187 57.4125 126.69 59.7259 125.147 60.3856V60.3856Z" stroke="black" stroke-width="2.35" stroke-linecap="round" stroke-linejoin="round"/>
</svg>
