<svg width="118" height="118" viewBox="0 0 118 118" fill="none" xmlns="http://www.w3.org/2000/svg">
<path d="M103.682 48.2335C76.9363 62.9479 72.9721 70.8093 77.0402 101.149C77.2108 102.406 75.5183 102.962 74.9027 101.851C60.1761 75.0138 52.3266 71.0259 22.0685 75.0495C20.8145 75.2183 20.2567 73.5206 21.364 72.9055C48.1094 58.1911 52.0736 50.3296 48.0055 19.9905C47.8348 18.7331 49.5274 18.177 50.143 19.2881C64.8696 46.1252 72.7191 50.1131 102.977 46.0895C104.231 45.9207 104.789 47.6183 103.682 48.2335Z" fill="black"/>
<path d="M96.5925 45.674C69.8471 60.3884 65.883 68.2499 69.9511 98.589C70.1218 99.8463 68.4293 100.402 67.8136 99.2913C53.087 72.4543 45.2375 68.4664 14.9794 72.4901C13.7254 72.6589 13.1676 70.9612 14.2749 70.3461C41.0203 55.6316 44.9844 47.7702 40.9163 17.4311C40.7456 16.1737 42.4382 15.6176 43.0538 16.7287C57.7805 43.5657 65.6299 47.5536 95.888 43.53C97.142 43.3612 97.6998 45.0588 96.5925 45.674Z" fill="#0071C6"/>
<path d="M96.5925 45.674C69.8471 60.3884 65.883 68.2499 69.9511 98.589C70.1218 99.8463 68.4293 100.402 67.8136 99.2913C53.087 72.4543 45.2375 68.4664 14.9794 72.4901C13.7254 72.6589 13.1676 70.9612 14.2749 70.3461C41.0203 55.6316 44.9844 47.7702 40.9163 17.4311C40.7456 16.1737 42.4382 15.6176 43.0538 16.7287C57.7805 43.5657 65.6299 47.5536 95.888 43.53C97.142 43.3612 97.6998 45.0588 96.5925 45.674V45.674Z" stroke="black" stroke-width="2.35" stroke-linecap="round" stroke-linejoin="round"/>
</svg>
