<svg width="104" height="104" viewBox="0 0 104 104" fill="none" xmlns="http://www.w3.org/2000/svg">
<path d="M63.6495 61.9389C63.15 61.0962 63.8399 60.0467 64.8146 60.1867C69.2624 60.8154 73.7294 61.342 78.2205 61.7411C85.8877 62.3878 93.5946 62.7779 101.453 62.4129C102.676 62.3534 102.992 60.6787 101.875 60.1772C94.6911 56.9716 87.3727 54.5243 79.9976 52.3304C75.6703 51.0642 71.3103 49.9239 66.9396 48.8872C65.981 48.6622 65.7213 47.4333 66.4937 46.8308C67.8437 45.7739 69.1852 44.7154 70.5008 43.608C74.3787 40.3256 78.1656 36.9203 81.7135 33.153C82.5808 32.2339 81.5995 30.7807 80.4212 31.2538C75.6291 33.1926 71.0861 35.4866 66.6239 37.9103C65.1142 38.7434 63.6336 39.6083 62.1599 40.4834C61.3188 40.9848 60.2724 40.2942 60.4131 39.3171C61.0375 34.848 61.5686 30.3613 61.981 25.8522C62.6318 18.1745 63.0265 10.4573 62.6852 2.59225C62.6354 1.36786 60.948 1.04922 60.4551 2.17112C57.2691 9.37002 54.8223 16.6997 52.6284 24.086C51.3595 28.4334 50.2179 32.8048 49.178 37.1954C48.9526 38.1566 47.7264 38.418 47.1261 37.6444C46.073 36.2921 45.0098 34.9468 43.9079 33.6206C40.6369 29.7365 37.2433 25.9437 33.4883 22.3908C32.5721 21.5223 31.1215 22.5074 31.5923 23.688C33.522 28.4898 35.8063 33.0415 38.2201 37.5121C39.0498 39.0246 39.9113 40.5079 40.7828 41.9843C41.2823 42.827 40.5924 43.8765 39.6177 43.7365C35.1599 43.1147 30.6843 42.5865 26.1864 42.1773C18.5276 41.5322 10.8292 41.1437 2.98259 41.4933C1.76107 41.5443 1.4416 43.236 2.56038 43.7291C9.73912 46.916 17.0491 49.3617 24.4156 51.554C28.743 52.8202 33.1029 53.9605 37.4736 54.9972C38.4323 55.2223 38.692 56.4511 37.9196 57.0536C36.5696 58.1105 35.2265 59.1775 33.9125 60.2764C30.0245 63.5657 26.2275 66.9779 22.6764 70.7622C21.8091 71.6813 22.792 73.126 23.9687 72.6614C28.7693 70.7242 33.3309 68.4249 37.8031 65.9943C39.3027 65.1681 40.7817 64.3117 42.2469 63.435C43.0881 62.9336 44.1344 63.6242 43.9938 64.6013C43.3625 69.0603 42.833 73.5385 42.4306 78.0408C41.7783 85.7269 41.3819 93.4526 41.7386 101.329C41.7969 102.555 43.4673 102.871 43.9687 101.75C47.1733 94.5463 49.6217 87.2081 51.8172 79.8133C53.0845 75.4744 54.2245 71.1115 55.2628 66.7294C55.4882 65.7683 56.7143 65.5068 57.3147 66.2805C58.3593 67.6311 59.4241 68.9679 60.5192 70.284C63.797 74.1782 67.1975 77.9811 70.9695 81.5372C71.8856 82.4057 73.3277 81.419 72.8654 80.24C70.9373 75.4298 68.6478 70.8594 66.2271 66.3787C65.4043 64.8763 64.5513 63.3946 63.6781 61.9267L63.6495 61.9389Z" fill="#8F55FF" stroke="black" stroke-width="2.35" stroke-linecap="round" stroke-linejoin="round"/>
</svg>
