<svg width="147" height="194" viewBox="0 0 147 194" fill="none" xmlns="http://www.w3.org/2000/svg">
<path d="M118.816 125.987C69.0725 119.322 56.0955 125.805 31.5226 169.664C30.507 171.484 27.729 170.569 28.0143 168.509C35.0935 118.888 28.689 106.007 -15.1345 81.8654C-16.9527 80.8676 -16.0126 78.0922 -13.9472 78.3603C35.7966 85.0247 48.7736 78.5415 73.3464 34.6825C74.3621 32.8629 77.14 33.7779 76.8548 35.8381C69.7756 85.4592 76.1801 98.3397 120.004 122.481C121.822 123.479 120.882 126.255 118.816 125.987Z" fill="black"/>
<path d="M111.942 115.701C62.2097 109.052 49.2327 115.541 24.6488 159.416C23.6327 161.236 20.8556 160.322 21.1415 158.261C28.2367 108.629 21.8378 95.7488 -21.9696 71.6178C-23.7872 70.6204 -22.8462 67.8443 -20.7813 68.1117C28.9515 74.7604 41.9285 68.2717 66.5124 24.397C67.5285 22.5767 70.3056 23.4909 70.0197 25.5516C62.9245 75.1835 69.3234 88.0639 113.131 112.195C114.948 113.192 114.007 115.968 111.942 115.701Z" fill="#8F55FF"/>
<path d="M111.942 115.701C62.2097 109.052 49.2327 115.541 24.6488 159.416C23.6327 161.236 20.8556 160.322 21.1415 158.261C28.2367 108.629 21.8378 95.7488 -21.9696 71.6178C-23.7872 70.6204 -22.8462 67.8443 -20.7813 68.1117C28.9515 74.7604 41.9285 68.2717 66.5124 24.397C67.5285 22.5767 70.3056 23.4909 70.0197 25.5516C62.9245 75.1835 69.3234 88.0639 113.131 112.195C114.948 113.192 114.007 115.968 111.942 115.701V115.701Z" stroke="black" stroke-width="2.35" stroke-linecap="round" stroke-linejoin="round"/>
</svg>
