<svg width="257" height="381" viewBox="0 0 257 381" fill="none" xmlns="http://www.w3.org/2000/svg">
<path d="M214.492 150.717C212.606 144.381 117.903 172.572 117.903 172.572L85.7858 182.132L93.8816 167.113C93.8816 167.113 125.193 109.026 119.395 105.875C113.597 102.724 82.2853 160.812 82.2853 160.812L74.1894 175.831L64.5965 143.605C64.5965 143.605 36.3104 48.5821 29.9955 50.4619C23.6806 52.3417 51.9667 147.365 51.9667 147.365L61.5596 179.591L46.568 171.444C46.568 171.444 -11.4138 139.937 -14.545 145.746C-17.6761 151.554 40.3056 183.062 40.3056 183.062L55.2973 191.208L23.1799 200.769C23.1799 200.769 -71.5232 228.96 -69.6371 235.296C-67.751 241.632 26.9522 213.441 26.9522 213.441L59.0696 203.88L50.9738 218.9C50.9738 218.9 19.6623 276.987 25.4604 280.138C31.2586 283.289 62.5701 225.201 62.5701 225.201L70.666 210.182L80.2589 242.408C80.2589 242.408 108.545 337.431 114.86 335.551C121.175 333.671 92.8886 238.648 92.8886 238.648L83.2957 206.422L98.2874 214.569C98.2874 214.569 156.269 246.076 159.4 240.267C162.532 234.458 104.55 202.951 104.55 202.951L89.5581 194.805L121.675 185.244C121.675 185.244 216.379 157.053 214.492 150.717Z" fill="black"/>
<path d="M201.562 145.67C199.676 139.333 104.972 167.524 104.972 167.524L72.855 177.085L80.9509 162.066C80.9509 162.066 112.262 103.978 106.464 100.827C100.666 97.6767 69.3545 155.764 69.3545 155.764L61.2587 170.783L51.6658 138.558C51.6658 138.558 23.3797 43.5346 17.0648 45.4144C10.7499 47.2942 39.036 142.317 39.036 142.317L48.6289 174.543L33.6372 166.397C33.6372 166.397 -24.3445 134.889 -27.4757 140.698C-30.6068 146.507 27.3749 178.014 27.3749 178.014L42.3666 186.161L10.2492 195.721C10.2492 195.721 -84.454 223.912 -82.5678 230.248C-80.6817 236.585 14.0215 208.394 14.0215 208.394L46.1389 198.833L38.043 213.852C38.043 213.852 6.73156 271.94 12.5297 275.09C18.3279 278.241 49.6394 220.154 49.6394 220.154L57.7353 205.134L67.3282 237.36C67.3282 237.36 95.6143 332.383 101.929 330.504C108.244 328.624 79.9579 233.601 79.9579 233.601L70.365 201.375L85.3567 209.521C85.3567 209.521 143.338 241.028 146.47 235.22C149.601 229.411 91.619 197.904 91.619 197.904L76.6273 189.757L108.745 180.197C108.745 180.197 203.448 152.006 201.562 145.67Z" fill="#0071C6" stroke="black" stroke-width="2.35" stroke-linecap="round" stroke-linejoin="round"/>
</svg>
