<svg width="373" height="381" viewBox="0 0 373 381" fill="none" xmlns="http://www.w3.org/2000/svg">
<path d="M330.492 150.717C328.606 144.38 233.904 172.573 233.904 172.573L201.787 182.133L209.882 167.114C209.882 167.114 241.193 109.027 235.395 105.876C229.596 102.726 198.286 160.813 198.286 160.813L190.19 175.832L180.597 143.607C180.597 143.607 152.31 48.5849 145.995 50.4647C139.68 52.3446 167.967 147.366 167.967 147.366L177.561 179.592L162.569 171.446C162.569 171.446 104.587 139.94 101.456 145.748C98.3252 151.557 156.307 183.063 156.307 183.063L171.299 191.21L139.182 200.771C139.182 200.771 44.4796 228.963 46.3658 235.299C48.252 241.635 142.954 213.443 142.954 213.443L175.071 203.882L166.976 218.901C166.976 218.901 135.665 276.989 141.463 280.139C147.261 283.29 178.572 225.202 178.572 225.202L186.667 210.183L196.261 242.409C196.261 242.409 224.548 337.43 230.863 335.551C237.178 333.671 208.89 238.649 208.89 238.649L199.297 206.423L214.289 214.569C214.289 214.569 272.271 246.076 275.402 240.267C278.533 234.458 220.551 202.952 220.551 202.952L205.559 194.806L237.676 185.245C237.676 185.245 332.378 157.053 330.492 150.717V150.717Z" fill="black"/>
<path d="M317.561 145.669C315.675 139.333 220.973 167.525 220.973 167.525L188.856 177.086L196.952 162.067C196.952 162.067 228.262 103.979 222.464 100.829C216.666 97.678 185.355 155.766 185.355 155.766L177.26 170.785L167.666 138.559C167.666 138.559 139.379 43.5374 133.064 45.4172C126.75 47.2971 155.037 142.319 155.037 142.319L164.63 174.545L149.638 166.398C149.638 166.398 91.6566 134.892 88.5255 140.701C85.3945 146.51 143.376 178.016 143.376 178.016L158.368 186.162L126.251 195.723C126.251 195.723 31.5489 223.915 33.4351 230.251C35.3213 236.587 130.023 208.395 130.023 208.395L162.14 198.834L154.045 213.853C154.045 213.853 122.734 271.941 128.533 275.092C134.331 278.242 165.641 220.155 165.641 220.155L173.737 205.136L183.33 237.361C183.33 237.361 211.617 332.383 217.932 330.503C224.247 328.623 195.96 233.601 195.96 233.601L186.366 201.376L201.358 209.522C201.358 209.522 259.34 241.028 262.471 235.219C265.602 229.411 207.62 197.904 207.62 197.904L192.628 189.758L224.745 180.197C224.745 180.197 319.448 152.005 317.561 145.669V145.669Z" fill="#0071C6" stroke="black" stroke-width="2.35" stroke-linecap="round" stroke-linejoin="round"/>
</svg>
