<svg width="98" height="104" viewBox="0 0 98 104" fill="none" xmlns="http://www.w3.org/2000/svg">
<path d="M81.6936 68.3579L51.4731 63.9591C51.1452 63.9103 50.8283 64.0655 50.6499 64.3476L34.7528 90.51C34.2859 91.2732 33.1104 90.8497 33.2443 89.9666L37.6852 59.6768C37.7345 59.3482 37.5801 59.0309 37.2989 58.8526L11.2098 42.9648C10.449 42.4982 10.8736 41.3196 11.7547 41.4523L41.9752 45.8511C42.3031 45.8999 42.62 45.7447 42.7984 45.4626L58.6955 19.3002C59.1624 18.537 60.3379 18.9605 60.204 19.8436L55.7632 50.1334C55.7139 50.462 55.8682 50.7793 56.1495 50.9576L82.2317 66.843C82.9925 67.3095 82.5679 68.4881 81.6868 68.3554L81.6936 68.3579Z" fill="black"/>
<path d="M79.4395 62.3193L49.219 57.9206C48.8911 57.8717 48.5742 58.0269 48.3958 58.309L32.4987 84.4714C32.0318 85.2346 30.8563 84.8111 30.9902 83.928L35.431 53.6383C35.4803 53.3096 35.326 52.9923 35.0447 52.814L8.9625 36.9286C8.20168 36.4621 8.62631 35.2835 9.5074 35.4162L39.7279 39.8149C40.0558 39.8638 40.3727 39.7085 40.5511 39.4264L56.4482 13.264C56.9151 12.5009 58.0906 12.9244 57.9567 13.8075L53.5158 44.0972C53.4665 44.4258 53.6209 44.7432 53.9021 44.9215L79.9844 60.8068C80.7452 61.2734 80.3206 62.452 79.4395 62.3193Z" fill="#8F55FF" stroke="black" stroke-width="2.35" stroke-linecap="round" stroke-linejoin="round"/>
</svg>
