<svg width="261" height="255" viewBox="0 0 261 255" fill="none" xmlns="http://www.w3.org/2000/svg">
<path d="M256.729 202.627L143.021 164.602C141.788 164.185 140.462 164.546 139.587 165.485L60.9046 252.964C58.5973 255.514 54.3415 253.082 55.4434 249.844L92.6501 138.665C93.0581 137.46 92.6726 136.152 91.7054 135.28L1.5535 56.8188C-1.07344 54.5186 1.34615 50.3709 4.6584 51.4964L118.366 89.5215C119.599 89.9382 120.925 89.577 121.8 88.6387L200.483 1.1593C202.79 -1.39028 207.046 1.04149 205.944 4.27985L168.737 115.459C168.329 116.664 168.715 117.971 169.682 118.843L259.809 197.291C262.436 199.591 260.017 203.738 256.704 202.613L256.729 202.627Z" fill="black"/>
</svg>
