<svg width="144" height="152" viewBox="0 0 144 152" fill="none" xmlns="http://www.w3.org/2000/svg">
<path d="M110.069 109.496L73.6141 93.5187C73.219 93.3439 72.7706 93.4389 72.4544 93.7465L43.935 122.485C43.0992 123.323 41.764 122.372 42.2217 121.265L57.7284 83.2611C57.8981 82.8492 57.8086 82.383 57.5144 82.0552L30.0102 52.4917C29.2091 51.6254 30.1283 50.2319 31.1897 50.7035L67.6445 66.6808C68.0396 66.8556 68.488 66.7606 68.8043 66.453L97.3236 37.7141C98.1594 36.8768 99.4946 37.8275 99.037 38.9341L83.5302 76.9383C83.3606 77.3503 83.45 77.8165 83.7442 78.1443L111.241 107.702C112.042 108.569 111.123 109.962 110.061 109.49L110.069 109.496Z" fill="black"/>
<path d="M109.143 100.901L72.6899 84.9194C72.2947 84.7445 71.8464 84.8395 71.53 85.147L43.0065 113.882C42.1705 114.719 40.8354 113.768 41.2933 112.662L56.8053 74.6598C56.975 74.2479 56.8856 73.7817 56.5915 73.4538L29.0986 43.8924C28.2977 43.026 29.2171 41.6326 30.2785 42.1044L66.7315 58.0865C67.1266 58.2614 67.575 58.1664 67.8913 57.8589L96.4148 29.1241C97.2508 28.287 98.5859 29.2379 98.128 30.3443L82.616 68.3461C82.4463 68.758 82.5357 69.2242 82.8298 69.5521L110.323 99.1135C111.124 99.9799 110.204 101.373 109.143 100.901Z" fill="#FF8B13" stroke="black" stroke-width="2.35" stroke-linecap="round" stroke-linejoin="round"/>
</svg>
