<svg width="165" height="166" viewBox="0 0 165 166" fill="none" xmlns="http://www.w3.org/2000/svg">
<path d="M102.115 84.8536C101.066 84.3964 100.959 82.92 101.948 82.3795C106.455 79.9032 110.908 77.3165 115.293 74.5917C122.754 69.9069 130.072 64.9503 136.997 59.17C138.073 58.2677 137.185 56.4542 135.811 56.7489C126.992 58.6628 118.583 61.3917 110.3 64.4011C105.455 66.1869 100.668 68.1152 95.945 70.1496C94.9107 70.598 93.8093 69.6073 94.0916 68.4996C94.5823 66.5598 95.064 64.6243 95.4877 62.6602C96.7238 56.8533 97.7903 50.9924 98.3839 44.9518C98.5303 43.4769 96.6117 42.7715 95.8675 44.0366C92.8512 49.1959 90.3122 54.5213 87.9384 59.9144C87.1444 61.7514 86.3994 63.5987 85.6679 65.4509C85.2517 66.51 83.8099 66.5756 83.2514 65.5479C80.6797 60.8602 78.0104 56.2202 75.2168 51.6409C70.4132 43.8795 65.3478 36.2573 59.5058 29.0033C58.5994 27.8717 56.8332 28.7348 57.1716 30.144C59.3216 39.2022 62.2392 47.874 65.4275 56.4249C67.3247 61.4422 69.355 66.3944 71.4918 71.2946C71.9615 72.3658 71.0248 73.4625 69.9322 73.1407C68.0189 72.581 66.1013 72.0349 64.1618 71.5337C58.4414 70.0961 52.6732 68.8303 46.7433 68.0429C45.2954 67.8491 44.6623 69.7901 45.9227 70.5889C51.0625 73.8276 56.3506 76.5831 61.6999 79.1718C63.5216 80.0386 65.3519 80.8556 67.1866 81.6591C68.2356 82.1163 68.3429 83.5927 67.3537 84.1332C62.8425 86.623 58.3809 89.2141 53.9824 91.934C46.5294 96.6145 39.2206 101.567 32.2953 107.324C31.2149 108.217 32.1124 110.049 33.4815 109.745C42.283 107.817 50.6833 105.093 58.9571 102.088C63.8023 100.302 68.5886 98.3737 73.3119 96.3393C74.3463 95.8909 75.4476 96.8816 75.1654 97.9893C74.6747 99.9291 74.1975 101.874 73.7693 103.829C72.5288 109.649 71.4579 115.524 70.8734 121.583C70.727 123.057 72.6411 123.754 73.3898 122.498C76.415 117.334 78.9672 111.991 81.3454 106.584C82.135 104.761 82.8844 102.923 83.6071 101.075C84.0233 100.016 85.4651 99.9501 86.0236 100.978C88.5819 105.661 91.2467 110.291 94.0446 114.857C98.8528 122.628 103.923 130.259 109.787 137.514C110.702 138.641 112.451 137.787 112.121 136.373C109.984 127.297 107.062 118.616 103.869 110.056C101.977 105.048 99.951 100.105 97.8188 95.2137C97.349 94.1426 98.2857 93.0459 99.3783 93.3677C101.283 93.9317 103.196 94.4686 105.122 94.965C110.856 96.4074 116.637 97.678 122.585 98.4568C124.033 98.6506 124.657 96.714 123.406 95.9108C118.261 92.6629 112.955 89.8933 107.593 87.2997C105.784 86.4378 103.963 85.6164 102.133 84.8222L102.115 84.8536Z" fill="black"/>
<path d="M97.0413 84.7539C95.9923 84.2967 95.8849 82.8203 96.8741 82.2798C101.381 79.8036 105.834 77.2168 110.219 74.492C117.681 69.8072 124.998 64.8506 131.924 59.0704C132.999 58.1681 132.111 56.3546 130.737 56.6493C121.918 58.5632 113.509 61.2921 105.226 64.3014C100.381 66.0872 95.5946 68.0155 90.8713 70.0499C89.837 70.4983 88.7356 69.5076 89.0179 68.3999C89.5085 66.4601 89.9903 64.5246 90.414 62.5604C91.6501 56.7536 92.7166 50.8927 93.3102 44.8521C93.4566 43.3772 91.538 42.6718 90.7937 43.9369C87.7774 49.0962 85.2385 54.4216 82.8647 59.8146C82.0707 61.6517 81.3257 63.499 80.5941 65.3512C80.178 66.4102 78.7362 66.4759 78.1776 65.4482C75.6059 60.7605 72.9367 56.1205 70.1431 51.5412C65.3395 43.7797 60.2741 36.1575 54.4321 28.9035C53.5257 27.7719 51.7595 28.635 52.0979 30.0442C54.2479 39.1025 57.1654 47.7742 60.3538 56.3251C62.2509 61.3424 64.2812 66.2947 66.418 71.1949C66.8878 72.266 65.9511 73.3627 64.8584 73.041C62.9452 72.4813 61.0276 71.9351 59.088 71.4339C53.3677 69.9964 47.5994 68.7306 41.6696 67.9431C40.2216 67.7493 39.5885 69.6903 40.8489 70.4891C45.9887 73.7278 51.2768 76.4834 56.6261 79.072C58.4478 79.9389 60.2781 80.7559 62.1128 81.5594C63.1618 82.0166 63.2692 83.493 62.2799 84.0335C57.7687 86.5233 53.3071 89.1143 48.9086 91.8343C41.4556 96.5147 34.1468 101.467 27.2215 107.224C26.1411 108.118 27.0386 109.949 28.4077 109.646C37.2092 107.718 45.6095 104.993 53.8833 101.988C58.7285 100.202 63.5148 98.274 68.2381 96.2396C69.2725 95.7912 70.3738 96.7818 70.0916 97.8896C69.6009 99.8294 69.1237 101.774 68.6954 103.729C67.455 109.549 66.3841 115.424 65.7995 121.483C65.6531 122.958 67.5672 123.654 68.316 122.398C71.3412 117.234 73.8934 111.891 76.2715 106.485C77.0612 104.661 77.8106 102.823 78.5333 100.975C78.9495 99.916 80.3913 99.8504 80.9498 100.878C83.5081 105.561 86.1729 110.192 88.9708 114.757C93.779 122.528 98.8488 130.16 104.713 137.414C105.628 138.541 107.377 137.687 107.047 136.273C104.911 127.197 101.989 118.516 98.7956 109.956C96.903 104.948 94.8772 100.005 92.745 95.114C92.2752 94.0429 93.2119 92.9462 94.3045 93.268C96.2089 93.832 98.122 94.369 100.048 94.8653C105.782 96.3077 111.564 97.5784 117.511 98.3572C118.959 98.5509 119.583 96.6143 118.332 95.8111C113.187 92.5632 107.881 89.7936 102.519 87.2001C100.71 86.3381 98.889 85.5167 97.0589 84.7225L97.0413 84.7539Z" fill="#FCF43D" stroke="black" stroke-width="2.35" stroke-linecap="round" stroke-linejoin="round"/>
</svg>
