<svg width="162" height="178" viewBox="0 0 162 178" fill="none" xmlns="http://www.w3.org/2000/svg">
<path d="M153.514 103.609L97.3061 109.303C96.6958 109.363 96.2029 109.811 96.0189 110.438L80.1127 168.307C79.6431 169.997 77.3356 169.732 77.1517 167.967L70.5701 107.517C70.5007 106.86 70.0722 106.321 69.4832 106.11L15.1596 87.7274C13.5738 87.1852 13.7685 84.7148 15.4094 84.5574L71.617 78.863C72.2274 78.8034 72.7202 78.3556 72.9042 77.7284L88.8104 19.8594C89.28 18.1699 91.5875 18.4347 91.7714 20.1993L98.353 80.6496C98.4224 81.306 98.851 81.845 99.4399 82.0567L153.75 100.437C155.336 100.98 155.141 103.45 153.5 103.607L153.514 103.609Z" fill="black"/>
<path d="M146.522 93.1308L90.314 98.8247C89.7037 98.8843 89.2108 99.3321 89.0268 99.9593L73.1186 157.828C72.6489 159.517 70.3414 159.253 70.1575 157.488L63.578 97.0379C63.5087 96.3815 63.0801 95.8424 62.4912 95.6307L8.1813 77.2496C6.59556 76.7073 6.79033 74.237 8.43124 74.0796L64.6393 68.3857C65.2496 68.3261 65.7425 67.8784 65.9265 67.2511L81.8347 9.38247C82.3044 7.69295 84.6119 7.95784 84.7957 9.72239L91.3753 70.1726C91.4446 70.8289 91.8732 71.368 92.4621 71.5797L146.772 89.9608C148.358 90.5031 148.163 92.9734 146.522 93.1308Z" fill="#0071C6" stroke="black" stroke-width="2.35" stroke-linecap="round" stroke-linejoin="round"/>
</svg>
