<svg width="128" height="168" viewBox="0 0 128 168" fill="none" xmlns="http://www.w3.org/2000/svg">
<path d="M99.7758 99.2368C99.135 98.0939 100.067 96.6833 101.349 96.8819C107.2 97.7738 113.079 98.5282 118.992 99.1106C129.088 100.058 139.242 100.659 149.611 100.243C151.225 100.174 151.677 97.9154 150.215 97.2273C140.81 92.8289 131.212 89.4531 121.534 86.4191C115.856 84.6673 110.131 83.0852 104.39 81.643C103.131 81.3298 102.814 79.6678 103.846 78.8617C105.648 77.4474 107.439 76.031 109.197 74.5482C114.38 70.1529 119.445 65.5909 124.202 60.5376C125.365 59.3048 124.102 57.3329 122.539 57.9603C116.179 60.5322 110.141 63.5862 104.206 66.8162C102.198 67.9266 100.227 69.0804 98.2655 70.2478C97.1459 70.9169 95.7809 69.9741 95.9869 68.6559C96.9047 62.6267 97.6999 56.5728 98.3391 50.4874C99.3595 40.1254 100.043 29.7075 99.7594 19.0829C99.7196 17.429 97.5015 16.9823 96.8279 18.4927C92.4748 28.1836 89.0937 38.0583 86.0447 48.0118C84.2798 53.8705 82.6821 59.7629 81.2181 65.6821C80.9005 66.9779 79.2783 67.3192 78.5031 66.2685C77.1432 64.4322 75.7698 62.6052 74.3449 60.8035C70.1142 55.5266 65.7198 50.3719 60.8439 45.5376C59.6543 44.3558 57.7208 45.6721 58.3166 47.271C60.7595 53.7742 63.6751 59.9432 66.7632 66.0038C67.8251 68.0544 68.9296 70.0659 70.0476 72.0681C70.6884 73.211 69.7565 74.6216 68.4743 74.423C62.6097 73.5403 56.7198 72.7837 50.7977 72.1876C40.7131 71.2424 30.5708 70.6433 20.2175 71.0395C18.6058 71.0966 18.1488 73.3781 19.6135 74.0547C29.0115 78.4279 38.5981 81.8014 48.2647 84.8332C53.9437 86.585 59.6682 88.1671 65.4092 89.6093C66.6684 89.9225 66.9848 91.5845 65.9537 92.3907C64.1513 93.8049 62.3578 95.2328 60.602 96.7041C55.4061 101.109 50.3275 105.68 45.5653 110.756C44.4022 111.989 45.6678 113.949 47.229 113.333C53.5997 110.764 59.6629 107.703 65.611 104.464C67.6058 103.362 69.574 102.22 71.5245 101.05C72.6441 100.381 74.0091 101.324 73.8031 102.642C72.8764 108.658 72.0835 114.7 71.4578 120.776C70.4351 131.15 69.7492 141.579 70.0529 152.22C70.1038 153.876 72.2996 154.318 72.9844 152.81C77.3621 143.112 80.7455 133.226 83.7968 123.261C85.5594 117.414 87.1548 111.533 88.6165 105.625C88.934 104.329 90.5563 103.988 91.3315 105.039C92.6803 106.873 94.056 108.688 95.472 110.476C99.7116 115.767 104.115 120.935 109.013 125.774C110.203 126.956 112.125 125.637 111.54 124.041C109.1 117.526 106.178 111.332 103.081 105.258C102.028 103.221 100.934 101.211 99.8138 99.2206L99.7758 99.2368Z" fill="black"/>
<path d="M95.2027 95.6208C94.5619 94.478 95.4939 93.0674 96.776 93.2659C102.627 94.1579 108.506 94.9123 114.419 95.4947C124.515 96.4422 134.668 97.0435 145.037 96.6267C146.651 96.5581 147.104 94.2996 145.641 93.6115C136.237 89.2131 126.639 85.8373 116.961 82.8032C111.282 81.0514 105.558 79.4693 99.817 78.027C98.5578 77.7139 98.2413 76.0519 99.2725 75.2457C101.075 73.8315 102.866 72.415 104.624 70.9323C109.807 66.537 114.872 61.975 119.629 56.9217C120.793 55.6889 119.529 53.717 117.966 54.3444C111.606 56.9163 105.568 59.9703 99.6329 63.2003C97.6247 64.3107 95.6542 65.4644 93.6925 66.6319C92.5729 67.3009 91.2079 66.3582 91.4139 65.04C92.3318 59.0107 93.127 52.9568 93.7662 46.8714C94.7866 36.5094 95.4703 26.0916 95.1866 15.467C95.1468 13.813 92.9287 13.3664 92.2551 14.8767C87.902 24.5676 84.5208 34.4423 81.4718 44.3958C79.7069 50.2545 78.1091 56.1468 76.6451 62.0661C76.3276 63.3618 74.7054 63.7031 73.9302 62.6525C72.5702 60.8162 71.1968 58.9891 69.7719 57.1874C65.5412 51.9106 61.1469 46.7558 56.271 41.9215C55.0814 40.7397 53.1479 42.056 53.7437 43.6549C56.1865 50.1581 59.1021 56.3271 62.1902 62.3877C63.2521 64.4383 64.3566 66.4498 65.4746 68.4521C66.1154 69.5949 65.1835 71.0055 63.9013 70.8069C58.0367 69.9242 52.1468 69.1676 46.2247 68.5715C36.1401 67.6262 25.9978 67.0271 15.6445 67.4232C14.0328 67.4804 13.5758 69.7618 15.0405 70.4384C24.4384 74.8117 34.025 78.1852 43.6917 81.2171C49.3706 82.9689 55.0952 84.551 60.8361 85.9932C62.0953 86.3064 62.4118 87.9684 61.3806 88.7746C59.5782 90.1888 57.7848 91.6167 56.029 93.088C50.833 97.4925 45.7544 102.064 40.9921 107.14C39.8291 108.373 41.0946 110.333 42.6559 109.717C49.0265 107.148 55.0898 104.087 61.0379 100.847C63.0327 99.7463 65.0009 98.604 66.9514 97.4343C68.071 96.7652 69.436 97.708 69.23 99.0262C68.3033 105.042 67.5104 111.084 66.8846 117.16C65.8619 127.534 65.1759 137.963 65.4796 148.604C65.5305 150.26 67.7263 150.702 68.4111 149.194C72.7888 139.496 76.1722 129.61 79.2236 119.645C80.9862 113.798 82.5817 107.917 84.0434 102.009C84.3609 100.713 85.9831 100.372 86.7583 101.423C88.1071 103.257 89.4828 105.072 90.8988 106.86C95.1384 112.151 99.5416 117.319 104.44 122.158C105.629 123.34 107.552 122.021 106.967 120.425C104.527 113.91 101.604 107.716 98.5075 101.642C97.4544 99.6047 96.361 97.5954 95.2407 95.6046L95.2027 95.6208Z" fill="#FCF43D" stroke="black" stroke-width="2.35" stroke-linecap="round" stroke-linejoin="round"/>
</svg>
