<svg width="115" height="128" viewBox="0 0 115 128" fill="none" xmlns="http://www.w3.org/2000/svg">
<path d="M93.9711 83.8756C63.8498 78.8877 55.5913 82.9067 38.414 110.954C37.7037 112.118 36.048 111.488 36.323 110.159C43.0739 78.1451 39.7817 69.7233 14.1357 53.5062C13.0715 52.8359 13.7821 51.0527 15.0332 51.2542C45.1544 56.2422 53.413 52.2231 70.5903 24.1759C71.3006 23.0122 72.9562 23.642 72.6812 24.9713C65.9303 56.9847 69.2226 65.4065 94.8686 81.6236C95.9328 82.294 95.2221 84.0771 93.9711 83.8756Z" fill="black"/>
<path d="M90.1749 77.0187C60.0866 72.108 51.8217 76.1488 34.5746 104.244C33.8614 105.409 32.2086 104.784 32.4872 103.454C39.3257 71.419 36.0597 63.0047 10.4761 46.8519C9.41448 46.1842 10.1298 44.399 11.3795 44.5974C41.4677 49.5081 49.7327 45.4672 66.9798 17.3723C67.693 16.2066 69.3458 16.8322 69.0672 18.1624C62.2287 50.1971 65.4947 58.6114 91.0783 74.7641C92.1399 75.4318 91.4246 77.217 90.1749 77.0187Z" fill="#0071C6"/>
<path d="M90.1749 77.0187C60.0866 72.108 51.8217 76.1488 34.5746 104.244C33.8614 105.409 32.2086 104.784 32.4872 103.454C39.3257 71.419 36.0597 63.0047 10.4761 46.8519C9.41448 46.1842 10.1298 44.399 11.3795 44.5974C41.4677 49.5081 49.7327 45.4672 66.9798 17.3723C67.693 16.2066 69.3458 16.8322 69.0672 18.1624C62.2286 50.1971 65.4947 58.6114 91.0783 74.7641C92.1399 75.4318 91.4246 77.217 90.1749 77.0187V77.0187Z" stroke="black" stroke-width="2.35" stroke-linecap="round" stroke-linejoin="round"/>
</svg>
