<svg width="290" height="375" viewBox="0 0 290 375" fill="none" xmlns="http://www.w3.org/2000/svg">
<path d="M332.87 157.874C331.178 151.344 237.14 173.047 237.14 173.047L205.248 180.408L213.619 165.825C213.619 165.825 245.995 109.425 240.366 105.831C234.736 102.237 202.36 158.638 202.36 158.638L193.989 173.22L185.388 140.008C185.388 140.008 160.024 42.077 153.753 43.5242C147.483 44.9714 172.846 142.903 172.846 142.903L181.448 176.115L166.894 166.823C166.894 166.823 110.603 130.886 107.365 136.526C104.128 142.166 160.419 178.103 160.419 178.103L174.973 187.395L143.081 194.755C143.081 194.755 49.0422 216.459 50.7334 222.989C52.4247 229.519 146.463 207.816 146.463 207.816L178.356 200.455L169.984 215.038C169.984 215.038 137.609 271.438 143.238 275.032C148.867 278.625 181.243 222.225 181.243 222.225L189.614 207.642L198.216 240.855C198.216 240.855 223.579 338.786 229.85 337.339C236.121 335.892 210.757 237.96 210.757 237.96L202.155 204.748L216.709 214.04C216.709 214.04 273 249.977 276.238 244.337C279.475 238.697 223.185 202.76 223.185 202.76L208.63 193.468L240.522 186.108C240.522 186.108 334.561 164.404 332.87 157.874Z" fill="black"/>
<path d="M320.825 152.533C319.136 146.002 225.089 167.67 225.089 167.67L193.193 175.018L201.57 160.439C201.57 160.439 233.967 104.051 228.339 100.456C222.711 96.8598 190.314 153.247 190.314 153.247L181.938 167.826L173.348 134.611C173.348 134.611 148.019 36.6718 141.748 38.1165C135.477 39.5613 160.805 137.501 160.805 137.501L169.395 170.716L154.844 161.419C154.844 161.419 98.5655 125.461 95.3258 131.1C92.0861 136.739 148.365 172.696 148.365 172.696L162.916 181.993L131.021 189.342C131.021 189.342 36.9728 211.009 38.6617 217.54C40.3507 224.07 134.399 202.403 134.399 202.403L166.294 195.055L157.917 209.634C157.917 209.634 125.52 266.021 131.148 269.617C136.776 273.213 169.173 216.826 169.173 216.826L177.549 202.246L186.139 235.461C186.139 235.461 211.468 333.401 217.739 331.956C224.01 330.511 198.682 232.572 198.682 232.572L190.092 199.357L204.643 208.654C204.643 208.654 260.921 244.612 264.161 238.973C267.401 233.334 211.122 197.376 211.122 197.376L196.571 188.079L228.466 180.731C228.466 180.731 322.514 159.064 320.825 152.533Z" fill="#0071C6" stroke="black" stroke-width="2.35" stroke-linecap="round" stroke-linejoin="round"/>
</svg>
