<svg width="142" height="150" viewBox="0 0 142 150" fill="none" xmlns="http://www.w3.org/2000/svg">
<path d="M134.294 87.4213L85.2892 91.9912C84.7571 92.039 84.3284 92.4129 84.1696 92.9387L70.4533 141.446C70.0483 142.862 68.0352 142.632 67.8701 141.15L61.9674 90.3923C61.9052 89.8412 61.5299 89.3872 61.0157 89.2073L13.5896 73.5778C12.2052 73.1169 12.3683 71.0443 13.799 70.9183L62.8033 66.3484C63.3355 66.3006 63.7641 65.9267 63.9229 65.4009L77.6392 16.8933C78.0442 15.4771 80.0573 15.708 80.2225 17.1896L86.1251 67.9473C86.1874 68.4984 86.5626 68.9524 87.0768 69.1323L134.491 84.7604C135.876 85.2214 135.713 87.2939 134.282 87.42L134.294 87.4213Z" fill="black"/>
<path d="M128.161 78.6125L79.1556 83.1771C78.6234 83.2248 78.1948 83.5987 78.0359 84.1244L64.3134 132.63C63.9082 134.046 61.8951 133.815 61.7301 132.334L55.8339 81.5757C55.7717 81.0246 55.3965 80.5705 54.8823 80.3906L7.46957 64.7574C6.0852 64.2963 6.2486 62.2238 7.67925 62.0979L56.6845 57.5333C57.2166 57.4856 57.6453 57.1118 57.8042 56.586L71.5267 8.0802C71.9319 6.66405 73.945 6.89515 74.11 8.37675L80.0062 59.1348C80.0684 59.6859 80.4435 60.1399 80.9577 60.3199L128.37 75.9531C129.755 76.4142 129.591 78.4867 128.161 78.6125Z" fill="#8F55FF" stroke="black" stroke-width="2.35" stroke-linecap="round" stroke-linejoin="round"/>
</svg>
