<svg width="126" height="160" viewBox="0 0 126 160" fill="none" xmlns="http://www.w3.org/2000/svg">
<path d="M127.179 53.7126C100.903 79.1511 98.7998 89.7441 113.069 125.001C113.663 126.462 111.882 127.621 110.82 126.465C85.3342 98.5093 75.0033 95.9989 41.2957 109.617C39.8994 110.184 38.7194 108.307 39.8054 107.247C66.0814 81.8084 68.1848 71.2155 53.9157 35.9583C53.322 34.4978 55.1031 33.3384 56.1651 34.4941C81.6504 62.4502 91.9813 64.9606 125.689 51.3421C127.085 50.7752 128.265 52.6522 127.179 53.7126Z" fill="black"/>
<path d="M117.971 52.7362C91.7913 78.1951 89.704 88.8088 103.968 124.165C104.562 125.629 102.787 126.789 101.727 125.629C76.2838 97.5749 65.9788 95.0445 32.3768 108.647C30.9849 109.213 29.8062 107.33 30.8882 106.269C57.0675 80.8098 59.1548 70.1961 44.8904 34.8402C44.2969 33.3756 46.072 32.2161 47.1322 33.3759C72.575 61.43 82.88 63.9604 116.482 50.3583C117.874 49.7921 119.053 51.6749 117.971 52.7362Z" fill="#FF8B13"/>
<path d="M117.971 52.7362C91.7913 78.1951 89.704 88.8088 103.968 124.165C104.562 125.629 102.787 126.789 101.727 125.629C76.2838 97.5749 65.9788 95.0445 32.3768 108.647C30.9849 109.213 29.8062 107.33 30.8882 106.269C57.0675 80.8098 59.1548 70.1961 44.8904 34.8402C44.2969 33.3756 46.072 32.2161 47.1322 33.3759C72.575 61.43 82.88 63.9604 116.482 50.3583C117.874 49.7921 119.053 51.6749 117.971 52.7362V52.7362Z" stroke="black" stroke-width="2.35" stroke-linecap="round" stroke-linejoin="round"/>
</svg>
