<svg width="220" height="264" viewBox="0 0 220 264" fill="none" xmlns="http://www.w3.org/2000/svg">
<path d="M249.181 104.626C247.861 100.302 177.87 119.657 177.87 119.657L154.133 126.22L160.25 115.957C160.25 115.957 183.91 76.2616 179.677 74.1169C175.444 71.9722 151.784 111.667 151.784 111.667L145.666 121.931L138.95 99.9391C138.95 99.9391 119.146 35.093 114.479 36.3836C109.812 37.6741 129.616 102.52 129.616 102.52L136.332 124.512L125.387 118.967C125.387 118.967 83.0539 97.5201 80.6879 101.49C78.322 105.459 120.655 126.906 120.655 126.906L131.6 132.451L107.864 139.015C107.864 139.015 37.8728 158.369 39.1933 162.693C40.5139 167.017 110.505 147.663 110.505 147.663L134.241 141.099L128.124 151.363C128.124 151.363 104.464 191.058 108.697 193.202C112.931 195.347 136.591 155.652 136.591 155.652L142.708 145.388L149.424 167.38C149.424 167.38 169.229 232.226 173.896 230.936C178.563 229.645 158.758 164.799 158.758 164.799L152.042 142.807L162.988 148.352C162.988 148.352 205.32 169.799 207.686 165.83C210.052 161.86 167.72 140.413 167.72 140.413L156.774 134.868L180.511 128.305C180.511 128.305 250.502 108.95 249.181 104.626Z" fill="black"/>
<path d="M240.151 101.581C238.832 97.2572 168.837 116.6 168.837 116.6L145.1 123.159L151.219 112.897C151.219 112.897 174.888 73.2052 170.655 71.0598C166.422 68.9144 142.754 108.606 142.754 108.606L136.634 118.869L129.923 96.8754C129.923 96.8754 110.133 32.0252 105.465 33.3149C100.798 34.6047 120.588 99.4549 120.588 99.4549L127.299 121.448L116.355 115.901C116.355 115.901 74.0276 94.4468 71.6607 98.416C69.2939 102.385 111.622 123.839 111.622 123.839L122.566 129.386L98.828 135.946C98.828 135.946 28.8336 155.288 30.1532 159.613C31.4728 163.937 101.467 144.595 101.467 144.595L125.205 138.035L119.085 148.297C119.085 148.297 95.417 187.989 99.6498 190.134C103.883 192.28 127.551 152.588 127.551 152.588L133.671 142.326L140.382 164.319C140.382 164.319 160.172 229.169 164.839 227.879C169.506 226.59 149.717 161.739 149.717 161.739L143.005 139.746L153.949 145.293C153.949 145.293 196.277 166.747 198.644 162.778C201.011 158.809 158.683 137.355 158.683 137.355L147.739 131.808L171.477 125.248C171.477 125.248 241.471 105.906 240.151 101.581Z" fill="#FF8B13" stroke="black" stroke-width="2.35" stroke-linecap="round" stroke-linejoin="round"/>
</svg>
