<svg width="149" height="196" viewBox="0 0 149 196" fill="none" xmlns="http://www.w3.org/2000/svg">
<path d="M141.96 141.627L96.8954 120.899C96.4071 120.672 95.8347 120.791 95.4161 121.184L57.6042 157.884C56.4963 158.953 54.8684 157.725 55.5152 156.308L77.4622 107.638C77.7021 107.11 77.618 106.511 77.2666 106.089L44.3523 67.9829C43.394 66.8662 44.6417 65.0838 45.9533 65.6956L91.0178 86.424C91.5061 86.6508 92.0785 86.5316 92.4971 86.1389L130.309 49.4392C131.417 48.37 133.045 49.5983 132.398 51.0153L110.451 99.685C110.211 100.213 110.295 100.811 110.647 101.234L143.552 139.333C144.51 140.449 143.262 142.232 141.95 141.62L141.96 141.627Z" fill="black"/>
<path d="M141.338 130.585L96.2731 109.856C95.7848 109.629 95.2124 109.749 94.7938 110.141L56.9805 146.84C55.8725 147.909 54.2446 146.681 54.8915 145.264L76.84 96.595C77.0799 96.0675 76.9958 95.4687 76.6444 95.0462L43.74 56.947C42.7818 55.8304 44.0295 54.048 45.3412 54.6598L90.4057 75.3888C90.894 75.6156 91.4664 75.4964 91.885 75.1038L129.698 38.4052C130.806 37.3361 132.434 38.5643 131.787 39.9813L109.839 88.65C109.599 89.1775 109.683 89.7763 110.034 90.1988L142.939 128.298C143.897 129.415 142.649 131.197 141.338 130.585Z" fill="#FCF43D" stroke="black" stroke-width="2.35" stroke-linecap="round" stroke-linejoin="round"/>
</svg>
