<svg width="120" height="118" viewBox="0 0 120 118" fill="none" xmlns="http://www.w3.org/2000/svg">
<path d="M94.3683 38.2947L74.1172 61.2526C73.8965 61.501 73.8652 61.8603 74.0228 62.1771L88.9895 91.0112C89.4244 91.855 88.4096 92.5995 87.6873 91.9666L62.8306 70.388C62.5615 70.1529 62.1928 70.0967 61.8808 70.2295L33.5206 82.934C32.6907 83.3026 31.8593 82.25 32.4537 81.5833L52.7049 58.6254C52.9256 58.377 52.9568 58.0177 52.7992 57.7009L37.8325 28.8667C37.3976 28.0229 38.4124 27.2784 39.1348 27.9113L63.9915 49.49C64.2605 49.725 64.6292 49.7813 64.9413 49.6484L93.2955 36.9483C94.1255 36.5797 94.9569 37.6322 94.3625 38.299L94.3683 38.2947Z" fill="black"/>
<path d="M87.7338 36.7088L67.4822 59.6666C67.2615 59.915 67.2303 60.2743 67.3879 60.5911L82.3535 89.4259C82.7884 90.2697 81.7736 91.0142 81.0513 90.3812L56.1955 68.8019C55.9265 68.5668 55.5578 68.5106 55.2457 68.6434L26.8915 81.3431C26.0615 81.7117 25.2301 80.6591 25.8246 79.9924L46.0761 57.0346C46.2969 56.7862 46.3281 56.4269 46.1705 56.1101L31.2048 27.2753C30.77 26.4315 31.7848 25.687 32.5071 26.3199L57.3629 47.8993C57.6319 48.1344 58.0006 48.1906 58.3127 48.0578L86.6669 35.3581C87.4969 34.9895 88.3283 36.0421 87.7338 36.7088Z" fill="#0071C6" stroke="black" stroke-width="2.35" stroke-linecap="round" stroke-linejoin="round"/>
</svg>
