<svg width="132" height="149" viewBox="0 0 132 149" fill="none" xmlns="http://www.w3.org/2000/svg">
<path d="M118.358 87.4302C82.2037 89.8321 73.4786 97.4137 59.6722 138.486C59.1021 140.189 57.0364 139.864 57.0633 138.076C57.8612 94.9562 52.1727 85.0955 18.7504 71.7562C17.3641 71.206 17.798 68.7063 19.2984 68.5993C55.4529 66.1974 64.178 58.6158 77.9844 17.5434C78.5545 15.84 80.6202 16.1651 80.5933 17.9539C79.7954 61.0733 85.4839 70.934 118.906 84.2733C120.292 84.8235 119.859 87.3232 118.358 87.4302Z" fill="black"/>
<path d="M112.426 79.73C76.3271 82.2216 67.5994 89.833 53.7223 130.987C53.1493 132.694 51.0878 132.373 51.1188 130.582C52.0139 87.4101 46.3576 77.5514 13.0222 64.2765C11.6394 63.7289 12.0783 61.2253 13.5764 61.1146C49.6755 58.623 58.4032 51.0116 72.2803 9.85742C72.8534 8.15063 74.9148 8.47111 74.8838 10.2622C73.9887 53.4345 79.645 63.2932 112.98 76.5681C114.363 77.1156 113.924 79.6193 112.426 79.73Z" fill="#8F55FF"/>
<path d="M112.426 79.73C76.3271 82.2216 67.5994 89.833 53.7223 130.987C53.1493 132.694 51.0878 132.373 51.1188 130.582C52.0139 87.4101 46.3576 77.5514 13.0222 64.2765C11.6394 63.7289 12.0783 61.2253 13.5764 61.1146C49.6755 58.623 58.4032 51.0116 72.2803 9.85742C72.8534 8.15063 74.9148 8.47111 74.8838 10.2622C73.9887 53.4345 79.645 63.2932 112.98 76.5681C114.363 77.1156 113.924 79.6193 112.426 79.73V79.73Z" stroke="black" stroke-width="2.35" stroke-linecap="round" stroke-linejoin="round"/>
</svg>
