<svg width="171" height="199" viewBox="0 0 171 199" fill="none" xmlns="http://www.w3.org/2000/svg">
<path d="M124.386 107.665C123.154 106.758 123.465 104.809 124.924 104.402C131.577 102.529 138.193 100.497 144.762 98.2657C155.956 94.4061 167.044 90.1503 177.871 84.7079C179.554 83.8568 178.946 81.2367 177.059 81.21C164.937 81.0664 153.102 82.1035 141.347 83.5426C134.463 84.4174 127.612 85.4948 120.811 86.7288C119.321 87.0028 118.183 85.3879 118.891 84.0333C120.126 81.6604 121.348 79.2903 122.503 76.8658C125.895 69.6928 129.083 62.3991 131.706 54.7311C132.349 52.8592 130.055 51.3711 128.694 52.7922C123.171 58.5935 118.221 64.7528 113.467 71.0492C111.866 73.1982 110.327 75.3753 108.804 77.5627C107.935 78.814 106.029 78.4695 105.613 76.9682C103.682 70.1135 101.609 63.2917 99.355 56.5117C95.4445 44.9997 91.1489 33.5905 85.7248 22.4279C84.8851 20.6881 82.3108 21.2825 82.3226 23.2135C82.3652 35.6186 83.5301 47.7506 85.0863 59.8063C86.0338 66.888 87.1754 73.9248 88.4723 80.9259C88.7593 82.457 87.1986 83.6021 85.8676 82.8584C83.536 81.5612 81.1945 80.2802 78.8105 79.0511C71.767 75.4788 64.6083 72.1152 57.092 69.3247C55.2571 68.6414 53.8354 70.9734 55.2399 72.3867C60.9732 78.1251 67.0482 83.2802 73.2544 88.2369C75.3724 89.9058 77.5168 91.5125 79.6712 93.1029C80.9036 94.0094 80.5926 95.9589 79.1333 96.3659C72.4706 98.2546 65.8418 100.29 59.2563 102.511C48.0755 106.367 37.0001 110.62 26.1803 116.033C24.4938 116.871 25.1077 119.518 26.9916 119.531C39.0949 119.651 50.9168 118.617 62.6591 117.181C69.5433 116.306 76.3942 115.228 83.1951 113.994C84.6852 113.72 85.8231 115.335 85.1151 116.69C83.8801 119.063 82.6611 121.446 81.5032 123.858C78.1007 131.047 74.9035 138.357 72.2861 146.051C71.6436 147.923 73.9346 149.398 75.2981 147.99C80.8344 142.186 85.807 136.007 90.5712 129.695C92.1618 127.562 93.7042 125.398 95.2147 123.214C96.0829 121.962 97.9891 122.307 98.4055 123.808C100.32 130.653 102.39 137.461 104.654 144.225C108.568 155.75 112.866 167.173 118.319 178.343C119.172 180.079 121.72 179.491 121.722 177.557C121.702 165.133 120.534 152.987 118.975 140.918C118.03 133.85 116.892 126.826 115.598 119.839C115.311 118.308 116.871 117.162 118.202 117.906C120.521 119.206 122.86 120.474 125.228 121.693C132.287 125.275 139.462 128.649 147.004 131.434C148.839 132.117 150.248 129.788 148.856 128.372C143.12 122.62 137.026 117.441 130.803 112.474C128.701 110.816 126.57 109.206 124.419 107.629L124.386 107.665Z" fill="black"/>
<path d="M117.779 106.024C116.546 105.117 116.857 103.168 118.317 102.761C124.97 100.889 131.585 98.8566 138.155 96.6251C149.349 92.7655 160.437 88.5098 171.264 83.0675C172.947 82.2164 172.339 79.5962 170.452 79.5695C158.33 79.4259 146.495 80.4629 134.74 81.9019C127.856 82.7768 121.005 83.8542 114.204 85.0881C112.714 85.3621 111.576 83.7472 112.284 82.3926C113.519 80.0196 114.741 77.6496 115.896 75.2251C119.288 68.0521 122.476 60.7584 125.099 53.0904C125.742 51.2185 123.448 49.7304 122.087 51.1515C116.564 56.9528 111.614 63.1121 106.86 69.4084C105.259 71.5575 103.72 73.7346 102.197 75.9219C101.328 77.1733 99.4221 76.8287 99.0058 75.3275C97.0751 68.4728 95.0021 61.651 92.748 54.871C88.8375 43.3589 84.542 31.9497 79.1179 20.7871C78.2783 19.0473 75.7039 19.6417 75.7157 21.5727C75.7582 33.9778 76.9232 46.1098 78.4793 58.1655C79.4268 65.2471 80.5684 72.284 81.8652 79.285C82.1522 80.8162 80.5915 81.9612 79.2605 81.2176C76.9289 79.9203 74.5874 78.6394 72.2034 77.4102C65.1599 73.8379 58.0013 70.4743 50.4849 67.6838C48.6501 67.0004 47.2284 69.3325 48.6329 70.7457C54.3661 76.4842 60.4411 81.6393 66.6472 86.5961C68.7652 88.2649 70.9097 89.8717 73.064 91.4621C74.2965 92.3686 73.9854 94.3181 72.5261 94.7251C65.8634 96.6137 59.2347 98.6487 52.6491 100.87C41.4683 104.726 30.3929 108.979 19.573 114.392C17.8866 115.23 18.5005 117.876 20.3844 117.89C32.4876 118.01 44.3096 116.976 56.0518 115.54C62.9361 114.665 69.7869 113.588 76.5878 112.354C78.078 112.08 79.2158 113.695 78.5078 115.049C77.2728 117.422 76.0539 119.805 74.8959 122.217C71.4934 129.406 68.2962 136.716 65.6787 144.411C65.0362 146.282 67.3273 147.757 68.6907 146.349C74.2271 140.545 79.1997 134.367 83.964 128.054C85.5545 125.921 87.097 123.757 88.6074 121.573C89.4756 120.322 91.3819 120.666 91.7982 122.168C93.7129 129.012 95.7828 135.82 98.0467 142.584C101.96 154.109 106.259 165.532 111.712 176.702C112.565 178.439 115.113 177.85 115.114 175.916C115.094 163.492 113.926 151.347 112.367 139.278C111.423 132.209 110.284 125.186 108.991 118.198C108.704 116.667 110.264 115.522 111.595 116.265C113.914 117.566 116.252 118.833 118.62 120.052C125.68 123.635 132.854 127.009 140.397 129.793C142.232 130.477 143.64 128.148 142.249 126.731C136.512 120.98 130.418 115.801 124.196 110.834C122.094 109.175 119.963 107.565 117.811 105.988L117.779 106.024Z" fill="#0071C6" stroke="black" stroke-width="2.35" stroke-linecap="round" stroke-linejoin="round"/>
</svg>
