<svg width="156" height="200" viewBox="0 0 156 200" fill="none" xmlns="http://www.w3.org/2000/svg">
<path d="M198.411 102.694C198.296 98.4432 135.304 98.4698 135.304 98.4698L113.941 98.4788L121.41 90.7059C121.41 90.7059 150.294 60.6434 147.243 57.6396C144.193 54.6359 115.308 84.6984 115.308 84.6984L107.84 92.4713L107.256 70.8543C107.256 70.8543 105.533 7.11305 101.333 7.11482C97.1324 7.11659 98.8549 70.8578 98.8549 70.8578L99.439 92.4749L91.5508 84.7084C91.5508 84.7084 61.0422 54.6709 58.1538 57.6772C55.2653 60.6834 85.7739 90.7209 85.7739 90.7209L93.6621 98.4874L72.2994 98.4964C72.2994 98.4964 9.30789 98.5229 9.42274 102.773C9.5376 107.024 72.5291 106.997 72.5291 106.997L93.8918 106.988L86.4235 114.761C86.4235 114.761 57.539 144.823 60.5899 147.827C63.6407 150.831 92.5252 120.768 92.5252 120.768L99.9936 112.995L100.578 134.613C100.578 134.613 102.3 198.354 106.501 198.352C110.701 198.35 108.978 134.609 108.978 134.609L108.394 112.992L116.282 120.758C116.282 120.758 146.791 150.796 149.68 147.79C152.568 144.783 122.059 114.746 122.059 114.746L114.171 106.979L135.534 106.97C135.534 106.97 198.525 106.944 198.411 102.694Z" fill="black"/>
<path d="M191.555 97.668C191.441 93.4176 128.449 93.4344 128.449 93.4344L107.087 93.4401L114.556 85.6684C114.556 85.6684 143.446 55.6104 140.396 52.6062C137.346 49.602 108.456 79.6599 108.456 79.6599L100.986 87.4317L100.406 65.8146C100.406 65.8146 98.6945 2.07333 94.4942 2.07445C90.2939 2.07557 92.0049 65.8168 92.0049 65.8168L92.5852 87.4339L84.6983 79.6663C84.6983 79.6663 54.195 49.6241 51.306 52.6299C48.417 55.6357 78.9204 85.6779 78.9204 85.6779L86.8072 93.4455L65.4444 93.4512C65.4444 93.4512 2.4527 93.468 2.5668 97.7183C2.68089 101.969 65.6726 101.952 65.6726 101.952L87.0354 101.946L79.5657 109.718C79.5657 109.718 50.6757 139.776 53.726 142.78C56.7764 145.784 85.6663 115.726 85.6663 115.726L93.1361 107.955L93.7164 129.572C93.7164 129.572 95.4275 193.313 99.6278 193.312C103.828 193.311 102.117 129.569 102.117 129.569L101.537 107.952L109.424 115.72C109.424 115.72 139.927 145.762 142.816 142.756C145.705 139.751 115.202 109.708 115.202 109.708L107.315 101.941L128.678 101.935C128.678 101.935 191.669 101.918 191.555 97.668Z" fill="#8F55FF" stroke="black" stroke-width="2.35" stroke-linecap="round" stroke-linejoin="round"/>
</svg>
