<svg width="143" height="195" viewBox="0 0 143 195" fill="none" xmlns="http://www.w3.org/2000/svg">
<path d="M72.0155 106.315C70.8147 105.376 71.1672 103.437 72.6227 103.069C79.2585 101.374 85.8613 99.5184 92.4228 97.4625C103.604 93.9021 114.69 89.9431 125.543 84.7914C127.231 83.9855 126.688 81.3512 124.819 81.2746C112.808 80.81 101.055 81.5329 89.3726 82.6597C82.5301 83.3516 75.716 84.2468 68.9479 85.2997C67.4649 85.5341 66.3739 83.8902 67.1063 82.5554C68.3842 80.2168 69.6491 77.8809 70.8487 75.4887C74.3739 68.4108 77.6984 61.2068 80.4727 53.6139C81.152 51.7604 78.9122 50.2126 77.5317 51.5966C71.9259 57.2475 66.8805 63.2712 62.0256 69.437C60.3908 71.5422 58.8157 73.6769 57.2563 75.8223C56.3674 77.0498 54.4861 76.655 54.1075 75.1438C52.3498 68.243 50.4502 61.3713 48.3703 54.5365C44.7562 42.9293 40.7582 31.4147 35.6362 20.1166C34.8435 18.3558 32.2787 18.8816 32.2465 20.8115C32.007 33.2087 32.8859 45.3627 34.1543 57.4508C34.9326 64.5524 35.9041 71.6144 37.0304 78.6446C37.28 80.1823 35.7073 81.2851 34.4051 80.5068C32.1238 79.1488 29.8323 77.8067 27.4976 76.5154C20.5982 72.7591 13.58 69.2085 6.19428 66.2209C4.39133 65.4895 2.92942 67.7822 4.28926 69.2316C9.84092 75.1177 15.7445 80.4299 21.7825 85.5474C23.8437 87.2711 25.9325 88.9335 28.0314 90.5798C29.2323 91.5182 28.8797 93.4581 27.4242 93.8261C20.7782 95.537 14.1626 97.3949 7.58547 99.4401C-3.58294 102.998 -14.6558 106.954 -25.5018 112.077C-27.1922 112.869 -26.6439 115.53 -24.7771 115.593C-12.7849 116.034 -1.04525 115.314 10.6246 114.19C17.4671 113.498 24.2812 112.602 31.0493 111.549C32.5324 111.315 33.6233 112.959 32.8909 114.294C31.6131 116.632 30.3509 118.982 29.1485 121.36C25.6132 128.454 22.2785 135.674 19.5098 143.294C18.8305 145.148 21.0676 146.682 22.4508 145.311C28.0695 139.658 33.1379 133.615 38.0029 127.434C39.6276 125.344 41.2054 123.223 42.752 121.08C43.6408 119.853 45.5222 120.248 45.9008 121.759C47.6429 128.649 49.5396 135.507 51.6297 142.326C55.2466 153.947 59.2473 165.475 64.3979 176.781C65.2034 178.539 67.7425 178.018 67.7875 176.086C68.0501 163.67 67.1684 151.503 65.8972 139.401C65.1217 132.313 64.1529 125.264 63.0294 118.247C62.7798 116.71 64.3525 115.607 65.6547 116.385C67.9231 117.746 70.2118 119.075 72.5309 120.355C79.4459 124.122 86.4798 127.684 93.8913 130.666C95.6942 131.397 97.1433 129.107 95.7963 127.655C90.2419 121.756 84.3199 116.419 78.2663 111.291C76.2207 109.578 74.1448 107.913 72.0487 106.28L72.0155 106.315Z" fill="black"/>
<path d="M65.5056 104.5C64.3048 103.561 64.6573 101.622 66.1128 101.254C72.7487 99.5588 79.3515 97.7035 85.9129 95.6476C97.0942 92.0872 108.18 88.1282 119.033 82.9765C120.721 82.1706 120.178 79.5363 118.309 79.4597C106.298 78.9951 94.5455 79.718 82.8628 80.8447C76.0203 81.5366 69.2062 82.4318 62.4381 83.4848C60.955 83.7191 59.8641 82.0752 60.5965 80.7404C61.8743 78.4019 63.1393 76.0659 64.3389 73.6737C67.8641 66.5958 71.1886 59.3918 73.9629 51.7989C74.6422 49.9454 72.4024 48.3976 71.0219 49.7816C65.4161 55.4325 60.3707 61.4562 55.5158 67.622C53.8809 69.7272 52.3059 71.8619 50.7464 74.0073C49.8576 75.2348 47.9762 74.84 47.5977 73.3288C45.8399 66.428 43.9404 59.5562 41.8605 52.7215C38.2464 41.1143 34.2484 29.5997 29.1264 18.3016C28.3337 16.5408 25.7689 17.0665 25.7368 18.9964C25.4972 31.3937 26.3762 43.5476 27.6445 55.6358C28.4228 62.7374 29.3943 69.7993 30.5205 76.8296C30.7702 78.3672 29.1974 79.4701 27.8953 78.6918C25.6139 77.3337 23.3225 75.9917 20.9877 74.7003C14.0884 70.9441 7.0702 67.3934 -0.315536 64.4058C-2.11848 63.6744 -3.58041 65.9671 -2.22056 67.4165C3.33109 73.3026 9.23464 78.6149 15.2727 83.7323C17.3338 85.4561 19.4226 87.1184 21.5216 88.7647C22.7224 89.7032 22.3699 91.643 20.9144 92.0111C14.2684 93.7219 7.6527 95.5799 1.07559 97.625C-10.0928 101.183 -21.1657 105.139 -32.0117 110.261C-33.7021 111.054 -33.1538 113.715 -31.2871 113.778C-19.2948 114.219 -7.55515 113.498 4.11473 112.374C10.9572 111.682 17.7713 110.787 24.5394 109.734C26.0225 109.5 27.1134 111.144 26.381 112.479C25.1032 114.817 23.841 117.167 22.6386 119.545C19.1033 126.639 15.7686 133.859 12.9998 141.479C12.3206 143.332 14.5576 144.867 15.9409 143.496C21.5595 137.843 26.6279 131.8 31.493 125.619C33.1177 123.529 34.6955 121.408 36.2421 119.265C37.1309 118.038 39.0123 118.433 39.3908 119.944C41.1329 126.834 43.0297 133.692 45.1198 140.511C48.7366 152.132 52.7373 163.66 57.8879 174.966C58.6934 176.724 61.2325 176.203 61.2775 174.271C61.5401 161.855 60.6584 149.688 59.3872 137.586C58.6118 130.498 57.643 123.449 56.5195 116.432C56.2699 114.895 57.8426 113.792 59.1448 114.57C61.4132 115.931 63.7019 117.26 66.021 118.54C72.936 122.307 79.9699 125.869 87.3814 128.851C89.1843 129.582 90.6334 127.292 89.2864 125.84C83.732 119.941 77.81 114.604 71.7564 109.476C69.7109 107.763 67.6349 106.098 65.5388 104.465L65.5056 104.5Z" fill="#0071C6" stroke="black" stroke-width="2.35" stroke-linecap="round" stroke-linejoin="round"/>
</svg>
