<svg width="99" height="101" viewBox="0 0 99 101" fill="none" xmlns="http://www.w3.org/2000/svg">
<path d="M74.7652 74.0341L51.225 62.3036C50.9698 62.1754 50.6719 62.2226 50.4548 62.4138L30.8515 80.315C30.2771 80.8363 29.4254 80.1667 29.7586 79.4557L41.0618 55.0282C41.1853 54.7635 41.1399 54.4544 40.9556 54.2291L23.6992 33.8819C23.1968 33.2859 23.8421 32.4021 24.5273 32.7479L48.0675 44.4783C48.3226 44.6065 48.6205 44.5593 48.8376 44.3681L68.441 26.4669C69.0154 25.9456 69.8671 26.6152 69.5339 27.3262L58.2307 51.7537C58.1071 52.0184 58.1526 52.3276 58.3368 52.5528L75.5883 72.8961C76.0908 73.4922 75.4455 74.3759 74.7603 74.0302L74.7652 74.0341Z" fill="black"/>
<path d="M74.4154 68.3516L50.8739 56.6231C50.6188 56.4949 50.3208 56.5421 50.1037 56.7333L30.5004 74.6351C29.926 75.1565 29.0743 74.4869 29.4074 73.7759L40.7101 49.3486C40.8336 49.0839 40.7881 48.7747 40.6039 48.5495L23.351 28.208C22.8485 27.6119 23.4938 26.7282 24.179 27.0739L47.7205 38.8024C47.9757 38.9306 48.2736 38.8834 48.4907 38.6922L68.094 20.7904C68.6684 20.269 69.5202 20.9386 69.187 21.6496L57.8843 46.0769C57.7608 46.3417 57.8063 46.6508 57.9905 46.8761L75.2434 67.2176C75.7459 67.8136 75.1006 68.6974 74.4154 68.3516Z" fill="#0071C6" stroke="black" stroke-width="2" stroke-linecap="round" stroke-linejoin="round"/>
</svg>
