<svg width="459" height="459" viewBox="0 0 459 459" fill="none" xmlns="http://www.w3.org/2000/svg">
<rect width="459" height="459" fill="#D9D9D9"/>
<path d="M142.64 224.1L144.14 226.8L135.86 231.3L144.14 235.74L142.64 238.53L132.83 232.95V229.68L142.64 224.1ZM166.113 238.71H170.013V246H166.113V238.71ZM168.063 240.39C165.483 240.39 163.273 239.99 161.433 239.19C159.613 238.37 158.213 237.21 157.233 235.71C156.273 234.21 155.793 232.41 155.793 230.31C155.793 228.19 156.273 226.38 157.233 224.88C158.213 223.38 159.613 222.23 161.433 221.43C163.273 220.61 165.483 220.2 168.063 220.2C170.663 220.2 172.873 220.61 174.693 221.43C176.513 222.23 177.903 223.38 178.863 224.88C179.843 226.38 180.333 228.19 180.333 230.31C180.333 232.41 179.843 234.21 178.863 235.71C177.903 237.21 176.513 238.37 174.693 239.19C172.873 239.99 170.663 240.39 168.063 240.39ZM168.063 236.94C169.663 236.94 171.063 236.7 172.263 236.22C173.483 235.74 174.433 235.01 175.113 234.03C175.813 233.05 176.163 231.81 176.163 230.31C176.163 228.81 175.813 227.57 175.113 226.59C174.433 225.61 173.483 224.88 172.263 224.4C171.063 223.9 169.663 223.65 168.063 223.65C166.483 223.65 165.073 223.9 163.833 224.4C162.593 224.88 161.623 225.61 160.923 226.59C160.223 227.57 159.873 228.81 159.873 230.31C159.873 231.81 160.223 233.05 160.923 234.03C161.623 235.01 162.593 235.74 163.833 236.22C165.073 236.7 166.483 236.94 168.063 236.94ZM184.228 240V220.59H197.398C198.898 220.59 200.198 220.8 201.298 221.22C202.418 221.62 203.288 222.26 203.908 223.14C204.528 224 204.838 225.11 204.838 226.47C204.838 227.39 204.678 228.17 204.358 228.81C204.038 229.45 203.588 229.97 203.008 230.37C202.448 230.77 201.798 231.08 201.058 231.3C200.318 231.5 199.528 231.63 198.688 231.69L198.268 231.45C199.668 231.47 200.818 231.59 201.718 231.81C202.618 232.01 203.288 232.39 203.728 232.95C204.188 233.49 204.418 234.3 204.418 235.38V240H200.428V235.65C200.428 234.91 200.298 234.34 200.038 233.94C199.778 233.52 199.308 233.23 198.628 233.07C197.968 232.91 197.008 232.83 195.748 232.83H188.218V240H184.228ZM188.218 229.71H197.398C198.518 229.71 199.368 229.44 199.948 228.9C200.548 228.36 200.848 227.63 200.848 226.71C200.848 225.83 200.548 225.16 199.948 224.7C199.368 224.24 198.518 224.01 197.398 224.01H188.218V229.71ZM238.899 233.01C238.719 234.57 238.169 235.9 237.249 237C236.329 238.1 235.079 238.94 233.499 239.52C231.919 240.1 230.039 240.39 227.859 240.39C226.039 240.39 224.369 240.18 222.849 239.76C221.349 239.34 220.049 238.71 218.949 237.87C217.869 237.03 217.029 235.99 216.429 234.75C215.829 233.49 215.529 232.02 215.529 230.34C215.529 228.66 215.829 227.19 216.429 225.93C217.029 224.67 217.869 223.62 218.949 222.78C220.049 221.92 221.349 221.28 222.849 220.86C224.369 220.42 226.039 220.2 227.859 220.2C230.039 220.2 231.919 220.5 233.499 221.1C235.099 221.7 236.359 222.56 237.279 223.68C238.199 224.78 238.739 226.12 238.899 227.7H234.939C234.679 226.86 234.239 226.14 233.619 225.54C233.019 224.92 232.239 224.45 231.279 224.13C230.319 223.81 229.179 223.65 227.859 223.65C226.219 223.65 224.779 223.91 223.539 224.43C222.299 224.93 221.339 225.68 220.659 226.68C219.979 227.66 219.639 228.88 219.639 230.34C219.639 231.78 219.979 232.99 220.659 233.97C221.339 234.95 222.299 235.7 223.539 236.22C224.779 236.72 226.219 236.97 227.859 236.97C229.179 236.97 230.309 236.81 231.249 236.49C232.209 236.17 232.989 235.71 233.589 235.11C234.209 234.51 234.659 233.81 234.939 233.01H238.899ZM251.072 240.36C249.192 240.36 247.532 240.06 246.092 239.46C244.672 238.86 243.562 237.99 242.762 236.85C241.962 235.69 241.562 234.27 241.562 232.59C241.562 230.91 241.962 229.49 242.762 228.33C243.562 227.15 244.672 226.26 246.092 225.66C247.532 225.06 249.192 224.76 251.072 224.76C252.952 224.76 254.592 225.06 255.992 225.66C257.412 226.26 258.522 227.15 259.322 228.33C260.122 229.49 260.522 230.91 260.522 232.59C260.522 234.27 260.122 235.69 259.322 236.85C258.522 237.99 257.412 238.86 255.992 239.46C254.592 240.06 252.952 240.36 251.072 240.36ZM251.072 237.36C252.112 237.36 253.042 237.18 253.862 236.82C254.702 236.44 255.362 235.9 255.842 235.2C256.322 234.48 256.562 233.61 256.562 232.59C256.562 231.57 256.322 230.7 255.842 229.98C255.362 229.24 254.712 228.68 253.892 228.3C253.072 227.92 252.132 227.73 251.072 227.73C250.032 227.73 249.092 227.92 248.252 228.3C247.412 228.68 246.742 229.23 246.242 229.95C245.762 230.67 245.522 231.55 245.522 232.59C245.522 233.61 245.762 234.48 246.242 235.2C246.722 235.9 247.382 236.44 248.222 236.82C249.062 237.18 250.012 237.36 251.072 237.36ZM270.665 240.33C269.165 240.33 267.805 240.01 266.585 239.37C265.385 238.71 264.435 237.8 263.735 236.64C263.035 235.46 262.685 234.1 262.685 232.56C262.685 230.98 263.025 229.61 263.705 228.45C264.405 227.29 265.355 226.39 266.555 225.75C267.755 225.09 269.125 224.76 270.665 224.76C272.005 224.76 273.145 224.96 274.085 225.36C275.025 225.76 275.785 226.32 276.365 227.04C276.945 227.74 277.365 228.56 277.625 229.5C277.905 230.44 278.045 231.46 278.045 232.56C278.045 233.44 277.905 234.34 277.625 235.26C277.345 236.16 276.915 237 276.335 237.78C275.755 238.54 274.995 239.16 274.055 239.64C273.115 240.1 271.985 240.33 270.665 240.33ZM271.925 237.33C273.105 237.33 274.125 237.13 274.985 236.73C275.845 236.33 276.505 235.77 276.965 235.05C277.425 234.33 277.655 233.5 277.655 232.56C277.655 231.54 277.415 230.68 276.935 229.98C276.475 229.26 275.815 228.71 274.955 228.33C274.115 227.95 273.105 227.76 271.925 227.76C270.265 227.76 268.975 228.2 268.055 229.08C267.135 229.96 266.675 231.12 266.675 232.56C266.675 233.52 266.895 234.36 267.335 235.08C267.775 235.78 268.385 236.33 269.165 236.73C269.965 237.13 270.885 237.33 271.925 237.33ZM277.655 219.09H281.555V240H277.925C277.865 239.54 277.805 238.95 277.745 238.23C277.685 237.49 277.655 236.8 277.655 236.16V219.09ZM299.349 235.05H303.129C302.969 236.07 302.539 236.98 301.839 237.78C301.159 238.58 300.229 239.21 299.049 239.67C297.869 240.13 296.429 240.36 294.729 240.36C292.829 240.36 291.149 240.06 289.689 239.46C288.229 238.84 287.089 237.95 286.269 236.79C285.449 235.63 285.039 234.23 285.039 232.59C285.039 230.95 285.439 229.55 286.239 228.39C287.039 227.21 288.149 226.31 289.569 225.69C291.009 225.07 292.689 224.76 294.609 224.76C296.569 224.76 298.199 225.07 299.499 225.69C300.799 226.31 301.759 227.25 302.379 228.51C303.019 229.75 303.289 231.34 303.189 233.28H288.969C289.069 234.04 289.349 234.73 289.809 235.35C290.289 235.97 290.929 236.46 291.729 236.82C292.549 237.18 293.519 237.36 294.639 237.36C295.879 237.36 296.909 237.15 297.729 236.73C298.569 236.29 299.109 235.73 299.349 235.05ZM294.429 227.73C292.989 227.73 291.819 228.05 290.919 228.69C290.019 229.31 289.439 230.08 289.179 231H299.319C299.219 230 298.739 229.21 297.879 228.63C297.039 228.03 295.889 227.73 294.429 227.73ZM314.347 226.8L315.817 224.1L325.657 229.68V232.95L315.817 238.53L314.347 235.74L322.627 231.3L314.347 226.8Z" fill="black"/>
</svg>
