<svg width="100%" height="2581" viewBox="0 0 1025 1581" fill="none" xmlns="http://www.w3.org/2000/svg" preserveAspectRatio="none">
<path d="M1135.62 93.1269C1164.85 77.9962 1261.52 10.5735 1170.66 3.06217C1058.88 -6.17828 1041.86 149.225 939.895 102.09C827.841 -4.494 593.445 164.327 487.267 137.569C263.887 81.2759 275.261 181.493 130.716 135.013C-20.7544 86.3059 -144.875 133.743 -201.689 248.641C-258.503 363.54 12.0393 1409.37 12.0393 1409.37L1135.35 1393.8L1135.62 93.1269Z" fill="#7C9784"/>
<path d="M371.506 1070.06C249.372 1144.76 192.989 1104.03 81.3718 1043.1C-30.2452 982.162 -322.213 1148.77 -235.128 1183.26C-167.686 1209.98 -227.279 1134.73 -100.628 1214.26C153.529 1373.87 492.272 1115.2 694.276 1043.1C896.28 970.997 939.996 782.718 1183 846.871C1262.53 867.864 1311.35 803.297 1222.87 784.762C1134.4 766.227 906.82 757.173 842.758 882.246C760.372 1043.1 493.64 995.35 371.506 1070.06Z" fill="#FDDC97"/>
<path d="M365.536 1101.52C240.387 1168.77 186.212 1131.66 78.0242 1076.05C-30.1639 1020.44 -328.765 1170.34 -243.731 1201.9L-329.542 1415.21C157.57 1413.35 1136.9 1409.2 1157.3 1407.46C1177.7 1405.72 1183.59 1069.92 1183.99 902.239C1262.14 921.546 1313.83 863.223 1226.65 846.111C1139.47 828.999 913.367 819.976 843.614 933.063C753.907 1078.5 490.684 1034.28 365.536 1101.52Z" fill="#033F63"/>
</svg>
