<svg preserveAspectRatio="none" width="100%" height="155" viewBox="0 0 1024 155" fill="none" xmlns="http://www.w3.org/2000/svg">
<path d="M1020 14.5797C1077.6 2.33902 1121 19.68 1135.5 29.8806L1160.5 139H-42.5C-40.3334 112.559 -3.30005 64.5089 127.5 83.8364C258.3 103.164 272.5 123.139 379 114.438C413.5 111.619 509.7 83.9974 596.5 29.8806C683.3 -24.2362 745.333 7.3322 765.5 29.8809C779.833 44.3764 810.5 83.0313 876 72.965C914.8 67.002 948 29.8806 1020 14.5797Z" fill="#FEDC97"/>
<path d="M1020 28.5797C1077.6 16.339 1121 33.68 1135.5 43.8806L1160.5 153H-42.5C-40.3334 126.559 -3.30005 78.5089 127.5 97.8364C258.3 117.164 272.5 137.139 379 128.438C413.5 125.619 509.7 97.9974 596.5 43.8806C683.3 -10.2362 745.333 21.3322 765.5 43.8809C779.833 58.3764 810.5 97.0313 876 86.965C914.8 81.002 948 43.8806 1020 28.5797Z" fill="#B5B682"/>
<path d="M1020 41.5797C1077.6 29.339 1121 46.68 1135.5 56.8806L1156 155H-45C-42.8334 128.559 -3.30005 91.5089 127.5 110.836C258.3 130.164 272.5 150.139 379 141.438C413.5 138.619 509.7 110.997 596.5 56.8806C683.3 2.76378 745.333 34.3322 765.5 56.8809C779.833 71.3764 810.5 110.031 876 99.965C914.8 94.002 948 56.8806 1020 41.5797Z" fill="#D48C8D"/>
</svg>
