<svg width="388" height="454" viewBox="0 0 388 454" fill="none" xmlns="http://www.w3.org/2000/svg">
<path d="M94.4615 105C87.6987 105 82.2164 110.482 82.2164 117.245C82.2164 124.007 87.6987 129.49 94.4615 129.49C101.224 129.49 106.707 124.007 106.707 117.245C106.707 110.482 101.224 105 94.4615 105Z" fill="#FCFAE0"/>
<path d="M57.6989 169.162C54.8278 169.162 52.5002 171.489 52.5002 174.36C52.5002 177.232 54.8278 179.559 57.6989 179.559C60.57 179.559 62.8975 177.232 62.8975 174.36C62.8975 171.489 60.57 169.162 57.6989 169.162Z" fill="#FCFAE0"/>
<path d="M99.6602 259.731C96.7891 259.731 94.4616 262.059 94.4616 264.93C94.4616 267.801 96.7891 270.128 99.6602 270.128C102.531 270.128 104.859 267.801 104.859 264.93C104.859 262.059 102.531 259.731 99.6602 259.731Z" fill="#FCFAE0"/>
<path fill-rule="evenodd" clip-rule="evenodd" d="M234.366 3.02058C234.366 3.02058 228.833 158.758 213.858 167.763C197.356 175.319 130.342 127.722 130.342 127.722C130.342 127.722 186.965 188.67 178.102 203.47C167.73 218.289 3.38264 229.224 3.38264 229.224C3.38264 229.224 167.976 237.377 178.728 251.924C187.97 266.49 132.941 328.88 132.941 328.88C132.941 328.88 198.703 279.568 215.395 286.695C230.597 295.31 240.152 450.853 240.152 450.853C240.152 450.853 245.685 295.115 262.168 286.091C278.67 278.535 344.175 326.151 344.175 326.151C344.175 326.151 289.061 265.184 297.924 250.384C306.788 235.584 471.116 223.181 471.116 223.181C471.116 223.181 306.541 216.496 297.298 201.93C288.056 187.364 341.577 124.993 341.577 124.993C341.577 124.993 277.323 174.286 260.632 167.159C245.43 158.544 236.159 25.0256 234.366 3.02058Z" fill="#FCFAE1"/>
</svg>
