<svg width="363" height="261" viewBox="0 0 363 261" fill="none" xmlns="http://www.w3.org/2000/svg">
<path d="M319.932 56.2572C325.731 56.1823 330.374 51.6448 330.302 46.1224C330.231 40.6 325.473 36.184 319.674 36.2589C313.876 36.3338 309.233 40.8713 309.304 46.3937C309.375 51.9161 314.134 56.3321 319.932 56.2572Z" fill="#FCDB96"/>
<path d="M264.72 96.3786C273.987 96.2589 281.4 88.5144 281.279 79.0807C281.157 69.647 273.546 62.0966 264.279 62.2163C255.012 62.3361 247.598 70.0806 247.72 79.5143C247.842 88.9479 255.453 96.4984 264.72 96.3786Z" fill="#FCDB96"/>
<path d="M357.335 9.77022C359.82 9.73811 361.808 7.69751 361.776 5.21244C361.744 2.72737 359.704 0.738864 357.219 0.77097C354.734 0.803075 352.745 2.84364 352.777 5.32871C352.809 7.81378 354.85 9.80232 357.335 9.77022Z" fill="#FCFAE0"/>
<path d="M232.5 112.5C187.616 117.992 183.336 122.458 177.986 169C172.693 122.458 168.384 117.992 123.5 112.5C168.384 106.984 172.664 102.518 177.986 56C183.307 102.518 187.616 106.984 232.5 112.5Z" fill="#FCFAE0"/>
<path d="M146.516 198.8C227.159 233.152 300.219 242.957 309.7 220.7C319.181 198.444 261.493 152.553 180.85 118.2C100.208 83.8481 27.1481 74.0427 17.6671 96.2996C8.18602 118.556 65.8738 164.447 146.516 198.8Z" stroke="#FCFAE0" stroke-miterlimit="10"/>
</svg>
