<svg width="656" height="395" viewBox="0 0 656 395" fill="none" xmlns="http://www.w3.org/2000/svg">
<path d="M293 165.717C298.799 165.717 303.5 161.24 303.5 155.717C303.5 150.194 298.799 145.717 293 145.717C287.202 145.717 282.5 150.194 282.5 155.717C282.5 161.24 287.202 165.717 293 165.717Z" fill="#FCDB96"/>
<path d="M331 119.717C333.486 119.717 335.5 117.702 335.5 115.217C335.5 112.732 333.486 110.717 331 110.717C328.515 110.717 326.5 112.732 326.5 115.217C326.5 117.702 328.515 119.717 331 119.717Z" fill="#FCFAE0"/>
<path d="M404.277 263.66C543.118 191.632 640.286 103.587 621.308 67.0042C602.33 30.4216 474.392 59.155 335.551 131.182C196.71 203.209 99.5412 291.255 118.519 327.837C137.497 364.42 265.435 335.687 404.277 263.66Z" stroke="#FCFAE0" stroke-miterlimit="10"/>
<path fill-rule="evenodd" clip-rule="evenodd" d="M178.5 38.7168C178.5 38.7168 172.759 158.271 161.275 165.038C148.642 170.677 98.1134 133.458 98.1134 133.458C98.1134 133.458 140.604 180.828 133.713 192.107C125.675 203.386 0.500488 210.153 0.500488 210.153C0.500488 210.153 125.675 218.048 133.713 229.327C140.604 240.605 98.1134 287.976 98.1134 287.976C98.1134 287.976 148.642 250.756 161.275 256.395C172.759 263.163 178.5 382.717 178.5 382.717C178.5 382.717 184.242 263.163 196.875 256.395C209.507 250.756 258.888 287.976 258.888 287.976C258.888 287.976 217.546 240.605 224.436 229.327C231.326 218.048 356.5 210.153 356.5 210.153C356.5 210.153 231.326 203.386 224.436 192.107C217.546 180.828 258.888 133.458 258.888 133.458C258.888 133.458 209.507 170.677 196.875 165.038C185.391 158.271 179.649 55.6348 178.5 38.7168Z" fill="#FCFAE1"/>
<path d="M638.5 123.5C614.617 126.173 612.339 128.347 609.492 151C606.676 128.347 604.383 126.173 580.5 123.5C604.383 120.815 606.661 118.642 609.492 96C612.324 118.642 614.617 120.815 638.5 123.5Z" fill="#FCFAE0"/>
<path d="M600.5 162.5C583.617 164.201 582.007 165.584 579.995 180C578.004 165.584 576.383 164.201 559.5 162.5C576.383 160.791 577.993 159.408 579.995 145C581.996 159.408 583.617 160.791 600.5 162.5Z" fill="#FCDB96"/>
</svg>
