<svg width="128" height="122" viewBox="0 0 128 122" fill="none" xmlns="http://www.w3.org/2000/svg">
<path fill-rule="evenodd" clip-rule="evenodd" d="M44.5707 0.247591C44.5707 0.247591 60.0532 41.7706 64.9179 42.8701C70.0595 43.4216 83.9094 24.5399 83.9094 24.5399C83.9094 24.5399 74.0476 46.092 77.7934 49.2773C81.9286 52.3386 127.405 40.4811 127.405 40.4811C127.405 40.4811 83.5745 57.5062 81.9778 62.415C80.7642 67.1799 101.274 79.0586 101.274 79.0586C101.274 79.0586 79.0345 71.6712 75.1795 75.0882C71.8405 78.7787 83.2244 121.608 83.2244 121.608C83.2244 121.608 67.7418 80.0842 62.4531 79.1416C57.3115 78.5901 43.8511 97.348 43.8511 97.348C43.8511 97.348 53.303 75.9264 49.5572 72.7411C45.8114 69.5558 0.263429 80.9762 0.263429 80.9762C0.263429 80.9762 44.2206 64.3488 45.3728 59.6034C46.5249 54.8581 26.4867 42.8293 26.4867 42.8293C26.4867 42.8293 48.316 50.347 52.1915 46.9235C55.5257 43.1469 46.0663 6.36067 44.5707 0.247591Z" fill="#FDFBE2"/>
</svg>
