<svg width="996" height="399" viewBox="0 0 996 399" fill="none" xmlns="http://www.w3.org/2000/svg">
<path d="M991.439 79.9793C996.485 100.74 988.226 124.144 967.964 148.926C947.735 173.669 915.848 199.383 874.605 224.539C792.145 274.836 672.788 322.6 536.089 355.825C399.389 389.05 271.424 401.398 175.078 394.56C126.89 391.14 86.7569 382.93 57.4278 370.233C28.0513 357.515 9.97166 340.513 4.92581 319.752C-0.120046 298.992 8.13882 275.588 28.4009 250.805C48.6302 226.063 80.5175 200.349 121.76 175.192C204.22 124.895 323.577 77.1313 460.276 43.9062C596.976 10.6812 724.941 -1.66622 821.287 5.17167C869.476 8.59169 909.608 16.8015 938.937 29.4987C968.314 42.2164 986.393 59.2188 991.439 79.9793Z" stroke="#FEDC97" stroke-width="5"/>
</svg>
