<svg width="261" height="332" viewBox="0 0 261 332" fill="none" xmlns="http://www.w3.org/2000/svg">
<g clip-path="url(#clip0_2365_1216)">
<path d="M-16 101.169C4.16667 98.8361 53.9 119.669 91.5 221.669C129.1 323.669 195.833 354.503 224.5 357.169" stroke="#B5B682" stroke-width="25"/>
<path d="M-34 118.169C-13.8333 115.836 35.9 136.669 73.5 238.669C111.1 340.669 177.833 371.503 206.5 374.169" stroke="#FDFBE2" stroke-width="25"/>
<path d="M-7.5 81C12.6667 78.6667 69.9 104.67 107.5 206.67C145.1 308.67 219.833 343.333 248.5 346" stroke="#FEDC97" stroke-width="25"/>
<path fill-rule="evenodd" clip-rule="evenodd" d="M115.697 146.85C115.697 146.85 170.023 144.674 173.165 139.424C175.773 133.64 159.056 110.276 159.056 110.276C159.056 110.276 180.411 130.012 185.556 126.863C190.706 123.212 194.267 65.6635 194.267 65.6635C194.267 65.6635 197.359 123.269 202.471 127.007C207.562 130.243 229.251 110.874 229.251 110.874C229.251 110.874 212.137 133.977 214.647 139.777C217.673 145.08 271.954 148.182 271.954 148.182C271.954 148.182 217.628 150.358 214.507 156.163C211.899 161.946 228.621 184.809 228.621 184.809C228.621 184.809 207.261 165.601 202.116 168.75C196.97 171.899 192.872 229.364 192.872 229.364C192.872 229.364 190.292 171.763 185.2 168.606C180.109 165.449 158.426 184.211 158.426 184.211C158.426 184.211 175.534 161.636 173.025 155.809C169.897 150.479 123.396 147.444 115.697 146.85Z" fill="#FDFBE2"/>
</g>
<defs>
<clipPath id="clip0_2365_1216">
<rect width="261" height="332" fill="white"/>
</clipPath>
</defs>
</svg>
