<svg width="92" height="102" viewBox="0 0 92 102" fill="none" xmlns="http://www.w3.org/2000/svg">
<path d="M36.6615 25.1721C25.4596 33.4339 16.5684 45.1162 14.8816 58.0141C16.1284 54.9967 17.0134 52.0603 20.1091 50.33C24.1711 48.0596 28.6223 46.7356 32.8223 44.5577C37.8639 41.9433 44.0785 42.5523 48.942 39.8339C54.5752 36.6854 64.8478 32.7008 65.1328 25.1649C65.3657 19.0033 60.7889 17.3032 55.188 16.6268C49.1115 15.8929 41.6652 21.4816 36.6615 25.1721Z" fill="#E79565"/>
<path d="M28.8466 72.4476C27.282 72.6711 26.245 72.7276 24.6922 72.7798C25.9 72.8207 27.2182 73.0233 28.2656 73.5903C28.854 73.9088 29.5878 74.2954 30.0595 74.7558C30.7902 75.469 31.8762 75.8124 32.6733 76.453C34.7934 78.1571 37.4272 79.3266 39.7586 80.751C43.4203 82.9881 47.431 84.7594 51.8302 85.0614C55.2123 85.2937 59.7961 84.6451 61.6335 81.5015C64.1065 77.2705 61.5473 72.3237 57.2302 70.5046C54.6926 69.4354 52.0549 69.0045 49.2688 68.991C47.5236 68.9826 45.7565 69.1588 44.0118 69.2531C42.7757 69.3199 41.6035 69.4305 40.3851 69.6776C37.922 70.1771 35.4736 70.8001 33.0521 71.4659C31.6513 71.851 30.2887 72.2416 28.8466 72.4476Z" fill="#5DA1A1"/>
</svg>
