<svg preserveAspectRatio="none" width="100%" height="473" viewBox="0 0 1023 473" fill="none" xmlns="http://www.w3.org/2000/svg">
<path d="M327.897 193.5C131.224 123.424 62.0302 33.1667 0 0V405H1023V82.5C936.921 82.5 794.66 142.258 723.464 167C603.173 208.804 519.19 261.659 327.897 193.5Z" fill="#28666E"/>
<path d="M327.897 215.5C131.224 145.424 62.0302 55.1667 0 22V427H1023V104.5C936.921 104.5 794.66 164.258 723.464 189C603.173 230.804 519.19 283.659 327.897 215.5Z" fill="#B5B682"/>
<path d="M351.283 241.5C154.61 171.424 62.0302 81.1667 0 48V453H1023V121.5C936.921 121.5 825.509 171.758 754.313 196.5C634.022 238.304 542.576 309.659 351.283 241.5Z" fill="#D48C8D"/>
<path d="M353.273 261.5C156.6 191.424 62.0302 101.167 0 68V473H1023V143C936.921 143 844.915 186.258 773.718 211C653.427 252.804 544.566 329.659 353.273 261.5Z" fill="#033F63"/>
</svg>
