<svg preserveAspectRatio="none" width="100%" height="326" viewBox="0 0 1024 326" fill="none" xmlns="http://www.w3.org/2000/svg">
<path d="M-51.8302 112.284C-37.338 102.073 6.0488 84.6987 63.6581 96.8955C135.67 112.142 168.898 149.238 207.703 155.171C273.21 165.188 303.847 126.509 318.17 112.003C338.319 89.4387 400.328 57.823 487.17 111.874C574.011 165.924 704.63 59.3272 800.13 59.2545C929.018 59.1565 825.425 184.899 956.211 165.472C1087 146.045 1131.06 183.061 1133.24 209.501" stroke="#FEDC97" stroke-width="5"/>
<path d="M-50.8302 168.284C-36.338 158.073 7.0488 140.698 64.6581 152.895C136.67 168.141 169.898 205.237 208.703 211.171C274.21 221.187 304.847 182.509 319.17 168.002C339.319 145.438 401.328 113.823 488.17 167.873C575.011 221.924 705.63 115.327 801.13 115.254C930.018 115.156 826.425 240.899 957.211 221.472C1088 202.045 1132.06 239.061 1134.24 265.5" stroke="#FEDC97" stroke-width="5"/>
<path d="M-59.8297 227.284C-45.3375 217.072 -1.95072 199.698 55.6586 211.895C127.67 227.141 160.899 264.237 199.703 270.171C265.211 280.187 295.848 241.509 310.17 227.002C330.32 204.438 392.329 172.823 479.17 226.873C566.011 280.924 696.63 174.327 792.13 174.254C921.019 174.156 817.426 299.899 948.211 280.472C1079 261.045 1123.06 298.061 1125.24 324.5" stroke="#FEDC97" stroke-width="5"/>
<path d="M-46.8258 56.2837C-32.3336 46.072 11.0532 28.698 68.6625 40.8948C140.674 56.1408 173.903 93.237 212.707 99.1704C278.215 109.187 308.852 70.5085 323.174 56.002C343.324 33.438 405.333 1.82229 492.174 55.8729C579.015 109.924 709.634 3.32648 805.134 3.25381C934.022 3.15573 830.43 128.898 961.215 109.471C1092 90.0443 1136.06 127.061 1138.25 153.5" stroke="#FEDC97" stroke-width="5"/>
</svg>
