<svg width="144" height="708" viewBox="0 0 144 708" fill="none" xmlns="http://www.w3.org/2000/svg">
<path d="M93.6138 319.569C69.3322 323.126 66.9864 326.01 64.1138 356.069C61.2329 326.018 58.9076 323.134 34.6138 319.569C58.8953 316.013 61.237 313.129 64.1138 283.069C66.9864 313.129 69.3199 316.013 93.6138 319.569Z" fill="#FDFBE4"/>
<path d="M144 1.39945C93.5 48.3994 25.8306 195.472 44.8432 272.76C68.609 369.369 124.042 395.967 132.28 478.055C140.518 560.142 81.0658 563.596 177.333 696.649" stroke="#FDFBE2" stroke-width="2"/>
<path d="M152.087 41.8971C121.787 85.4738 65.9397 191.949 84.9523 269.237C108.718 365.847 164.151 392.444 172.389 474.532C180.627 556.62 121.175 560.074 217.442 693.126" stroke="#FDFBE2" stroke-width="2"/>
<circle cx="129.118" cy="541.689" r="13" transform="rotate(-5.73082 129.118 541.689)" fill="#FDFBE4"/>
<circle cx="120.277" cy="583.782" r="7" transform="rotate(-5.73082 120.277 583.782)" fill="#FDFBE4"/>
</svg>
