<svg width="100%" height="497" viewBox="0 0 1025 497" fill="none" xmlns="http://www.w3.org/2000/svg" preserveAspectRatio="none">
<path d="M61.4926 320.761C43.1712 323.032 41.1587 326.131 35.886 359.957C36.9022 325.717 35.4793 322.284 17.8973 316.523C36.2203 314.234 38.2328 311.136 43.4924 277.326C42.4894 311.549 43.9122 314.982 61.4926 320.761Z" fill="#FDFBE2"/>
<path d="M991.519 192.029C979.763 192.937 978.508 194.482 975.544 211.57C975.765 194.216 974.806 192.455 963.425 189.298C975.181 188.382 976.437 186.837 979.393 169.757C979.18 187.103 980.138 188.864 991.519 192.029Z" fill="#FDFBE2"/>
<path d="M32.3391 399.452C34.7361 399.653 36.8317 397.896 37.0197 395.527C37.2077 393.159 35.417 391.076 33.02 390.875C30.6231 390.674 28.5275 392.431 28.3395 394.799C28.1514 397.168 29.9422 399.251 32.3391 399.452Z" fill="#FCDB96"/>
<path d="M42.2474 402.801C43.8339 402.934 45.2256 401.711 45.3558 400.071C45.4861 398.43 44.3056 396.992 42.7191 396.859C41.1326 396.726 39.741 397.948 39.6107 399.589C39.4805 401.23 40.661 402.668 42.2474 402.801Z" fill="#FCDB96"/>
<path d="M535.806 378.146C809.018 312.644 1017.34 201.583 1001.11 130.083C984.877 58.5842 750.236 53.7227 477.024 119.225C203.812 184.727 -4.51105 295.789 11.7212 367.288C27.9535 438.787 262.594 443.649 535.806 378.146Z" stroke="#FCFAE0" stroke-miterlimit="10"/>
<path d="M985.172 161.335C987.583 161.537 989.696 159.693 989.893 157.216C990.09 154.739 988.295 152.567 985.884 152.365C983.474 152.163 981.361 154.007 981.164 156.484C980.967 158.961 982.762 161.133 985.172 161.335Z" fill="#FCFAE0"/>
<path d="M994.722 179.372C995.776 179.461 996.703 178.625 996.792 177.506C996.881 176.388 996.098 175.409 995.044 175.321C993.989 175.232 993.063 176.068 992.974 177.186C992.885 178.305 993.668 179.284 994.722 179.372Z" fill="#FCFAE0"/>
</svg>
