<svg width="100" height="95" viewBox="0 0 100 95" fill="none" xmlns="http://www.w3.org/2000/svg">
<path fill-rule="evenodd" clip-rule="evenodd" d="M52.0298 0.995137C52.0298 0.995137 52.2929 33.715 55.391 35.7057C58.8194 37.3861 73.1952 27.7799 73.1952 27.7799C73.1952 27.7799 60.9127 40.2456 62.7079 43.4012C64.8046 46.5691 99.3528 49.8191 99.3528 49.8191C99.3528 49.8191 64.6425 50.5702 62.2956 53.5734C60.2509 56.5734 71.4842 69.9922 71.4842 69.9922C71.4842 69.9922 57.9172 59.2532 54.3798 60.6513C51.1315 62.3693 48.2211 94.9609 48.2211 94.9609C48.2211 94.9609 47.958 62.2407 44.5261 60.2519C41.0976 58.5715 27.0234 68.19 27.0234 68.19C27.0234 68.19 38.9885 55.7115 37.1932 52.5559C35.398 49.4002 0.910587 45.8289 0.910587 45.8289C0.910587 45.8289 35.6084 45.3856 37.6056 42.3837C39.6027 39.3818 28.7344 25.9778 28.7344 25.9778C28.7344 25.9778 41.984 36.7037 45.5373 35.3063C48.804 33.5273 51.5247 5.61438 52.0298 0.995137Z" fill="#FDFBE2"/>
</svg>
