<svg width="82" height="84" viewBox="0 0 82 84" fill="none" xmlns="http://www.w3.org/2000/svg">
<path fill-rule="evenodd" clip-rule="evenodd" d="M42.6724 0.634677C42.6724 0.634677 42.8099 29.3693 45.3437 31.1101C48.149 32.5777 59.9516 24.1071 59.9516 24.1071C59.9516 24.1071 49.8575 35.084 51.321 37.8511C53.0315 40.6281 81.3328 43.3999 81.3328 43.3999C81.3328 43.3999 52.889 44.1424 50.9588 46.7854C49.2762 49.425 58.4488 61.1828 58.4488 61.1828C58.4488 61.1828 47.3575 51.7841 44.4556 53.0203C41.7898 54.5369 39.3272 83.1664 39.3272 83.1664C39.3272 83.1664 39.1897 54.4315 36.3824 52.6931C33.577 51.2255 22.0215 59.7063 22.0215 59.7063C22.0215 59.7063 31.8556 48.7189 30.3921 45.9518C28.9286 43.1847 0.67779 40.1306 0.67779 40.1306C0.67779 40.1306 29.1106 39.6585 30.7542 37.0174C32.3979 34.3763 23.5243 22.6305 23.5243 22.6305C23.5243 22.6305 34.3556 32.0186 37.2705 30.7829C39.9515 29.2128 42.2475 4.6926 42.6724 0.634677Z" fill="#FDFBE2"/>
</svg>
