<svg width="103" height="107" viewBox="0 0 103 107" fill="none" xmlns="http://www.w3.org/2000/svg">
<path fill-rule="evenodd" clip-rule="evenodd" d="M0.45332 53.2138C0.45332 53.2138 35.7723 51.7992 37.8147 48.3854C39.5106 44.6256 28.6419 29.4357 28.6419 29.4357C28.6419 29.4357 42.5257 42.2666 45.8709 40.2192C49.2188 37.8459 51.5342 0.43138 51.5342 0.43138C51.5342 0.43138 53.5445 37.8828 56.8682 40.3129C60.1779 42.417 74.2784 29.8246 74.2784 29.8246C74.2784 29.8246 63.1521 44.8442 64.7838 48.6152C66.7511 52.0631 102.041 54.0794 102.041 54.0794C102.041 54.0794 66.7218 55.494 64.693 59.2682C62.9972 63.028 73.8688 77.8919 73.8688 77.8919C73.8688 77.8919 59.9821 65.4042 56.6369 67.4515C53.2918 69.4989 50.6273 106.859 50.6273 106.859C50.6273 106.859 48.9499 69.4104 45.6396 67.3578C42.3294 65.3052 28.2324 77.5031 28.2324 77.5031C28.2324 77.5031 39.3555 62.8266 37.7239 59.0384C35.6903 55.5727 5.45825 53.5996 0.45332 53.2138Z" fill="#FEDC97"/>
</svg>
