<svg width="173" height="177" viewBox="0 0 173 177" fill="none" xmlns="http://www.w3.org/2000/svg">
<path fill-rule="evenodd" clip-rule="evenodd" d="M64.7718 0.945097C64.7718 0.945097 77.2026 62.5336 72.539 67.4064C67.172 71.8166 38.1061 59.0136 38.1061 59.0136C38.1061 59.0136 64.6177 77.9552 62.7042 84.5415C60.2654 91.2608 0.791258 109.987 0.791258 109.987C0.791258 109.987 62.1272 98.7212 67.4377 103.508C72.2156 108.399 57.7491 137.721 57.7491 137.721C57.7491 137.721 77.3756 112.583 84.1472 113.919C90.5366 115.961 108.498 176.15 108.498 176.15C108.498 176.15 96.0666 114.561 101.318 109.569C106.685 105.159 135.226 118.096 135.226 118.096C135.226 118.096 109.267 99.014 111.181 92.4277C113.094 85.8415 172.335 66.5337 172.335 66.5337C172.335 66.5337 111.142 78.3734 106.447 73.4611C101.752 68.5488 115.583 39.3883 115.583 39.3883C115.583 39.3883 96.5091 64.3854 89.7098 63.0569C83.2641 60.9067 67.4803 9.44186 64.7718 0.945097Z" fill="#FDFBE2"/>
</svg>
