<svg width="70" height="89" viewBox="0 0 70 89" fill="none" xmlns="http://www.w3.org/2000/svg">
<path fill-rule="evenodd" clip-rule="evenodd" d="M0.305908 35.9019C0.305908 35.9019 24.1347 34.9475 25.5126 32.6443C26.6568 30.1076 19.324 19.8595 19.324 19.8595C19.324 19.8595 28.691 28.5161 30.9479 27.1348C33.2067 25.5336 34.7688 0.29104 34.7688 0.29104C34.7688 0.29104 36.1251 25.5585 38.3675 27.198C40.6005 28.6176 50.1136 20.1218 50.1136 20.1218C50.1136 20.1218 42.6071 30.2551 43.7079 32.7993C45.0352 35.1256 68.8445 36.4859 68.8445 36.4859C68.8445 36.4859 45.0155 37.4403 43.6467 39.9866C42.5025 42.5233 49.8373 52.5515 49.8373 52.5515C49.8373 52.5515 40.4683 44.1264 38.2114 45.5077C35.9546 46.889 34.1569 72.0948 34.1569 72.0948C34.1569 72.0948 33.0252 46.8293 30.7919 45.4445C28.5586 44.0596 19.0477 52.2892 19.0477 52.2892C19.0477 52.2892 26.5521 42.3874 25.4514 39.8316C24.0793 37.4934 3.6826 36.1622 0.305908 35.9019Z" fill="#FDFBE2"/>
<circle cx="24.5" cy="81.5" r="7.5" fill="#FDFBE2"/>
<circle cx="44" cy="76" r="4" fill="#FDFBE2"/>
</svg>
