<svg width="134" height="129" viewBox="0 0 134 129" fill="none" xmlns="http://www.w3.org/2000/svg">
<path fill-rule="evenodd" clip-rule="evenodd" d="M66.6219 0.428223C66.6219 0.428223 64.6611 44.9909 60.3675 47.532C55.6415 49.632 36.6419 35.7508 36.6419 35.7508C36.6419 35.7508 52.6661 53.4122 50.0799 57.6123C47.0848 61.8123 0.132999 64.3323 0.132999 64.3323C0.132999 64.3323 47.1082 67.2724 50.1396 71.4935C52.7619 75.6936 36.8894 93.355 36.8894 93.355C36.8894 93.355 55.7912 79.4735 60.5137 81.5735C64.8291 84.0936 67.1729 128.657 67.1729 128.657C67.1729 128.657 69.1336 84.0936 73.8793 81.5735C78.6052 79.4735 97.1959 93.355 97.1959 93.355C97.1959 93.355 81.6022 75.6936 84.1884 71.4935C86.7746 67.2934 133.66 64.3323 133.66 64.3323C133.66 64.3323 86.6864 61.8123 84.1287 57.6123C81.571 53.4122 96.9484 35.7508 96.9484 35.7508C96.9484 35.7508 78.477 49.632 73.733 47.532C69.3957 44.9279 67.0795 6.74934 66.6219 0.428223Z" fill="#FDFBE2"/>
</svg>
