<svg width="284" height="457" viewBox="0 0 284 457" fill="none" xmlns="http://www.w3.org/2000/svg">
<path fill-rule="evenodd" clip-rule="evenodd" d="M231.5 0C231.5 0 224.037 158.819 209.111 167.875C192.693 175.36 127.019 125.888 127.019 125.888C127.019 125.888 182.32 188.832 173.289 203.801C162.841 218.77 0 227.751 0 227.751C0 227.751 162.841 238.229 173.289 253.273C182.32 268.242 127.019 331.186 127.019 331.186C127.019 331.186 192.768 281.713 209.111 289.198C224.037 298.179 231.5 457 231.5 457C231.5 457 238.963 298.179 255.456 289.198C271.874 281.713 336.13 331.186 336.13 331.186C336.13 331.186 282.322 268.242 291.353 253.273C300.383 238.304 463 227.751 463 227.751C463 227.751 300.159 218.77 291.353 203.801C282.546 188.832 336.13 125.888 336.13 125.888C336.13 125.888 271.874 175.36 255.456 167.875C240.455 158.595 232.993 22.5281 231.5 0Z" fill="#FDFBE2"/>
</svg>
