<svg width="28" height="29" viewBox="0 0 28 29" fill="none" xmlns="http://www.w3.org/2000/svg">
<path fill-rule="evenodd" clip-rule="evenodd" d="M0.120488 14.1682C0.120488 14.1682 9.52417 13.7915 10.068 12.8826C10.5195 11.8815 7.6257 7.83726 7.6257 7.83726C7.6257 7.83726 11.3223 11.2535 12.2129 10.7084C13.1043 10.0765 13.7208 0.114855 13.7208 0.114855C13.7208 0.114855 14.256 10.0863 15.1409 10.7333C16.0222 11.2935 19.7764 7.94079 19.7764 7.94079C19.7764 7.94079 16.814 11.9397 17.2485 12.9438C17.7723 13.8618 27.1683 14.3986 27.1683 14.3986C27.1683 14.3986 17.7645 14.7753 17.2243 15.7801C16.7728 16.7812 19.6673 20.7387 19.6673 20.7387C19.6673 20.7387 15.97 17.4139 15.0794 17.959C14.1887 18.5041 13.4793 28.4512 13.4793 28.4512C13.4793 28.4512 13.0327 18.4805 12.1513 17.934C11.27 17.3875 7.51666 20.6352 7.51666 20.6352C7.51666 20.6352 10.4782 16.7276 10.0438 15.719C9.50232 14.7962 1.45305 14.2709 0.120488 14.1682Z" fill="#FEDC97"/>
</svg>
