<svg width="55" height="57" viewBox="0 0 55 57" fill="none" xmlns="http://www.w3.org/2000/svg">
<path fill-rule="evenodd" clip-rule="evenodd" d="M0.240135 28.2059C0.240135 28.2059 18.9609 27.4561 20.0435 25.6466C20.9424 23.6537 15.1815 15.6024 15.1815 15.6024C15.1815 15.6024 22.5405 22.4033 24.3136 21.3181C26.0882 20.0602 27.3155 0.228652 27.3155 0.228652C27.3155 0.228652 28.381 20.0797 30.1427 21.3678C31.8971 22.4831 39.371 15.8085 39.371 15.8085C39.371 15.8085 33.4735 23.7696 34.3384 25.7684C35.3812 27.596 54.0867 28.6647 54.0867 28.6647C54.0867 28.6647 35.3657 29.4145 34.2903 31.415C33.3914 33.4079 39.1539 41.2865 39.1539 41.2865C39.1539 41.2865 31.7933 34.6674 30.0202 35.7526C28.2471 36.8378 26.8348 56.6404 26.8348 56.6404C26.8348 56.6404 25.9457 36.7909 24.1911 35.7029C22.4365 34.6149 14.9644 41.0804 14.9644 41.0804C14.9644 41.0804 20.8602 33.3012 19.9954 31.2932C18.9174 29.4562 2.89299 28.4104 0.240135 28.2059Z" fill="#FEDC97"/>
</svg>
