<svg preserveAspectRatio="none" width="100%" height="100%" viewBox="0 0 1024 726" fill="none" xmlns="http://www.w3.org/2000/svg">
<g clip-path="url(#clip0_1337:580)">
<path d="M907.478 197.476C878.78 232.522 856.098 272.133 827.835 307.541C799.572 342.949 709.552 378.429 665.796 390.358C764.266 389.85 926.537 495.741 1024.99 495.234C1026.2 428.824 1018.11 252.537 1019.31 186.127C1019.47 176.634 1034.89 96.1218 1026.96 96.8175C972.801 101.586 928.044 172.431 907.478 197.476Z" fill="#FEDC97"/>
<path d="M910.057 210.506C881.36 245.552 858.677 285.163 830.342 320.571C802.007 355.979 706.247 392.517 662.549 404.446C761.019 403.938 928.421 501.046 1026.89 500.539C1028.08 434.129 1020.61 265.553 1021.82 199.143C1021.98 189.664 1034.86 116.529 1026.89 117.268C972.8 122.037 930.624 185.388 910.057 210.506Z" fill="#D48C8D"/>
<path d="M915.957 222.028C887.259 257.074 864.577 296.685 836.314 332.093C808.051 367.501 709.494 402.967 665.796 414.896C764.266 414.388 928.494 501.046 1026.96 500.539C1028.15 434.129 1026.59 277.09 1027.79 210.665C1027.95 201.172 1035.04 128.052 1027.17 128.791C973.004 133.574 936.523 196.925 915.957 222.028Z" fill="#28666E"/>
<path d="M161.126 70.0044C206.622 117.428 280.539 230.493 332.267 271.061C370.864 301.352 420.316 313.672 468.508 322.528C579.239 342.819 730.843 329.543 840.299 355.993C937.161 379.401 948.494 409.62 1024.93 477.856C1027.33 479.987 1024.37 498.365 1026.91 500.539C651.027 519.714 376.661 481.436 0.362305 472.175V-0.043457C11.7688 0.898631 23.4652 1.31894 34.7993 3.30458C82.4544 11.6674 127.573 35.0312 161.126 70.0044Z" fill="#FEDC97"/>
<path d="M161.126 91.9626C206.622 139.386 280.539 252.465 332.267 293.033C370.864 323.31 420.316 335.63 468.508 344.5C579.239 364.791 730.843 343.326 838.633 375.98C917.333 399.823 911.217 414.36 1026.91 488.219V500.539C657.723 518.961 372.284 503.293 0.362305 494.191V21.9727C11.7688 22.9003 23.4652 23.3206 34.7993 25.3062C82.4544 33.6256 127.573 57.0038 161.126 91.9626Z" fill="#D48C8D"/>
<path d="M160.778 119.5C206.274 166.923 280.206 280.003 331.905 320.571C370.516 350.848 419.954 363.182 468.145 372.038C578.892 392.329 728.916 359.24 836.661 391.894C915.377 415.751 910.855 426.679 1026.53 500.597C650.679 519.714 376.299 530.946 0 521.728V49.5103C11.421 50.4378 23.1899 50.8582 34.437 52.8438C82.1066 61.1632 127.225 84.5414 160.778 119.5Z" fill="#28666E"/>
<path d="M981.28 316.933C947.553 321.948 944.321 326.006 940.321 368.342C936.335 326.006 933.074 321.962 899.376 316.933C933.103 311.933 936.335 307.875 940.321 265.539C944.35 307.875 947.553 311.933 981.28 316.933Z" fill="#FDFBE1"/>
<path d="M992.512 355.211C979.236 357.182 978.018 358.791 976.381 375.502C974.815 358.834 973.482 357.226 960.264 355.211C973.54 353.24 974.757 351.646 976.381 334.92C977.96 351.646 979.236 353.24 992.512 355.211Z" fill="#FDFBE1"/>
<path d="M150.661 346.5C137.385 348.471 136.168 350.08 134.53 366.791C132.965 350.124 131.631 348.515 118.413 346.5C131.689 344.529 132.907 342.935 134.53 326.209C136.11 342.935 137.385 344.529 150.661 346.5Z" fill="#FDFBE1"/>
<path d="M344.848 438.564C331.572 440.549 330.354 442.144 328.731 458.855C327.151 442.187 325.832 440.593 312.6 438.564C325.876 436.592 327.093 434.998 328.731 418.272C330.296 434.998 331.572 436.592 344.848 438.564Z" fill="#FDFBE1"/>
<path d="M196.201 311.643C202.941 311.643 208.404 306.179 208.404 299.439C208.404 292.699 202.941 287.235 196.201 287.235C189.461 287.235 183.997 292.699 183.997 299.439C183.997 306.179 189.461 311.643 196.201 311.643Z" fill="#FDFBE1"/>
<path d="M140.009 276.452C143.027 276.452 145.473 274.006 145.473 270.988C145.473 267.97 143.027 265.524 140.009 265.524C136.991 265.524 134.545 267.97 134.545 270.988C134.545 274.006 136.991 276.452 140.009 276.452Z" fill="#FDFBE1"/>
<path d="M208.405 351.964C211.422 351.964 213.869 349.518 213.869 346.5C213.869 343.482 211.422 341.036 208.405 341.036C205.387 341.036 202.94 343.482 202.94 346.5C202.94 349.518 205.387 351.964 208.405 351.964Z" fill="#FDFBE1"/>
</g>
<defs>
<clipPath id="clip0_1337:580">
<rect width="1030.89" height="524.975" fill="white"/>
</clipPath>
</defs>
</svg>
