<svg width="50%" height="50%" viewBox="0 0 592 112" fill="none" xmlns="http://www.w3.org/2000/svg">
<rect width="592" height="112" fill="#033F63"/>
<path d="M238 12.5V104.5" stroke="#FEDC97" stroke-width="3"/>
<path d="M42.896 64V62.502C44.3893 61.4473 45.472 60.4533 46.144 59.52C46.816 58.5867 47.152 57.7793 47.152 57.098C47.152 56.706 47.0447 56.4027 46.83 56.188C46.6153 55.9733 46.3167 55.866 45.934 55.866C45.5047 55.866 45.1407 55.9967 44.842 56.258C44.5433 56.51 44.324 56.846 44.184 57.266L42.574 56.398C42.7327 55.9127 42.9847 55.4833 43.33 55.11C43.6753 54.7367 44.0907 54.4473 44.576 54.242C45.0707 54.0273 45.612 53.92 46.2 53.92C46.844 53.92 47.404 54.046 47.88 54.298C48.356 54.5407 48.7247 54.886 48.986 55.334C49.2473 55.7727 49.3733 56.2813 49.364 56.86C49.364 57.728 49.084 58.61 48.524 59.506C47.9733 60.3927 47.0493 61.298 45.752 62.222H49.602V64H42.896ZM54.8805 64.14C54.5912 64.14 54.2785 64.1167 53.9425 64.07C53.6065 64.0327 53.2799 63.9673 52.9625 63.874C52.6452 63.7713 52.3745 63.6407 52.1505 63.482L52.6685 61.55C52.9859 61.746 53.3405 61.9047 53.7325 62.026C54.1245 62.138 54.5492 62.194 55.0065 62.194C55.6039 62.194 56.0472 62.0727 56.3365 61.83C56.6259 61.5873 56.7705 61.2607 56.7705 60.85C56.7705 60.6167 56.7099 60.402 56.5885 60.206C56.4672 60.0007 56.2339 59.8373 55.8885 59.716C55.5432 59.5853 55.0392 59.506 54.3765 59.478L52.7385 59.422L53.1725 54.06H58.4645V55.838H55.1745L55.0205 57.672C56.3179 57.728 57.3025 58.022 57.9745 58.554C58.6465 59.086 58.9825 59.842 58.9825 60.822C58.9825 61.466 58.8145 62.04 58.4785 62.544C58.1425 63.0387 57.6665 63.4307 57.0505 63.72C56.4345 64 55.7112 64.14 54.8805 64.14ZM68.1164 64.14C67.3231 64.14 66.6417 63.9533 66.0724 63.58C65.5124 63.2067 65.1297 62.6607 64.9244 61.942L66.7864 61.116C66.9264 61.452 67.0991 61.704 67.3044 61.872C67.5097 62.04 67.7711 62.124 68.0884 62.124C68.4151 62.124 68.6671 62.0213 68.8444 61.816C69.0311 61.6107 69.1244 61.298 69.1244 60.878V54.06H71.4204V60.626C71.4204 61.7367 71.1311 62.6 70.5524 63.216C69.9831 63.832 69.1711 64.14 68.1164 64.14ZM81.1561 56.902V64H79.0001L79.0701 62.936C78.5567 63.7387 77.7961 64.14 76.7881 64.14C76.1534 64.14 75.6121 63.9953 75.1641 63.706C74.7161 63.4167 74.3754 63.0153 74.1421 62.502C73.9087 61.9887 73.7921 61.4007 73.7921 60.738C73.7921 59.9447 73.9554 59.2493 74.2821 58.652C74.6087 58.0547 75.0474 57.5927 75.5981 57.266C76.1487 56.93 76.7647 56.762 77.4461 56.762C77.8941 56.762 78.2907 56.8553 78.6361 57.042C78.9814 57.2193 79.2474 57.4573 79.4341 57.756L79.6161 56.902H81.1561ZM77.6561 58.624C77.1427 58.624 76.7367 58.8153 76.4381 59.198C76.1487 59.5807 76.0041 60.0707 76.0041 60.668C76.0041 61.1813 76.1161 61.578 76.3401 61.858C76.5734 62.138 76.8861 62.278 77.2781 62.278C77.7541 62.278 78.1601 62.082 78.4961 61.69C78.8414 61.298 79.0141 60.7847 79.0141 60.15C79.0141 59.674 78.8927 59.3007 78.6501 59.03C78.4074 58.7593 78.0761 58.624 77.6561 58.624ZM83.8104 64V56.874H85.9384L85.8404 58.4C86.1297 57.8773 86.4984 57.476 86.9464 57.196C87.4037 56.9067 87.9124 56.762 88.4724 56.762C89.3217 56.762 89.9564 57.0513 90.3764 57.63C90.7964 58.1993 91.0017 59.0207 90.9924 60.094L90.9644 64H88.8224L88.8504 60.248C88.8597 59.7627 88.785 59.394 88.6264 59.142C88.477 58.8807 88.2344 58.75 87.8984 58.75C87.6184 58.75 87.3617 58.834 87.1284 59.002C86.895 59.1607 86.6897 59.436 86.5124 59.828C86.3444 60.22 86.209 60.7567 86.1064 61.438C86.0037 62.1193 85.9477 62.9733 85.9384 64H83.8104ZM98.0744 61.354V59.45H102.498V61.354H98.0744ZM109.755 64V62.502C111.249 61.4473 112.331 60.4533 113.003 59.52C113.675 58.5867 114.011 57.7793 114.011 57.098C114.011 56.706 113.904 56.4027 113.689 56.188C113.475 55.9733 113.176 55.866 112.793 55.866C112.364 55.866 112 55.9967 111.701 56.258C111.403 56.51 111.183 56.846 111.043 57.266L109.433 56.398C109.592 55.9127 109.844 55.4833 110.189 55.11C110.535 54.7367 110.95 54.4473 111.435 54.242C111.93 54.0273 112.471 53.92 113.059 53.92C113.703 53.92 114.263 54.046 114.739 54.298C115.215 54.5407 115.584 54.886 115.845 55.334C116.107 55.7727 116.233 56.2813 116.223 56.86C116.223 57.728 115.943 58.61 115.383 59.506C114.833 60.3927 113.909 61.298 112.611 62.222H116.461V64H109.755ZM122.762 64.14C121.549 64.14 120.601 63.7433 119.92 62.95C119.239 62.1567 118.898 60.92 118.898 59.24C118.898 58.1107 119.085 57.154 119.458 56.37C119.841 55.5767 120.354 54.97 120.998 54.55C121.642 54.13 122.356 53.92 123.14 53.92C124.708 53.92 125.786 54.6433 126.374 56.09L124.554 56.958C124.405 56.5847 124.209 56.3093 123.966 56.132C123.723 55.9547 123.415 55.866 123.042 55.866C122.501 55.866 122.048 56.104 121.684 56.58C121.32 57.0467 121.124 57.7233 121.096 58.61C121.357 58.302 121.675 58.0687 122.048 57.91C122.421 57.7513 122.832 57.672 123.28 57.672C123.821 57.672 124.325 57.7887 124.792 58.022C125.268 58.2553 125.646 58.6007 125.926 59.058C126.215 59.506 126.36 60.0613 126.36 60.724C126.36 61.3587 126.211 61.9373 125.912 62.46C125.623 62.9733 125.207 63.384 124.666 63.692C124.125 63.9907 123.49 64.14 122.762 64.14ZM122.748 62.348C123.177 62.348 123.518 62.2033 123.77 61.914C124.031 61.6247 124.162 61.2933 124.162 60.92C124.162 60.4813 124.036 60.1313 123.784 59.87C123.541 59.5993 123.196 59.464 122.748 59.464C122.328 59.464 121.983 59.6087 121.712 59.898C121.441 60.178 121.306 60.5233 121.306 60.934C121.306 61.4007 121.441 61.7553 121.712 61.998C121.992 62.2313 122.337 62.348 122.748 62.348ZM134.976 64.14C134.182 64.14 133.501 63.9533 132.932 63.58C132.372 63.2067 131.989 62.6607 131.784 61.942L133.646 61.116C133.786 61.452 133.958 61.704 134.164 61.872C134.369 62.04 134.63 62.124 134.948 62.124C135.274 62.124 135.526 62.0213 135.704 61.816C135.89 61.6107 135.984 61.298 135.984 60.878V54.06H138.28V60.626C138.28 61.7367 137.99 62.6 137.412 63.216C136.842 63.832 136.03 64.14 134.976 64.14ZM148.015 56.902V64H145.859L145.929 62.936C145.416 63.7387 144.655 64.14 143.647 64.14C143.013 64.14 142.471 63.9953 142.023 63.706C141.575 63.4167 141.235 63.0153 141.001 62.502C140.768 61.9887 140.651 61.4007 140.651 60.738C140.651 59.9447 140.815 59.2493 141.141 58.652C141.468 58.0547 141.907 57.5927 142.457 57.266C143.008 56.93 143.624 56.762 144.305 56.762C144.753 56.762 145.15 56.8553 145.495 57.042C145.841 57.2193 146.107 57.4573 146.293 57.756L146.475 56.902H148.015ZM144.515 58.624C144.002 58.624 143.596 58.8153 143.297 59.198C143.008 59.5807 142.863 60.0707 142.863 60.668C142.863 61.1813 142.975 61.578 143.199 61.858C143.433 62.138 143.745 62.278 144.137 62.278C144.613 62.278 145.019 62.082 145.355 61.69C145.701 61.298 145.873 60.7847 145.873 60.15C145.873 59.674 145.752 59.3007 145.509 59.03C145.267 58.7593 144.935 58.624 144.515 58.624ZM150.67 64V56.874H152.798L152.7 58.4C152.989 57.8773 153.358 57.476 153.806 57.196C154.263 56.9067 154.772 56.762 155.332 56.762C156.181 56.762 156.816 57.0513 157.236 57.63C157.656 58.1993 157.861 59.0207 157.852 60.094L157.824 64H155.682L155.71 60.248C155.719 59.7627 155.644 59.394 155.486 59.142C155.336 58.8807 155.094 58.75 154.758 58.75C154.478 58.75 154.221 58.834 153.988 59.002C153.754 59.1607 153.549 59.436 153.372 59.828C153.204 60.22 153.068 60.7567 152.966 61.438C152.863 62.1193 152.807 62.9733 152.798 64H150.67ZM164.99 64V62.502C166.483 61.4473 167.566 60.4533 168.238 59.52C168.91 58.5867 169.246 57.7793 169.246 57.098C169.246 56.706 169.138 56.4027 168.924 56.188C168.709 55.9733 168.41 55.866 168.028 55.866C167.598 55.866 167.234 55.9967 166.936 56.258C166.637 56.51 166.418 56.846 166.278 57.266L164.668 56.398C164.826 55.9127 165.078 55.4833 165.424 55.11C165.769 54.7367 166.184 54.4473 166.67 54.242C167.164 54.0273 167.706 53.92 168.294 53.92C168.938 53.92 169.498 54.046 169.974 54.298C170.45 54.5407 170.818 54.886 171.08 55.334C171.341 55.7727 171.467 56.2813 171.458 56.86C171.458 57.728 171.178 58.61 170.618 59.506C170.067 60.3927 169.143 61.298 167.846 62.222H171.696V64H164.99ZM177.744 64.14C176.503 64.1587 175.56 63.7667 174.916 62.964C174.272 62.152 173.95 60.9013 173.95 59.212C173.95 58.1667 174.104 57.2473 174.412 56.454C174.73 55.6513 175.178 55.0307 175.756 54.592C176.344 54.144 177.044 53.92 177.856 53.92C178.986 53.92 179.863 54.3353 180.488 55.166C181.114 55.9967 181.426 57.2193 181.426 58.834C181.426 59.8607 181.277 60.7753 180.978 61.578C180.689 62.3713 180.269 62.9967 179.718 63.454C179.168 63.902 178.51 64.1307 177.744 64.14ZM177.674 62.208C178.188 62.208 178.57 61.9233 178.822 61.354C179.074 60.7753 179.2 59.94 179.2 58.848C179.2 56.8413 178.734 55.838 177.8 55.838C177.278 55.838 176.876 56.132 176.596 56.72C176.326 57.2987 176.19 58.1153 176.19 59.17C176.19 60.1967 176.307 60.962 176.54 61.466C176.783 61.9607 177.161 62.208 177.674 62.208ZM183.779 64V62.502C185.272 61.4473 186.355 60.4533 187.027 59.52C187.699 58.5867 188.035 57.7793 188.035 57.098C188.035 56.706 187.927 56.4027 187.713 56.188C187.498 55.9733 187.199 55.866 186.817 55.866C186.387 55.866 186.023 55.9967 185.725 56.258C185.426 56.51 185.207 56.846 185.067 57.266L183.457 56.398C183.615 55.9127 183.867 55.4833 184.213 55.11C184.558 54.7367 184.973 54.4473 185.459 54.242C185.953 54.0273 186.495 53.92 187.083 53.92C187.727 53.92 188.287 54.046 188.763 54.298C189.239 54.5407 189.607 54.886 189.869 55.334C190.13 55.7727 190.256 56.2813 190.247 56.86C190.247 57.728 189.967 58.61 189.407 59.506C188.856 60.3927 187.932 61.298 186.635 62.222H190.485V64H183.779ZM193.173 64V62.502C194.667 61.4473 195.749 60.4533 196.421 59.52C197.093 58.5867 197.429 57.7793 197.429 57.098C197.429 56.706 197.322 56.4027 197.107 56.188C196.893 55.9733 196.594 55.866 196.211 55.866C195.782 55.866 195.418 55.9967 195.119 56.258C194.821 56.51 194.601 56.846 194.461 57.266L192.851 56.398C193.01 55.9127 193.262 55.4833 193.607 55.11C193.953 54.7367 194.368 54.4473 194.853 54.242C195.348 54.0273 195.889 53.92 196.477 53.92C197.121 53.92 197.681 54.046 198.157 54.298C198.633 54.5407 199.002 54.886 199.263 55.334C199.525 55.7727 199.651 56.2813 199.641 56.86C199.641 57.728 199.361 58.61 198.801 59.506C198.251 60.3927 197.327 61.298 196.029 62.222H199.879V64H193.173Z" fill="#FEDC97"/>
<path d="M274.8 64.14C274.007 64.14 273.325 63.9533 272.756 63.58C272.196 63.2067 271.813 62.6607 271.608 61.942L273.47 61.116C273.61 61.452 273.783 61.704 273.988 61.872C274.193 62.04 274.455 62.124 274.772 62.124C275.099 62.124 275.351 62.0213 275.528 61.816C275.715 61.6107 275.808 61.298 275.808 60.878V54.06H278.104V60.626C278.104 61.7367 277.815 62.6 277.236 63.216C276.667 63.832 275.855 64.14 274.8 64.14ZM283.192 64.14C282.37 64.14 281.75 63.86 281.33 63.3C280.91 62.74 280.704 61.9607 280.714 60.962L280.742 56.874H282.884L282.856 60.794C282.856 61.214 282.93 61.5453 283.08 61.788C283.229 62.0307 283.462 62.152 283.78 62.152C284.05 62.152 284.298 62.068 284.522 61.9C284.746 61.732 284.942 61.452 285.11 61.06C285.278 60.668 285.408 60.1313 285.502 59.45C285.604 58.7687 285.66 57.91 285.67 56.874H287.742V64H285.6L285.698 62.628C285.418 63.1133 285.063 63.4867 284.634 63.748C284.204 64.0093 283.724 64.14 283.192 64.14ZM297.385 53.64V64H295.229L295.299 62.95C294.785 63.7433 294.025 64.14 293.017 64.14C292.382 64.14 291.841 63.9953 291.393 63.706C290.945 63.4167 290.604 63.0153 290.371 62.502C290.137 61.9887 290.021 61.4007 290.021 60.738C290.021 59.9447 290.184 59.2493 290.511 58.652C290.837 58.0547 291.276 57.5927 291.827 57.266C292.377 56.93 292.993 56.762 293.675 56.762C293.992 56.762 294.286 56.8087 294.557 56.902C294.827 56.9953 295.061 57.126 295.257 57.294L295.243 56.874V53.64H297.385ZM293.885 58.624C293.371 58.624 292.965 58.8153 292.667 59.198C292.377 59.5807 292.233 60.0707 292.233 60.668C292.233 61.1813 292.345 61.578 292.569 61.858C292.802 62.138 293.115 62.278 293.507 62.278C293.983 62.278 294.389 62.082 294.725 61.69C295.07 61.298 295.243 60.7847 295.243 60.15C295.243 59.674 295.121 59.3007 294.879 59.03C294.636 58.7593 294.305 58.624 293.885 58.624ZM302.629 66.94C302.349 66.94 302.041 66.9167 301.705 66.87C301.378 66.8327 301.066 66.772 300.767 66.688C300.468 66.604 300.212 66.492 299.997 66.352L300.515 64.532C300.823 64.6907 301.159 64.8167 301.523 64.91C301.896 65.0127 302.307 65.064 302.755 65.064C303.539 65.064 304.094 64.8867 304.421 64.532C304.748 64.1773 304.934 63.622 304.981 62.866L304.995 62.74C304.491 63.4867 303.744 63.86 302.755 63.86C302.102 63.86 301.546 63.7247 301.089 63.454C300.632 63.1833 300.282 62.8053 300.039 62.32C299.796 61.8347 299.675 61.2747 299.675 60.64C299.675 59.8747 299.834 59.2027 300.151 58.624C300.478 58.0453 300.916 57.5927 301.467 57.266C302.018 56.93 302.643 56.762 303.343 56.762C303.81 56.762 304.216 56.8553 304.561 57.042C304.916 57.2193 305.186 57.4573 305.373 57.756L305.555 56.902H307.095V62.614C307.095 63.5847 306.908 64.3873 306.535 65.022C306.171 65.666 305.653 66.1467 304.981 66.464C304.318 66.7813 303.534 66.94 302.629 66.94ZM303.567 58.624C303.044 58.624 302.634 58.8013 302.335 59.156C302.036 59.5107 301.887 59.9587 301.887 60.5C301.887 60.976 302.004 61.3447 302.237 61.606C302.48 61.8673 302.806 61.998 303.217 61.998C303.544 61.998 303.838 61.914 304.099 61.746C304.36 61.578 304.566 61.3447 304.715 61.046C304.874 60.7473 304.953 60.4067 304.953 60.024C304.953 59.5947 304.827 59.254 304.575 59.002C304.323 58.75 303.987 58.624 303.567 58.624ZM311.89 56.874V64H309.748V56.874H311.89ZM310.812 56.034C310.401 56.034 310.075 55.908 309.832 55.656C309.589 55.404 309.468 55.1053 309.468 54.76C309.468 54.4147 309.585 54.116 309.818 53.864C310.061 53.612 310.392 53.486 310.812 53.486C311.223 53.486 311.549 53.612 311.792 53.864C312.035 54.116 312.156 54.4147 312.156 54.76C312.156 55.1053 312.035 55.404 311.792 55.656C311.549 55.908 311.223 56.034 310.812 56.034ZM314.521 64V56.874H316.649L316.551 58.4C316.841 57.8773 317.209 57.476 317.657 57.196C318.115 56.9067 318.623 56.762 319.183 56.762C320.033 56.762 320.667 57.0513 321.087 57.63C321.507 58.1993 321.713 59.0207 321.703 60.094L321.675 64H319.533L319.561 60.248C319.571 59.7627 319.496 59.394 319.337 59.142C319.188 58.8807 318.945 58.75 318.609 58.75C318.329 58.75 318.073 58.834 317.839 59.002C317.606 59.1607 317.401 59.436 317.223 59.828C317.055 60.22 316.92 60.7567 316.817 61.438C316.715 62.1193 316.659 62.9733 316.649 64H314.521ZM326.834 66.94C326.554 66.94 326.246 66.9167 325.91 66.87C325.583 66.8327 325.271 66.772 324.972 66.688C324.673 66.604 324.417 66.492 324.202 66.352L324.72 64.532C325.028 64.6907 325.364 64.8167 325.728 64.91C326.101 65.0127 326.512 65.064 326.96 65.064C327.744 65.064 328.299 64.8867 328.626 64.532C328.953 64.1773 329.139 63.622 329.186 62.866L329.2 62.74C328.696 63.4867 327.949 63.86 326.96 63.86C326.307 63.86 325.751 63.7247 325.294 63.454C324.837 63.1833 324.487 62.8053 324.244 62.32C324.001 61.8347 323.88 61.2747 323.88 60.64C323.88 59.8747 324.039 59.2027 324.356 58.624C324.683 58.0453 325.121 57.5927 325.672 57.266C326.223 56.93 326.848 56.762 327.548 56.762C328.015 56.762 328.421 56.8553 328.766 57.042C329.121 57.2193 329.391 57.4573 329.578 57.756L329.76 56.902H331.3V62.614C331.3 63.5847 331.113 64.3873 330.74 65.022C330.376 65.666 329.858 66.1467 329.186 66.464C328.523 66.7813 327.739 66.94 326.834 66.94ZM327.772 58.624C327.249 58.624 326.839 58.8013 326.54 59.156C326.241 59.5107 326.092 59.9587 326.092 60.5C326.092 60.976 326.209 61.3447 326.442 61.606C326.685 61.8673 327.011 61.998 327.422 61.998C327.749 61.998 328.043 61.914 328.304 61.746C328.565 61.578 328.771 61.3447 328.92 61.046C329.079 60.7473 329.158 60.4067 329.158 60.024C329.158 59.5947 329.032 59.254 328.78 59.002C328.528 58.75 328.192 58.624 327.772 58.624Z" fill="#D48C8D"/>
<path d="M338.48 66.8V56.874H340.636L340.566 57.966C341.08 57.1633 341.84 56.762 342.848 56.762C343.483 56.762 344.024 56.9067 344.472 57.196C344.92 57.4853 345.261 57.8867 345.494 58.4C345.728 58.9133 345.844 59.5013 345.844 60.164C345.844 60.9573 345.681 61.6527 345.354 62.25C345.028 62.8473 344.589 63.314 344.038 63.65C343.488 63.9767 342.872 64.14 342.19 64.14C341.864 64.14 341.565 64.0933 341.294 64C341.033 63.9067 340.8 63.776 340.594 63.608L340.622 64V66.8H338.48ZM341.966 62.278C342.48 62.278 342.886 62.0867 343.184 61.704C343.483 61.312 343.632 60.8173 343.632 60.22C343.632 59.716 343.516 59.324 343.282 59.044C343.058 58.764 342.75 58.624 342.358 58.624C341.882 58.624 341.472 58.82 341.126 59.212C340.79 59.604 340.622 60.1173 340.622 60.752C340.622 61.2187 340.744 61.592 340.986 61.872C341.229 62.1427 341.556 62.278 341.966 62.278ZM351.649 64.14C350.855 64.14 350.169 63.9953 349.591 63.706C349.012 63.4073 348.564 62.992 348.247 62.46C347.929 61.9187 347.771 61.2793 347.771 60.542C347.771 59.7953 347.929 59.1373 348.247 58.568C348.573 57.9987 349.007 57.5553 349.549 57.238C350.099 56.9207 350.72 56.762 351.411 56.762C352.195 56.762 352.834 56.9393 353.329 57.294C353.823 57.6487 354.164 58.1527 354.351 58.806C354.547 59.45 354.589 60.2013 354.477 61.06H349.955C350.011 61.4147 350.197 61.7133 350.515 61.956C350.832 62.1893 351.266 62.306 351.817 62.306C352.069 62.306 352.335 62.2547 352.615 62.152C352.895 62.04 353.133 61.8767 353.329 61.662L354.519 62.922C354.211 63.2953 353.828 63.594 353.371 63.818C352.923 64.0327 352.349 64.14 351.649 64.14ZM351.453 58.316C351.079 58.316 350.762 58.428 350.501 58.652C350.249 58.876 350.081 59.1887 349.997 59.59H352.671C352.68 59.1513 352.573 58.8293 352.349 58.624C352.134 58.4187 351.835 58.316 351.453 58.316ZM361.677 58.946C361.49 58.8713 361.238 58.834 360.921 58.834C360.436 58.834 360.048 59.0067 359.759 59.352C359.47 59.688 359.26 60.2387 359.129 61.004C358.998 61.76 358.933 62.7587 358.933 64H356.805V59.38L356.777 56.874H358.919L358.821 58.652C359.073 57.9707 359.409 57.4853 359.829 57.196C360.258 56.9067 360.716 56.762 361.201 56.762C361.36 56.762 361.504 56.7713 361.635 56.79C361.775 56.8087 361.915 56.8413 362.055 56.888L361.677 58.946ZM365.907 56.874V64H363.765V56.874H365.907ZM364.829 56.034C364.419 56.034 364.092 55.908 363.849 55.656C363.607 55.404 363.485 55.1053 363.485 54.76C363.485 54.4147 363.602 54.116 363.835 53.864C364.078 53.612 364.409 53.486 364.829 53.486C365.24 53.486 365.567 53.612 365.809 53.864C366.052 54.116 366.173 54.4147 366.173 54.76C366.173 55.1053 366.052 55.404 365.809 55.656C365.567 55.908 365.24 56.034 364.829 56.034ZM372.025 56.762C373.136 56.762 374.004 57.0793 374.629 57.714C375.264 58.3487 375.581 59.2073 375.581 60.29C375.581 61.0273 375.422 61.6853 375.105 62.264C374.788 62.8427 374.34 63.3 373.761 63.636C373.182 63.972 372.501 64.14 371.717 64.14C370.616 64.14 369.748 63.8227 369.113 63.188C368.488 62.5533 368.175 61.6993 368.175 60.626C368.175 59.8793 368.334 59.2167 368.651 58.638C368.968 58.0593 369.416 57.602 369.995 57.266C370.574 56.93 371.25 56.762 372.025 56.762ZM371.815 62.278C372.291 62.278 372.669 62.1007 372.949 61.746C373.238 61.382 373.383 60.8967 373.383 60.29C373.383 59.7673 373.257 59.3613 373.005 59.072C372.753 58.7733 372.408 58.624 371.969 58.624C371.484 58.624 371.096 58.806 370.807 59.17C370.527 59.5247 370.387 60.0053 370.387 60.612C370.387 61.1347 370.508 61.5453 370.751 61.844C371.003 62.1333 371.358 62.278 371.815 62.278ZM384.879 53.64V64H382.723L382.793 62.95C382.279 63.7433 381.519 64.14 380.511 64.14C379.876 64.14 379.335 63.9953 378.887 63.706C378.439 63.4167 378.098 63.0153 377.865 62.502C377.631 61.9887 377.515 61.4007 377.515 60.738C377.515 59.9447 377.678 59.2493 378.005 58.652C378.331 58.0547 378.77 57.5927 379.321 57.266C379.871 56.93 380.487 56.762 381.169 56.762C381.486 56.762 381.78 56.8087 382.051 56.902C382.321 56.9953 382.555 57.126 382.751 57.294L382.737 56.874V53.64H384.879ZM381.379 58.624C380.865 58.624 380.459 58.8153 380.161 59.198C379.871 59.5807 379.727 60.0707 379.727 60.668C379.727 61.1813 379.839 61.578 380.063 61.858C380.296 62.138 380.609 62.278 381.001 62.278C381.477 62.278 381.883 62.082 382.219 61.69C382.564 61.298 382.737 60.7847 382.737 60.15C382.737 59.674 382.615 59.3007 382.373 59.03C382.13 58.7593 381.799 58.624 381.379 58.624ZM392.452 64V58.652H391.136V56.874H392.452V56.65C392.452 56.006 392.592 55.4507 392.872 54.984C393.152 54.508 393.53 54.144 394.006 53.892C394.492 53.6307 395.038 53.5 395.644 53.5C396.363 53.5 396.946 53.6773 397.394 54.032C397.842 54.3867 398.118 54.9327 398.22 55.67L396.386 55.894C396.358 55.7073 396.274 55.5627 396.134 55.46C395.994 55.3573 395.817 55.306 395.602 55.306C395.276 55.306 395.019 55.4087 394.832 55.614C394.655 55.81 394.566 56.0947 394.566 56.468V56.874H396.484V58.652H394.594V64H392.452ZM401.673 56.762C402.784 56.762 403.652 57.0793 404.277 57.714C404.912 58.3487 405.229 59.2073 405.229 60.29C405.229 61.0273 405.071 61.6853 404.753 62.264C404.436 62.8427 403.988 63.3 403.409 63.636C402.831 63.972 402.149 64.14 401.365 64.14C400.264 64.14 399.396 63.8227 398.761 63.188C398.136 62.5533 397.823 61.6993 397.823 60.626C397.823 59.8793 397.982 59.2167 398.299 58.638C398.617 58.0593 399.065 57.602 399.643 57.266C400.222 56.93 400.899 56.762 401.673 56.762ZM401.463 62.278C401.939 62.278 402.317 62.1007 402.597 61.746C402.887 61.382 403.031 60.8967 403.031 60.29C403.031 59.7673 402.905 59.3613 402.653 59.072C402.401 58.7733 402.056 58.624 401.617 58.624C401.132 58.624 400.745 58.806 400.455 59.17C400.175 59.5247 400.035 60.0053 400.035 60.612C400.035 61.1347 400.157 61.5453 400.399 61.844C400.651 62.1333 401.006 62.278 401.463 62.278ZM412.413 58.946C412.227 58.8713 411.975 58.834 411.657 58.834C411.172 58.834 410.785 59.0067 410.495 59.352C410.206 59.688 409.996 60.2387 409.865 61.004C409.735 61.76 409.669 62.7587 409.669 64H407.541V59.38L407.513 56.874H409.655L409.557 58.652C409.809 57.9707 410.145 57.4853 410.565 57.196C410.995 56.9067 411.452 56.762 411.937 56.762C412.096 56.762 412.241 56.7713 412.371 56.79C412.511 56.8087 412.651 56.8413 412.791 56.888L412.413 58.946ZM421.647 64.14C420.611 64.14 419.827 63.9487 419.295 63.566C418.763 63.174 418.45 62.6607 418.357 62.026L420.135 61.578C420.191 61.8487 420.345 62.068 420.597 62.236C420.849 62.3947 421.194 62.474 421.633 62.474C422.333 62.474 422.683 62.3107 422.683 61.984C422.683 61.816 422.58 61.69 422.375 61.606C422.179 61.5127 421.857 61.424 421.409 61.34C420.569 61.1907 419.916 60.9527 419.449 60.626C418.992 60.2993 418.763 59.8 418.763 59.128C418.763 58.6707 418.894 58.2647 419.155 57.91C419.416 57.5553 419.776 57.2753 420.233 57.07C420.69 56.8647 421.218 56.762 421.815 56.762C422.59 56.762 423.229 56.944 423.733 57.308C424.246 57.672 424.55 58.12 424.643 58.652L422.893 59.128C422.828 58.9227 422.697 58.7547 422.501 58.624C422.314 58.4933 422.058 58.428 421.731 58.428C421.423 58.428 421.194 58.4793 421.045 58.582C420.905 58.6847 420.835 58.806 420.835 58.946C420.835 59.114 420.933 59.2493 421.129 59.352C421.325 59.4453 421.67 59.5433 422.165 59.646C422.669 59.7393 423.112 59.87 423.495 60.038C423.887 60.1967 424.19 60.4207 424.405 60.71C424.629 60.99 424.741 61.3727 424.741 61.858C424.741 62.3153 424.606 62.7167 424.335 63.062C424.074 63.4073 423.71 63.6733 423.243 63.86C422.776 64.0467 422.244 64.14 421.647 64.14ZM429.893 64.14C429.016 64.14 428.321 63.8973 427.807 63.412C427.294 62.9173 427.042 62.2687 427.051 61.466L427.107 58.652H425.931V56.874H427.135L427.149 55.418H429.277L429.263 56.874H431.489V58.652H429.235L429.193 61.228C429.193 61.564 429.282 61.8253 429.459 62.012C429.637 62.1987 429.903 62.292 430.257 62.292C430.463 62.292 430.659 62.2687 430.845 62.222C431.041 62.166 431.242 62.0633 431.447 61.914L432.063 63.552C431.587 63.944 430.864 64.14 429.893 64.14ZM435.818 56.874V64H433.676V56.874H435.818ZM434.74 56.034C434.329 56.034 434.002 55.908 433.76 55.656C433.517 55.404 433.396 55.1053 433.396 54.76C433.396 54.4147 433.512 54.116 433.746 53.864C433.988 53.612 434.32 53.486 434.74 53.486C435.15 53.486 435.477 53.612 435.72 53.864C435.962 54.116 436.084 54.4147 436.084 54.76C436.084 55.1053 435.962 55.404 435.72 55.656C435.477 55.908 435.15 56.034 434.74 56.034ZM441.711 64.14C440.974 64.14 440.334 64 439.793 63.72C439.252 63.4307 438.832 63.02 438.533 62.488C438.234 61.956 438.085 61.3213 438.085 60.584C438.085 59.828 438.244 59.1653 438.561 58.596C438.888 58.0173 439.336 57.5693 439.905 57.252C440.474 56.9253 441.137 56.762 441.893 56.762C442.509 56.762 443.055 56.8833 443.531 57.126C444.007 57.3687 444.39 57.7467 444.679 58.26L443.167 59.408C443.018 59.1373 442.84 58.9413 442.635 58.82C442.439 58.6987 442.192 58.638 441.893 58.638C441.436 58.638 441.058 58.8153 440.759 59.17C440.46 59.5153 440.311 59.9727 440.311 60.542C440.311 61.0927 440.442 61.5173 440.703 61.816C440.974 62.1147 441.361 62.264 441.865 62.264C442.136 62.264 442.383 62.2033 442.607 62.082C442.84 61.9513 443.036 61.7507 443.195 61.48L444.665 62.656C444.348 63.1973 443.928 63.58 443.405 63.804C442.892 64.028 442.327 64.14 441.711 64.14ZM446.408 64V53.64H448.55V59.716L451.196 56.874H453.744L450.524 60.318C450.739 60.4487 450.916 60.6213 451.056 60.836L451.602 61.69C451.891 62.138 452.297 62.362 452.82 62.362C453.1 62.362 453.366 62.292 453.618 62.152L454.08 63.734C453.819 63.8833 453.548 63.9907 453.268 64.056C452.997 64.1213 452.708 64.1493 452.4 64.14C451.793 64.1307 451.289 64.0187 450.888 63.804C450.496 63.5893 450.141 63.2253 449.824 62.712L449.278 61.858C449.147 61.6527 449.026 61.4847 448.914 61.354C448.802 61.2233 448.681 61.1207 448.55 61.046V64H446.408ZM458.674 64.14C457.881 64.14 457.195 63.9953 456.616 63.706C456.037 63.4073 455.589 62.992 455.272 62.46C454.955 61.9187 454.796 61.2793 454.796 60.542C454.796 59.7953 454.955 59.1373 455.272 58.568C455.599 57.9987 456.033 57.5553 456.574 57.238C457.125 56.9207 457.745 56.762 458.436 56.762C459.22 56.762 459.859 56.9393 460.354 57.294C460.849 57.6487 461.189 58.1527 461.376 58.806C461.572 59.45 461.614 60.2013 461.502 61.06H456.98C457.036 61.4147 457.223 61.7133 457.54 61.956C457.857 62.1893 458.291 62.306 458.842 62.306C459.094 62.306 459.36 62.2547 459.64 62.152C459.92 62.04 460.158 61.8767 460.354 61.662L461.544 62.922C461.236 63.2953 460.853 63.594 460.396 63.818C459.948 64.0327 459.374 64.14 458.674 64.14ZM458.478 58.316C458.105 58.316 457.787 58.428 457.526 58.652C457.274 58.876 457.106 59.1887 457.022 59.59H459.696C459.705 59.1513 459.598 58.8293 459.374 58.624C459.159 58.4187 458.861 58.316 458.478 58.316ZM468.702 58.946C468.516 58.8713 468.264 58.834 467.946 58.834C467.461 58.834 467.074 59.0067 466.784 59.352C466.495 59.688 466.285 60.2387 466.154 61.004C466.024 61.76 465.958 62.7587 465.958 64H463.83V59.38L463.802 56.874H465.944L465.846 58.652C466.098 57.9707 466.434 57.4853 466.854 57.196C467.284 56.9067 467.741 56.762 468.226 56.762C468.385 56.762 468.53 56.7713 468.66 56.79C468.8 56.8087 468.94 56.8413 469.08 56.888L468.702 58.946ZM482.318 53.64V64H480.162L480.232 62.95C479.719 63.7433 478.958 64.14 477.95 64.14C477.316 64.14 476.774 63.9953 476.326 63.706C475.878 63.4167 475.538 63.0153 475.304 62.502C475.071 61.9887 474.954 61.4007 474.954 60.738C474.954 59.9447 475.118 59.2493 475.444 58.652C475.771 58.0547 476.21 57.5927 476.76 57.266C477.311 56.93 477.927 56.762 478.608 56.762C478.926 56.762 479.22 56.8087 479.49 56.902C479.761 56.9953 479.994 57.126 480.19 57.294L480.176 56.874V53.64H482.318ZM478.818 58.624C478.305 58.624 477.899 58.8153 477.6 59.198C477.311 59.5807 477.166 60.0707 477.166 60.668C477.166 61.1813 477.278 61.578 477.502 61.858C477.736 62.138 478.048 62.278 478.44 62.278C478.916 62.278 479.322 62.082 479.658 61.69C480.004 61.298 480.176 60.7847 480.176 60.15C480.176 59.674 480.055 59.3007 479.812 59.03C479.57 58.7593 479.238 58.624 478.818 58.624ZM488.486 64.14C487.693 64.14 487.007 63.9953 486.428 63.706C485.85 63.4073 485.402 62.992 485.084 62.46C484.767 61.9187 484.608 61.2793 484.608 60.542C484.608 59.7953 484.767 59.1373 485.084 58.568C485.411 57.9987 485.845 57.5553 486.386 57.238C486.937 56.9207 487.558 56.762 488.248 56.762C489.032 56.762 489.672 56.9393 490.166 57.294C490.661 57.6487 491.002 58.1527 491.188 58.806C491.384 59.45 491.426 60.2013 491.314 61.06H486.792C486.848 61.4147 487.035 61.7133 487.352 61.956C487.67 62.1893 488.104 62.306 488.654 62.306C488.906 62.306 489.172 62.2547 489.452 62.152C489.732 62.04 489.97 61.8767 490.166 61.662L491.356 62.922C491.048 63.2953 490.666 63.594 490.208 63.818C489.76 64.0327 489.186 64.14 488.486 64.14ZM488.29 58.316C487.917 58.316 487.6 58.428 487.338 58.652C487.086 58.876 486.918 59.1887 486.834 59.59H489.508C489.518 59.1513 489.41 58.8293 489.186 58.624C488.972 58.4187 488.673 58.316 488.29 58.316ZM496.247 64.14C495.211 64.14 494.427 63.9487 493.895 63.566C493.363 63.174 493.05 62.6607 492.957 62.026L494.735 61.578C494.791 61.8487 494.945 62.068 495.197 62.236C495.449 62.3947 495.794 62.474 496.233 62.474C496.933 62.474 497.283 62.3107 497.283 61.984C497.283 61.816 497.18 61.69 496.975 61.606C496.779 61.5127 496.457 61.424 496.009 61.34C495.169 61.1907 494.515 60.9527 494.049 60.626C493.591 60.2993 493.363 59.8 493.363 59.128C493.363 58.6707 493.493 58.2647 493.755 57.91C494.016 57.5553 494.375 57.2753 494.833 57.07C495.29 56.8647 495.817 56.762 496.415 56.762C497.189 56.762 497.829 56.944 498.333 57.308C498.846 57.672 499.149 58.12 499.243 58.652L497.493 59.128C497.427 58.9227 497.297 58.7547 497.101 58.624C496.914 58.4933 496.657 58.428 496.331 58.428C496.023 58.428 495.794 58.4793 495.645 58.582C495.505 58.6847 495.435 58.806 495.435 58.946C495.435 59.114 495.533 59.2493 495.729 59.352C495.925 59.4453 496.27 59.5433 496.765 59.646C497.269 59.7393 497.712 59.87 498.095 60.038C498.487 60.1967 498.79 60.4207 499.005 60.71C499.229 60.99 499.341 61.3727 499.341 61.858C499.341 62.3153 499.205 62.7167 498.935 63.062C498.673 63.4073 498.309 63.6733 497.843 63.86C497.376 64.0467 496.844 64.14 496.247 64.14ZM503.566 56.874V64H501.424V56.874H503.566ZM502.488 56.034C502.077 56.034 501.75 55.908 501.508 55.656C501.265 55.404 501.144 55.1053 501.144 54.76C501.144 54.4147 501.26 54.116 501.494 53.864C501.736 53.612 502.068 53.486 502.488 53.486C502.898 53.486 503.225 53.612 503.468 53.864C503.71 54.116 503.832 54.4147 503.832 54.76C503.832 55.1053 503.71 55.404 503.468 55.656C503.225 55.908 502.898 56.034 502.488 56.034ZM508.787 66.94C508.507 66.94 508.199 66.9167 507.863 66.87C507.536 66.8327 507.224 66.772 506.925 66.688C506.626 66.604 506.37 66.492 506.155 66.352L506.673 64.532C506.981 64.6907 507.317 64.8167 507.681 64.91C508.054 65.0127 508.465 65.064 508.913 65.064C509.697 65.064 510.252 64.8867 510.579 64.532C510.906 64.1773 511.092 63.622 511.139 62.866L511.153 62.74C510.649 63.4867 509.902 63.86 508.913 63.86C508.26 63.86 507.704 63.7247 507.247 63.454C506.79 63.1833 506.44 62.8053 506.197 62.32C505.954 61.8347 505.833 61.2747 505.833 60.64C505.833 59.8747 505.992 59.2027 506.309 58.624C506.636 58.0453 507.074 57.5927 507.625 57.266C508.176 56.93 508.801 56.762 509.501 56.762C509.968 56.762 510.374 56.8553 510.719 57.042C511.074 57.2193 511.344 57.4573 511.531 57.756L511.713 56.902H513.253V62.614C513.253 63.5847 513.066 64.3873 512.693 65.022C512.329 65.666 511.811 66.1467 511.139 66.464C510.476 66.7813 509.692 66.94 508.787 66.94ZM509.725 58.624C509.202 58.624 508.792 58.8013 508.493 59.156C508.194 59.5107 508.045 59.9587 508.045 60.5C508.045 60.976 508.162 61.3447 508.395 61.606C508.638 61.8673 508.964 61.998 509.375 61.998C509.702 61.998 509.996 61.914 510.257 61.746C510.518 61.578 510.724 61.3447 510.873 61.046C511.032 60.7473 511.111 60.4067 511.111 60.024C511.111 59.5947 510.985 59.254 510.733 59.002C510.481 58.75 510.145 58.624 509.725 58.624ZM515.906 64V56.874H518.034L517.936 58.4C518.225 57.8773 518.594 57.476 519.042 57.196C519.499 56.9067 520.008 56.762 520.568 56.762C521.417 56.762 522.052 57.0513 522.472 57.63C522.892 58.1993 523.097 59.0207 523.088 60.094L523.06 64H520.918L520.946 60.248C520.955 59.7627 520.881 59.394 520.722 59.142C520.573 58.8807 520.33 58.75 519.994 58.75C519.714 58.75 519.457 58.834 519.224 59.002C518.991 59.1607 518.785 59.436 518.608 59.828C518.44 60.22 518.305 60.7567 518.202 61.438C518.099 62.1193 518.043 62.9733 518.034 64H515.906ZM528.247 64.14C527.211 64.14 526.427 63.9487 525.895 63.566C525.363 63.174 525.05 62.6607 524.957 62.026L526.735 61.578C526.791 61.8487 526.945 62.068 527.197 62.236C527.449 62.3947 527.794 62.474 528.233 62.474C528.933 62.474 529.283 62.3107 529.283 61.984C529.283 61.816 529.18 61.69 528.975 61.606C528.779 61.5127 528.457 61.424 528.009 61.34C527.169 61.1907 526.515 60.9527 526.049 60.626C525.591 60.2993 525.363 59.8 525.363 59.128C525.363 58.6707 525.493 58.2647 525.755 57.91C526.016 57.5553 526.375 57.2753 526.833 57.07C527.29 56.8647 527.817 56.762 528.415 56.762C529.189 56.762 529.829 56.944 530.333 57.308C530.846 57.672 531.149 58.12 531.243 58.652L529.493 59.128C529.427 58.9227 529.297 58.7547 529.101 58.624C528.914 58.4933 528.657 58.428 528.331 58.428C528.023 58.428 527.794 58.4793 527.645 58.582C527.505 58.6847 527.435 58.806 527.435 58.946C527.435 59.114 527.533 59.2493 527.729 59.352C527.925 59.4453 528.27 59.5433 528.765 59.646C529.269 59.7393 529.712 59.87 530.095 60.038C530.487 60.1967 530.79 60.4207 531.005 60.71C531.229 60.99 531.341 61.3727 531.341 61.858C531.341 62.3153 531.205 62.7167 530.935 63.062C530.673 63.4073 530.309 63.6733 529.843 63.86C529.376 64.0467 528.844 64.14 528.247 64.14Z" fill="#FEDC97"/>
</svg>
