<svg width="50%" height="50%" viewBox="0 0 592 112" fill="none" xmlns="http://www.w3.org/2000/svg">
<rect width="592" height="112" fill="#033F63"/>
<path d="M238 9.5V101.5" stroke="#FEDC97" stroke-width="3"/>
<path d="M71.896 61V59.502C73.3893 58.4473 74.472 57.4533 75.144 56.52C75.816 55.5867 76.152 54.7793 76.152 54.098C76.152 53.706 76.0447 53.4027 75.83 53.188C75.6153 52.9733 75.3167 52.866 74.934 52.866C74.5047 52.866 74.1407 52.9967 73.842 53.258C73.5433 53.51 73.324 53.846 73.184 54.266L71.574 53.398C71.7327 52.9127 71.9847 52.4833 72.33 52.11C72.6753 51.7367 73.0907 51.4473 73.576 51.242C74.0707 51.0273 74.612 50.92 75.2 50.92C75.844 50.92 76.404 51.046 76.88 51.298C77.356 51.5407 77.7247 51.886 77.986 52.334C78.2473 52.7727 78.3733 53.2813 78.364 53.86C78.364 54.728 78.084 55.61 77.524 56.506C76.9733 57.3927 76.0493 58.298 74.752 59.222H78.602V61H71.896ZM84.1605 61H81.8365L85.7845 52.838H81.2905V51.06H88.0805V52.824L84.1605 61ZM97.1164 61.14C96.3231 61.14 95.6417 60.9533 95.0724 60.58C94.5124 60.2067 94.1297 59.6607 93.9244 58.942L95.7864 58.116C95.9264 58.452 96.0991 58.704 96.3044 58.872C96.5097 59.04 96.7711 59.124 97.0884 59.124C97.4151 59.124 97.6671 59.0213 97.8444 58.816C98.0311 58.6107 98.1244 58.298 98.1244 57.878V51.06H100.42V57.626C100.42 58.7367 100.131 59.6 99.5524 60.216C98.9831 60.832 98.1711 61.14 97.1164 61.14ZM110.156 53.902V61H108L108.07 59.936C107.557 60.7387 106.796 61.14 105.788 61.14C105.153 61.14 104.612 60.9953 104.164 60.706C103.716 60.4167 103.375 60.0153 103.142 59.502C102.909 58.9887 102.792 58.4007 102.792 57.738C102.792 56.9447 102.955 56.2493 103.282 55.652C103.609 55.0547 104.047 54.5927 104.598 54.266C105.149 53.93 105.765 53.762 106.446 53.762C106.894 53.762 107.291 53.8553 107.636 54.042C107.981 54.2193 108.247 54.4573 108.434 54.756L108.616 53.902H110.156ZM106.656 55.624C106.143 55.624 105.737 55.8153 105.438 56.198C105.149 56.5807 105.004 57.0707 105.004 57.668C105.004 58.1813 105.116 58.578 105.34 58.858C105.573 59.138 105.886 59.278 106.278 59.278C106.754 59.278 107.16 59.082 107.496 58.69C107.841 58.298 108.014 57.7847 108.014 57.15C108.014 56.674 107.893 56.3007 107.65 56.03C107.407 55.7593 107.076 55.624 106.656 55.624ZM112.81 61V53.874H114.938L114.84 55.4C115.13 54.8773 115.498 54.476 115.946 54.196C116.404 53.9067 116.912 53.762 117.472 53.762C118.322 53.762 118.956 54.0513 119.376 54.63C119.796 55.1993 120.002 56.0207 119.992 57.094L119.964 61H117.822L117.85 57.248C117.86 56.7627 117.785 56.394 117.626 56.142C117.477 55.8807 117.234 55.75 116.898 55.75C116.618 55.75 116.362 55.834 116.128 56.002C115.895 56.1607 115.69 56.436 115.512 56.828C115.344 57.22 115.209 57.7567 115.106 58.438C115.004 59.1193 114.948 59.9733 114.938 61H112.81ZM127.13 61V59.502C128.624 58.4473 129.706 57.4533 130.378 56.52C131.05 55.5867 131.386 54.7793 131.386 54.098C131.386 53.706 131.279 53.4027 131.064 53.188C130.85 52.9733 130.551 52.866 130.168 52.866C129.739 52.866 129.375 52.9967 129.076 53.258C128.778 53.51 128.558 53.846 128.418 54.266L126.808 53.398C126.967 52.9127 127.219 52.4833 127.564 52.11C127.91 51.7367 128.325 51.4473 128.81 51.242C129.305 51.0273 129.846 50.92 130.434 50.92C131.078 50.92 131.638 51.046 132.114 51.298C132.59 51.5407 132.959 51.886 133.22 52.334C133.482 52.7727 133.608 53.2813 133.598 53.86C133.598 54.728 133.318 55.61 132.758 56.506C132.208 57.3927 131.284 58.298 129.986 59.222H133.836V61H127.13ZM139.885 61.14C138.644 61.1587 137.701 60.7667 137.057 59.964C136.413 59.152 136.091 57.9013 136.091 56.212C136.091 55.1667 136.245 54.2473 136.553 53.454C136.87 52.6513 137.318 52.0307 137.897 51.592C138.485 51.144 139.185 50.92 139.997 50.92C141.126 50.92 142.004 51.3353 142.629 52.166C143.254 52.9967 143.567 54.2193 143.567 55.834C143.567 56.8607 143.418 57.7753 143.119 58.578C142.83 59.3713 142.41 59.9967 141.859 60.454C141.308 60.902 140.65 61.1307 139.885 61.14ZM139.815 59.208C140.328 59.208 140.711 58.9233 140.963 58.354C141.215 57.7753 141.341 56.94 141.341 55.848C141.341 53.8413 140.874 52.838 139.941 52.838C139.418 52.838 139.017 53.132 138.737 53.72C138.466 54.2987 138.331 55.1153 138.331 56.17C138.331 57.1967 138.448 57.962 138.681 58.466C138.924 58.9607 139.302 59.208 139.815 59.208ZM145.919 61V59.502C147.413 58.4473 148.495 57.4533 149.167 56.52C149.839 55.5867 150.175 54.7793 150.175 54.098C150.175 53.706 150.068 53.4027 149.853 53.188C149.639 52.9733 149.34 52.866 148.957 52.866C148.528 52.866 148.164 52.9967 147.865 53.258C147.567 53.51 147.347 53.846 147.207 54.266L145.597 53.398C145.756 52.9127 146.008 52.4833 146.353 52.11C146.699 51.7367 147.114 51.4473 147.599 51.242C148.094 51.0273 148.635 50.92 149.223 50.92C149.867 50.92 150.427 51.046 150.903 51.298C151.379 51.5407 151.748 51.886 152.009 52.334C152.271 52.7727 152.397 53.2813 152.387 53.86C152.387 54.728 152.107 55.61 151.547 56.506C150.997 57.3927 150.073 58.298 148.775 59.222H152.625V61H145.919ZM155.314 61V59.502C156.807 58.4473 157.89 57.4533 158.562 56.52C159.234 55.5867 159.57 54.7793 159.57 54.098C159.57 53.706 159.463 53.4027 159.248 53.188C159.033 52.9733 158.735 52.866 158.352 52.866C157.923 52.866 157.559 52.9967 157.26 53.258C156.961 53.51 156.742 53.846 156.602 54.266L154.992 53.398C155.151 52.9127 155.403 52.4833 155.748 52.11C156.093 51.7367 156.509 51.4473 156.994 51.242C157.489 51.0273 158.03 50.92 158.618 50.92C159.262 50.92 159.822 51.046 160.298 51.298C160.774 51.5407 161.143 51.886 161.404 52.334C161.665 52.7727 161.791 53.2813 161.782 53.86C161.782 54.728 161.502 55.61 160.942 56.506C160.391 57.3927 159.467 58.298 158.17 59.222H162.02V61H155.314Z" fill="#FEDC97"/>
<path d="M284.138 51.06H286.294L283.424 61H280.834L279.196 53.944L277.236 61H274.632L272.154 51.06H274.464L276.074 57.962L277.978 51.06H280.694L282.248 57.934L284.138 51.06ZM289.804 53.874V61H287.662V53.874H289.804ZM288.726 53.034C288.315 53.034 287.989 52.908 287.746 52.656C287.503 52.404 287.382 52.1053 287.382 51.76C287.382 51.4147 287.499 51.116 287.732 50.864C287.975 50.612 288.306 50.486 288.726 50.486C289.137 50.486 289.463 50.612 289.706 50.864C289.949 51.116 290.07 51.4147 290.07 51.76C290.07 52.1053 289.949 52.404 289.706 52.656C289.463 52.908 289.137 53.034 288.726 53.034ZM292.435 61V53.874H294.563L294.465 55.4C294.755 54.8773 295.123 54.476 295.571 54.196C296.029 53.9067 296.537 53.762 297.097 53.762C297.947 53.762 298.581 54.0513 299.001 54.63C299.421 55.1993 299.627 56.0207 299.617 57.094L299.589 61H297.447L297.475 57.248C297.485 56.7627 297.41 56.394 297.251 56.142C297.102 55.8807 296.859 55.75 296.523 55.75C296.243 55.75 295.987 55.834 295.753 56.002C295.52 56.1607 295.315 56.436 295.137 56.828C294.969 57.22 294.834 57.7567 294.731 58.438C294.629 59.1193 294.573 59.9733 294.563 61H292.435ZM302.158 61V53.874H304.286L304.188 55.4C304.477 54.8773 304.846 54.476 305.294 54.196C305.751 53.9067 306.26 53.762 306.82 53.762C307.669 53.762 308.304 54.0513 308.724 54.63C309.144 55.1993 309.349 56.0207 309.34 57.094L309.312 61H307.17L307.198 57.248C307.207 56.7627 307.133 56.394 306.974 56.142C306.825 55.8807 306.582 55.75 306.246 55.75C305.966 55.75 305.709 55.834 305.476 56.002C305.243 56.1607 305.037 56.436 304.86 56.828C304.692 57.22 304.557 57.7567 304.454 58.438C304.351 59.1193 304.295 59.9733 304.286 61H302.158ZM315.395 61.14C314.601 61.14 313.915 60.9953 313.337 60.706C312.758 60.4073 312.31 59.992 311.993 59.46C311.675 58.9187 311.517 58.2793 311.517 57.542C311.517 56.7953 311.675 56.1373 311.993 55.568C312.319 54.9987 312.753 54.5553 313.295 54.238C313.845 53.9207 314.466 53.762 315.157 53.762C315.941 53.762 316.58 53.9393 317.075 54.294C317.569 54.6487 317.91 55.1527 318.097 55.806C318.293 56.45 318.335 57.2013 318.223 58.06H313.701C313.757 58.4147 313.943 58.7133 314.261 58.956C314.578 59.1893 315.012 59.306 315.563 59.306C315.815 59.306 316.081 59.2547 316.361 59.152C316.641 59.04 316.879 58.8767 317.075 58.662L318.265 59.922C317.957 60.2953 317.574 60.594 317.117 60.818C316.669 61.0327 316.095 61.14 315.395 61.14ZM315.199 55.316C314.825 55.316 314.508 55.428 314.247 55.652C313.995 55.876 313.827 56.1887 313.743 56.59H316.417C316.426 56.1513 316.319 55.8293 316.095 55.624C315.88 55.4187 315.581 55.316 315.199 55.316ZM325.423 55.946C325.236 55.8713 324.984 55.834 324.667 55.834C324.182 55.834 323.794 56.0067 323.505 56.352C323.216 56.688 323.006 57.2387 322.875 58.004C322.744 58.76 322.679 59.7587 322.679 61H320.551V56.38L320.523 53.874H322.665L322.567 55.652C322.819 54.9707 323.155 54.4853 323.575 54.196C324.004 53.9067 324.462 53.762 324.947 53.762C325.106 53.762 325.25 53.7713 325.381 53.79C325.521 53.8087 325.661 53.8413 325.801 53.888L325.423 55.946ZM330.075 61.14C329.039 61.14 328.255 60.9487 327.723 60.566C327.191 60.174 326.878 59.6607 326.785 59.026L328.563 58.578C328.619 58.8487 328.773 59.068 329.025 59.236C329.277 59.3947 329.622 59.474 330.061 59.474C330.761 59.474 331.111 59.3107 331.111 58.984C331.111 58.816 331.008 58.69 330.803 58.606C330.607 58.5127 330.285 58.424 329.837 58.34C328.997 58.1907 328.344 57.9527 327.877 57.626C327.42 57.2993 327.191 56.8 327.191 56.128C327.191 55.6707 327.322 55.2647 327.583 54.91C327.844 54.5553 328.204 54.2753 328.661 54.07C329.118 53.8647 329.646 53.762 330.243 53.762C331.018 53.762 331.657 53.944 332.161 54.308C332.674 54.672 332.978 55.12 333.071 55.652L331.321 56.128C331.256 55.9227 331.125 55.7547 330.929 55.624C330.742 55.4933 330.486 55.428 330.159 55.428C329.851 55.428 329.622 55.4793 329.473 55.582C329.333 55.6847 329.263 55.806 329.263 55.946C329.263 56.114 329.361 56.2493 329.557 56.352C329.753 56.4453 330.098 56.5433 330.593 56.646C331.097 56.7393 331.54 56.87 331.923 57.038C332.315 57.1967 332.618 57.4207 332.833 57.71C333.057 57.99 333.169 58.3727 333.169 58.858C333.169 59.3153 333.034 59.7167 332.763 60.062C332.502 60.4073 332.138 60.6733 331.671 60.86C331.204 61.0467 330.672 61.14 330.075 61.14ZM349.383 53.874H351.497L349.047 61H346.373L345.239 56.884L343.867 61H341.207L338.981 53.874H341.193L342.635 58.956L344.273 53.874H346.317L347.731 58.998L349.383 53.874ZM355.281 53.874V61H353.139V53.874H355.281ZM354.203 53.034C353.792 53.034 353.465 52.908 353.223 52.656C352.98 52.404 352.859 52.1053 352.859 51.76C352.859 51.4147 352.975 51.116 353.209 50.864C353.451 50.612 353.783 50.486 354.203 50.486C354.613 50.486 354.94 50.612 355.183 50.864C355.425 51.116 355.547 51.4147 355.547 51.76C355.547 52.1053 355.425 52.404 355.183 52.656C354.94 52.908 354.613 53.034 354.203 53.034ZM360.152 61.14C359.433 61.14 358.878 60.944 358.486 60.552C358.103 60.1507 357.912 59.572 357.912 58.816V50.64H360.054V58.662C360.054 59.0913 360.255 59.306 360.656 59.306C360.871 59.306 361.053 59.2547 361.202 59.152L361.72 60.678C361.561 60.8087 361.342 60.916 361.062 61C360.782 61.0933 360.479 61.14 360.152 61.14ZM365.404 61.14C364.685 61.14 364.13 60.944 363.738 60.552C363.355 60.1507 363.164 59.572 363.164 58.816V50.64H365.306V58.662C365.306 59.0913 365.507 59.306 365.908 59.306C366.123 59.306 366.305 59.2547 366.454 59.152L366.972 60.678C366.813 60.8087 366.594 60.916 366.314 61C366.034 61.0933 365.731 61.14 365.404 61.14ZM373.012 61V50.64H375.154V53.874L375.084 54.966C375.597 54.1633 376.362 53.762 377.38 53.762C378.014 53.762 378.556 53.9067 379.004 54.196C379.452 54.4853 379.792 54.8867 380.026 55.4C380.259 55.9133 380.376 56.5013 380.376 57.164C380.376 57.9573 380.212 58.6527 379.886 59.25C379.559 59.8473 379.12 60.314 378.57 60.65C378.019 60.9767 377.403 61.14 376.722 61.14C376.264 61.14 375.863 61.0513 375.518 60.874C375.182 60.6873 374.92 60.4447 374.734 60.146L374.538 61H373.012ZM376.498 59.278C377.011 59.278 377.417 59.0867 377.716 58.704C378.014 58.312 378.164 57.8173 378.164 57.22C378.164 56.716 378.047 56.324 377.814 56.044C377.59 55.764 377.282 55.624 376.89 55.624C376.414 55.624 376.003 55.82 375.658 56.212C375.322 56.604 375.154 57.1173 375.154 57.752C375.154 58.2187 375.275 58.592 375.518 58.872C375.76 59.1427 376.087 59.278 376.498 59.278ZM386.18 61.14C385.387 61.14 384.701 60.9953 384.122 60.706C383.543 60.4073 383.095 59.992 382.778 59.46C382.461 58.9187 382.302 58.2793 382.302 57.542C382.302 56.7953 382.461 56.1373 382.778 55.568C383.105 54.9987 383.539 54.5553 384.08 54.238C384.631 53.9207 385.251 53.762 385.942 53.762C386.726 53.762 387.365 53.9393 387.86 54.294C388.355 54.6487 388.695 55.1527 388.882 55.806C389.078 56.45 389.12 57.2013 389.008 58.06H384.486C384.542 58.4147 384.729 58.7133 385.046 58.956C385.363 59.1893 385.797 59.306 386.348 59.306C386.6 59.306 386.866 59.2547 387.146 59.152C387.426 59.04 387.664 58.8767 387.86 58.662L389.05 59.922C388.742 60.2953 388.359 60.594 387.902 60.818C387.454 61.0327 386.88 61.14 386.18 61.14ZM385.984 55.316C385.611 55.316 385.293 55.428 385.032 55.652C384.78 55.876 384.612 56.1887 384.528 56.59H387.202C387.211 56.1513 387.104 55.8293 386.88 55.624C386.665 55.4187 386.367 55.316 385.984 55.316ZM399.111 61.14C398.374 61.14 397.735 61 397.193 60.72C396.652 60.4307 396.232 60.02 395.933 59.488C395.635 58.956 395.485 58.3213 395.485 57.584C395.485 56.828 395.644 56.1653 395.961 55.596C396.288 55.0173 396.736 54.5693 397.305 54.252C397.875 53.9253 398.537 53.762 399.293 53.762C399.909 53.762 400.455 53.8833 400.931 54.126C401.407 54.3687 401.79 54.7467 402.079 55.26L400.567 56.408C400.418 56.1373 400.241 55.9413 400.035 55.82C399.839 55.6987 399.592 55.638 399.293 55.638C398.836 55.638 398.458 55.8153 398.159 56.17C397.861 56.5153 397.711 56.9727 397.711 57.542C397.711 58.0927 397.842 58.5173 398.103 58.816C398.374 59.1147 398.761 59.264 399.265 59.264C399.536 59.264 399.783 59.2033 400.007 59.082C400.241 58.9513 400.437 58.7507 400.595 58.48L402.065 59.656C401.748 60.1973 401.328 60.58 400.805 60.804C400.292 61.028 399.727 61.14 399.111 61.14ZM407.021 53.762C408.132 53.762 409 54.0793 409.625 54.714C410.26 55.3487 410.577 56.2073 410.577 57.29C410.577 58.0273 410.418 58.6853 410.101 59.264C409.784 59.8427 409.336 60.3 408.757 60.636C408.178 60.972 407.497 61.14 406.713 61.14C405.612 61.14 404.744 60.8227 404.109 60.188C403.484 59.5533 403.171 58.6993 403.171 57.626C403.171 56.8793 403.33 56.2167 403.647 55.638C403.964 55.0593 404.412 54.602 404.991 54.266C405.57 53.93 406.246 53.762 407.021 53.762ZM406.811 59.278C407.287 59.278 407.665 59.1007 407.945 58.746C408.234 58.382 408.379 57.8967 408.379 57.29C408.379 56.7673 408.253 56.3613 408.001 56.072C407.749 55.7733 407.404 55.624 406.965 55.624C406.48 55.624 406.092 55.806 405.803 56.17C405.523 56.5247 405.383 57.0053 405.383 57.612C405.383 58.1347 405.504 58.5453 405.747 58.844C405.999 59.1333 406.354 59.278 406.811 59.278ZM412.875 61V53.874H415.003L414.905 55.4C415.194 54.8773 415.563 54.476 416.011 54.196C416.468 53.9067 416.977 53.762 417.537 53.762C418.386 53.762 419.021 54.0513 419.441 54.63C419.861 55.1993 420.066 56.0207 420.057 57.094L420.029 61H417.887L417.915 57.248C417.924 56.7627 417.849 56.394 417.691 56.142C417.541 55.8807 417.299 55.75 416.963 55.75C416.683 55.75 416.426 55.834 416.193 56.002C415.959 56.1607 415.754 56.436 415.577 56.828C415.409 57.22 415.273 57.7567 415.171 58.438C415.068 59.1193 415.012 59.9733 415.003 61H412.875ZM425.803 61.14C424.926 61.14 424.231 60.8973 423.717 60.412C423.204 59.9173 422.952 59.2687 422.961 58.466L423.017 55.652H421.841V53.874H423.045L423.059 52.418H425.187L425.173 53.874H427.399V55.652H425.145L425.103 58.228C425.103 58.564 425.192 58.8253 425.369 59.012C425.547 59.1987 425.813 59.292 426.167 59.292C426.373 59.292 426.569 59.2687 426.755 59.222C426.951 59.166 427.152 59.0633 427.357 58.914L427.973 60.552C427.497 60.944 426.774 61.14 425.803 61.14ZM436.449 53.902V61H434.293L434.363 59.936C433.85 60.7387 433.089 61.14 432.081 61.14C431.446 61.14 430.905 60.9953 430.457 60.706C430.009 60.4167 429.668 60.0153 429.435 59.502C429.202 58.9887 429.085 58.4007 429.085 57.738C429.085 56.9447 429.248 56.2493 429.575 55.652C429.902 55.0547 430.34 54.5927 430.891 54.266C431.442 53.93 432.058 53.762 432.739 53.762C433.187 53.762 433.584 53.8553 433.929 54.042C434.274 54.2193 434.54 54.4573 434.727 54.756L434.909 53.902H436.449ZM432.949 55.624C432.436 55.624 432.03 55.8153 431.731 56.198C431.442 56.5807 431.297 57.0707 431.297 57.668C431.297 58.1813 431.409 58.578 431.633 58.858C431.866 59.138 432.179 59.278 432.571 59.278C433.047 59.278 433.453 59.082 433.789 58.69C434.134 58.298 434.307 57.7847 434.307 57.15C434.307 56.674 434.186 56.3007 433.943 56.03C433.7 55.7593 433.369 55.624 432.949 55.624ZM442.365 61.14C441.628 61.14 440.989 61 440.447 60.72C439.906 60.4307 439.486 60.02 439.187 59.488C438.889 58.956 438.739 58.3213 438.739 57.584C438.739 56.828 438.898 56.1653 439.215 55.596C439.542 55.0173 439.99 54.5693 440.559 54.252C441.129 53.9253 441.791 53.762 442.547 53.762C443.163 53.762 443.709 53.8833 444.185 54.126C444.661 54.3687 445.044 54.7467 445.333 55.26L443.821 56.408C443.672 56.1373 443.495 55.9413 443.289 55.82C443.093 55.6987 442.846 55.638 442.547 55.638C442.09 55.638 441.712 55.8153 441.413 56.17C441.115 56.5153 440.965 56.9727 440.965 57.542C440.965 58.0927 441.096 58.5173 441.357 58.816C441.628 59.1147 442.015 59.264 442.519 59.264C442.79 59.264 443.037 59.2033 443.261 59.082C443.495 58.9513 443.691 58.7507 443.849 58.48L445.319 59.656C445.002 60.1973 444.582 60.58 444.059 60.804C443.546 61.028 442.981 61.14 442.365 61.14ZM450.337 61.14C449.459 61.14 448.764 60.8973 448.251 60.412C447.737 59.9173 447.485 59.2687 447.495 58.466L447.551 55.652H446.375V53.874H447.579L447.593 52.418H449.721L449.707 53.874H451.933V55.652H449.679L449.637 58.228C449.637 58.564 449.725 58.8253 449.903 59.012C450.08 59.1987 450.346 59.292 450.701 59.292C450.906 59.292 451.102 59.2687 451.289 59.222C451.485 59.166 451.685 59.0633 451.891 58.914L452.507 60.552C452.031 60.944 451.307 61.14 450.337 61.14ZM457.496 61.14C456.703 61.14 456.017 60.9953 455.438 60.706C454.86 60.4073 454.412 59.992 454.094 59.46C453.777 58.9187 453.618 58.2793 453.618 57.542C453.618 56.7953 453.777 56.1373 454.094 55.568C454.421 54.9987 454.855 54.5553 455.396 54.238C455.947 53.9207 456.568 53.762 457.258 53.762C458.042 53.762 458.682 53.9393 459.176 54.294C459.671 54.6487 460.012 55.1527 460.198 55.806C460.394 56.45 460.436 57.2013 460.324 58.06H455.802C455.858 58.4147 456.045 58.7133 456.362 58.956C456.68 59.1893 457.114 59.306 457.664 59.306C457.916 59.306 458.182 59.2547 458.462 59.152C458.742 59.04 458.98 58.8767 459.176 58.662L460.366 59.922C460.058 60.2953 459.676 60.594 459.218 60.818C458.77 61.0327 458.196 61.14 457.496 61.14ZM457.3 55.316C456.927 55.316 456.61 55.428 456.348 55.652C456.096 55.876 455.928 56.1887 455.844 56.59H458.518C458.528 56.1513 458.42 55.8293 458.196 55.624C457.982 55.4187 457.683 55.316 457.3 55.316ZM469.639 50.64V61H467.483L467.553 59.95C467.039 60.7433 466.279 61.14 465.271 61.14C464.636 61.14 464.095 60.9953 463.647 60.706C463.199 60.4167 462.858 60.0153 462.625 59.502C462.391 58.9887 462.274 58.4007 462.274 57.738C462.274 56.9447 462.438 56.2493 462.765 55.652C463.091 55.0547 463.53 54.5927 464.081 54.266C464.631 53.93 465.247 53.762 465.928 53.762C466.246 53.762 466.54 53.8087 466.811 53.902C467.081 53.9953 467.315 54.126 467.511 54.294L467.497 53.874V50.64H469.639ZM466.139 55.624C465.625 55.624 465.219 55.8153 464.921 56.198C464.631 56.5807 464.487 57.0707 464.487 57.668C464.487 58.1813 464.599 58.578 464.823 58.858C465.056 59.138 465.369 59.278 465.761 59.278C466.237 59.278 466.643 59.082 466.979 58.69C467.324 58.298 467.497 57.7847 467.497 57.15C467.497 56.674 467.375 56.3007 467.133 56.03C466.89 55.7593 466.559 55.624 466.139 55.624Z" fill="#FEDC97"/>
</svg>
