<svg  width="50%" height="50%" viewBox="0 0 592 112" fill="none" xmlns="http://www.w3.org/2000/svg">
<rect width="592" height="112" fill="#033F63"/>
<path d="M238 9.5V101.5" stroke="#FEDC97" stroke-width="3"/>
<path d="M45.5 61.14C45.192 61.14 44.8653 61.1167 44.52 61.07C44.184 61.0233 43.8573 60.9533 43.54 60.86C43.232 60.7573 42.9707 60.636 42.756 60.496L43.274 58.578C43.5913 58.7647 43.946 58.914 44.338 59.026C44.73 59.138 45.1593 59.194 45.626 59.194C46.242 59.194 46.6853 59.082 46.956 58.858C47.236 58.634 47.376 58.3493 47.376 58.004C47.376 57.2387 46.7833 56.856 45.598 56.856H44.982V55.092H45.5C46.116 55.092 46.5453 54.9753 46.788 54.742C47.04 54.4993 47.166 54.21 47.166 53.874C47.166 53.5847 47.0633 53.3467 46.858 53.16C46.662 52.964 46.3587 52.866 45.948 52.866C45.5093 52.866 45.1407 52.9967 44.842 53.258C44.5433 53.51 44.324 53.846 44.184 54.266L42.574 53.398C42.7327 52.9127 42.9847 52.4833 43.33 52.11C43.6753 51.7367 44.0907 51.4473 44.576 51.242C45.0707 51.0273 45.612 50.92 46.2 50.92C46.8347 50.92 47.39 51.032 47.866 51.256C48.342 51.48 48.7107 51.7973 48.972 52.208C49.2333 52.6093 49.364 53.0853 49.364 53.636C49.364 54.1027 49.2333 54.5413 48.972 54.952C48.72 55.3627 48.3467 55.6707 47.852 55.876C48.412 56.0347 48.8413 56.3007 49.14 56.674C49.4387 57.0473 49.588 57.5233 49.588 58.102C49.588 58.6807 49.42 59.2033 49.084 59.67C48.748 60.1273 48.272 60.4867 47.656 60.748C47.0493 61.0093 46.3307 61.14 45.5 61.14ZM58.7219 61.14C57.9285 61.14 57.2472 60.9533 56.6779 60.58C56.1179 60.2067 55.7352 59.6607 55.5299 58.942L57.3919 58.116C57.5319 58.452 57.7045 58.704 57.9099 58.872C58.1152 59.04 58.3765 59.124 58.6939 59.124C59.0205 59.124 59.2725 59.0213 59.4499 58.816C59.6365 58.6107 59.7299 58.298 59.7299 57.878V51.06H62.0259V57.626C62.0259 58.7367 61.7365 59.6 61.1579 60.216C60.5885 60.832 59.7765 61.14 58.7219 61.14ZM71.7615 53.902V61H69.6055L69.6755 59.936C69.1622 60.7387 68.4015 61.14 67.3935 61.14C66.7589 61.14 66.2175 60.9953 65.7695 60.706C65.3215 60.4167 64.9809 60.0153 64.7475 59.502C64.5142 58.9887 64.3975 58.4007 64.3975 57.738C64.3975 56.9447 64.5609 56.2493 64.8875 55.652C65.2142 55.0547 65.6529 54.5927 66.2035 54.266C66.7542 53.93 67.3702 53.762 68.0515 53.762C68.4995 53.762 68.8962 53.8553 69.2415 54.042C69.5869 54.2193 69.8529 54.4573 70.0395 54.756L70.2215 53.902H71.7615ZM68.2615 55.624C67.7482 55.624 67.3422 55.8153 67.0435 56.198C66.7542 56.5807 66.6095 57.0707 66.6095 57.668C66.6095 58.1813 66.7215 58.578 66.9455 58.858C67.1789 59.138 67.4915 59.278 67.8835 59.278C68.3595 59.278 68.7655 59.082 69.1015 58.69C69.4469 58.298 69.6195 57.7847 69.6195 57.15C69.6195 56.674 69.4982 56.3007 69.2555 56.03C69.0129 55.7593 68.6815 55.624 68.2615 55.624ZM74.4158 61V53.874H76.5438L76.4458 55.4C76.7352 54.8773 77.1038 54.476 77.5518 54.196C78.0092 53.9067 78.5178 53.762 79.0778 53.762C79.9272 53.762 80.5618 54.0513 80.9818 54.63C81.4018 55.1993 81.6072 56.0207 81.5978 57.094L81.5698 61H79.4278L79.4558 57.248C79.4652 56.7627 79.3905 56.394 79.2318 56.142C79.0825 55.8807 78.8398 55.75 78.5038 55.75C78.2238 55.75 77.9672 55.834 77.7338 56.002C77.5005 56.1607 77.2952 56.436 77.1178 56.828C76.9498 57.22 76.8145 57.7567 76.7118 58.438C76.6092 59.1193 76.5532 59.9733 76.5438 61H74.4158ZM88.6798 58.354V56.45H93.1038V58.354H88.6798ZM100.361 61V59.502C101.854 58.4473 102.937 57.4533 103.609 56.52C104.281 55.5867 104.617 54.7793 104.617 54.098C104.617 53.706 104.51 53.4027 104.295 53.188C104.08 52.9733 103.782 52.866 103.399 52.866C102.97 52.866 102.606 52.9967 102.307 53.258C102.008 53.51 101.789 53.846 101.649 54.266L100.039 53.398C100.198 52.9127 100.45 52.4833 100.795 52.11C101.14 51.7367 101.556 51.4473 102.041 51.242C102.536 51.0273 103.077 50.92 103.665 50.92C104.309 50.92 104.869 51.046 105.345 51.298C105.821 51.5407 106.19 51.886 106.451 52.334C106.712 52.7727 106.838 53.2813 106.829 53.86C106.829 54.728 106.549 55.61 105.989 56.506C105.438 57.3927 104.514 58.298 103.217 59.222H107.067V61H100.361ZM113.577 61V58.662H109.279V57.136L114.179 51.032H115.719V56.912H117.119V58.662H115.719V61H113.577ZM111.519 56.912H113.577V54.322L111.519 56.912ZM125.581 61.14C124.788 61.14 124.107 60.9533 123.537 60.58C122.977 60.2067 122.595 59.6607 122.389 58.942L124.251 58.116C124.391 58.452 124.564 58.704 124.769 58.872C124.975 59.04 125.236 59.124 125.553 59.124C125.88 59.124 126.132 59.0213 126.309 58.816C126.496 58.6107 126.589 58.298 126.589 57.878V51.06H128.885V57.626C128.885 58.7367 128.596 59.6 128.017 60.216C127.448 60.832 126.636 61.14 125.581 61.14ZM138.621 53.902V61H136.465L136.535 59.936C136.022 60.7387 135.261 61.14 134.253 61.14C133.618 61.14 133.077 60.9953 132.629 60.706C132.181 60.4167 131.84 60.0153 131.607 59.502C131.374 58.9887 131.257 58.4007 131.257 57.738C131.257 56.9447 131.42 56.2493 131.747 55.652C132.074 55.0547 132.512 54.5927 133.063 54.266C133.614 53.93 134.23 53.762 134.911 53.762C135.359 53.762 135.756 53.8553 136.101 54.042C136.446 54.2193 136.712 54.4573 136.899 54.756L137.081 53.902H138.621ZM135.121 55.624C134.608 55.624 134.202 55.8153 133.903 56.198C133.614 56.5807 133.469 57.0707 133.469 57.668C133.469 58.1813 133.581 58.578 133.805 58.858C134.038 59.138 134.351 59.278 134.743 59.278C135.219 59.278 135.625 59.082 135.961 58.69C136.306 58.298 136.479 57.7847 136.479 57.15C136.479 56.674 136.358 56.3007 136.115 56.03C135.872 55.7593 135.541 55.624 135.121 55.624ZM141.275 61V53.874H143.403L143.305 55.4C143.595 54.8773 143.963 54.476 144.411 54.196C144.869 53.9067 145.377 53.762 145.937 53.762C146.787 53.762 147.421 54.0513 147.841 54.63C148.261 55.1993 148.467 56.0207 148.457 57.094L148.429 61H146.287L146.315 57.248C146.325 56.7627 146.25 56.394 146.091 56.142C145.942 55.8807 145.699 55.75 145.363 55.75C145.083 55.75 144.827 55.834 144.593 56.002C144.36 56.1607 144.155 56.436 143.977 56.828C143.809 57.22 143.674 57.7567 143.571 58.438C143.469 59.1193 143.413 59.9733 143.403 61H141.275ZM155.595 61V59.502C157.089 58.4473 158.171 57.4533 158.843 56.52C159.515 55.5867 159.851 54.7793 159.851 54.098C159.851 53.706 159.744 53.4027 159.529 53.188C159.315 52.9733 159.016 52.866 158.633 52.866C158.204 52.866 157.84 52.9967 157.541 53.258C157.243 53.51 157.023 53.846 156.883 54.266L155.273 53.398C155.432 52.9127 155.684 52.4833 156.029 52.11C156.375 51.7367 156.79 51.4473 157.275 51.242C157.77 51.0273 158.311 50.92 158.899 50.92C159.543 50.92 160.103 51.046 160.579 51.298C161.055 51.5407 161.424 51.886 161.685 52.334C161.947 52.7727 162.073 53.2813 162.063 53.86C162.063 54.728 161.783 55.61 161.223 56.506C160.673 57.3927 159.749 58.298 158.451 59.222H162.301V61H155.595ZM168.35 61.14C167.108 61.1587 166.166 60.7667 165.522 59.964C164.878 59.152 164.556 57.9013 164.556 56.212C164.556 55.1667 164.71 54.2473 165.018 53.454C165.335 52.6513 165.783 52.0307 166.362 51.592C166.95 51.144 167.65 50.92 168.462 50.92C169.591 50.92 170.468 51.3353 171.094 52.166C171.719 52.9967 172.032 54.2193 172.032 55.834C172.032 56.8607 171.882 57.7753 171.584 58.578C171.294 59.3713 170.874 59.9967 170.324 60.454C169.773 60.902 169.115 61.1307 168.35 61.14ZM168.28 59.208C168.793 59.208 169.176 58.9233 169.428 58.354C169.68 57.7753 169.806 56.94 169.806 55.848C169.806 53.8413 169.339 52.838 168.406 52.838C167.883 52.838 167.482 53.132 167.202 53.72C166.931 54.2987 166.796 55.1153 166.796 56.17C166.796 57.1967 166.912 57.962 167.146 58.466C167.388 58.9607 167.766 59.208 168.28 59.208ZM174.384 61V59.502C175.878 58.4473 176.96 57.4533 177.632 56.52C178.304 55.5867 178.64 54.7793 178.64 54.098C178.64 53.706 178.533 53.4027 178.318 53.188C178.104 52.9733 177.805 52.866 177.422 52.866C176.993 52.866 176.629 52.9967 176.33 53.258C176.032 53.51 175.812 53.846 175.672 54.266L174.062 53.398C174.221 52.9127 174.473 52.4833 174.818 52.11C175.164 51.7367 175.579 51.4473 176.064 51.242C176.559 51.0273 177.1 50.92 177.688 50.92C178.332 50.92 178.892 51.046 179.368 51.298C179.844 51.5407 180.213 51.886 180.474 52.334C180.736 52.7727 180.862 53.2813 180.852 53.86C180.852 54.728 180.572 55.61 180.012 56.506C179.462 57.3927 178.538 58.298 177.24 59.222H181.09V61H174.384ZM183.779 61V59.502C185.272 58.4473 186.355 57.4533 187.027 56.52C187.699 55.5867 188.035 54.7793 188.035 54.098C188.035 53.706 187.927 53.4027 187.713 53.188C187.498 52.9733 187.199 52.866 186.817 52.866C186.387 52.866 186.023 52.9967 185.725 53.258C185.426 53.51 185.207 53.846 185.067 54.266L183.457 53.398C183.615 52.9127 183.867 52.4833 184.213 52.11C184.558 51.7367 184.973 51.4473 185.459 51.242C185.953 51.0273 186.495 50.92 187.083 50.92C187.727 50.92 188.287 51.046 188.763 51.298C189.239 51.5407 189.607 51.886 189.869 52.334C190.13 52.7727 190.256 53.2813 190.247 53.86C190.247 54.728 189.967 55.61 189.407 56.506C188.856 57.3927 187.932 58.298 186.635 59.222H190.485V61H183.779Z" fill="#FEDC97"/>
<path d="M276.158 61.126C274.935 61.126 273.988 60.8647 273.316 60.342C272.644 59.8193 272.261 59.0493 272.168 58.032L274.31 57.724C274.366 58.2093 274.557 58.5827 274.884 58.844C275.211 59.096 275.663 59.222 276.242 59.222C276.737 59.222 277.115 59.138 277.376 58.97C277.647 58.7927 277.782 58.5453 277.782 58.228C277.782 57.9387 277.642 57.71 277.362 57.542C277.082 57.374 276.62 57.2153 275.976 57.066C275.285 56.898 274.702 56.6973 274.226 56.464C273.75 56.2213 273.391 55.9087 273.148 55.526C272.905 55.1433 272.784 54.658 272.784 54.07C272.784 53.454 272.943 52.908 273.26 52.432C273.577 51.956 274.021 51.5873 274.59 51.326C275.159 51.0553 275.817 50.92 276.564 50.92C277.535 50.92 278.328 51.1673 278.944 51.662C279.56 52.1567 279.915 52.8333 280.008 53.692L278.006 54.028C277.931 53.6453 277.759 53.3513 277.488 53.146C277.217 52.9313 276.877 52.824 276.466 52.824C276.055 52.824 275.724 52.922 275.472 53.118C275.22 53.3047 275.094 53.5613 275.094 53.888C275.094 54.1867 275.215 54.4293 275.458 54.616C275.701 54.7933 276.144 54.9613 276.788 55.12C277.469 55.288 278.057 55.4793 278.552 55.694C279.047 55.8993 279.425 56.184 279.686 56.548C279.957 56.912 280.092 57.4067 280.092 58.032C280.092 58.6387 279.929 59.1753 279.602 59.642C279.275 60.1087 278.813 60.4727 278.216 60.734C277.628 60.9953 276.942 61.126 276.158 61.126ZM284.559 61.14C283.738 61.14 283.117 60.86 282.697 60.3C282.277 59.74 282.072 58.9607 282.081 57.962L282.109 53.874H284.251L284.223 57.794C284.223 58.214 284.298 58.5453 284.447 58.788C284.596 59.0307 284.83 59.152 285.147 59.152C285.418 59.152 285.665 59.068 285.889 58.9C286.113 58.732 286.309 58.452 286.477 58.06C286.645 57.668 286.776 57.1313 286.869 56.45C286.972 55.7687 287.028 54.91 287.037 53.874H289.109V61H286.967L287.065 59.628C286.785 60.1133 286.43 60.4867 286.001 60.748C285.572 61.0093 285.091 61.14 284.559 61.14ZM291.752 61V50.64H293.894V53.874L293.824 54.966C294.337 54.1633 295.102 53.762 296.12 53.762C296.754 53.762 297.296 53.9067 297.744 54.196C298.192 54.4853 298.532 54.8867 298.766 55.4C298.999 55.9133 299.116 56.5013 299.116 57.164C299.116 57.9573 298.952 58.6527 298.626 59.25C298.299 59.8473 297.86 60.314 297.31 60.65C296.759 60.9767 296.143 61.14 295.462 61.14C295.004 61.14 294.603 61.0513 294.258 60.874C293.922 60.6873 293.66 60.4447 293.474 60.146L293.278 61H291.752ZM295.238 59.278C295.751 59.278 296.157 59.0867 296.456 58.704C296.754 58.312 296.904 57.8173 296.904 57.22C296.904 56.716 296.787 56.324 296.554 56.044C296.33 55.764 296.022 55.624 295.63 55.624C295.154 55.624 294.743 55.82 294.398 56.212C294.062 56.604 293.894 57.1173 293.894 57.752C293.894 58.2187 294.015 58.592 294.258 58.872C294.5 59.1427 294.827 59.278 295.238 59.278ZM301.406 61V53.874H303.534L303.45 55.344C303.749 54.7933 304.122 54.392 304.57 54.14C305.018 53.888 305.494 53.762 305.998 53.762C306.493 53.762 306.936 53.888 307.328 54.14C307.72 54.3827 308.019 54.7793 308.224 55.33C308.541 54.798 308.943 54.406 309.428 54.154C309.923 53.8927 310.422 53.762 310.926 53.762C311.766 53.762 312.396 54.0513 312.816 54.63C313.236 55.1993 313.441 56.0207 313.432 57.094L313.404 61H311.262L311.29 57.136C311.29 56.7067 311.211 56.3707 311.052 56.128C310.893 55.876 310.651 55.75 310.324 55.75C310.072 55.75 309.834 55.8293 309.61 55.988C309.395 56.1467 309.204 56.422 309.036 56.814C308.868 57.206 308.733 57.7427 308.63 58.424C308.537 59.1053 308.481 59.964 308.462 61H306.334V57.136C306.334 56.7067 306.259 56.3707 306.11 56.128C305.961 55.876 305.723 55.75 305.396 55.75C305.144 55.75 304.906 55.8293 304.682 55.988C304.467 56.1467 304.276 56.422 304.108 56.814C303.94 57.206 303.805 57.7427 303.702 58.424C303.599 59.1053 303.543 59.964 303.534 61H301.406ZM318.097 53.874V61H315.955V53.874H318.097ZM317.019 53.034C316.608 53.034 316.282 52.908 316.039 52.656C315.796 52.404 315.675 52.1053 315.675 51.76C315.675 51.4147 315.792 51.116 316.025 50.864C316.268 50.612 316.599 50.486 317.019 50.486C317.43 50.486 317.756 50.612 317.999 50.864C318.242 51.116 318.363 51.4147 318.363 51.76C318.363 52.1053 318.242 52.404 317.999 52.656C317.756 52.908 317.43 53.034 317.019 53.034ZM323.346 61.14C322.31 61.14 321.526 60.9487 320.994 60.566C320.462 60.174 320.15 59.6607 320.056 59.026L321.834 58.578C321.89 58.8487 322.044 59.068 322.296 59.236C322.548 59.3947 322.894 59.474 323.332 59.474C324.032 59.474 324.382 59.3107 324.382 58.984C324.382 58.816 324.28 58.69 324.074 58.606C323.878 58.5127 323.556 58.424 323.108 58.34C322.268 58.1907 321.615 57.9527 321.148 57.626C320.691 57.2993 320.462 56.8 320.462 56.128C320.462 55.6707 320.593 55.2647 320.854 54.91C321.116 54.5553 321.475 54.2753 321.932 54.07C322.39 53.8647 322.917 53.762 323.514 53.762C324.289 53.762 324.928 53.944 325.432 54.308C325.946 54.672 326.249 55.12 326.342 55.652L324.592 56.128C324.527 55.9227 324.396 55.7547 324.2 55.624C324.014 55.4933 323.757 55.428 323.43 55.428C323.122 55.428 322.894 55.4793 322.744 55.582C322.604 55.6847 322.534 55.806 322.534 55.946C322.534 56.114 322.632 56.2493 322.828 56.352C323.024 56.4453 323.37 56.5433 323.864 56.646C324.368 56.7393 324.812 56.87 325.194 57.038C325.586 57.1967 325.89 57.4207 326.104 57.71C326.328 57.99 326.44 58.3727 326.44 58.858C326.44 59.3153 326.305 59.7167 326.034 60.062C325.773 60.4073 325.409 60.6733 324.942 60.86C324.476 61.0467 323.944 61.14 323.346 61.14ZM331.141 61.14C330.105 61.14 329.321 60.9487 328.789 60.566C328.257 60.174 327.945 59.6607 327.851 59.026L329.629 58.578C329.685 58.8487 329.839 59.068 330.091 59.236C330.343 59.3947 330.689 59.474 331.127 59.474C331.827 59.474 332.177 59.3107 332.177 58.984C332.177 58.816 332.075 58.69 331.869 58.606C331.673 58.5127 331.351 58.424 330.903 58.34C330.063 58.1907 329.41 57.9527 328.943 57.626C328.486 57.2993 328.257 56.8 328.257 56.128C328.257 55.6707 328.388 55.2647 328.649 54.91C328.911 54.5553 329.27 54.2753 329.727 54.07C330.185 53.8647 330.712 53.762 331.309 53.762C332.084 53.762 332.723 53.944 333.227 54.308C333.741 54.672 334.044 55.12 334.137 55.652L332.387 56.128C332.322 55.9227 332.191 55.7547 331.995 55.624C331.809 55.4933 331.552 55.428 331.225 55.428C330.917 55.428 330.689 55.4793 330.539 55.582C330.399 55.6847 330.329 55.806 330.329 55.946C330.329 56.114 330.427 56.2493 330.623 56.352C330.819 56.4453 331.165 56.5433 331.659 56.646C332.163 56.7393 332.607 56.87 332.989 57.038C333.381 57.1967 333.685 57.4207 333.899 57.71C334.123 57.99 334.235 58.3727 334.235 58.858C334.235 59.3153 334.1 59.7167 333.829 60.062C333.568 60.4073 333.204 60.6733 332.737 60.86C332.271 61.0467 331.739 61.14 331.141 61.14ZM338.46 53.874V61H336.318V53.874H338.46ZM337.382 53.034C336.972 53.034 336.645 52.908 336.402 52.656C336.16 52.404 336.038 52.1053 336.038 51.76C336.038 51.4147 336.155 51.116 336.388 50.864C336.631 50.612 336.962 50.486 337.382 50.486C337.793 50.486 338.12 50.612 338.362 50.864C338.605 51.116 338.726 51.4147 338.726 51.76C338.726 52.1053 338.605 52.404 338.362 52.656C338.12 52.908 337.793 53.034 337.382 53.034ZM344.578 53.762C345.688 53.762 346.556 54.0793 347.182 54.714C347.816 55.3487 348.134 56.2073 348.134 57.29C348.134 58.0273 347.975 58.6853 347.658 59.264C347.34 59.8427 346.892 60.3 346.314 60.636C345.735 60.972 345.054 61.14 344.27 61.14C343.168 61.14 342.3 60.8227 341.666 60.188C341.04 59.5533 340.728 58.6993 340.728 57.626C340.728 56.8793 340.886 56.2167 341.204 55.638C341.521 55.0593 341.969 54.602 342.548 54.266C343.126 53.93 343.803 53.762 344.578 53.762ZM344.368 59.278C344.844 59.278 345.222 59.1007 345.502 58.746C345.791 58.382 345.936 57.8967 345.936 57.29C345.936 56.7673 345.81 56.3613 345.558 56.072C345.306 55.7733 344.96 55.624 344.522 55.624C344.036 55.624 343.649 55.806 343.36 56.17C343.08 56.5247 342.94 57.0053 342.94 57.612C342.94 58.1347 343.061 58.5453 343.304 58.844C343.556 59.1333 343.91 59.278 344.368 59.278ZM350.431 61V53.874H352.559L352.461 55.4C352.751 54.8773 353.119 54.476 353.567 54.196C354.025 53.9067 354.533 53.762 355.093 53.762C355.943 53.762 356.577 54.0513 356.997 54.63C357.417 55.1993 357.623 56.0207 357.613 57.094L357.585 61H355.443L355.471 57.248C355.481 56.7627 355.406 56.394 355.247 56.142C355.098 55.8807 354.855 55.75 354.519 55.75C354.239 55.75 353.983 55.834 353.749 56.002C353.516 56.1607 353.311 56.436 353.133 56.828C352.965 57.22 352.83 57.7567 352.727 58.438C352.625 59.1193 352.569 59.9733 352.559 61H350.431Z" fill="#D48C8D"/>
<path d="M364.681 63.8V53.874H366.837L366.767 54.966C367.281 54.1633 368.041 53.762 369.049 53.762C369.684 53.762 370.225 53.9067 370.673 54.196C371.121 54.4853 371.462 54.8867 371.695 55.4C371.929 55.9133 372.045 56.5013 372.045 57.164C372.045 57.9573 371.882 58.6527 371.555 59.25C371.229 59.8473 370.79 60.314 370.239 60.65C369.689 60.9767 369.073 61.14 368.391 61.14C368.065 61.14 367.766 61.0933 367.495 61C367.234 60.9067 367.001 60.776 366.795 60.608L366.823 61V63.8H364.681ZM368.167 59.278C368.681 59.278 369.087 59.0867 369.385 58.704C369.684 58.312 369.833 57.8173 369.833 57.22C369.833 56.716 369.717 56.324 369.483 56.044C369.259 55.764 368.951 55.624 368.559 55.624C368.083 55.624 367.673 55.82 367.327 56.212C366.991 56.604 366.823 57.1173 366.823 57.752C366.823 58.2187 366.945 58.592 367.187 58.872C367.43 59.1427 367.757 59.278 368.167 59.278ZM377.85 61.14C377.056 61.14 376.37 60.9953 375.792 60.706C375.213 60.4073 374.765 59.992 374.448 59.46C374.13 58.9187 373.972 58.2793 373.972 57.542C373.972 56.7953 374.13 56.1373 374.448 55.568C374.774 54.9987 375.208 54.5553 375.75 54.238C376.3 53.9207 376.921 53.762 377.612 53.762C378.396 53.762 379.035 53.9393 379.53 54.294C380.024 54.6487 380.365 55.1527 380.552 55.806C380.748 56.45 380.79 57.2013 380.678 58.06H376.156C376.212 58.4147 376.398 58.7133 376.716 58.956C377.033 59.1893 377.467 59.306 378.018 59.306C378.27 59.306 378.536 59.2547 378.816 59.152C379.096 59.04 379.334 58.8767 379.53 58.662L380.72 59.922C380.412 60.2953 380.029 60.594 379.572 60.818C379.124 61.0327 378.55 61.14 377.85 61.14ZM377.654 55.316C377.28 55.316 376.963 55.428 376.702 55.652C376.45 55.876 376.282 56.1887 376.198 56.59H378.872C378.881 56.1513 378.774 55.8293 378.55 55.624C378.335 55.4187 378.036 55.316 377.654 55.316ZM387.878 55.946C387.691 55.8713 387.439 55.834 387.122 55.834C386.637 55.834 386.249 56.0067 385.96 56.352C385.671 56.688 385.461 57.2387 385.33 58.004C385.199 58.76 385.134 59.7587 385.134 61H383.006V56.38L382.978 53.874H385.12L385.022 55.652C385.274 54.9707 385.61 54.4853 386.03 54.196C386.459 53.9067 386.917 53.762 387.402 53.762C387.561 53.762 387.705 53.7713 387.836 53.79C387.976 53.8087 388.116 53.8413 388.256 53.888L387.878 55.946ZM392.109 53.874V61H389.967V53.874H392.109ZM391.031 53.034C390.62 53.034 390.293 52.908 390.051 52.656C389.808 52.404 389.687 52.1053 389.687 51.76C389.687 51.4147 389.803 51.116 390.037 50.864C390.279 50.612 390.611 50.486 391.031 50.486C391.441 50.486 391.768 50.612 392.011 50.864C392.253 51.116 392.375 51.4147 392.375 51.76C392.375 52.1053 392.253 52.404 392.011 52.656C391.768 52.908 391.441 53.034 391.031 53.034ZM398.226 53.762C399.337 53.762 400.205 54.0793 400.83 54.714C401.465 55.3487 401.782 56.2073 401.782 57.29C401.782 58.0273 401.623 58.6853 401.306 59.264C400.989 59.8427 400.541 60.3 399.962 60.636C399.383 60.972 398.702 61.14 397.918 61.14C396.817 61.14 395.949 60.8227 395.314 60.188C394.689 59.5533 394.376 58.6993 394.376 57.626C394.376 56.8793 394.535 56.2167 394.852 55.638C395.169 55.0593 395.617 54.602 396.196 54.266C396.775 53.93 397.451 53.762 398.226 53.762ZM398.016 59.278C398.492 59.278 398.87 59.1007 399.15 58.746C399.439 58.382 399.584 57.8967 399.584 57.29C399.584 56.7673 399.458 56.3613 399.206 56.072C398.954 55.7733 398.609 55.624 398.17 55.624C397.685 55.624 397.297 55.806 397.008 56.17C396.728 56.5247 396.588 57.0053 396.588 57.612C396.588 58.1347 396.709 58.5453 396.952 58.844C397.204 59.1333 397.559 59.278 398.016 59.278ZM411.08 50.64V61H408.924L408.994 59.95C408.481 60.7433 407.72 61.14 406.712 61.14C406.077 61.14 405.536 60.9953 405.088 60.706C404.64 60.4167 404.299 60.0153 404.066 59.502C403.833 58.9887 403.716 58.4007 403.716 57.738C403.716 56.9447 403.879 56.2493 404.206 55.652C404.533 55.0547 404.971 54.5927 405.522 54.266C406.073 53.93 406.689 53.762 407.37 53.762C407.687 53.762 407.981 53.8087 408.252 53.902C408.523 53.9953 408.756 54.126 408.952 54.294L408.938 53.874V50.64H411.08ZM407.58 55.624C407.067 55.624 406.661 55.8153 406.362 56.198C406.073 56.5807 405.928 57.0707 405.928 57.668C405.928 58.1813 406.04 58.578 406.264 58.858C406.497 59.138 406.81 59.278 407.202 59.278C407.678 59.278 408.084 59.082 408.42 58.69C408.765 58.298 408.938 57.7847 408.938 57.15C408.938 56.674 408.817 56.3007 408.574 56.03C408.331 55.7593 408 55.624 407.58 55.624ZM418.654 61V55.652H417.338V53.874H418.654V53.65C418.654 53.006 418.794 52.4507 419.074 51.984C419.354 51.508 419.732 51.144 420.208 50.892C420.693 50.6307 421.239 50.5 421.846 50.5C422.564 50.5 423.148 50.6773 423.596 51.032C424.044 51.3867 424.319 51.9327 424.422 52.67L422.588 52.894C422.56 52.7073 422.476 52.5627 422.336 52.46C422.196 52.3573 422.018 52.306 421.804 52.306C421.477 52.306 421.22 52.4087 421.034 52.614C420.856 52.81 420.768 53.0947 420.768 53.468V53.874H422.686V55.652H420.796V61H418.654ZM427.875 53.762C428.985 53.762 429.853 54.0793 430.479 54.714C431.113 55.3487 431.431 56.2073 431.431 57.29C431.431 58.0273 431.272 58.6853 430.954 59.264C430.637 59.8427 430.189 60.3 429.611 60.636C429.032 60.972 428.351 61.14 427.567 61.14C426.465 61.14 425.597 60.8227 424.963 60.188C424.337 59.5533 424.024 58.6993 424.024 57.626C424.024 56.8793 424.183 56.2167 424.501 55.638C424.818 55.0593 425.266 54.602 425.845 54.266C426.423 53.93 427.1 53.762 427.875 53.762ZM427.665 59.278C428.141 59.278 428.519 59.1007 428.799 58.746C429.088 58.382 429.233 57.8967 429.233 57.29C429.233 56.7673 429.107 56.3613 428.855 56.072C428.603 55.7733 428.257 55.624 427.819 55.624C427.333 55.624 426.946 55.806 426.657 56.17C426.377 56.5247 426.237 57.0053 426.237 57.612C426.237 58.1347 426.358 58.5453 426.601 58.844C426.853 59.1333 427.207 59.278 427.665 59.278ZM438.614 55.946C438.428 55.8713 438.176 55.834 437.858 55.834C437.373 55.834 436.986 56.0067 436.696 56.352C436.407 56.688 436.197 57.2387 436.066 58.004C435.936 58.76 435.87 59.7587 435.87 61H433.742V56.38L433.714 53.874H435.856L435.758 55.652C436.01 54.9707 436.346 54.4853 436.766 54.196C437.196 53.9067 437.653 53.762 438.138 53.762C438.297 53.762 438.442 53.7713 438.572 53.79C438.712 53.8087 438.852 53.8413 438.992 53.888L438.614 55.946ZM447.848 61.14C446.812 61.14 446.028 60.9487 445.496 60.566C444.964 60.174 444.652 59.6607 444.558 59.026L446.336 58.578C446.392 58.8487 446.546 59.068 446.798 59.236C447.05 59.3947 447.396 59.474 447.834 59.474C448.534 59.474 448.884 59.3107 448.884 58.984C448.884 58.816 448.782 58.69 448.576 58.606C448.38 58.5127 448.058 58.424 447.61 58.34C446.77 58.1907 446.117 57.9527 445.65 57.626C445.193 57.2993 444.964 56.8 444.964 56.128C444.964 55.6707 445.095 55.2647 445.356 54.91C445.618 54.5553 445.977 54.2753 446.434 54.07C446.892 53.8647 447.419 53.762 448.016 53.762C448.791 53.762 449.43 53.944 449.934 54.308C450.448 54.672 450.751 55.12 450.844 55.652L449.094 56.128C449.029 55.9227 448.898 55.7547 448.702 55.624C448.516 55.4933 448.259 55.428 447.932 55.428C447.624 55.428 447.396 55.4793 447.246 55.582C447.106 55.6847 447.036 55.806 447.036 55.946C447.036 56.114 447.134 56.2493 447.33 56.352C447.526 56.4453 447.872 56.5433 448.366 56.646C448.87 56.7393 449.314 56.87 449.696 57.038C450.088 57.1967 450.392 57.4207 450.606 57.71C450.83 57.99 450.942 58.3727 450.942 58.858C450.942 59.3153 450.807 59.7167 450.536 60.062C450.275 60.4073 449.911 60.6733 449.444 60.86C448.978 61.0467 448.446 61.14 447.848 61.14ZM456.095 61.14C455.217 61.14 454.522 60.8973 454.009 60.412C453.495 59.9173 453.243 59.2687 453.253 58.466L453.309 55.652H452.133V53.874H453.337L453.351 52.418H455.479L455.465 53.874H457.691V55.652H455.437L455.395 58.228C455.395 58.564 455.483 58.8253 455.66 59.012C455.838 59.1987 456.104 59.292 456.459 59.292C456.664 59.292 456.86 59.2687 457.047 59.222C457.243 59.166 457.443 59.0633 457.649 58.914L458.265 60.552C457.789 60.944 457.065 61.14 456.095 61.14ZM462.019 53.874V61H459.877V53.874H462.019ZM460.941 53.034C460.53 53.034 460.203 52.908 459.961 52.656C459.718 52.404 459.597 52.1053 459.597 51.76C459.597 51.4147 459.713 51.116 459.947 50.864C460.189 50.612 460.521 50.486 460.941 50.486C461.351 50.486 461.678 50.612 461.921 50.864C462.163 51.116 462.285 51.4147 462.285 51.76C462.285 52.1053 462.163 52.404 461.921 52.656C461.678 52.908 461.351 53.034 460.941 53.034ZM467.912 61.14C467.175 61.14 466.536 61 465.994 60.72C465.453 60.4307 465.033 60.02 464.734 59.488C464.436 58.956 464.286 58.3213 464.286 57.584C464.286 56.828 464.445 56.1653 464.762 55.596C465.089 55.0173 465.537 54.5693 466.106 54.252C466.676 53.9253 467.338 53.762 468.094 53.762C468.71 53.762 469.256 53.8833 469.732 54.126C470.208 54.3687 470.591 54.7467 470.88 55.26L469.368 56.408C469.219 56.1373 469.042 55.9413 468.836 55.82C468.64 55.6987 468.393 55.638 468.094 55.638C467.637 55.638 467.259 55.8153 466.96 56.17C466.662 56.5153 466.512 56.9727 466.512 57.542C466.512 58.0927 466.643 58.5173 466.904 58.816C467.175 59.1147 467.562 59.264 468.066 59.264C468.337 59.264 468.584 59.2033 468.808 59.082C469.042 58.9513 469.238 58.7507 469.396 58.48L470.866 59.656C470.549 60.1973 470.129 60.58 469.606 60.804C469.093 61.028 468.528 61.14 467.912 61.14ZM472.609 61V50.64H474.751V56.716L477.397 53.874H479.945L476.725 57.318C476.94 57.4487 477.117 57.6213 477.257 57.836L477.803 58.69C478.093 59.138 478.499 59.362 479.021 59.362C479.301 59.362 479.567 59.292 479.819 59.152L480.281 60.734C480.02 60.8833 479.749 60.9907 479.469 61.056C479.199 61.1213 478.909 61.1493 478.601 61.14C477.995 61.1307 477.491 61.0187 477.089 60.804C476.697 60.5893 476.343 60.2253 476.025 59.712L475.479 58.858C475.349 58.6527 475.227 58.4847 475.115 58.354C475.003 58.2233 474.882 58.1207 474.751 58.046V61H472.609ZM484.875 61.14C484.082 61.14 483.396 60.9953 482.817 60.706C482.238 60.4073 481.79 59.992 481.473 59.46C481.156 58.9187 480.997 58.2793 480.997 57.542C480.997 56.7953 481.156 56.1373 481.473 55.568C481.8 54.9987 482.234 54.5553 482.775 54.238C483.326 53.9207 483.946 53.762 484.637 53.762C485.421 53.762 486.06 53.9393 486.555 54.294C487.05 54.6487 487.39 55.1527 487.577 55.806C487.773 56.45 487.815 57.2013 487.703 58.06H483.181C483.237 58.4147 483.424 58.7133 483.741 58.956C484.058 59.1893 484.492 59.306 485.043 59.306C485.295 59.306 485.561 59.2547 485.841 59.152C486.121 59.04 486.359 58.8767 486.555 58.662L487.745 59.922C487.437 60.2953 487.054 60.594 486.597 60.818C486.149 61.0327 485.575 61.14 484.875 61.14ZM484.679 55.316C484.306 55.316 483.988 55.428 483.727 55.652C483.475 55.876 483.307 56.1887 483.223 56.59H485.897C485.906 56.1513 485.799 55.8293 485.575 55.624C485.36 55.4187 485.062 55.316 484.679 55.316ZM494.903 55.946C494.717 55.8713 494.465 55.834 494.147 55.834C493.662 55.834 493.275 56.0067 492.985 56.352C492.696 56.688 492.486 57.2387 492.355 58.004C492.225 58.76 492.159 59.7587 492.159 61H490.031V56.38L490.003 53.874H492.145L492.047 55.652C492.299 54.9707 492.635 54.4853 493.055 54.196C493.485 53.9067 493.942 53.762 494.427 53.762C494.586 53.762 494.731 53.7713 494.861 53.79C495.001 53.8087 495.141 53.8413 495.281 53.888L494.903 55.946ZM508.519 50.64V61H506.363L506.433 59.95C505.92 60.7433 505.159 61.14 504.151 61.14C503.517 61.14 502.975 60.9953 502.527 60.706C502.079 60.4167 501.739 60.0153 501.505 59.502C501.272 58.9887 501.155 58.4007 501.155 57.738C501.155 56.9447 501.319 56.2493 501.645 55.652C501.972 55.0547 502.411 54.5927 502.961 54.266C503.512 53.93 504.128 53.762 504.809 53.762C505.127 53.762 505.421 53.8087 505.691 53.902C505.962 53.9953 506.195 54.126 506.391 54.294L506.377 53.874V50.64H508.519ZM505.019 55.624C504.506 55.624 504.1 55.8153 503.801 56.198C503.512 56.5807 503.367 57.0707 503.367 57.668C503.367 58.1813 503.479 58.578 503.703 58.858C503.937 59.138 504.249 59.278 504.641 59.278C505.117 59.278 505.523 59.082 505.859 58.69C506.205 58.298 506.377 57.7847 506.377 57.15C506.377 56.674 506.256 56.3007 506.013 56.03C505.771 55.7593 505.439 55.624 505.019 55.624ZM514.688 61.14C513.894 61.14 513.208 60.9953 512.63 60.706C512.051 60.4073 511.603 59.992 511.286 59.46C510.968 58.9187 510.81 58.2793 510.81 57.542C510.81 56.7953 510.968 56.1373 511.286 55.568C511.612 54.9987 512.046 54.5553 512.588 54.238C513.138 53.9207 513.759 53.762 514.45 53.762C515.234 53.762 515.873 53.9393 516.368 54.294C516.862 54.6487 517.203 55.1527 517.39 55.806C517.586 56.45 517.628 57.2013 517.516 58.06H512.994C513.05 58.4147 513.236 58.7133 513.554 58.956C513.871 59.1893 514.305 59.306 514.856 59.306C515.108 59.306 515.374 59.2547 515.654 59.152C515.934 59.04 516.172 58.8767 516.368 58.662L517.558 59.922C517.25 60.2953 516.867 60.594 516.41 60.818C515.962 61.0327 515.388 61.14 514.688 61.14ZM514.492 55.316C514.118 55.316 513.801 55.428 513.54 55.652C513.288 55.876 513.12 56.1887 513.036 56.59H515.71C515.719 56.1513 515.612 55.8293 515.388 55.624C515.173 55.4187 514.874 55.316 514.492 55.316ZM522.448 61.14C521.412 61.14 520.628 60.9487 520.096 60.566C519.564 60.174 519.251 59.6607 519.158 59.026L520.936 58.578C520.992 58.8487 521.146 59.068 521.398 59.236C521.65 59.3947 521.995 59.474 522.434 59.474C523.134 59.474 523.484 59.3107 523.484 58.984C523.484 58.816 523.381 58.69 523.176 58.606C522.98 58.5127 522.658 58.424 522.21 58.34C521.37 58.1907 520.717 57.9527 520.25 57.626C519.793 57.2993 519.564 56.8 519.564 56.128C519.564 55.6707 519.695 55.2647 519.956 54.91C520.217 54.5553 520.577 54.2753 521.034 54.07C521.491 53.8647 522.019 53.762 522.616 53.762C523.391 53.762 524.03 53.944 524.534 54.308C525.047 54.672 525.351 55.12 525.444 55.652L523.694 56.128C523.629 55.9227 523.498 55.7547 523.302 55.624C523.115 55.4933 522.859 55.428 522.532 55.428C522.224 55.428 521.995 55.4793 521.846 55.582C521.706 55.6847 521.636 55.806 521.636 55.946C521.636 56.114 521.734 56.2493 521.93 56.352C522.126 56.4453 522.471 56.5433 522.966 56.646C523.47 56.7393 523.913 56.87 524.296 57.038C524.688 57.1967 524.991 57.4207 525.206 57.71C525.43 57.99 525.542 58.3727 525.542 58.858C525.542 59.3153 525.407 59.7167 525.136 60.062C524.875 60.4073 524.511 60.6733 524.044 60.86C523.577 61.0467 523.045 61.14 522.448 61.14ZM529.767 53.874V61H527.625V53.874H529.767ZM528.689 53.034C528.278 53.034 527.951 52.908 527.709 52.656C527.466 52.404 527.345 52.1053 527.345 51.76C527.345 51.4147 527.461 51.116 527.695 50.864C527.937 50.612 528.269 50.486 528.689 50.486C529.099 50.486 529.426 50.612 529.669 50.864C529.911 51.116 530.033 51.4147 530.033 51.76C530.033 52.1053 529.911 52.404 529.669 52.656C529.426 52.908 529.099 53.034 528.689 53.034ZM534.988 63.94C534.708 63.94 534.4 63.9167 534.064 63.87C533.738 63.8327 533.425 63.772 533.126 63.688C532.828 63.604 532.571 63.492 532.356 63.352L532.874 61.532C533.182 61.6907 533.518 61.8167 533.882 61.91C534.256 62.0127 534.666 62.064 535.114 62.064C535.898 62.064 536.454 61.8867 536.78 61.532C537.107 61.1773 537.294 60.622 537.34 59.866L537.354 59.74C536.85 60.4867 536.104 60.86 535.114 60.86C534.461 60.86 533.906 60.7247 533.448 60.454C532.991 60.1833 532.641 59.8053 532.398 59.32C532.156 58.8347 532.034 58.2747 532.034 57.64C532.034 56.8747 532.193 56.2027 532.51 55.624C532.837 55.0453 533.276 54.5927 533.826 54.266C534.377 53.93 535.002 53.762 535.702 53.762C536.169 53.762 536.575 53.8553 536.92 54.042C537.275 54.2193 537.546 54.4573 537.732 54.756L537.914 53.902H539.454V59.614C539.454 60.5847 539.268 61.3873 538.894 62.022C538.53 62.666 538.012 63.1467 537.34 63.464C536.678 63.7813 535.894 63.94 534.988 63.94ZM535.926 55.624C535.404 55.624 534.993 55.8013 534.694 56.156C534.396 56.5107 534.246 56.9587 534.246 57.5C534.246 57.976 534.363 58.3447 534.596 58.606C534.839 58.8673 535.166 58.998 535.576 58.998C535.903 58.998 536.197 58.914 536.458 58.746C536.72 58.578 536.925 58.3447 537.074 58.046C537.233 57.7473 537.312 57.4067 537.312 57.024C537.312 56.5947 537.186 56.254 536.934 56.002C536.682 55.75 536.346 55.624 535.926 55.624ZM542.107 61V53.874H544.235L544.137 55.4C544.427 54.8773 544.795 54.476 545.243 54.196C545.701 53.9067 546.209 53.762 546.769 53.762C547.619 53.762 548.253 54.0513 548.673 54.63C549.093 55.1993 549.299 56.0207 549.289 57.094L549.261 61H547.119L547.147 57.248C547.157 56.7627 547.082 56.394 546.923 56.142C546.774 55.8807 546.531 55.75 546.195 55.75C545.915 55.75 545.659 55.834 545.425 56.002C545.192 56.1607 544.987 56.436 544.809 56.828C544.641 57.22 544.506 57.7567 544.403 58.438C544.301 59.1193 544.245 59.9733 544.235 61H542.107ZM554.448 61.14C553.412 61.14 552.628 60.9487 552.096 60.566C551.564 60.174 551.251 59.6607 551.158 59.026L552.936 58.578C552.992 58.8487 553.146 59.068 553.398 59.236C553.65 59.3947 553.995 59.474 554.434 59.474C555.134 59.474 555.484 59.3107 555.484 58.984C555.484 58.816 555.381 58.69 555.176 58.606C554.98 58.5127 554.658 58.424 554.21 58.34C553.37 58.1907 552.717 57.9527 552.25 57.626C551.793 57.2993 551.564 56.8 551.564 56.128C551.564 55.6707 551.695 55.2647 551.956 54.91C552.217 54.5553 552.577 54.2753 553.034 54.07C553.491 53.8647 554.019 53.762 554.616 53.762C555.391 53.762 556.03 53.944 556.534 54.308C557.047 54.672 557.351 55.12 557.444 55.652L555.694 56.128C555.629 55.9227 555.498 55.7547 555.302 55.624C555.115 55.4933 554.859 55.428 554.532 55.428C554.224 55.428 553.995 55.4793 553.846 55.582C553.706 55.6847 553.636 55.806 553.636 55.946C553.636 56.114 553.734 56.2493 553.93 56.352C554.126 56.4453 554.471 56.5433 554.966 56.646C555.47 56.7393 555.913 56.87 556.296 57.038C556.688 57.1967 556.991 57.4207 557.206 57.71C557.43 57.99 557.542 58.3727 557.542 58.858C557.542 59.3153 557.407 59.7167 557.136 60.062C556.875 60.4073 556.511 60.6733 556.044 60.86C555.577 61.0467 555.045 61.14 554.448 61.14Z" fill="#FEDC97"/>
</svg>
