<svg  width="30%" height="50%" viewBox="0 0 264 25" fill="none" xmlns="http://www.w3.org/2000/svg">
<path d="M0.288477 -3.57628e-07C0.528477 2.4 0.618477 3.69 0.618477 6.18V17.82C0.618477 20.31 0.528477 21.6 0.288477 24H15.3485L16.3385 21.99C12.6485 23.25 10.7285 23.43 7.66848 23.43H4.69848V11.61H6.46848C8.05848 11.61 9.67848 11.61 12.4685 11.91V10.74C9.67848 11.04 8.05848 11.04 6.46848 11.04H4.69848V0.569999H7.33848C8.86848 0.569999 11.5685 0.779999 14.0585 2.07L15.6185 -3.57628e-07H0.288477ZM18.8232 -3.57628e-07C19.4532 1.17 19.7532 1.92 20.1432 3.42L25.9032 24H30.7932C30.5532 23.22 30.5832 22.83 30.7632 22.08L36.0432 3.15C36.3432 2.04 36.4932 1.41 37.1832 -3.57628e-07H36.1332C36.0432 1.35 35.7732 2.04 35.4732 3.18L29.9832 22.95L24.4932 3.42C24.1332 2.04 23.9232 1.44 23.8632 -3.57628e-07H18.8232ZM40.3158 -3.57628e-07C40.5558 2.4 40.6458 3.69 40.6458 6.18V17.82C40.6458 20.31 40.5558 21.6 40.3158 24H55.3758L56.3658 21.99C52.6758 23.25 50.7558 23.43 47.6958 23.43H44.7258V11.61H46.4958C48.0858 11.61 49.7058 11.61 52.4958 11.91V10.74C49.7058 11.04 48.0858 11.04 46.4958 11.04H44.7258V0.569999H47.3658C48.8958 0.569999 51.5958 0.779999 54.0858 2.07L55.6458 -3.57628e-07H40.3158ZM59.9779 24H61.0279C60.8179 21.6 60.7579 20.31 60.7579 17.82V1.23L60.8179 1.26L74.0479 24H78.9079C78.6679 21.6 78.6079 20.31 78.6079 17.82V6.18C78.6079 3.69 78.6679 2.4 78.9079 -3.57628e-07H77.8279C78.0379 2.4 78.1279 3.69 78.1279 6.18V22.77L78.0679 22.74L64.8079 -3.57628e-07H59.9779C60.1879 2.4 60.2479 3.69 60.2479 6.18V17.82C60.2479 20.31 60.1879 21.6 59.9779 24ZM102.436 -3.57628e-07H82.0658L83.6258 2.07C86.1458 0.779999 88.3058 0.569999 89.8358 0.569999H90.1958V17.82C90.1958 20.31 90.1358 21.6 89.9258 24H94.5758C94.3658 21.6 94.3058 20.31 94.3058 17.82V0.569999H94.6658C96.1958 0.569999 98.3558 0.779999 100.876 2.07L102.436 -3.57628e-07ZM134.67 -3.57628e-07H114.3L115.86 2.07C118.38 0.779999 120.54 0.569999 122.07 0.569999H122.43V17.82C122.43 20.31 122.37 21.6 122.16 24H126.81C126.6 21.6 126.54 20.31 126.54 17.82V0.569999H126.9C128.43 0.569999 130.59 0.779999 133.11 2.07L134.67 -3.57628e-07ZM137.337 -3.57628e-07C137.547 2.4 137.607 3.69 137.607 6.18V17.82C137.607 20.31 137.547 21.6 137.337 24H141.987C141.777 21.6 141.717 20.31 141.717 17.82V6.18C141.717 3.69 141.777 2.4 141.987 -3.57628e-07H137.337ZM146.482 24H147.622C147.382 21.6 147.322 20.31 147.322 17.82V1.53L157.522 24.6H158.272L167.872 1.44V17.82C167.872 20.31 167.812 21.6 167.602 24H172.252C172.042 21.6 171.952 20.31 171.952 17.82V6.18C171.952 3.69 172.042 2.4 172.252 -3.57628e-07H167.872L159.802 19.11L151.222 -3.57628e-07H146.482C146.692 2.4 146.752 3.69 146.752 6.18V17.82C146.752 20.31 146.692 21.6 146.482 24ZM176.749 -3.57628e-07C176.989 2.4 177.079 3.69 177.079 6.18V17.82C177.079 20.31 176.989 21.6 176.749 24H191.809L192.799 21.99C189.109 23.25 187.189 23.43 184.129 23.43H181.159V11.61H182.929C184.519 11.61 186.139 11.61 188.929 11.91V10.74C186.139 11.04 184.519 11.04 182.929 11.04H181.159V0.569999H183.799C185.329 0.569999 188.029 0.779999 190.519 2.07L192.079 -3.57628e-07H176.749ZM196.472 -3.57628e-07C196.682 2.4 196.742 3.69 196.742 6.18V17.82C196.742 20.31 196.652 21.6 196.412 24H210.842L211.832 21.99C208.112 23.25 206.222 23.43 203.132 23.43H200.852V6.18C200.852 3.69 200.912 2.4 201.122 -3.57628e-07H196.472ZM215.283 -3.57628e-07C215.493 2.4 215.553 3.69 215.553 6.18V17.82C215.553 20.31 215.493 21.6 215.283 24H219.933C219.723 21.6 219.663 20.31 219.663 17.82V6.18C219.663 3.69 219.723 2.4 219.933 -3.57628e-07H215.283ZM224.427 24H225.477C225.267 21.6 225.207 20.31 225.207 17.82V1.23L225.267 1.26L238.497 24H243.357C243.117 21.6 243.057 20.31 243.057 17.82V6.18C243.057 3.69 243.117 2.4 243.357 -3.57628e-07H242.277C242.487 2.4 242.577 3.69 242.577 6.18V22.77L242.517 22.74L229.257 -3.57628e-07H224.427C224.637 2.4 224.697 3.69 224.697 6.18V17.82C224.697 20.31 224.637 21.6 224.427 24ZM247.869 -3.57628e-07C248.109 2.4 248.199 3.69 248.199 6.18V17.82C248.199 20.31 248.109 21.6 247.869 24H262.929L263.919 21.99C260.229 23.25 258.309 23.43 255.249 23.43H252.279V11.61H254.049C255.639 11.61 257.259 11.61 260.049 11.91V10.74C257.259 11.04 255.639 11.04 254.049 11.04H252.279V0.569999H254.919C256.449 0.569999 259.149 0.779999 261.639 2.07L263.199 -3.57628e-07H247.869Z" fill="#FDFBE2"/>
</svg>
