<svg width="5%" height="5%" viewBox="0 0 56 11" fill="none" xmlns="http://www.w3.org/2000/svg">
<path d="M7.42 2.534H3.178V4.648H7.126V6.608H3.178V10.5H0.938V0.559999H7.42V2.534ZM12.6265 3.262C13.7371 3.262 14.6051 3.57933 15.2305 4.214C15.8651 4.84867 16.1825 5.70733 16.1825 6.79C16.1825 7.52733 16.0238 8.18533 15.7065 8.764C15.3891 9.34267 14.9411 9.8 14.3625 10.136C13.7838 10.472 13.1025 10.64 12.3185 10.64C11.2171 10.64 10.3491 10.3227 9.71445 9.688C9.08912 9.05333 8.77645 8.19933 8.77645 7.126C8.77645 6.37933 8.93512 5.71667 9.25245 5.138C9.56979 4.55933 10.0178 4.102 10.5965 3.766C11.1751 3.43 11.8518 3.262 12.6265 3.262ZM12.4165 8.778C12.8925 8.778 13.2705 8.60067 13.5505 8.246C13.8398 7.882 13.9845 7.39667 13.9845 6.79C13.9845 6.26733 13.8585 5.86133 13.6065 5.572C13.3545 5.27333 13.0091 5.124 12.5705 5.124C12.0851 5.124 11.6978 5.306 11.4085 5.67C11.1285 6.02467 10.9885 6.50533 10.9885 7.112C10.9885 7.63467 11.1098 8.04533 11.3525 8.344C11.6045 8.63333 11.9591 8.778 12.4165 8.778ZM23.3663 5.446C23.1796 5.37133 22.9276 5.334 22.6103 5.334C22.125 5.334 21.7376 5.50667 21.4483 5.852C21.159 6.188 20.949 6.73867 20.8183 7.504C20.6876 8.26 20.6223 9.25867 20.6223 10.5H18.4943V5.88L18.4663 3.374H20.6083L20.5103 5.152C20.7623 4.47067 21.0983 3.98533 21.5183 3.696C21.9476 3.40667 22.405 3.262 22.8903 3.262C23.049 3.262 23.1936 3.27133 23.3243 3.29C23.4643 3.30867 23.6043 3.34133 23.7443 3.388L23.3663 5.446ZM25.4549 10.5V3.374H27.5829L27.4989 4.844C27.7976 4.29333 28.1709 3.892 28.6189 3.64C29.0669 3.388 29.5429 3.262 30.0469 3.262C30.5416 3.262 30.9849 3.388 31.3769 3.64C31.7689 3.88267 32.0676 4.27933 32.2729 4.83C32.5902 4.298 32.9916 3.906 33.4769 3.654C33.9716 3.39267 34.4709 3.262 34.9749 3.262C35.8149 3.262 36.4449 3.55133 36.8649 4.13C37.2849 4.69933 37.4902 5.52067 37.4809 6.594L37.4529 10.5H35.3109L35.3389 6.636C35.3389 6.20667 35.2596 5.87067 35.1009 5.628C34.9422 5.376 34.6996 5.25 34.3729 5.25C34.1209 5.25 33.8829 5.32933 33.6589 5.488C33.4442 5.64667 33.2529 5.922 33.0849 6.314C32.9169 6.706 32.7816 7.24267 32.6789 7.924C32.5856 8.60533 32.5296 9.464 32.5109 10.5H30.3829V6.636C30.3829 6.20667 30.3082 5.87067 30.1589 5.628C30.0096 5.376 29.7716 5.25 29.4449 5.25C29.1929 5.25 28.9549 5.32933 28.7309 5.488C28.5162 5.64667 28.3249 5.922 28.1569 6.314C27.9889 6.706 27.8536 7.24267 27.7509 7.924C27.6482 8.60533 27.5922 9.464 27.5829 10.5H25.4549ZM47.0037 3.402V10.5H44.8477L44.9177 9.436C44.4044 10.2387 43.6437 10.64 42.6357 10.64C42.0011 10.64 41.4597 10.4953 41.0117 10.206C40.5637 9.91667 40.2231 9.51533 39.9897 9.002C39.7564 8.48867 39.6397 7.90067 39.6397 7.238C39.6397 6.44467 39.8031 5.74933 40.1297 5.152C40.4564 4.55467 40.8951 4.09267 41.4457 3.766C41.9964 3.43 42.6124 3.262 43.2937 3.262C43.7417 3.262 44.1384 3.35533 44.4837 3.542C44.8291 3.71933 45.0951 3.95733 45.2817 4.256L45.4637 3.402H47.0037ZM43.5037 5.124C42.9904 5.124 42.5844 5.31533 42.2857 5.698C41.9964 6.08067 41.8517 6.57067 41.8517 7.168C41.8517 7.68133 41.9637 8.078 42.1877 8.358C42.4211 8.638 42.7337 8.778 43.1257 8.778C43.6017 8.778 44.0077 8.582 44.3437 8.19C44.6891 7.798 44.8617 7.28467 44.8617 6.65C44.8617 6.174 44.7404 5.80067 44.4977 5.53C44.2551 5.25933 43.9237 5.124 43.5037 5.124ZM52.864 10.64C51.9867 10.64 51.2914 10.3973 50.778 9.912C50.2647 9.41733 50.0127 8.76867 50.022 7.966L50.078 5.152H48.902V3.374H50.106L50.12 1.918H52.248L52.234 3.374H54.46V5.152H52.206L52.164 7.728C52.164 8.064 52.2527 8.32533 52.43 8.512C52.6074 8.69867 52.8734 8.792 53.228 8.792C53.4334 8.792 53.6294 8.76867 53.816 8.722C54.012 8.666 54.2127 8.56333 54.418 8.414L55.034 10.052C54.558 10.444 53.8347 10.64 52.864 10.64Z" fill="#FEDC97"/>
</svg>
