<svg width="142" height="696" viewBox="0 0 142 696" fill="none" xmlns="http://www.w3.org/2000/svg">
<path d="M-6.96276 3.32298C78.5942 34.5397 35.0502 102.437 33.3546 151.559C31.4972 205.369 30.153 261.317 59.0195 313.541C66.9938 327.968 71.7297 343.634 76.5685 358.499C83.2115 378.908 92.5391 397.222 102.524 417.042C115.336 442.474 125.893 468.003 122.036 494.578C120.192 507.276 110.401 521.427 103.526 533.337C84.5317 566.24 58.5096 599.345 29.6071 629.038C7.76586 651.476 0.743513 665.072 -28.5128 684.198" stroke="#E79565" stroke-width="5" stroke-linecap="round" stroke-linejoin="round"/>
<path d="M-14.516 5.82151C71.041 37.0382 27.497 104.935 25.8014 154.057C23.944 207.868 22.5998 263.815 51.4662 316.039C59.4405 330.466 64.1765 346.132 69.0153 360.998C75.6583 381.406 84.9859 399.72 94.9707 419.54C107.783 444.973 118.34 470.502 114.482 497.076C112.639 509.775 102.848 523.925 95.9729 535.835C76.9785 568.738 50.9564 601.844 22.0539 631.536C0.212634 653.975 -6.80971 667.571 -36.066 686.697" stroke="#E79565" stroke-width="3" stroke-linecap="round" stroke-linejoin="round"/>
<path d="M-19.4999 8.12962C66.0571 39.3463 22.5131 107.243 20.8175 156.365C18.9601 210.176 17.6159 266.123 46.4823 318.348C54.4567 332.774 59.1926 348.44 64.0314 363.306C70.6744 383.715 80.002 402.028 89.9868 421.849C102.799 447.281 113.356 472.81 109.498 499.384C107.655 512.083 97.8643 526.233 90.989 538.143C71.9946 571.046 45.9725 604.152 17.07 633.845C-4.77125 656.283 -11.7936 669.879 -41.0499 689.005" stroke="#E79565" stroke-width="3" stroke-linecap="round" stroke-linejoin="round"/>
<path d="M19.6607 293.866C19.6607 276.968 15.9612 266.917 -5.74508 253.781C-5.74508 253.781 -6.2478 297.765 -5.74581 327.108C-5.74581 347.178 -6.22692 374.041 -5.74581 395.602C-5.33403 414.055 -6.24634 431.967 -5.74581 450.488L-5.74581 478.896C-5.74581 487.17 -5.72389 494.948 -5.72389 503.683L-5.72397 565.407C-5.72411 569.215 -9.76353 574.35 1.0669 568.163C6.13173 565.079 14.9269 563.71 20.3077 560.506C24.3237 558.115 32.4231 555.961 37.2848 553.829C48.8164 548.774 59.2065 538.859 64.4483 531.838C84.443 505.054 77.4767 477.931 66.2089 450.488C58.4885 431.685 42.4938 413.512 29.3622 395.602C23.0677 387.017 19.1107 377.274 16.9123 368.172C15.3623 361.754 14.976 358.29 14.8093 351.795C14.7051 347.733 12.197 340.063 12.197 334.441C9.20976 330.367 9.95793 323.931 9.95793 321.242C9.95793 316.842 14.3666 311.407 14.8093 307.31C15.1826 303.855 17.2713 297.718 19.6607 293.866Z" fill="#5DA1A1"/>
</svg>
