<svg preserveAspectRatio="xMidYMin meet" width="100%" height="1617" viewBox="0 0 1024 1617" fill="none" xmlns="http://www.w3.org/2000/svg">
<path d="M818.055 18.7543C807.356 33.5604 801.322 52.6257 805.299 71.4861C805.484 66.8444 805.234 62.4156 808.456 59.1129C812.683 54.7793 817.874 51.6915 822.326 47.4527C827.671 42.3644 836.097 41.5604 841.158 36.3717C847.021 30.3619 858.555 21.9101 855.314 11.0789C852.665 2.2232 845.859 1.02919 838.205 1.57173C829.9 2.16033 822.835 12.1406 818.055 18.7543Z" fill="#5DA1A1"/>
<path d="M828.76 77.3413C826.819 78.0814 825.489 78.4412 823.482 78.9338C825.082 78.667 826.905 78.6013 828.547 79.1284C829.47 79.4245 830.616 79.7787 831.454 80.3087C832.752 81.1297 834.338 81.3274 835.689 82.0271C839.281 83.8882 843.288 84.8481 847.023 86.2531C852.888 88.4599 858.986 89.9079 864.889 89.1546C869.426 88.5754 875.114 86.4158 876.012 81.4349C877.22 74.7312 871.498 68.3607 864.976 66.9271C861.142 66.0844 857.483 66.1796 853.83 66.9104C851.542 67.3681 849.314 68.0953 847.076 68.6997C845.49 69.1278 844.009 69.6011 842.533 70.2818C839.549 71.6578 836.643 73.2061 833.793 74.8081C832.145 75.7347 830.549 76.6591 828.76 77.3413Z" fill="#E79565"/>
<path d="M1380.01 1322.73C1365.22 1095.47 1195.3 873.573 1011.24 736.417C938.851 675.991 934.34 473.2 941.132 379.357C949.17 279.644 887.247 181.56 786.03 131.396C704.359 90.9197 620.288 64.7254 519.347 79.1577C355.987 102.514 179.489 132.943 28.5858 200.225C-94.326 255.026 -206.022 348.143 -273.625 452.112C-350.127 569.768 -252.414 740.13 -155.579 812.782C-44.9936 895.75 98.545 1011.79 121.595 1147.44C138.459 1246.69 128.056 1351.46 139.583 1451.59C149.147 1534.66 214.827 1549.72 301.726 1573.96C411.705 1604.64 501.935 1506.36 610.821 1485.29C758.85 1456.66 883.479 1498.87 1008.63 1552.93C1084.41 1585.66 1177.22 1633.67 1272.47 1610.37C1308.41 1601.58 1318.94 1614.83 1341.88 1582.62C1389.24 1516.13 1384.66 1394.21 1380.01 1322.73Z" fill="#FED92F"/>
</svg>
