<svg width="123" height="428" viewBox="0 0 123 428" fill="none" xmlns="http://www.w3.org/2000/svg">
<path d="M89.7709 420.926C99.777 430.308 110.153 426.443 122.098 428C122.098 404.974 123.023 386.927 122.096 365.693C122.098 338.296 122.097 307.488 122.097 279.965L122.097 141.115C122.097 135.983 122.098 141.115 122.098 117.79C122.098 117.79 112.975 116.072 110.455 113.641C104.605 108 93.6313 104.834 86.5507 101.099C66.9514 90.762 35.5655 96.6485 24.499 121.107C20.3059 130.374 22.066 143.318 20.0402 153.358C17.7616 164.652 11.7351 173.598 10.7511 185.461C9.75499 197.468 12.8566 210.747 12.8566 223.087C12.8566 233.78 7.25018 240.263 2.20502 248.918C-9.18489 268.459 26.8563 293.882 35.0267 305.209C44.5797 318.453 53.2153 336.613 56.3299 353.885C58.8059 367.616 60.3384 380.889 67.8485 392.258C74.9855 403.063 80.9589 412.664 89.7709 420.926Z" fill="#B35699"/>
<path d="M92.9842 34.3782C114.24 46.6063 116.439 65.4021 122.479 90.5955V150.287V157.06C122.479 163.834 122.479 154.542 122.479 161.717C118.486 160.404 116.522 157.336 112.66 155.114C97.0828 146.153 84.1812 134.273 76.5879 115.707C72.4967 105.705 76.5879 95.4224 76.5879 85.3138C76.5879 75.0937 76.0146 61.6542 74.1284 51.6711C71.504 37.7812 66.9147 24.6809 63.8351 10.9017C62.6896 5.77613 62.7045 -1.98882 63.8351 0.468297C67.9122 9.32894 67.5668 7.01978 73.3086 14.5699C78.0793 20.8431 86.3614 30.5682 92.9842 34.3782Z" fill="#0E7471"/>
<path d="M122.479 233.262C111.039 222.611 99.773 229.46 92.8324 242.999C89.2181 250.049 95.1181 260.911 92.8323 268.638C91.6494 272.637 92.4765 279.227 90.5788 282.697C85.4486 292.078 71.4128 293.56 70.9621 306.668C70.5826 317.702 78.0914 323.806 74.6744 334.823C71.2245 345.945 67.8055 358.122 76.5906 366.857C80.4342 370.678 86.8869 370.768 91.6178 372.331C96.528 373.953 98.1968 374.77 103.323 375.294C112.907 376.273 113.108 381.053 122.48 378.892" stroke="white" stroke-width="5" stroke-linecap="round" stroke-linejoin="round"/>
</svg>
