<svg width="3%" height="3%"  viewBox="0 0 29 11" fill="none" xmlns="http://www.w3.org/2000/svg">
<path d="M0.938 10.5V0.559999H3.22V10.5H0.938ZM5.98225 10.5V3.374H8.11025L8.01225 4.9C8.30158 4.37733 8.67025 3.976 9.11825 3.696C9.57558 3.40667 10.0843 3.262 10.6443 3.262C11.4936 3.262 12.1283 3.55133 12.5482 4.13C12.9683 4.69933 13.1736 5.52067 13.1643 6.594L13.1363 10.5H10.9943L11.0223 6.748C11.0316 6.26267 10.9569 5.894 10.7983 5.642C10.6489 5.38067 10.4063 5.25 10.0703 5.25C9.79025 5.25 9.53358 5.334 9.30025 5.502C9.06692 5.66067 8.86158 5.936 8.68425 6.328C8.51625 6.72 8.38092 7.25667 8.27825 7.938C8.17558 8.61933 8.11958 9.47333 8.11025 10.5H5.98225ZM16.0969 10.5V5.152H14.7809V3.374H16.0969V3.15C16.0969 2.506 16.2369 1.95067 16.5169 1.484C16.7969 1.008 17.1749 0.643999 17.6509 0.391999C18.1362 0.130666 18.6822 -8.34465e-07 19.2889 -8.34465e-07C20.0076 -8.34465e-07 20.5909 0.177333 21.0389 0.532C21.4869 0.886666 21.7622 1.43267 21.8649 2.17L20.0309 2.394C20.0029 2.20733 19.9189 2.06267 19.7789 1.96C19.6389 1.85733 19.4616 1.806 19.2469 1.806C18.9202 1.806 18.6636 1.90867 18.4769 2.114C18.2996 2.31 18.2109 2.59467 18.2109 2.968V3.374H20.1289V5.152H18.2389V10.5H16.0969ZM25.3179 3.262C26.4285 3.262 27.2965 3.57933 27.9219 4.214C28.5565 4.84867 28.8739 5.70733 28.8739 6.79C28.8739 7.52733 28.7152 8.18533 28.3979 8.764C28.0805 9.34267 27.6325 9.8 27.0539 10.136C26.4752 10.472 25.7939 10.64 25.0099 10.64C23.9085 10.64 23.0405 10.3227 22.4059 9.688C21.7805 9.05333 21.4679 8.19933 21.4679 7.126C21.4679 6.37933 21.6265 5.71667 21.9439 5.138C22.2612 4.55933 22.7092 4.102 23.2879 3.766C23.8665 3.43 24.5432 3.262 25.3179 3.262ZM25.1079 8.778C25.5839 8.778 25.9619 8.60067 26.2419 8.246C26.5312 7.882 26.6759 7.39667 26.6759 6.79C26.6759 6.26733 26.5499 5.86133 26.2979 5.572C26.0459 5.27333 25.7005 5.124 25.2619 5.124C24.7765 5.124 24.3892 5.306 24.0999 5.67C23.8199 6.02467 23.6799 6.50533 23.6799 7.112C23.6799 7.63467 23.8012 8.04533 24.0439 8.344C24.2959 8.63333 24.6505 8.778 25.1079 8.778Z" fill="#FEDC97"/>
</svg>
