<svg width="10%" height="10%" viewBox="0 0 122 14" fill="none" xmlns="http://www.w3.org/2000/svg">
<path d="M3.8 11.14C3.00667 11.14 2.32533 10.9533 1.756 10.58C1.196 10.2067 0.813333 9.66067 0.608 8.942L2.47 8.116C2.61 8.452 2.78267 8.704 2.988 8.872C3.19333 9.04 3.45467 9.124 3.772 9.124C4.09867 9.124 4.35067 9.02133 4.528 8.816C4.71467 8.61067 4.808 8.298 4.808 7.878V1.06H7.104V7.626C7.104 8.73667 6.81467 9.6 6.236 10.216C5.66667 10.832 4.85467 11.14 3.8 11.14ZM12.1917 11.14C11.3703 11.14 10.7497 10.86 10.3297 10.3C9.90967 9.74 9.70434 8.96067 9.71367 7.962L9.74167 3.874H11.8837L11.8557 7.794C11.8557 8.214 11.9303 8.54533 12.0797 8.788C12.229 9.03067 12.4623 9.152 12.7797 9.152C13.0503 9.152 13.2977 9.068 13.5217 8.9C13.7457 8.732 13.9417 8.452 14.1097 8.06C14.2777 7.668 14.4083 7.13133 14.5017 6.45C14.6043 5.76867 14.6603 4.91 14.6697 3.874H16.7417V11H14.5997L14.6977 9.628C14.4177 10.1133 14.063 10.4867 13.6337 10.748C13.2043 11.0093 12.7237 11.14 12.1917 11.14ZM26.3846 0.64V11H24.2286L24.2986 9.95C23.7853 10.7433 23.0246 11.14 22.0166 11.14C21.3819 11.14 20.8406 10.9953 20.3926 10.706C19.9446 10.4167 19.6039 10.0153 19.3706 9.502C19.1373 8.98867 19.0206 8.40067 19.0206 7.738C19.0206 6.94467 19.1839 6.24933 19.5106 5.652C19.8373 5.05467 20.2759 4.59267 20.8266 4.266C21.3773 3.93 21.9933 3.762 22.6746 3.762C22.9919 3.762 23.2859 3.80867 23.5566 3.902C23.8273 3.99533 24.0606 4.126 24.2566 4.294L24.2426 3.874V0.64H26.3846ZM22.8846 5.624C22.3713 5.624 21.9653 5.81533 21.6666 6.198C21.3773 6.58067 21.2326 7.07067 21.2326 7.668C21.2326 8.18133 21.3446 8.578 21.5686 8.858C21.8019 9.138 22.1146 9.278 22.5066 9.278C22.9826 9.278 23.3886 9.082 23.7246 8.69C24.0699 8.298 24.2426 7.78467 24.2426 7.15C24.2426 6.674 24.1213 6.30067 23.8786 6.03C23.6359 5.75933 23.3046 5.624 22.8846 5.624ZM31.6289 13.94C31.3489 13.94 31.0409 13.9167 30.7049 13.87C30.3782 13.8327 30.0656 13.772 29.7669 13.688C29.4682 13.604 29.2116 13.492 28.9969 13.352L29.5149 11.532C29.8229 11.6907 30.1589 11.8167 30.5229 11.91C30.8962 12.0127 31.3069 12.064 31.7549 12.064C32.5389 12.064 33.0942 11.8867 33.4209 11.532C33.7476 11.1773 33.9342 10.622 33.9809 9.866L33.9949 9.74C33.4909 10.4867 32.7442 10.86 31.7549 10.86C31.1016 10.86 30.5462 10.7247 30.0889 10.454C29.6316 10.1833 29.2816 9.80533 29.0389 9.32C28.7962 8.83467 28.6749 8.27467 28.6749 7.64C28.6749 6.87467 28.8336 6.20267 29.1509 5.624C29.4776 5.04533 29.9162 4.59267 30.4669 4.266C31.0176 3.93 31.6429 3.762 32.3429 3.762C32.8096 3.762 33.2156 3.85533 33.5609 4.042C33.9156 4.21933 34.1862 4.45733 34.3729 4.756L34.5549 3.902H36.0949V9.614C36.0949 10.5847 35.9082 11.3873 35.5349 12.022C35.1709 12.666 34.6529 13.1467 33.9809 13.464C33.3182 13.7813 32.5342 13.94 31.6289 13.94ZM32.5669 5.624C32.0442 5.624 31.6336 5.80133 31.3349 6.156C31.0362 6.51067 30.8869 6.95867 30.8869 7.5C30.8869 7.976 31.0036 8.34467 31.2369 8.606C31.4796 8.86733 31.8062 8.998 32.2169 8.998C32.5436 8.998 32.8376 8.914 33.0989 8.746C33.3602 8.578 33.5656 8.34467 33.7149 8.046C33.8736 7.74733 33.9529 7.40667 33.9529 7.024C33.9529 6.59467 33.8269 6.254 33.5749 6.002C33.3229 5.75 32.9869 5.624 32.5669 5.624ZM40.8899 3.874V11H38.7479V3.874H40.8899ZM39.8119 3.034C39.4012 3.034 39.0745 2.908 38.8319 2.656C38.5892 2.404 38.4679 2.10533 38.4679 1.76C38.4679 1.41467 38.5845 1.116 38.8179 0.863999C39.0605 0.611999 39.3919 0.485999 39.8119 0.485999C40.2225 0.485999 40.5492 0.611999 40.7919 0.863999C41.0345 1.116 41.1559 1.41467 41.1559 1.76C41.1559 2.10533 41.0345 2.404 40.7919 2.656C40.5492 2.908 40.2225 3.034 39.8119 3.034ZM43.5213 11V3.874H45.6493L45.5513 5.4C45.8406 4.87733 46.2093 4.476 46.6573 4.196C47.1146 3.90667 47.6233 3.762 48.1833 3.762C49.0326 3.762 49.6673 4.05133 50.0873 4.63C50.5073 5.19933 50.7126 6.02067 50.7033 7.094L50.6753 11H48.5333L48.5613 7.248C48.5706 6.76267 48.496 6.394 48.3373 6.142C48.188 5.88067 47.9453 5.75 47.6093 5.75C47.3293 5.75 47.0726 5.834 46.8393 6.002C46.606 6.16067 46.4006 6.436 46.2233 6.828C46.0553 7.22 45.92 7.75667 45.8173 8.438C45.7146 9.11933 45.6586 9.97333 45.6493 11H43.5213ZM55.834 13.94C55.554 13.94 55.246 13.9167 54.91 13.87C54.5833 13.8327 54.2706 13.772 53.972 13.688C53.6733 13.604 53.4166 13.492 53.202 13.352L53.72 11.532C54.028 11.6907 54.364 11.8167 54.728 11.91C55.1013 12.0127 55.512 12.064 55.96 12.064C56.744 12.064 57.2993 11.8867 57.626 11.532C57.9526 11.1773 58.1393 10.622 58.186 9.866L58.2 9.74C57.696 10.4867 56.9493 10.86 55.96 10.86C55.3066 10.86 54.7513 10.7247 54.294 10.454C53.8366 10.1833 53.4866 9.80533 53.244 9.32C53.0013 8.83467 52.88 8.27467 52.88 7.64C52.88 6.87467 53.0386 6.20267 53.356 5.624C53.6826 5.04533 54.1213 4.59267 54.672 4.266C55.2226 3.93 55.848 3.762 56.548 3.762C57.0146 3.762 57.4206 3.85533 57.766 4.042C58.1206 4.21933 58.3913 4.45733 58.578 4.756L58.76 3.902H60.3V9.614C60.3 10.5847 60.1133 11.3873 59.74 12.022C59.376 12.666 58.858 13.1467 58.186 13.464C57.5233 13.7813 56.7393 13.94 55.834 13.94ZM56.772 5.624C56.2493 5.624 55.8386 5.80133 55.54 6.156C55.2413 6.51067 55.092 6.95867 55.092 7.5C55.092 7.976 55.2086 8.34467 55.442 8.606C55.6846 8.86733 56.0113 8.998 56.422 8.998C56.7486 8.998 57.0426 8.914 57.304 8.746C57.5653 8.578 57.7706 8.34467 57.92 8.046C58.0786 7.74733 58.158 7.40667 58.158 7.024C58.158 6.59467 58.032 6.254 57.78 6.002C57.528 5.75 57.192 5.624 56.772 5.624ZM70.7423 11.14C70.005 11.14 69.3656 11 68.8243 10.72C68.283 10.4307 67.863 10.02 67.5643 9.488C67.2656 8.956 67.1163 8.32133 67.1163 7.584C67.1163 6.828 67.275 6.16533 67.5923 5.596C67.919 5.01733 68.367 4.56933 68.9363 4.252C69.5056 3.92533 70.1683 3.762 70.9243 3.762C71.5403 3.762 72.0863 3.88333 72.5623 4.126C73.0383 4.36867 73.421 4.74667 73.7103 5.26L72.1983 6.408C72.049 6.13733 71.8716 5.94133 71.6663 5.82C71.4703 5.69867 71.223 5.638 70.9243 5.638C70.467 5.638 70.089 5.81533 69.7903 6.17C69.4916 6.51533 69.3423 6.97267 69.3423 7.542C69.3423 8.09267 69.473 8.51733 69.7343 8.816C70.005 9.11467 70.3923 9.264 70.8963 9.264C71.167 9.264 71.4143 9.20333 71.6383 9.082C71.8716 8.95133 72.0676 8.75067 72.2263 8.48L73.6963 9.656C73.379 10.1973 72.959 10.58 72.4363 10.804C71.923 11.028 71.3583 11.14 70.7423 11.14ZM80.3253 5.946C80.1386 5.87133 79.8866 5.834 79.5693 5.834C79.0839 5.834 78.6966 6.00667 78.4073 6.352C78.1179 6.688 77.9079 7.23867 77.7773 8.004C77.6466 8.76 77.5813 9.75867 77.5813 11H75.4533V6.38L75.4253 3.874H77.5673L77.4693 5.652C77.7213 4.97067 78.0573 4.48533 78.4773 4.196C78.9066 3.90667 79.3639 3.762 79.8493 3.762C80.0079 3.762 80.1526 3.77133 80.2833 3.79C80.4233 3.80867 80.5633 3.84133 80.7033 3.888L80.3253 5.946ZM84.5559 3.874V11H82.4139V3.874H84.5559ZM83.4779 3.034C83.0672 3.034 82.7406 2.908 82.4979 2.656C82.2552 2.404 82.1339 2.10533 82.1339 1.76C82.1339 1.41467 82.2506 1.116 82.4839 0.863999C82.7266 0.611999 83.0579 0.485999 83.4779 0.485999C83.8886 0.485999 84.2152 0.611999 84.4579 0.863999C84.7006 1.116 84.8219 1.41467 84.8219 1.76C84.8219 2.10533 84.7006 2.404 84.4579 2.656C84.2152 2.908 83.8886 3.034 83.4779 3.034ZM90.3933 11.14C89.516 11.14 88.8207 10.8973 88.3073 10.412C87.794 9.91733 87.542 9.26867 87.5513 8.466L87.6073 5.652H86.4313V3.874H87.6353L87.6493 2.418H89.7773L89.7633 3.874H91.9893V5.652H89.7353L89.6933 8.228C89.6933 8.564 89.782 8.82533 89.9593 9.012C90.1367 9.19867 90.4027 9.292 90.7573 9.292C90.9627 9.292 91.1587 9.26867 91.3453 9.222C91.5413 9.166 91.742 9.06333 91.9473 8.914L92.5633 10.552C92.0873 10.944 91.364 11.14 90.3933 11.14ZM97.5529 11.14C96.7596 11.14 96.0736 10.9953 95.4949 10.706C94.9162 10.4073 94.4682 9.992 94.1509 9.46C93.8336 8.91867 93.6749 8.27933 93.6749 7.542C93.6749 6.79533 93.8336 6.13733 94.1509 5.568C94.4776 4.99867 94.9116 4.55533 95.4529 4.238C96.0036 3.92067 96.6242 3.762 97.3149 3.762C98.0989 3.762 98.7382 3.93933 99.2329 4.294C99.7276 4.64867 100.068 5.15267 100.255 5.806C100.451 6.45 100.493 7.20133 100.381 8.06H95.8589C95.9149 8.41467 96.1016 8.71333 96.4189 8.956C96.7362 9.18933 97.1702 9.306 97.7209 9.306C97.9729 9.306 98.2389 9.25467 98.5189 9.152C98.7989 9.04 99.0369 8.87667 99.2329 8.662L100.423 9.922C100.115 10.2953 99.7322 10.594 99.2749 10.818C98.8269 11.0327 98.2529 11.14 97.5529 11.14ZM97.3569 5.316C96.9836 5.316 96.6662 5.428 96.4049 5.652C96.1529 5.876 95.9849 6.18867 95.9009 6.59H98.5749C98.5842 6.15133 98.4769 5.82933 98.2529 5.624C98.0382 5.41867 97.7396 5.316 97.3569 5.316ZM107.581 5.946C107.394 5.87133 107.142 5.834 106.825 5.834C106.34 5.834 105.952 6.00667 105.663 6.352C105.374 6.688 105.164 7.23867 105.033 8.004C104.902 8.76 104.837 9.75867 104.837 11H102.709V6.38L102.681 3.874H104.823L104.725 5.652C104.977 4.97067 105.313 4.48533 105.733 4.196C106.162 3.90667 106.62 3.762 107.105 3.762C107.264 3.762 107.408 3.77133 107.539 3.79C107.679 3.80867 107.819 3.84133 107.959 3.888L107.581 5.946ZM111.812 3.874V11H109.67V3.874H111.812ZM110.734 3.034C110.323 3.034 109.996 2.908 109.754 2.656C109.511 2.404 109.39 2.10533 109.39 1.76C109.39 1.41467 109.506 1.116 109.74 0.863999C109.982 0.611999 110.314 0.485999 110.734 0.485999C111.144 0.485999 111.471 0.611999 111.714 0.863999C111.956 1.116 112.078 1.41467 112.078 1.76C112.078 2.10533 111.956 2.404 111.714 2.656C111.471 2.908 111.144 3.034 110.734 3.034ZM121.443 3.902V11H119.287L119.357 9.936C118.844 10.7387 118.083 11.14 117.075 11.14C116.441 11.14 115.899 10.9953 115.451 10.706C115.003 10.4167 114.663 10.0153 114.429 9.502C114.196 8.98867 114.079 8.40067 114.079 7.738C114.079 6.94467 114.243 6.24933 114.569 5.652C114.896 5.05467 115.335 4.59267 115.885 4.266C116.436 3.93 117.052 3.762 117.733 3.762C118.181 3.762 118.578 3.85533 118.923 4.042C119.269 4.21933 119.535 4.45733 119.721 4.756L119.903 3.902H121.443ZM117.943 5.624C117.43 5.624 117.024 5.81533 116.725 6.198C116.436 6.58067 116.291 7.07067 116.291 7.668C116.291 8.18133 116.403 8.578 116.627 8.858C116.861 9.138 117.173 9.278 117.565 9.278C118.041 9.278 118.447 9.082 118.783 8.69C119.129 8.298 119.301 7.78467 119.301 7.15C119.301 6.674 119.18 6.30067 118.937 6.03C118.695 5.75933 118.363 5.624 117.943 5.624Z" fill="#FEDC97"/>
</svg>
