<svg width="267" height="552" viewBox="0 0 267 552" fill="none" xmlns="http://www.w3.org/2000/svg">
<path fill-rule="evenodd" clip-rule="evenodd" d="M0.348978 273.684C0.348978 273.684 183.326 266.356 193.907 248.67C202.693 229.191 146.386 150.497 146.386 150.497C146.386 150.497 218.313 216.97 235.643 206.363C252.988 194.068 264.983 0.234848 264.983 0.234848C264.983 0.234848 275.398 194.259 292.617 206.849C309.764 217.749 382.814 152.512 382.814 152.512C382.814 152.512 325.172 230.324 333.626 249.86C343.817 267.723 526.645 278.169 526.645 278.169C526.645 278.169 343.666 285.497 333.155 305.05C324.369 324.529 380.692 401.534 380.692 401.534C380.692 401.534 308.749 336.839 291.419 347.446C274.089 358.052 260.285 551.603 260.285 551.603C260.285 551.603 251.595 357.594 234.445 346.96C217.296 336.326 144.264 399.52 144.264 399.52C144.264 399.52 201.889 323.485 193.437 303.86C182.901 285.905 26.278 275.683 0.348978 273.684Z" fill="#FDFBE2"/>
</svg>
