<svg width="192" height="339" viewBox="0 0 192 339" fill="none" xmlns="http://www.w3.org/2000/svg">
<path fill-rule="evenodd" clip-rule="evenodd" d="M0.440869 168.114C0.440869 168.114 112.685 163.618 119.176 152.769C124.565 140.82 90.0246 92.5471 90.0246 92.5471C90.0246 92.5471 134.147 133.324 144.778 126.817C155.418 119.275 162.776 0.370931 162.776 0.370931C162.776 0.370931 169.165 119.392 179.728 127.115C190.246 133.802 235.058 93.7828 235.058 93.7828C235.058 93.7828 199.698 141.515 204.884 153.5C211.136 164.457 323.288 170.865 323.288 170.865C323.288 170.865 211.043 175.361 204.595 187.355C199.206 199.304 233.756 246.541 233.756 246.541C233.756 246.541 189.624 206.855 178.993 213.362C168.362 219.868 159.894 338.599 159.894 338.599C159.894 338.599 154.563 219.587 144.043 213.064C133.524 206.541 88.723 245.306 88.723 245.306C88.723 245.306 124.072 198.664 118.887 186.625C112.424 175.611 16.3466 169.34 0.440869 168.114Z" fill="#033F63"/>
</svg>
