<svg width="346" height="689"  viewBox="0 0 346 689" fill="none" xmlns="http://www.w3.org/2000/svg">
<path fill-rule="evenodd" clip-rule="evenodd" d="M-311.069 341.974C-311.069 341.974 -82.7668 332.83 -69.565 310.763C-58.6027 286.46 -128.858 188.273 -128.858 188.273C-128.858 188.273 -39.113 271.211 -17.4898 257.977C4.15126 242.636 19.1177 0.788443 19.1177 0.788443C19.1177 0.788443 32.1126 242.874 53.5966 258.583C74.9911 272.184 166.136 190.786 166.136 190.786C166.136 190.786 94.216 287.873 104.763 312.249C117.48 334.536 345.596 347.57 345.596 347.57C345.596 347.57 117.291 356.714 104.177 381.11C93.2145 405.414 163.489 501.494 163.489 501.494C163.489 501.494 73.725 420.773 52.1019 434.007C30.4788 447.241 13.2559 688.737 13.2559 688.737C13.2559 688.737 2.41276 446.669 -18.9846 433.401C-40.3819 420.133 -131.505 498.98 -131.505 498.98C-131.505 498.98 -59.6052 404.111 -70.1518 379.624C-83.2973 357.222 -278.717 344.468 -311.069 341.974Z" fill="#FDFBE2"/>
</svg>
