<svg width="50%" height="50%"  viewBox="0 0 446 38" fill="none" xmlns="http://www.w3.org/2000/svg">
<path d="M29.2654 18.95C31.6354 24.62 35.1754 26.6 39.7354 26.6C43.5454 26.6 46.7854 24.62 46.7854 20.48C46.7854 16.58 43.9954 14.69 38.5954 10.91C34.5754 8.12 33.0454 7.1 33.0454 5.03C33.0454 3.23 34.5154 1.97 36.9754 1.97C40.8454 1.97 42.4054 5.15 43.1254 8.3L46.1554 7.07C43.7254 3.17 40.9054 1.4 37.1854 1.4C33.5554 1.4 30.7354 3.14 30.7354 6.47C30.7354 9.62 32.6254 11.12 37.2154 14.42C41.8954 17.78 44.4754 19.46 44.4754 21.92C44.4754 24.62 42.6454 26.03 40.0054 26.03C36.0454 26.03 33.1054 22.37 32.2954 17.33L29.2654 18.95ZM50.7873 2C50.9973 4.4 51.0573 5.69 51.0573 8.18V15.8C51.0573 24.38 55.0473 26.6 60.9573 26.6C66.4473 26.6 69.0573 23.66 69.0573 15.8V8.18C69.0573 5.69 69.1173 4.4 69.3273 2H68.2173C68.4273 4.4 68.4873 5.69 68.4873 8.18V15.8C68.4873 23.15 66.1773 25.7 61.6473 25.7C56.9073 25.7 55.1673 22.85 55.1673 15.8V8.18C55.1673 5.69 55.2273 4.4 55.4373 2H50.7873ZM84.7226 12.47C88.3226 11.87 89.9126 10.22 89.9126 7.37C89.9126 2.72 85.7726 2 81.6626 2H73.5326C73.7426 4.4 73.8026 5.69 73.8026 8.18V19.82C73.8026 22.31 73.7426 23.6 73.5326 26H82.1126C87.2426 26 91.5926 24.47 91.5926 19.34C91.5926 15.05 88.5626 13.13 84.7226 12.47ZM77.9126 2.57H80.1326C82.7726 2.57 85.7426 3.68 85.7426 7.37C85.7426 10.49 84.3026 12.17 80.4026 12.17H77.9126V2.57ZM80.4326 25.43H77.9126V12.74H80.7026C83.2526 12.74 87.1226 13.94 87.1226 19.34C87.1226 23.87 84.0026 25.43 80.4326 25.43ZM95.4799 26H96.6199C96.3799 23.6 96.3199 22.31 96.3199 19.82V3.53L106.52 26.6H107.27L116.87 3.44V19.82C116.87 22.31 116.81 23.6 116.6 26H121.25C121.04 23.6 120.95 22.31 120.95 19.82V8.18C120.95 5.69 121.04 4.4 121.25 2H116.87L108.8 21.11L100.22 2H95.4799C95.6899 4.4 95.7499 5.69 95.7499 8.18V19.82C95.7499 22.31 95.6899 23.6 95.4799 26ZM125.747 2C125.957 4.4 126.017 5.69 126.017 8.18V19.82C126.017 22.31 125.957 23.6 125.747 26H130.397C130.187 23.6 130.127 22.31 130.127 19.82V8.18C130.127 5.69 130.187 4.4 130.397 2H125.747ZM153.908 2H133.538L135.098 4.07C137.618 2.78 139.778 2.57 141.308 2.57H141.668V19.82C141.668 22.31 141.608 23.6 141.398 26H146.048C145.838 23.6 145.778 22.31 145.778 19.82V2.57H146.138C147.668 2.57 149.828 2.78 152.348 4.07L153.908 2ZM183.773 4.79C184.313 3.71 184.553 3.17 185.333 2H184.373C183.983 3.17 183.743 3.65 183.173 4.82L178.283 14.6L173.183 4.82C172.613 3.71 172.313 3.17 171.953 2H166.673C167.543 3.05 167.963 3.68 168.533 4.82L174.233 15.83V19.82C174.233 22.31 174.173 23.6 173.963 26H178.613C178.403 23.6 178.343 22.31 178.343 19.82V15.83L183.773 4.79ZM200.056 26.6C207.916 26.6 213.886 21.62 213.886 14C213.886 6.41 207.916 1.4 200.056 1.4C192.136 1.4 186.196 6.41 186.196 14C186.196 21.62 192.136 26.6 200.056 26.6ZM200.056 26.03C193.966 26.03 190.636 20.33 190.636 14C190.636 7.7 193.966 1.97 200.056 1.97C206.086 1.97 209.446 7.7 209.446 14C209.446 20.33 206.086 26.03 200.056 26.03ZM218.221 2C218.431 4.4 218.491 5.69 218.491 8.18V15.8C218.491 24.38 222.481 26.6 228.391 26.6C233.881 26.6 236.491 23.66 236.491 15.8V8.18C236.491 5.69 236.551 4.4 236.761 2H235.651C235.861 4.4 235.921 5.69 235.921 8.18V15.8C235.921 23.15 233.611 25.7 229.081 25.7C224.341 25.7 222.601 22.85 222.601 15.8V8.18C222.601 5.69 222.661 4.4 222.871 2H218.221ZM256.536 20.36C255.066 16.73 252.696 15.32 249.906 14.81C254.406 14.48 257.976 12.98 257.976 8.45C257.976 3.14 253.086 2 247.506 2H240.966C241.176 4.4 241.236 5.69 241.236 8.18V19.82C241.236 22.31 241.176 23.6 240.966 26H245.616C245.406 23.6 245.346 22.31 245.346 19.82V14.9H246.186C249.156 14.9 250.656 15.77 252.306 20.57C253.806 25.01 256.716 26 262.086 26V25.49C259.356 25.49 258.036 24.2 256.536 20.36ZM245.346 14.33V2.57H247.476C250.746 2.57 253.806 3.77 253.806 8.45C253.806 13.13 250.746 14.33 247.476 14.33H245.346ZM275.925 26H283.245C291.135 26 295.935 21.74 295.935 14C295.935 5.93 290.985 2 283.245 2H275.925C276.135 4.4 276.195 5.69 276.195 8.18V19.82C276.195 22.31 276.135 23.6 275.925 26ZM283.125 25.43H280.305V2.57H283.125C288.075 2.57 291.495 6.2 291.495 14C291.495 21.5 288.075 25.43 283.125 25.43ZM299.835 2C300.075 4.4 300.165 5.69 300.165 8.18V19.82C300.165 22.31 300.075 23.6 299.835 26H314.895L315.885 23.99C312.195 25.25 310.275 25.43 307.215 25.43H304.245V13.61H306.015C307.605 13.61 309.225 13.61 312.015 13.91V12.74C309.225 13.04 307.605 13.04 306.015 13.04H304.245V2.57H306.885C308.415 2.57 311.115 2.78 313.605 4.07L315.165 2H299.835ZM317.367 18.95C319.737 24.62 323.277 26.6 327.837 26.6C331.647 26.6 334.887 24.62 334.887 20.48C334.887 16.58 332.097 14.69 326.697 10.91C322.677 8.12 321.147 7.1 321.147 5.03C321.147 3.23 322.617 1.97 325.077 1.97C328.947 1.97 330.507 5.15 331.227 8.3L334.257 7.07C331.827 3.17 329.007 1.4 325.287 1.4C321.657 1.4 318.837 3.14 318.837 6.47C318.837 9.62 320.727 11.12 325.317 14.42C329.997 17.78 332.577 19.46 332.577 21.92C332.577 24.62 330.747 26.03 328.107 26.03C324.147 26.03 321.207 22.37 320.397 17.33L317.367 18.95ZM338.808 2C339.018 4.4 339.078 5.69 339.078 8.18V19.82C339.078 22.31 339.018 23.6 338.808 26H343.458C343.248 23.6 343.188 22.31 343.188 19.82V8.18C343.188 5.69 343.248 4.4 343.458 2H338.808ZM372.376 14.45V13.88H359.596L361.156 15.98C363.676 14.66 366.346 14.45 367.876 14.45H369.106C368.806 21.14 365.746 25.31 360.646 25.31C354.886 25.31 351.946 19.91 351.946 13.43C351.946 7.1 354.886 1.97 359.776 1.97C363.436 1.97 365.296 5.15 366.106 9.02L370.066 7.94C368.026 3.98 364.726 1.4 359.776 1.4C352.966 1.4 347.506 6.23 347.506 13.7C347.506 21.17 352.276 26.6 359.416 26.6C364.906 26.6 367.936 23.36 369.106 18.17V19.37C369.106 21.5 369.046 23.42 368.746 26H370.306C370.006 23.42 369.946 21.5 369.946 19.37V14.45H372.376ZM375.671 26H376.721C376.511 23.6 376.451 22.31 376.451 19.82V3.23L376.511 3.26L389.741 26H394.601C394.361 23.6 394.301 22.31 394.301 19.82V8.18C394.301 5.69 394.361 4.4 394.601 2H393.521C393.731 4.4 393.821 5.69 393.821 8.18V24.77L393.761 24.74L380.501 2H375.671C375.881 4.4 375.941 5.69 375.941 8.18V19.82C375.941 22.31 375.881 23.6 375.671 26ZM398.213 18.95C400.583 24.62 404.123 26.6 408.683 26.6C412.493 26.6 415.733 24.62 415.733 20.48C415.733 16.58 412.943 14.69 407.543 10.91C403.523 8.12 401.993 7.1 401.993 5.03C401.993 3.23 403.463 1.97 405.923 1.97C409.793 1.97 411.353 5.15 412.073 8.3L415.103 7.07C412.673 3.17 409.853 1.4 406.133 1.4C402.503 1.4 399.683 3.14 399.683 6.47C399.683 9.62 401.573 11.12 406.163 14.42C410.843 17.78 413.423 19.46 413.423 21.92C413.423 24.62 411.593 26.03 408.953 26.03C404.993 26.03 402.053 22.37 401.243 17.33L398.213 18.95Z" fill="#FDFBE2"/>
</svg>
