<svg width="15%" height="15%" viewBox="0 0 184 50" fill="none" xmlns="http://www.w3.org/2000/svg">
<path d="M0.664 11L4.976 1.06H6.894L11.038 11H8.714L7.916 8.97H3.814L2.988 11H0.664ZM4.598 7.066H7.16L5.9 3.86L4.598 7.066ZM16.1154 11.14C15.3221 11.14 14.6361 10.9953 14.0574 10.706C13.4787 10.4073 13.0307 9.992 12.7134 9.46C12.3961 8.91867 12.2374 8.27933 12.2374 7.542C12.2374 6.79533 12.3961 6.13733 12.7134 5.568C13.0401 4.99867 13.4741 4.55533 14.0154 4.238C14.5661 3.92067 15.1867 3.762 15.8774 3.762C16.6614 3.762 17.3007 3.93933 17.7954 4.294C18.2901 4.64867 18.6307 5.15267 18.8174 5.806C19.0134 6.45 19.0554 7.20133 18.9434 8.06H14.4214C14.4774 8.41467 14.6641 8.71333 14.9814 8.956C15.2987 9.18933 15.7327 9.306 16.2834 9.306C16.5354 9.306 16.8014 9.25467 17.0814 9.152C17.3614 9.04 17.5994 8.87667 17.7954 8.662L18.9854 9.922C18.6774 10.2953 18.2947 10.594 17.8374 10.818C17.3894 11.0327 16.8154 11.14 16.1154 11.14ZM15.9194 5.316C15.5461 5.316 15.2287 5.428 14.9674 5.652C14.7154 5.876 14.5474 6.18867 14.4634 6.59H17.1374C17.1467 6.15133 17.0394 5.82933 16.8154 5.624C16.6007 5.41867 16.3021 5.316 15.9194 5.316ZM23.8756 11.14C22.8396 11.14 22.0556 10.9487 21.5236 10.566C20.9916 10.174 20.679 9.66067 20.5856 9.026L22.3636 8.578C22.4196 8.84867 22.5736 9.068 22.8256 9.236C23.0776 9.39467 23.423 9.474 23.8616 9.474C24.5616 9.474 24.9116 9.31067 24.9116 8.984C24.9116 8.816 24.809 8.69 24.6036 8.606C24.4076 8.51267 24.0856 8.424 23.6376 8.34C22.7976 8.19067 22.1443 7.95267 21.6776 7.626C21.2203 7.29933 20.9916 6.8 20.9916 6.128C20.9916 5.67067 21.1223 5.26467 21.3836 4.91C21.645 4.55533 22.0043 4.27533 22.4616 4.07C22.919 3.86467 23.4463 3.762 24.0436 3.762C24.8183 3.762 25.4576 3.944 25.9616 4.308C26.475 4.672 26.7783 5.12 26.8716 5.652L25.1216 6.128C25.0563 5.92267 24.9256 5.75467 24.7296 5.624C24.543 5.49333 24.2863 5.428 23.9596 5.428C23.6516 5.428 23.423 5.47933 23.2736 5.582C23.1336 5.68467 23.0636 5.806 23.0636 5.946C23.0636 6.114 23.1616 6.24933 23.3576 6.352C23.5536 6.44533 23.899 6.54333 24.3936 6.646C24.8976 6.73933 25.341 6.87 25.7236 7.038C26.1156 7.19667 26.419 7.42067 26.6336 7.71C26.8576 7.99 26.9696 8.37267 26.9696 8.858C26.9696 9.31533 26.8343 9.71667 26.5636 10.062C26.3023 10.4073 25.9383 10.6733 25.4716 10.86C25.005 11.0467 24.473 11.14 23.8756 11.14ZM32.1218 11.14C31.2445 11.14 30.5492 10.8973 30.0358 10.412C29.5225 9.91733 29.2705 9.26867 29.2798 8.466L29.3358 5.652H28.1598V3.874H29.3638L29.3778 2.418H31.5058L31.4918 3.874H33.7178V5.652H31.4638L31.4218 8.228C31.4218 8.564 31.5105 8.82533 31.6878 9.012C31.8652 9.19867 32.1312 9.292 32.4858 9.292C32.6912 9.292 32.8872 9.26867 33.0738 9.222C33.2698 9.166 33.4705 9.06333 33.6758 8.914L34.2918 10.552C33.8158 10.944 33.0925 11.14 32.1218 11.14ZM35.9041 11V0.64H38.0461L38.0601 3.874L37.9481 5.372C38.2375 4.85867 38.6061 4.462 39.0541 4.182C39.5115 3.902 40.0155 3.762 40.5661 3.762C41.4155 3.762 42.0501 4.05133 42.4701 4.63C42.8901 5.19933 43.0955 6.02067 43.0861 7.094L43.0581 11H40.9161L40.9441 7.248C40.9535 6.76267 40.8788 6.394 40.7201 6.142C40.5708 5.88067 40.3281 5.75 39.9921 5.75C39.7121 5.75 39.4555 5.834 39.2221 6.002C38.9888 6.16067 38.7835 6.436 38.6061 6.828C38.4381 7.22 38.3028 7.75667 38.2001 8.438C38.0975 9.11933 38.0415 9.97333 38.0321 11H35.9041ZM49.1408 11.14C48.3474 11.14 47.6614 10.9953 47.0828 10.706C46.5041 10.4073 46.0561 9.992 45.7388 9.46C45.4214 8.91867 45.2628 8.27933 45.2628 7.542C45.2628 6.79533 45.4214 6.13733 45.7388 5.568C46.0654 4.99867 46.4994 4.55533 47.0408 4.238C47.5914 3.92067 48.2121 3.762 48.9028 3.762C49.6868 3.762 50.3261 3.93933 50.8208 4.294C51.3154 4.64867 51.6561 5.15267 51.8428 5.806C52.0388 6.45 52.0808 7.20133 51.9688 8.06H47.4468C47.5028 8.41467 47.6894 8.71333 48.0068 8.956C48.3241 9.18933 48.7581 9.306 49.3088 9.306C49.5608 9.306 49.8268 9.25467 50.1068 9.152C50.3868 9.04 50.6248 8.87667 50.8208 8.662L52.0108 9.922C51.7028 10.2953 51.3201 10.594 50.8628 10.818C50.4148 11.0327 49.8408 11.14 49.1408 11.14ZM48.9448 5.316C48.5714 5.316 48.2541 5.428 47.9928 5.652C47.7408 5.876 47.5728 6.18867 47.4888 6.59H50.1628C50.1721 6.15133 50.0648 5.82933 49.8408 5.624C49.6261 5.41867 49.3274 5.316 48.9448 5.316ZM57.4207 11.14C56.5433 11.14 55.848 10.8973 55.3347 10.412C54.8213 9.91733 54.5693 9.26867 54.5787 8.466L54.6347 5.652H53.4587V3.874H54.6627L54.6767 2.418H56.8047L56.7907 3.874H59.0167V5.652H56.7627L56.7207 8.228C56.7207 8.564 56.8093 8.82533 56.9867 9.012C57.164 9.19867 57.43 9.292 57.7847 9.292C57.99 9.292 58.186 9.26867 58.3727 9.222C58.5687 9.166 58.7693 9.06333 58.9747 8.914L59.5907 10.552C59.1147 10.944 58.3913 11.14 57.4207 11.14ZM63.345 3.874V11H61.203V3.874H63.345ZM62.267 3.034C61.8563 3.034 61.5296 2.908 61.287 2.656C61.0443 2.404 60.923 2.10533 60.923 1.76C60.923 1.41467 61.0396 1.116 61.273 0.863999C61.5156 0.611999 61.847 0.485999 62.267 0.485999C62.6776 0.485999 63.0043 0.611999 63.247 0.863999C63.4896 1.116 63.611 1.41467 63.611 1.76C63.611 2.10533 63.4896 2.404 63.247 2.656C63.0043 2.908 62.6776 3.034 62.267 3.034ZM69.2384 11.14C68.5011 11.14 67.8617 11 67.3204 10.72C66.7791 10.4307 66.3591 10.02 66.0604 9.488C65.7617 8.956 65.6124 8.32133 65.6124 7.584C65.6124 6.828 65.7711 6.16533 66.0884 5.596C66.4151 5.01733 66.8631 4.56933 67.4324 4.252C68.0017 3.92533 68.6644 3.762 69.4204 3.762C70.0364 3.762 70.5824 3.88333 71.0584 4.126C71.5344 4.36867 71.9171 4.74667 72.2064 5.26L70.6944 6.408C70.5451 6.13733 70.3677 5.94133 70.1624 5.82C69.9664 5.69867 69.7191 5.638 69.4204 5.638C68.9631 5.638 68.5851 5.81533 68.2864 6.17C67.9877 6.51533 67.8384 6.97267 67.8384 7.542C67.8384 8.09267 67.9691 8.51733 68.2304 8.816C68.5011 9.11467 68.8884 9.264 69.3924 9.264C69.6631 9.264 69.9104 9.20333 70.1344 9.082C70.3677 8.95133 70.5637 8.75067 70.7224 8.48L72.1924 9.656C71.8751 10.1973 71.4551 10.58 70.9324 10.804C70.4191 11.028 69.8544 11.14 69.2384 11.14ZM76.485 11.14C75.449 11.14 74.665 10.9487 74.133 10.566C73.601 10.174 73.2883 9.66067 73.195 9.026L74.973 8.578C75.029 8.84867 75.183 9.068 75.435 9.236C75.687 9.39467 76.0323 9.474 76.471 9.474C77.171 9.474 77.521 9.31067 77.521 8.984C77.521 8.816 77.4183 8.69 77.213 8.606C77.017 8.51267 76.695 8.424 76.247 8.34C75.407 8.19067 74.7537 7.95267 74.287 7.626C73.8297 7.29933 73.601 6.8 73.601 6.128C73.601 5.67067 73.7317 5.26467 73.993 4.91C74.2543 4.55533 74.6137 4.27533 75.071 4.07C75.5283 3.86467 76.0557 3.762 76.653 3.762C77.4277 3.762 78.067 3.944 78.571 4.308C79.0843 4.672 79.3877 5.12 79.481 5.652L77.731 6.128C77.6657 5.92267 77.535 5.75467 77.339 5.624C77.1523 5.49333 76.8957 5.428 76.569 5.428C76.261 5.428 76.0323 5.47933 75.883 5.582C75.743 5.68467 75.673 5.806 75.673 5.946C75.673 6.114 75.771 6.24933 75.967 6.352C76.163 6.44533 76.5083 6.54333 77.003 6.646C77.507 6.73933 77.9503 6.87 78.333 7.038C78.725 7.19667 79.0283 7.42067 79.243 7.71C79.467 7.99 79.579 8.37267 79.579 8.858C79.579 9.31533 79.4437 9.71667 79.173 10.062C78.9117 10.4073 78.5477 10.6733 78.081 10.86C77.6143 11.0467 77.0823 11.14 76.485 11.14ZM8.742 21.034H4.178V23.008H8.448V24.982H4.178V27.026H8.882L8.742 29H1.938V19.06H8.742V21.034ZM10.9334 29V21.874H13.0614L12.9774 23.344C13.2761 22.7933 13.6494 22.392 14.0974 22.14C14.5454 21.888 15.0214 21.762 15.5254 21.762C16.0201 21.762 16.4634 21.888 16.8554 22.14C17.2474 22.3827 17.5461 22.7793 17.7514 23.33C18.0688 22.798 18.4701 22.406 18.9554 22.154C19.4501 21.8927 19.9494 21.762 20.4534 21.762C21.2934 21.762 21.9234 22.0513 22.3434 22.63C22.7634 23.1993 22.9688 24.0207 22.9594 25.094L22.9314 29H20.7894L20.8174 25.136C20.8174 24.7067 20.7381 24.3707 20.5794 24.128C20.4208 23.876 20.1781 23.75 19.8514 23.75C19.5994 23.75 19.3614 23.8293 19.1374 23.988C18.9228 24.1467 18.7314 24.422 18.5634 24.814C18.3954 25.206 18.2601 25.7427 18.1574 26.424C18.0641 27.1053 18.0081 27.964 17.9894 29H15.8614V25.136C15.8614 24.7067 15.7868 24.3707 15.6374 24.128C15.4881 23.876 15.2501 23.75 14.9234 23.75C14.6714 23.75 14.4334 23.8293 14.2094 23.988C13.9948 24.1467 13.8034 24.422 13.6354 24.814C13.4674 25.206 13.3321 25.7427 13.2294 26.424C13.1268 27.1053 13.0708 27.964 13.0614 29H10.9334ZM25.4823 29V18.64H27.6243V21.874L27.5543 22.966C28.0676 22.1633 28.8329 21.762 29.8503 21.762C30.4849 21.762 31.0263 21.9067 31.4743 22.196C31.9223 22.4853 32.2629 22.8867 32.4963 23.4C32.7296 23.9133 32.8463 24.5013 32.8463 25.164C32.8463 25.9573 32.6829 26.6527 32.3563 27.25C32.0296 27.8473 31.5909 28.314 31.0403 28.65C30.4896 28.9767 29.8736 29.14 29.1923 29.14C28.7349 29.14 28.3336 29.0513 27.9883 28.874C27.6523 28.6873 27.3909 28.4447 27.2043 28.146L27.0083 29H25.4823ZM28.9683 27.278C29.4816 27.278 29.8876 27.0867 30.1863 26.704C30.4849 26.312 30.6343 25.8173 30.6343 25.22C30.6343 24.716 30.5176 24.324 30.2843 24.044C30.0603 23.764 29.7523 23.624 29.3603 23.624C28.8843 23.624 28.4736 23.82 28.1283 24.212C27.7923 24.604 27.6243 25.1173 27.6243 25.752C27.6243 26.2187 27.7456 26.592 27.9883 26.872C28.2309 27.1427 28.5576 27.278 28.9683 27.278ZM38.6225 21.762C39.7332 21.762 40.6012 22.0793 41.2265 22.714C41.8612 23.3487 42.1785 24.2073 42.1785 25.29C42.1785 26.0273 42.0199 26.6853 41.7025 27.264C41.3852 27.8427 40.9372 28.3 40.3585 28.636C39.7799 28.972 39.0985 29.14 38.3145 29.14C37.2132 29.14 36.3452 28.8227 35.7105 28.188C35.0852 27.5533 34.7725 26.6993 34.7725 25.626C34.7725 24.8793 34.9312 24.2167 35.2485 23.638C35.5659 23.0593 36.0139 22.602 36.5925 22.266C37.1712 21.93 37.8479 21.762 38.6225 21.762ZM38.4125 27.278C38.8885 27.278 39.2665 27.1007 39.5465 26.746C39.8359 26.382 39.9805 25.8967 39.9805 25.29C39.9805 24.7673 39.8545 24.3613 39.6025 24.072C39.3505 23.7733 39.0052 23.624 38.5665 23.624C38.0812 23.624 37.6939 23.806 37.4045 24.17C37.1245 24.5247 36.9845 25.0053 36.9845 25.612C36.9845 26.1347 37.1059 26.5453 37.3485 26.844C37.6005 27.1333 37.9552 27.278 38.4125 27.278ZM51.4764 18.64V29H49.3204L49.3904 27.95C48.8771 28.7433 48.1164 29.14 47.1084 29.14C46.4737 29.14 45.9324 28.9953 45.4844 28.706C45.0364 28.4167 44.6957 28.0153 44.4624 27.502C44.2291 26.9887 44.1124 26.4007 44.1124 25.738C44.1124 24.9447 44.2757 24.2493 44.6024 23.652C44.9291 23.0547 45.3677 22.5927 45.9184 22.266C46.4691 21.93 47.0851 21.762 47.7664 21.762C48.0837 21.762 48.3777 21.8087 48.6484 21.902C48.9191 21.9953 49.1524 22.126 49.3484 22.294L49.3344 21.874V18.64H51.4764ZM47.9764 23.624C47.4631 23.624 47.0571 23.8153 46.7584 24.198C46.4691 24.5807 46.3244 25.0707 46.3244 25.668C46.3244 26.1813 46.4364 26.578 46.6604 26.858C46.8937 27.138 47.2064 27.278 47.5984 27.278C48.0744 27.278 48.4804 27.082 48.8164 26.69C49.1617 26.298 49.3344 25.7847 49.3344 25.15C49.3344 24.674 49.2131 24.3007 48.9704 24.03C48.7277 23.7593 48.3964 23.624 47.9764 23.624ZM56.2727 21.874V29H54.1307V21.874H56.2727ZM55.1947 21.034C54.784 21.034 54.4574 20.908 54.2147 20.656C53.972 20.404 53.8507 20.1053 53.8507 19.76C53.8507 19.4147 53.9674 19.116 54.2007 18.864C54.4434 18.612 54.7747 18.486 55.1947 18.486C55.6054 18.486 55.932 18.612 56.1747 18.864C56.4174 19.116 56.5387 19.4147 56.5387 19.76C56.5387 20.1053 56.4174 20.404 56.1747 20.656C55.932 20.908 55.6054 21.034 55.1947 21.034ZM58.9041 29V21.874H61.0321L60.9481 23.344C61.2468 22.7933 61.6201 22.392 62.0681 22.14C62.5161 21.888 62.9921 21.762 63.4961 21.762C63.9908 21.762 64.4341 21.888 64.8261 22.14C65.2181 22.3827 65.5168 22.7793 65.7221 23.33C66.0395 22.798 66.4408 22.406 66.9261 22.154C67.4208 21.8927 67.9201 21.762 68.4241 21.762C69.2641 21.762 69.8941 22.0513 70.3141 22.63C70.7341 23.1993 70.9395 24.0207 70.9301 25.094L70.9021 29H68.7601L68.7881 25.136C68.7881 24.7067 68.7088 24.3707 68.5501 24.128C68.3915 23.876 68.1488 23.75 67.8221 23.75C67.5701 23.75 67.3321 23.8293 67.1081 23.988C66.8935 24.1467 66.7021 24.422 66.5341 24.814C66.3661 25.206 66.2308 25.7427 66.1281 26.424C66.0348 27.1053 65.9788 27.964 65.9601 29H63.8321V25.136C63.8321 24.7067 63.7575 24.3707 63.6081 24.128C63.4588 23.876 63.2208 23.75 62.8941 23.75C62.6421 23.75 62.4041 23.8293 62.1801 23.988C61.9655 24.1467 61.7741 24.422 61.6061 24.814C61.4381 25.206 61.3028 25.7427 61.2001 26.424C61.0975 27.1053 61.0415 27.964 61.0321 29H58.9041ZM76.967 29.14C76.1736 29.14 75.4876 28.9953 74.909 28.706C74.3303 28.4073 73.8823 27.992 73.565 27.46C73.2476 26.9187 73.089 26.2793 73.089 25.542C73.089 24.7953 73.2476 24.1373 73.565 23.568C73.8916 22.9987 74.3256 22.5553 74.867 22.238C75.4176 21.9207 76.0383 21.762 76.729 21.762C77.513 21.762 78.1523 21.9393 78.647 22.294C79.1416 22.6487 79.4823 23.1527 79.669 23.806C79.865 24.45 79.907 25.2013 79.795 26.06H75.273C75.329 26.4147 75.5156 26.7133 75.833 26.956C76.1503 27.1893 76.5843 27.306 77.135 27.306C77.387 27.306 77.653 27.2547 77.933 27.152C78.213 27.04 78.451 26.8767 78.647 26.662L79.837 27.922C79.529 28.2953 79.1463 28.594 78.689 28.818C78.241 29.0327 77.667 29.14 76.967 29.14ZM76.771 23.316C76.3976 23.316 76.0803 23.428 75.819 23.652C75.567 23.876 75.399 24.1887 75.315 24.59H77.989C77.9983 24.1513 77.891 23.8293 77.667 23.624C77.4523 23.4187 77.1536 23.316 76.771 23.316ZM82.1092 29V21.874H84.2372L84.1392 23.4C84.4285 22.8773 84.7972 22.476 85.2452 22.196C85.7025 21.9067 86.2112 21.762 86.7712 21.762C87.6205 21.762 88.2552 22.0513 88.6752 22.63C89.0952 23.1993 89.3005 24.0207 89.2912 25.094L89.2632 29H87.1212L87.1492 25.248C87.1585 24.7627 87.0839 24.394 86.9252 24.142C86.7759 23.8807 86.5332 23.75 86.1972 23.75C85.9172 23.75 85.6605 23.834 85.4272 24.002C85.1939 24.1607 84.9885 24.436 84.8112 24.828C84.6432 25.22 84.5079 25.7567 84.4052 26.438C84.3025 27.1193 84.2465 27.9733 84.2372 29H82.1092ZM95.0379 29.14C94.1605 29.14 93.4652 28.8973 92.9519 28.412C92.4385 27.9173 92.1865 27.2687 92.1959 26.466L92.2519 23.652H91.0759V21.874H92.2799L92.2939 20.418H94.4219L94.4079 21.874H96.6339V23.652H94.3799L94.3379 26.228C94.3379 26.564 94.4265 26.8253 94.6039 27.012C94.7812 27.1987 95.0472 27.292 95.4019 27.292C95.6072 27.292 95.8032 27.2687 95.9899 27.222C96.1859 27.166 96.3865 27.0633 96.5919 26.914L97.2079 28.552C96.7319 28.944 96.0085 29.14 95.0379 29.14ZM106.833 21.762C107.944 21.762 108.812 22.0793 109.437 22.714C110.072 23.3487 110.389 24.2073 110.389 25.29C110.389 26.0273 110.231 26.6853 109.913 27.264C109.596 27.8427 109.148 28.3 108.569 28.636C107.991 28.972 107.309 29.14 106.525 29.14C105.424 29.14 104.556 28.8227 103.921 28.188C103.296 27.5533 102.983 26.6993 102.983 25.626C102.983 24.8793 103.142 24.2167 103.459 23.638C103.777 23.0593 104.225 22.602 104.803 22.266C105.382 21.93 106.059 21.762 106.833 21.762ZM106.623 27.278C107.099 27.278 107.477 27.1007 107.757 26.746C108.047 26.382 108.191 25.8967 108.191 25.29C108.191 24.7673 108.065 24.3613 107.813 24.072C107.561 23.7733 107.216 23.624 106.777 23.624C106.292 23.624 105.905 23.806 105.615 24.17C105.335 24.5247 105.195 25.0053 105.195 25.612C105.195 26.1347 105.317 26.5453 105.559 26.844C105.811 27.1333 106.166 27.278 106.623 27.278ZM113.079 29V23.652H111.763V21.874H113.079V21.65C113.079 21.006 113.219 20.4507 113.499 19.984C113.779 19.508 114.157 19.144 114.633 18.892C115.119 18.6307 115.665 18.5 116.271 18.5C116.99 18.5 117.573 18.6773 118.021 19.032C118.469 19.3867 118.745 19.9327 118.847 20.67L117.013 20.894C116.985 20.7073 116.901 20.5627 116.761 20.46C116.621 20.3573 116.444 20.306 116.229 20.306C115.903 20.306 115.646 20.4087 115.459 20.614C115.282 20.81 115.193 21.0947 115.193 21.468V21.874H117.111V23.652H115.221V29H113.079ZM126.725 29.14C125.848 29.14 125.153 28.8973 124.639 28.412C124.126 27.9173 123.874 27.2687 123.883 26.466L123.939 23.652H122.763V21.874H123.967L123.981 20.418H126.109L126.095 21.874H128.321V23.652H126.067L126.025 26.228C126.025 26.564 126.114 26.8253 126.291 27.012C126.469 27.1987 126.735 27.292 127.089 27.292C127.295 27.292 127.491 27.2687 127.677 27.222C127.873 27.166 128.074 27.0633 128.279 26.914L128.895 28.552C128.419 28.944 127.696 29.14 126.725 29.14ZM130.508 29V18.64H132.65L132.664 21.874L132.552 23.372C132.841 22.8587 133.21 22.462 133.658 22.182C134.115 21.902 134.619 21.762 135.17 21.762C136.019 21.762 136.654 22.0513 137.074 22.63C137.494 23.1993 137.699 24.0207 137.69 25.094L137.662 29H135.52L135.548 25.248C135.557 24.7627 135.482 24.394 135.324 24.142C135.174 23.8807 134.932 23.75 134.596 23.75C134.316 23.75 134.059 23.834 133.826 24.002C133.592 24.1607 133.387 24.436 133.21 24.828C133.042 25.22 132.906 25.7567 132.804 26.438C132.701 27.1193 132.645 27.9733 132.636 29H130.508ZM143.744 29.14C142.951 29.14 142.265 28.9953 141.686 28.706C141.108 28.4073 140.66 27.992 140.342 27.46C140.025 26.9187 139.866 26.2793 139.866 25.542C139.866 24.7953 140.025 24.1373 140.342 23.568C140.669 22.9987 141.103 22.5553 141.644 22.238C142.195 21.9207 142.816 21.762 143.506 21.762C144.29 21.762 144.93 21.9393 145.424 22.294C145.919 22.6487 146.26 23.1527 146.446 23.806C146.642 24.45 146.684 25.2013 146.572 26.06H142.05C142.106 26.4147 142.293 26.7133 142.61 26.956C142.928 27.1893 143.362 27.306 143.912 27.306C144.164 27.306 144.43 27.2547 144.71 27.152C144.99 27.04 145.228 26.8767 145.424 26.662L146.614 27.922C146.306 28.2953 145.924 28.594 145.466 28.818C145.018 29.0327 144.444 29.14 143.744 29.14ZM143.548 23.316C143.175 23.316 142.858 23.428 142.596 23.652C142.344 23.876 142.176 24.1887 142.092 24.59H144.766C144.776 24.1513 144.668 23.8293 144.444 23.624C144.23 23.4187 143.931 23.316 143.548 23.316ZM148.887 29V21.874H151.015L150.931 23.344C151.229 22.7933 151.603 22.392 152.051 22.14C152.499 21.888 152.975 21.762 153.479 21.762C153.973 21.762 154.417 21.888 154.809 22.14C155.201 22.3827 155.499 22.7793 155.705 23.33C156.022 22.798 156.423 22.406 156.909 22.154C157.403 21.8927 157.903 21.762 158.407 21.762C159.247 21.762 159.877 22.0513 160.297 22.63C160.717 23.1993 160.922 24.0207 160.913 25.094L160.885 29H158.743L158.771 25.136C158.771 24.7067 158.691 24.3707 158.533 24.128C158.374 23.876 158.131 23.75 157.805 23.75C157.553 23.75 157.315 23.8293 157.091 23.988C156.876 24.1467 156.685 24.422 156.517 24.814C156.349 25.206 156.213 25.7427 156.111 26.424C156.017 27.1053 155.961 27.964 155.943 29H153.815V25.136C153.815 24.7067 153.74 24.3707 153.591 24.128C153.441 23.876 153.203 23.75 152.877 23.75C152.625 23.75 152.387 23.8293 152.163 23.988C151.948 24.1467 151.757 24.422 151.589 24.814C151.421 25.206 151.285 25.7427 151.183 26.424C151.08 27.1053 151.024 27.964 151.015 29H148.887ZM166.949 29.14C166.156 29.14 165.47 28.9953 164.891 28.706C164.313 28.4073 163.865 27.992 163.547 27.46C163.23 26.9187 163.071 26.2793 163.071 25.542C163.071 24.7953 163.23 24.1373 163.547 23.568C163.874 22.9987 164.308 22.5553 164.849 22.238C165.4 21.9207 166.021 21.762 166.711 21.762C167.495 21.762 168.135 21.9393 168.629 22.294C169.124 22.6487 169.465 23.1527 169.651 23.806C169.847 24.45 169.889 25.2013 169.777 26.06H165.255C165.311 26.4147 165.498 26.7133 165.815 26.956C166.133 27.1893 166.567 27.306 167.117 27.306C167.369 27.306 167.635 27.2547 167.915 27.152C168.195 27.04 168.433 26.8767 168.629 26.662L169.819 27.922C169.511 28.2953 169.129 28.594 168.671 28.818C168.223 29.0327 167.649 29.14 166.949 29.14ZM166.753 23.316C166.38 23.316 166.063 23.428 165.801 23.652C165.549 23.876 165.381 24.1887 165.297 24.59H167.971C167.981 24.1513 167.873 23.8293 167.649 23.624C167.435 23.4187 167.136 23.316 166.753 23.316ZM10.226 44.858L10.758 46.622C10.5527 46.7807 10.2867 46.9067 9.96 47C9.64267 47.0933 9.316 47.14 8.98 47.14C8.37333 47.14 7.84133 47.0187 7.384 46.776C6.92667 46.524 6.54867 46.16 6.25 45.684L5.06 43.78C4.92 43.556 4.78 43.402 4.64 43.318C4.50933 43.2247 4.35533 43.1733 4.178 43.164V47H1.938V37.06H5.2C6.572 37.06 7.59867 37.3353 8.28 37.886C8.97067 38.4367 9.316 39.1973 9.316 40.168C9.316 40.9333 9.078 41.5587 8.602 42.044C8.13533 42.5293 7.53333 42.8467 6.796 42.996C7.104 43.1453 7.37467 43.3927 7.608 43.738L8.084 44.466C8.38267 44.914 8.77467 45.138 9.26 45.138C9.43733 45.138 9.60533 45.1193 9.764 45.082C9.92267 45.0353 10.0767 44.9607 10.226 44.858ZM5.074 38.922H4.178V41.386H5.06C5.76 41.386 6.264 41.288 6.572 41.092C6.88 40.8867 7.034 40.5693 7.034 40.14C7.034 39.7107 6.86133 39.4027 6.516 39.216C6.17067 39.02 5.69 38.922 5.074 38.922ZM15.4591 47.14C14.6658 47.14 13.9798 46.9953 13.4011 46.706C12.8225 46.4073 12.3745 45.992 12.0571 45.46C11.7398 44.9187 11.5811 44.2793 11.5811 43.542C11.5811 42.7953 11.7398 42.1373 12.0571 41.568C12.3838 40.9987 12.8178 40.5553 13.3591 40.238C13.9098 39.9207 14.5305 39.762 15.2211 39.762C16.0051 39.762 16.6445 39.9393 17.1391 40.294C17.6338 40.6487 17.9745 41.1527 18.1611 41.806C18.3571 42.45 18.3991 43.2013 18.2871 44.06H13.7651C13.8211 44.4147 14.0078 44.7133 14.3251 44.956C14.6425 45.1893 15.0765 45.306 15.6271 45.306C15.8791 45.306 16.1451 45.2547 16.4251 45.152C16.7051 45.04 16.9431 44.8767 17.1391 44.662L18.3291 45.922C18.0211 46.2953 17.6385 46.594 17.1811 46.818C16.7331 47.0327 16.1591 47.14 15.4591 47.14ZM15.2631 41.316C14.8898 41.316 14.5725 41.428 14.3111 41.652C14.0591 41.876 13.8911 42.1887 13.8071 42.59H16.4811C16.4905 42.1513 16.3831 41.8293 16.1591 41.624C15.9445 41.4187 15.6458 41.316 15.2631 41.316ZM22.8414 47.14C22.1227 47.14 21.5674 46.944 21.1754 46.552C20.7927 46.1507 20.6014 45.572 20.6014 44.816V36.64H22.7434V44.662C22.7434 45.0913 22.9441 45.306 23.3454 45.306C23.5601 45.306 23.7421 45.2547 23.8914 45.152L24.4094 46.678C24.2507 46.8087 24.0314 46.916 23.7514 47C23.4714 47.0933 23.1681 47.14 22.8414 47.14ZM32.8533 39.902V47H30.6973L30.7673 45.936C30.254 46.7387 29.4933 47.14 28.4853 47.14C27.8507 47.14 27.3093 46.9953 26.8613 46.706C26.4133 46.4167 26.0727 46.0153 25.8393 45.502C25.606 44.9887 25.4893 44.4007 25.4893 43.738C25.4893 42.9447 25.6527 42.2493 25.9793 41.652C26.306 41.0547 26.7447 40.5927 27.2953 40.266C27.846 39.93 28.462 39.762 29.1433 39.762C29.5913 39.762 29.988 39.8553 30.3333 40.042C30.6787 40.2193 30.9447 40.4573 31.1313 40.756L31.3133 39.902H32.8533ZM29.3533 41.624C28.84 41.624 28.434 41.8153 28.1353 42.198C27.846 42.5807 27.7013 43.0707 27.7013 43.668C27.7013 44.1813 27.8133 44.578 28.0373 44.858C28.2707 45.138 28.5833 45.278 28.9753 45.278C29.4513 45.278 29.8573 45.082 30.1933 44.69C30.5387 44.298 30.7113 43.7847 30.7113 43.15C30.7113 42.674 30.59 42.3007 30.3473 42.03C30.1047 41.7593 29.7733 41.624 29.3533 41.624ZM38.7136 47.14C37.8363 47.14 37.141 46.8973 36.6276 46.412C36.1143 45.9173 35.8623 45.2687 35.8716 44.466L35.9276 41.652H34.7516V39.874H35.9556L35.9696 38.418H38.0976L38.0836 39.874H40.3096V41.652H38.0556L38.0136 44.228C38.0136 44.564 38.1023 44.8253 38.2796 45.012C38.457 45.1987 38.723 45.292 39.0776 45.292C39.283 45.292 39.479 45.2687 39.6656 45.222C39.8616 45.166 40.0623 45.0633 40.2676 44.914L40.8836 46.552C40.4076 46.944 39.6843 47.14 38.7136 47.14ZM49.3592 39.902V47H47.2032L47.2732 45.936C46.7599 46.7387 45.9992 47.14 44.9912 47.14C44.3565 47.14 43.8152 46.9953 43.3672 46.706C42.9192 46.4167 42.5785 46.0153 42.3452 45.502C42.1119 44.9887 41.9952 44.4007 41.9952 43.738C41.9952 42.9447 42.1585 42.2493 42.4852 41.652C42.8119 41.0547 43.2505 40.5927 43.8012 40.266C44.3519 39.93 44.9679 39.762 45.6492 39.762C46.0972 39.762 46.4939 39.8553 46.8392 40.042C47.1845 40.2193 47.4505 40.4573 47.6372 40.756L47.8192 39.902H49.3592ZM45.8592 41.624C45.3459 41.624 44.9399 41.8153 44.6412 42.198C44.3519 42.5807 44.2072 43.0707 44.2072 43.668C44.2072 44.1813 44.3192 44.578 44.5432 44.858C44.7765 45.138 45.0892 45.278 45.4812 45.278C45.9572 45.278 46.3632 45.082 46.6992 44.69C47.0445 44.298 47.2172 43.7847 47.2172 43.15C47.2172 42.674 47.0959 42.3007 46.8532 42.03C46.6105 41.7593 46.2792 41.624 45.8592 41.624ZM52.0135 47V36.64H54.1555V39.874L54.0855 40.966C54.5988 40.1633 55.3642 39.762 56.3815 39.762C57.0162 39.762 57.5575 39.9067 58.0055 40.196C58.4535 40.4853 58.7942 40.8867 59.0275 41.4C59.2608 41.9133 59.3775 42.5013 59.3775 43.164C59.3775 43.9573 59.2142 44.6527 58.8875 45.25C58.5608 45.8473 58.1222 46.314 57.5715 46.65C57.0208 46.9767 56.4048 47.14 55.7235 47.14C55.2662 47.14 54.8648 47.0513 54.5195 46.874C54.1835 46.6873 53.9222 46.4447 53.7355 46.146L53.5395 47H52.0135ZM55.4995 45.278C56.0128 45.278 56.4188 45.0867 56.7175 44.704C57.0162 44.312 57.1655 43.8173 57.1655 43.22C57.1655 42.716 57.0488 42.324 56.8155 42.044C56.5915 41.764 56.2835 41.624 55.8915 41.624C55.4155 41.624 55.0048 41.82 54.6595 42.212C54.3235 42.604 54.1555 43.1173 54.1555 43.752C54.1555 44.2187 54.2768 44.592 54.5195 44.872C54.7622 45.1427 55.0888 45.278 55.4995 45.278ZM63.8098 39.874V47H61.6678V39.874H63.8098ZM62.7318 39.034C62.3211 39.034 61.9945 38.908 61.7518 38.656C61.5091 38.404 61.3878 38.1053 61.3878 37.76C61.3878 37.4147 61.5045 37.116 61.7378 36.864C61.9805 36.612 62.3118 36.486 62.7318 36.486C63.1425 36.486 63.4691 36.612 63.7118 36.864C63.9545 37.116 64.0758 37.4147 64.0758 37.76C64.0758 38.1053 63.9545 38.404 63.7118 38.656C63.4691 38.908 63.1425 39.034 62.7318 39.034ZM68.6812 47.14C67.9626 47.14 67.4072 46.944 67.0152 46.552C66.6326 46.1507 66.4412 45.572 66.4412 44.816V36.64H68.5832V44.662C68.5832 45.0913 68.7839 45.306 69.1852 45.306C69.3999 45.306 69.5819 45.2547 69.7312 45.152L70.2492 46.678C70.0906 46.8087 69.8712 46.916 69.5912 47C69.3112 47.0933 69.0079 47.14 68.6812 47.14ZM73.9035 39.874V47H71.7615V39.874H73.9035ZM72.8255 39.034C72.4149 39.034 72.0882 38.908 71.8455 38.656C71.6029 38.404 71.4815 38.1053 71.4815 37.76C71.4815 37.4147 71.5982 37.116 71.8315 36.864C72.0742 36.612 72.4055 36.486 72.8255 36.486C73.2362 36.486 73.5629 36.612 73.8055 36.864C74.0482 37.116 74.1695 37.4147 74.1695 37.76C74.1695 38.1053 74.0482 38.404 73.8055 38.656C73.5629 38.908 73.2362 39.034 72.8255 39.034ZM79.741 47.14C78.8637 47.14 78.1683 46.8973 77.655 46.412C77.1417 45.9173 76.8897 45.2687 76.899 44.466L76.955 41.652H75.779V39.874H76.983L76.997 38.418H79.125L79.111 39.874H81.337V41.652H79.083L79.041 44.228C79.041 44.564 79.1297 44.8253 79.307 45.012C79.4843 45.1987 79.7503 45.292 80.105 45.292C80.3103 45.292 80.5063 45.2687 80.693 45.222C80.889 45.166 81.0897 45.0633 81.295 44.914L81.911 46.552C81.435 46.944 80.7117 47.14 79.741 47.14ZM86.0169 49.94C85.7276 49.94 85.4196 49.9167 85.0929 49.87C84.7662 49.8327 84.4489 49.772 84.1409 49.688C83.8422 49.604 83.5902 49.492 83.3849 49.352L83.8889 47.532C84.2156 47.6907 84.5562 47.8167 84.9109 47.91C85.2749 48.0127 85.6856 48.064 86.1429 48.064C86.9176 48.064 87.4682 47.8867 87.7949 47.532C88.1309 47.1773 88.3222 46.622 88.3689 45.866L88.4109 45.292C88.1216 45.7867 87.7576 46.174 87.3189 46.454C86.8802 46.7247 86.3856 46.86 85.8349 46.86C84.9949 46.86 84.3649 46.58 83.9449 46.02C83.5249 45.46 83.3196 44.676 83.3289 43.668L83.3569 39.874H85.4989L85.4709 43.514C85.4709 43.934 85.5456 44.2653 85.6949 44.508C85.8442 44.7507 86.0869 44.872 86.4229 44.872C86.8056 44.872 87.1369 44.718 87.4169 44.41C87.6969 44.102 87.9162 43.5887 88.0749 42.87C88.2336 42.142 88.3222 41.1433 88.3409 39.874H90.4129V45.614C90.4129 47.1073 90.0162 48.1993 89.2229 48.89C88.4389 49.59 87.3702 49.94 86.0169 49.94ZM100.788 47.14C99.9105 47.14 99.2152 46.8973 98.7019 46.412C98.1885 45.9173 97.9365 45.2687 97.9459 44.466L98.0019 41.652H96.8259V39.874H98.0299L98.0439 38.418H100.172L100.158 39.874H102.384V41.652H100.13L100.088 44.228C100.088 44.564 100.177 44.8253 100.354 45.012C100.531 45.1987 100.797 45.292 101.152 45.292C101.357 45.292 101.553 45.2687 101.74 45.222C101.936 45.166 102.137 45.0633 102.342 44.914L102.958 46.552C102.482 46.944 101.759 47.14 100.788 47.14ZM107.919 39.762C109.03 39.762 109.898 40.0793 110.523 40.714C111.158 41.3487 111.475 42.2073 111.475 43.29C111.475 44.0273 111.317 44.6853 110.999 45.264C110.682 45.8427 110.234 46.3 109.655 46.636C109.077 46.972 108.395 47.14 107.611 47.14C106.51 47.14 105.642 46.8227 105.007 46.188C104.382 45.5533 104.069 44.6993 104.069 43.626C104.069 42.8793 104.228 42.2167 104.545 41.638C104.863 41.0593 105.311 40.602 105.889 40.266C106.468 39.93 107.145 39.762 107.919 39.762ZM107.709 45.278C108.185 45.278 108.563 45.1007 108.843 44.746C109.133 44.382 109.277 43.8967 109.277 43.29C109.277 42.7673 109.151 42.3613 108.899 42.072C108.647 41.7733 108.302 41.624 107.863 41.624C107.378 41.624 106.991 41.806 106.701 42.17C106.421 42.5247 106.281 43.0053 106.281 43.612C106.281 44.1347 106.403 44.5453 106.645 44.844C106.897 45.1333 107.252 45.278 107.709 45.278ZM120.919 47.14C119.883 47.14 119.099 46.9487 118.567 46.566C118.035 46.174 117.722 45.6607 117.629 45.026L119.407 44.578C119.463 44.8487 119.617 45.068 119.869 45.236C120.121 45.3947 120.466 45.474 120.905 45.474C121.605 45.474 121.955 45.3107 121.955 44.984C121.955 44.816 121.852 44.69 121.647 44.606C121.451 44.5127 121.129 44.424 120.681 44.34C119.841 44.1907 119.187 43.9527 118.721 43.626C118.263 43.2993 118.035 42.8 118.035 42.128C118.035 41.6707 118.165 41.2647 118.427 40.91C118.688 40.5553 119.047 40.2753 119.505 40.07C119.962 39.8647 120.489 39.762 121.087 39.762C121.861 39.762 122.501 39.944 123.005 40.308C123.518 40.672 123.821 41.12 123.915 41.652L122.165 42.128C122.099 41.9227 121.969 41.7547 121.773 41.624C121.586 41.4933 121.329 41.428 121.003 41.428C120.695 41.428 120.466 41.4793 120.317 41.582C120.177 41.6847 120.107 41.806 120.107 41.946C120.107 42.114 120.205 42.2493 120.401 42.352C120.597 42.4453 120.942 42.5433 121.437 42.646C121.941 42.7393 122.384 42.87 122.767 43.038C123.159 43.1967 123.462 43.4207 123.677 43.71C123.901 43.99 124.013 44.3727 124.013 44.858C124.013 45.3153 123.877 45.7167 123.607 46.062C123.345 46.4073 122.981 46.6733 122.515 46.86C122.048 47.0467 121.516 47.14 120.919 47.14ZM129.165 47.14C128.287 47.14 127.592 46.8973 127.079 46.412C126.565 45.9173 126.313 45.2687 126.323 44.466L126.379 41.652H125.203V39.874H126.407L126.421 38.418H128.549L128.535 39.874H130.761V41.652H128.507L128.465 44.228C128.465 44.564 128.553 44.8253 128.731 45.012C128.908 45.1987 129.174 45.292 129.529 45.292C129.734 45.292 129.93 45.2687 130.117 45.222C130.313 45.166 130.513 45.0633 130.719 44.914L131.335 46.552C130.859 46.944 130.135 47.14 129.165 47.14ZM135.231 47.14C134.409 47.14 133.789 46.86 133.369 46.3C132.949 45.74 132.743 44.9607 132.753 43.962L132.781 39.874H134.923L134.895 43.794C134.895 44.214 134.969 44.5453 135.119 44.788C135.268 45.0307 135.501 45.152 135.819 45.152C136.089 45.152 136.337 45.068 136.561 44.9C136.785 44.732 136.981 44.452 137.149 44.06C137.317 43.668 137.447 43.1313 137.541 42.45C137.643 41.7687 137.699 40.91 137.709 39.874H139.781V47H137.639L137.737 45.628C137.457 46.1133 137.102 46.4867 136.673 46.748C136.243 47.0093 135.763 47.14 135.231 47.14ZM149.424 36.64V47H147.268L147.338 45.95C146.824 46.7433 146.064 47.14 145.056 47.14C144.421 47.14 143.88 46.9953 143.432 46.706C142.984 46.4167 142.643 46.0153 142.41 45.502C142.176 44.9887 142.06 44.4007 142.06 43.738C142.06 42.9447 142.223 42.2493 142.55 41.652C142.876 41.0547 143.315 40.5927 143.866 40.266C144.416 39.93 145.032 39.762 145.714 39.762C146.031 39.762 146.325 39.8087 146.596 39.902C146.866 39.9953 147.1 40.126 147.296 40.294L147.282 39.874V36.64H149.424ZM145.924 41.624C145.41 41.624 145.004 41.8153 144.706 42.198C144.416 42.5807 144.272 43.0707 144.272 43.668C144.272 44.1813 144.384 44.578 144.608 44.858C144.841 45.138 145.154 45.278 145.546 45.278C146.022 45.278 146.428 45.082 146.764 44.69C147.109 44.298 147.282 43.7847 147.282 43.15C147.282 42.674 147.16 42.3007 146.918 42.03C146.675 41.7593 146.344 41.624 145.924 41.624ZM155.592 47.14C154.799 47.14 154.113 46.9953 153.534 46.706C152.955 46.4073 152.507 45.992 152.19 45.46C151.873 44.9187 151.714 44.2793 151.714 43.542C151.714 42.7953 151.873 42.1373 152.19 41.568C152.517 40.9987 152.951 40.5553 153.492 40.238C154.043 39.9207 154.663 39.762 155.354 39.762C156.138 39.762 156.777 39.9393 157.272 40.294C157.767 40.6487 158.107 41.1527 158.294 41.806C158.49 42.45 158.532 43.2013 158.42 44.06H153.898C153.954 44.4147 154.141 44.7133 154.458 44.956C154.775 45.1893 155.209 45.306 155.76 45.306C156.012 45.306 156.278 45.2547 156.558 45.152C156.838 45.04 157.076 44.8767 157.272 44.662L158.462 45.922C158.154 46.2953 157.771 46.594 157.314 46.818C156.866 47.0327 156.292 47.14 155.592 47.14ZM155.396 41.316C155.023 41.316 154.705 41.428 154.444 41.652C154.192 41.876 154.024 42.1887 153.94 42.59H156.614C156.623 42.1513 156.516 41.8293 156.292 41.624C156.077 41.4187 155.779 41.316 155.396 41.316ZM160.734 47V39.874H162.862L162.764 41.4C163.054 40.8773 163.422 40.476 163.87 40.196C164.328 39.9067 164.836 39.762 165.396 39.762C166.246 39.762 166.88 40.0513 167.3 40.63C167.72 41.1993 167.926 42.0207 167.916 43.094L167.888 47H165.746L165.774 43.248C165.784 42.7627 165.709 42.394 165.55 42.142C165.401 41.8807 165.158 41.75 164.822 41.75C164.542 41.75 164.286 41.834 164.052 42.002C163.819 42.1607 163.614 42.436 163.436 42.828C163.268 43.22 163.133 43.7567 163.03 44.438C162.928 45.1193 162.872 45.9733 162.862 47H160.734ZM173.663 47.14C172.786 47.14 172.09 46.8973 171.577 46.412C171.064 45.9173 170.812 45.2687 170.821 44.466L170.877 41.652H169.701V39.874H170.905L170.919 38.418H173.047L173.033 39.874H175.259V41.652H173.005L172.963 44.228C172.963 44.564 173.052 44.8253 173.229 45.012C173.406 45.1987 173.672 45.292 174.027 45.292C174.232 45.292 174.428 45.2687 174.615 45.222C174.811 45.166 175.012 45.0633 175.217 44.914L175.833 46.552C175.357 46.944 174.634 47.14 173.663 47.14ZM180.063 47.14C179.027 47.14 178.243 46.9487 177.711 46.566C177.179 46.174 176.866 45.6607 176.773 45.026L178.551 44.578C178.607 44.8487 178.761 45.068 179.013 45.236C179.265 45.3947 179.61 45.474 180.049 45.474C180.749 45.474 181.099 45.3107 181.099 44.984C181.099 44.816 180.996 44.69 180.791 44.606C180.595 44.5127 180.273 44.424 179.825 44.34C178.985 44.1907 178.332 43.9527 177.865 43.626C177.408 43.2993 177.179 42.8 177.179 42.128C177.179 41.6707 177.31 41.2647 177.571 40.91C177.832 40.5553 178.192 40.2753 178.649 40.07C179.106 39.8647 179.634 39.762 180.231 39.762C181.006 39.762 181.645 39.944 182.149 40.308C182.662 40.672 182.966 41.12 183.059 41.652L181.309 42.128C181.244 41.9227 181.113 41.7547 180.917 41.624C180.73 41.4933 180.474 41.428 180.147 41.428C179.839 41.428 179.61 41.4793 179.461 41.582C179.321 41.6847 179.251 41.806 179.251 41.946C179.251 42.114 179.349 42.2493 179.545 42.352C179.741 42.4453 180.086 42.5433 180.581 42.646C181.085 42.7393 181.528 42.87 181.911 43.038C182.303 43.1967 182.606 43.4207 182.821 43.71C183.045 43.99 183.157 44.3727 183.157 44.858C183.157 45.3153 183.022 45.7167 182.751 46.062C182.49 46.4073 182.126 46.6733 181.659 46.86C181.192 47.0467 180.66 47.14 180.063 47.14Z" fill="#FEDC97"/>
</svg>
