<svg width="7%" height="7%"  viewBox="0 0 30 48" fill="none" xmlns="http://www.w3.org/2000/svg">
<path d="M0.896 11V9.502C2.38933 8.44733 3.472 7.45333 4.144 6.52C4.816 5.58667 5.152 4.77933 5.152 4.098C5.152 3.706 5.04467 3.40267 4.83 3.188C4.61533 2.97333 4.31667 2.866 3.934 2.866C3.50467 2.866 3.14067 2.99667 2.842 3.258C2.54333 3.51 2.324 3.846 2.184 4.266L0.574 3.398C0.732667 2.91267 0.984667 2.48333 1.33 2.11C1.67533 1.73667 2.09067 1.44733 2.576 1.242C3.07067 1.02733 3.612 0.92 4.2 0.92C4.844 0.92 5.404 1.046 5.88 1.298C6.356 1.54067 6.72467 1.886 6.986 2.334C7.24733 2.77267 7.37333 3.28133 7.364 3.86C7.364 4.728 7.084 5.61 6.524 6.506C5.97333 7.39267 5.04933 8.298 3.752 9.222H7.602V11H0.896ZM12.8805 11.14C12.5912 11.14 12.2785 11.1167 11.9425 11.07C11.6065 11.0327 11.2799 10.9673 10.9625 10.874C10.6452 10.7713 10.3745 10.6407 10.1505 10.482L10.6685 8.55C10.9859 8.746 11.3405 8.90467 11.7325 9.026C12.1245 9.138 12.5492 9.194 13.0065 9.194C13.6039 9.194 14.0472 9.07267 14.3365 8.83C14.6259 8.58733 14.7705 8.26067 14.7705 7.85C14.7705 7.61667 14.7099 7.402 14.5885 7.206C14.4672 7.00067 14.2339 6.83733 13.8885 6.716C13.5432 6.58533 13.0392 6.506 12.3765 6.478L10.7385 6.422L11.1725 1.06H16.4645V2.838H13.1745L13.0205 4.672C14.3179 4.728 15.3025 5.022 15.9745 5.554C16.6465 6.086 16.9825 6.842 16.9825 7.822C16.9825 8.466 16.8145 9.04 16.4785 9.544C16.1425 10.0387 15.6665 10.4307 15.0505 10.72C14.4345 11 13.7112 11.14 12.8805 11.14ZM21.7011 5.638C20.9637 5.638 20.3711 5.43267 19.9231 5.022C19.4751 4.61133 19.2511 4.06067 19.2511 3.37C19.2511 2.894 19.3677 2.474 19.6011 2.11C19.8344 1.73667 20.1471 1.44267 20.5391 1.228C20.9404 1.01333 21.3977 0.906 21.9111 0.906C22.6577 0.906 23.2504 1.11133 23.6891 1.522C24.1371 1.92333 24.3611 2.474 24.3611 3.174C24.3611 3.65 24.2444 4.07467 24.0111 4.448C23.7871 4.82133 23.4744 5.11533 23.0731 5.33C22.6717 5.53533 22.2144 5.638 21.7011 5.638ZM20.1471 11L27.2311 1.06H29.0931L22.0091 11H20.1471ZM21.7711 4.322C22.0977 4.322 22.3591 4.21933 22.5551 4.014C22.7604 3.79933 22.8631 3.524 22.8631 3.188C22.8631 2.88933 22.7744 2.656 22.5971 2.488C22.4197 2.31067 22.1817 2.222 21.8831 2.222C21.5377 2.222 21.2624 2.32467 21.0571 2.53C20.8611 2.73533 20.7631 3.01067 20.7631 3.356C20.7631 3.664 20.8517 3.902 21.0291 4.07C21.2064 4.238 21.4537 4.322 21.7711 4.322ZM27.3431 11.112C26.5964 11.112 25.9991 10.9067 25.5511 10.496C25.1031 10.0853 24.8791 9.53467 24.8791 8.844C24.8791 8.368 24.9911 7.94333 25.2151 7.57C25.4484 7.19667 25.7657 6.90733 26.1671 6.702C26.5684 6.48733 27.0257 6.38 27.5391 6.38C28.2857 6.38 28.8784 6.58533 29.3171 6.996C29.7651 7.40667 29.9891 7.95733 29.9891 8.648C29.9891 9.124 29.8724 9.54867 29.6391 9.922C29.4151 10.286 29.1024 10.5753 28.7011 10.79C28.3091 11.0047 27.8564 11.112 27.3431 11.112ZM27.3851 9.796C27.7117 9.796 27.9731 9.69333 28.1691 9.488C28.3744 9.27333 28.4771 8.98867 28.4771 8.634C28.4771 8.33533 28.3884 8.10667 28.2111 7.948C28.0337 7.78 27.7911 7.696 27.4831 7.696C27.1471 7.696 26.8811 7.80333 26.6851 8.018C26.4891 8.22333 26.3911 8.494 26.3911 8.83C26.3911 9.138 26.4797 9.376 26.6571 9.544C26.8344 9.712 27.0771 9.796 27.3851 9.796ZM3.486 29.14C3.19667 29.14 2.884 29.1167 2.548 29.07C2.212 29.0327 1.88533 28.9673 1.568 28.874C1.25067 28.7713 0.98 28.6407 0.756 28.482L1.274 26.55C1.59133 26.746 1.946 26.9047 2.338 27.026C2.73 27.138 3.15467 27.194 3.612 27.194C4.20933 27.194 4.65267 27.0727 4.942 26.83C5.23133 26.5873 5.376 26.2607 5.376 25.85C5.376 25.6167 5.31533 25.402 5.194 25.206C5.07267 25.0007 4.83933 24.8373 4.494 24.716C4.14867 24.5853 3.64467 24.506 2.982 24.478L1.344 24.422L1.778 19.06H7.07V20.838H3.78L3.626 22.672C4.92333 22.728 5.908 23.022 6.58 23.554C7.252 24.086 7.588 24.842 7.588 25.822C7.588 26.466 7.42 27.04 7.084 27.544C6.748 28.0387 6.272 28.4307 5.656 28.72C5.04 29 4.31667 29.14 3.486 29.14ZM13.6505 29.14C12.4092 29.1587 11.4665 28.7667 10.8225 27.964C10.1785 27.152 9.85653 25.9013 9.85653 24.212C9.85653 23.1667 10.0105 22.2473 10.3185 21.454C10.6359 20.6513 11.0839 20.0307 11.6625 19.592C12.2505 19.144 12.9505 18.92 13.7625 18.92C14.8919 18.92 15.7692 19.3353 16.3945 20.166C17.0199 20.9967 17.3325 22.2193 17.3325 23.834C17.3325 24.8607 17.1832 25.7753 16.8845 26.578C16.5952 27.3713 16.1752 27.9967 15.6245 28.454C15.0739 28.902 14.4159 29.1307 13.6505 29.14ZM13.5805 27.208C14.0939 27.208 14.4765 26.9233 14.7285 26.354C14.9805 25.7753 15.1065 24.94 15.1065 23.848C15.1065 21.8413 14.6399 20.838 13.7065 20.838C13.1839 20.838 12.7825 21.132 12.5025 21.72C12.2319 22.2987 12.0965 23.1153 12.0965 24.17C12.0965 25.1967 12.2132 25.962 12.4465 26.466C12.6892 26.9607 13.0672 27.208 13.5805 27.208ZM21.7011 23.638C20.9637 23.638 20.3711 23.4327 19.9231 23.022C19.4751 22.6113 19.2511 22.0607 19.2511 21.37C19.2511 20.894 19.3677 20.474 19.6011 20.11C19.8344 19.7367 20.1471 19.4427 20.5391 19.228C20.9404 19.0133 21.3977 18.906 21.9111 18.906C22.6577 18.906 23.2504 19.1113 23.6891 19.522C24.1371 19.9233 24.3611 20.474 24.3611 21.174C24.3611 21.65 24.2444 22.0747 24.0111 22.448C23.7871 22.8213 23.4744 23.1153 23.0731 23.33C22.6717 23.5353 22.2144 23.638 21.7011 23.638ZM20.1471 29L27.2311 19.06H29.0931L22.0091 29H20.1471ZM21.7711 22.322C22.0977 22.322 22.3591 22.2193 22.5551 22.014C22.7604 21.7993 22.8631 21.524 22.8631 21.188C22.8631 20.8893 22.7744 20.656 22.5971 20.488C22.4197 20.3107 22.1817 20.222 21.8831 20.222C21.5377 20.222 21.2624 20.3247 21.0571 20.53C20.8611 20.7353 20.7631 21.0107 20.7631 21.356C20.7631 21.664 20.8517 21.902 21.0291 22.07C21.2064 22.238 21.4537 22.322 21.7711 22.322ZM27.3431 29.112C26.5964 29.112 25.9991 28.9067 25.5511 28.496C25.1031 28.0853 24.8791 27.5347 24.8791 26.844C24.8791 26.368 24.9911 25.9433 25.2151 25.57C25.4484 25.1967 25.7657 24.9073 26.1671 24.702C26.5684 24.4873 27.0257 24.38 27.5391 24.38C28.2857 24.38 28.8784 24.5853 29.3171 24.996C29.7651 25.4067 29.9891 25.9573 29.9891 26.648C29.9891 27.124 29.8724 27.5487 29.6391 27.922C29.4151 28.286 29.1024 28.5753 28.7011 28.79C28.3091 29.0047 27.8564 29.112 27.3431 29.112ZM27.3851 27.796C27.7117 27.796 27.9731 27.6933 28.1691 27.488C28.3744 27.2733 28.4771 26.9887 28.4771 26.634C28.4771 26.3353 28.3884 26.1067 28.2111 25.948C28.0337 25.78 27.7911 25.696 27.4831 25.696C27.1471 25.696 26.8811 25.8033 26.6851 26.018C26.4891 26.2233 26.3911 26.494 26.3911 26.83C26.3911 27.138 26.4797 27.376 26.6571 27.544C26.8344 27.712 27.0771 27.796 27.3851 27.796ZM0.896 47V45.502C2.38933 44.4473 3.472 43.4533 4.144 42.52C4.816 41.5867 5.152 40.7793 5.152 40.098C5.152 39.706 5.04467 39.4027 4.83 39.188C4.61533 38.9733 4.31667 38.866 3.934 38.866C3.50467 38.866 3.14067 38.9967 2.842 39.258C2.54333 39.51 2.324 39.846 2.184 40.266L0.574 39.398C0.732667 38.9127 0.984667 38.4833 1.33 38.11C1.67533 37.7367 2.09067 37.4473 2.576 37.242C3.07067 37.0273 3.612 36.92 4.2 36.92C4.844 36.92 5.404 37.046 5.88 37.298C6.356 37.5407 6.72467 37.886 6.986 38.334C7.24733 38.7727 7.37333 39.2813 7.364 39.86C7.364 40.728 7.084 41.61 6.524 42.506C5.97333 43.3927 5.04933 44.298 3.752 45.222H7.602V47H0.896ZM12.8805 47.14C12.5912 47.14 12.2785 47.1167 11.9425 47.07C11.6065 47.0327 11.2799 46.9673 10.9625 46.874C10.6452 46.7713 10.3745 46.6407 10.1505 46.482L10.6685 44.55C10.9859 44.746 11.3405 44.9047 11.7325 45.026C12.1245 45.138 12.5492 45.194 13.0065 45.194C13.6039 45.194 14.0472 45.0727 14.3365 44.83C14.6259 44.5873 14.7705 44.2607 14.7705 43.85C14.7705 43.6167 14.7099 43.402 14.5885 43.206C14.4672 43.0007 14.2339 42.8373 13.8885 42.716C13.5432 42.5853 13.0392 42.506 12.3765 42.478L10.7385 42.422L11.1725 37.06H16.4645V38.838H13.1745L13.0205 40.672C14.3179 40.728 15.3025 41.022 15.9745 41.554C16.6465 42.086 16.9825 42.842 16.9825 43.822C16.9825 44.466 16.8145 45.04 16.4785 45.544C16.1425 46.0387 15.6665 46.4307 15.0505 46.72C14.4345 47 13.7112 47.14 12.8805 47.14ZM21.7011 41.638C20.9637 41.638 20.3711 41.4327 19.9231 41.022C19.4751 40.6113 19.2511 40.0607 19.2511 39.37C19.2511 38.894 19.3677 38.474 19.6011 38.11C19.8344 37.7367 20.1471 37.4427 20.5391 37.228C20.9404 37.0133 21.3977 36.906 21.9111 36.906C22.6577 36.906 23.2504 37.1113 23.6891 37.522C24.1371 37.9233 24.3611 38.474 24.3611 39.174C24.3611 39.65 24.2444 40.0747 24.0111 40.448C23.7871 40.8213 23.4744 41.1153 23.0731 41.33C22.6717 41.5353 22.2144 41.638 21.7011 41.638ZM20.1471 47L27.2311 37.06H29.0931L22.0091 47H20.1471ZM21.7711 40.322C22.0977 40.322 22.3591 40.2193 22.5551 40.014C22.7604 39.7993 22.8631 39.524 22.8631 39.188C22.8631 38.8893 22.7744 38.656 22.5971 38.488C22.4197 38.3107 22.1817 38.222 21.8831 38.222C21.5377 38.222 21.2624 38.3247 21.0571 38.53C20.8611 38.7353 20.7631 39.0107 20.7631 39.356C20.7631 39.664 20.8517 39.902 21.0291 40.07C21.2064 40.238 21.4537 40.322 21.7711 40.322ZM27.3431 47.112C26.5964 47.112 25.9991 46.9067 25.5511 46.496C25.1031 46.0853 24.8791 45.5347 24.8791 44.844C24.8791 44.368 24.9911 43.9433 25.2151 43.57C25.4484 43.1967 25.7657 42.9073 26.1671 42.702C26.5684 42.4873 27.0257 42.38 27.5391 42.38C28.2857 42.38 28.8784 42.5853 29.3171 42.996C29.7651 43.4067 29.9891 43.9573 29.9891 44.648C29.9891 45.124 29.8724 45.5487 29.6391 45.922C29.4151 46.286 29.1024 46.5753 28.7011 46.79C28.3091 47.0047 27.8564 47.112 27.3431 47.112ZM27.3851 45.796C27.7117 45.796 27.9731 45.6933 28.1691 45.488C28.3744 45.2733 28.4771 44.9887 28.4771 44.634C28.4771 44.3353 28.3884 44.1067 28.2111 43.948C28.0337 43.78 27.7911 43.696 27.4831 43.696C27.1471 43.696 26.8811 43.8033 26.6851 44.018C26.4891 44.2233 26.3911 44.494 26.3911 44.83C26.3911 45.138 26.4797 45.376 26.6571 45.544C26.8344 45.712 27.0771 45.796 27.3851 45.796Z" fill="#FEDC97"/>
</svg>
