<svg width="50%" height="50%" viewBox="0 0 411 26" fill="none" xmlns="http://www.w3.org/2000/svg">
<path d="M0.191211 17.95C2.56121 23.62 6.10121 25.6 10.6612 25.6C14.4712 25.6 17.7112 23.62 17.7112 19.48C17.7112 15.58 14.9212 13.69 9.52121 9.91C5.50121 7.12 3.97121 6.1 3.97121 4.03C3.97121 2.23 5.44121 0.969998 7.90121 0.969998C11.7712 0.969998 13.3312 4.15 14.0512 7.3L17.0812 6.07C14.6512 2.17 11.8312 0.399998 8.11121 0.399998C4.48121 0.399998 1.66121 2.14 1.66121 5.47C1.66121 8.62 3.55121 10.12 8.14121 13.42C12.8212 16.78 15.4012 18.46 15.4012 20.92C15.4012 23.62 13.5712 25.03 10.9312 25.03C6.97121 25.03 4.03121 21.37 3.22121 16.33L0.191211 17.95ZM21.7131 1C21.9231 3.4 21.9831 4.69 21.9831 7.18V14.8C21.9831 23.38 25.9731 25.6 31.8831 25.6C37.3731 25.6 39.9831 22.66 39.9831 14.8V7.18C39.9831 4.69 40.0431 3.4 40.2531 1H39.1431C39.3531 3.4 39.4131 4.69 39.4131 7.18V14.8C39.4131 22.15 37.1031 24.7 32.5731 24.7C27.8331 24.7 26.0931 21.85 26.0931 14.8V7.18C26.0931 4.69 26.1531 3.4 26.3631 1H21.7131ZM55.6484 11.47C59.2484 10.87 60.8384 9.22 60.8384 6.37C60.8384 1.72 56.6984 1 52.5884 1H44.4584C44.6684 3.4 44.7284 4.69 44.7284 7.18V18.82C44.7284 21.31 44.6684 22.6 44.4584 25H53.0384C58.1684 25 62.5184 23.47 62.5184 18.34C62.5184 14.05 59.4884 12.13 55.6484 11.47ZM48.8384 1.57H51.0584C53.6984 1.57 56.6684 2.68 56.6684 6.37C56.6684 9.49 55.2284 11.17 51.3284 11.17H48.8384V1.57ZM51.3584 24.43H48.8384V11.74H51.6284C54.1784 11.74 58.0484 12.94 58.0484 18.34C58.0484 22.87 54.9284 24.43 51.3584 24.43ZM66.4057 25H67.5457C67.3057 22.6 67.2457 21.31 67.2457 18.82V2.53L77.4457 25.6H78.1957L87.7957 2.44V18.82C87.7957 21.31 87.7357 22.6 87.5257 25H92.1757C91.9657 22.6 91.8757 21.31 91.8757 18.82V7.18C91.8757 4.69 91.9657 3.4 92.1757 1H87.7957L79.7257 20.11L71.1457 1H66.4057C66.6157 3.4 66.6757 4.69 66.6757 7.18V18.82C66.6757 21.31 66.6157 22.6 66.4057 25ZM96.6732 1C96.8832 3.4 96.9432 4.69 96.9432 7.18V18.82C96.9432 21.31 96.8832 22.6 96.6732 25H101.323C101.113 22.6 101.053 21.31 101.053 18.82V7.18C101.053 4.69 101.113 3.4 101.323 1H96.6732ZM104.918 17.95C107.288 23.62 110.828 25.6 115.388 25.6C119.198 25.6 122.438 23.62 122.438 19.48C122.438 15.58 119.648 13.69 114.248 9.91C110.228 7.12 108.698 6.1 108.698 4.03C108.698 2.23 110.168 0.969998 112.628 0.969998C116.498 0.969998 118.058 4.15 118.778 7.3L121.808 6.07C119.378 2.17 116.558 0.399998 112.838 0.399998C109.208 0.399998 106.388 2.14 106.388 5.47C106.388 8.62 108.278 10.12 112.868 13.42C117.548 16.78 120.128 18.46 120.128 20.92C120.128 23.62 118.298 25.03 115.658 25.03C111.698 25.03 108.758 21.37 107.948 16.33L104.918 17.95ZM125.722 17.95C128.092 23.62 131.632 25.6 136.192 25.6C140.002 25.6 143.242 23.62 143.242 19.48C143.242 15.58 140.452 13.69 135.052 9.91C131.032 7.12 129.502 6.1 129.502 4.03C129.502 2.23 130.972 0.969998 133.432 0.969998C137.302 0.969998 138.862 4.15 139.582 7.3L142.612 6.07C140.182 2.17 137.362 0.399998 133.642 0.399998C130.012 0.399998 127.192 2.14 127.192 5.47C127.192 8.62 129.082 10.12 133.672 13.42C138.352 16.78 140.932 18.46 140.932 20.92C140.932 23.62 139.102 25.03 136.462 25.03C132.502 25.03 129.562 21.37 128.752 16.33L125.722 17.95ZM147.163 1C147.373 3.4 147.433 4.69 147.433 7.18V18.82C147.433 21.31 147.373 22.6 147.163 25H151.813C151.603 22.6 151.543 21.31 151.543 18.82V7.18C151.543 4.69 151.603 3.4 151.813 1H147.163ZM169.722 25.6C177.582 25.6 183.552 20.62 183.552 13C183.552 5.41 177.582 0.399998 169.722 0.399998C161.802 0.399998 155.862 5.41 155.862 13C155.862 20.62 161.802 25.6 169.722 25.6ZM169.722 25.03C163.632 25.03 160.302 19.33 160.302 13C160.302 6.7 163.632 0.969998 169.722 0.969998C175.752 0.969998 179.112 6.7 179.112 13C179.112 19.33 175.752 25.03 169.722 25.03ZM187.454 25H188.504C188.294 22.6 188.234 21.31 188.234 18.82V2.23L188.294 2.26L201.524 25H206.384C206.144 22.6 206.084 21.31 206.084 18.82V7.18C206.084 4.69 206.144 3.4 206.384 1H205.304C205.514 3.4 205.604 4.69 205.604 7.18V23.77L205.544 23.74L192.284 1H187.454C187.664 3.4 187.724 4.69 187.724 7.18V18.82C187.724 21.31 187.664 22.6 187.454 25ZM245.841 13.45V12.88H233.061L234.621 14.98C237.141 13.66 239.811 13.45 241.341 13.45H242.571C242.271 20.14 239.211 24.31 234.111 24.31C228.351 24.31 225.411 18.91 225.411 12.43C225.411 6.1 228.351 0.969998 233.241 0.969998C236.901 0.969998 238.761 4.15 239.571 8.02L243.531 6.94C241.491 2.98 238.191 0.399998 233.241 0.399998C226.431 0.399998 220.971 5.23 220.971 12.7C220.971 20.17 225.741 25.6 232.881 25.6C238.371 25.6 241.401 22.36 242.571 17.17V18.37C242.571 20.5 242.511 22.42 242.211 25H243.771C243.471 22.42 243.411 20.5 243.411 18.37V13.45H245.841ZM248.836 1C249.046 3.4 249.106 4.69 249.106 7.18V14.8C249.106 23.38 253.096 25.6 259.006 25.6C264.496 25.6 267.106 22.66 267.106 14.8V7.18C267.106 4.69 267.166 3.4 267.376 1H266.266C266.476 3.4 266.536 4.69 266.536 7.18V14.8C266.536 22.15 264.226 24.7 259.696 24.7C254.956 24.7 253.216 21.85 253.216 14.8V7.18C253.216 4.69 253.276 3.4 253.486 1H248.836ZM271.581 1C271.791 3.4 271.851 4.69 271.851 7.18V18.82C271.851 21.31 271.791 22.6 271.581 25H276.231C276.021 22.6 275.961 21.31 275.961 18.82V7.18C275.961 4.69 276.021 3.4 276.231 1H271.581ZM280.726 25H288.046C295.936 25 300.736 20.74 300.736 13C300.736 4.93 295.786 1 288.046 1H280.726C280.936 3.4 280.996 4.69 280.996 7.18V18.82C280.996 21.31 280.936 22.6 280.726 25ZM287.926 24.43H285.106V1.57H287.926C292.876 1.57 296.296 5.2 296.296 13C296.296 20.5 292.876 24.43 287.926 24.43ZM304.636 1C304.876 3.4 304.966 4.69 304.966 7.18V18.82C304.966 21.31 304.876 22.6 304.636 25H319.696L320.686 22.99C316.996 24.25 315.076 24.43 312.016 24.43H309.046V12.61H310.816C312.406 12.61 314.026 12.61 316.816 12.91V11.74C314.026 12.04 312.406 12.04 310.816 12.04H309.046V1.57H311.686C313.216 1.57 315.916 1.78 318.406 3.07L319.966 1H304.636ZM324.358 1C324.568 3.4 324.628 4.69 324.628 7.18V18.82C324.628 21.31 324.538 22.6 324.298 25H338.728L339.718 22.99C335.998 24.25 334.108 24.43 331.018 24.43H328.738V7.18C328.738 4.69 328.798 3.4 329.008 1H324.358ZM343.169 1C343.379 3.4 343.439 4.69 343.439 7.18V18.82C343.439 21.31 343.379 22.6 343.169 25H347.819C347.609 22.6 347.549 21.31 347.549 18.82V7.18C347.549 4.69 347.609 3.4 347.819 1H343.169ZM352.314 25H353.364C353.154 22.6 353.094 21.31 353.094 18.82V2.23L353.154 2.26L366.384 25H371.244C371.004 22.6 370.944 21.31 370.944 18.82V7.18C370.944 4.69 371.004 3.4 371.244 1H370.164C370.374 3.4 370.464 4.69 370.464 7.18V23.77L370.404 23.74L357.144 1H352.314C352.524 3.4 352.584 4.69 352.584 7.18V18.82C352.584 21.31 352.524 22.6 352.314 25ZM375.755 1C375.995 3.4 376.085 4.69 376.085 7.18V18.82C376.085 21.31 375.995 22.6 375.755 25H390.815L391.805 22.99C388.115 24.25 386.195 24.43 383.135 24.43H380.165V12.61H381.935C383.525 12.61 385.145 12.61 387.935 12.91V11.74C385.145 12.04 383.525 12.04 381.935 12.04H380.165V1.57H382.805C384.335 1.57 387.035 1.78 389.525 3.07L391.085 1H375.755ZM393.287 17.95C395.657 23.62 399.197 25.6 403.757 25.6C407.567 25.6 410.807 23.62 410.807 19.48C410.807 15.58 408.017 13.69 402.617 9.91C398.597 7.12 397.067 6.1 397.067 4.03C397.067 2.23 398.537 0.969998 400.997 0.969998C404.867 0.969998 406.427 4.15 407.147 7.3L410.177 6.07C407.747 2.17 404.927 0.399998 401.207 0.399998C397.577 0.399998 394.757 2.14 394.757 5.47C394.757 8.62 396.647 10.12 401.237 13.42C405.917 16.78 408.497 18.46 408.497 20.92C408.497 23.62 406.667 25.03 404.027 25.03C400.067 25.03 397.127 21.37 396.317 16.33L393.287 17.95Z" fill="#FDFBE2"/>
</svg>
