<svg width="229" height="279" viewBox="0 0 229 279" fill="none" xmlns="http://www.w3.org/2000/svg">
<path d="M275.703 153.58C276.152 148.019 190.776 141.195 190.776 141.195L161.822 138.881L173.049 129.546C173.049 129.546 216.472 93.4424 212.764 89.1887C209.057 84.9349 165.634 121.039 165.634 121.039L154.407 130.373L156.689 102.087C156.689 102.087 163.42 18.6817 157.727 18.2267C152.034 17.7717 145.304 101.177 145.304 101.177L143.021 129.463L133.435 118.465C133.435 118.465 96.3582 75.9274 92.016 79.5378C87.6737 83.1482 124.75 125.686 124.75 125.686L134.336 136.684L105.382 134.37C105.382 134.37 20.0063 127.546 19.5575 133.108C19.1087 138.669 104.485 145.493 104.485 145.493L133.439 147.807L122.212 157.142C122.212 157.142 78.789 193.246 82.4967 197.5C86.2043 201.753 129.627 165.65 129.627 165.65L140.854 156.315L138.571 184.601C138.571 184.601 131.841 268.006 137.534 268.462C143.227 268.917 149.957 185.511 149.957 185.511L152.24 157.225L161.826 168.223C161.826 168.223 198.903 210.761 203.245 207.15C207.587 203.54 170.511 161.003 170.511 161.003L160.924 150.004L189.879 152.318C189.879 152.318 275.255 159.142 275.703 153.58Z" fill="black"/>
<path d="M266.821 145.647C267.269 140.085 181.893 133.262 181.893 133.262L152.939 130.948L164.167 121.613C164.167 121.613 207.589 85.5091 203.881 81.2553C200.174 77.0015 156.751 113.105 156.751 113.105L145.524 122.44L147.807 94.1541C147.807 94.1541 154.537 10.7484 148.844 10.2934C143.151 9.83834 136.421 93.244 136.421 93.244L134.138 121.53L124.552 110.532C124.552 110.532 87.4754 67.9941 83.1332 71.6044C78.7909 75.2148 115.867 117.752 115.867 117.752L125.454 128.751L96.4994 126.437C96.4994 126.437 11.1235 119.613 10.6747 125.174C10.2259 130.736 95.6018 137.56 95.6018 137.56L124.556 139.874L113.329 149.209C113.329 149.209 69.9062 185.312 73.6139 189.566C77.3215 193.82 120.744 157.716 120.744 157.716L131.971 148.381L129.689 176.667C129.689 176.667 122.958 260.073 128.651 260.528C134.344 260.983 141.075 177.577 141.075 177.577L143.357 149.291L152.944 160.29C152.944 160.29 190.02 202.827 194.362 199.217C198.704 195.607 161.628 153.069 161.628 153.069L152.042 142.071L180.996 144.385C180.996 144.385 266.372 151.209 266.821 145.647Z" fill="#FF8B13" stroke="black" stroke-width="2.35" stroke-linecap="round" stroke-linejoin="round"/>
</svg>
