<svg width="117" height="153" viewBox="0 0 117 153" fill="none" xmlns="http://www.w3.org/2000/svg">
<path d="M53.649 136.516C35.9614 99.8478 25.9436 93.9866 -13.7826 97.1184C-15.429 97.2509 -16.06 94.9586 -14.5795 94.2234C21.1731 76.6561 26.7971 66.518 23.2225 25.9818C23.0716 24.3017 25.3127 23.6874 26.0528 25.206C43.7404 61.8739 53.7581 67.7351 93.4843 64.6033C95.1308 64.4708 95.7618 66.7631 94.2812 67.4983C58.5287 85.0657 52.9046 95.2037 56.4793 135.74C56.6301 137.42 54.389 138.034 53.649 136.516Z" fill="black"/>
<path d="M57.3785 127.286C39.6901 90.6168 29.6724 84.755 -10.0528 87.8855C-11.6992 88.0179 -12.3302 85.7256 -10.8497 84.9904C24.9013 67.4239 30.5249 57.2858 26.949 16.7485C26.7981 15.0684 29.0391 14.4542 29.7792 15.9728C47.4676 52.6422 57.4854 58.504 97.2105 55.3735C98.8569 55.2411 99.4879 57.5334 98.0074 58.2686C62.2564 75.8351 56.6328 85.9732 60.2087 126.511C60.3596 128.191 58.1186 128.805 57.3785 127.286Z" fill="#F9346C"/>
<path d="M57.3785 127.286C39.6901 90.6168 29.6724 84.755 -10.0528 87.8855C-11.6992 88.0179 -12.3302 85.7256 -10.8497 84.9904C24.9013 67.4239 30.5249 57.2858 26.949 16.7485C26.7981 15.0684 29.0391 14.4542 29.7792 15.9728C47.4676 52.6422 57.4854 58.504 97.2105 55.3735C98.8569 55.2411 99.4879 57.5334 98.0074 58.2686C62.2564 75.8351 56.6328 85.9732 60.2087 126.511C60.3596 128.191 58.1186 128.805 57.3785 127.286V127.286Z" stroke="black" stroke-width="2.35" stroke-linecap="round" stroke-linejoin="round"/>
</svg>
