<svg width="221" height="222" viewBox="0 0 221 222" fill="none" xmlns="http://www.w3.org/2000/svg">
<g clip-path="url(#clip0_1958_1682)">
<path d="M201.949 134.46L129.871 137.498C129.088 137.528 128.421 138.027 128.131 138.759L102.73 206.375C101.982 208.349 99.0669 207.882 98.9896 205.776L95.9855 133.608C95.9555 132.825 95.4577 132.157 94.7266 131.867L27.1886 106.459C25.2176 105.711 25.6852 102.792 27.7887 102.714L99.867 99.6763C100.65 99.6459 101.317 99.1473 101.607 98.4151L127.008 30.799C127.756 28.8253 130.671 29.2923 130.748 31.3983L133.752 103.566C133.782 104.349 134.28 105.017 135.011 105.307L202.532 130.712C204.503 131.461 204.036 134.379 201.932 134.457L201.949 134.46Z" fill="black"/>
<path d="M194.063 121.448L121.985 124.485C121.202 124.516 120.535 125.014 120.245 125.747L94.8438 193.363C94.0955 195.336 91.1809 194.869 91.1036 192.763L88.0995 120.596C88.0695 119.813 87.5717 119.145 86.8406 118.854L19.3195 93.4495C17.3485 92.7011 17.8161 89.7826 19.9195 89.7044L91.9979 86.6668C92.7804 86.6365 93.4478 86.1378 93.7379 85.4057L119.139 17.7896C119.887 15.8158 122.802 16.2828 122.879 18.3888L125.883 90.5562C125.913 91.3396 126.411 92.0076 127.142 92.2978L194.663 117.703C196.634 118.451 196.167 121.37 194.063 121.448Z" fill="#8F55FF" stroke="black" stroke-width="2.35" stroke-linecap="round" stroke-linejoin="round"/>
</g>
<defs>
<clipPath id="clip0_1958_1682">
<rect width="191.919" height="193.932" fill="white" transform="translate(30.6816) rotate(9.10288)"/>
</clipPath>
</defs>
</svg>
