<svg preserveAspectRatio="none" width="100%" height="1015" viewBox="0 0 1024 1015" fill="none" xmlns="http://www.w3.org/2000/svg">
<rect width="1024" height="1015" fill="#E5E5E5"/>
<g clip-path="url(#clip0_0_1)">
<rect width="1024" height="2547" fill="#FDFBE2"/>
<path d="M284 447.312C188 338.112 58 420.812 5 475.812L-192 2415.5H1113.5L1139.5 688.312C1149 596.479 1142.6 403.312 1041 365.312C914 317.812 860.5 447.312 772 491.812C683.5 536.312 404 583.812 284 447.312Z" fill="#FCDB96"/>
<path d="M284 475.312C188 366.112 58 448.812 5 503.812L-10.5 1427.5H1107.5L1139.5 716.312C1149 624.479 1142.6 431.312 1041 393.312C914 345.812 860.5 475.312 772 519.812C683.5 564.312 404 611.812 284 475.312Z" fill="#28666E"/>
<path d="M281.426 504.32C182.752 395.111 49.1306 477.818 -5.3457 532.822L-5.34567 1016H1127.86L1160.75 745.34C1170.52 653.499 1163.94 460.316 1059.51 422.313C928.973 374.809 873.983 504.32 783.018 548.823C692.053 593.327 404.768 640.831 281.426 504.32Z" fill="#7C9784"/>
</g>
<defs>
<clipPath id="clip0_0_1">
<rect width="1024" height="2547" fill="white"/>
</clipPath>
</defs>
</svg>
