<svg width="99" height="129" viewBox="0 0 99 129" fill="none" xmlns="http://www.w3.org/2000/svg">
<path fill-rule="evenodd" clip-rule="evenodd" d="M64.6627 0.24141C64.6627 0.24141 64.3064 44.886 60.1106 47.6022C55.4672 49.895 35.9974 36.7879 35.9974 36.7879C35.9974 36.7879 52.6321 53.7967 50.2008 58.1024C47.3611 62.4248 0.57073 66.8593 0.57073 66.8593C0.57073 66.8593 47.5808 67.8842 50.7592 71.9818C53.5285 76.0752 38.3147 94.3845 38.3147 94.3845C38.3147 94.3845 56.6891 79.7317 61.48 81.6393C65.8794 83.9835 69.8211 128.453 69.8211 128.453C69.8211 128.453 70.1774 83.808 74.8253 81.0943C79.4687 78.8015 98.5302 91.9256 98.5302 91.9256C98.5302 91.9256 82.3253 74.8992 84.7566 70.5935C87.188 66.2878 133.896 61.4148 133.896 61.4148C133.896 61.4148 86.903 60.8101 84.1982 56.7141C81.4934 52.6181 96.2129 34.329 96.2129 34.329C96.2129 34.329 78.2682 48.964 73.4559 47.0573C69.0316 44.6299 65.3468 6.54415 64.6627 0.24141Z" fill="#FDFBE2"/>
</svg>
