<svg width="850" height="97" viewBox="0 0 850 97" fill="none" xmlns="http://www.w3.org/2000/svg">
<path d="M45.6319 77.1223L60.8319 35.5223C61.5519 33.4423 63.0719 32.3223 65.1519 32.3223H66.7519C68.8319 32.3223 69.5519 33.4423 68.8319 35.5223L53.6319 77.1223C52.9119 79.2023 51.3919 80.3223 49.3119 80.3223H47.7119C45.6319 80.3223 44.9119 79.2023 45.6319 77.1223ZM16.7519 64.3223C11.0719 79.9223 16.3519 88.3223 31.9519 88.3223H59.1519C74.7519 88.3223 86.2719 79.9223 91.9519 64.3223L97.7119 48.3223C103.392 32.7223 98.1119 24.3223 82.5119 24.3223H55.3119C39.7119 24.3223 28.1919 32.7223 22.5119 48.3223L16.7519 64.3223ZM140.193 24.3223H122.593C117.393 24.3223 113.553 27.1223 111.633 32.3223L97.0731 72.3223C93.3131 82.7223 96.8331 88.3223 107.233 88.3223H150.433C160.833 88.3223 168.513 82.7223 172.273 72.3223L186.833 32.3223C188.753 27.1223 186.993 24.3223 181.793 24.3223H164.193C158.993 24.3223 155.153 27.1223 153.233 32.3223L136.913 77.1223C136.193 79.2023 134.673 80.3223 132.593 80.3223H130.993C128.913 80.3223 128.193 79.2023 128.913 77.1223L145.233 32.3223C147.153 27.1223 145.393 24.3223 140.193 24.3223ZM182.436 88.3223H200.036C205.236 88.3223 209.076 85.5223 210.996 80.3223L218.196 60.4823H226.196L221.876 72.3223C218.116 82.7223 221.636 88.3223 232.036 88.3223H240.036C245.236 88.3223 249.076 85.5223 250.996 80.3223L253.236 74.0823C255.156 68.8823 253.396 66.0823 248.196 66.0823H235.396C233.316 66.0823 232.596 64.9623 233.316 62.8823L234.196 60.4823H244.356C254.436 60.4823 260.036 55.3623 264.836 42.2423C269.556 29.2023 267.076 24.3223 255.396 24.3223H205.796C200.596 24.3223 196.756 27.1223 194.836 32.3223L177.396 80.3223C175.476 85.5223 177.236 88.3223 182.436 88.3223ZM222.276 49.2823L227.316 35.5223C228.036 33.4423 229.556 32.3223 231.636 32.3223H233.236C235.316 32.3223 236.036 33.4423 235.316 35.5223L230.276 49.2823C229.556 51.3623 227.956 52.4823 225.876 52.4823H224.276C222.196 52.4823 221.556 51.3623 222.276 49.2823ZM296.171 88.3223H331.371C341.771 88.3223 349.451 82.7223 353.211 72.3223L354.971 67.5223C356.891 62.3223 355.051 59.5223 349.851 59.5223H323.051C320.971 59.5223 319.451 60.6423 318.731 62.7223L318.171 64.3223C317.371 66.4023 318.091 67.5223 320.171 67.5223H321.371L317.851 77.1223C317.131 79.2023 315.611 80.3223 313.531 80.3223H311.931C309.851 80.3223 309.131 79.2023 309.851 77.1223L325.051 35.5223C325.771 33.4423 327.291 32.3223 329.371 32.3223H330.971C333.051 32.3223 333.771 33.4423 333.051 35.5223L329.851 44.3223C327.931 49.5223 329.691 52.3223 334.891 52.3223H352.491C357.691 52.3223 361.531 49.5223 363.451 44.3223C368.171 31.2823 362.331 24.3223 346.731 24.3223H319.531C303.931 24.3223 292.411 32.7223 286.731 48.3223L280.971 64.3223C275.291 79.9223 280.571 88.3223 296.171 88.3223ZM363.452 88.3223H381.052C386.252 88.3223 390.092 85.5223 392.012 80.3223L398.332 62.8823H406.332L400.012 80.3223C398.092 85.5223 399.852 88.3223 405.052 88.3223H422.652C427.852 88.3223 431.692 85.5223 433.612 80.3223L445.212 48.3223C450.892 32.7223 445.612 24.3223 430.012 24.3223H402.812C387.212 24.3223 375.692 32.7223 370.012 48.3223L358.412 80.3223C356.492 85.5223 358.252 88.3223 363.452 88.3223ZM401.292 54.8823L408.332 35.5223C409.052 33.4423 410.572 32.3223 412.652 32.3223H414.252C416.332 32.3223 417.052 33.4423 416.332 35.5223L409.292 54.8823H401.292ZM454.733 88.3223H495.933C501.133 88.3223 504.973 85.5223 506.893 80.3223L512.413 65.1223C514.333 59.9223 512.493 57.1223 507.293 57.1223H483.693L492.733 32.3223C494.653 27.1223 492.893 24.3223 487.693 24.3223H470.093C464.893 24.3223 461.053 27.1223 459.133 32.3223L444.573 72.3223C440.813 82.7223 444.333 88.3223 454.733 88.3223ZM528.014 88.3223H569.214C574.414 88.3223 578.254 85.5223 580.174 80.3223L585.694 65.1223C587.614 59.9223 585.774 57.1223 580.574 57.1223H556.974L566.014 32.3223C567.934 27.1223 566.174 24.3223 560.974 24.3223H543.374C538.174 24.3223 534.334 27.1223 532.414 32.3223L517.854 72.3223C514.094 82.7223 517.614 88.3223 528.014 88.3223ZM593.296 88.3223H646.496C651.696 88.3223 655.536 85.5223 657.456 80.3223L662.976 65.1223C664.896 59.9223 663.056 57.1223 657.856 57.1223H630.256L633.456 48.3223H655.456C657.536 48.3223 659.056 47.2023 659.856 45.1223L660.416 43.5223C661.216 41.4423 660.496 40.3223 658.416 40.3223H636.416L639.296 32.3223H668.496C670.576 32.3223 672.096 31.2023 672.896 29.1223L673.456 27.5223C674.176 25.4423 673.536 24.3223 671.456 24.3223H616.656C611.456 24.3223 607.616 27.1223 605.696 32.3223L588.256 80.3223C586.336 85.5223 588.096 88.3223 593.296 88.3223ZM670.561 88.3223H688.161C693.361 88.3223 697.201 85.5223 699.121 80.3223L706.321 60.4823H714.321L710.001 72.3223C706.241 82.7223 709.761 88.3223 720.161 88.3223H728.161C733.361 88.3223 737.201 85.5223 739.121 80.3223L741.361 74.0823C743.281 68.8823 741.521 66.0823 736.321 66.0823H723.521C721.441 66.0823 720.721 64.9623 721.441 62.8823L722.321 60.4823H732.481C742.561 60.4823 748.161 55.3623 752.961 42.2423C757.681 29.2023 755.201 24.3223 743.521 24.3223H693.921C688.721 24.3223 684.881 27.1223 682.961 32.3223L665.521 80.3223C663.601 85.5223 665.361 88.3223 670.561 88.3223ZM710.401 49.2823L715.441 35.5223C716.161 33.4423 717.681 32.3223 719.761 32.3223H721.361C723.441 32.3223 724.161 33.4423 723.441 35.5223L718.401 49.2823C717.681 51.3623 716.081 52.4823 714.001 52.4823H712.401C710.321 52.4823 709.681 51.3623 710.401 49.2823ZM773.88 88.3223H789.88C795.08 88.3223 798.92 85.5223 800.84 80.3223L804.36 70.6423C818.68 69.8423 829.24 61.5223 834.68 46.7223L839.88 32.3223C841.8 27.1223 840.04 24.3223 834.84 24.3223H817.24C812.04 24.3223 808.2 27.1223 806.28 32.3223L796.36 59.5223C795.64 61.6023 794.12 62.7223 792.04 62.7223H790.44C788.36 62.7223 787.64 61.6023 788.36 59.5223L798.28 32.3223C800.2 27.1223 798.44 24.3223 793.24 24.3223H775.64C770.44 24.3223 766.6 27.1223 764.68 32.3223L759.48 46.7223C754.04 61.5223 758.52 69.8423 772.36 70.6423L768.84 80.3223C766.92 85.5223 768.68 88.3223 773.88 88.3223Z" fill="black"/>
<path d="M45.6319 77.1223L42.8141 76.0927L42.8053 76.1167L42.7969 76.1409L45.6319 77.1223ZM60.8319 35.5223L63.6497 36.5518L63.6585 36.5278L63.6668 36.5036L60.8319 35.5223ZM68.8319 35.5223L71.6497 36.5518L71.6585 36.5278L71.6668 36.5036L68.8319 35.5223ZM53.6319 77.1223L50.8141 76.0927L50.8053 76.1167L50.7969 76.1409L53.6319 77.1223ZM16.7519 64.3223L19.5709 65.3487L19.5745 65.3384L16.7519 64.3223ZM91.9519 64.3223L94.7709 65.3487L94.7745 65.3384L91.9519 64.3223ZM97.7119 48.3223L94.8929 47.2959L94.8892 47.3061L97.7119 48.3223ZM22.5119 48.3223L19.6929 47.2959L19.6892 47.3061L22.5119 48.3223ZM48.4497 78.1518L63.6497 36.5518L58.0141 34.4927L42.8141 76.0927L48.4497 78.1518ZM63.6668 36.5036C63.8663 35.9273 64.1071 35.6716 64.266 35.5541C64.4153 35.4436 64.6694 35.3223 65.1519 35.3223V29.3223C63.5543 29.3223 62.0084 29.7609 60.6978 30.7304C59.3967 31.6929 58.5174 33.0372 57.9969 34.5409L63.6668 36.5036ZM65.1519 35.3223H66.7519V29.3223H65.1519V35.3223ZM66.7519 35.3223C67.0247 35.3223 67.06 35.362 66.9553 35.3207C66.8177 35.2664 66.5412 35.1084 66.3244 34.7739C66.1162 34.4528 66.103 34.1845 66.1031 34.1353C66.1032 34.105 66.1058 34.2265 65.9969 34.5409L71.6668 36.5036C72.1261 35.1769 72.4735 33.2296 71.3593 31.5106C70.1882 29.7037 68.1907 29.3223 66.7519 29.3223V35.3223ZM66.0141 34.4927L50.8141 76.0927L56.4497 78.1518L71.6497 36.5518L66.0141 34.4927ZM50.7969 76.1409C50.5974 76.7172 50.3567 76.9729 50.1978 77.0904C50.0484 77.2009 49.7943 77.3223 49.3119 77.3223V83.3223C50.9094 83.3223 52.4553 82.8836 53.766 81.9141C55.0671 80.9516 55.9463 79.6073 56.4668 78.1036L50.7969 76.1409ZM49.3119 77.3223H47.7119V83.3223H49.3119V77.3223ZM47.7119 77.3223C47.4391 77.3223 47.4037 77.2825 47.5085 77.3239C47.6461 77.3781 47.9225 77.5361 48.1393 77.8706C48.3475 78.1918 48.3608 78.46 48.3606 78.5092C48.3605 78.5395 48.358 78.418 48.4668 78.1036L42.7969 76.1409C42.3377 77.4676 41.9903 79.415 43.1044 81.134C44.2755 82.9408 46.2731 83.3223 47.7119 83.3223V77.3223ZM13.9329 63.2959C10.9939 71.3679 10.5164 78.5235 13.836 83.7752C17.2172 89.1244 23.7623 91.3223 31.9519 91.3223V85.3223C24.5415 85.3223 20.6465 83.3202 18.9077 80.5693C17.1073 77.721 16.8299 72.8767 19.5708 65.3487L13.9329 63.2959ZM31.9519 91.3223H59.1519V85.3223H31.9519V91.3223ZM59.1519 91.3223C67.5104 91.3223 74.9289 89.0634 81.0424 84.5941C87.1454 80.1325 91.7656 73.6024 94.7708 65.3487L89.1329 63.2959C86.4581 70.6421 82.4784 76.112 77.5014 79.7504C72.5349 83.3812 66.3934 85.3223 59.1519 85.3223V91.3223ZM94.7745 65.3384L100.535 49.3384L94.8892 47.3061L89.1292 63.3061L94.7745 65.3384ZM100.531 49.3487C103.47 41.2767 103.947 34.121 100.628 28.8693C97.2465 23.5202 90.7015 21.3223 82.5119 21.3223V27.3223C89.9223 27.3223 93.8172 29.3244 95.556 32.0752C97.3564 34.9235 97.6339 39.7679 94.8929 47.2959L100.531 49.3487ZM82.5119 21.3223H55.3119V27.3223H82.5119V21.3223ZM55.3119 21.3223C46.9534 21.3223 39.5349 23.5812 33.4214 28.0504C27.3184 32.512 22.6981 39.0421 19.6929 47.2959L25.3308 49.3487C28.0056 42.0024 31.9854 36.5325 36.9624 32.8941C41.9289 29.2634 48.0704 27.3223 55.3119 27.3223V21.3223ZM19.6892 47.3061L13.9292 63.3061L19.5745 65.3384L25.3345 49.3384L19.6892 47.3061ZM111.633 32.3223L108.819 31.2831L108.814 31.2961L111.633 32.3223ZM97.0731 72.3223L94.2541 71.2961L94.2518 71.3023L97.0731 72.3223ZM172.273 72.3223L169.454 71.2961L169.452 71.3023L172.273 72.3223ZM186.833 32.3223L184.019 31.2831L184.014 31.2961L186.833 32.3223ZM153.233 32.3223L150.419 31.2831L150.414 31.2954L153.233 32.3223ZM136.913 77.1223L134.094 76.0954L134.086 76.1181L134.078 76.1409L136.913 77.1223ZM128.913 77.1223L126.094 76.0954L126.086 76.1181L126.078 76.1409L128.913 77.1223ZM145.233 32.3223L142.419 31.2831L142.414 31.2954L145.233 32.3223ZM140.193 21.3223H122.593V27.3223H140.193V21.3223ZM122.593 21.3223C119.434 21.3223 116.537 22.1814 114.115 23.9489C111.704 25.7082 109.945 28.2344 108.819 31.2831L114.447 33.3614C115.242 31.2101 116.362 29.7364 117.652 28.7956C118.929 27.8631 120.552 27.3223 122.593 27.3223V21.3223ZM108.814 31.2961L94.2541 71.2961L99.8922 73.3484L114.452 33.3484L108.814 31.2961ZM94.2518 71.3023C92.2733 76.7748 91.8395 81.9288 94.3087 85.8274C96.8398 89.8239 101.642 91.3223 107.233 91.3223V85.3223C102.424 85.3223 100.266 84.0207 99.3776 82.6171C98.4267 81.1158 98.1129 78.2697 99.8944 73.3423L94.2518 71.3023ZM107.233 91.3223H150.433V85.3223H107.233V91.3223ZM150.433 91.3223C156.191 91.3223 161.35 89.7635 165.615 86.6434C169.869 83.5306 173.049 78.9985 175.094 73.3423L169.452 71.3023C167.737 76.046 165.198 79.5139 162.072 81.8012C158.956 84.081 155.075 85.3223 150.433 85.3223V91.3223ZM175.092 73.3484L189.652 33.3484L184.014 31.2961L169.454 71.2961L175.092 73.3484ZM189.647 33.3614C190.707 30.4906 191.132 27.3315 189.522 24.7738C187.85 22.1192 184.78 21.3223 181.793 21.3223V27.3223C184.006 27.3223 184.416 27.9254 184.444 27.9707C184.534 28.113 184.879 28.9539 184.019 31.2831L189.647 33.3614ZM181.793 21.3223H164.193V27.3223H181.793V21.3223ZM164.193 21.3223C161.034 21.3223 158.137 22.1814 155.715 23.9489C153.304 25.7082 151.545 28.2344 150.419 31.2831L156.047 33.3614C156.842 31.2101 157.962 29.7364 159.252 28.7956C160.529 27.8631 162.152 27.3223 164.193 27.3223V21.3223ZM150.414 31.2954L134.094 76.0954L139.732 78.1491L156.052 33.3491L150.414 31.2954ZM134.078 76.1409C133.879 76.7172 133.638 76.9729 133.479 77.0904C133.33 77.2009 133.076 77.3223 132.593 77.3223V83.3223C134.191 83.3223 135.737 82.8836 137.047 81.9141C138.348 80.9516 139.228 79.6073 139.748 78.1036L134.078 76.1409ZM132.593 77.3223H130.993V83.3223H132.593V77.3223ZM130.993 77.3223C130.72 77.3223 130.685 77.2825 130.79 77.3239C130.927 77.3781 131.204 77.5361 131.421 77.8706C131.629 78.1918 131.642 78.46 131.642 78.5092C131.642 78.5395 131.639 78.418 131.748 78.1036L126.078 76.1409C125.619 77.4676 125.272 79.415 126.386 81.134C127.557 82.9408 129.554 83.3223 130.993 83.3223V77.3223ZM131.732 78.1491L148.052 33.3491L142.414 31.2954L126.094 76.0954L131.732 78.1491ZM148.047 33.3614C149.107 30.4906 149.532 27.3315 147.922 24.7738C146.25 22.1192 143.18 21.3223 140.193 21.3223V27.3223C142.406 27.3223 142.816 27.9254 142.844 27.9707C142.934 28.113 143.279 28.9539 142.419 31.2831L148.047 33.3614ZM210.996 80.3223L213.811 81.3614L213.813 81.3535L213.816 81.3457L210.996 80.3223ZM218.196 60.4823V57.4823H216.094L215.376 59.4589L218.196 60.4823ZM226.196 60.4823L229.015 61.5105L230.484 57.4823H226.196V60.4823ZM221.876 72.3223L219.058 71.294L219.055 71.3023L221.876 72.3223ZM250.996 80.3223L253.811 81.3614L253.815 81.3486L253.82 81.3359L250.996 80.3223ZM253.236 74.0823L250.422 73.0431L250.417 73.0559L250.413 73.0687L253.236 74.0823ZM233.316 62.8823L230.5 61.8495L230.49 61.8751L230.481 61.9009L233.316 62.8823ZM234.196 60.4823V57.4823H232.101L231.38 59.4495L234.196 60.4823ZM264.836 42.2423L267.654 43.273L267.657 43.2633L264.836 42.2423ZM194.836 32.3223L192.022 31.2831L192.019 31.2905L192.017 31.2978L194.836 32.3223ZM177.396 80.3223L180.211 81.3614L180.213 81.3541L180.216 81.3467L177.396 80.3223ZM222.276 49.2823L219.459 48.2505L219.45 48.2756L219.441 48.3009L222.276 49.2823ZM227.316 35.5223L230.133 36.5541L230.142 36.5289L230.151 36.5036L227.316 35.5223ZM235.316 35.5223L238.133 36.5541L238.142 36.5289L238.151 36.5036L235.316 35.5223ZM230.276 49.2823L227.459 48.2505L227.45 48.2756L227.441 48.3009L230.276 49.2823ZM182.436 91.3223H200.036V85.3223H182.436V91.3223ZM200.036 91.3223C203.195 91.3223 206.093 90.4631 208.515 88.6956C210.926 86.9364 212.685 84.4101 213.811 81.3614L208.182 79.2831C207.388 81.4344 206.267 82.9082 204.978 83.8489C203.7 84.7814 202.077 85.3223 200.036 85.3223V91.3223ZM213.816 81.3457L221.016 61.5057L215.376 59.4589L208.176 79.2989L213.816 81.3457ZM218.196 63.4823H226.196V57.4823H218.196V63.4823ZM223.378 59.454L219.058 71.294L224.695 73.3506L229.015 61.5105L223.378 59.454ZM219.055 71.3023C217.076 76.7748 216.643 81.9288 219.112 85.8274C221.643 89.8239 226.446 91.3223 232.036 91.3223V85.3223C227.227 85.3223 225.07 84.0207 224.181 82.6171C223.23 81.1158 222.916 78.2697 224.698 73.3423L219.055 71.3023ZM232.036 91.3223H240.036V85.3223H232.036V91.3223ZM240.036 91.3223C243.195 91.3223 246.093 90.4631 248.515 88.6956C250.926 86.9364 252.685 84.4101 253.811 81.3614L248.182 79.2831C247.388 81.4344 246.267 82.9082 244.978 83.8489C243.7 84.7814 242.077 85.3223 240.036 85.3223V91.3223ZM253.82 81.3359L256.06 75.0959L250.413 73.0687L248.173 79.3087L253.82 81.3359ZM256.051 75.1214C257.111 72.2506 257.535 69.0915 255.925 66.5338C254.253 63.8792 251.184 63.0823 248.196 63.0823V69.0823C250.409 69.0823 250.819 69.6854 250.848 69.7307C250.937 69.873 251.282 70.714 250.422 73.0431L256.051 75.1214ZM248.196 63.0823H235.396V69.0823H248.196V63.0823ZM235.396 63.0823C235.123 63.0823 235.088 63.0425 235.193 63.0838C235.33 63.1381 235.607 63.2961 235.824 63.6306C236.032 63.9518 236.045 64.22 236.045 64.2692C236.045 64.2995 236.042 64.178 236.151 63.8636L230.481 61.9009C230.022 63.2276 229.675 65.175 230.789 66.8939C231.96 68.7008 233.957 69.0823 235.396 69.0823V63.0823ZM236.133 63.915L237.013 61.515L231.38 59.4495L230.5 61.8495L236.133 63.915ZM234.196 63.4823H244.356V57.4823H234.196V63.4823ZM244.356 63.4823C249.965 63.4823 254.653 62.0326 258.578 58.5169C262.383 55.109 265.192 50.0008 267.654 43.273L262.019 41.2115C259.68 47.6037 257.29 51.6155 254.575 54.0476C251.98 56.3719 248.828 57.4823 244.356 57.4823V63.4823ZM267.657 43.2633C268.876 39.8964 269.692 36.893 269.977 34.2648C270.262 31.6433 270.046 29.146 268.925 27.0023C266.569 22.4956 261.315 21.3223 255.396 21.3223V27.3223C261.158 27.3223 262.984 28.5889 263.608 29.7822C263.977 30.4885 264.225 31.6563 264.013 33.6172C263.8 35.5715 263.157 38.0681 262.015 41.2212L267.657 43.2633ZM255.396 21.3223H205.796V27.3223H255.396V21.3223ZM205.796 21.3223C202.637 21.3223 199.74 22.1814 197.318 23.9489C194.907 25.7082 193.148 28.2344 192.022 31.2831L197.651 33.3614C198.445 31.2101 199.566 29.7364 200.855 28.7956C202.133 27.8631 203.755 27.3223 205.796 27.3223V21.3223ZM192.017 31.2978L174.577 79.2978L180.216 81.3467L197.656 33.3467L192.017 31.2978ZM174.582 79.2831C173.522 82.154 173.097 85.313 174.708 87.8707C176.379 90.5254 179.449 91.3223 182.436 91.3223V85.3223C180.224 85.3223 179.813 84.7192 179.785 84.6738C179.695 84.5315 179.351 83.6906 180.211 81.3614L174.582 79.2831ZM225.093 50.3141L230.133 36.5541L224.499 34.4905L219.459 48.2505L225.093 50.3141ZM230.151 36.5036C230.351 35.9273 230.591 35.6716 230.75 35.5541C230.9 35.4436 231.154 35.3223 231.636 35.3223V29.3223C230.039 29.3223 228.493 29.7609 227.182 30.7304C225.881 31.6929 225.002 33.0372 224.481 34.5409L230.151 36.5036ZM231.636 35.3223H233.236V29.3223H231.636V35.3223ZM233.236 35.3223C233.509 35.3223 233.544 35.362 233.44 35.3207C233.302 35.2664 233.026 35.1084 232.809 34.7739C232.601 34.4528 232.587 34.1845 232.588 34.1353C232.588 34.105 232.59 34.2265 232.481 34.5409L238.151 36.5036C238.61 35.1769 238.958 33.2296 237.844 31.5106C236.673 29.7037 234.675 29.3223 233.236 29.3223V35.3223ZM232.499 34.4905L227.459 48.2505L233.093 50.3141L238.133 36.5541L232.499 34.4905ZM227.441 48.3009C227.255 48.8386 227.015 49.0966 226.833 49.2277C226.653 49.3576 226.364 49.4823 225.876 49.4823V55.4823C227.469 55.4823 229.02 55.0469 230.339 54.0969C231.657 53.1479 232.577 51.8059 233.111 50.2636L227.441 48.3009ZM225.876 49.4823H224.276V55.4823H225.876V49.4823ZM224.276 49.4823C224.001 49.4823 223.981 49.4418 224.106 49.4922C224.271 49.5585 224.567 49.7387 224.786 50.0979C224.991 50.434 224.992 50.7018 224.992 50.7258C224.992 50.7354 224.996 50.595 225.111 50.2636L219.441 48.3009C219.001 49.5732 218.612 51.5009 219.666 53.2266C220.812 55.1011 222.844 55.4823 224.276 55.4823V49.4823ZM353.211 72.3223L350.394 71.2895L350.389 71.3023L353.211 72.3223ZM354.971 67.5223L352.156 66.4831L352.154 66.4895L354.971 67.5223ZM318.731 62.7223L321.562 63.7133L321.566 63.7036L318.731 62.7223ZM318.171 64.3223L320.971 65.3992L320.987 65.3565L321.002 65.3133L318.171 64.3223ZM321.371 67.5223L324.187 68.555L325.666 64.5223H321.371V67.5223ZM317.851 77.1223L315.034 76.0895L315.025 76.1151L315.016 76.1409L317.851 77.1223ZM309.851 77.1223L307.033 76.0927L307.024 76.1167L307.016 76.1409L309.851 77.1223ZM325.051 35.5223L327.868 36.5518L327.877 36.5278L327.886 36.5036L325.051 35.5223ZM333.051 35.5223L335.87 36.5475L335.878 36.5256L335.886 36.5036L333.051 35.5223ZM329.851 44.3223L332.665 45.3614L332.667 45.3544L332.67 45.3475L329.851 44.3223ZM363.451 44.3223L366.265 45.3614L366.268 45.3524L366.272 45.3433L363.451 44.3223ZM286.731 48.3223L283.912 47.2959L283.908 47.3061L286.731 48.3223ZM280.971 64.3223L283.79 65.3487L283.793 65.3384L280.971 64.3223ZM296.171 91.3223H331.371V85.3223H296.171V91.3223ZM331.371 91.3223C337.129 91.3223 342.288 89.7635 346.552 86.6434C350.806 83.5306 353.987 78.9985 356.032 73.3423L350.389 71.3023C348.674 76.046 346.135 79.5139 343.009 81.8012C339.893 84.081 336.012 85.3223 331.371 85.3223V91.3223ZM356.027 73.355L357.787 68.555L352.154 66.4895L350.394 71.2895L356.027 73.355ZM357.785 68.5614C358.853 65.6689 359.249 62.5017 357.602 59.9472C355.909 57.3194 352.841 56.5223 349.851 56.5223V62.5223C352.061 62.5223 352.512 63.1252 352.559 63.1974C352.653 63.3428 353.008 64.1756 352.156 66.4831L357.785 68.5614ZM349.851 56.5223H323.051V62.5223H349.851V56.5223ZM323.051 56.5223C321.453 56.5223 319.907 56.9609 318.597 57.9304C317.295 58.8929 316.416 60.2372 315.896 61.7409L321.566 63.7036C321.765 63.1273 322.006 62.8716 322.165 62.7541C322.314 62.6436 322.568 62.5223 323.051 62.5223V56.5223ZM315.899 61.7312L315.339 63.3312L321.002 65.3133L321.562 63.7133L315.899 61.7312ZM315.371 63.2453C314.864 64.563 314.441 66.5363 315.552 68.3007C316.715 70.1483 318.749 70.5223 320.171 70.5223V64.5223C319.897 64.5223 319.863 64.4822 319.972 64.5252C320.114 64.5812 320.405 64.7472 320.629 65.1038C320.846 65.4475 320.853 65.7357 320.852 65.7941C320.85 65.8326 320.85 65.7142 320.971 65.3992L315.371 63.2453ZM320.171 70.5223H321.371V64.5223H320.171V70.5223ZM318.554 66.4895L315.034 76.0895L320.667 78.155L324.187 68.555L318.554 66.4895ZM315.016 76.1409C314.816 76.7172 314.575 76.9729 314.417 77.0904C314.267 77.2009 314.013 77.3223 313.531 77.3223V83.3223C315.128 83.3223 316.674 82.8836 317.985 81.9141C319.286 80.9516 320.165 79.6073 320.686 78.1036L315.016 76.1409ZM313.531 77.3223H311.931V83.3223H313.531V77.3223ZM311.931 77.3223C311.658 77.3223 311.622 77.2825 311.727 77.3239C311.865 77.3781 312.141 77.5361 312.358 77.8706C312.566 78.1918 312.58 78.46 312.579 78.5092C312.579 78.5395 312.577 78.418 312.686 78.1036L307.016 76.1409C306.556 77.4676 306.209 79.415 307.323 81.134C308.494 82.9408 310.492 83.3223 311.931 83.3223V77.3223ZM312.668 78.1518L327.868 36.5518L322.233 34.4927L307.033 76.0927L312.668 78.1518ZM327.886 36.5036C328.085 35.9273 328.326 35.6716 328.485 35.5541C328.634 35.4436 328.888 35.3223 329.371 35.3223V29.3223C327.773 29.3223 326.227 29.7609 324.917 30.7304C323.615 31.6929 322.736 33.0372 322.216 34.5409L327.886 36.5036ZM329.371 35.3223H330.971V29.3223H329.371V35.3223ZM330.971 35.3223C331.243 35.3223 331.279 35.362 331.174 35.3207C331.036 35.2664 330.76 35.1084 330.543 34.7739C330.335 34.4528 330.322 34.1845 330.322 34.1353C330.322 34.105 330.325 34.2265 330.216 34.5409L335.886 36.5036C336.345 35.1769 336.692 33.2296 335.578 31.5106C334.407 29.7037 332.409 29.3223 330.971 29.3223V35.3223ZM330.231 34.497L327.031 43.297L332.67 45.3475L335.87 36.5475L330.231 34.497ZM327.036 43.2831C325.976 46.1539 325.552 49.313 327.162 51.8707C328.833 54.5254 331.903 55.3223 334.891 55.3223V49.3223C332.678 49.3223 332.268 48.7192 332.239 48.6738C332.15 48.5315 331.805 47.6906 332.665 45.3614L327.036 43.2831ZM334.891 55.3223H352.491V49.3223H334.891V55.3223ZM352.491 55.3223C355.65 55.3223 358.547 54.4631 360.969 52.6956C363.38 50.9364 365.139 48.4101 366.265 45.3614L360.636 43.2831C359.842 45.4344 358.721 46.9082 357.432 47.8489C356.154 48.7814 354.532 49.3223 352.491 49.3223V55.3223ZM366.272 45.3433C368.781 38.4107 368.843 32.0855 365.011 27.507C361.313 23.0868 354.787 21.3223 346.731 21.3223V27.3223C354.274 27.3223 358.469 29.0377 360.41 31.3575C362.219 33.519 362.84 37.1939 360.63 43.3012L366.272 45.3433ZM346.731 21.3223H319.531V27.3223H346.731V21.3223ZM319.531 21.3223C311.172 21.3223 303.754 23.5812 297.64 28.0504C291.537 32.512 286.917 39.0421 283.912 47.2959L289.55 49.3487C292.224 42.0024 296.204 36.5325 301.181 32.8941C306.148 29.2634 312.289 27.3223 319.531 27.3223V21.3223ZM283.908 47.3061L278.148 63.3061L283.793 65.3384L289.553 49.3384L283.908 47.3061ZM278.152 63.2959C275.213 71.3679 274.735 78.5235 278.055 83.7752C281.436 89.1244 287.981 91.3223 296.171 91.3223V85.3223C288.76 85.3223 284.865 83.3202 283.126 80.5693C281.326 77.721 281.049 72.8767 283.79 65.3487L278.152 63.2959ZM392.012 80.3223L394.826 81.3614L394.829 81.3529L394.832 81.3444L392.012 80.3223ZM398.332 62.8823V59.8823H396.228L395.511 61.8602L398.332 62.8823ZM406.332 62.8823L409.152 63.9044L410.61 59.8823H406.332V62.8823ZM400.012 80.3223L402.826 81.3614L402.829 81.3529L402.832 81.3444L400.012 80.3223ZM433.612 80.3223L436.426 81.3614L436.429 81.353L436.432 81.3447L433.612 80.3223ZM445.212 48.3223L442.393 47.2959L442.391 47.2999L445.212 48.3223ZM370.012 48.3223L367.193 47.2959L367.191 47.2999L370.012 48.3223ZM358.412 80.3223L361.226 81.3614L361.229 81.353L361.232 81.3447L358.412 80.3223ZM401.292 54.8823L398.472 53.857L397.009 57.8823H401.292V54.8823ZM408.332 35.5223L411.151 36.5475L411.159 36.5256L411.167 36.5036L408.332 35.5223ZM416.332 35.5223L419.151 36.5475L419.159 36.5256L419.167 36.5036L416.332 35.5223ZM409.292 54.8823V57.8823H411.393L412.111 55.9075L409.292 54.8823ZM363.452 91.3223H381.052V85.3223H363.452V91.3223ZM381.052 91.3223C384.211 91.3223 387.108 90.4631 389.53 88.6956C391.941 86.9364 393.7 84.4101 394.826 81.3614L389.198 79.2831C388.403 81.4344 387.283 82.9082 385.993 83.8489C384.716 84.7814 383.093 85.3223 381.052 85.3223V91.3223ZM394.832 81.3444L401.152 63.9044L395.511 61.8602L389.191 79.3002L394.832 81.3444ZM398.332 65.8823H406.332V59.8823H398.332V65.8823ZM403.511 61.8602L397.191 79.3002L402.832 81.3444L409.152 63.9044L403.511 61.8602ZM397.198 79.2831C396.138 82.154 395.713 85.313 397.323 87.8707C398.995 90.5254 402.065 91.3223 405.052 91.3223V85.3223C402.839 85.3223 402.429 84.7192 402.401 84.6738C402.311 84.5315 401.966 83.6906 402.826 81.3614L397.198 79.2831ZM405.052 91.3223H422.652V85.3223H405.052V91.3223ZM422.652 91.3223C425.811 91.3223 428.708 90.4631 431.13 88.6956C433.541 86.9364 435.3 84.4101 436.426 81.3614L430.798 79.2831C430.003 81.4344 428.883 82.9082 427.593 83.8489C426.316 84.7814 424.693 85.3223 422.652 85.3223V91.3223ZM436.432 81.3447L448.032 49.3447L442.391 47.2999L430.791 79.2999L436.432 81.3447ZM448.031 49.3487C450.97 41.2767 451.447 34.121 448.128 28.8693C444.747 23.5202 438.201 21.3223 430.012 21.3223V27.3223C437.422 27.3223 441.317 29.3244 443.056 32.0752C444.856 34.9235 445.134 39.7679 442.393 47.2959L448.031 49.3487ZM430.012 21.3223H402.812V27.3223H430.012V21.3223ZM402.812 21.3223C394.453 21.3223 387.035 23.5812 380.921 28.0504C374.818 32.512 370.198 39.0421 367.193 47.2959L372.831 49.3487C375.506 42.0024 379.485 36.5325 384.462 32.8941C389.429 29.2634 395.57 27.3223 402.812 27.3223V21.3223ZM367.191 47.2999L355.591 79.2999L361.232 81.3447L372.832 49.3447L367.191 47.2999ZM355.598 79.2831C354.538 82.154 354.113 85.313 355.723 87.8707C357.395 90.5254 360.465 91.3223 363.452 91.3223V85.3223C361.239 85.3223 360.829 84.7192 360.801 84.6738C360.711 84.5315 360.366 83.6906 361.226 81.3614L355.598 79.2831ZM404.111 55.9075L411.151 36.5475L405.512 34.497L398.472 53.857L404.111 55.9075ZM411.167 36.5036C411.366 35.9273 411.607 35.6716 411.766 35.5541C411.915 35.4436 412.169 35.3223 412.652 35.3223V29.3223C411.054 29.3223 409.508 29.7609 408.198 30.7304C406.897 31.6929 406.017 33.0372 405.497 34.5409L411.167 36.5036ZM412.652 35.3223H414.252V29.3223H412.652V35.3223ZM414.252 35.3223C414.525 35.3223 414.56 35.362 414.455 35.3207C414.318 35.2664 414.041 35.1084 413.824 34.7739C413.616 34.4528 413.603 34.1845 413.603 34.1353C413.603 34.105 413.606 34.2265 413.497 34.5409L419.167 36.5036C419.626 35.1769 419.973 33.2296 418.859 31.5106C417.688 29.7037 415.691 29.3223 414.252 29.3223V35.3223ZM413.512 34.497L406.472 53.857L412.111 55.9075L419.151 36.5475L413.512 34.497ZM409.292 51.8823H401.292V57.8823H409.292V51.8823ZM506.893 80.3223L509.707 81.3614L509.71 81.3539L509.713 81.3463L506.893 80.3223ZM512.413 65.1223L509.599 64.0831L509.596 64.0907L509.593 64.0982L512.413 65.1223ZM483.693 57.1223L480.875 56.0948L479.406 60.1223H483.693V57.1223ZM492.733 32.3223L489.919 31.2831L489.915 31.2948L492.733 32.3223ZM459.133 32.3223L456.319 31.2831L456.314 31.2961L459.133 32.3223ZM444.573 72.3223L441.754 71.2961L441.752 71.3023L444.573 72.3223ZM454.733 91.3223H495.933V85.3223H454.733V91.3223ZM495.933 91.3223C499.092 91.3223 501.989 90.4631 504.412 88.6956C506.822 86.9364 508.582 84.4101 509.707 81.3614L504.079 79.2831C503.285 81.4344 502.164 82.9082 500.875 83.8489C499.597 84.7814 497.974 85.3223 495.933 85.3223V91.3223ZM509.713 81.3463L515.233 66.1463L509.593 64.0982L504.073 79.2982L509.713 81.3463ZM515.227 66.1614C516.295 63.2689 516.691 60.1017 515.045 57.5472C513.351 54.9194 510.283 54.1223 507.293 54.1223V60.1223C509.503 60.1223 509.955 60.7252 510.001 60.7974C510.095 60.9428 510.451 61.7756 509.599 64.0831L515.227 66.1614ZM507.293 54.1223H483.693V60.1223H507.293V54.1223ZM486.512 58.1497L495.552 33.3497L489.915 31.2948L480.875 56.0948L486.512 58.1497ZM495.547 33.3614C496.607 30.4906 497.032 27.3315 495.422 24.7738C493.75 22.1192 490.68 21.3223 487.693 21.3223V27.3223C489.906 27.3223 490.316 27.9254 490.344 27.9707C490.434 28.113 490.779 28.9539 489.919 31.2831L495.547 33.3614ZM487.693 21.3223H470.093V27.3223H487.693V21.3223ZM470.093 21.3223C466.934 21.3223 464.037 22.1814 461.615 23.9489C459.204 25.7082 457.445 28.2344 456.319 31.2831L461.947 33.3614C462.742 31.2101 463.862 29.7364 465.152 28.7956C466.429 27.8631 468.052 27.3223 470.093 27.3223V21.3223ZM456.314 31.2961L441.754 71.2961L447.392 73.3484L461.952 33.3484L456.314 31.2961ZM441.752 71.3023C439.773 76.7748 439.34 81.9288 441.809 85.8274C444.34 89.8239 449.142 91.3223 454.733 91.3223V85.3223C449.924 85.3223 447.766 84.0207 446.878 82.6171C445.927 81.1158 445.613 78.2697 447.394 73.3423L441.752 71.3023ZM580.174 80.3223L582.989 81.3614L582.991 81.3539L582.994 81.3463L580.174 80.3223ZM585.694 65.1223L582.88 64.0831L582.877 64.0907L582.875 64.0982L585.694 65.1223ZM556.974 57.1223L554.156 56.0948L552.688 60.1223H556.974V57.1223ZM566.014 32.3223L563.2 31.2831L563.196 31.2948L566.014 32.3223ZM532.414 32.3223L529.6 31.2831L529.595 31.2961L532.414 32.3223ZM517.854 72.3223L515.035 71.2961L515.033 71.3023L517.854 72.3223ZM528.014 91.3223H569.214V85.3223H528.014V91.3223ZM569.214 91.3223C572.373 91.3223 575.271 90.4631 577.693 88.6956C580.104 86.9364 581.863 84.4101 582.989 81.3614L577.36 79.2831C576.566 81.4344 575.445 82.9082 574.156 83.8489C572.878 84.7814 571.255 85.3223 569.214 85.3223V91.3223ZM582.994 81.3463L588.514 66.1463L582.875 64.0982L577.355 79.2982L582.994 81.3463ZM588.509 66.1614C589.577 63.2689 589.972 60.1017 588.326 57.5472C586.633 54.9194 583.564 54.1223 580.574 54.1223V60.1223C582.784 60.1223 583.236 60.7252 583.283 60.7974C583.376 60.9428 583.732 61.7756 582.88 64.0831L588.509 66.1614ZM580.574 54.1223H556.974V60.1223H580.574V54.1223ZM559.793 58.1497L568.833 33.3497L563.196 31.2948L554.156 56.0948L559.793 58.1497ZM568.829 33.3614C569.889 30.4906 570.313 27.3315 568.703 24.7738C567.032 22.1192 563.962 21.3223 560.974 21.3223V27.3223C563.187 27.3223 563.597 27.9254 563.626 27.9707C563.715 28.113 564.06 28.9539 563.2 31.2831L568.829 33.3614ZM560.974 21.3223H543.374V27.3223H560.974V21.3223ZM543.374 21.3223C540.215 21.3223 537.318 22.1814 534.896 23.9489C532.485 25.7082 530.726 28.2344 529.6 31.2831L535.229 33.3614C536.023 31.2101 537.144 29.7364 538.433 28.7956C539.711 27.8631 541.333 27.3223 543.374 27.3223V21.3223ZM529.595 31.2961L515.035 71.2961L520.673 73.3484L535.233 33.3484L529.595 31.2961ZM515.033 71.3023C513.055 76.7748 512.621 81.9288 515.09 85.8274C517.621 89.8239 522.424 91.3223 528.014 91.3223V85.3223C523.205 85.3223 521.048 84.0207 520.159 82.6171C519.208 81.1158 518.894 78.2697 520.676 73.3423L515.033 71.3023ZM657.456 80.3223L660.27 81.3614L660.273 81.3539L660.275 81.3463L657.456 80.3223ZM662.976 65.1223L660.161 64.0831L660.159 64.0907L660.156 64.0982L662.976 65.1223ZM630.256 57.1223L627.436 56.097L625.973 60.1223H630.256V57.1223ZM633.456 48.3223V45.3223H631.354L630.636 47.297L633.456 48.3223ZM659.856 45.1223L662.656 46.1992L662.672 46.1565L662.687 46.1133L659.856 45.1223ZM660.416 43.5223L657.616 42.4453L657.599 42.488L657.584 42.5312L660.416 43.5223ZM636.416 40.3223L633.593 39.3061L632.147 43.3223H636.416V40.3223ZM639.296 32.3223V29.3223H637.187L636.473 31.3061L639.296 32.3223ZM672.896 29.1223L675.696 30.1992L675.712 30.1565L675.727 30.1133L672.896 29.1223ZM673.456 27.5223L676.287 28.5133L676.291 28.5036L673.456 27.5223ZM605.696 32.3223L602.881 31.2831L602.879 31.2905L602.876 31.2978L605.696 32.3223ZM588.256 80.3223L591.07 81.3614L591.073 81.3541L591.075 81.3467L588.256 80.3223ZM593.296 91.3223H646.496V85.3223H593.296V91.3223ZM646.496 91.3223C649.655 91.3223 652.552 90.4631 654.974 88.6956C657.385 86.9364 659.144 84.4101 660.27 81.3614L654.641 79.2831C653.847 81.4344 652.726 82.9082 651.437 83.8489C650.159 84.7814 648.537 85.3223 646.496 85.3223V91.3223ZM660.275 81.3463L665.795 66.1463L660.156 64.0982L654.636 79.2982L660.275 81.3463ZM665.79 66.1614C666.858 63.2689 667.254 60.1017 665.607 57.5472C663.914 54.9194 660.846 54.1223 657.856 54.1223V60.1223C660.066 60.1223 660.517 60.7252 660.564 60.7974C660.658 60.9428 661.013 61.7756 660.161 64.0831L665.79 66.1614ZM657.856 54.1223H630.256V60.1223H657.856V54.1223ZM633.075 58.1475L636.275 49.3475L630.636 47.297L627.436 56.097L633.075 58.1475ZM633.456 51.3223H655.456V45.3223H633.456V51.3223ZM655.456 51.3223C657.057 51.3223 658.594 50.8816 659.904 49.9256C661.199 48.9807 662.092 47.6654 662.656 46.1992L657.056 44.0453C656.82 44.6591 656.552 44.9438 656.367 45.0789C656.197 45.2029 655.934 45.3223 655.456 45.3223V51.3223ZM662.687 46.1133L663.247 44.5133L657.584 42.5312L657.024 44.1312L662.687 46.1133ZM663.216 44.5992C663.722 43.2815 664.145 41.3083 663.034 39.5438C661.871 37.6962 659.837 37.3223 658.416 37.3223V43.3223C658.69 43.3223 658.723 43.3623 658.614 43.3193C658.473 43.2633 658.181 43.0973 657.957 42.7407C657.741 42.397 657.733 42.1089 657.735 42.0505C657.736 42.0119 657.737 42.1304 657.616 42.4453L663.216 44.5992ZM658.416 37.3223H636.416V43.3223H658.416V37.3223ZM639.238 41.3384L642.118 33.3384L636.473 31.3061L633.593 39.3061L639.238 41.3384ZM639.296 35.3223H668.496V29.3223H639.296V35.3223ZM668.496 35.3223C670.098 35.3223 671.634 34.8816 672.944 33.9256C674.239 32.9807 675.132 31.6654 675.696 30.1992L670.096 28.0453C669.86 28.6591 669.592 28.9438 669.407 29.0789C669.237 29.2029 668.974 29.3223 668.496 29.3223V35.3223ZM675.727 30.1133L676.287 28.5133L670.624 26.5312L670.064 28.1312L675.727 30.1133ZM676.291 28.5036C676.731 27.2313 677.12 25.3036 676.065 23.5779C674.92 21.7034 672.888 21.3223 671.456 21.3223V27.3223C671.731 27.3223 671.751 27.3627 671.626 27.3124C671.461 27.246 671.165 27.0659 670.946 26.7066C670.74 26.3706 670.74 26.1028 670.74 26.0787C670.74 26.0691 670.735 26.2095 670.621 26.5409L676.291 28.5036ZM671.456 21.3223H616.656V27.3223H671.456V21.3223ZM616.656 21.3223C613.497 21.3223 610.599 22.1814 608.177 23.9489C605.766 25.7082 604.007 28.2344 602.881 31.2831L608.51 33.3614C609.304 31.2101 610.425 29.7364 611.714 28.7956C612.992 27.8631 614.615 27.3223 616.656 27.3223V21.3223ZM602.876 31.2978L585.436 79.2978L591.075 81.3467L608.515 33.3467L602.876 31.2978ZM585.441 79.2831C584.381 82.154 583.957 85.313 585.567 87.8707C587.238 90.5254 590.308 91.3223 593.296 91.3223V85.3223C591.083 85.3223 590.673 84.7192 590.644 84.6738C590.555 84.5315 590.21 83.6906 591.07 81.3614L585.441 79.2831ZM699.121 80.3223L701.936 81.3614L701.938 81.3535L701.941 81.3457L699.121 80.3223ZM706.321 60.4823V57.4823H704.219L703.501 59.4589L706.321 60.4823ZM714.321 60.4823L717.14 61.5105L718.609 57.4823H714.321V60.4823ZM710.001 72.3223L707.183 71.294L707.18 71.3023L710.001 72.3223ZM739.121 80.3223L741.936 81.3614L741.94 81.3486L741.945 81.3359L739.121 80.3223ZM741.361 74.0823L738.547 73.0431L738.542 73.0559L738.538 73.0687L741.361 74.0823ZM721.441 62.8823L718.625 61.8495L718.615 61.8751L718.606 61.9009L721.441 62.8823ZM722.321 60.4823V57.4823H720.226L719.505 59.4495L722.321 60.4823ZM752.961 42.2423L755.779 43.273L755.782 43.2633L752.961 42.2423ZM682.961 32.3223L680.147 31.2831L680.144 31.2905L680.142 31.2978L682.961 32.3223ZM665.521 80.3223L668.336 81.3614L668.338 81.3541L668.341 81.3467L665.521 80.3223ZM710.401 49.2823L707.584 48.2505L707.575 48.2756L707.566 48.3009L710.401 49.2823ZM715.441 35.5223L718.258 36.5541L718.267 36.5289L718.276 36.5036L715.441 35.5223ZM723.441 35.5223L726.258 36.5541L726.267 36.5289L726.276 36.5036L723.441 35.5223ZM718.401 49.2823L715.584 48.2505L715.575 48.2756L715.566 48.3009L718.401 49.2823ZM670.561 91.3223H688.161V85.3223H670.561V91.3223ZM688.161 91.3223C691.32 91.3223 694.218 90.4631 696.64 88.6956C699.051 86.9364 700.81 84.4101 701.936 81.3614L696.307 79.2831C695.513 81.4344 694.392 82.9082 693.103 83.8489C691.825 84.7814 690.202 85.3223 688.161 85.3223V91.3223ZM701.941 81.3457L709.141 61.5057L703.501 59.4589L696.301 79.2989L701.941 81.3457ZM706.321 63.4823H714.321V57.4823H706.321V63.4823ZM711.503 59.454L707.183 71.294L712.82 73.3506L717.14 61.5105L711.503 59.454ZM707.18 71.3023C705.201 76.7748 704.768 81.9288 707.237 85.8274C709.768 89.8239 714.571 91.3223 720.161 91.3223V85.3223C715.352 85.3223 713.195 84.0207 712.306 82.6171C711.355 81.1158 711.041 78.2697 712.823 73.3423L707.18 71.3023ZM720.161 91.3223H728.161V85.3223H720.161V91.3223ZM728.161 91.3223C731.32 91.3223 734.218 90.4631 736.64 88.6956C739.051 86.9364 740.81 84.4101 741.936 81.3614L736.307 79.2831C735.513 81.4344 734.392 82.9082 733.103 83.8489C731.825 84.7814 730.202 85.3223 728.161 85.3223V91.3223ZM741.945 81.3359L744.185 75.0959L738.538 73.0687L736.298 79.3087L741.945 81.3359ZM744.176 75.1214C745.236 72.2506 745.66 69.0915 744.05 66.5338C742.378 63.8792 739.309 63.0823 736.321 63.0823V69.0823C738.534 69.0823 738.944 69.6854 738.973 69.7307C739.062 69.873 739.407 70.714 738.547 73.0431L744.176 75.1214ZM736.321 63.0823H723.521V69.0823H736.321V63.0823ZM723.521 63.0823C723.248 63.0823 723.213 63.0425 723.318 63.0838C723.455 63.1381 723.732 63.2961 723.949 63.6306C724.157 63.9518 724.17 64.22 724.17 64.2692C724.17 64.2995 724.167 64.178 724.276 63.8636L718.606 61.9009C718.147 63.2276 717.8 65.175 718.914 66.8939C720.085 68.7008 722.082 69.0823 723.521 69.0823V63.0823ZM724.258 63.915L725.138 61.515L719.505 59.4495L718.625 61.8495L724.258 63.915ZM722.321 63.4823H732.481V57.4823H722.321V63.4823ZM732.481 63.4823C738.09 63.4823 742.778 62.0326 746.703 58.5169C750.508 55.109 753.317 50.0008 755.779 43.273L750.144 41.2115C747.805 47.6037 745.415 51.6155 742.7 54.0476C740.105 56.3719 736.953 57.4823 732.481 57.4823V63.4823ZM755.782 43.2633C757.001 39.8964 757.817 36.893 758.102 34.2648C758.387 31.6433 758.171 29.146 757.05 27.0023C754.694 22.4956 749.44 21.3223 743.521 21.3223V27.3223C749.283 27.3223 751.109 28.5889 751.733 29.7822C752.102 30.4885 752.35 31.6563 752.138 33.6172C751.925 35.5715 751.282 38.0681 750.14 41.2212L755.782 43.2633ZM743.521 21.3223H693.921V27.3223H743.521V21.3223ZM693.921 21.3223C690.762 21.3223 687.865 22.1814 685.443 23.9489C683.032 25.7082 681.273 28.2344 680.147 31.2831L685.776 33.3614C686.57 31.2101 687.691 29.7364 688.98 28.7956C690.258 27.8631 691.88 27.3223 693.921 27.3223V21.3223ZM680.142 31.2978L662.702 79.2978L668.341 81.3467L685.781 33.3467L680.142 31.2978ZM662.707 79.2831C661.647 82.154 661.222 85.313 662.833 87.8707C664.504 90.5254 667.574 91.3223 670.561 91.3223V85.3223C668.349 85.3223 667.938 84.7192 667.91 84.6738C667.82 84.5315 667.476 83.6906 668.336 81.3614L662.707 79.2831ZM713.218 50.3141L718.258 36.5541L712.624 34.4905L707.584 48.2505L713.218 50.3141ZM718.276 36.5036C718.476 35.9273 718.716 35.6716 718.875 35.5541C719.025 35.4436 719.279 35.3223 719.761 35.3223V29.3223C718.164 29.3223 716.618 29.7609 715.307 30.7304C714.006 31.6929 713.127 33.0372 712.606 34.5409L718.276 36.5036ZM719.761 35.3223H721.361V29.3223H719.761V35.3223ZM721.361 35.3223C721.634 35.3223 721.669 35.362 721.565 35.3207C721.427 35.2664 721.151 35.1084 720.934 34.7739C720.726 34.4528 720.712 34.1845 720.713 34.1353C720.713 34.105 720.715 34.2265 720.606 34.5409L726.276 36.5036C726.735 35.1769 727.083 33.2296 725.969 31.5106C724.798 29.7037 722.8 29.3223 721.361 29.3223V35.3223ZM720.624 34.4905L715.584 48.2505L721.218 50.3141L726.258 36.5541L720.624 34.4905ZM715.566 48.3009C715.38 48.8386 715.14 49.0966 714.958 49.2277C714.778 49.3576 714.489 49.4823 714.001 49.4823V55.4823C715.594 55.4823 717.145 55.0469 718.464 54.0969C719.782 53.1479 720.702 51.8059 721.236 50.2636L715.566 48.3009ZM714.001 49.4823H712.401V55.4823H714.001V49.4823ZM712.401 49.4823C712.126 49.4823 712.106 49.4418 712.231 49.4922C712.396 49.5585 712.692 49.7387 712.911 50.0979C713.116 50.434 713.117 50.7018 713.117 50.7258C713.117 50.7354 713.121 50.595 713.236 50.2636L707.566 48.3009C707.126 49.5732 706.737 51.5009 707.791 53.2266C708.937 55.1011 710.969 55.4823 712.401 55.4823V49.4823ZM800.84 80.3223L803.654 81.3614L803.657 81.3544L803.659 81.3475L800.84 80.3223ZM804.36 70.6423L804.193 67.6469L802.217 67.7573L801.541 69.617L804.36 70.6423ZM834.68 46.7223L837.496 47.7573L837.499 47.7492L837.502 47.7412L834.68 46.7223ZM839.88 32.3223L837.066 31.2831L837.062 31.2932L837.058 31.3033L839.88 32.3223ZM806.28 32.3223L803.466 31.2831L803.462 31.2944L806.28 32.3223ZM796.36 59.5223L793.542 58.4944L793.533 58.5176L793.525 58.5409L796.36 59.5223ZM788.36 59.5223L785.542 58.4944L785.533 58.5176L785.525 58.5409L788.36 59.5223ZM798.28 32.3223L795.466 31.2831L795.462 31.2944L798.28 32.3223ZM764.68 32.3223L761.866 31.2831L761.862 31.2932L761.858 31.3033L764.68 32.3223ZM759.48 46.7223L762.296 47.7573L762.299 47.7492L762.302 47.7412L759.48 46.7223ZM772.36 70.6423L775.179 71.6675L776.557 67.8798L772.533 67.6473L772.36 70.6423ZM768.84 80.3223L771.654 81.3614L771.657 81.3544L771.659 81.3475L768.84 80.3223ZM773.88 91.3223H789.88V85.3223H773.88V91.3223ZM789.88 91.3223C793.039 91.3223 795.936 90.4631 798.358 88.6956C800.769 86.9364 802.529 84.4101 803.654 81.3614L798.026 79.2831C797.231 81.4344 796.111 82.9082 794.822 83.8489C793.544 84.7814 791.921 85.3223 789.88 85.3223V91.3223ZM803.659 81.3475L807.179 71.6675L801.541 69.617L798.021 79.297L803.659 81.3475ZM804.527 73.6376C820.185 72.7629 831.695 63.5398 837.496 47.7573L831.864 45.6873C826.785 59.5047 817.175 66.9217 804.193 67.6469L804.527 73.6376ZM837.502 47.7412L842.702 33.3412L837.058 31.3033L831.858 45.7033L837.502 47.7412ZM842.694 33.3614C843.754 30.4906 844.179 27.3315 842.569 24.7738C840.897 22.1192 837.827 21.3223 834.84 21.3223V27.3223C837.053 27.3223 837.463 27.9254 837.491 27.9707C837.581 28.113 837.926 28.9539 837.066 31.2831L842.694 33.3614ZM834.84 21.3223H817.24V27.3223H834.84V21.3223ZM817.24 21.3223C814.081 21.3223 811.184 22.1814 808.762 23.9489C806.351 25.7082 804.591 28.2344 803.466 31.2831L809.094 33.3614C809.889 31.2101 811.009 29.7364 812.298 28.7956C813.576 27.8631 815.199 27.3223 817.24 27.3223V21.3223ZM803.462 31.2944L793.542 58.4944L799.178 60.5502L809.098 33.3502L803.462 31.2944ZM793.525 58.5409C793.326 59.1172 793.085 59.3729 792.926 59.4904C792.777 59.6009 792.522 59.7223 792.04 59.7223V65.7223C793.638 65.7223 795.183 65.2836 796.494 64.3141C797.795 63.3516 798.674 62.0073 799.195 60.5036L793.525 58.5409ZM792.04 59.7223H790.44V65.7223H792.04V59.7223ZM790.44 59.7223C790.167 59.7223 790.132 59.6825 790.237 59.7238C790.374 59.7781 790.651 59.9361 790.867 60.2706C791.076 60.5918 791.089 60.86 791.089 60.9092C791.089 60.9395 791.086 60.818 791.195 60.5036L785.525 58.5409C785.066 59.8676 784.718 61.815 785.833 63.534C787.004 65.3408 789.001 65.7223 790.44 65.7223V59.7223ZM791.178 60.5502L801.098 33.3502L795.462 31.2944L785.542 58.4944L791.178 60.5502ZM801.094 33.3614C802.154 30.4906 802.579 27.3315 800.969 24.7738C799.297 22.1192 796.227 21.3223 793.24 21.3223V27.3223C795.453 27.3223 795.863 27.9254 795.891 27.9707C795.981 28.113 796.326 28.9539 795.466 31.2831L801.094 33.3614ZM793.24 21.3223H775.64V27.3223H793.24V21.3223ZM775.64 21.3223C772.481 21.3223 769.584 22.1814 767.162 23.9489C764.751 25.7082 762.991 28.2344 761.866 31.2831L767.494 33.3614C768.289 31.2101 769.409 29.7364 770.698 28.7956C771.976 27.8631 773.599 27.3223 775.64 27.3223V21.3223ZM761.858 31.3033L756.658 45.7033L762.302 47.7412L767.502 33.3412L761.858 31.3033ZM756.664 45.6873C753.845 53.3575 753.262 60.1799 756.049 65.3546C758.927 70.6997 764.776 73.2089 772.187 73.6373L772.533 67.6473C766.104 67.2756 762.793 65.2248 761.331 62.51C759.778 59.6246 759.675 54.887 762.296 47.7573L756.664 45.6873ZM769.541 69.617L766.021 79.297L771.659 81.3475L775.179 71.6675L769.541 69.617ZM766.026 79.2831C764.966 82.154 764.541 85.313 766.151 87.8707C767.823 90.5254 770.893 91.3223 773.88 91.3223V85.3223C771.667 85.3223 771.257 84.7192 771.229 84.6738C771.139 84.5315 770.794 83.6906 771.654 81.3614L766.026 79.2831Z" fill="black"/>
<path d="M38.96 67.8L54.16 26.2C54.88 24.12 56.4 23 58.48 23H60.08C62.16 23 62.88 24.12 62.16 26.2L46.96 67.8C46.24 69.88 44.72 71 42.64 71H41.04C38.96 71 38.24 69.88 38.96 67.8ZM10.08 55C4.4 70.6 9.68 79 25.28 79H52.48C68.08 79 79.6 70.6 85.28 55L91.04 39C96.72 23.4 91.44 15 75.84 15H48.64C33.04 15 21.52 23.4 15.84 39L10.08 55ZM133.521 15H115.921C110.721 15 106.881 17.8 104.961 23L90.4013 63C86.6413 73.4 90.1613 79 100.561 79H143.761C154.161 79 161.841 73.4 165.601 63L180.161 23C182.081 17.8 180.321 15 175.121 15H157.521C152.321 15 148.481 17.8 146.561 23L130.241 67.8C129.521 69.88 128.001 71 125.921 71H124.321C122.241 71 121.521 69.88 122.241 67.8L138.561 23C140.481 17.8 138.721 15 133.521 15ZM175.764 79H193.364C198.564 79 202.404 76.2 204.324 71L211.524 51.16H219.524L215.204 63C211.444 73.4 214.964 79 225.364 79H233.364C238.564 79 242.404 76.2 244.324 71L246.564 64.76C248.484 59.56 246.724 56.76 241.524 56.76H228.724C226.644 56.76 225.924 55.64 226.644 53.56L227.524 51.16H237.684C247.764 51.16 253.364 46.04 258.164 32.92C262.884 19.88 260.404 15 248.724 15H199.124C193.924 15 190.084 17.8 188.164 23L170.724 71C168.804 76.2 170.564 79 175.764 79ZM215.604 39.96L220.644 26.2C221.364 24.12 222.884 23 224.964 23H226.564C228.644 23 229.364 24.12 228.644 26.2L223.604 39.96C222.884 42.04 221.284 43.16 219.204 43.16H217.604C215.524 43.16 214.884 42.04 215.604 39.96ZM289.499 79H324.699C335.099 79 342.779 73.4 346.539 63L348.299 58.2C350.219 53 348.379 50.2 343.179 50.2H316.379C314.299 50.2 312.779 51.32 312.059 53.4L311.499 55C310.699 57.08 311.419 58.2 313.499 58.2H314.699L311.179 67.8C310.459 69.88 308.939 71 306.859 71H305.259C303.179 71 302.459 69.88 303.179 67.8L318.379 26.2C319.099 24.12 320.619 23 322.699 23H324.299C326.379 23 327.099 24.12 326.379 26.2L323.179 35C321.259 40.2 323.019 43 328.219 43H345.819C351.019 43 354.859 40.2 356.779 35C361.499 21.96 355.659 15 340.059 15H312.859C297.259 15 285.739 23.4 280.059 39L274.299 55C268.619 70.6 273.899 79 289.499 79ZM356.78 79H374.38C379.58 79 383.42 76.2 385.34 71L391.66 53.56H399.66L393.34 71C391.42 76.2 393.18 79 398.38 79H415.98C421.18 79 425.02 76.2 426.94 71L438.54 39C444.22 23.4 438.94 15 423.34 15H396.14C380.54 15 369.02 23.4 363.34 39L351.74 71C349.82 76.2 351.58 79 356.78 79ZM394.62 45.56L401.66 26.2C402.38 24.12 403.9 23 405.98 23H407.58C409.66 23 410.38 24.12 409.66 26.2L402.62 45.56H394.62ZM448.061 79H489.261C494.461 79 498.301 76.2 500.221 71L505.741 55.8C507.661 50.6 505.821 47.8 500.621 47.8H477.021L486.061 23C487.981 17.8 486.221 15 481.021 15H463.421C458.221 15 454.381 17.8 452.461 23L437.901 63C434.141 73.4 437.661 79 448.061 79ZM521.343 79H562.543C567.743 79 571.583 76.2 573.503 71L579.023 55.8C580.943 50.6 579.103 47.8 573.903 47.8H550.303L559.343 23C561.263 17.8 559.503 15 554.303 15H536.703C531.503 15 527.663 17.8 525.743 23L511.183 63C507.423 73.4 510.943 79 521.343 79ZM586.624 79H639.824C645.024 79 648.864 76.2 650.784 71L656.304 55.8C658.224 50.6 656.384 47.8 651.184 47.8H623.584L626.784 39H648.784C650.864 39 652.384 37.88 653.184 35.8L653.744 34.2C654.544 32.12 653.824 31 651.744 31H629.744L632.624 23H661.824C663.904 23 665.424 21.88 666.224 19.8L666.784 18.2C667.504 16.12 666.864 15 664.784 15H609.984C604.784 15 600.944 17.8 599.024 23L581.584 71C579.664 76.2 581.424 79 586.624 79ZM663.889 79H681.489C686.689 79 690.529 76.2 692.449 71L699.649 51.16H707.649L703.329 63C699.569 73.4 703.089 79 713.489 79H721.489C726.689 79 730.529 76.2 732.449 71L734.689 64.76C736.609 59.56 734.849 56.76 729.649 56.76H716.849C714.769 56.76 714.049 55.64 714.769 53.56L715.649 51.16H725.809C735.889 51.16 741.489 46.04 746.289 32.92C751.009 19.88 748.529 15 736.849 15H687.249C682.049 15 678.209 17.8 676.289 23L658.849 71C656.929 76.2 658.689 79 663.889 79ZM703.729 39.96L708.769 26.2C709.489 24.12 711.009 23 713.089 23H714.689C716.769 23 717.489 24.12 716.769 26.2L711.729 39.96C711.009 42.04 709.409 43.16 707.329 43.16H705.729C703.649 43.16 703.009 42.04 703.729 39.96ZM767.208 79H783.208C788.408 79 792.248 76.2 794.168 71L797.688 61.32C812.008 60.52 822.568 52.2 828.008 37.4L833.208 23C835.128 17.8 833.368 15 828.168 15H810.568C805.368 15 801.528 17.8 799.608 23L789.688 50.2C788.968 52.28 787.448 53.4 785.368 53.4H783.768C781.688 53.4 780.968 52.28 781.688 50.2L791.608 23C793.528 17.8 791.768 15 786.568 15H768.968C763.768 15 759.928 17.8 758.008 23L752.808 37.4C747.368 52.2 751.848 60.52 765.688 61.32L762.168 71C760.248 76.2 762.008 79 767.208 79Z" fill="white"/>
<path d="M38.96 67.8L36.1422 66.7704L36.1334 66.7945L36.125 66.8187L38.96 67.8ZM54.16 26.2L56.9778 27.2296L56.9866 27.2055L56.995 27.1813L54.16 26.2ZM62.16 26.2L64.9778 27.2296L64.9866 27.2055L64.995 27.1813L62.16 26.2ZM46.96 67.8L44.1422 66.7704L44.1334 66.7945L44.125 66.8187L46.96 67.8ZM10.08 55L12.899 56.0264L12.9027 56.0162L10.08 55ZM85.28 55L88.099 56.0264L88.1027 56.0162L85.28 55ZM91.04 39L88.221 37.9736L88.2173 37.9838L91.04 39ZM15.84 39L13.021 37.9736L13.0173 37.9838L15.84 39ZM41.7778 68.8296L56.9778 27.2296L51.3422 25.1704L36.1422 66.7704L41.7778 68.8296ZM56.995 27.1813C57.1944 26.6051 57.4352 26.3494 57.5941 26.2318C57.7435 26.1214 57.9975 26 58.48 26V20C56.8825 20 55.3365 20.4386 54.0259 21.4082C52.7248 22.3706 51.8456 23.7149 51.325 25.2187L56.995 27.1813ZM58.48 26H60.08V20H58.48V26ZM60.08 26C60.3528 26 60.3881 26.0397 60.2834 25.9984C60.1458 25.9442 59.8693 25.7862 59.6525 25.4517C59.4444 25.1305 59.4311 24.8622 59.4313 24.8131C59.4314 24.7828 59.4339 24.9042 59.325 25.2187L64.995 27.1813C65.4542 25.8546 65.8016 23.9073 64.6875 22.1883C63.5164 20.3815 61.5188 20 60.08 20V26ZM59.3422 25.1704L44.1422 66.7704L49.7778 68.8296L64.9778 27.2296L59.3422 25.1704ZM44.125 66.8187C43.9256 67.3949 43.6848 67.6506 43.5259 67.7682C43.3765 67.8786 43.1225 68 42.64 68V74C44.2375 74 45.7835 73.5614 47.0941 72.5918C48.3952 71.6294 49.2744 70.2851 49.795 68.7813L44.125 66.8187ZM42.64 68H41.04V74H42.64V68ZM41.04 68C40.7672 68 40.7319 67.9603 40.8366 68.0016C40.9742 68.0558 41.2507 68.2138 41.4675 68.5483C41.6756 68.8695 41.6889 69.1378 41.6887 69.1869C41.6886 69.2172 41.6861 69.0958 41.795 68.7813L36.125 66.8187C35.6658 68.1454 35.3184 70.0927 36.4325 71.8117C37.6037 73.6185 39.6012 74 41.04 74V68ZM7.26104 53.9736C4.32201 62.0456 3.84455 69.2012 7.16413 74.4529C10.5453 79.8021 17.0904 82 25.28 82V76C17.8696 76 13.9747 73.9979 12.2359 71.2471C10.4354 68.3988 10.158 63.5544 12.899 56.0264L7.26104 53.9736ZM25.28 82H52.48V76H25.28V82ZM52.48 82C60.8385 82 68.257 79.7411 74.3705 75.2719C80.4735 70.8103 85.0937 64.2801 88.099 56.0264L82.461 53.9736C79.7863 61.3199 75.8065 66.7897 70.8295 70.4281C65.863 74.0589 59.7215 76 52.48 76V82ZM88.1027 56.0162L93.8627 40.0162L88.2173 37.9838L82.4573 53.9838L88.1027 56.0162ZM93.859 40.0264C96.798 31.9544 97.2755 24.7987 93.9559 19.5471C90.5747 14.1979 84.0296 12 75.84 12V18C83.2504 18 87.1453 20.0021 88.8841 22.7529C90.6846 25.6012 90.962 30.4456 88.221 37.9736L93.859 40.0264ZM75.84 12H48.64V18H75.84V12ZM48.64 12C40.2815 12 32.863 14.2589 26.7495 18.7281C20.6465 23.1897 16.0263 29.7199 13.021 37.9736L18.659 40.0264C21.3337 32.6801 25.3135 27.2103 30.2905 23.5719C35.257 19.9411 41.3985 18 48.64 18V12ZM13.0173 37.9838L7.25734 53.9838L12.9027 56.0162L18.6627 40.0162L13.0173 37.9838ZM104.961 23L102.147 21.9609L102.142 21.9739L104.961 23ZM90.4013 63L87.5822 61.9739L87.58 61.98L90.4013 63ZM165.601 63L162.782 61.9739L162.78 61.98L165.601 63ZM180.161 23L177.347 21.9609L177.342 21.9739L180.161 23ZM146.561 23L143.747 21.9609L143.742 21.9732L146.561 23ZM130.241 67.8L127.422 66.7732L127.414 66.7958L127.406 66.8187L130.241 67.8ZM122.241 67.8L119.422 66.7732L119.414 66.7958L119.406 66.8187L122.241 67.8ZM138.561 23L135.747 21.9609L135.742 21.9732L138.561 23ZM133.521 12H115.921V18H133.521V12ZM115.921 12C112.762 12 109.865 12.8592 107.443 14.6266C105.032 16.3859 103.273 18.9122 102.147 21.9609L107.776 24.0391C108.57 21.8878 109.691 20.4141 110.98 19.4734C112.258 18.5408 113.88 18 115.921 18V12ZM102.142 21.9739L87.5822 61.9739L93.2203 64.0261L107.78 24.0261L102.142 21.9739ZM87.58 61.98C85.6014 67.4526 85.1676 72.6065 87.6368 76.5052C90.1679 80.5016 94.9705 82 100.561 82V76C95.752 76 93.5946 74.6984 92.7057 73.2948C91.7549 71.7935 91.4411 68.9474 93.2225 64.02L87.58 61.98ZM100.561 82H143.761V76H100.561V82ZM143.761 82C149.519 82 154.679 80.4412 158.943 77.3211C163.197 74.2083 166.378 69.6763 168.423 64.02L162.78 61.98C161.065 66.7237 158.526 70.1917 155.4 72.4789C152.284 74.7588 148.403 76 143.761 76V82ZM168.42 64.0261L182.98 24.0261L177.342 21.9739L162.782 61.9739L168.42 64.0261ZM182.976 24.0391C184.036 21.1683 184.46 18.0093 182.85 15.4516C181.178 12.7969 178.109 12 175.121 12V18C177.334 18 177.744 18.6031 177.773 18.6484C177.862 18.7907 178.207 19.6317 177.347 21.9609L182.976 24.0391ZM175.121 12H157.521V18H175.121V12ZM157.521 12C154.362 12 151.465 12.8592 149.043 14.6266C146.632 16.3859 144.873 18.9122 143.747 21.9609L149.376 24.0391C150.17 21.8878 151.291 20.4141 152.58 19.4734C153.858 18.5408 155.48 18 157.521 18V12ZM143.742 21.9732L127.422 66.7732L133.06 68.8268L149.38 24.0268L143.742 21.9732ZM127.406 66.8187C127.207 67.3949 126.966 67.6506 126.807 67.7682C126.658 67.8786 126.404 68 125.921 68V74C127.519 74 129.065 73.5614 130.375 72.5918C131.676 71.6294 132.556 70.2851 133.076 68.7813L127.406 66.8187ZM125.921 68H124.321V74H125.921V68ZM124.321 68C124.048 68 124.013 67.9603 124.118 68.0016C124.255 68.0558 124.532 68.2138 124.749 68.5483C124.957 68.8695 124.97 69.1378 124.97 69.1869C124.97 69.2172 124.967 69.0958 125.076 68.7813L119.406 66.8187C118.947 68.1454 118.6 70.0927 119.714 71.8117C120.885 73.6185 122.882 74 124.321 74V68ZM125.06 68.8268L141.38 24.0268L135.742 21.9732L119.422 66.7732L125.06 68.8268ZM141.376 24.0391C142.436 21.1683 142.86 18.0093 141.25 15.4516C139.578 12.7969 136.509 12 133.521 12V18C135.734 18 136.144 18.6031 136.173 18.6484C136.262 18.7907 136.607 19.6317 135.747 21.9609L141.376 24.0391ZM204.324 71L207.139 72.0391L207.142 72.0313L207.144 72.0234L204.324 71ZM211.524 51.16V48.16H209.422L208.704 50.1366L211.524 51.16ZM219.524 51.16L222.343 52.1883L223.812 48.16H219.524V51.16ZM215.204 63L212.386 61.9717L212.383 61.98L215.204 63ZM244.324 71L247.139 72.0391L247.143 72.0264L247.148 72.0136L244.324 71ZM246.564 64.76L243.75 63.7209L243.745 63.7336L243.741 63.7464L246.564 64.76ZM226.644 53.56L223.828 52.5272L223.818 52.5529L223.809 52.5787L226.644 53.56ZM227.524 51.16V48.16H225.429L224.708 50.1272L227.524 51.16ZM258.164 32.92L260.982 33.9507L260.985 33.9411L258.164 32.92ZM188.164 23L185.35 21.9609L185.347 21.9682L185.345 21.9755L188.164 23ZM170.724 71L173.539 72.0391L173.541 72.0318L173.544 72.0245L170.724 71ZM215.604 39.96L212.787 38.9282L212.778 38.9534L212.769 38.9787L215.604 39.96ZM220.644 26.2L223.461 27.2318L223.471 27.2066L223.479 27.1813L220.644 26.2ZM228.644 26.2L231.461 27.2318L231.471 27.2066L231.479 27.1813L228.644 26.2ZM223.604 39.96L220.787 38.9282L220.778 38.9534L220.769 38.9787L223.604 39.96ZM175.764 82H193.364V76H175.764V82ZM193.364 82C196.523 82 199.421 81.1408 201.843 79.3734C204.254 77.6141 206.013 75.0878 207.139 72.0391L201.51 69.9609C200.716 72.1122 199.595 73.5859 198.306 74.5266C197.028 75.4592 195.405 76 193.364 76V82ZM207.144 72.0234L214.344 52.1834L208.704 50.1366L201.504 69.9766L207.144 72.0234ZM211.524 54.16H219.524V48.16H211.524V54.16ZM216.706 50.1317L212.386 61.9717L218.023 64.0283L222.343 52.1883L216.706 50.1317ZM212.383 61.98C210.405 67.4526 209.971 72.6065 212.44 76.5052C214.971 80.5016 219.774 82 225.364 82V76C220.555 76 218.398 74.6984 217.509 73.2948C216.558 71.7935 216.244 68.9474 218.026 64.02L212.383 61.98ZM225.364 82H233.364V76H225.364V82ZM233.364 82C236.523 82 239.421 81.1408 241.843 79.3734C244.254 77.6141 246.013 75.0878 247.139 72.0391L241.51 69.9609C240.716 72.1122 239.595 73.5859 238.306 74.5266C237.028 75.4592 235.405 76 233.364 76V82ZM247.148 72.0136L249.388 65.7736L243.741 63.7464L241.501 69.9864L247.148 72.0136ZM249.379 65.7991C250.439 62.9283 250.863 59.7693 249.253 57.2116C247.582 54.5569 244.512 53.76 241.524 53.76V59.76C243.737 59.76 244.147 60.3631 244.176 60.4084C244.265 60.5507 244.61 61.3917 243.75 63.7209L249.379 65.7991ZM241.524 53.76H228.724V59.76H241.524V53.76ZM228.724 53.76C228.452 53.76 228.416 53.7203 228.521 53.7616C228.659 53.8158 228.935 53.9738 229.152 54.3083C229.36 54.6295 229.373 54.8978 229.373 54.9469C229.373 54.9772 229.37 54.8558 229.479 54.5413L223.809 52.5787C223.35 53.9054 223.003 55.8527 224.117 57.5717C225.288 59.3785 227.286 59.76 228.724 59.76V53.76ZM229.461 54.5928L230.341 52.1928L224.708 50.1272L223.828 52.5272L229.461 54.5928ZM227.524 54.16H237.684V48.16H227.524V54.16ZM237.684 54.16C243.293 54.16 247.981 52.7104 251.906 49.1946C255.711 45.7867 258.52 40.6785 260.982 33.9507L255.347 31.8893C253.008 38.2815 250.618 42.2933 247.903 44.7253C245.308 47.0496 242.156 48.16 237.684 48.16V54.16ZM260.985 33.9411C262.204 30.5741 263.02 27.5708 263.306 24.9425C263.59 22.321 263.374 19.8238 262.253 17.6801C259.897 13.1734 254.643 12 248.724 12V18C254.486 18 256.312 19.2666 256.936 20.4599C257.305 21.1662 257.554 22.334 257.341 24.295C257.128 26.2492 256.485 28.7459 255.343 31.8989L260.985 33.9411ZM248.724 12H199.124V18H248.724V12ZM199.124 12C195.965 12 193.068 12.8592 190.646 14.6266C188.235 16.3859 186.476 18.9122 185.35 21.9609L190.979 24.0391C191.773 21.8878 192.894 20.4141 194.183 19.4734C195.461 18.5408 197.083 18 199.124 18V12ZM185.345 21.9755L167.905 69.9755L173.544 72.0245L190.984 24.0245L185.345 21.9755ZM167.91 69.9609C166.85 72.8317 166.425 75.9907 168.036 78.5484C169.707 81.2031 172.777 82 175.764 82V76C173.552 76 173.142 75.3969 173.113 75.3516C173.023 75.2093 172.679 74.3683 173.539 72.0391L167.91 69.9609ZM218.421 40.9918L223.461 27.2318L217.827 25.1682L212.787 38.9282L218.421 40.9918ZM223.479 27.1813C223.679 26.6051 223.92 26.3494 224.078 26.2318C224.228 26.1214 224.482 26 224.964 26V20C223.367 20 221.821 20.4386 220.51 21.4082C219.209 22.3706 218.33 23.7149 217.809 25.2187L223.479 27.1813ZM224.964 26H226.564V20H224.964V26ZM226.564 26C226.837 26 226.873 26.0397 226.768 25.9984C226.63 25.9442 226.354 25.7862 226.137 25.4517C225.929 25.1305 225.915 24.8622 225.916 24.8131C225.916 24.7828 225.918 24.9042 225.809 25.2187L231.479 27.1813C231.939 25.8546 232.286 23.9073 231.172 22.1883C230.001 20.3815 228.003 20 226.564 20V26ZM225.827 25.1682L220.787 38.9282L226.421 40.9918L231.461 27.2318L225.827 25.1682ZM220.769 38.9787C220.583 39.5163 220.343 39.7743 220.161 39.9054C219.981 40.0353 219.692 40.16 219.204 40.16V46.16C220.797 46.16 222.348 45.7247 223.667 44.7746C224.985 43.8257 225.905 42.4837 226.439 40.9413L220.769 38.9787ZM219.204 40.16H217.604V46.16H219.204V40.16ZM217.604 40.16C217.329 40.16 217.309 40.1195 217.434 40.1699C217.599 40.2362 217.895 40.4164 218.114 40.7756C218.32 41.1117 218.32 41.3795 218.32 41.4035C218.32 41.4131 218.325 41.2728 218.439 40.9413L212.769 38.9787C212.329 40.2509 211.94 42.1787 212.995 43.9043C214.14 45.7788 216.172 46.16 217.604 46.16V40.16ZM346.539 63L343.722 61.9672L343.717 61.98L346.539 63ZM348.299 58.2L345.484 57.1609L345.482 57.1672L348.299 58.2ZM312.059 53.4L314.89 54.3911L314.894 54.3813L312.059 53.4ZM311.499 55L314.299 56.0769L314.315 56.0342L314.33 55.991L311.499 55ZM314.699 58.2L317.515 59.2328L318.994 55.2H314.699V58.2ZM311.179 67.8L308.362 66.7672L308.353 66.7929L308.344 66.8187L311.179 67.8ZM303.179 67.8L300.361 66.7704L300.352 66.7945L300.344 66.8187L303.179 67.8ZM318.379 26.2L321.197 27.2296L321.205 27.2055L321.214 27.1813L318.379 26.2ZM326.379 26.2L329.198 27.2252L329.206 27.2033L329.214 27.1813L326.379 26.2ZM323.179 35L325.993 36.0391L325.996 36.0322L325.998 36.0252L323.179 35ZM356.779 35L359.593 36.0391L359.596 36.0301L359.6 36.0211L356.779 35ZM280.059 39L277.24 37.9736L277.236 37.9838L280.059 39ZM274.299 55L277.118 56.0264L277.121 56.0162L274.299 55ZM289.499 82H324.699V76H289.499V82ZM324.699 82C330.457 82 335.616 80.4412 339.88 77.3211C344.134 74.2083 347.315 69.6763 349.36 64.02L343.717 61.98C342.002 66.7237 339.463 70.1917 336.337 72.4789C333.221 74.7588 329.341 76 324.699 76V82ZM349.355 64.0328L351.115 59.2328L345.482 57.1672L343.722 61.9672L349.355 64.0328ZM351.113 59.2391C352.181 56.3467 352.577 53.1795 350.93 50.6249C349.237 47.9971 346.169 47.2 343.179 47.2V53.2C345.389 53.2 345.84 53.8029 345.887 53.8751C345.981 54.0205 346.336 54.8533 345.484 57.1609L351.113 59.2391ZM343.179 47.2H316.379V53.2H343.179V47.2ZM316.379 47.2C314.781 47.2 313.235 47.6386 311.925 48.6082C310.624 49.5706 309.744 50.9149 309.224 52.4187L314.894 54.3813C315.093 53.8051 315.334 53.5494 315.493 53.4318C315.642 53.3214 315.896 53.2 316.379 53.2V47.2ZM309.227 52.409L308.667 54.009L314.33 55.991L314.89 54.391L309.227 52.409ZM308.699 53.9231C308.192 55.2407 307.769 57.214 308.88 58.9784C310.043 60.826 312.077 61.2 313.499 61.2V55.2C313.225 55.2 313.191 55.16 313.3 55.2029C313.442 55.259 313.733 55.425 313.957 55.7816C314.174 56.1253 314.182 56.4134 314.18 56.4718C314.179 56.5104 314.178 56.3919 314.299 56.0769L308.699 53.9231ZM313.499 61.2H314.699V55.2H313.499V61.2ZM311.882 57.1672L308.362 66.7672L313.995 68.8328L317.515 59.2328L311.882 57.1672ZM308.344 66.8187C308.144 67.3949 307.904 67.6506 307.745 67.7682C307.595 67.8786 307.341 68 306.859 68V74C308.456 74 310.002 73.5614 311.313 72.5918C312.614 71.6294 313.493 70.2851 314.014 68.7813L308.344 66.8187ZM306.859 68H305.259V74H306.859V68ZM305.259 68C304.986 68 304.951 67.9603 305.055 68.0016C305.193 68.0558 305.469 68.2138 305.686 68.5483C305.894 68.8695 305.908 69.1378 305.907 69.1869C305.907 69.2172 305.905 69.0958 306.014 68.7813L300.344 66.8187C299.885 68.1454 299.537 70.0927 300.651 71.8117C301.822 73.6185 303.82 74 305.259 74V68ZM305.997 68.8296L321.197 27.2296L315.561 25.1704L300.361 66.7704L305.997 68.8296ZM321.214 27.1813C321.413 26.6051 321.654 26.3494 321.813 26.2318C321.962 26.1214 322.216 26 322.699 26V20C321.101 20 319.555 20.4386 318.245 21.4082C316.944 22.3706 316.064 23.7149 315.544 25.2187L321.214 27.1813ZM322.699 26H324.299V20H322.699V26ZM324.299 26C324.572 26 324.607 26.0397 324.502 25.9984C324.365 25.9442 324.088 25.7862 323.871 25.4517C323.663 25.1305 323.65 24.8622 323.65 24.8131C323.65 24.7828 323.653 24.9042 323.544 25.2187L329.214 27.1813C329.673 25.8546 330.02 23.9073 328.906 22.1883C327.735 20.3815 325.738 20 324.299 20V26ZM323.559 25.1748L320.359 33.9748L325.998 36.0252L329.198 27.2252L323.559 25.1748ZM320.364 33.9609C319.304 36.8317 318.88 39.9907 320.49 42.5484C322.162 45.2031 325.231 46 328.219 46V40C326.006 40 325.596 39.3969 325.567 39.3516C325.478 39.2093 325.133 38.3683 325.993 36.0391L320.364 33.9609ZM328.219 46H345.819V40H328.219V46ZM345.819 46C348.978 46 351.875 45.1408 354.297 43.3734C356.708 41.6141 358.467 39.0878 359.593 36.0391L353.964 33.9609C353.17 36.1122 352.049 37.5859 350.76 38.5266C349.482 39.4592 347.86 40 345.819 40V46ZM359.6 36.0211C362.109 29.0884 362.171 22.7633 358.339 18.1847C354.641 13.7646 348.115 12 340.059 12V18C347.603 18 351.797 19.7154 353.738 22.0352C355.547 24.1967 356.168 27.8716 353.958 33.9789L359.6 36.0211ZM340.059 12H312.859V18H340.059V12ZM312.859 12C304.5 12 297.082 14.2589 290.968 18.7281C284.865 23.1897 280.245 29.7199 277.24 37.9736L282.878 40.0264C285.552 32.6801 289.532 27.2103 294.509 23.5719C299.476 19.9411 305.617 18 312.859 18V12ZM277.236 37.9838L271.476 53.9838L277.121 56.0162L282.881 40.0162L277.236 37.9838ZM271.48 53.9736C268.541 62.0456 268.063 69.2012 271.383 74.4529C274.764 79.8021 281.309 82 289.499 82V76C282.088 76 278.193 73.9979 276.455 71.2471C274.654 68.3988 274.377 63.5544 277.118 56.0264L271.48 53.9736ZM385.34 71L388.154 72.0391L388.157 72.0306L388.161 72.0221L385.34 71ZM391.66 53.56V50.56H389.556L388.839 52.5379L391.66 53.56ZM399.66 53.56L402.481 54.5821L403.938 50.56H399.66V53.56ZM393.34 71L396.154 72.0391L396.157 72.0306L396.161 72.0221L393.34 71ZM426.94 71L429.754 72.0391L429.757 72.0308L429.76 72.0224L426.94 71ZM438.54 39L435.721 37.9736L435.72 37.9776L438.54 39ZM363.34 39L360.521 37.9736L360.52 37.9776L363.34 39ZM351.74 71L354.554 72.0391L354.557 72.0308L354.56 72.0224L351.74 71ZM394.62 45.56L391.801 44.5348L390.337 48.56H394.62V45.56ZM401.66 26.2L404.479 27.2252L404.487 27.2033L404.495 27.1813L401.66 26.2ZM409.66 26.2L412.479 27.2252L412.487 27.2033L412.495 27.1813L409.66 26.2ZM402.62 45.56V48.56H404.721L405.439 46.5852L402.62 45.56ZM356.78 82H374.38V76H356.78V82ZM374.38 82C377.539 82 380.436 81.1408 382.858 79.3734C385.269 77.6141 387.029 75.0878 388.154 72.0391L382.526 69.9609C381.731 72.1122 380.611 73.5859 379.322 74.5266C378.044 75.4592 376.421 76 374.38 76V82ZM388.161 72.0221L394.481 54.5821L388.839 52.5379L382.519 69.9779L388.161 72.0221ZM391.66 56.56H399.66V50.56H391.66V56.56ZM396.839 52.5379L390.519 69.9779L396.161 72.0221L402.481 54.5821L396.839 52.5379ZM390.526 69.9609C389.466 72.8317 389.041 75.9907 390.651 78.5484C392.323 81.2031 395.393 82 398.38 82V76C396.167 76 395.757 75.3969 395.729 75.3516C395.639 75.2093 395.294 74.3683 396.154 72.0391L390.526 69.9609ZM398.38 82H415.98V76H398.38V82ZM415.98 82C419.139 82 422.036 81.1408 424.458 79.3734C426.869 77.6141 428.629 75.0878 429.754 72.0391L424.126 69.9609C423.331 72.1122 422.211 73.5859 420.922 74.5266C419.644 75.4592 418.021 76 415.98 76V82ZM429.76 72.0224L441.36 40.0224L435.72 37.9776L424.12 69.9776L429.76 72.0224ZM441.359 40.0264C444.298 31.9544 444.775 24.7987 441.456 19.5471C438.075 14.1979 431.53 12 423.34 12V18C430.75 18 434.645 20.0021 436.384 22.7529C438.185 25.6012 438.462 30.4456 435.721 37.9736L441.359 40.0264ZM423.34 12H396.14V18H423.34V12ZM396.14 12C387.781 12 380.363 14.2589 374.25 18.7281C368.147 23.1897 363.526 29.7199 360.521 37.9736L366.159 40.0264C368.834 32.6801 372.813 27.2103 377.79 23.5719C382.757 19.9411 388.899 18 396.14 18V12ZM360.52 37.9776L348.92 69.9776L354.56 72.0224L366.16 40.0224L360.52 37.9776ZM348.926 69.9609C347.866 72.8317 347.441 75.9907 349.051 78.5484C350.723 81.2031 353.793 82 356.78 82V76C354.567 76 354.157 75.3969 354.129 75.3516C354.039 75.2093 353.694 74.3683 354.554 72.0391L348.926 69.9609ZM397.439 46.5852L404.479 27.2252L398.841 25.1748L391.801 44.5348L397.439 46.5852ZM404.495 27.1813C404.694 26.6051 404.935 26.3494 405.094 26.2318C405.243 26.1214 405.498 26 405.98 26V20C404.382 20 402.837 20.4386 401.526 21.4082C400.225 22.3706 399.346 23.7149 398.825 25.2187L404.495 27.1813ZM405.98 26H407.58V20H405.98V26ZM407.58 26C407.853 26 407.888 26.0397 407.783 25.9984C407.646 25.9442 407.369 25.7862 407.153 25.4517C406.944 25.1305 406.931 24.8622 406.931 24.8131C406.931 24.7828 406.934 24.9042 406.825 25.2187L412.495 27.1813C412.954 25.8546 413.302 23.9073 412.187 22.1883C411.016 20.3815 409.019 20 407.58 20V26ZM406.841 25.1748L399.801 44.5348L405.439 46.5852L412.479 27.2252L406.841 25.1748ZM402.62 42.56H394.62V48.56H402.62V42.56ZM500.221 71L503.036 72.0391L503.038 72.0316L503.041 72.024L500.221 71ZM505.741 55.8L502.927 54.7609L502.924 54.7684L502.921 54.776L505.741 55.8ZM477.021 47.8L474.203 46.7726L472.735 50.8H477.021V47.8ZM486.061 23L483.247 21.9609L483.243 21.9726L486.061 23ZM452.461 23L449.647 21.9609L449.642 21.9739L452.461 23ZM437.901 63L435.082 61.9739L435.08 61.98L437.901 63ZM448.061 82H489.261V76H448.061V82ZM489.261 82C492.42 82 495.318 81.1408 497.74 79.3734C500.151 77.6141 501.91 75.0878 503.036 72.0391L497.407 69.9609C496.613 72.1122 495.492 73.5859 494.203 74.5266C492.925 75.4592 491.302 76 489.261 76V82ZM503.041 72.024L508.561 56.824L502.921 54.776L497.401 69.976L503.041 72.024ZM508.556 56.8391C509.624 53.9467 510.019 50.7795 508.373 48.2249C506.68 45.5971 503.611 44.8 500.621 44.8V50.8C502.831 50.8 503.283 51.4029 503.33 51.4751C503.423 51.6205 503.779 52.4533 502.927 54.7609L508.556 56.8391ZM500.621 44.8H477.021V50.8H500.621V44.8ZM479.84 48.8274L488.88 24.0274L483.243 21.9726L474.203 46.7726L479.84 48.8274ZM488.876 24.0391C489.936 21.1683 490.36 18.0093 488.75 15.4516C487.078 12.7969 484.009 12 481.021 12V18C483.234 18 483.644 18.6031 483.673 18.6484C483.762 18.7907 484.107 19.6317 483.247 21.9609L488.876 24.0391ZM481.021 12H463.421V18H481.021V12ZM463.421 12C460.262 12 457.365 12.8592 454.943 14.6266C452.532 16.3859 450.773 18.9122 449.647 21.9609L455.276 24.0391C456.07 21.8878 457.191 20.4141 458.48 19.4734C459.758 18.5408 461.38 18 463.421 18V12ZM449.642 21.9739L435.082 61.9739L440.72 64.0261L455.28 24.0261L449.642 21.9739ZM435.08 61.98C433.101 67.4526 432.668 72.6065 435.137 76.5052C437.668 80.5016 442.471 82 448.061 82V76C443.252 76 441.095 74.6984 440.206 73.2948C439.255 71.7935 438.941 68.9474 440.723 64.02L435.08 61.98ZM573.503 71L576.317 72.0391L576.32 72.0316L576.322 72.024L573.503 71ZM579.023 55.8L576.208 54.7609L576.205 54.7684L576.203 54.776L579.023 55.8ZM550.303 47.8L547.484 46.7726L546.016 50.8H550.303V47.8ZM559.343 23L556.528 21.9609L556.524 21.9726L559.343 23ZM525.743 23L522.928 21.9609L522.923 21.9739L525.743 23ZM511.183 63L508.363 61.9739L508.361 61.98L511.183 63ZM521.343 82H562.543V76H521.343V82ZM562.543 82C565.702 82 568.599 81.1408 571.021 79.3734C573.432 77.6141 575.191 75.0878 576.317 72.0391L570.688 69.9609C569.894 72.1122 568.773 73.5859 567.484 74.5266C566.206 75.4592 564.583 76 562.543 76V82ZM576.322 72.024L581.842 56.824L576.203 54.776L570.683 69.976L576.322 72.024ZM581.837 56.8391C582.905 53.9467 583.3 50.7795 581.654 48.2249C579.961 45.5971 576.893 44.8 573.903 44.8V50.8C576.112 50.8 576.564 51.4029 576.611 51.4751C576.705 51.6205 577.06 52.4533 576.208 54.7609L581.837 56.8391ZM573.903 44.8H550.303V50.8H573.903V44.8ZM553.121 48.8274L562.161 24.0274L556.524 21.9726L547.484 46.7726L553.121 48.8274ZM562.157 24.0391C563.217 21.1683 563.642 18.0093 562.031 15.4516C560.36 12.7969 557.29 12 554.303 12V18C556.515 18 556.925 18.6031 556.954 18.6484C557.043 18.7907 557.388 19.6317 556.528 21.9609L562.157 24.0391ZM554.303 12H536.703V18H554.303V12ZM536.703 12C533.543 12 530.646 12.8592 528.224 14.6266C525.813 16.3859 524.054 18.9122 522.928 21.9609L528.557 24.0391C529.351 21.8878 530.472 20.4141 531.761 19.4734C533.039 18.5408 534.662 18 536.703 18V12ZM522.923 21.9739L508.363 61.9739L514.002 64.0261L528.562 24.0261L522.923 21.9739ZM508.361 61.98C506.383 67.4526 505.949 72.6065 508.418 76.5052C510.949 80.5016 515.752 82 521.343 82V76C516.533 76 514.376 74.6984 513.487 73.2948C512.536 71.7935 512.222 68.9474 514.004 64.02L508.361 61.98ZM650.784 71L653.598 72.0391L653.601 72.0316L653.604 72.024L650.784 71ZM656.304 55.8L653.489 54.7609L653.487 54.7684L653.484 54.776L656.304 55.8ZM623.584 47.8L620.764 46.7748L619.301 50.8H623.584V47.8ZM626.784 39V36H624.682L623.964 37.9748L626.784 39ZM653.184 35.8L655.984 36.8769L656 36.8342L656.015 36.7911L653.184 35.8ZM653.744 34.2L650.944 33.1231L650.927 33.1658L650.912 33.2089L653.744 34.2ZM629.744 31L626.921 29.9838L625.475 34H629.744V31ZM632.624 23V20H630.515L629.801 21.9838L632.624 23ZM666.224 19.8L669.024 20.8769L669.04 20.8342L669.055 20.7911L666.224 19.8ZM666.784 18.2L669.615 19.1911L669.619 19.1813L666.784 18.2ZM599.024 23L596.209 21.9609L596.207 21.9682L596.204 21.9755L599.024 23ZM581.584 71L584.398 72.0391L584.401 72.0318L584.403 72.0245L581.584 71ZM586.624 82H639.824V76H586.624V82ZM639.824 82C642.983 82 645.88 81.1408 648.302 79.3734C650.713 77.6141 652.472 75.0878 653.598 72.0391L647.969 69.9609C647.175 72.1122 646.054 73.5859 644.765 74.5266C643.487 75.4592 641.865 76 639.824 76V82ZM653.604 72.024L659.124 56.824L653.484 54.776L647.964 69.976L653.604 72.024ZM659.118 56.8391C660.186 53.9467 660.582 50.7795 658.935 48.2249C657.242 45.5971 654.174 44.8 651.184 44.8V50.8C653.394 50.8 653.846 51.4029 653.892 51.4751C653.986 51.6205 654.341 52.4533 653.489 54.7609L659.118 56.8391ZM651.184 44.8H623.584V50.8H651.184V44.8ZM626.403 48.8252L629.603 40.0252L623.964 37.9748L620.764 46.7748L626.403 48.8252ZM626.784 42H648.784V36H626.784V42ZM648.784 42C650.386 42 651.922 41.5594 653.232 40.6034C654.527 39.6585 655.42 38.3432 655.984 36.8769L650.384 34.7231C650.148 35.3368 649.88 35.6215 649.695 35.7566C649.525 35.8806 649.262 36 648.784 36V42ZM656.015 36.7911L656.575 35.1911L650.912 33.2089L650.352 34.8089L656.015 36.7911ZM656.544 35.2769C657.051 33.9593 657.473 31.986 656.362 30.2216C655.199 28.374 653.166 28 651.744 28V34C652.018 34 652.051 34.04 651.942 33.9971C651.801 33.941 651.51 33.775 651.285 33.4184C651.069 33.0747 651.061 32.7866 651.063 32.7282C651.064 32.6896 651.065 32.8081 650.944 33.1231L656.544 35.2769ZM651.744 28H629.744V34H651.744V28ZM632.566 32.0162L635.446 24.0162L629.801 21.9838L626.921 29.9838L632.566 32.0162ZM632.624 26H661.824V20H632.624V26ZM661.824 26C663.426 26 664.962 25.5594 666.272 24.6034C667.567 23.6585 668.46 22.3432 669.024 20.8769L663.424 18.7231C663.188 19.3368 662.92 19.6215 662.735 19.7566C662.565 19.8806 662.302 20 661.824 20V26ZM669.055 20.7911L669.615 19.1911L663.952 17.2089L663.392 18.8089L669.055 20.7911ZM669.619 19.1813C670.059 17.909 670.448 15.9813 669.394 14.2556C668.248 12.3812 666.216 12 664.784 12V18C665.059 18 665.079 18.0405 664.954 17.9901C664.789 17.9238 664.493 17.7436 664.274 17.3844C664.069 17.0483 664.068 16.7805 664.068 16.7565C664.068 16.7469 664.064 16.8872 663.949 17.2187L669.619 19.1813ZM664.784 12H609.984V18H664.784V12ZM609.984 12C606.825 12 603.927 12.8592 601.505 14.6266C599.094 16.3859 597.335 18.9122 596.209 21.9609L601.838 24.0391C602.632 21.8878 603.753 20.4141 605.042 19.4734C606.32 18.5408 607.943 18 609.984 18V12ZM596.204 21.9755L578.764 69.9755L584.403 72.0245L601.843 24.0245L596.204 21.9755ZM578.769 69.9609C577.709 72.8317 577.285 75.9907 578.895 78.5484C580.567 81.2031 583.636 82 586.624 82V76C584.411 76 584.001 75.3969 583.972 75.3516C583.883 75.2093 583.538 74.3683 584.398 72.0391L578.769 69.9609ZM692.449 71L695.264 72.0391L695.267 72.0313L695.269 72.0234L692.449 71ZM699.649 51.16V48.16H697.547L696.829 50.1366L699.649 51.16ZM707.649 51.16L710.468 52.1883L711.937 48.16H707.649V51.16ZM703.329 63L700.511 61.9717L700.508 61.98L703.329 63ZM732.449 71L735.264 72.0391L735.268 72.0264L735.273 72.0136L732.449 71ZM734.689 64.76L731.875 63.7209L731.87 63.7336L731.866 63.7464L734.689 64.76ZM714.769 53.56L711.953 52.5272L711.943 52.5529L711.934 52.5787L714.769 53.56ZM715.649 51.16V48.16H713.554L712.833 50.1272L715.649 51.16ZM746.289 32.92L749.107 33.9507L749.11 33.9411L746.289 32.92ZM676.289 23L673.475 21.9609L673.472 21.9682L673.47 21.9755L676.289 23ZM658.849 71L661.664 72.0391L661.666 72.0318L661.669 72.0245L658.849 71ZM703.729 39.96L700.912 38.9282L700.903 38.9534L700.894 38.9787L703.729 39.96ZM708.769 26.2L711.586 27.2318L711.596 27.2066L711.604 27.1813L708.769 26.2ZM716.769 26.2L719.586 27.2318L719.596 27.2066L719.604 27.1813L716.769 26.2ZM711.729 39.96L708.912 38.9282L708.903 38.9534L708.894 38.9787L711.729 39.96ZM663.889 82H681.489V76H663.889V82ZM681.489 82C684.648 82 687.546 81.1408 689.968 79.3734C692.379 77.6141 694.138 75.0878 695.264 72.0391L689.635 69.9609C688.841 72.1122 687.72 73.5859 686.431 74.5266C685.153 75.4592 683.53 76 681.489 76V82ZM695.269 72.0234L702.469 52.1834L696.829 50.1366L689.629 69.9766L695.269 72.0234ZM699.649 54.16H707.649V48.16H699.649V54.16ZM704.831 50.1317L700.511 61.9717L706.148 64.0283L710.468 52.1883L704.831 50.1317ZM700.508 61.98C698.53 67.4526 698.096 72.6065 700.565 76.5052C703.096 80.5016 707.899 82 713.489 82V76C708.68 76 706.523 74.6984 705.634 73.2948C704.683 71.7935 704.369 68.9474 706.151 64.02L700.508 61.98ZM713.489 82H721.489V76H713.489V82ZM721.489 82C724.648 82 727.546 81.1408 729.968 79.3734C732.379 77.6141 734.138 75.0878 735.264 72.0391L729.635 69.9609C728.841 72.1122 727.72 73.5859 726.431 74.5266C725.153 75.4592 723.53 76 721.489 76V82ZM735.273 72.0136L737.513 65.7736L731.866 63.7464L729.626 69.9864L735.273 72.0136ZM737.504 65.7991C738.564 62.9283 738.988 59.7693 737.378 57.2116C735.707 54.5569 732.637 53.76 729.649 53.76V59.76C731.862 59.76 732.272 60.3631 732.301 60.4084C732.39 60.5507 732.735 61.3917 731.875 63.7209L737.504 65.7991ZM729.649 53.76H716.849V59.76H729.649V53.76ZM716.849 53.76C716.577 53.76 716.541 53.7203 716.646 53.7616C716.784 53.8158 717.06 53.9738 717.277 54.3083C717.485 54.6295 717.498 54.8978 717.498 54.9469C717.498 54.9772 717.495 54.8558 717.604 54.5413L711.934 52.5787C711.475 53.9054 711.128 55.8527 712.242 57.5717C713.413 59.3785 715.411 59.76 716.849 59.76V53.76ZM717.586 54.5928L718.466 52.1928L712.833 50.1272L711.953 52.5272L717.586 54.5928ZM715.649 54.16H725.809V48.16H715.649V54.16ZM725.809 54.16C731.418 54.16 736.106 52.7104 740.031 49.1946C743.836 45.7867 746.645 40.6785 749.107 33.9507L743.472 31.8893C741.133 38.2815 738.743 42.2933 736.028 44.7253C733.433 47.0496 730.281 48.16 725.809 48.16V54.16ZM749.11 33.9411C750.329 30.5741 751.145 27.5708 751.431 24.9425C751.715 22.321 751.499 19.8238 750.378 17.6801C748.022 13.1734 742.768 12 736.849 12V18C742.611 18 744.437 19.2666 745.061 20.4599C745.43 21.1662 745.679 22.334 745.466 24.295C745.253 26.2492 744.61 28.7459 743.468 31.8989L749.11 33.9411ZM736.849 12H687.249V18H736.849V12ZM687.249 12C684.09 12 681.193 12.8592 678.771 14.6266C676.36 16.3859 674.601 18.9122 673.475 21.9609L679.104 24.0391C679.898 21.8878 681.019 20.4141 682.308 19.4734C683.586 18.5408 685.208 18 687.249 18V12ZM673.47 21.9755L656.03 69.9755L661.669 72.0245L679.109 24.0245L673.47 21.9755ZM656.035 69.9609C654.975 72.8317 654.55 75.9907 656.161 78.5484C657.832 81.2031 660.902 82 663.889 82V76C661.677 76 661.267 75.3969 661.238 75.3516C661.148 75.2093 660.804 74.3683 661.664 72.0391L656.035 69.9609ZM706.546 40.9918L711.586 27.2318L705.952 25.1682L700.912 38.9282L706.546 40.9918ZM711.604 27.1813C711.804 26.6051 712.045 26.3494 712.203 26.2318C712.353 26.1214 712.607 26 713.089 26V20C711.492 20 709.946 20.4386 708.635 21.4082C707.334 22.3706 706.455 23.7149 705.934 25.2187L711.604 27.1813ZM713.089 26H714.689V20H713.089V26ZM714.689 26C714.962 26 714.998 26.0397 714.893 25.9984C714.755 25.9442 714.479 25.7862 714.262 25.4517C714.054 25.1305 714.04 24.8622 714.041 24.8131C714.041 24.7828 714.043 24.9042 713.934 25.2187L719.604 27.1813C720.064 25.8546 720.411 23.9073 719.297 22.1883C718.126 20.3815 716.128 20 714.689 20V26ZM713.952 25.1682L708.912 38.9282L714.546 40.9918L719.586 27.2318L713.952 25.1682ZM708.894 38.9787C708.708 39.5163 708.468 39.7743 708.286 39.9054C708.106 40.0353 707.817 40.16 707.329 40.16V46.16C708.922 46.16 710.473 45.7247 711.792 44.7746C713.11 43.8257 714.03 42.4837 714.564 40.9413L708.894 38.9787ZM707.329 40.16H705.729V46.16H707.329V40.16ZM705.729 40.16C705.454 40.16 705.434 40.1195 705.559 40.1699C705.724 40.2362 706.02 40.4164 706.239 40.7756C706.445 41.1117 706.445 41.3795 706.445 41.4035C706.445 41.4131 706.45 41.2728 706.564 40.9413L700.894 38.9787C700.454 40.2509 700.065 42.1787 701.12 43.9043C702.265 45.7788 704.297 46.16 705.729 46.16V40.16ZM794.168 71L796.982 72.0391L796.985 72.0322L796.988 72.0252L794.168 71ZM797.688 61.32L797.521 58.3247L795.545 58.435L794.869 60.2948L797.688 61.32ZM828.008 37.4L830.824 38.435L830.827 38.427L830.83 38.4189L828.008 37.4ZM833.208 23L830.394 21.9609L830.39 21.971L830.386 21.9811L833.208 23ZM799.608 23L796.794 21.9609L796.79 21.9721L799.608 23ZM789.688 50.2L786.87 49.1721L786.861 49.1953L786.853 49.2187L789.688 50.2ZM781.688 50.2L778.87 49.1721L778.861 49.1953L778.853 49.2187L781.688 50.2ZM791.608 23L788.794 21.9609L788.79 21.9721L791.608 23ZM758.008 23L755.194 21.9609L755.19 21.971L755.186 21.9811L758.008 23ZM752.808 37.4L755.624 38.435L755.627 38.427L755.63 38.4189L752.808 37.4ZM765.688 61.32L768.508 62.3452L769.885 58.5576L765.861 58.325L765.688 61.32ZM762.168 71L764.982 72.0391L764.985 72.0322L764.988 72.0252L762.168 71ZM767.208 82H783.208V76H767.208V82ZM783.208 82C786.367 82 789.264 81.1408 791.687 79.3734C794.097 77.6141 795.857 75.0878 796.982 72.0391L791.354 69.9609C790.56 72.1122 789.439 73.5859 788.15 74.5266C786.872 75.4592 785.249 76 783.208 76V82ZM796.988 72.0252L800.508 62.3452L794.869 60.2948L791.349 69.9748L796.988 72.0252ZM797.855 64.3153C813.513 63.4406 825.023 54.2175 830.824 38.435L825.192 36.365C820.113 50.1825 810.503 57.5994 797.521 58.3247L797.855 64.3153ZM830.83 38.4189L836.03 24.0189L830.386 21.9811L825.186 36.3811L830.83 38.4189ZM836.022 24.0391C837.082 21.1683 837.507 18.0093 835.897 15.4516C834.225 12.7969 831.155 12 828.168 12V18C830.381 18 830.791 18.6031 830.819 18.6484C830.909 18.7907 831.254 19.6317 830.394 21.9609L836.022 24.0391ZM828.168 12H810.568V18H828.168V12ZM810.568 12C807.409 12 804.512 12.8592 802.09 14.6266C799.679 16.3859 797.92 18.9122 796.794 21.9609L802.422 24.0391C803.217 21.8878 804.337 20.4141 805.627 19.4734C806.904 18.5408 808.527 18 810.568 18V12ZM796.79 21.9721L786.87 49.1721L792.507 51.2279L802.427 24.0279L796.79 21.9721ZM786.853 49.2187C786.654 49.7949 786.413 50.0506 786.254 50.1682C786.105 50.2786 785.851 50.4 785.368 50.4V56.4C786.966 56.4 788.512 55.9614 789.822 54.9918C791.123 54.0294 792.003 52.6851 792.523 51.1813L786.853 49.2187ZM785.368 50.4H783.768V56.4H785.368V50.4ZM783.768 50.4C783.495 50.4 783.46 50.3603 783.565 50.4016C783.702 50.4558 783.979 50.6138 784.196 50.9483C784.404 51.2695 784.417 51.5378 784.417 51.5869C784.417 51.6172 784.414 51.4958 784.523 51.1813L778.853 49.2187C778.394 50.5454 778.047 52.4927 779.161 54.2117C780.332 56.0185 782.329 56.4 783.768 56.4V50.4ZM784.507 51.2279L794.427 24.0279L788.79 21.9721L778.87 49.1721L784.507 51.2279ZM794.422 24.0391C795.482 21.1683 795.907 18.0093 794.297 15.4516C792.625 12.7969 789.555 12 786.568 12V18C788.781 18 789.191 18.6031 789.219 18.6484C789.309 18.7907 789.654 19.6317 788.794 21.9609L794.422 24.0391ZM786.568 12H768.968V18H786.568V12ZM768.968 12C765.809 12 762.912 12.8592 760.49 14.6266C758.079 16.3859 756.32 18.9122 755.194 21.9609L760.822 24.0391C761.617 21.8878 762.737 20.4141 764.027 19.4734C765.304 18.5408 766.927 18 768.968 18V12ZM755.186 21.9811L749.986 36.3811L755.63 38.4189L760.83 24.0189L755.186 21.9811ZM749.992 36.365C747.173 44.0352 746.59 50.8576 749.377 56.0323C752.255 61.3775 758.104 63.8866 765.515 64.315L765.861 58.325C759.432 57.9534 756.121 55.9025 754.66 53.1877C753.106 50.3024 753.003 45.5648 755.624 38.435L749.992 36.365ZM762.869 60.2948L759.349 69.9748L764.988 72.0252L768.508 62.3452L762.869 60.2948ZM759.354 69.9609C758.294 72.8317 757.869 75.9907 759.479 78.5484C761.151 81.2031 764.221 82 767.208 82V76C764.995 76 764.585 75.3969 764.557 75.3516C764.467 75.2093 764.122 74.3683 764.982 72.0391L759.354 69.9609Z" fill="black"/>
</svg>
