<svg width="620" height="48" viewBox="0 0 620 48" fill="none" xmlns="http://www.w3.org/2000/svg">
<path d="M23.72 39.6C23.6 40 23.54 40.34 23.54 40.62C23.54 41.54 24.12 42 25.28 42H26.48C28.08 42 29.16 41.2 29.72 39.6L41.12 8.4C41.24 7.96 41.3 7.62 41.3 7.38C41.3 6.46 40.72 6 39.56 6H38.36C36.76 6 35.68 6.8 35.12 8.4L23.72 39.6ZM6.38 18C8.5 12.16 11.66 7.7 15.86 4.62C20.1 1.54 25.14 -7.15256e-07 30.98 -7.15256e-07H51.38C55.7 -7.15256e-07 58.96 0.839999 61.16 2.52C63.36 4.2 64.46 6.68 64.46 9.96C64.46 12.32 63.9 15 62.78 18L58.46 30C56.34 35.84 53.16 40.3 48.92 43.38C44.72 46.46 39.7 48 33.86 48H13.46C9.14 48 5.88 47.16 3.68 45.48C1.48 43.8 0.38 41.32 0.38 38.04C0.38 35.68 0.94 33 2.06 30L6.38 18ZM94.6409 -7.15256e-07C97.5209 -7.15256e-07 98.9609 1.1 98.9609 3.3C98.9609 4.06 98.7809 4.96 98.4209 6L86.1809 39.6C86.0609 40 86.0009 40.34 86.0009 40.62C86.0009 41.54 86.5809 42 87.7409 42H88.9409C90.5409 42 91.6209 41.2 92.1809 39.6L104.421 6C105.141 4.04 106.201 2.56 107.601 1.56C109.001 0.519999 110.681 -7.15256e-07 112.641 -7.15256e-07H125.841C128.721 -7.15256e-07 130.161 1.1 130.161 3.3C130.161 4.06 129.981 4.96 129.621 6L118.701 36C117.301 39.88 115.201 42.86 112.401 44.94C109.601 46.98 106.241 48 102.321 48H69.9209C67.0409 48 64.8609 47.44 63.3809 46.32C61.9409 45.2 61.2209 43.54 61.2209 41.34C61.2209 39.82 61.5809 38.04 62.3009 36L73.2209 6C73.9409 4.04 75.0009 2.56 76.4009 1.56C77.8009 0.519999 79.4809 -7.15256e-07 81.4409 -7.15256e-07H94.6409ZM126.323 48C123.443 48 122.003 46.9 122.003 44.7C122.003 43.9 122.183 43 122.543 42L135.623 6C136.343 4.04 137.403 2.56 138.803 1.56C140.203 0.519999 141.883 -7.15256e-07 143.843 -7.15256e-07H181.043C184.083 -7.15256e-07 186.303 0.479999 187.703 1.44C189.103 2.36 189.803 3.86 189.803 5.94C189.803 7.94 189.243 10.44 188.123 13.44C186.323 18.36 184.243 21.88 181.883 24C179.563 26.08 176.523 27.12 172.763 27.12H165.143L164.483 28.92C164.363 29.32 164.303 29.66 164.303 29.94C164.303 30.86 164.883 31.32 166.043 31.32H175.643C178.523 31.32 179.963 32.42 179.963 34.62C179.963 35.38 179.783 36.28 179.423 37.32L177.743 42C177.023 43.96 175.963 45.46 174.563 46.5C173.163 47.5 171.483 48 169.523 48H163.523C160.643 48 158.463 47.44 156.983 46.32C155.543 45.2 154.823 43.54 154.823 41.34C154.823 39.82 155.183 38.04 155.903 36L159.143 27.12H153.143L147.743 42C147.023 43.96 145.963 45.46 144.563 46.5C143.163 47.5 141.483 48 139.523 48H126.323ZM156.203 18.72C156.043 19.28 155.963 19.64 155.963 19.8C155.963 20.68 156.543 21.12 157.703 21.12H158.903C159.703 21.12 160.383 20.92 160.943 20.52C161.503 20.08 161.923 19.48 162.203 18.72L165.983 8.4C166.103 7.96 166.163 7.62 166.163 7.38C166.163 6.46 165.583 6 164.423 6H163.223C161.623 6 160.543 6.8 159.983 8.4L156.203 18.72ZM211.624 48C207.304 48 204.044 47.16 201.844 45.48C199.644 43.8 198.544 41.32 198.544 38.04C198.544 35.68 199.104 33 200.224 30L204.544 18C206.664 12.16 209.824 7.7 214.024 4.62C218.264 1.54 223.304 -7.15256e-07 229.144 -7.15256e-07H249.544C254.064 -7.15256e-07 257.484 0.779999 259.804 2.34C262.124 3.86 263.284 6.1 263.284 9.06C263.284 10.74 262.884 12.72 262.084 15C261.364 16.96 260.304 18.46 258.904 19.5C257.504 20.5 255.824 21 253.864 21H240.664C237.784 21 236.344 19.9 236.344 17.7C236.344 16.9 236.524 16 236.884 15L239.284 8.4C239.404 7.96 239.464 7.62 239.464 7.38C239.464 6.46 238.884 6 237.724 6H236.524C234.924 6 233.844 6.8 233.284 8.4L221.884 39.6C221.764 40 221.704 40.34 221.704 40.62C221.704 41.54 222.284 42 223.444 42H224.644C226.244 42 227.324 41.2 227.884 39.6L230.524 32.4H229.624C228.464 32.4 227.884 31.96 227.884 31.08C227.884 30.72 227.964 30.36 228.124 30L228.544 28.8C229.104 27.2 230.184 26.4 231.784 26.4H251.884C254.804 26.4 256.264 27.52 256.264 29.76C256.264 30.48 256.084 31.36 255.724 32.4L254.404 36C253.004 39.88 250.904 42.86 248.104 44.94C245.304 46.98 241.944 48 238.024 48H211.624ZM262.085 48C259.205 48 257.765 46.9 257.765 44.7C257.765 43.9 257.945 43 258.305 42L267.005 18C269.125 12.16 272.285 7.7 276.485 4.62C280.725 1.54 285.765 -7.15256e-07 291.605 -7.15256e-07H312.005C316.325 -7.15256e-07 319.585 0.839999 321.785 2.52C323.985 4.2 325.085 6.68 325.085 9.96C325.085 12.32 324.525 15 323.405 18L314.705 42C313.985 43.96 312.925 45.46 311.525 46.5C310.125 47.5 308.445 48 306.485 48H293.285C290.405 48 288.965 46.9 288.965 44.7C288.965 43.9 289.145 43 289.505 42L294.245 28.92H288.245L283.505 42C282.785 43.96 281.725 45.46 280.325 46.5C278.925 47.5 277.245 48 275.285 48H262.085ZM296.465 22.92L301.745 8.4C301.865 7.96 301.925 7.62 301.925 7.38C301.925 6.46 301.345 6 300.185 6H298.985C297.385 6 296.305 6.8 295.745 8.4L290.465 22.92H296.465ZM330.546 48C327.666 48 325.486 47.44 324.006 46.32C322.566 45.2 321.846 43.54 321.846 41.34C321.846 39.82 322.206 38.04 322.926 36L333.846 6C334.566 4.04 335.626 2.56 337.026 1.56C338.426 0.519999 340.106 -7.15256e-07 342.066 -7.15256e-07H355.266C358.146 -7.15256e-07 359.586 1.1 359.586 3.3C359.586 4.06 359.406 4.96 359.046 6L352.266 24.6H369.966C372.886 24.6 374.346 25.72 374.346 27.96C374.346 28.68 374.166 29.56 373.806 30.6L369.666 42C368.946 43.96 367.886 45.46 366.486 46.5C365.086 47.5 363.406 48 361.446 48H330.546ZM385.507 48C382.627 48 380.447 47.44 378.967 46.32C377.527 45.2 376.807 43.54 376.807 41.34C376.807 39.82 377.167 38.04 377.887 36L388.807 6C389.527 4.04 390.587 2.56 391.987 1.56C393.387 0.519999 395.067 -7.15256e-07 397.027 -7.15256e-07H410.227C413.107 -7.15256e-07 414.547 1.1 414.547 3.3C414.547 4.06 414.367 4.96 414.007 6L407.227 24.6H424.927C427.847 24.6 429.307 25.72 429.307 27.96C429.307 28.68 429.127 29.56 428.767 30.6L424.627 42C423.907 43.96 422.847 45.46 421.447 46.5C420.047 47.5 418.367 48 416.407 48H385.507ZM434.468 48C431.588 48 430.148 46.9 430.148 44.7C430.148 43.9 430.328 43 430.688 42L443.768 6C444.488 4.04 445.548 2.56 446.948 1.56C448.348 0.519999 450.028 -7.15256e-07 451.988 -7.15256e-07H493.088C494.248 -7.15256e-07 494.828 0.439998 494.828 1.32C494.828 1.48 494.748 1.84 494.588 2.4L494.168 3.6C493.568 5.2 492.468 6 490.868 6H468.968L466.808 12H483.308C484.468 12 485.048 12.44 485.048 13.32C485.048 13.68 484.968 14.04 484.808 14.4L484.388 15.6C483.788 17.2 482.688 18 481.088 18H464.588L462.188 24.6H482.888C485.808 24.6 487.268 25.72 487.268 27.96C487.268 28.68 487.088 29.56 486.728 30.6L482.588 42C481.868 43.96 480.808 45.46 479.408 46.5C478.008 47.5 476.328 48 474.368 48H434.468ZM492.417 48C489.537 48 488.097 46.9 488.097 44.7C488.097 43.9 488.277 43 488.637 42L501.717 6C502.437 4.04 503.497 2.56 504.897 1.56C506.297 0.519999 507.977 -7.15256e-07 509.937 -7.15256e-07H547.137C550.177 -7.15256e-07 552.397 0.479999 553.797 1.44C555.197 2.36 555.897 3.86 555.897 5.94C555.897 7.94 555.337 10.44 554.217 13.44C552.417 18.36 550.337 21.88 547.977 24C545.657 26.08 542.617 27.12 538.857 27.12H531.237L530.577 28.92C530.457 29.32 530.397 29.66 530.397 29.94C530.397 30.86 530.977 31.32 532.137 31.32H541.737C544.617 31.32 546.057 32.42 546.057 34.62C546.057 35.38 545.877 36.28 545.517 37.32L543.837 42C543.117 43.96 542.057 45.46 540.657 46.5C539.257 47.5 537.577 48 535.617 48H529.617C526.737 48 524.557 47.44 523.077 46.32C521.637 45.2 520.917 43.54 520.917 41.34C520.917 39.82 521.277 38.04 521.997 36L525.237 27.12H519.237L513.837 42C513.117 43.96 512.057 45.46 510.657 46.5C509.257 47.5 507.577 48 505.617 48H492.417ZM522.297 18.72C522.137 19.28 522.057 19.64 522.057 19.8C522.057 20.68 522.637 21.12 523.797 21.12H524.997C525.797 21.12 526.477 20.92 527.037 20.52C527.597 20.08 528.017 19.48 528.297 18.72L532.077 8.4C532.197 7.96 532.257 7.62 532.257 7.38C532.257 6.46 531.677 6 530.517 6H529.317C527.717 6 526.637 6.8 526.077 8.4L522.297 18.72ZM569.906 48C567.026 48 565.586 46.9 565.586 44.7C565.586 43.9 565.766 43 566.126 42L568.766 34.74C565.046 34.54 562.226 33.6 560.306 31.92C558.386 30.24 557.426 27.9 557.426 24.9C557.426 22.5 557.986 19.8 559.106 16.8L563.006 6C563.726 4.04 564.786 2.56 566.186 1.56C567.586 0.519999 569.266 -7.15256e-07 571.226 -7.15256e-07H584.426C587.306 -7.15256e-07 588.746 1.1 588.746 3.3C588.746 4.06 588.566 4.96 588.206 6L580.766 26.4C580.646 26.8 580.586 27.14 580.586 27.42C580.586 28.34 581.166 28.8 582.326 28.8H583.526C585.126 28.8 586.206 28 586.766 26.4L594.206 6C594.926 4.04 595.986 2.56 597.386 1.56C598.786 0.519999 600.466 -7.15256e-07 602.426 -7.15256e-07H615.626C618.506 -7.15256e-07 619.946 1.1 619.946 3.3C619.946 4.06 619.766 4.96 619.406 6L615.506 16.8C613.466 22.36 610.506 26.66 606.626 29.7C602.746 32.74 598.126 34.42 592.766 34.74L590.126 42C589.406 43.96 588.346 45.46 586.946 46.5C585.546 47.5 583.866 48 581.906 48H569.906Z" fill="black"/>
<path d="M23.72 39.6L20.9022 38.5704L20.8719 38.6534L20.8465 38.7379L23.72 39.6ZM29.72 39.6L26.9022 38.5704L26.8952 38.5896L26.8884 38.6089L29.72 39.6ZM41.12 8.4L43.9378 9.42958L43.9811 9.31108L44.0143 9.18936L41.12 8.4ZM35.12 8.4L37.9378 9.42958L37.9448 9.41036L37.9516 9.39105L35.12 8.4ZM6.38 18L3.56005 16.9763L3.55734 16.9838L6.38 18ZM15.86 4.62L14.0968 2.19277L14.0859 2.20078L15.86 4.62ZM61.16 2.52L59.3393 4.9043V4.9043L61.16 2.52ZM62.78 18L59.9695 16.9507L59.9633 16.9673L59.9573 16.9838L62.78 18ZM58.46 30L61.28 31.0237L61.2827 31.0162L58.46 30ZM48.92 43.38L47.1568 40.9528L47.1459 40.9608L48.92 43.38ZM2.06 30L4.87052 31.0493L4.87669 31.0327L4.88266 31.0162L2.06 30ZM20.8465 38.7379C20.6796 39.2945 20.54 39.9426 20.54 40.62H26.54C26.54 40.6896 26.533 40.7122 26.5394 40.6764C26.5454 40.6422 26.5604 40.5724 26.5935 40.4621L20.8465 38.7379ZM20.54 40.62C20.54 41.7512 20.9313 43.07 22.1108 44.0055C23.1577 44.8358 24.384 45 25.28 45V39C25.016 39 25.3723 38.9342 25.8392 39.3045C26.0945 39.507 26.2935 39.7737 26.4144 40.0614C26.5277 40.3308 26.54 40.5397 26.54 40.62H20.54ZM25.28 45H26.48V39H25.28V45ZM26.48 45C27.7969 45 29.1261 44.6622 30.2757 43.8107C31.4111 42.9696 32.1249 41.81 32.5516 40.5911L26.8884 38.6089C26.7551 38.99 26.6489 39.0304 26.7043 38.9893C26.7255 38.9737 26.7393 38.9709 26.7244 38.9753C26.7046 38.9813 26.6304 39 26.48 39V45ZM32.5378 40.6296L43.9378 9.42958L38.3022 7.37042L26.9022 38.5704L32.5378 40.6296ZM44.0143 9.18936C44.1535 8.67891 44.3 8.02826 44.3 7.38H38.3C38.3 7.31783 38.3037 7.27921 38.3047 7.27005C38.3057 7.25981 38.3054 7.26674 38.3007 7.29364C38.2907 7.35018 38.2687 7.45284 38.2257 7.61064L44.0143 9.18936ZM44.3 7.38C44.3 6.24883 43.9087 4.92998 42.7292 3.9945C41.6823 3.16421 40.456 3 39.56 3V9C39.824 9 39.4677 9.06579 39.0008 8.69549C38.7455 8.49303 38.5465 8.22634 38.4256 7.93863C38.3123 7.66917 38.3 7.46029 38.3 7.38H44.3ZM39.56 3H38.36V9H39.56V3ZM38.36 3C37.0431 3 35.7139 3.3378 34.5643 4.18933C33.4289 5.0304 32.7151 6.18998 32.2884 7.40895L37.9516 9.39105C38.0849 9.01002 38.1911 8.96959 38.1357 9.01067C38.1145 9.02634 38.1007 9.0291 38.1156 9.02465C38.1354 9.01875 38.2096 9 38.36 9V3ZM32.3022 7.37042L20.9022 38.5704L26.5378 40.6296L37.9378 9.42958L32.3022 7.37042ZM9.19994 19.0237C11.157 13.6326 13.9993 9.70473 17.6341 7.03921L14.0859 2.20078C9.32071 5.69526 5.84302 10.6874 3.56006 16.9763L9.19994 19.0237ZM17.6232 7.0472C21.2925 4.38174 25.6976 3 30.98 3V-3C24.5824 -3 18.9075 -1.30175 14.0968 2.1928L17.6232 7.0472ZM30.98 3H51.38V-3H30.98V3ZM51.38 3C55.3878 3 57.8829 3.79219 59.3393 4.9043L62.9807 0.135696C60.0371 -2.11219 56.0122 -3 51.38 -3V3ZM59.3393 4.9043C60.654 5.90828 61.46 7.42059 61.46 9.96H67.46C67.46 5.93941 66.066 2.49172 62.9807 0.135695L59.3393 4.9043ZM61.46 9.96C61.46 11.859 61.006 14.1744 59.9695 16.9507L65.5905 19.0493C66.794 15.8256 67.46 12.781 67.46 9.96H61.46ZM59.9573 16.9838L55.6373 28.9838L61.2827 31.0162L65.6027 19.0162L59.9573 16.9838ZM55.6401 28.9763C53.6857 34.36 50.8282 38.2859 47.1568 40.9528L50.6832 45.8072C55.4918 42.3141 58.9943 37.32 61.2799 31.0237L55.6401 28.9763ZM47.1459 40.9608C43.5222 43.6182 39.1429 45 33.86 45V51C40.2571 51 45.9178 49.3018 50.6941 45.7992L47.1459 40.9608ZM33.86 45H13.46V51H33.86V45ZM13.46 45C9.45216 45 6.95708 44.2078 5.50074 43.0957L1.85926 47.8643C4.80292 50.1122 8.82784 51 13.46 51V45ZM5.50074 43.0957C4.18601 42.0917 3.38 40.5794 3.38 38.04H-2.62C-2.62 42.0606 -1.22601 45.5083 1.85926 47.8643L5.50074 43.0957ZM3.38 38.04C3.38 36.141 3.83403 33.8256 4.87052 31.0493L-0.750524 28.9507C-1.95403 32.1744 -2.62 35.219 -2.62 38.04H3.38ZM4.88266 31.0162L9.20266 19.0162L3.55734 16.9838L-0.762662 28.9838L4.88266 31.0162ZM98.4209 6L101.24 7.02684L101.248 7.00415L101.256 6.98133L98.4209 6ZM86.1809 39.6L83.3621 38.5732L83.3324 38.6548L83.3075 38.7379L86.1809 39.6ZM92.1809 39.6L89.3621 38.5732L89.3556 38.591L89.3494 38.6089L92.1809 39.6ZM104.421 6L101.605 4.96554L101.602 4.97315L104.421 6ZM107.601 1.56L109.345 4.0012L109.367 3.98492L109.39 3.96823L107.601 1.56ZM129.621 6L132.44 7.02613L132.448 7.0038L132.456 6.98134L129.621 6ZM118.701 36L115.882 34.9739L115.879 34.9818L118.701 36ZM112.401 44.94L114.168 47.3647L114.179 47.3565L114.19 47.3482L112.401 44.94ZM63.3809 46.32L61.5391 48.6881L61.5548 48.7002L61.5706 48.7122L63.3809 46.32ZM62.3009 36L59.4819 34.9739L59.4769 34.9877L59.472 35.0015L62.3009 36ZM73.2209 6L70.4049 4.96554L70.4019 4.97386L73.2209 6ZM76.4009 1.56L78.1447 4.0012L78.1674 3.98492L78.1899 3.96823L76.4009 1.56ZM94.6409 3C95.1798 3 95.551 3.05246 95.7907 3.11348C96.0265 3.17352 96.086 3.229 96.0598 3.20901C96.0175 3.17671 95.9666 3.11399 95.9413 3.05608C95.9238 3.01595 95.9609 3.07346 95.9609 3.3H101.961C101.961 1.48845 101.326 -0.318342 99.7021 -1.55902C98.2307 -2.68295 96.3782 -3 94.6409 -3V3ZM95.9609 3.3C95.9609 3.6126 95.8813 4.16559 95.586 5.01867L101.256 6.98133C101.681 5.75441 101.961 4.5074 101.961 3.3H95.9609ZM95.6021 4.97315L83.3621 38.5732L88.9997 40.6268L101.24 7.02684L95.6021 4.97315ZM83.3075 38.7379C83.1405 39.2945 83.0009 39.9426 83.0009 40.62H89.0009C89.0009 40.6896 88.994 40.7122 89.0003 40.6764C89.0063 40.6422 89.0213 40.5724 89.0544 40.4621L83.3075 38.7379ZM83.0009 40.62C83.0009 41.7512 83.3922 43.07 84.5718 44.0055C85.6187 44.8358 86.8449 45 87.7409 45V39C87.477 39 87.8332 38.9342 88.3001 39.3045C88.5554 39.507 88.7544 39.7737 88.8754 40.0614C88.9886 40.3308 89.0009 40.5397 89.0009 40.62H83.0009ZM87.7409 45H88.9409V39H87.7409V45ZM88.9409 45C90.2579 45 91.5871 44.6622 92.7366 43.8107C93.8721 42.9696 94.5859 41.81 95.0125 40.5911L89.3494 38.6089C89.216 38.99 89.1098 39.0304 89.1653 38.9893C89.1864 38.9737 89.2002 38.9709 89.1853 38.9753C89.1655 38.9813 89.0914 39 88.9409 39V45ZM94.9997 40.6268L107.24 7.02684L101.602 4.97315L89.3621 38.5732L94.9997 40.6268ZM107.237 7.03445C107.794 5.51788 108.532 4.58178 109.345 4.0012L105.857 -0.881203C103.87 0.538216 102.488 2.56211 101.605 4.96554L107.237 7.03445ZM109.39 3.96823C110.209 3.35954 111.242 3 112.641 3V-3C110.12 -3 107.793 -2.31955 105.812 -0.848234L109.39 3.96823ZM112.641 3H125.841V-3H112.641V3ZM125.841 3C126.38 3 126.751 3.05246 126.991 3.11348C127.226 3.17352 127.286 3.229 127.26 3.20901C127.218 3.17671 127.167 3.11399 127.141 3.05608C127.124 3.01595 127.161 3.07346 127.161 3.3H133.161C133.161 1.48845 132.526 -0.318344 130.902 -1.55902C129.431 -2.68295 127.578 -3 125.841 -3V3ZM127.161 3.3C127.161 3.61259 127.081 4.16558 126.786 5.01866L132.456 6.98134C132.881 5.75442 133.161 4.5074 133.161 3.3H127.161ZM126.802 4.97386L115.882 34.9739L121.52 37.0261L132.44 7.02613L126.802 4.97386ZM115.879 34.9818C114.642 38.4102 112.857 40.8637 110.612 42.5318L114.19 47.3482C117.544 44.8563 119.96 41.3498 121.523 37.0182L115.879 34.9818ZM110.634 42.5153C108.414 44.1332 105.693 45 102.321 45V51C106.789 51 110.788 49.8268 114.168 47.3647L110.634 42.5153ZM102.321 45H69.9209V51H102.321V45ZM69.9209 45C67.356 45 65.9328 44.489 65.1913 43.9278L61.5706 48.7122C63.789 50.391 66.7259 51 69.9209 51V45ZM65.2228 43.9519C64.6664 43.5192 64.2209 42.8268 64.2209 41.34H58.2209C58.2209 44.2532 59.2155 46.8808 61.5391 48.6881L65.2228 43.9519ZM64.2209 41.34C64.2209 40.2709 64.4792 38.8422 65.1299 36.9985L59.472 35.0015C58.6827 37.2378 58.2209 39.3691 58.2209 41.34H64.2209ZM65.12 37.0261L76.04 7.02613L70.4019 4.97386L59.4819 34.9739L65.12 37.0261ZM76.0369 7.03445C76.5941 5.51788 77.3318 4.58178 78.1447 4.0012L74.6572 -0.881203C72.67 0.538216 71.2878 2.56212 70.4049 4.96554L76.0369 7.03445ZM78.1899 3.96823C79.0093 3.35954 80.0417 3 81.4409 3V-3C78.9202 -3 76.5926 -2.31954 74.612 -0.848236L78.1899 3.96823ZM81.4409 3H94.6409V-3H81.4409V3ZM122.543 42L119.724 40.9755L119.721 40.9838L122.543 42ZM135.623 6L132.807 4.96554L132.804 4.97552L135.623 6ZM138.803 1.56L140.547 4.0012L140.57 3.98492L140.592 3.96823L138.803 1.56ZM187.703 1.44L186.007 3.91418L186.031 3.93089L186.056 3.94712L187.703 1.44ZM188.123 13.44L185.313 12.3907L185.309 12.4L185.306 12.4093L188.123 13.44ZM181.883 24L183.886 26.2337L183.888 26.2318L181.883 24ZM165.143 27.12V24.12H163.048L162.327 26.0872L165.143 27.12ZM164.483 28.92L161.667 27.8872L161.636 27.9717L161.61 28.0579L164.483 28.92ZM179.423 37.32L182.247 38.3336L182.253 38.3175L182.258 38.3013L179.423 37.32ZM177.743 42L180.559 43.0345L180.563 43.024L180.567 43.0136L177.743 42ZM174.563 46.5L176.307 48.9412L176.33 48.9249L176.352 48.9082L174.563 46.5ZM156.983 46.32L155.141 48.6881L155.157 48.7002L155.173 48.7122L156.983 46.32ZM155.903 36L153.085 34.9717L153.08 34.9866L153.074 35.0015L155.903 36ZM159.143 27.12L161.962 28.1483L163.431 24.12H159.143V27.12ZM153.143 27.12V24.12H151.041L150.323 26.0966L153.143 27.12ZM147.743 42L150.559 43.0345L150.563 43.0234L147.743 42ZM144.563 46.5L146.307 48.9412L146.33 48.9249L146.352 48.9082L144.563 46.5ZM156.203 18.72L153.386 17.6882L153.349 17.7908L153.319 17.8958L156.203 18.72ZM160.943 20.52L162.687 22.9612L162.743 22.9213L162.797 22.879L160.943 20.52ZM162.203 18.72L165.018 19.7571L165.02 19.7518L162.203 18.72ZM165.983 8.4L168.8 9.4318L168.844 9.31222L168.878 9.18936L165.983 8.4ZM159.983 8.4L162.8 9.4318L162.808 9.41148L162.815 9.39105L159.983 8.4ZM126.323 45C125.784 45 125.413 44.9475 125.174 44.8865C124.938 44.8265 124.878 44.771 124.904 44.791C124.947 44.8233 124.998 44.886 125.023 44.9439C125.04 44.9841 125.003 44.9265 125.003 44.7H119.003C119.003 46.5115 119.638 48.3183 121.262 49.559C122.733 50.683 124.586 51 126.323 51V45ZM125.003 44.7C125.003 44.3393 125.087 43.7909 125.366 43.0162L119.721 40.9838C119.28 42.2091 119.003 43.4607 119.003 44.7H125.003ZM125.363 43.0245L138.443 7.02447L132.804 4.97552L119.724 40.9755L125.363 43.0245ZM138.439 7.03445C138.996 5.51788 139.734 4.58178 140.547 4.0012L137.06 -0.881203C135.072 0.538216 133.69 2.56212 132.807 4.96554L138.439 7.03445ZM140.592 3.96823C141.412 3.35954 142.444 3 143.843 3V-3C141.322 -3 138.995 -2.31954 137.014 -0.848236L140.592 3.96823ZM143.843 3H181.043V-3H143.843V3ZM181.043 3C183.896 3 185.366 3.47458 186.007 3.91418L189.4 -1.03419C187.241 -2.51459 184.271 -3 181.043 -3V3ZM186.056 3.94712C186.403 4.17531 186.803 4.59207 186.803 5.94H192.803C192.803 3.12792 191.804 0.544689 189.351 -1.06712L186.056 3.94712ZM186.803 5.94C186.803 7.43183 186.374 9.54926 185.313 12.3907L190.934 14.4893C192.113 11.3307 192.803 8.44817 192.803 5.94H186.803ZM185.306 12.4093C183.577 17.134 181.709 20.1237 179.878 21.7682L183.888 26.2318C186.777 23.6363 189.069 19.586 190.941 14.4707L185.306 12.4093ZM179.881 21.7663C178.22 23.2553 175.945 24.12 172.763 24.12V30.12C177.102 30.12 180.907 28.9047 183.886 26.2337L179.881 21.7663ZM172.763 24.12H165.143V30.12H172.763V24.12ZM162.327 26.0872L161.667 27.8872L167.3 29.9528L167.96 28.1528L162.327 26.0872ZM161.61 28.0579C161.443 28.6145 161.303 29.2626 161.303 29.94H167.303C167.303 30.0096 167.296 30.0322 167.303 29.9964C167.309 29.9622 167.324 29.8924 167.357 29.782L161.61 28.0579ZM161.303 29.94C161.303 31.0712 161.695 32.39 162.874 33.3255C163.921 34.1558 165.147 34.32 166.043 34.32V28.32C165.779 28.32 166.136 28.2542 166.602 28.6245C166.858 28.827 167.057 29.0937 167.178 29.3814C167.291 29.6508 167.303 29.8597 167.303 29.94H161.303ZM166.043 34.32H175.643V28.32H166.043V34.32ZM175.643 34.32C176.182 34.32 176.553 34.3725 176.793 34.4335C177.029 34.4935 177.088 34.549 177.062 34.529C177.02 34.4967 176.969 34.434 176.944 34.3761C176.926 34.3359 176.963 34.3935 176.963 34.62H182.963C182.963 32.8085 182.329 31.0017 180.704 29.761C179.233 28.637 177.381 28.32 175.643 28.32V34.32ZM176.963 34.62C176.963 34.9326 176.884 35.4856 176.588 36.3387L182.258 38.3013C182.683 37.0744 182.963 35.8274 182.963 34.62H176.963ZM176.6 36.3064L174.92 40.9864L180.567 43.0136L182.247 38.3336L176.6 36.3064ZM174.927 40.9655C174.368 42.487 173.62 43.4636 172.774 44.0918L176.352 48.9082C178.307 47.4564 179.678 45.433 180.559 43.0345L174.927 40.9655ZM172.82 44.0588C171.997 44.6461 170.948 45 169.523 45V51C172.018 51 174.329 50.3539 176.307 48.9412L172.82 44.0588ZM169.523 45H163.523V51H169.523V45ZM163.523 45C160.958 45 159.535 44.489 158.794 43.9278L155.173 48.7122C157.391 50.391 160.328 51 163.523 51V45ZM158.825 43.9519C158.269 43.5192 157.823 42.8268 157.823 41.34H151.823C151.823 44.2532 152.818 46.8808 155.141 48.6881L158.825 43.9519ZM157.823 41.34C157.823 40.2709 158.082 38.8422 158.732 36.9985L153.074 35.0015C152.285 37.2378 151.823 39.3691 151.823 41.34H157.823ZM158.722 37.0283L161.962 28.1483L156.325 26.0917L153.085 34.9717L158.722 37.0283ZM159.143 24.12H153.143V30.12H159.143V24.12ZM150.323 26.0966L144.923 40.9766L150.563 43.0234L155.963 28.1434L150.323 26.0966ZM144.927 40.9655C144.368 42.487 143.62 43.4636 142.774 44.0918L146.352 48.9082C148.307 47.4564 149.678 45.433 150.559 43.0345L144.927 40.9655ZM142.82 44.0588C141.997 44.6461 140.948 45 139.523 45V51C142.018 51 144.329 50.3539 146.307 48.9412L142.82 44.0588ZM139.523 45H126.323V51H139.523V45ZM153.319 17.8958C153.231 18.2045 153.153 18.4978 153.095 18.7592C153.052 18.9492 152.963 19.3612 152.963 19.8H158.963C158.963 19.8993 158.957 19.9746 158.954 20.015C158.949 20.0582 158.945 20.0874 158.943 20.0987C158.94 20.119 158.941 20.1097 158.952 20.0608C158.974 19.9622 159.016 19.7955 159.088 19.5442L153.319 17.8958ZM152.963 19.8C152.963 20.9592 153.389 22.2723 154.585 23.1801C155.625 23.9692 156.829 24.12 157.703 24.12V18.12C157.417 18.12 157.751 18.0508 158.211 18.3999C158.469 18.5953 158.684 18.8635 158.819 19.1707C158.946 19.4603 158.963 19.694 158.963 19.8H152.963ZM157.703 24.12H158.903V18.12H157.703V24.12ZM158.903 24.12C160.224 24.12 161.539 23.7812 162.687 22.9612L159.2 18.0788C159.198 18.0801 159.196 18.0809 159.194 18.082C159.192 18.0832 159.183 18.087 159.167 18.0919C159.134 18.1014 159.053 18.12 158.903 18.12V24.12ZM162.797 22.879C163.851 22.0506 164.573 20.965 165.018 19.7571L159.388 17.6829C159.273 17.995 159.156 18.1094 159.09 18.161L162.797 22.879ZM165.02 19.7518L168.8 9.4318L163.166 7.3682L159.386 17.6882L165.02 19.7518ZM168.878 9.18936C169.017 8.67891 169.163 8.02826 169.163 7.38H163.163C163.163 7.31783 163.167 7.27921 163.168 7.27005C163.169 7.25981 163.169 7.26674 163.164 7.29364C163.154 7.35018 163.132 7.45284 163.089 7.61064L168.878 9.18936ZM169.163 7.38C169.163 6.24883 168.772 4.92998 167.592 3.9945C166.546 3.16421 165.319 3 164.423 3V9C164.687 9 164.331 9.06579 163.864 8.69549C163.609 8.49303 163.41 8.22634 163.289 7.93863C163.176 7.66917 163.163 7.46029 163.163 7.38H169.163ZM164.423 3H163.223V9H164.423V3ZM163.223 3C161.906 3 160.577 3.3378 159.428 4.18933C158.292 5.0304 157.578 6.18998 157.152 7.40895L162.815 9.39105C162.948 9.01002 163.054 8.96959 162.999 9.01067C162.978 9.02634 162.964 9.0291 162.979 9.02465C162.999 9.01875 163.073 9 163.223 9V3ZM157.166 7.3682L153.386 17.6882L159.02 19.7518L162.8 9.4318L157.166 7.3682ZM200.224 30L203.035 31.0493L203.041 31.0327L203.047 31.0162L200.224 30ZM204.544 18L201.724 16.9763L201.721 16.9838L204.544 18ZM214.024 4.62L212.261 2.19277L212.25 2.20078L214.024 4.62ZM259.804 2.34L258.13 4.82952L258.145 4.83954L258.16 4.84938L259.804 2.34ZM262.084 15L264.9 16.0345L264.908 16.0139L264.915 15.9933L262.084 15ZM258.904 19.5L260.648 21.9412L260.671 21.9249L260.693 21.9082L258.904 19.5ZM236.884 15L234.065 13.9748L234.061 13.9838L236.884 15ZM239.284 8.4L242.103 9.42523L242.146 9.30884L242.178 9.18936L239.284 8.4ZM233.284 8.4L236.102 9.42958L236.109 9.41036L236.116 9.39105L233.284 8.4ZM221.884 39.6L219.066 38.5704L219.036 38.6534L219.011 38.7379L221.884 39.6ZM227.884 39.6L225.067 38.5672L225.06 38.588L225.052 38.6089L227.884 39.6ZM230.524 32.4L233.341 33.4328L234.819 29.4H230.524V32.4ZM228.124 30L230.865 31.2184L230.915 31.1066L230.956 30.991L228.124 30ZM228.544 28.8L225.712 27.8089L225.712 27.809L228.544 28.8ZM255.724 32.4L258.541 33.4328L258.55 33.4071L258.559 33.3813L255.724 32.4ZM254.404 36L251.587 34.9672L251.585 34.9745L251.582 34.9818L254.404 36ZM248.104 44.94L249.871 47.3647L249.882 47.3565L249.893 47.3482L248.104 44.94ZM211.624 45C207.616 45 205.121 44.2078 203.665 43.0957L200.023 47.8643C202.967 50.1122 206.992 51 211.624 51V45ZM203.665 43.0957C202.35 42.0917 201.544 40.5794 201.544 38.04H195.544C195.544 42.0606 196.938 45.5083 200.023 47.8643L203.665 43.0957ZM201.544 38.04C201.544 36.141 201.998 33.8256 203.035 31.0493L197.414 28.9507C196.21 32.1744 195.544 35.219 195.544 38.04H201.544ZM203.047 31.0162L207.367 19.0162L201.721 16.9838L197.401 28.9838L203.047 31.0162ZM207.364 19.0237C209.321 13.6326 212.163 9.70473 215.798 7.03921L212.25 2.20078C207.485 5.69526 204.007 10.6874 201.724 16.9763L207.364 19.0237ZM215.787 7.0472C219.457 4.38174 223.862 3 229.144 3V-3C222.747 -3 217.072 -1.30175 212.261 2.1928L215.787 7.0472ZM229.144 3H249.544V-3H229.144V3ZM249.544 3C253.803 3 256.524 3.74987 258.13 4.82952L261.478 -0.14953C258.444 -2.18988 254.325 -3 249.544 -3V3ZM258.16 4.84938C259.568 5.77196 260.284 7.03041 260.284 9.06H266.284C266.284 5.16959 264.68 1.94803 261.448 -0.169386L258.16 4.84938ZM260.284 9.06C260.284 10.2887 259.986 11.9182 259.253 14.0067L264.915 15.9933C265.782 13.5218 266.284 11.1913 266.284 9.06H260.284ZM259.268 13.9655C258.709 15.487 257.961 16.4636 257.115 17.0918L260.693 21.9082C262.647 20.4564 264.019 18.433 264.9 16.0345L259.268 13.9655ZM257.16 17.0588C256.338 17.6461 255.289 18 253.864 18V24C256.359 24 258.67 23.3539 260.648 21.9412L257.16 17.0588ZM253.864 18H240.664V24H253.864V18ZM240.664 18C240.125 18 239.754 17.9475 239.514 17.8865C239.279 17.8265 239.219 17.771 239.245 17.791C239.287 17.8233 239.338 17.886 239.364 17.9439C239.381 17.9841 239.344 17.9265 239.344 17.7H233.344C233.344 19.5115 233.979 21.3183 235.603 22.559C237.074 23.6829 238.927 24 240.664 24V18ZM239.344 17.7C239.344 17.3393 239.428 16.7909 239.707 16.0162L234.061 13.9838C233.62 15.2091 233.344 16.4607 233.344 17.7H239.344ZM239.703 16.0252L242.103 9.42523L236.465 7.37477L234.065 13.9748L239.703 16.0252ZM242.178 9.18936C242.318 8.67891 242.464 8.02826 242.464 7.38H236.464C236.464 7.31783 236.468 7.27921 236.469 7.27005C236.47 7.25981 236.469 7.26674 236.465 7.29364C236.455 7.35018 236.433 7.45284 236.39 7.61064L242.178 9.18936ZM242.464 7.38C242.464 6.24883 242.073 4.92998 240.893 3.9945C239.846 3.16421 238.62 3 237.724 3V9C237.988 9 237.632 9.06579 237.165 8.69549C236.91 8.49303 236.711 8.22634 236.59 7.93863C236.476 7.66917 236.464 7.46029 236.464 7.38H242.464ZM237.724 3H236.524V9H237.724V3ZM236.524 3C235.207 3 233.878 3.3378 232.728 4.18933C231.593 5.0304 230.879 6.18998 230.452 7.40895L236.116 9.39105C236.249 9.01002 236.355 8.96959 236.3 9.01067C236.279 9.02634 236.265 9.0291 236.28 9.02465C236.299 9.01875 236.374 9 236.524 9V3ZM230.466 7.37042L219.066 38.5704L224.702 40.6296L236.102 9.42958L230.466 7.37042ZM219.011 38.7379C218.844 39.2945 218.704 39.9426 218.704 40.62H224.704C224.704 40.6896 224.697 40.7122 224.703 40.6764C224.709 40.6422 224.724 40.5724 224.758 40.4621L219.011 38.7379ZM218.704 40.62C218.704 41.7512 219.095 43.07 220.275 44.0055C221.322 44.8358 222.548 45 223.444 45V39C223.18 39 223.536 38.9342 224.003 39.3045C224.259 39.507 224.458 39.7737 224.578 40.0614C224.692 40.3308 224.704 40.5397 224.704 40.62H218.704ZM223.444 45H224.644V39H223.444V45ZM224.644 45C225.961 45 227.29 44.6622 228.44 43.8107C229.575 42.9696 230.289 41.81 230.716 40.5911L225.052 38.6089C224.919 38.99 224.813 39.0304 224.868 38.9893C224.89 38.9737 224.903 38.9709 224.888 38.9753C224.869 38.9813 224.794 39 224.644 39V45ZM230.701 40.6328L233.341 33.4328L227.707 31.3672L225.067 38.5672L230.701 40.6328ZM230.524 29.4H229.624V35.4H230.524V29.4ZM229.624 29.4C229.338 29.4 229.672 29.3308 230.132 29.6799C230.39 29.8753 230.604 30.1435 230.739 30.4507C230.867 30.7403 230.884 30.974 230.884 31.08H224.884C224.884 32.2392 225.309 33.5523 226.506 34.4601C227.546 35.2492 228.75 35.4 229.624 35.4V29.4ZM230.884 31.08C230.884 31.1242 230.879 31.1623 230.873 31.1908C230.866 31.2185 230.861 31.2282 230.865 31.2184L225.383 28.7816C225.068 29.4886 224.884 30.262 224.884 31.08H230.884ZM230.956 30.991L231.376 29.791L225.712 27.809L225.292 29.009L230.956 30.991ZM231.376 29.791C231.509 29.41 231.615 29.3696 231.56 29.4107C231.539 29.4263 231.525 29.4291 231.54 29.4247C231.559 29.4188 231.634 29.4 231.784 29.4V23.4C230.467 23.4 229.138 23.7378 227.988 24.5893C226.853 25.4304 226.139 26.59 225.712 27.8089L231.376 29.791ZM231.784 29.4H251.884V23.4H231.784V29.4ZM251.884 29.4C252.432 29.4 252.811 29.4536 253.057 29.5165C253.299 29.5784 253.364 29.6365 253.343 29.6203C253.306 29.5918 253.26 29.5349 253.239 29.4856C253.225 29.4541 253.264 29.5219 253.264 29.76H259.264C259.264 27.9331 258.628 26.1121 256.995 24.8597C255.513 23.7228 253.643 23.4 251.884 23.4V29.4ZM253.264 29.76C253.264 30.0184 253.191 30.5456 252.889 31.4187L258.559 33.3813C258.977 32.1744 259.264 30.9416 259.264 29.76H253.264ZM252.907 31.3672L251.587 34.9672L257.221 37.0328L258.541 33.4328L252.907 31.3672ZM251.582 34.9818C250.345 38.4102 248.561 40.8637 246.315 42.5318L249.893 47.3482C253.248 44.8563 255.663 41.3498 257.226 37.0182L251.582 34.9818ZM246.337 42.5153C244.117 44.1332 241.396 45 238.024 45V51C242.492 51 246.491 49.8268 249.871 47.3647L246.337 42.5153ZM238.024 45H211.624V51H238.024V45ZM258.305 42L255.485 40.9776L255.482 40.9838L258.305 42ZM267.005 18L264.185 16.9763L264.185 16.9776L267.005 18ZM276.485 4.62L274.722 2.19277L274.711 2.20078L276.485 4.62ZM321.785 2.52L319.964 4.9043V4.9043L321.785 2.52ZM323.405 18L320.594 16.9507L320.589 16.9641L320.585 16.9776L323.405 18ZM314.705 42L317.521 43.0345L317.525 43.0224L314.705 42ZM311.525 46.5L313.269 48.9412L313.292 48.9249L313.314 48.9082L311.525 46.5ZM289.505 42L286.684 40.9779L286.682 40.9838L289.505 42ZM294.245 28.92L297.066 29.9421L298.523 25.92H294.245V28.92ZM288.245 28.92V25.92H286.141L285.424 27.8979L288.245 28.92ZM283.505 42L286.321 43.0345L286.326 43.0221L283.505 42ZM280.325 46.5L282.069 48.9412L282.091 48.9249L282.114 48.9082L280.325 46.5ZM296.465 22.92V25.92H298.566L299.284 23.9452L296.465 22.92ZM301.745 8.4L304.564 9.42523L304.607 9.30884L304.639 9.18936L301.745 8.4ZM295.745 8.4L298.564 9.42523L298.571 9.40818L298.577 9.39105L295.745 8.4ZM290.465 22.92L287.646 21.8948L286.182 25.92H290.465V22.92ZM262.085 45C261.546 45 261.175 44.9475 260.935 44.8865C260.699 44.8265 260.64 44.771 260.666 44.791C260.708 44.8233 260.759 44.886 260.785 44.9439C260.802 44.9841 260.765 44.9265 260.765 44.7H254.765C254.765 46.5115 255.4 48.3183 257.024 49.559C258.495 50.683 260.348 51 262.085 51V45ZM260.765 44.7C260.765 44.3393 260.849 43.7909 261.128 43.0162L255.482 40.9838C255.041 42.2091 254.765 43.4607 254.765 44.7H260.765ZM261.125 43.0224L269.825 19.0224L264.185 16.9776L255.485 40.9776L261.125 43.0224ZM269.825 19.0237C271.782 13.6326 274.624 9.70473 278.259 7.03921L274.711 2.20078C269.946 5.69526 266.468 10.6874 264.185 16.9763L269.825 19.0237ZM278.248 7.0472C281.917 4.38174 286.323 3 291.605 3V-3C285.207 -3 279.533 -1.30175 274.722 2.1928L278.248 7.0472ZM291.605 3H312.005V-3H291.605V3ZM312.005 3C316.013 3 318.508 3.79219 319.964 4.9043L323.606 0.135696C320.662 -2.11219 316.637 -3 312.005 -3V3ZM319.964 4.9043C321.279 5.90828 322.085 7.42059 322.085 9.96H328.085C328.085 5.93941 326.691 2.49172 323.606 0.135695L319.964 4.9043ZM322.085 9.96C322.085 11.859 321.631 14.1744 320.594 16.9507L326.216 19.0493C327.419 15.8256 328.085 12.781 328.085 9.96H322.085ZM320.585 16.9776L311.885 40.9776L317.525 43.0224L326.225 19.0224L320.585 16.9776ZM311.889 40.9655C311.33 42.487 310.582 43.4636 309.736 44.0918L313.314 48.9082C315.268 47.4564 316.64 45.433 317.521 43.0345L311.889 40.9655ZM309.781 44.0588C308.959 44.6461 307.91 45 306.485 45V51C308.98 51 311.291 50.3539 313.269 48.9412L309.781 44.0588ZM306.485 45H293.285V51H306.485V45ZM293.285 45C292.746 45 292.375 44.9475 292.135 44.8865C291.899 44.8265 291.84 44.771 291.866 44.791C291.908 44.8233 291.959 44.886 291.985 44.9439C292.002 44.9841 291.965 44.9265 291.965 44.7H285.965C285.965 46.5115 286.6 48.3183 288.224 49.559C289.695 50.683 291.548 51 293.285 51V45ZM291.965 44.7C291.965 44.3393 292.049 43.7909 292.328 43.0162L286.682 40.9838C286.241 42.2091 285.965 43.4607 285.965 44.7H291.965ZM292.326 43.0221L297.066 29.9421L291.424 27.8979L286.684 40.9779L292.326 43.0221ZM294.245 25.92H288.245V31.92H294.245V25.92ZM285.424 27.8979L280.684 40.9779L286.326 43.0221L291.066 29.9421L285.424 27.8979ZM280.689 40.9655C280.13 42.487 279.382 43.4636 278.536 44.0918L282.114 48.9082C284.068 47.4564 285.44 45.433 286.321 43.0345L280.689 40.9655ZM278.581 44.0588C277.759 44.6461 276.71 45 275.285 45V51C277.78 51 280.091 50.3539 282.069 48.9412L278.581 44.0588ZM275.285 45H262.085V51H275.285V45ZM299.284 23.9452L304.564 9.42523L298.926 7.37477L293.646 21.8948L299.284 23.9452ZM304.639 9.18936C304.779 8.67891 304.925 8.02826 304.925 7.38H298.925C298.925 7.31783 298.929 7.27921 298.93 7.27005C298.931 7.25981 298.93 7.26674 298.926 7.29364C298.916 7.35018 298.894 7.45284 298.851 7.61064L304.639 9.18936ZM304.925 7.38C304.925 6.24883 304.534 4.92998 303.354 3.9945C302.307 3.16421 301.081 3 300.185 3V9C300.449 9 300.093 9.06579 299.626 8.69549C299.371 8.49303 299.172 8.22634 299.051 7.93863C298.937 7.66917 298.925 7.46029 298.925 7.38H304.925ZM300.185 3H298.985V9H300.185V3ZM298.985 3C297.668 3 296.339 3.3378 295.189 4.18933C294.054 5.0304 293.34 6.18998 292.913 7.40895L298.577 9.39105C298.71 9.01002 298.816 8.96959 298.761 9.01067C298.74 9.02634 298.726 9.0291 298.741 9.02465C298.76 9.01875 298.835 9 298.985 9V3ZM292.926 7.37477L287.646 21.8948L293.284 23.9452L298.564 9.42523L292.926 7.37477ZM290.465 25.92H296.465V19.92H290.465V25.92ZM324.006 46.32L322.164 48.6881L322.18 48.7002L322.196 48.7122L324.006 46.32ZM322.926 36L320.107 34.9739L320.102 34.9877L320.097 35.0015L322.926 36ZM333.846 6L331.03 4.96554L331.027 4.97386L333.846 6ZM337.026 1.56L338.77 4.0012L338.792 3.98492L338.815 3.96823L337.026 1.56ZM359.046 6L361.865 7.02742L361.873 7.00444L361.881 6.98133L359.046 6ZM352.266 24.6L349.447 23.5726L347.979 27.6H352.266V24.6ZM373.806 30.6L376.626 31.624L376.633 31.6027L376.641 31.5813L373.806 30.6ZM369.666 42L372.482 43.0345L372.486 43.024L369.666 42ZM366.486 46.5L368.23 48.9412L368.252 48.9249L368.275 48.9082L366.486 46.5ZM330.546 45C327.981 45 326.558 44.489 325.816 43.9278L322.196 48.7122C324.414 50.391 327.351 51 330.546 51V45ZM325.848 43.9519C325.291 43.5192 324.846 42.8268 324.846 41.34H318.846C318.846 44.2532 319.841 46.8808 322.164 48.6881L325.848 43.9519ZM324.846 41.34C324.846 40.2709 325.104 38.8422 325.755 36.9985L320.097 35.0015C319.308 37.2378 318.846 39.3691 318.846 41.34H324.846ZM325.745 37.0261L336.665 7.02613L331.027 4.97386L320.107 34.9739L325.745 37.0261ZM336.662 7.03445C337.219 5.51788 337.957 4.58178 338.77 4.0012L335.282 -0.881203C333.295 0.538216 331.913 2.56212 331.03 4.96554L336.662 7.03445ZM338.815 3.96823C339.634 3.35954 340.667 3 342.066 3V-3C339.545 -3 337.218 -2.31954 335.237 -0.848236L338.815 3.96823ZM342.066 3H355.266V-3H342.066V3ZM355.266 3C355.805 3 356.176 3.05246 356.416 3.11348C356.651 3.17352 356.711 3.229 356.685 3.20901C356.643 3.17671 356.592 3.11399 356.566 3.05608C356.549 3.01595 356.586 3.07346 356.586 3.3H362.586C362.586 1.48845 361.951 -0.318342 360.327 -1.55902C358.856 -2.68295 357.003 -3 355.266 -3V3ZM356.586 3.3C356.586 3.6126 356.506 4.16559 356.211 5.01867L361.881 6.98133C362.306 5.75441 362.586 4.5074 362.586 3.3H356.586ZM356.227 4.97258L349.447 23.5726L355.085 25.6274L361.865 7.02742L356.227 4.97258ZM352.266 27.6H369.966V21.6H352.266V27.6ZM369.966 27.6C370.514 27.6 370.893 27.6536 371.139 27.7165C371.381 27.7784 371.446 27.8365 371.425 27.8203C371.388 27.7918 371.342 27.7349 371.321 27.6856C371.307 27.6541 371.346 27.722 371.346 27.96H377.346C377.346 26.1331 376.71 24.3121 375.077 23.0597C373.595 21.9228 371.725 21.6 369.966 21.6V27.6ZM371.346 27.96C371.346 28.2184 371.273 28.7456 370.971 29.6187L376.641 31.5813C377.059 30.3744 377.346 29.1416 377.346 27.96H371.346ZM370.986 29.576L366.846 40.976L372.486 43.024L376.626 31.624L370.986 29.576ZM366.85 40.9655C366.291 42.487 365.543 43.4636 364.697 44.0918L368.275 48.9082C370.229 47.4564 371.601 45.433 372.482 43.0345L366.85 40.9655ZM364.742 44.0588C363.92 44.6461 362.871 45 361.446 45V51C363.941 51 366.252 50.3539 368.23 48.9412L364.742 44.0588ZM361.446 45H330.546V51H361.446V45ZM378.967 46.32L377.125 48.6881L377.141 48.7002L377.157 48.7122L378.967 46.32ZM377.887 36L375.068 34.9739L375.063 34.9877L375.058 35.0015L377.887 36ZM388.807 6L385.991 4.96554L385.988 4.97386L388.807 6ZM391.987 1.56L393.731 4.0012L393.753 3.98492L393.776 3.96823L391.987 1.56ZM414.007 6L416.825 7.02742L416.834 7.00444L416.842 6.98133L414.007 6ZM407.227 24.6L404.408 23.5726L402.94 27.6H407.227V24.6ZM428.767 30.6L431.587 31.624L431.594 31.6027L431.602 31.5813L428.767 30.6ZM424.627 42L427.443 43.0345L427.447 43.024L424.627 42ZM421.447 46.5L423.191 48.9412L423.213 48.9249L423.236 48.9082L421.447 46.5ZM385.507 45C382.942 45 381.519 44.489 380.777 43.9278L377.157 48.7122C379.375 50.391 382.312 51 385.507 51V45ZM380.809 43.9519C380.252 43.5192 379.807 42.8268 379.807 41.34H373.807C373.807 44.2532 374.801 46.8808 377.125 48.6881L380.809 43.9519ZM379.807 41.34C379.807 40.2709 380.065 38.8422 380.716 36.9985L375.058 35.0015C374.269 37.2378 373.807 39.3691 373.807 41.34H379.807ZM380.706 37.0261L391.626 7.02613L385.988 4.97386L375.068 34.9739L380.706 37.0261ZM391.623 7.03445C392.18 5.51788 392.918 4.58178 393.731 4.0012L390.243 -0.881203C388.256 0.538216 386.874 2.56212 385.991 4.96554L391.623 7.03445ZM393.776 3.96823C394.595 3.35954 395.628 3 397.027 3V-3C394.506 -3 392.179 -2.31954 390.198 -0.848236L393.776 3.96823ZM397.027 3H410.227V-3H397.027V3ZM410.227 3C410.766 3 411.137 3.05246 411.377 3.11348C411.612 3.17352 411.672 3.229 411.646 3.20901C411.603 3.17671 411.553 3.11399 411.527 3.05608C411.51 3.01595 411.547 3.07346 411.547 3.3H417.547C417.547 1.48845 416.912 -0.318342 415.288 -1.55902C413.817 -2.68295 411.964 -3 410.227 -3V3ZM411.547 3.3C411.547 3.6126 411.467 4.16559 411.172 5.01867L416.842 6.98133C417.267 5.75441 417.547 4.5074 417.547 3.3H411.547ZM411.188 4.97258L404.408 23.5726L410.045 25.6274L416.825 7.02742L411.188 4.97258ZM407.227 27.6H424.927V21.6H407.227V27.6ZM424.927 27.6C425.475 27.6 425.854 27.6536 426.1 27.7165C426.342 27.7784 426.407 27.8365 426.386 27.8203C426.349 27.7918 426.303 27.7349 426.282 27.6856C426.268 27.6541 426.307 27.722 426.307 27.96H432.307C432.307 26.1331 431.67 24.3121 430.038 23.0597C428.556 21.9228 426.686 21.6 424.927 21.6V27.6ZM426.307 27.96C426.307 28.2184 426.234 28.7456 425.932 29.6187L431.602 31.5813C432.02 30.3744 432.307 29.1416 432.307 27.96H426.307ZM425.947 29.576L421.807 40.976L427.447 43.024L431.587 31.624L425.947 29.576ZM421.811 40.9655C421.252 42.487 420.503 43.4636 419.658 44.0918L423.236 48.9082C425.19 47.4564 426.562 45.433 427.443 43.0345L421.811 40.9655ZM419.703 44.0588C418.881 44.6461 417.832 45 416.407 45V51C418.902 51 421.213 50.3539 423.191 48.9412L419.703 44.0588ZM416.407 45H385.507V51H416.407V45ZM430.688 42L427.868 40.9755L427.865 40.9838L430.688 42ZM443.768 6L440.952 4.96554L440.948 4.97552L443.768 6ZM446.948 1.56L448.692 4.0012L448.714 3.98492L448.737 3.96823L446.948 1.56ZM494.588 2.4L497.419 3.39106L497.448 3.30838L497.472 3.22415L494.588 2.4ZM494.168 3.6L496.977 4.65337L496.988 4.62234L496.999 4.59106L494.168 3.6ZM468.968 6V3H466.859L466.145 4.98384L468.968 6ZM466.808 12L463.985 10.9838L462.539 15H466.808V12ZM484.808 14.4L482.066 13.1816L482.017 13.2934L481.976 13.4089L484.808 14.4ZM484.388 15.6L487.197 16.6534L487.208 16.6223L487.219 16.5911L484.388 15.6ZM464.588 18V15H462.487L461.768 16.9748L464.588 18ZM462.188 24.6L459.368 23.5748L457.905 27.6H462.188V24.6ZM486.728 30.6L489.548 31.624L489.555 31.6027L489.563 31.5813L486.728 30.6ZM482.588 42L485.404 43.0345L485.408 43.024L482.588 42ZM479.408 46.5L481.152 48.9412L481.174 48.9249L481.197 48.9082L479.408 46.5ZM434.468 45C433.929 45 433.558 44.9475 433.318 44.8865C433.082 44.8265 433.023 44.771 433.049 44.791C433.091 44.8233 433.142 44.886 433.167 44.9439C433.185 44.9841 433.148 44.9265 433.148 44.7H427.148C427.148 46.5115 427.783 48.3183 429.407 49.559C430.878 50.683 432.731 51 434.468 51V45ZM433.148 44.7C433.148 44.3393 433.232 43.7909 433.51 43.0162L427.865 40.9838C427.424 42.2091 427.148 43.4607 427.148 44.7H433.148ZM433.507 43.0245L446.587 7.02447L440.948 4.97552L427.868 40.9755L433.507 43.0245ZM446.584 7.03445C447.141 5.51788 447.879 4.58178 448.692 4.0012L445.204 -0.881203C443.217 0.538216 441.835 2.56212 440.952 4.96554L446.584 7.03445ZM448.737 3.96823C449.556 3.35954 450.589 3 451.988 3V-3C449.467 -3 447.139 -2.31954 445.159 -0.848236L448.737 3.96823ZM451.988 3H493.088V-3H451.988V3ZM493.088 3C493.374 3 493.04 3.06918 492.58 2.72008C492.322 2.5247 492.108 2.25654 491.973 1.94932C491.845 1.65974 491.828 1.42596 491.828 1.32H497.828C497.828 0.160795 497.403 -1.15231 496.206 -2.06008C495.166 -2.84918 493.962 -3 493.088 -3V3ZM491.828 1.32C491.828 1.22069 491.834 1.14544 491.838 1.10495C491.842 1.06182 491.846 1.03263 491.848 1.02133C491.851 1.00105 491.85 1.01027 491.839 1.05921C491.817 1.15777 491.775 1.32452 491.703 1.57584L497.472 3.22415C497.561 2.91548 497.638 2.62222 497.696 2.36078C497.739 2.17076 497.828 1.75874 497.828 1.32H491.828ZM491.756 1.40894L491.336 2.60894L496.999 4.59106L497.419 3.39106L491.756 1.40894ZM491.359 2.54663C491.212 2.93747 491.095 2.99825 491.128 2.97379C491.139 2.96585 491.143 2.96718 491.122 2.9736C491.096 2.98134 491.018 3 490.868 3V9C492.187 9 493.509 8.66165 494.657 7.82621C495.791 7.00175 496.523 5.86252 496.977 4.65337L491.359 2.54663ZM490.868 3H468.968V9H490.868V3ZM466.145 4.98384L463.985 10.9838L469.63 13.0162L471.79 7.01616L466.145 4.98384ZM466.808 15H483.308V9H466.808V15ZM483.308 15C483.594 15 483.26 15.0692 482.8 14.7201C482.542 14.5247 482.328 14.2565 482.193 13.9493C482.065 13.6597 482.048 13.426 482.048 13.32H488.048C488.048 12.1608 487.623 10.8477 486.426 9.93992C485.386 9.15082 484.182 9 483.308 9V15ZM482.048 13.32C482.048 13.2758 482.053 13.2377 482.059 13.2092C482.065 13.1815 482.071 13.1718 482.066 13.1816L487.549 15.6184C487.863 14.9114 488.048 14.138 488.048 13.32H482.048ZM481.976 13.4089L481.556 14.6089L487.219 16.5911L487.639 15.3911L481.976 13.4089ZM481.579 14.5466C481.432 14.9375 481.315 14.9982 481.348 14.9738C481.359 14.9659 481.363 14.9672 481.342 14.9736C481.316 14.9813 481.238 15 481.088 15V21C482.407 21 483.729 20.6616 484.877 19.8262C486.011 19.0018 486.743 17.8625 487.197 16.6534L481.579 14.5466ZM481.088 15H464.588V21H481.088V15ZM461.768 16.9748L459.368 23.5748L465.007 25.6252L467.407 19.0252L461.768 16.9748ZM462.188 27.6H482.888V21.6H462.188V27.6ZM482.888 27.6C483.436 27.6 483.815 27.6536 484.061 27.7165C484.303 27.7784 484.368 27.8365 484.347 27.8203C484.31 27.7918 484.264 27.7349 484.243 27.6856C484.229 27.6541 484.268 27.722 484.268 27.96H490.268C490.268 26.1331 489.631 24.3121 487.999 23.0597C486.517 21.9228 484.647 21.6 482.888 21.6V27.6ZM484.268 27.96C484.268 28.2184 484.195 28.7456 483.893 29.6187L489.563 31.5813C489.981 30.3744 490.268 29.1416 490.268 27.96H484.268ZM483.908 29.576L479.768 40.976L485.408 43.024L489.548 31.624L483.908 29.576ZM479.772 40.9655C479.213 42.487 478.464 43.4636 477.619 44.0918L481.197 48.9082C483.151 47.4564 484.523 45.433 485.404 43.0345L479.772 40.9655ZM477.664 44.0588C476.842 44.6461 475.793 45 474.368 45V51C476.863 51 479.174 50.3539 481.152 48.9412L477.664 44.0588ZM474.368 45H434.468V51H474.368V45ZM488.637 42L485.817 40.9755L485.814 40.9838L488.637 42ZM501.717 6L498.901 4.96554L498.897 4.97552L501.717 6ZM504.897 1.56L506.641 4.0012L506.664 3.98492L506.686 3.96823L504.897 1.56ZM553.797 1.44L552.1 3.91418L552.125 3.93089L552.149 3.94712L553.797 1.44ZM554.217 13.44L551.406 12.3907L551.403 12.4L551.4 12.4093L554.217 13.44ZM547.977 24L549.98 26.2337L549.982 26.2318L547.977 24ZM531.237 27.12V24.12H529.142L528.42 26.0872L531.237 27.12ZM530.577 28.92L527.76 27.8872L527.729 27.9717L527.704 28.0579L530.577 28.92ZM545.517 37.32L548.341 38.3336L548.346 38.3175L548.352 38.3013L545.517 37.32ZM543.837 42L546.653 43.0345L546.657 43.024L546.661 43.0136L543.837 42ZM540.657 46.5L542.401 48.9412L542.424 48.9249L542.446 48.9082L540.657 46.5ZM523.077 46.32L521.235 48.6881L521.251 48.7002L521.267 48.7122L523.077 46.32ZM521.997 36L519.179 34.9717L519.173 34.9866L519.168 35.0015L521.997 36ZM525.237 27.12L528.055 28.1483L529.525 24.12H525.237V27.12ZM519.237 27.12V24.12H517.134L516.417 26.0966L519.237 27.12ZM513.837 42L516.653 43.0345L516.657 43.0234L513.837 42ZM510.657 46.5L512.401 48.9412L512.424 48.9249L512.446 48.9082L510.657 46.5ZM522.297 18.72L519.48 17.6882L519.443 17.7908L519.412 17.8958L522.297 18.72ZM527.037 20.52L528.781 22.9612L528.837 22.9213L528.891 22.879L527.037 20.52ZM528.297 18.72L531.112 19.7571L531.114 19.7518L528.297 18.72ZM532.077 8.4L534.894 9.4318L534.938 9.31222L534.971 9.18936L532.077 8.4ZM526.077 8.4L528.894 9.4318L528.901 9.41148L528.909 9.39105L526.077 8.4ZM492.417 45C491.878 45 491.507 44.9475 491.267 44.8865C491.032 44.8265 490.972 44.771 490.998 44.791C491.04 44.8233 491.091 44.886 491.117 44.9439C491.134 44.9841 491.097 44.9265 491.097 44.7H485.097C485.097 46.5115 485.732 48.3183 487.356 49.559C488.827 50.683 490.68 51 492.417 51V45ZM491.097 44.7C491.097 44.3393 491.181 43.7909 491.46 43.0162L485.814 40.9838C485.373 42.2091 485.097 43.4607 485.097 44.7H491.097ZM491.457 43.0245L504.537 7.02447L498.897 4.97552L485.817 40.9755L491.457 43.0245ZM504.533 7.03445C505.09 5.51788 505.828 4.58178 506.641 4.0012L503.153 -0.881203C501.166 0.538216 499.784 2.56212 498.901 4.96554L504.533 7.03445ZM506.686 3.96823C507.505 3.35954 508.538 3 509.937 3V-3C507.416 -3 505.089 -2.31954 503.108 -0.848236L506.686 3.96823ZM509.937 3H547.137V-3H509.937V3ZM547.137 3C549.99 3 551.459 3.47458 552.1 3.91418L555.494 -1.03419C553.335 -2.51459 550.365 -3 547.137 -3V3ZM552.149 3.94712C552.497 4.17531 552.897 4.59207 552.897 5.94H558.897C558.897 3.12792 557.897 0.544689 555.445 -1.06712L552.149 3.94712ZM552.897 5.94C552.897 7.43183 552.467 9.54926 551.406 12.3907L557.028 14.4893C558.207 11.3307 558.897 8.44817 558.897 5.94H552.897ZM551.4 12.4093C549.671 17.134 547.803 20.1237 545.972 21.7682L549.982 26.2318C552.871 23.6363 555.163 19.586 557.034 14.4707L551.4 12.4093ZM545.974 21.7663C544.314 23.2553 542.038 24.12 538.857 24.12V30.12C543.196 30.12 547 28.9047 549.98 26.2337L545.974 21.7663ZM538.857 24.12H531.237V30.12H538.857V24.12ZM528.42 26.0872L527.76 27.8872L533.394 29.9528L534.054 28.1528L528.42 26.0872ZM527.704 28.0579C527.537 28.6145 527.397 29.2626 527.397 29.94H533.397C533.397 30.0096 533.39 30.0322 533.396 29.9964C533.402 29.9622 533.417 29.8924 533.451 29.782L527.704 28.0579ZM527.397 29.94C527.397 31.0712 527.788 32.39 528.968 33.3255C530.015 34.1558 531.241 34.32 532.137 34.32V28.32C531.873 28.32 532.229 28.2542 532.696 28.6245C532.951 28.827 533.151 29.0937 533.271 29.3814C533.385 29.6508 533.397 29.8597 533.397 29.94H527.397ZM532.137 34.32H541.737V28.32H532.137V34.32ZM541.737 34.32C542.276 34.32 542.647 34.3725 542.887 34.4335C543.123 34.4935 543.182 34.549 543.156 34.529C543.114 34.4967 543.063 34.434 543.037 34.3761C543.02 34.3359 543.057 34.3935 543.057 34.62H549.057C549.057 32.8085 548.422 31.0017 546.798 29.761C545.327 28.637 543.474 28.32 541.737 28.32V34.32ZM543.057 34.62C543.057 34.9326 542.977 35.4856 542.682 36.3387L548.352 38.3013C548.777 37.0744 549.057 35.8274 549.057 34.62H543.057ZM542.693 36.3064L541.013 40.9864L546.661 43.0136L548.341 38.3336L542.693 36.3064ZM541.021 40.9655C540.462 42.487 539.714 43.4636 538.868 44.0918L542.446 48.9082C544.4 47.4564 545.772 45.433 546.653 43.0345L541.021 40.9655ZM538.913 44.0588C538.091 44.6461 537.042 45 535.617 45V51C538.112 51 540.423 50.3539 542.401 48.9412L538.913 44.0588ZM535.617 45H529.617V51H535.617V45ZM529.617 45C527.052 45 525.629 44.489 524.887 43.9278L521.267 48.7122C523.485 50.391 526.422 51 529.617 51V45ZM524.919 43.9519C524.362 43.5192 523.917 42.8268 523.917 41.34H517.917C517.917 44.2532 518.912 46.8808 521.235 48.6881L524.919 43.9519ZM523.917 41.34C523.917 40.2709 524.175 38.8422 524.826 36.9985L519.168 35.0015C518.379 37.2378 517.917 39.3691 517.917 41.34H523.917ZM524.815 37.0283L528.055 28.1483L522.419 26.0917L519.179 34.9717L524.815 37.0283ZM525.237 24.12H519.237V30.12H525.237V24.12ZM516.417 26.0966L511.017 40.9766L516.657 43.0234L522.057 28.1434L516.417 26.0966ZM511.021 40.9655C510.462 42.487 509.714 43.4636 508.868 44.0918L512.446 48.9082C514.4 47.4564 515.772 45.433 516.653 43.0345L511.021 40.9655ZM508.913 44.0588C508.091 44.6461 507.042 45 505.617 45V51C508.112 51 510.423 50.3539 512.401 48.9412L508.913 44.0588ZM505.617 45H492.417V51H505.617V45ZM519.412 17.8958C519.324 18.2045 519.247 18.4978 519.188 18.7592C519.146 18.9492 519.057 19.3612 519.057 19.8H525.057C525.057 19.8993 525.051 19.9746 525.047 20.015C525.043 20.0582 525.039 20.0874 525.037 20.0987C525.034 20.119 525.035 20.1097 525.046 20.0608C525.068 19.9622 525.11 19.7955 525.182 19.5442L519.412 17.8958ZM519.057 19.8C519.057 20.9592 519.482 22.2723 520.679 23.1801C521.719 23.9692 522.923 24.12 523.797 24.12V18.12C523.511 18.12 523.845 18.0508 524.305 18.3999C524.563 18.5953 524.777 18.8635 524.912 19.1707C525.04 19.4603 525.057 19.694 525.057 19.8H519.057ZM523.797 24.12H524.997V18.12H523.797V24.12ZM524.997 24.12C526.317 24.12 527.633 23.7812 528.781 22.9612L525.293 18.0788C525.292 18.0801 525.29 18.0809 525.288 18.082C525.285 18.0832 525.277 18.087 525.261 18.0919C525.228 18.1014 525.147 18.12 524.997 18.12V24.12ZM528.891 22.879C529.945 22.0506 530.667 20.965 531.112 19.7571L525.482 17.6829C525.367 17.995 525.249 18.1094 525.184 18.161L528.891 22.879ZM531.114 19.7518L534.894 9.4318L529.26 7.3682L525.48 17.6882L531.114 19.7518ZM534.971 9.18936C535.111 8.67891 535.257 8.02826 535.257 7.38H529.257C529.257 7.31783 529.261 7.27921 529.262 7.27005C529.263 7.25981 529.262 7.26674 529.258 7.29364C529.248 7.35018 529.226 7.45284 529.183 7.61064L534.971 9.18936ZM535.257 7.38C535.257 6.24883 534.866 4.92998 533.686 3.9945C532.639 3.16421 531.413 3 530.517 3V9C530.781 9 530.425 9.06579 529.958 8.69549C529.703 8.49303 529.504 8.22634 529.383 7.93863C529.269 7.66917 529.257 7.46029 529.257 7.38H535.257ZM530.517 3H529.317V9H530.517V3ZM529.317 3C528 3 526.671 3.3378 525.521 4.18933C524.386 5.0304 523.672 6.18998 523.245 7.40895L528.909 9.39105C529.042 9.01002 529.148 8.96959 529.093 9.01067C529.072 9.02634 529.058 9.0291 529.073 9.02465C529.092 9.01875 529.167 9 529.317 9V3ZM523.26 7.3682L519.48 17.6882L525.114 19.7518L528.894 9.4318L523.26 7.3682ZM566.126 42L563.307 40.9748L563.303 40.9838L566.126 42ZM568.766 34.74L571.585 35.7652L572.969 31.9616L568.927 31.7443L568.766 34.74ZM560.306 31.92L558.331 34.1777L560.306 31.92ZM559.106 16.8L561.917 17.8493L561.922 17.8341L561.928 17.8189L559.106 16.8ZM563.006 6L560.19 4.96554L560.187 4.9733L560.184 4.98106L563.006 6ZM566.186 1.56L567.93 4.0012L567.953 3.98492L567.975 3.96823L566.186 1.56ZM588.206 6L591.025 7.02789L591.033 7.00467L591.041 6.98133L588.206 6ZM580.766 26.4L577.948 25.3721L577.918 25.4542L577.893 25.538L580.766 26.4ZM586.766 26.4L583.948 25.3721L583.941 25.3905L583.935 25.4089L586.766 26.4ZM594.206 6L591.39 4.96554L591.388 4.97211L594.206 6ZM597.386 1.56L599.13 4.0012L599.153 3.98492L599.175 3.96823L597.386 1.56ZM619.406 6L622.228 7.01893L622.235 7.00018L622.241 6.98134L619.406 6ZM615.506 16.8L618.323 17.8334L618.325 17.8261L618.328 17.8189L615.506 16.8ZM606.626 29.7L604.776 27.3385L606.626 29.7ZM592.766 34.74L592.587 31.7453L590.62 31.8628L589.947 33.7148L592.766 34.74ZM590.126 42L592.942 43.0345L592.945 43.0252L590.126 42ZM586.946 46.5L588.69 48.9412L588.713 48.9249L588.735 48.9082L586.946 46.5ZM569.906 45C569.367 45 568.996 44.9475 568.756 44.8865C568.521 44.8265 568.461 44.771 568.487 44.791C568.529 44.8233 568.58 44.886 568.606 44.9439C568.623 44.9841 568.586 44.9265 568.586 44.7H562.586C562.586 46.5115 563.221 48.3183 564.845 49.559C566.316 50.683 568.169 51 569.906 51V45ZM568.586 44.7C568.586 44.3393 568.67 43.7909 568.949 43.0162L563.303 40.9838C562.862 42.2091 562.586 43.4607 562.586 44.7H568.586ZM568.945 43.0252L571.585 35.7652L565.947 33.7148L563.307 40.9748L568.945 43.0252ZM568.927 31.7443C565.58 31.5644 563.51 30.7373 562.282 29.6623L558.331 34.1777C560.942 36.4627 564.513 37.5156 568.605 37.7357L568.927 31.7443ZM562.282 29.6623C561.129 28.6537 560.426 27.2024 560.426 24.9H554.426C554.426 28.5976 555.643 31.8263 558.331 34.1777L562.282 29.6623ZM560.426 24.9C560.426 22.9558 560.883 20.6191 561.917 17.8493L556.296 15.7507C555.09 18.9809 554.426 22.0442 554.426 24.9H560.426ZM561.928 17.8189L565.828 7.01893L560.184 4.98106L556.284 15.7811L561.928 17.8189ZM565.822 7.03445C566.379 5.51788 567.117 4.58178 567.93 4.0012L564.442 -0.881203C562.455 0.538216 561.073 2.56212 560.19 4.96554L565.822 7.03445ZM567.975 3.96823C568.794 3.35954 569.827 3 571.226 3V-3C568.705 -3 566.378 -2.31954 564.397 -0.848236L567.975 3.96823ZM571.226 3H584.426V-3H571.226V3ZM584.426 3C584.965 3 585.336 3.05246 585.576 3.11348C585.812 3.17352 585.871 3.229 585.845 3.20901C585.803 3.17671 585.752 3.11399 585.727 3.05608C585.709 3.01595 585.746 3.07346 585.746 3.3H591.746C591.746 1.48845 591.111 -0.318342 589.487 -1.55902C588.016 -2.68295 586.163 -3 584.426 -3V3ZM585.746 3.3C585.746 3.6126 585.666 4.16559 585.371 5.01867L591.041 6.98133C591.466 5.75441 591.746 4.5074 591.746 3.3H585.746ZM585.388 4.97211L577.948 25.3721L583.585 27.4279L591.025 7.02789L585.388 4.97211ZM577.893 25.538C577.726 26.0945 577.586 26.7426 577.586 27.42H583.586C583.586 27.4896 583.579 27.5122 583.585 27.4764C583.591 27.4422 583.606 27.3724 583.64 27.262L577.893 25.538ZM577.586 27.42C577.586 28.5512 577.977 29.87 579.157 30.8055C580.204 31.6358 581.43 31.8 582.326 31.8V25.8C582.062 25.8 582.418 25.7342 582.885 26.1045C583.141 26.307 583.34 26.5737 583.461 26.8614C583.574 27.1308 583.586 27.3397 583.586 27.42H577.586ZM582.326 31.8H583.526V25.8H582.326V31.8ZM583.526 31.8C584.843 31.8 586.172 31.4622 587.322 30.6107C588.457 29.7696 589.171 28.61 589.598 27.3911L583.935 25.4089C583.801 25.79 583.695 25.8304 583.75 25.7893C583.772 25.7737 583.785 25.7709 583.771 25.7753C583.751 25.7812 583.677 25.8 583.526 25.8V31.8ZM589.585 27.4279L597.025 7.02789L591.388 4.97211L583.948 25.3721L589.585 27.4279ZM597.022 7.03445C597.579 5.51788 598.317 4.58178 599.13 4.0012L595.642 -0.881203C593.655 0.538216 592.273 2.56211 591.39 4.96554L597.022 7.03445ZM599.175 3.96823C599.994 3.35954 601.027 3 602.426 3V-3C599.905 -3 597.578 -2.31955 595.597 -0.848234L599.175 3.96823ZM602.426 3H615.626V-3H602.426V3ZM615.626 3C616.165 3 616.536 3.05246 616.776 3.11348C617.012 3.17352 617.071 3.229 617.045 3.20901C617.003 3.17671 616.952 3.11399 616.926 3.05608C616.909 3.01595 616.946 3.07346 616.946 3.3H622.946C622.946 1.48845 622.311 -0.318344 620.687 -1.55902C619.216 -2.68295 617.363 -3 615.626 -3V3ZM616.946 3.3C616.946 3.61259 616.866 4.16558 616.571 5.01866L622.241 6.98134C622.666 5.75442 622.946 4.5074 622.946 3.3H616.946ZM616.584 4.98106L612.684 15.7811L618.328 17.8189L622.228 7.01893L616.584 4.98106ZM612.69 15.7666C610.803 20.909 608.135 24.7065 604.776 27.3385L608.476 32.0615C612.877 28.6135 616.129 23.811 618.323 17.8334L612.69 15.7666ZM604.776 27.3385C601.419 29.9688 597.396 31.4583 592.587 31.7453L592.945 37.7347C598.856 37.3817 604.073 35.5112 608.476 32.0615L604.776 27.3385ZM589.947 33.7148L587.307 40.9748L592.945 43.0252L595.585 35.7652L589.947 33.7148ZM587.31 40.9655C586.751 42.487 586.003 43.4636 585.157 44.0918L588.735 48.9082C590.69 47.4564 592.061 45.433 592.942 43.0345L587.31 40.9655ZM585.202 44.0588C584.38 44.6461 583.331 45 581.906 45V51C584.401 51 586.712 50.3539 588.69 48.9412L585.202 44.0588ZM581.906 45H569.906V51H581.906V45Z" fill="black"/>
</svg>
