<svg width="293" height="476" viewBox="0 0 293 476" fill="none" xmlns="http://www.w3.org/2000/svg">
<path d="M445.331 210.944C443.933 202.098 311.8 223.086 311.8 223.086L266.989 230.204L280.539 211.475C280.539 211.475 332.946 139.037 325.728 133.772C318.511 128.507 266.104 200.945 266.104 200.945L252.553 219.674L245.442 174.683C245.442 174.683 224.474 42.0188 215.663 43.4184C206.852 44.8179 227.821 177.482 227.821 177.482L234.932 222.474L216.27 208.861C216.27 208.861 144.092 156.213 138.851 163.457C133.611 170.7 205.788 223.348 205.788 223.348L224.45 236.961L179.639 244.079C179.639 244.079 47.5065 265.068 48.9047 273.914C50.3029 282.76 182.436 261.771 182.436 261.771L227.247 254.653L213.697 273.383C213.697 273.383 161.29 345.82 168.507 351.085C175.725 356.35 228.132 283.912 228.132 283.912L241.682 265.183L248.794 310.174C248.794 310.174 269.762 442.839 278.573 441.439C287.384 440.04 266.415 307.375 266.415 307.375L259.304 262.384L277.966 275.997C277.966 275.997 350.144 328.645 355.384 321.401C360.625 314.157 288.447 261.509 288.447 261.509L269.785 247.896L314.597 240.778C314.597 240.778 446.729 219.79 445.331 210.944V210.944Z" fill="black"/>
<path d="M428.881 201.854C427.483 193.008 295.35 213.996 295.35 213.996L250.539 221.114L264.089 202.385C264.089 202.385 316.497 129.947 309.279 124.682C302.061 119.417 249.654 191.855 249.654 191.855L236.104 210.584L228.992 165.593C228.992 165.593 208.024 32.9289 199.213 34.3284C190.403 35.7279 211.371 168.392 211.371 168.392L218.482 213.384L199.82 199.771C199.82 199.771 127.642 147.123 122.402 154.367C117.161 161.61 189.339 214.258 189.339 214.258L208.001 227.871L163.19 234.989C163.19 234.989 31.0568 255.978 32.455 264.824C33.8531 273.67 165.986 252.681 165.986 252.681L210.797 245.563L197.247 264.293C197.247 264.293 144.84 336.73 152.058 341.995C159.275 347.26 211.682 274.822 211.682 274.822L225.233 256.093L232.344 301.084C232.344 301.084 253.312 433.749 262.123 432.349C270.934 430.95 249.965 298.285 249.965 298.285L242.854 253.294L261.516 266.907C261.516 266.907 333.694 319.555 338.935 312.311C344.175 305.067 271.998 252.419 271.998 252.419L253.336 238.806L298.147 231.688C298.147 231.688 430.28 210.7 428.881 201.854Z" fill="white" stroke="black" stroke-width="2.35" stroke-linecap="round" stroke-linejoin="round"/>
</svg>
