<svg width="231" height="324" viewBox="0 0 231 324" fill="none" xmlns="http://www.w3.org/2000/svg">
<path d="M188.332 206.489C190.09 201.27 112.13 174.918 112.13 174.918L85.6907 165.981L98.4068 159.654C98.4068 159.654 147.588 135.181 145.155 130.249C142.722 125.317 93.5416 149.79 93.5416 149.79L80.8255 156.117L89.7654 129.575C89.7654 129.575 116.126 51.3123 110.928 49.5552C105.729 47.798 79.3685 126.061 79.3685 126.061L70.4286 152.603L64.1389 139.851C64.1389 139.851 39.8129 90.5314 34.8948 92.9787C29.9767 95.426 54.3027 144.745 54.3027 144.745L60.5924 157.497L34.1531 148.56C34.1531 148.56 -43.8071 122.208 -45.5649 127.427C-47.3226 132.646 30.6376 158.998 30.6376 158.998L57.0769 167.935L44.3608 174.262C44.3608 174.262 -4.82007 198.735 -2.38747 203.667C0.0451248 208.599 49.226 184.126 49.226 184.126L61.9421 177.799L53.0022 204.341C53.0022 204.341 26.6414 282.604 31.8399 284.361C37.0384 286.118 63.3991 207.855 63.3991 207.855L72.339 181.313L78.6287 194.065C78.6287 194.065 102.955 243.385 107.873 240.937C112.791 238.49 88.4648 189.17 88.4648 189.17L82.1752 176.418L108.614 185.355C108.614 185.355 186.575 211.708 188.332 206.489Z" fill="black"/>
<path d="M181.963 196.837C183.72 191.619 105.76 165.266 105.76 165.266L79.3208 156.329L92.0369 150.002C92.0369 150.002 141.218 125.529 138.785 120.597C136.353 115.665 87.1717 140.138 87.1717 140.138L74.4556 146.466L83.3955 119.924C83.3955 119.924 109.756 41.6606 104.558 39.9034C99.3593 38.1462 72.9986 116.409 72.9986 116.409L64.0587 142.951L57.769 130.199C57.769 130.199 33.443 80.8797 28.525 83.327C23.6069 85.7743 47.9328 135.094 47.9328 135.094L54.2225 147.846L27.7832 138.909C27.7832 138.909 -50.177 112.557 -51.9347 117.775C-53.6925 122.994 24.2677 149.346 24.2677 149.346L50.707 158.283L37.9909 164.611C37.9909 164.611 -11.1899 189.083 -8.75735 194.015C-6.32475 198.947 42.8561 174.475 42.8561 174.475L55.5722 168.147L46.6323 194.689C46.6323 194.689 20.2716 272.952 25.47 274.709C30.6685 276.466 57.0292 198.203 57.0292 198.203L65.9691 171.661L72.2588 184.413C72.2588 184.413 96.5848 233.733 101.503 231.286C106.421 228.838 82.095 179.519 82.095 179.519L75.8053 166.767L102.245 175.704C102.245 175.704 180.205 202.056 181.963 196.837Z" fill="#F9346C" stroke="black" stroke-width="2.35" stroke-linecap="round" stroke-linejoin="round"/>
</svg>
