<svg width="187" height="189" viewBox="0 0 187 189" fill="none" xmlns="http://www.w3.org/2000/svg">
<path d="M110.705 111.976C110.108 110.691 111.214 109.225 112.569 109.529C118.753 110.902 124.977 112.128 131.252 113.169C141.968 114.896 152.773 116.252 163.887 116.517C165.617 116.554 166.276 114.135 164.766 113.287C155.056 107.862 145.06 103.535 134.952 99.572C129.019 97.2778 123.023 95.1646 116.999 93.202C115.678 92.775 115.468 90.9495 116.633 90.146C118.669 88.736 120.693 87.3228 122.687 85.8353C128.566 81.4242 134.333 76.824 139.809 71.6694C141.147 70.412 139.95 68.1846 138.231 68.7573C131.235 71.1082 124.544 74.0044 117.951 77.0989C115.719 78.1649 113.524 79.2805 111.337 80.4117C110.088 81.0603 108.703 79.9427 109.025 78.5264C110.473 72.0469 111.792 65.532 112.947 58.9723C114.84 47.7978 116.378 36.5393 116.898 24.9896C116.984 23.1919 114.648 22.5537 113.811 24.1461C108.408 34.3616 104.029 44.8439 99.9991 55.4346C97.6589 61.6704 95.4947 67.9544 93.4715 74.2768C93.0317 75.661 91.2715 75.9191 90.5245 74.7252C89.2133 72.6383 87.8871 70.5604 86.5039 68.5066C82.3913 62.4871 78.0943 56.5888 73.2578 51.005C72.078 49.6401 69.9097 50.9347 70.4225 52.7112C72.5293 59.9377 75.1673 66.8343 77.9981 73.6252C78.9741 75.9241 79.9987 78.1835 81.0384 80.4338C81.6346 81.7184 80.5294 83.1847 79.1745 82.8805C72.9751 81.5165 66.739 80.2877 60.4561 79.2309C49.7516 77.507 38.9585 76.1548 27.8629 75.868C26.136 75.8184 25.4708 78.2627 26.9837 79.0983C36.6888 84.4948 46.6729 88.8195 56.7691 92.7789C62.7026 95.0731 68.6981 97.1863 74.7219 99.1489C76.0434 99.5759 76.2528 101.401 75.0883 102.205C73.0525 103.615 71.0251 105.04 69.0346 106.516C63.1402 110.936 57.3584 115.545 51.8754 120.724C50.5369 121.982 51.7375 124.197 53.4538 123.636C60.4615 121.289 67.1786 118.387 73.7866 115.283C76.0038 114.226 78.1958 113.123 80.371 111.988C81.6195 111.34 83.0052 112.457 82.6829 113.874C81.2264 120.338 79.9108 126.84 78.7712 133.391C76.8745 144.578 75.3332 155.848 74.8333 167.417C74.7594 169.218 77.0719 169.85 77.9205 168.26C83.3506 158.039 87.7326 147.544 91.7658 136.941C94.1026 130.718 96.2634 124.446 98.2834 118.136C98.7231 116.752 100.483 116.494 101.23 117.688C102.53 119.771 103.859 121.837 105.234 123.875C109.355 129.91 113.661 135.824 118.521 141.414C119.7 142.779 121.857 141.481 121.356 139.708C119.252 132.469 116.609 125.545 113.77 118.739C112.803 116.455 111.79 114.199 110.747 111.961L110.705 111.976Z" fill="black"/>
<path d="M106.098 107.735C105.502 106.45 106.607 104.984 107.962 105.288C114.146 106.661 120.371 107.887 126.645 108.928C137.362 110.655 148.166 112.011 159.28 112.276C161.011 112.314 161.669 109.894 160.16 109.046C150.449 103.622 140.454 99.2938 130.346 95.3312C124.412 93.037 118.417 90.9238 112.393 88.9612C111.071 88.5342 110.862 86.7087 112.027 85.9052C114.062 84.4952 116.086 83.082 118.08 81.5945C123.959 77.1834 129.726 72.5832 135.203 67.4286C136.541 66.1712 135.344 63.9438 133.624 64.5165C126.628 66.8674 119.938 69.7636 113.345 72.8581C111.113 73.9241 108.917 75.0397 106.73 76.1709C105.482 76.8195 104.096 75.7019 104.419 74.2856C105.867 67.8061 107.186 61.2912 108.34 54.7315C110.234 43.557 111.772 32.2985 112.292 20.7488C112.377 18.9511 110.041 18.3129 109.204 19.9053C103.801 30.1208 99.4225 40.6031 95.3926 51.1938C93.0524 57.4296 90.8883 63.7136 88.865 70.036C88.4253 71.4202 86.6651 71.6783 85.918 70.4844C84.6069 68.3975 83.2806 66.3196 81.8974 64.2658C77.7848 58.2463 73.4879 52.348 68.6513 46.7642C67.4716 45.3993 65.3032 46.6939 65.8161 48.4704C67.9229 55.6969 70.5609 62.5935 73.3916 69.3844C74.3676 71.6833 75.3922 73.9427 76.4319 76.193C77.0282 77.4776 75.9229 78.9439 74.568 78.6397C68.3687 77.2757 62.1326 76.0469 55.8496 74.9901C45.1451 73.2662 34.352 71.914 23.2564 71.6272C21.5295 71.5776 20.8643 74.0219 22.3773 74.8576C32.0824 80.254 42.0665 84.5787 52.1626 88.5381C58.0962 90.8323 64.0916 92.9455 70.1155 94.9081C71.4369 95.3351 71.6464 97.1606 70.4818 97.9641C68.446 99.3741 66.4186 100.8 64.4281 102.275C58.5338 106.695 52.7519 111.304 47.269 116.483C45.9305 117.741 47.1311 119.956 48.8474 119.396C55.855 117.048 62.5722 114.146 69.1802 111.042C71.3974 109.985 73.5893 108.882 75.7645 107.747C77.013 107.099 78.3988 108.217 78.0764 109.633C76.6199 116.097 75.3043 122.599 74.1648 129.15C72.268 140.337 70.7267 151.608 70.2269 163.176C70.1529 164.977 72.4654 165.609 73.3141 164.02C78.7442 153.798 83.1261 143.304 87.1593 132.701C89.4962 126.477 91.657 120.205 93.6769 113.895C94.1167 112.511 95.8768 112.253 96.6239 113.447C97.9233 115.531 99.2529 117.596 100.628 119.635C104.749 125.669 109.054 131.583 113.914 137.173C115.094 138.538 117.25 137.241 116.749 135.467C114.646 128.228 112.003 121.304 109.164 114.498C108.196 112.214 107.183 109.958 106.14 107.72L106.098 107.735Z" fill="#8F55FF" stroke="black" stroke-width="2.35" stroke-linecap="round" stroke-linejoin="round"/>
</svg>
