<svg width="139" height="154" viewBox="0 0 139 154" fill="none" xmlns="http://www.w3.org/2000/svg">
<path d="M125.96 72.0511L85.8042 89.9196C85.3677 90.1119 85.1004 90.588 85.0987 91.1351L85.7326 141.364C85.7473 142.831 83.9925 143.164 83.4808 141.791L65.7448 94.8096C65.5538 94.299 65.1234 93.9675 64.6447 93.9368L20.7409 92.0274C19.4581 91.9671 19.0746 89.9375 20.2487 89.4229L60.4046 71.5544C60.8411 71.3622 61.1084 70.8861 61.11 70.3389L60.4761 20.1105C60.4615 18.6428 62.2163 18.3097 62.728 19.683L80.464 66.6645C80.655 67.1751 81.0854 67.5066 81.564 67.5372L125.458 69.4486C126.741 69.5089 127.124 71.5385 125.95 72.0531L125.96 72.0511Z" fill="black"/>
<path d="M118.608 65.1915L78.4525 83.06C78.016 83.2522 77.7487 83.7283 77.747 84.2755L78.3809 134.504C78.3956 135.972 76.6408 136.305 76.1291 134.931L58.3931 87.9499C58.2021 87.4393 57.7717 87.1078 57.293 87.0772L13.3994 85.1658C12.1166 85.1055 11.733 83.0759 12.9072 82.5613L53.063 64.6929C53.4995 64.5006 53.7668 64.0245 53.7685 63.4773L53.1346 13.249C53.1199 11.7813 54.8747 11.4481 55.3864 12.8214L73.1224 59.8029C73.3135 60.3135 73.7439 60.645 74.2225 60.6757L118.116 62.587C119.399 62.6473 119.782 64.6769 118.608 65.1915V65.1915Z" fill="#0071C6" stroke="black" stroke-width="2.35" stroke-linecap="round" stroke-linejoin="round"/>
</svg>
