<svg width="20%" height="20%" viewBox="0 0 121 131" fill="none" xmlns="http://www.w3.org/2000/svg">
<path fill-rule="evenodd" clip-rule="evenodd" d="M60.4032 0C60.4032 0 58.4463 41.3361 54.605 43.6696C50.2563 45.6263 33.1515 32.7559 33.1515 32.7559C33.1515 32.7559 47.6471 49.1338 45.2408 53.0471C42.5156 56.9459 0 59.2939 0 59.2939C0 59.2939 42.5156 62.0188 45.2408 65.9176C47.5891 69.8164 33.1515 86.2088 33.1515 86.2088C33.1515 86.2088 50.3143 73.3383 54.605 75.295C58.5043 77.6285 60.4032 118.965 60.4032 118.965C60.4032 118.965 62.3456 77.6285 66.6363 75.295C70.985 73.3383 87.6985 86.2088 87.6985 86.2088C87.6985 86.2088 73.6522 69.8309 76.0005 65.9176C78.3488 62.0043 120.85 59.3519 120.85 59.3519C120.85 59.3519 78.3343 57.0039 76.0005 53.1051C73.6667 49.2063 87.6985 32.8138 87.6985 32.8138C87.6985 32.8138 70.927 45.6842 66.6363 43.7276C62.737 41.3361 60.7801 5.85547 60.4032 0Z" fill="#FDFBE1"/>
<path d="M112.306 114.094C101.362 115.718 100.303 116.993 99.0132 130.762C97.7086 117.037 96.665 115.718 85.7207 114.094C96.665 112.457 97.7086 111.196 99.0132 97.4121C100.303 111.138 101.362 112.457 112.306 114.094Z" fill="#FDFBE1"/>
</svg>
