<svg width="70%" height="70%"  viewBox="0 0 805 384" fill="none" xmlns="http://www.w3.org/2000/svg">
<path d="M662.609 320.287C640.097 323.635 637.966 326.345 635.284 354.579C632.617 326.345 630.457 323.635 607.96 320.287C630.457 316.953 632.603 314.243 635.284 285.995C637.937 314.243 640.097 316.953 662.609 320.287Z" fill="#FDFBE1"/>
<path d="M596.741 338.419C599.759 338.419 602.206 335.972 602.206 332.954C602.206 329.937 599.759 327.49 596.741 327.49C593.723 327.49 591.276 329.937 591.276 332.954C591.276 335.972 593.723 338.419 596.741 338.419Z" fill="#FDFBE1"/>
<path d="M572.664 338.419C575.682 338.419 578.129 335.972 578.129 332.954C578.129 329.937 575.682 327.49 572.664 327.49C569.646 327.49 567.199 329.937 567.199 332.954C567.199 335.972 569.646 338.419 572.664 338.419Z" fill="#FDFBE1"/>
<path d="M782.199 261.83C794.599 194.604 634.577 108.743 424.779 70.0535C214.981 31.3641 34.8538 54.4977 22.4532 121.724C10.0526 188.95 170.075 274.811 379.873 313.501C589.671 352.19 769.798 329.056 782.199 261.83Z" stroke="#FDFBE1" stroke-miterlimit="10"/>
</svg>
