<svg width="356" height="660" viewBox="0 0 356 660" fill="none" xmlns="http://www.w3.org/2000/svg">
<path fill-rule="evenodd" clip-rule="evenodd" d="M335.379 0C335.379 0 324.514 229.327 303.185 242.273C279.04 253.129 184.068 181.725 184.068 181.725C184.068 181.725 264.553 272.588 251.192 294.298C236.061 315.929 0 328.955 0 328.955C0 328.955 236.061 344.072 251.192 365.702C264.231 387.332 184.068 478.275 184.068 478.275C184.068 478.275 279.362 406.871 303.185 417.727C324.836 430.673 335.379 660 335.379 660C335.379 660 346.164 430.673 369.987 417.727C394.133 406.871 486.932 478.275 486.932 478.275C486.932 478.275 408.942 387.413 421.981 365.702C435.019 343.991 671 329.276 671 329.276C671 329.276 434.939 316.25 421.981 294.62C409.023 272.99 486.932 182.047 486.932 182.047C486.932 182.047 393.811 253.45 369.987 242.595C348.337 229.327 337.472 32.4854 335.379 0Z" fill="#FDFBE1"/>
</svg>
