<svg width="492" height="946" viewBox="0 0 492 946" fill="none" xmlns="http://www.w3.org/2000/svg">
<path fill-rule="evenodd" clip-rule="evenodd" d="M10.8267 0C10.8267 0 -4.75082 328.703 -35.3289 347.259C-69.9457 362.818 -206.105 260.473 -206.105 260.473C-206.105 260.473 -90.7157 390.709 -109.87 421.828C-131.563 452.831 -470 471.502 -470 471.502C-470 471.502 -131.563 493.17 -109.87 524.173C-91.1772 555.176 -206.105 685.528 -206.105 685.528C-206.105 685.528 -69.4842 583.182 -35.3289 598.742C-4.28925 617.297 10.8267 946 10.8267 946C10.8267 946 26.2888 617.297 60.444 598.742C95.0607 583.182 228.105 685.528 228.105 685.528C228.105 685.528 116.293 555.291 134.986 524.173C153.679 493.054 492 471.963 492 471.963C492 471.963 153.563 453.292 134.986 422.289C116.408 391.285 228.105 260.934 228.105 260.934C228.105 260.934 94.5992 363.279 60.444 347.719C29.4043 328.702 13.8268 46.5624 10.8267 0Z" fill="#FDFBE1"/>
</svg>
