<svg width="364" height="320" viewBox="0 0 364 320" fill="none" xmlns="http://www.w3.org/2000/svg">
<path fill-rule="evenodd" clip-rule="evenodd" d="M134.965 197C134.965 197 133.516 227.756 130.617 229.509C127.428 230.959 114.672 221.378 114.672 221.378C114.672 221.378 125.413 233.568 123.659 236.466C121.63 239.365 90 241.104 90 241.104C90 241.104 121.63 243.133 123.659 246.047C125.413 248.945 114.672 261.135 114.672 261.135C114.672 261.135 127.442 251.554 130.617 253.004C133.516 254.743 134.965 285.499 134.965 285.499C134.965 285.499 136.415 254.743 139.619 253.004C142.808 251.554 155.288 261.135 155.288 261.135C155.288 261.135 144.837 248.945 146.591 246.047C148.345 243.148 179.931 241.104 179.931 241.104C179.931 241.104 148.301 239.365 146.591 236.466C144.88 233.568 155.288 221.378 155.288 221.378C155.288 221.378 142.808 230.959 139.619 229.509C136.705 227.712 135.255 201.363 134.965 197Z" fill="#FDFBE1"/>
<path d="M208.951 231.597C210.737 231.597 212.184 230.15 212.184 228.365C212.184 226.58 210.737 225.133 208.951 225.133C207.166 225.133 205.719 226.58 205.719 228.365C205.719 230.15 207.166 231.597 208.951 231.597Z" fill="#FDFBE1"/>
<path d="M179.946 276.628C182.965 276.628 185.411 274.182 185.411 271.164C185.411 268.147 182.965 265.7 179.946 265.7C176.928 265.7 174.481 268.147 174.481 271.164C174.481 274.182 176.928 276.628 179.946 276.628Z" fill="#FDFBE1"/>
<g clip-path="url(#clip0_1543_1709)">
<path d="M105.85 0C110.57 4.4 115.55 8.81004 120.75 13.17C153.67 40.78 204.91 73.94 262.03 75.17C309.03 76.17 351.39 100.5 387.93 147.46C417.17 185.04 435.33 228.17 443.09 246.59L412.68 259.39C405.43 242.18 388.45 201.87 361.88 167.72C331.74 128.99 297.88 108.95 261.32 108.16C176.86 106.35 102.65 47.4 59.3203 0.0100098" fill="#FCDB96"/>
<path d="M74.7203 0C88.7798 16.4394 104.165 31.6973 120.72 45.62C153.64 73.22 204.88 106.38 262 107.62C309 108.62 351.36 132.94 387.9 179.9C417.14 217.49 435.3 260.61 443.06 279.03L412.65 291.84C405.4 274.62 388.42 234.31 361.85 200.17C331.71 161.43 297.85 141.39 261.29 140.61C155.6 138.34 65.9703 46.61 32.7803 0.0100098" fill="#B4B581"/>
<path d="M36.5798 0C45.7098 14.9 69.8598 45.25 103.52 73.47C136.44 101.07 187.68 134.23 244.8 135.47C291.8 136.47 334.16 160.8 370.7 207.75C399.94 245.34 418.1 288.47 425.86 306.88L395.49 319.68C388.25 302.47 371.27 262.15 344.7 228.01C314.56 189.27 280.7 169.23 244.14 168.45C120.34 165.8 18.5697 40.36 3.73975 8.55005C2.40641 5.72338 1.17647 2.87333 0.0498047 0" fill="#FCFAE1"/>
</g>
<defs>
<clipPath id="clip0_1543_1709">
<rect width="443.09" height="319.68" fill="white"/>
</clipPath>
</defs>
</svg>
