<svg width="679" height="882" viewBox="0 0 679 882" fill="none" xmlns="http://www.w3.org/2000/svg">
<g clip-path="url(#clip0_1543_1704)">
<path d="M625.101 881.977C619.336 873.158 613.165 864.395 606.559 855.899C564.287 801.498 516.797 773.37 465.521 772.26C291.873 768.539 149.151 592.401 128.351 547.717C110.96 510.377 105.083 470.482 99.3889 431.766C94.5922 399.131 90.048 368.293 79.0942 339.786C53.7083 273.785 -18.3539 227.317 -94.6658 178.182C-163.39 133.947 -234.372 88.21 -271.834 24.47L-231.946 0.962402C-200.08 55.1955 -133.768 97.8573 -69.6165 139.199C9.58459 190.202 91.4786 242.947 122.292 323.159C135.083 356.455 140.217 391.309 145.182 425.011C150.623 462 155.771 496.924 170.301 528.142C177.875 544.403 214.411 593.595 268.366 638.882C314.538 677.64 386.404 724.22 466.502 725.948C532.421 727.352 591.833 761.518 643.081 827.463C656.26 844.578 668.261 862.571 679 881.317" fill="#FDDC97"/>
<path d="M589.561 881.303C551.692 840.115 510.065 818.784 465.521 817.829C291.873 814.094 149.151 637.956 128.351 593.286C110.96 555.946 105.083 515.98 99.3889 477.335C94.5922 444.685 90.048 413.862 79.0942 385.355C53.7084 319.284 -18.3539 272.873 -94.6658 223.737C-163.39 179.502 -234.372 133.765 -271.834 70.0247L-231.946 46.5312C-200.08 100.75 -133.768 143.426 -69.6165 184.768C9.58463 235.772 91.4786 288.502 122.292 368.728C135.083 402.024 140.217 436.878 145.182 470.58C150.624 507.569 155.771 542.507 170.301 573.71C177.875 589.986 214.411 639.163 268.366 684.465C314.538 723.223 386.404 769.789 466.502 771.53C532.422 772.935 591.833 807.101 643.082 873.046C645.223 875.798 647.317 878.564 649.365 881.345" fill="#B5B682"/>
<path d="M520.458 881.977C495.338 865.912 468.9 857.528 441.355 856.938C267.707 853.217 124.985 677.065 104.185 632.395C86.7938 595.055 80.9172 555.089 75.2229 516.444C70.4262 483.794 65.882 452.97 54.9282 424.464C29.5423 358.407 -42.5199 311.981 -118.832 262.916C-187.556 218.681 -258.538 172.944 -296 109.204L-256.112 85.7104C-224.246 139.944 -157.934 182.605 -93.7966 223.947C-14.5954 274.95 67.3126 327.695 98.1263 407.907C110.917 441.217 116.051 476.057 121.016 509.759C126.458 546.748 131.605 581.686 146.135 612.889C153.709 629.165 190.245 678.343 244.2 723.645C290.372 762.403 362.224 808.968 442.336 810.71C497.035 811.875 547.33 835.621 592.141 881.401" fill="#FDFBE2"/>
<path fill-rule="evenodd" clip-rule="evenodd" d="M522.965 601.962C522.965 601.962 521.516 632.718 518.617 634.472C515.428 635.921 502.672 626.341 502.672 626.341C502.672 626.341 513.413 638.53 511.659 641.429C509.63 644.328 478 646.067 478 646.067C478 646.067 509.63 648.096 511.659 651.009C513.413 653.908 502.672 666.097 502.672 666.097C502.672 666.097 515.442 656.517 518.617 657.966C521.516 659.705 522.965 690.461 522.965 690.461C522.965 690.461 524.415 659.705 527.619 657.966C530.808 656.517 543.288 666.097 543.288 666.097C543.288 666.097 532.837 653.908 534.591 651.009C536.345 648.11 567.931 646.067 567.931 646.067C567.931 646.067 536.301 644.328 534.591 641.429C532.88 638.53 543.288 626.341 543.288 626.341C543.288 626.341 530.808 635.921 527.619 634.472C524.705 632.675 523.255 606.325 522.965 601.962Z" fill="#FDFBE1"/>
</g>
<defs>
<clipPath id="clip0_1543_1704">
<rect width="975" height="881" fill="white" transform="translate(-296 0.962402)"/>
</clipPath>
</defs>
</svg>
