<svg width="521" height="520" viewBox="0 0 521 520" fill="none" xmlns="http://www.w3.org/2000/svg">
<path d="M460.63 203.502C457.981 194.947 330.21 234.624 330.21 234.624L286.878 248.08L297.609 227.605C297.609 227.605 339.114 148.414 331.217 144.236C323.32 140.058 281.816 219.249 281.816 219.249L271.085 239.724L257.61 196.213C257.61 196.213 217.876 67.9134 209.356 70.5592C200.837 73.2049 240.57 201.504 240.57 201.504L254.045 245.015L233.627 234.213C233.627 234.213 154.66 192.433 150.509 200.352C146.359 208.271 225.326 250.051 225.326 250.051L245.744 260.853L202.412 274.309C202.412 274.309 74.6418 313.987 77.2913 322.542C79.9407 331.097 207.711 291.42 207.711 291.42L251.043 277.964L240.312 298.439C240.312 298.439 198.808 377.629 206.705 381.807C214.601 385.985 256.105 306.795 256.105 306.795L266.837 286.32L280.312 329.831C280.312 329.831 320.045 458.13 328.565 455.484C337.085 452.839 297.351 324.539 297.351 324.539L283.876 281.028L304.294 291.831C304.294 291.831 383.262 333.611 387.412 325.692C391.563 317.772 312.595 275.993 312.595 275.993L292.177 265.19L335.509 251.734C335.509 251.734 463.28 212.057 460.63 203.502Z" fill="black"/>
<path d="M443.049 196.859C440.4 188.304 312.629 227.981 312.629 227.981L269.297 241.437L280.028 220.961C280.028 220.961 321.532 141.771 313.636 137.593C305.739 133.415 264.235 212.606 264.235 212.606L253.504 233.081L240.029 189.57C240.029 189.57 200.295 61.2704 191.775 63.9161C183.256 66.5618 222.989 194.861 222.989 194.861L236.464 238.372L216.046 227.57C216.046 227.57 137.079 185.79 132.928 193.709C128.778 201.628 207.745 243.408 207.745 243.408L228.163 254.21L184.831 267.666C184.831 267.666 57.0608 307.344 59.7102 315.899C62.3597 324.454 190.13 284.777 190.13 284.777L233.462 271.321L222.731 291.796C222.731 291.796 181.227 370.986 189.124 375.164C197.02 379.342 238.524 300.152 238.524 300.152L249.256 279.677L262.731 323.188C262.731 323.188 302.464 451.487 310.984 448.841C319.504 446.196 279.77 317.896 279.77 317.896L266.295 274.385L286.713 285.188C286.713 285.188 365.681 326.968 369.831 319.048C373.982 311.129 295.014 269.35 295.014 269.35L274.596 258.547L317.928 245.091C317.928 245.091 445.699 205.414 443.049 196.859Z" fill="white" stroke="black" stroke-width="2.35" stroke-linecap="round" stroke-linejoin="round"/>
</svg>
