<svg width="403" height="547" viewBox="0 0 403 547" fill="none" xmlns="http://www.w3.org/2000/svg">
<rect x="16.9" y="20.9" width="385.2" height="525.2" fill="black" stroke="black" stroke-width="1.8"/>
<rect x="0.9" y="0.9" width="385.2" height="528.2" fill="white" stroke="black" stroke-width="1.8"/>
<rect x="0.9" y="0.9" width="385.2" height="27.2" fill="#DFE0E0" stroke="black" stroke-width="1.8"/>
<circle cx="41.5" cy="14.5" r="4.75" fill="#50B948" stroke="black" stroke-width="1.5"/>
<circle cx="27.5" cy="14.5" r="4.75" fill="#FBBB42" stroke="black" stroke-width="1.5"/>
<circle cx="13.5" cy="14.5" r="4.75" fill="#F15D5A" stroke="black" stroke-width="1.5"/>
<rect x="23" y="50" width="342" height="454" fill="#D9D9D9"/>
<path d="M67.5919 232.19L69.0019 234.65L60.6319 239.3L69.0019 243.89L67.5919 246.41L57.8419 240.83V237.77L67.5919 232.19ZM74.7987 228.56H78.2187V248H74.7987V228.56ZM101.427 244.46L100.407 244.85V228.56H103.797V248H100.407L85.8272 232.19L86.8772 231.8V248H83.4572V228.56H86.8772L101.427 244.46ZM107.187 241.55H110.517C110.597 242.29 110.887 242.96 111.387 243.56C111.907 244.14 112.587 244.6 113.427 244.94C114.287 245.26 115.267 245.42 116.367 245.42C117.347 245.42 118.157 245.3 118.797 245.06C119.437 244.82 119.907 244.49 120.207 244.07C120.527 243.63 120.687 243.12 120.687 242.54C120.687 241.96 120.497 241.51 120.117 241.19C119.757 240.85 119.197 240.57 118.437 240.35C117.677 240.11 116.707 239.88 115.527 239.66C114.547 239.48 113.597 239.24 112.677 238.94C111.757 238.64 110.927 238.26 110.187 237.8C109.467 237.34 108.897 236.78 108.477 236.12C108.057 235.44 107.847 234.64 107.847 233.72C107.847 232.68 108.137 231.74 108.717 230.9C109.317 230.06 110.197 229.4 111.357 228.92C112.517 228.44 113.927 228.2 115.587 228.2C118.127 228.2 120.067 228.79 121.407 229.97C122.747 231.13 123.397 232.71 123.357 234.71H120.087C120.027 233.45 119.567 232.54 118.707 231.98C117.847 231.42 116.757 231.14 115.437 231.14C114.257 231.14 113.267 231.35 112.467 231.77C111.667 232.19 111.267 232.87 111.267 233.81C111.267 234.21 111.357 234.56 111.537 234.86C111.737 235.14 112.057 235.4 112.497 235.64C112.937 235.86 113.537 236.08 114.297 236.3C115.077 236.5 116.027 236.72 117.147 236.96C118.107 237.12 119.007 237.34 119.847 237.62C120.687 237.9 121.417 238.25 122.037 238.67C122.677 239.09 123.177 239.63 123.537 240.29C123.897 240.95 124.077 241.76 124.077 242.72C124.077 243.82 123.797 244.8 123.237 245.66C122.677 246.5 121.817 247.17 120.657 247.67C119.517 248.15 118.037 248.39 116.217 248.39C114.837 248.39 113.627 248.23 112.587 247.91C111.567 247.57 110.697 247.14 109.977 246.62C109.257 246.08 108.677 245.5 108.237 244.88C107.817 244.26 107.517 243.66 107.337 243.08C107.177 242.48 107.127 241.97 107.187 241.55ZM131.028 239.72V245.06H144.678V248H127.608V228.56H144.648V231.5H131.028V236.9H142.188V239.72H131.028ZM148.819 248V228.56H160.309C161.749 228.56 162.999 228.77 164.059 229.19C165.119 229.59 165.939 230.22 166.519 231.08C167.099 231.92 167.389 233 167.389 234.32C167.389 235.2 167.239 235.96 166.939 236.6C166.639 237.22 166.219 237.73 165.679 238.13C165.139 238.53 164.509 238.84 163.789 239.06C163.089 239.28 162.339 239.42 161.539 239.48L161.239 239.27C162.519 239.29 163.579 239.41 164.419 239.63C165.259 239.83 165.899 240.22 166.339 240.8C166.779 241.36 166.999 242.19 166.999 243.29V248H163.609V243.47C163.609 242.71 163.469 242.12 163.189 241.7C162.929 241.26 162.469 240.96 161.809 240.8C161.169 240.62 160.249 240.53 159.049 240.53H152.239V248H148.819ZM152.239 237.74H160.309C161.509 237.74 162.419 237.44 163.039 236.84C163.659 236.24 163.969 235.45 163.969 234.47C163.969 233.53 163.659 232.81 163.039 232.31C162.419 231.79 161.509 231.53 160.309 231.53H152.239V237.74ZM169.753 228.56H188.413V231.5H169.753V228.56ZM177.403 231.14H180.793V248H177.403V231.14ZM201.093 241.49V238.64H208.953C210.053 238.64 210.933 238.32 211.593 237.68C212.273 237.04 212.613 236.18 212.613 235.1C212.613 233.98 212.273 233.11 211.593 232.49C210.933 231.85 210.053 231.53 208.953 231.53H201.573V248H198.153V228.56H208.713C209.733 228.56 210.683 228.7 211.563 228.98C212.443 229.24 213.213 229.64 213.873 230.18C214.553 230.72 215.073 231.4 215.433 232.22C215.813 233.02 216.003 233.98 216.003 235.1C216.003 236.2 215.813 237.16 215.433 237.98C215.073 238.78 214.553 239.44 213.873 239.96C213.213 240.48 212.443 240.87 211.563 241.13C210.683 241.37 209.733 241.49 208.713 241.49H201.093ZM220.316 228.56H223.736V248H220.316V228.56ZM249.465 241.19C249.265 242.69 248.735 243.98 247.875 245.06C247.015 246.12 245.865 246.94 244.425 247.52C243.005 248.08 241.345 248.36 239.445 248.36C237.805 248.36 236.295 248.14 234.915 247.7C233.555 247.26 232.365 246.62 231.345 245.78C230.345 244.92 229.565 243.87 229.005 242.63C228.465 241.37 228.195 239.93 228.195 238.31C228.195 236.67 228.465 235.23 229.005 233.99C229.565 232.75 230.345 231.7 231.345 230.84C232.365 229.96 233.555 229.3 234.915 228.86C236.295 228.42 237.805 228.2 239.445 228.2C241.365 228.2 243.035 228.49 244.455 229.07C245.895 229.65 247.045 230.48 247.905 231.56C248.765 232.64 249.285 233.94 249.465 235.46H246.165C245.885 234.56 245.445 233.8 244.845 233.18C244.245 232.54 243.485 232.05 242.565 231.71C241.665 231.37 240.625 231.2 239.445 231.2C237.965 231.2 236.635 231.48 235.455 232.04C234.275 232.58 233.345 233.38 232.665 234.44C232.005 235.48 231.675 236.77 231.675 238.31C231.675 239.83 232.005 241.12 232.665 242.18C233.345 243.22 234.275 244.01 235.455 244.55C236.635 245.09 237.965 245.36 239.445 245.36C240.625 245.36 241.665 245.2 242.565 244.88C243.465 244.54 244.215 244.06 244.815 243.44C245.415 242.8 245.855 242.05 246.135 241.19H249.465ZM253.379 248V228.56H264.869C266.309 228.56 267.559 228.77 268.619 229.19C269.679 229.59 270.499 230.22 271.079 231.08C271.659 231.92 271.949 233 271.949 234.32C271.949 235.2 271.799 235.96 271.499 236.6C271.199 237.22 270.779 237.73 270.239 238.13C269.699 238.53 269.069 238.84 268.349 239.06C267.649 239.28 266.899 239.42 266.099 239.48L265.799 239.27C267.079 239.29 268.139 239.41 268.979 239.63C269.819 239.83 270.459 240.22 270.899 240.8C271.339 241.36 271.559 242.19 271.559 243.29V248H268.169V243.47C268.169 242.71 268.029 242.12 267.749 241.7C267.489 241.26 267.029 240.96 266.369 240.8C265.729 240.62 264.809 240.53 263.609 240.53H256.799V248H253.379ZM256.799 237.74H264.869C266.069 237.74 266.979 237.44 267.599 236.84C268.219 236.24 268.529 235.45 268.529 234.47C268.529 233.53 268.219 232.81 267.599 232.31C266.979 231.79 266.069 231.53 264.869 231.53H256.799V237.74ZM279.533 239.72V245.06H293.183V248H276.113V228.56H293.153V231.5H279.533V236.9H290.693V239.72H279.533ZM303.354 248L295.584 228.56H299.304L305.904 245.66H304.824L311.124 228.56H314.994L321.294 245.66H320.214L326.814 228.56H330.474L322.794 248H318.774L312.564 230.93H313.584L307.344 248H303.354ZM62.634 274.72V280.06H76.284V283H59.214V263.56H76.254V266.5H62.634V271.9H73.794V274.72H62.634ZM94.345 263.56H98.395L89.935 274.15L89.845 274.24L83.365 283H79.285L87.955 271.84L88.045 271.78L94.345 263.56ZM83.665 263.56L89.815 271.81L89.845 271.87L98.455 283H94.135L87.805 274.15L87.745 274.09L79.585 263.56H83.665ZM104.687 278.44V275.53H116.267V278.44H104.687ZM100.187 283L108.677 263.56H112.337L120.887 283H117.197L109.757 265.45H111.257L103.847 283H100.187ZM137.464 281.23H135.934L146.254 263.56H149.644V283H146.254V268.45L147.034 268.66L138.574 283H134.854L126.394 268.72L127.204 268.48V283H123.784V263.56H127.204L137.464 281.23ZM157.192 276.49V273.64H165.052C166.152 273.64 167.032 273.32 167.692 272.68C168.372 272.04 168.712 271.18 168.712 270.1C168.712 268.98 168.372 268.11 167.692 267.49C167.032 266.85 166.152 266.53 165.052 266.53H157.672V283H154.252V263.56H164.812C165.832 263.56 166.782 263.7 167.662 263.98C168.542 264.24 169.312 264.64 169.972 265.18C170.652 265.72 171.172 266.4 171.532 267.22C171.912 268.02 172.102 268.98 172.102 270.1C172.102 271.2 171.912 272.16 171.532 272.98C171.172 273.78 170.652 274.44 169.972 274.96C169.312 275.48 168.542 275.87 167.662 276.13C166.782 276.37 165.832 276.49 164.812 276.49H157.192ZM179.265 263.56V280.06H191.385V283H175.845V263.56H179.265ZM198.572 274.72V280.06H212.222V283H195.152V263.56H212.192V266.5H198.572V271.9H209.732V274.72H198.572ZM215.072 276.55H218.402C218.482 277.29 218.772 277.96 219.272 278.56C219.792 279.14 220.472 279.6 221.312 279.94C222.172 280.26 223.152 280.42 224.252 280.42C225.232 280.42 226.042 280.3 226.682 280.06C227.322 279.82 227.792 279.49 228.092 279.07C228.412 278.63 228.572 278.12 228.572 277.54C228.572 276.96 228.382 276.51 228.002 276.19C227.642 275.85 227.082 275.57 226.322 275.35C225.562 275.11 224.592 274.88 223.412 274.66C222.432 274.48 221.482 274.24 220.562 273.94C219.642 273.64 218.812 273.26 218.072 272.8C217.352 272.34 216.782 271.78 216.362 271.12C215.942 270.44 215.732 269.64 215.732 268.72C215.732 267.68 216.022 266.74 216.602 265.9C217.202 265.06 218.082 264.4 219.242 263.92C220.402 263.44 221.812 263.2 223.472 263.2C226.012 263.2 227.952 263.79 229.292 264.97C230.632 266.13 231.282 267.71 231.242 269.71H227.972C227.912 268.45 227.452 267.54 226.592 266.98C225.732 266.42 224.642 266.14 223.322 266.14C222.142 266.14 221.152 266.35 220.352 266.77C219.552 267.19 219.152 267.87 219.152 268.81C219.152 269.21 219.242 269.56 219.422 269.86C219.622 270.14 219.942 270.4 220.382 270.64C220.822 270.86 221.422 271.08 222.182 271.3C222.962 271.5 223.912 271.72 225.032 271.96C225.992 272.12 226.892 272.34 227.732 272.62C228.572 272.9 229.302 273.25 229.922 273.67C230.562 274.09 231.062 274.63 231.422 275.29C231.782 275.95 231.962 276.76 231.962 277.72C231.962 278.82 231.682 279.8 231.122 280.66C230.562 281.5 229.702 282.17 228.542 282.67C227.402 283.15 225.922 283.39 224.102 283.39C222.722 283.39 221.512 283.23 220.472 282.91C219.452 282.57 218.582 282.14 217.862 281.62C217.142 281.08 216.562 280.5 216.122 279.88C215.702 279.26 215.402 278.66 215.222 278.08C215.062 277.48 215.012 276.97 215.072 276.55ZM245.437 271.81H259.717V274.72H245.437V271.81ZM259.237 263.56H262.627V283H259.237V263.56ZM242.407 263.56H245.827V283H242.407V263.56ZM270.73 274.72V280.06H284.38V283H267.31V263.56H284.35V266.5H270.73V271.9H281.89V274.72H270.73ZM288.521 283V263.56H300.011C301.451 263.56 302.701 263.77 303.761 264.19C304.821 264.59 305.641 265.22 306.221 266.08C306.801 266.92 307.091 268 307.091 269.32C307.091 270.2 306.941 270.96 306.641 271.6C306.341 272.22 305.921 272.73 305.381 273.13C304.841 273.53 304.211 273.84 303.491 274.06C302.791 274.28 302.041 274.42 301.241 274.48L300.941 274.27C302.221 274.29 303.281 274.41 304.121 274.63C304.961 274.83 305.601 275.22 306.041 275.8C306.481 276.36 306.701 277.19 306.701 278.29V283H303.311V278.47C303.311 277.71 303.171 277.12 302.891 276.7C302.631 276.26 302.171 275.96 301.511 275.8C300.871 275.62 299.951 275.53 298.751 275.53H291.941V283H288.521ZM291.941 272.74H300.011C301.211 272.74 302.121 272.44 302.741 271.84C303.361 271.24 303.671 270.45 303.671 269.47C303.671 268.53 303.361 267.81 302.741 267.31C302.121 266.79 301.211 266.53 300.011 266.53H291.941V272.74ZM314.675 274.72V280.06H328.325V283H311.255V263.56H328.295V266.5H314.675V271.9H325.835V274.72H314.675ZM57.4894 298.56V301.5H43.8694V307.14H55.0294V309.96H43.8694V318H40.4494V298.56H57.4894ZM70.256 318.36C67.976 318.36 65.986 317.95 64.286 317.13C62.606 316.31 61.296 315.15 60.356 313.65C59.436 312.15 58.976 310.36 58.976 308.28C58.976 306.2 59.436 304.41 60.356 302.91C61.296 301.39 62.606 300.23 64.286 299.43C65.986 298.61 67.976 298.2 70.256 298.2C72.556 298.2 74.546 298.61 76.226 299.43C77.906 300.23 79.206 301.39 80.126 302.91C81.066 304.41 81.536 306.2 81.536 308.28C81.536 310.36 81.066 312.15 80.126 313.65C79.206 315.15 77.906 316.31 76.226 317.13C74.546 317.95 72.556 318.36 70.256 318.36ZM70.256 315.36C71.776 315.36 73.116 315.1 74.276 314.58C75.436 314.06 76.346 313.28 77.006 312.24C77.686 311.18 78.026 309.86 78.026 308.28C78.026 306.72 77.686 305.42 77.006 304.38C76.346 303.32 75.436 302.53 74.276 302.01C73.116 301.47 71.776 301.2 70.256 301.2C68.756 301.2 67.416 301.47 66.236 302.01C65.056 302.53 64.126 303.32 63.446 304.38C62.766 305.42 62.426 306.72 62.426 308.28C62.426 309.86 62.766 311.18 63.446 312.24C64.126 313.28 65.056 314.06 66.236 314.58C67.416 315.1 68.756 315.36 70.256 315.36ZM85.4494 318V298.56H96.9394C98.3794 298.56 99.6294 298.77 100.689 299.19C101.749 299.59 102.569 300.22 103.149 301.08C103.729 301.92 104.019 303 104.019 304.32C104.019 305.2 103.869 305.96 103.569 306.6C103.269 307.22 102.849 307.73 102.309 308.13C101.769 308.53 101.139 308.84 100.419 309.06C99.7194 309.28 98.9694 309.42 98.1694 309.48L97.8694 309.27C99.1494 309.29 100.209 309.41 101.049 309.63C101.889 309.83 102.529 310.22 102.969 310.8C103.409 311.36 103.629 312.19 103.629 313.29V318H100.239V313.47C100.239 312.71 100.099 312.12 99.8194 311.7C99.5594 311.26 99.0994 310.96 98.4394 310.8C97.7994 310.62 96.8794 310.53 95.6794 310.53H88.8694V318H85.4494ZM88.8694 307.74H96.9394C98.1394 307.74 99.0494 307.44 99.6694 306.84C100.289 306.24 100.599 305.45 100.599 304.47C100.599 303.53 100.289 302.81 99.6694 302.31C99.0494 301.79 98.1394 301.53 96.9394 301.53H88.8694V307.74ZM131.388 309.81V298.56H134.778V310.08C134.778 311.3 134.608 312.37 134.268 313.29C133.948 314.21 133.488 314.99 132.888 315.63C132.288 316.27 131.578 316.8 130.758 317.22C129.938 317.62 129.038 317.91 128.058 318.09C127.098 318.27 126.078 318.36 124.998 318.36C123.878 318.36 122.818 318.27 121.818 318.09C120.818 317.91 119.908 317.62 119.088 317.22C118.268 316.8 117.558 316.27 116.958 315.63C116.378 314.99 115.918 314.21 115.578 313.29C115.258 312.37 115.098 311.3 115.098 310.08V298.56H118.518V309.81C118.518 311.33 118.798 312.49 119.358 313.29C119.938 314.07 120.718 314.61 121.698 314.91C122.678 315.21 123.778 315.36 124.998 315.36C126.178 315.36 127.248 315.21 128.208 314.91C129.168 314.61 129.938 314.07 130.518 313.29C131.098 312.49 131.388 311.33 131.388 309.81ZM138.154 311.55H141.484C141.564 312.29 141.854 312.96 142.354 313.56C142.874 314.14 143.554 314.6 144.394 314.94C145.254 315.26 146.234 315.42 147.334 315.42C148.314 315.42 149.124 315.3 149.764 315.06C150.404 314.82 150.874 314.49 151.174 314.07C151.494 313.63 151.654 313.12 151.654 312.54C151.654 311.96 151.464 311.51 151.084 311.19C150.724 310.85 150.164 310.57 149.404 310.35C148.644 310.11 147.674 309.88 146.494 309.66C145.514 309.48 144.564 309.24 143.644 308.94C142.724 308.64 141.894 308.26 141.154 307.8C140.434 307.34 139.864 306.78 139.444 306.12C139.024 305.44 138.814 304.64 138.814 303.72C138.814 302.68 139.104 301.74 139.684 300.9C140.284 300.06 141.164 299.4 142.324 298.92C143.484 298.44 144.894 298.2 146.554 298.2C149.094 298.2 151.034 298.79 152.374 299.97C153.714 301.13 154.364 302.71 154.324 304.71H151.054C150.994 303.45 150.534 302.54 149.674 301.98C148.814 301.42 147.724 301.14 146.404 301.14C145.224 301.14 144.234 301.35 143.434 301.77C142.634 302.19 142.234 302.87 142.234 303.81C142.234 304.21 142.324 304.56 142.504 304.86C142.704 305.14 143.024 305.4 143.464 305.64C143.904 305.86 144.504 306.08 145.264 306.3C146.044 306.5 146.994 306.72 148.114 306.96C149.074 307.12 149.974 307.34 150.814 307.62C151.654 307.9 152.384 308.25 153.004 308.67C153.644 309.09 154.144 309.63 154.504 310.29C154.864 310.95 155.044 311.76 155.044 312.72C155.044 313.82 154.764 314.8 154.204 315.66C153.644 316.5 152.784 317.17 151.624 317.67C150.484 318.15 149.004 318.39 147.184 318.39C145.804 318.39 144.594 318.23 143.554 317.91C142.534 317.57 141.664 317.14 140.944 316.62C140.224 316.08 139.644 315.5 139.204 314.88C138.784 314.26 138.484 313.66 138.304 313.08C138.144 312.48 138.094 311.97 138.154 311.55ZM161.994 309.72V315.06H175.644V318H158.574V298.56H175.614V301.5H161.994V306.9H173.154V309.72H161.994ZM179.785 318V298.56H191.275C192.715 298.56 193.965 298.77 195.025 299.19C196.085 299.59 196.905 300.22 197.485 301.08C198.065 301.92 198.355 303 198.355 304.32C198.355 305.2 198.205 305.96 197.905 306.6C197.605 307.22 197.185 307.73 196.645 308.13C196.105 308.53 195.475 308.84 194.755 309.06C194.055 309.28 193.305 309.42 192.505 309.48L192.205 309.27C193.485 309.29 194.545 309.41 195.385 309.63C196.225 309.83 196.865 310.22 197.305 310.8C197.745 311.36 197.965 312.19 197.965 313.29V318H194.575V313.47C194.575 312.71 194.435 312.12 194.155 311.7C193.895 311.26 193.435 310.96 192.775 310.8C192.135 310.62 191.215 310.53 190.015 310.53H183.205V318H179.785ZM183.205 307.74H191.275C192.475 307.74 193.385 307.44 194.005 306.84C194.625 306.24 194.935 305.45 194.935 304.47C194.935 303.53 194.625 302.81 194.005 302.31C193.385 301.79 192.475 301.53 191.275 301.53H183.205V307.74ZM202.28 306.09L201.68 305.19C202 304.71 202.29 304.2 202.55 303.66C202.83 303.1 202.98 302.55 203 302.01L201.41 301.68V298.44H205.52V300.78C205.52 302.1 205.21 303.18 204.59 304.02C203.99 304.86 203.22 305.55 202.28 306.09ZM207.792 311.55H211.122C211.202 312.29 211.492 312.96 211.992 313.56C212.512 314.14 213.192 314.6 214.032 314.94C214.892 315.26 215.872 315.42 216.972 315.42C217.952 315.42 218.762 315.3 219.402 315.06C220.042 314.82 220.512 314.49 220.812 314.07C221.132 313.63 221.292 313.12 221.292 312.54C221.292 311.96 221.102 311.51 220.722 311.19C220.362 310.85 219.802 310.57 219.042 310.35C218.282 310.11 217.312 309.88 216.132 309.66C215.152 309.48 214.202 309.24 213.282 308.94C212.362 308.64 211.532 308.26 210.792 307.8C210.072 307.34 209.502 306.78 209.082 306.12C208.662 305.44 208.452 304.64 208.452 303.72C208.452 302.68 208.742 301.74 209.322 300.9C209.922 300.06 210.802 299.4 211.962 298.92C213.122 298.44 214.532 298.2 216.192 298.2C218.732 298.2 220.672 298.79 222.012 299.97C223.352 301.13 224.002 302.71 223.962 304.71H220.692C220.632 303.45 220.172 302.54 219.312 301.98C218.452 301.42 217.362 301.14 216.042 301.14C214.862 301.14 213.872 301.35 213.072 301.77C212.272 302.19 211.872 302.87 211.872 303.81C211.872 304.21 211.962 304.56 212.142 304.86C212.342 305.14 212.662 305.4 213.102 305.64C213.542 305.86 214.142 306.08 214.902 306.3C215.682 306.5 216.632 306.72 217.752 306.96C218.712 307.12 219.612 307.34 220.452 307.62C221.292 307.9 222.022 308.25 222.642 308.67C223.282 309.09 223.782 309.63 224.142 310.29C224.502 310.95 224.682 311.76 224.682 312.72C224.682 313.82 224.402 314.8 223.842 315.66C223.282 316.5 222.422 317.17 221.262 317.67C220.122 318.15 218.642 318.39 216.822 318.39C215.442 318.39 214.232 318.23 213.192 317.91C212.172 317.57 211.302 317.14 210.582 316.62C209.862 316.08 209.282 315.5 208.842 314.88C208.422 314.26 208.122 313.66 207.942 313.08C207.782 312.48 207.732 311.97 207.792 311.55ZM235.697 298.56H239.117V318H235.697V298.56ZM262.326 314.46L261.306 314.85V298.56H264.696V318H261.306L246.726 302.19L247.776 301.8V318H244.356V298.56H247.776L262.326 314.46ZM268.085 311.55H271.415C271.495 312.29 271.785 312.96 272.285 313.56C272.805 314.14 273.485 314.6 274.325 314.94C275.185 315.26 276.165 315.42 277.265 315.42C278.245 315.42 279.055 315.3 279.695 315.06C280.335 314.82 280.805 314.49 281.105 314.07C281.425 313.63 281.585 313.12 281.585 312.54C281.585 311.96 281.395 311.51 281.015 311.19C280.655 310.85 280.095 310.57 279.335 310.35C278.575 310.11 277.605 309.88 276.425 309.66C275.445 309.48 274.495 309.24 273.575 308.94C272.655 308.64 271.825 308.26 271.085 307.8C270.365 307.34 269.795 306.78 269.375 306.12C268.955 305.44 268.745 304.64 268.745 303.72C268.745 302.68 269.035 301.74 269.615 300.9C270.215 300.06 271.095 299.4 272.255 298.92C273.415 298.44 274.825 298.2 276.485 298.2C279.025 298.2 280.965 298.79 282.305 299.97C283.645 301.13 284.295 302.71 284.255 304.71H280.985C280.925 303.45 280.465 302.54 279.605 301.98C278.745 301.42 277.655 301.14 276.335 301.14C275.155 301.14 274.165 301.35 273.365 301.77C272.565 302.19 272.165 302.87 272.165 303.81C272.165 304.21 272.255 304.56 272.435 304.86C272.635 305.14 272.955 305.4 273.395 305.64C273.835 305.86 274.435 306.08 275.195 306.3C275.975 306.5 276.925 306.72 278.045 306.96C279.005 307.12 279.905 307.34 280.745 307.62C281.585 307.9 282.315 308.25 282.935 308.67C283.575 309.09 284.075 309.63 284.435 310.29C284.795 310.95 284.975 311.76 284.975 312.72C284.975 313.82 284.695 314.8 284.135 315.66C283.575 316.5 282.715 317.17 281.555 317.67C280.415 318.15 278.935 318.39 277.115 318.39C275.735 318.39 274.525 318.23 273.485 317.91C272.465 317.57 271.595 317.14 270.875 316.62C270.155 316.08 269.575 315.5 269.135 314.88C268.715 314.26 268.415 313.66 268.235 313.08C268.075 312.48 268.025 311.97 268.085 311.55ZM291.386 311.49V308.64H299.246C300.346 308.64 301.226 308.32 301.886 307.68C302.566 307.04 302.906 306.18 302.906 305.1C302.906 303.98 302.566 303.11 301.886 302.49C301.226 301.85 300.346 301.53 299.246 301.53H291.866V318H288.446V298.56H299.006C300.026 298.56 300.976 298.7 301.856 298.98C302.736 299.24 303.506 299.64 304.166 300.18C304.846 300.72 305.366 301.4 305.726 302.22C306.106 303.02 306.296 303.98 306.296 305.1C306.296 306.2 306.106 307.16 305.726 307.98C305.366 308.78 304.846 309.44 304.166 309.96C303.506 310.48 302.736 310.87 301.856 311.13C300.976 311.37 300.026 311.49 299.006 311.49H291.386ZM319.953 318.36C317.673 318.36 315.683 317.95 313.983 317.13C312.303 316.31 310.993 315.15 310.053 313.65C309.133 312.15 308.673 310.36 308.673 308.28C308.673 306.2 309.133 304.41 310.053 302.91C310.993 301.39 312.303 300.23 313.983 299.43C315.683 298.61 317.673 298.2 319.953 298.2C322.253 298.2 324.243 298.61 325.923 299.43C327.603 300.23 328.903 301.39 329.823 302.91C330.763 304.41 331.233 306.2 331.233 308.28C331.233 310.36 330.763 312.15 329.823 313.65C328.903 315.15 327.603 316.31 325.923 317.13C324.243 317.95 322.253 318.36 319.953 318.36ZM319.953 315.36C321.473 315.36 322.813 315.1 323.973 314.58C325.133 314.06 326.043 313.28 326.703 312.24C327.383 311.18 327.723 309.86 327.723 308.28C327.723 306.72 327.383 305.42 326.703 304.38C326.043 303.32 325.133 302.53 323.973 302.01C322.813 301.47 321.473 301.2 319.953 301.2C318.453 301.2 317.113 301.47 315.933 302.01C314.753 302.53 313.823 303.32 313.143 304.38C312.463 305.42 312.123 306.72 312.123 308.28C312.123 309.86 312.463 311.18 313.143 312.24C313.823 313.28 314.753 314.06 315.933 314.58C317.113 315.1 318.453 315.36 319.953 315.36ZM335.687 304.65L337.067 302.19L346.847 307.77V310.83L337.067 316.41L335.687 313.89L344.057 309.3L335.687 304.65Z" fill="black"/>
</svg>
