<svg width="263" height="268" viewBox="0 0 263 268" fill="none" xmlns="http://www.w3.org/2000/svg">
<path d="M157.526 158.642C156.574 156.809 158.09 154.602 160.084 154.958C169.182 156.56 178.329 157.945 187.538 159.058C203.262 160.884 219.09 162.162 235.3 161.833C237.823 161.776 238.626 158.208 236.372 157.07C221.876 149.793 207.035 144.132 192.053 139.009C183.261 136.049 174.39 133.357 165.487 130.885C163.534 130.348 163.112 127.702 164.757 126.457C167.632 124.271 170.49 122.082 173.299 119.786C181.58 112.981 189.685 105.908 197.332 98.0452C199.201 96.1271 197.313 92.9591 194.845 93.9042C184.804 97.7798 175.243 102.43 165.837 107.363C162.654 109.06 159.527 110.827 156.414 112.616C154.637 113.641 152.546 112.102 152.924 110.018C154.617 100.485 156.119 90.9081 157.378 81.2768C159.417 64.8747 160.933 48.3731 160.946 31.5127C160.955 28.8882 157.511 28.1088 156.394 30.4826C149.18 45.7137 143.476 61.2674 138.287 76.9567C135.279 86.1924 132.531 95.4869 129.99 104.828C129.439 106.873 126.891 107.363 125.726 105.672C123.681 102.715 121.615 99.7737 119.468 96.8705C113.088 88.3656 106.448 80.0491 99.0421 72.2255C97.2354 70.313 94.1597 72.3388 95.0213 74.8939C98.5561 85.2866 102.844 95.1643 107.405 104.876C108.975 108.162 110.613 111.388 112.273 114.599C113.225 116.432 111.709 118.64 109.715 118.284C100.595 116.696 91.4309 115.308 82.2092 114.172C66.5027 112.35 50.6911 111.075 34.5073 111.372C31.9882 111.411 31.1765 115.015 33.4346 116.135C47.9215 123.372 62.746 129.03 77.7102 134.148C86.5026 137.108 95.3735 139.801 104.276 142.272C106.229 142.809 106.651 145.455 105.007 146.701C102.131 148.886 99.2695 151.094 96.4646 153.371C88.1618 160.191 80.035 167.278 72.3804 175.177C70.5114 177.095 72.4032 180.245 74.8676 179.318C84.9259 175.446 94.5252 170.786 103.953 165.838C107.115 164.156 110.237 162.407 113.333 160.614C115.11 159.589 117.201 161.128 116.823 163.212C115.117 172.723 113.619 182.282 112.381 191.899C110.338 208.319 108.818 224.839 108.835 241.725C108.844 244.354 112.253 245.125 113.387 242.755C120.64 227.514 126.348 211.942 131.541 196.235C134.545 187.017 137.289 177.741 139.826 168.417C140.377 166.372 142.925 165.883 144.09 167.574C146.118 170.526 148.188 173.45 150.322 176.331C156.715 184.858 163.368 193.197 170.809 201.028C172.615 202.941 175.674 200.911 174.829 198.36C171.299 187.949 167.002 178.031 162.427 168.298C160.87 165.033 159.25 161.811 157.586 158.618L157.526 158.642Z" fill="black"/>
<path d="M150.541 152.761C149.59 150.927 151.106 148.72 153.099 149.076C162.198 150.678 171.345 152.063 180.553 153.176C196.277 155.002 212.106 156.281 228.315 155.951C230.838 155.894 231.642 152.327 229.388 151.188C214.892 143.911 200.05 138.25 185.069 133.128C176.276 130.167 167.405 127.475 158.503 125.003C156.55 124.466 156.127 121.82 157.772 120.575C160.647 118.389 163.505 116.2 166.314 113.905C174.596 107.099 182.701 100.026 190.347 92.1634C192.217 90.2452 190.329 87.0773 187.86 88.0223C177.819 91.8979 168.259 96.5484 158.853 101.481C155.669 103.178 152.543 104.945 149.429 106.734C147.652 107.759 145.561 106.22 145.94 104.136C147.632 94.6027 149.134 85.0263 150.394 75.395C152.433 58.9928 153.948 42.4913 153.962 25.6309C153.971 23.0063 150.527 22.2269 149.41 24.6008C142.196 39.8319 136.492 55.3856 131.303 71.0749C128.295 80.3106 125.547 89.6051 123.006 98.9465C122.454 100.992 119.907 101.481 118.741 99.7897C116.697 96.8337 114.631 93.8918 112.483 90.9887C106.104 82.4837 99.4637 74.1672 92.0577 66.3436C90.251 64.4312 87.1753 66.4569 88.0369 69.012C91.5718 79.4047 95.8593 89.2825 100.421 98.9939C101.991 102.28 103.629 105.506 105.289 108.718C106.24 110.551 104.724 112.758 102.731 112.402C93.6111 110.814 84.4465 109.426 75.2248 108.291C59.5183 106.469 43.7067 105.194 27.523 105.49C25.0039 105.529 24.1922 109.133 26.4502 110.253C40.9372 117.491 55.7616 123.148 70.7258 128.266C79.5182 131.227 88.3891 133.919 97.2916 136.39C99.2444 136.928 99.6671 139.574 98.0223 140.819C95.1471 143.005 92.2852 145.212 89.4802 147.489C81.1774 154.309 73.0506 161.396 65.3961 169.295C63.527 171.213 65.4188 174.363 67.8832 173.436C77.9415 169.565 87.5408 164.904 96.9682 159.957C100.13 158.274 103.253 156.525 106.349 154.732C108.126 153.707 110.217 155.246 109.838 157.33C108.133 166.842 106.635 176.4 105.397 186.017C103.354 202.437 101.834 218.957 101.851 235.843C101.859 238.472 105.269 239.243 106.403 236.873C113.656 221.632 119.364 206.06 124.557 190.353C127.561 181.135 130.305 171.859 132.841 162.535C133.393 160.49 135.941 160.001 137.106 161.692C139.133 164.644 141.203 167.568 143.338 170.449C149.73 178.976 156.384 187.315 163.824 195.146C165.631 197.059 168.689 195.029 167.845 192.478C164.314 182.067 160.018 172.149 155.443 162.416C153.886 159.151 152.265 155.93 150.601 152.736L150.541 152.761Z" fill="#FCF43D" stroke="black" stroke-width="2.35" stroke-linecap="round" stroke-linejoin="round"/>
</svg>
