<svg width="327" height="324" viewBox="0 0 327 324" fill="none" xmlns="http://www.w3.org/2000/svg">
<path d="M196.785 191.651C195.54 189.436 197.393 186.755 199.913 187.177C211.412 189.074 222.968 190.709 234.594 192.014C254.444 194.152 274.412 195.627 294.818 195.153C297.994 195.072 298.915 190.747 296.048 189.379C277.605 180.632 258.768 173.844 239.769 167.71C228.62 164.165 217.379 160.945 206.104 157.993C203.631 157.352 203.031 154.149 205.071 152.633C208.636 149.972 212.18 147.307 215.659 144.513C225.916 136.232 235.943 127.626 245.373 118.067C247.678 115.735 245.22 111.907 242.135 113.063C229.588 117.804 217.665 123.482 205.945 129.501C201.979 131.571 198.086 133.726 194.211 135.907C191.999 137.157 189.326 135.303 189.75 132.777C191.638 121.221 193.285 109.615 194.626 97.9431C196.776 78.0666 198.263 58.072 197.851 37.6498C197.795 34.4708 193.437 33.5428 192.091 36.4234C183.394 54.9057 176.607 73.7717 170.472 92.7996C166.919 104 163.695 115.271 160.734 126.598C160.091 129.077 156.895 129.682 155.384 127.639C152.734 124.068 150.057 120.514 147.278 117.008C139.026 106.736 130.452 96.6939 120.925 87.2522C118.6 84.9441 114.778 87.4122 115.929 90.503C120.646 103.075 126.298 115.019 132.29 126.761C134.351 130.734 136.497 134.633 138.669 138.516C139.914 140.732 138.061 143.412 135.541 142.991C124.015 141.11 112.438 139.471 100.794 138.139C80.9666 136.005 61.0204 134.535 40.6456 134.97C37.4739 135.029 36.5436 139.398 39.416 140.744C57.846 149.442 76.6608 156.226 95.6378 162.355C106.787 165.9 118.028 169.12 129.303 172.072C131.776 172.713 132.376 175.916 130.336 177.433C126.771 180.093 123.223 182.78 119.748 185.552C109.465 193.851 99.4108 202.473 89.9718 212.076C87.6667 214.409 90.1297 218.215 93.2098 217.081C105.779 212.344 117.75 206.654 129.497 200.618C133.436 198.565 137.324 196.432 141.178 194.246C143.39 192.996 146.062 194.85 145.639 197.376C143.733 208.905 142.091 220.49 140.776 232.144C138.622 252.043 137.13 272.059 137.582 292.513C137.659 295.696 141.973 296.615 143.341 293.739C152.087 275.244 158.879 256.356 165.018 237.306C168.566 226.127 171.786 214.879 174.742 203.574C175.385 201.094 178.581 200.49 180.092 202.533C182.721 206.099 185.402 209.631 188.164 213.111C196.432 223.409 205.025 233.478 214.595 242.929C216.92 245.237 220.72 242.764 219.591 239.678C214.879 227.084 209.215 215.091 203.205 203.323C201.161 199.377 199.037 195.482 196.86 191.622L196.785 191.651Z" fill="black"/>
<path d="M187.834 184.559C186.589 182.343 188.442 179.662 190.962 180.084C202.461 181.982 214.017 183.616 225.643 184.921C245.493 187.06 265.461 188.535 285.867 188.06C289.043 187.979 289.964 183.654 287.096 182.286C268.654 173.539 249.817 166.751 230.818 160.617C219.669 157.072 208.428 153.853 197.153 150.901C194.68 150.259 194.08 147.056 196.12 145.54C199.685 142.879 203.229 140.214 206.708 137.421C216.964 129.139 226.992 120.534 236.422 110.975C238.727 108.642 236.269 104.814 233.184 105.97C220.637 110.712 208.714 116.389 196.994 122.408C193.028 124.478 189.135 126.633 185.26 128.814C183.048 130.064 180.375 128.21 180.798 125.684C182.687 114.129 184.334 102.522 185.675 90.8504C187.824 70.9738 189.312 50.9793 188.899 30.5571C188.844 27.378 184.486 26.4501 183.14 29.3307C174.443 47.8129 167.656 66.679 161.521 85.7068C157.968 96.9076 154.744 108.178 151.782 119.505C151.14 121.985 147.944 122.589 146.433 120.546C143.782 116.975 141.105 113.422 138.327 109.915C130.075 99.6435 121.5 89.6011 111.973 80.1594C109.649 77.8513 105.827 80.3194 106.977 83.4103C111.695 95.9819 117.346 107.926 123.339 119.668C125.4 123.641 127.546 127.541 129.718 131.423C130.963 133.639 129.11 136.32 126.59 135.898C115.064 134.017 103.486 132.378 91.8433 131.046C72.0155 128.913 52.0693 127.442 31.6944 127.877C28.5228 127.936 27.5924 132.305 30.4648 133.651C48.8948 142.35 67.7096 149.133 86.6866 155.263C97.8356 158.807 109.077 162.027 120.352 164.979C122.825 165.62 123.425 168.824 121.385 170.34C117.82 173 114.271 175.687 110.797 178.459C100.514 186.758 90.4596 195.381 81.0206 204.984C78.7155 207.316 81.1785 211.122 84.2587 209.988C96.8277 205.251 108.799 199.561 120.546 193.525C124.485 191.472 128.373 189.339 132.227 187.153C134.439 185.903 137.111 187.758 136.688 190.284C134.782 201.812 133.139 213.397 131.825 225.051C129.671 244.95 128.179 264.966 128.631 285.42C128.708 288.604 133.022 289.522 134.39 286.646C143.136 268.151 149.928 249.263 156.067 230.213C159.615 219.035 162.835 207.786 165.791 196.481C166.434 194.002 169.63 193.397 171.141 195.44C173.769 199.006 176.451 202.538 179.213 206.018C187.481 216.316 196.073 226.385 205.644 235.836C207.968 238.144 211.768 235.671 210.64 232.585C205.928 219.992 200.263 207.999 194.254 196.231C192.21 192.284 190.086 188.389 187.909 184.529L187.834 184.559Z" fill="#F9346C" stroke="black" stroke-width="2.35" stroke-linecap="round" stroke-linejoin="round"/>
</svg>
