<svg width="226" height="226" viewBox="0 0 226 226" fill="none" xmlns="http://www.w3.org/2000/svg">
<path d="M203.226 91.9089C202.232 88.0451 144.524 102.94 144.524 102.94L124.953 107.992L130.17 99.1131C130.17 99.1131 150.347 64.7737 146.924 62.7442C143.5 60.7147 123.323 95.0541 123.323 95.0541L118.106 103.933L113.05 84.2817C113.05 84.2817 98.1413 26.3372 94.2933 27.3304C90.4452 28.3236 105.354 86.2681 105.354 86.2681L110.41 105.919L101.559 100.672C101.559 100.672 67.3243 80.3768 65.3066 83.8107C63.2889 87.2447 97.5232 107.54 97.5232 107.54L106.375 112.787L86.8038 117.839C86.8038 117.839 29.0958 132.734 30.0899 136.598C31.084 140.462 88.792 125.566 88.792 125.566L108.363 120.515L103.146 129.394C103.146 129.394 82.9689 163.733 86.3923 165.762C89.8157 167.792 109.993 133.453 109.993 133.453L115.21 124.574L120.266 144.225C120.266 144.225 135.175 202.169 139.023 201.176C142.871 200.183 127.962 142.238 127.962 142.238L122.906 122.587L131.757 127.835C131.757 127.835 165.992 148.13 168.01 144.696C170.027 141.262 135.793 120.967 135.793 120.967L126.941 115.719L146.512 110.668C146.512 110.668 204.22 95.7727 203.226 91.9089Z" fill="black"/>
<path d="M195.547 88.5735C194.553 84.7097 136.845 99.6049 136.845 99.6049L117.274 104.656L122.491 95.7777C122.491 95.7777 142.668 61.4383 139.244 59.4088C135.821 57.3793 115.644 91.7187 115.644 91.7187L110.427 100.597L105.371 80.9462C105.371 80.9462 90.4619 23.0017 86.6139 23.995C82.7659 24.9882 97.6747 82.9327 97.6747 82.9327L102.731 102.584L93.8793 97.3364C93.8793 97.3364 59.645 77.0413 57.6273 80.4753C55.6095 83.9092 89.8439 104.204 89.8439 104.204L98.6954 109.452L79.1244 114.503C79.1244 114.503 21.4164 129.398 22.4106 133.262C23.4047 137.126 81.1127 122.231 81.1127 122.231L100.684 117.179L95.4667 126.058C95.4667 126.058 75.2895 160.397 78.713 162.427C82.1364 164.456 102.314 130.117 102.314 130.117L107.531 121.238L112.587 140.889C112.587 140.889 127.495 198.834 131.344 197.841C135.192 196.848 120.283 138.903 120.283 138.903L115.227 119.252L124.078 124.499C124.078 124.499 158.312 144.794 160.33 141.36C162.348 137.927 128.114 117.631 128.114 117.631L119.262 112.384L138.833 107.332C138.833 107.332 196.541 92.4373 195.547 88.5735Z" fill="#8F55FF" stroke="black" stroke-width="2.35" stroke-linecap="round" stroke-linejoin="round"/>
</svg>
