<svg width="519" height="197" viewBox="0 0 519 197" fill="none" xmlns="http://www.w3.org/2000/svg">
<path d="M509.834 66.5387C510.954 75.4474 505.213 84.9204 493.544 94.4448C481.899 103.95 464.474 113.401 442.542 122.263C398.686 139.983 336.919 155.306 267.642 164.017C198.364 172.729 134.727 173.175 87.8487 166.864C64.4058 163.708 45.183 158.866 31.5471 152.539C17.8835 146.201 9.97556 138.444 8.85531 129.535C7.73505 120.626 13.4765 111.153 25.1453 101.629C36.7905 92.124 54.216 82.6731 76.1476 73.8113C120.004 56.0904 181.77 40.768 251.048 32.0565C320.326 23.3451 383.963 22.8985 430.841 29.2097C454.284 32.3659 473.506 37.2083 487.142 43.5344C500.806 49.8733 508.714 57.6299 509.834 66.5387Z" stroke="#FDFBE2"/>
<path fill-rule="evenodd" clip-rule="evenodd" d="M484.5 10C484.5 10 483.485 31.5466 481.454 32.7752C479.22 33.7906 470.283 27.0789 470.283 27.0789C470.283 27.0789 477.808 35.6184 476.579 37.6492C475.158 39.6799 453 40.8984 453 40.8984C453 40.8984 475.158 42.3199 476.579 44.3609C477.808 46.3917 470.283 54.9312 470.283 54.9312C470.283 54.9312 479.23 48.2193 481.454 49.2347C483.485 50.4532 484.5 72 484.5 72C484.5 72 485.515 50.4532 487.76 49.2347C489.994 48.2193 498.737 54.9312 498.737 54.9312C498.737 54.9312 491.415 46.3917 492.644 44.3609C493.873 42.3301 516 40.8984 516 40.8984C516 40.8984 493.842 39.6799 492.644 37.6492C491.446 35.6184 498.737 27.0789 498.737 27.0789C498.737 27.0789 489.994 33.7906 487.76 32.7752C485.719 31.5161 484.703 13.0563 484.5 10Z" fill="#FDFBE2"/>
<circle cx="510" cy="74" r="9" fill="#FDFBE2"/>
<circle cx="492" cy="95" r="5" fill="#FDFBE2"/>
</svg>
