<svg width="330" height="847" viewBox="0 0 330 847" fill="none" xmlns="http://www.w3.org/2000/svg">
<path d="M258.07 615.589C286.753 633.376 316.495 626.048 350.737 629C350.737 586.017 350.735 548.384 350.739 509.413C350.745 457.471 350.734 400.52 350.734 348.339C350.734 259.779 350.734 173.453 350.734 85.0923C350.734 75.3633 350.735 85.0923 350.737 40.8704C350.737 40.8704 324.585 37.6132 317.361 33.0051C300.593 22.3091 269.136 16.3065 248.84 9.22626C192.658 -10.3719 102.691 0.788269 70.9688 47.1592C58.9491 64.7295 63.9946 89.2698 58.1876 108.305C51.6559 129.716 34.3808 146.677 31.5602 169.168C28.705 191.934 37.5957 217.109 37.5957 240.505C37.5957 260.777 21.5249 273.068 7.06296 289.478C-25.5862 326.524 77.7258 374.725 101.146 396.2C128.53 421.309 153.284 455.739 162.212 488.485C169.309 514.517 173.702 539.681 195.23 561.237C215.688 581.722 232.811 599.924 258.07 615.589Z" fill="#FED92F"/>
<path d="M270.556 431.198C296.345 417.689 324.176 416.81 351.989 417.025V553.496V646.632V732.076V774.548V806.027C341.197 825.86 342.854 817.647 324.857 828.503C289.939 849.565 257.891 853.441 221.232 835.983C197.317 824.595 193.169 806.255 201.18 779.551C208.254 755.971 216.167 732.809 223.573 709.295C236.356 668.714 223.354 623.398 199.716 591.389C192.13 581.115 177.852 568.382 178.786 553.496C179.68 539.264 189.413 526.272 196.204 514.79C216.307 480.797 236.45 449.064 270.556 431.198Z" fill="#B35699"/>
<path d="M352.364 227.622C335.12 194.307 310.87 179 281.194 179C268.635 179 257.636 190.281 257.636 208.305C257.636 222.434 253.426 229.291 263.279 239.826C272.088 249.243 281.229 269.97 285.046 284.398C289.787 302.322 289.883 318.634 289.883 338.575C289.883 361.19 291.495 383.645 291.495 406.419C291.495 421.51 289.846 438.427 293.913 452.715C300.049 474.27 310.409 489.944 322.846 505.291C338.256 524.308 332.535 524.69 352.742 532" stroke="white" stroke-width="5" stroke-linecap="round" stroke-linejoin="round"/>
</svg>
