<svg width="127" height="130" viewBox="0 0 127 130" fill="none" xmlns="http://www.w3.org/2000/svg">
<path d="M84.2763 94.4942C86.4542 95.4537 87.9287 95.9656 90.1477 96.6884C88.3942 96.2365 86.4269 95.9571 84.7263 96.2843C83.771 96.4681 82.5832 96.683 81.748 97.1079C80.4541 97.766 78.7737 97.7745 77.4087 98.3066C73.7782 99.722 69.5886 100.198 65.7485 101.146C59.7171 102.635 53.3406 103.348 46.902 101.909C41.9519 100.803 35.5692 98 33.9867 92.9749C31.8569 86.2117 37.2176 80.5933 44.0516 79.9451C48.0685 79.5641 52.0136 80.0889 56.0311 81.2406C58.5476 81.9621 61.0332 82.9427 63.5144 83.803C65.2721 84.4126 66.9231 85.0544 68.5943 85.9004C71.9731 87.6108 75.2888 89.482 78.5513 91.3997C80.4385 92.5091 82.2689 93.6099 84.2763 94.4942Z" fill="#E79565"/>
<path d="M93.4155 71.3031C95.1592 73.4891 96.0679 75.6106 96.8406 77.9727C96.7786 77.4344 96.737 76.8891 96.6085 76.3974C96.3427 75.3802 95.9365 73.8762 96.0098 72.8669C96.1326 71.176 95.5466 69.5586 95.2734 67.9257C94.7177 64.604 94.4344 60.6992 94.3133 57.3436C94.1157 51.8676 91.4373 46.0705 88.7668 41.1196C84.6076 33.409 78.1548 26.8044 69.9021 22.2108C67.4648 20.8542 64.446 20.0077 61.6207 19.7312C59.7835 19.5514 57.2495 19.8272 55.562 19.1717C52.3252 17.9145 49.0352 21.0621 47.1198 22.7207C38.4984 30.1862 49.4422 41.1895 56.2025 46.5456C61.423 50.6817 67.3441 53.5731 73.0392 57.0737C77.1742 59.6153 82.237 61.2527 85.8399 64.4106C88.4398 66.6894 91.2927 68.6418 93.4155 71.3031Z" fill="#5DA1A1"/>
</svg>
