<svg preserveAspectRatio="xMinYMid meet" width="314" height="1418" viewBox="0 0 314 1418" fill="none" xmlns="http://www.w3.org/2000/svg">
<path d="M302.164 2.66044C127.147 66.5177 216.221 205.409 219.69 305.894C223.489 415.969 226.239 530.416 167.189 637.246C150.877 666.758 141.189 698.805 131.29 729.214C117.701 770.962 98.6207 808.425 78.1955 848.97C51.9869 900.995 30.3904 953.216 38.2821 1007.58C42.0532 1033.55 62.0813 1062.5 76.1454 1086.86C115.001 1154.17 168.232 1221.89 227.356 1282.63C272.035 1328.53 286.4 1356.34 346.247 1395.47" stroke="#E79565" stroke-width="5" stroke-linecap="round" stroke-linejoin="round"/>
<path d="M313.522 7.77165C138.505 71.6289 227.58 210.52 231.048 311.005C234.848 421.08 237.598 535.527 178.548 642.358C162.235 671.869 152.547 703.916 142.649 734.326C129.06 776.073 109.979 813.536 89.5539 854.081C63.3453 906.106 41.7488 958.328 49.6405 1012.69C53.4116 1038.66 73.4397 1067.61 87.5038 1091.97C126.359 1159.28 179.591 1227 238.714 1287.74C283.393 1333.64 297.758 1361.45 357.605 1400.58" stroke="#E79565" stroke-width="5" stroke-linecap="round" stroke-linejoin="round"/>
<path d="M321.672 12.4933C146.655 76.3506 235.73 215.242 239.198 315.727C242.998 425.802 245.747 540.249 186.698 647.079C170.385 676.591 160.697 708.638 150.799 739.047C137.21 780.795 118.129 818.258 97.7038 858.803C71.4952 910.828 49.8987 963.049 57.7904 1017.41C61.5615 1043.39 81.5896 1072.33 95.6537 1096.7C134.509 1164 187.741 1231.72 246.864 1292.46C291.543 1338.36 305.908 1366.18 365.755 1405.3" stroke="#E79565" stroke-width="3" stroke-linecap="round" stroke-linejoin="round"/>
<path d="M259.564 628C259.564 593.432 267.132 572.872 311.535 546C311.535 546 312.563 635.976 311.536 696C311.536 737.056 312.52 792.007 311.536 836.111C310.694 873.86 312.56 910.5 311.536 948.388L311.536 1006.5C311.536 1023.42 311.491 1039.33 311.491 1057.2L311.491 1183.47C311.492 1191.26 319.755 1201.76 297.6 1189.11C287.239 1182.8 269.248 1179.99 258.241 1173.44C250.025 1168.55 233.457 1164.14 223.512 1159.78C199.923 1149.44 178.668 1129.16 167.945 1114.8C127.044 1060.01 141.294 1004.53 164.344 948.388C180.137 909.923 212.856 872.749 239.718 836.111C252.595 818.549 260.689 798.619 265.186 780C268.357 766.872 269.147 759.786 269.488 746.5C269.701 738.191 274.832 722.5 274.832 711C280.943 702.665 279.412 689.5 279.412 684C279.412 675 270.394 663.881 269.488 655.5C268.725 648.433 264.452 635.879 259.564 628Z" fill="#5DA1A1"/>
</svg>
