<svg width="239" height="638" viewBox="0 0 239 638" fill="none" xmlns="http://www.w3.org/2000/svg">
<path d="M174.675 625.489C193.951 639.43 213.939 633.687 236.95 636C236.95 601.783 238.732 574.967 236.946 543.413C236.95 502.701 236.948 456.921 236.948 416.022C236.948 346.611 236.948 278.95 236.948 209.694C236.948 202.069 236.948 209.694 236.95 175.034C236.95 175.034 219.375 172.481 214.52 168.869C203.251 160.486 182.112 155.781 168.472 150.231C130.716 134.871 70.2543 143.618 48.9361 179.963C40.8584 193.734 44.2492 212.968 40.3466 227.888C35.9571 244.669 24.3477 257.963 22.4521 275.591C20.5333 293.434 26.5082 313.166 26.5082 331.504C26.5082 347.393 15.7081 357.027 5.98917 369.888C-15.9522 398.925 53.477 436.703 69.2165 453.535C87.6192 473.215 104.255 500.201 110.255 525.867C115.024 546.27 117.977 565.993 132.444 582.888C146.192 598.944 157.699 613.211 174.675 625.489Z" fill="#E79565" stroke="#E8996A" stroke-width="3" stroke-linecap="round" stroke-linejoin="round"/>
<path d="M180.866 51.0853C221.813 69.2561 226.049 97.1863 237.685 134.623L237.685 160.524C237.685 177.533 237.685 194.998 237.685 223.323V233.389C237.685 243.454 237.685 229.646 237.685 240.309C229.993 238.358 226.208 233.798 218.769 230.497C188.762 217.181 163.908 199.527 149.281 171.939C141.399 157.075 149.281 141.796 149.281 126.775C149.281 111.588 148.176 91.6171 144.543 76.7823C139.487 56.1422 130.646 36.6754 124.714 16.1997C122.507 8.58322 122.536 -2.95535 124.714 0.695881C132.568 13.8626 131.902 10.4313 142.963 21.6506C152.154 30.9724 168.108 45.4238 180.866 51.0853Z" fill="#0E7471"/>
<path d="M237.684 346.622C215.646 330.796 193.943 340.973 180.573 361.091C173.61 371.568 184.976 387.709 180.573 399.191C178.294 405.133 179.887 414.925 176.231 420.082C166.349 434.022 139.31 436.225 138.442 455.703C137.711 472.1 152.176 481.17 145.593 497.54C138.948 514.068 132.361 532.163 149.285 545.143C156.689 550.821 169.119 550.954 178.233 553.276C187.692 555.687 190.907 556.901 200.782 557.68C219.245 559.135 219.632 566.238 237.685 563.027" stroke="white" stroke-width="5" stroke-linecap="round" stroke-linejoin="round"/>
</svg>
