<svg preserveAspectRatio="xMinYMid meet" width="327" height="847" viewBox="0 0 327 847" fill="none" xmlns="http://www.w3.org/2000/svg">
<path d="M69.6711 615.589C40.9885 633.376 11.2459 626.048 -22.996 629C-22.9961 586.017 -22.9936 548.384 -22.9983 509.413C-23.0041 457.47 -22.9932 400.52 -22.9932 348.339C-22.9932 259.779 -22.9927 173.453 -22.9927 85.092C-22.9927 75.3631 -22.9934 85.092 -22.996 40.8702C-22.996 40.8702 3.15644 37.6129 10.3805 33.0049C27.1487 22.3089 58.6052 16.3062 78.9019 9.22601C135.083 -10.3722 225.051 0.788025 256.774 47.159C268.793 64.7292 263.748 89.2696 269.555 108.305C276.087 129.716 293.362 146.677 296.182 169.168C299.037 191.933 290.147 217.108 290.147 240.505C290.147 260.777 306.218 273.068 320.68 289.478C353.329 326.524 250.016 374.724 226.596 396.2C199.212 421.309 174.458 455.738 165.53 488.485C158.433 514.516 154.04 539.681 132.512 561.237C112.054 581.722 94.931 599.924 69.6711 615.589Z" fill="#FED92F"/>
<path d="M57.1863 431.198C31.3973 417.689 3.56618 416.81 -24.2473 417.025V553.496V646.632V732.076V774.548V806.027C-13.4547 825.86 -15.1122 817.646 2.88545 828.502C37.8036 849.565 69.8517 853.44 106.511 835.983C130.426 824.595 134.574 806.255 126.563 779.551C119.489 755.971 111.576 732.809 104.169 709.295C91.3863 668.714 104.389 623.398 128.026 591.388C135.613 581.114 149.891 568.382 148.956 553.496C148.063 539.264 138.33 526.272 131.539 514.79C111.435 480.797 91.2922 449.063 57.1863 431.198Z" fill="#B35699"/>
<path d="M-24.6227 227.621C-7.37829 194.307 16.8715 179 46.5481 179C59.1073 179 70.1061 190.281 70.1061 208.304C70.1061 222.434 74.3162 229.291 64.4629 239.825C55.6542 249.243 46.5134 269.969 42.6964 284.398C37.9549 302.322 37.8594 318.634 37.8594 338.575C37.8594 361.19 36.2471 383.645 36.2471 406.419C36.2471 421.51 37.8961 438.427 33.8286 452.715C27.6928 474.27 17.3328 489.944 4.89618 505.291C-10.514 524.308 -4.79321 524.69 -25 532" stroke="white" stroke-width="5" stroke-linecap="round" stroke-linejoin="round"/>
</svg>
