<svg width="294" height="1418" viewBox="0 0 294 1418" fill="none" xmlns="http://www.w3.org/2000/svg">
<path d="M-8.41863 2.66058C166.598 66.5179 77.5236 205.409 74.0551 305.894C70.2556 415.969 67.5059 530.416 126.556 637.247C142.868 666.758 152.556 698.805 162.454 729.214C176.043 770.962 195.124 808.425 215.549 848.97C241.757 900.995 263.354 953.216 255.462 1007.58C251.691 1033.55 231.663 1062.5 217.599 1086.86C178.744 1154.17 125.513 1221.89 66.3892 1282.63C21.7104 1328.53 7.34544 1356.34 -52.5016 1395.47" stroke="#E79565" stroke-width="5" stroke-linecap="round" stroke-linejoin="round"/>
<path d="M-19.778 7.77177C155.239 71.6291 66.1643 210.52 62.6958 311.005C58.8962 421.08 56.1465 535.527 115.196 642.358C131.508 671.87 141.196 703.916 151.095 734.326C164.684 776.073 183.764 813.537 204.19 854.081C230.398 906.106 251.994 958.328 244.103 1012.69C240.332 1038.66 220.304 1067.61 206.24 1091.97C167.384 1159.28 114.153 1227 55.0298 1287.74C10.3511 1333.64 -4.01394 1361.45 -63.861 1400.58" stroke="#E79565" stroke-width="5" stroke-linecap="round" stroke-linejoin="round"/>
<path d="M-27.9284 12.4935C147.088 76.3507 58.0139 215.242 54.5454 315.727C50.7458 425.802 47.9961 540.249 107.046 647.079C123.358 676.591 133.046 708.638 142.944 739.047C156.533 780.795 175.614 818.258 196.039 858.803C222.248 910.828 243.844 963.049 235.952 1017.41C232.181 1043.39 212.153 1072.33 198.089 1096.7C159.234 1164 106.003 1231.72 46.8794 1292.46C2.20067 1338.37 -12.1643 1366.18 -72.0114 1405.3" stroke="#E79565" stroke-width="3" stroke-linecap="round" stroke-linejoin="round"/>
<path d="M52.1804 597C52.1804 562.432 44.6126 541.872 0.209988 515C0.209988 515 -0.818377 604.976 0.208497 665C0.208497 706.056 -0.775668 761.007 0.208497 805.112C1.05085 842.861 -0.81539 879.5 0.208499 917.388L0.208498 975.5C0.208498 992.424 0.253338 1008.34 0.253338 1026.2L0.253181 1152.47C0.252883 1160.26 -8.01021 1170.76 14.1447 1158.11C24.5054 1151.8 42.4969 1149 53.5039 1142.44C61.719 1137.55 78.2874 1133.14 88.2326 1128.78C111.822 1118.44 133.076 1098.16 143.799 1083.8C184.7 1029.01 170.45 973.526 147.4 917.388C131.607 878.923 98.8881 841.749 72.0259 805.112C59.1497 787.55 51.0552 767.62 46.5581 749C43.3876 735.872 42.5973 728.787 42.2563 715.5C42.0431 707.191 36.9126 691.5 36.9126 680C30.8018 671.665 32.3323 658.5 32.3323 653C32.3323 644 41.3507 632.881 42.2563 624.5C43.0198 617.434 47.2927 604.88 52.1804 597Z" fill="#5DA1A1"/>
</svg>
