<svg width="151" height="137" viewBox="0 0 151 137" fill="none" xmlns="http://www.w3.org/2000/svg">
<path fill-rule="evenodd" clip-rule="evenodd" d="M75.5001 0C75.5001 0 73.0662 47.611 68.1983 50.3259C62.8437 52.5696 41.4253 37.7388 41.4253 37.7388C41.4253 37.7388 59.4606 56.6083 56.5156 61.0957C53.1081 65.5831 0 68.2754 0 68.2754C0 68.2754 53.1081 71.4167 56.5156 75.9265C59.4606 80.4139 41.4253 99.2834 41.4253 99.2834C41.4253 99.2834 62.8681 84.4523 68.1983 86.696C73.0662 89.3885 75.5001 137 75.5001 137C75.5001 137 77.9339 89.3885 83.3128 86.696C88.6675 84.4523 109.623 99.2834 109.623 99.2834C109.623 99.2834 92.0749 80.4139 95.02 75.9265C97.965 71.4391 151 68.2754 151 68.2754C151 68.2754 97.892 65.5831 95.02 61.0957C92.1479 56.6083 109.623 37.7388 109.623 37.7388C109.623 37.7388 88.6675 52.5696 83.3128 50.3259C78.4207 47.5437 75.9869 6.75351 75.5001 0Z" fill="#FDFBE2"/>
</svg>
