<svg  preserveAspectRatio="xMidYMid meet" width="100%" height="598" viewBox="0 0 569 598" fill="none" xmlns="http://www.w3.org/2000/svg">
<path d="M116.438 131.41C161.458 96.2583 212.312 58.5201 276.504 46.2805C301.272 64.1476 355.518 31.5281 380.696 57.0325C399.52 76.101 387.86 104.449 405.517 123.519C418.341 137.37 416.539 156.684 429.118 170.976C441.698 185.269 465.722 199.337 473.42 215.353C483.938 237.237 524.285 270.234 508.584 299.126C488.558 335.981 412.716 361.786 372.36 385.899C345.869 401.728 292.363 434.033 298.19 459.304C303.182 480.953 312.941 518.415 288.533 541.585C226.909 600.083 126.959 556.107 113.676 510.968C109.97 498.376 105.298 486.526 102.664 473.548C98.6777 453.909 124.831 424.336 133.44 403.501C150.398 362.456 155.999 332.881 122.264 304.009C94.4032 280.163 84.8268 252.2 75.5355 220.627C66.3456 189.399 79.2412 160.453 116.438 131.41Z" fill="#B35699"/>
</svg>
