<svg width="350" height="174" viewBox="0 0 350 174" fill="none" xmlns="http://www.w3.org/2000/svg">
<path d="M67.4561 46.203C116.269 29.038 164.558 8.70016 215.792 0C225.981 0 248.668 4.27434 248.045 16.1263C247.732 22.0583 237.381 37.5537 245.741 41.9795C252.373 45.4907 265.29 42.379 272.49 40.1877C289.52 35.0047 306.622 30.3588 323.428 24.4454C326.564 23.3422 340.119 16.3068 343.65 19.8379C350.288 26.476 350.385 50.0035 347.106 58.1057C338.305 79.8496 298.081 89.876 277.481 94.4538C265.736 97.064 254.007 101.218 242.157 103.157C235.603 104.229 228.96 102.825 222.575 104.821C203.339 110.832 184.183 115.122 166.901 125.682C145.177 138.958 123.435 151.921 102.012 165.742C80.4741 179.638 54.6303 175.807 64.7684 145.392C67.0181 138.643 78.1982 114.123 63.2326 119.283C50.5297 123.663 14.8021 134.644 2.9511 125.426C-5.19135 119.093 5.80237 94.7974 8.58249 88.3105C19.069 63.842 43.8676 54.4979 67.4561 46.203Z" fill="#5DA1A1"/>
</svg>
