<svg preserveAspectRatio="none" width="100%" height="800" viewBox="0 0 1024 726" fill="none" xmlns="http://www.w3.org/2000/svg">
<path d="M551.473 1.70288C732.656 10.9306 840.957 101.188 1023.22 101.188C1023.22 146.088 1022.02 214.038 1023.22 235.889C1024.97 267.689 1023.22 327.968 1023.22 363.106V508.498V611.128C993.514 650.234 943.029 659.997 900.802 679.353C841.197 706.674 778.997 724.958 713.819 724.958C639.307 724.958 565.759 727.259 495.252 697.933C437.16 673.771 388.836 641.73 325.325 650.639C285.641 656.205 248.12 656.762 209.092 668.881C179.329 678.123 153.44 682.393 122.549 682.393C77.0729 682.393 33.59 685.538 0 650.639V498.342L0.000103904 313.395C51.3964 256.389 130.94 229.048 167.716 159.123C205.905 86.511 246.386 40.6644 326.904 25.6875C403.318 11.4741 472.888 -2.29943 551.473 1.70288Z" fill="#FED92F" stroke="#FDD92B" stroke-linecap="round" stroke-linejoin="round"/>
</svg>
