<svg width="440" height="524" viewBox="0 0 440 524" fill="none" xmlns="http://www.w3.org/2000/svg">
<path d="M395.918 85.4107C350.897 50.2588 300.044 12.5206 235.852 0.281011C211.084 18.1481 156.838 -14.4714 131.661 11.033C112.837 30.1015 124.497 58.449 106.839 77.5198C94.0158 91.3702 95.8174 110.685 83.2384 124.977C70.6588 139.269 46.6351 153.337 38.9368 169.354C28.4184 191.237 -11.9278 224.234 3.77256 253.127C23.7992 289.981 99.641 315.787 139.997 339.9C166.488 355.728 219.993 388.033 214.166 413.305C209.174 434.954 199.415 472.416 223.823 495.585C285.447 554.083 385.396 510.108 398.68 464.968C402.385 452.377 407.058 440.526 409.692 427.549C413.678 407.909 387.525 378.337 378.916 357.501C361.957 316.456 356.357 286.882 390.091 258.009C417.952 234.164 427.528 206.2 436.82 174.627C446.01 143.399 433.114 114.453 395.918 85.4107Z" fill="#B35699"/>
</svg>
