<svg width="233" height="286" viewBox="0 0 233 286" fill="none" xmlns="http://www.w3.org/2000/svg">
<path d="M210.876 110.962C213.271 109.025 211.299 105.083 208.322 105.853C197.993 108.553 186.967 111.952 175.422 116.205C164.287 120.314 154.11 124.726 144.87 129.161C143.477 129.837 141.798 129.259 141.068 127.838C134.178 114.261 126.345 100.005 117.417 85.2494C109.087 71.4887 100.675 58.7336 92.3606 46.9774C90.4476 44.2789 86.3077 46.3489 87.3026 49.5064C91.9364 64.1298 97.3918 78.3424 103.121 92.4181C109.327 107.487 116.008 122.299 123.068 136.941C123.75 138.346 123.213 140.01 121.86 140.728C112.101 145.936 102.49 151.481 93.0923 157.412C83.3412 163.643 73.73 170.194 64.5621 177.591C62.1677 179.527 64.1389 183.47 67.1247 182.716C78.5432 179.82 89.5507 176.061 100.386 171.999C110.769 168.039 120.955 163.685 130.977 159.002C132.363 158.351 134.001 158.928 134.731 160.308C142.21 174.741 150.05 188.973 158.366 202.987C166.313 216.262 174.59 229.392 183.712 242.079C185.633 244.753 189.757 242.691 188.77 239.55C184.094 224.64 178.555 210.141 172.703 195.819C166.489 180.774 159.824 165.954 152.748 151.32C152.066 149.916 152.603 148.251 153.956 147.533C163.723 142.342 173.31 136.788 182.716 130.874C192.346 124.724 201.813 118.286 210.868 110.986L210.876 110.962Z" fill="black"/>
<path d="M196.114 106.885C198.509 104.949 196.538 101.007 193.56 101.777C183.232 104.477 172.205 107.875 160.66 112.129C149.526 116.238 139.348 120.649 130.108 125.084C128.715 125.761 127.037 125.183 126.306 123.762C119.416 110.184 111.584 95.9285 102.655 81.1731C94.325 67.4124 85.9136 54.6573 77.5989 42.9011C75.6858 40.2026 71.546 42.2726 72.5409 45.4301C77.1747 60.0535 82.6301 74.2661 88.3593 88.3418C94.5652 103.411 101.246 118.222 108.306 132.865C108.988 134.269 108.451 135.934 107.098 136.651C97.3392 141.86 87.7282 147.404 78.3306 153.335C68.5794 159.566 58.9683 166.117 49.8003 173.515C47.4059 175.451 49.3772 179.393 52.363 178.64C63.7815 175.744 74.7889 171.985 85.6242 167.922C96.0076 163.963 106.194 159.609 116.216 154.926C117.601 154.274 119.239 154.852 119.969 156.232C127.448 170.665 135.289 184.896 143.605 198.911C151.551 212.186 159.828 225.316 168.951 238.003C170.871 240.677 174.995 238.615 174.009 235.474C169.332 220.564 163.794 206.064 157.941 191.742C151.727 176.697 145.063 161.878 137.987 147.244C137.305 145.839 137.842 144.175 139.194 143.457C148.962 138.265 158.548 132.712 167.954 126.798C177.585 120.648 187.051 114.21 196.107 106.91L196.114 106.885Z" fill="#0071C6" stroke="black" stroke-width="2.35" stroke-linecap="round" stroke-linejoin="round"/>
</svg>
