<svg width="289" height="404" viewBox="0 0 289 404" fill="none" xmlns="http://www.w3.org/2000/svg">
<path d="M257.989 210.246C255.388 208.879 255.564 205.138 258.318 203.979C270.869 198.664 283.312 193.06 295.622 187.094C316.583 176.82 337.252 165.832 357.148 152.689C360.241 150.637 358.478 145.886 354.795 146.347C331.141 149.362 308.307 154.513 285.718 160.398C272.495 163.904 259.383 167.781 246.402 171.939C243.559 172.856 240.985 170.135 242.066 167.402C243.949 162.616 245.807 157.838 247.523 152.977C252.551 138.601 257.152 124.055 260.573 108.958C261.412 105.273 256.613 103.103 254.275 106.137C244.792 118.517 236.506 131.413 228.631 144.513C225.986 148.978 223.467 153.479 220.981 157.996C219.565 160.578 215.775 160.449 214.632 157.745C209.357 145.408 203.812 133.172 197.923 121.063C187.762 100.526 176.873 80.2858 163.84 60.814C161.819 57.7775 156.934 59.59 157.383 63.2094C160.204 86.4702 165.151 108.914 170.845 131.11C174.254 144.138 178.031 157.03 182.104 169.813C183.001 172.608 180.212 175.179 177.455 174.144C172.625 172.342 167.779 170.573 162.862 168.913C148.348 164.12 133.656 159.749 118.393 156.55C114.667 155.766 112.411 160.526 115.46 162.796C127.898 172.009 140.874 180.034 154.062 187.652C158.558 190.209 163.091 192.642 167.64 195.042C170.242 196.409 170.066 200.15 167.312 201.309C154.746 206.657 142.277 212.271 129.934 218.222C108.998 228.486 88.3538 239.465 68.4638 252.551C65.3622 254.579 67.1427 259.378 70.8169 258.893C94.4288 255.839 117.238 250.696 139.803 244.821C153.025 241.315 166.138 237.438 179.118 233.28C181.961 232.363 184.535 235.084 183.454 237.817C181.572 242.603 179.722 247.405 177.998 252.242C172.954 266.651 168.337 281.231 164.935 296.375C164.096 300.061 168.886 302.207 171.232 299.197C180.74 286.808 189.066 273.869 196.957 260.736C199.586 256.304 202.114 251.827 204.575 247.32C205.991 244.737 209.782 244.867 210.924 247.571C216.166 259.892 221.702 272.104 227.607 284.18C237.777 304.741 248.674 325.005 261.766 344.483C263.811 347.511 268.647 345.716 268.222 342.088C265.442 318.785 260.485 296.316 254.783 274.097C251.383 261.092 247.614 248.225 243.551 235.466C242.654 232.671 245.442 230.1 248.2 231.135C253.005 232.946 257.842 234.691 262.725 236.336C277.273 241.144 291.999 245.53 307.311 248.71C311.037 249.495 313.268 244.744 310.244 242.464C297.796 233.228 284.778 225.164 271.556 217.531C267.094 214.989 262.585 212.547 258.045 210.171L257.989 210.246Z" fill="black"/>
<path d="M244.749 208.958C242.147 207.591 242.323 203.85 245.077 202.691C257.628 197.376 270.072 191.772 282.382 185.805C303.343 175.532 324.011 164.544 343.908 151.401C347.001 149.348 345.238 144.598 341.555 145.059C317.901 148.073 295.067 153.225 272.477 159.11C259.255 162.616 246.143 166.493 233.162 170.651C230.319 171.568 227.745 168.847 228.826 166.114C230.709 161.328 232.567 156.55 234.282 151.689C239.311 137.313 243.912 122.766 247.332 107.67C248.171 103.985 243.372 101.814 241.035 104.849C231.552 117.229 223.266 130.125 215.39 143.225C212.746 147.69 210.227 152.191 207.741 156.707C206.325 159.29 202.534 159.16 201.392 156.457C196.117 144.12 190.571 131.884 184.683 119.775C174.521 99.2378 163.633 78.9976 150.599 59.5258C148.579 56.4893 143.694 58.3018 144.143 61.9212C146.964 85.182 151.911 107.626 157.604 129.821C161.014 142.85 164.791 155.742 168.863 168.525C169.761 171.32 166.972 173.891 164.214 172.856C159.384 171.054 154.539 169.285 149.622 167.625C135.108 162.832 120.416 158.461 105.153 155.262C101.426 154.477 99.1706 159.237 102.219 161.508C114.658 170.72 127.634 178.746 140.822 186.363C145.318 188.92 149.851 191.354 154.4 193.754C157.002 195.12 156.826 198.862 154.072 200.021C141.505 205.369 129.037 210.983 116.694 216.934C95.7574 227.198 75.1136 238.177 55.2236 251.262C52.122 253.291 53.9025 258.09 57.5766 257.605C81.1886 254.551 103.998 249.408 126.563 243.533C139.785 240.027 152.897 236.15 165.878 231.992C168.721 231.074 171.295 233.796 170.214 236.529C168.331 241.315 166.482 246.116 164.758 250.954C159.714 265.363 155.097 279.943 151.694 295.087C150.855 298.773 155.645 300.919 157.992 297.908C167.499 285.52 175.826 272.581 183.717 259.448C186.345 255.016 188.874 250.539 191.335 246.032C192.751 243.449 196.541 243.579 197.684 246.282C202.926 258.604 208.462 270.816 214.366 282.892C224.536 303.453 235.434 323.717 248.525 343.195C250.57 346.222 255.407 344.428 254.982 340.8C252.201 317.497 247.245 295.028 241.543 272.809C238.142 259.804 234.374 246.936 230.311 234.178C229.413 231.383 232.202 228.812 234.96 229.847C239.765 231.658 244.602 233.402 249.485 235.047C264.033 239.856 278.758 244.242 294.07 247.422C297.797 248.207 300.028 243.456 297.004 241.176C284.556 231.94 271.537 223.875 258.316 216.243C253.854 213.701 249.345 211.258 244.805 208.882L244.749 208.958Z" fill="#0071C6" stroke="black" stroke-width="2.35" stroke-linecap="round" stroke-linejoin="round"/>
</svg>
