<svg width="328" height="339" viewBox="0 0 328 339" fill="none" xmlns="http://www.w3.org/2000/svg">
<g clip-path="url(#clip0_1749_1473)">
<path d="M120.296 155.995C122.341 157.432 122.025 160.688 119.74 161.446C109.322 164.927 98.978 168.672 88.7258 172.745C71.2625 179.782 54.0035 187.47 37.27 197.115C34.6686 198.623 35.8768 202.942 38.8829 202.881C58.1922 202.444 76.9353 200.061 95.5148 197.014C106.393 195.177 117.199 193.005 127.911 190.576C130.258 190.038 132.217 192.657 131.215 194.947C129.467 198.958 127.739 202.963 126.124 207.056C121.383 219.161 116.979 231.456 113.508 244.341C112.657 247.487 116.445 249.831 118.48 247.394C126.739 237.448 134.052 226.94 141.042 216.215C143.392 212.555 145.642 208.853 147.866 205.134C149.133 203.007 152.199 203.473 152.999 205.944C156.703 217.223 160.629 228.441 164.84 239.579C172.123 258.485 180.009 277.2 189.668 295.442C191.165 298.285 195.208 297.154 195.012 293.947C193.804 273.341 190.835 253.251 187.25 233.31C185.091 221.598 182.627 209.971 179.92 198.413C179.322 195.885 181.701 193.896 183.888 195.057C187.719 197.082 191.564 199.08 195.471 200.989C207.011 206.53 218.715 211.719 230.936 215.936C233.92 216.969 235.968 213.015 233.603 210.746C223.949 201.532 213.806 193.307 203.471 185.418C199.947 182.764 196.386 180.214 192.81 177.692C190.765 176.255 191.081 172.999 193.367 172.242C203.799 168.733 214.163 164.982 224.442 160.925C241.885 153.894 259.123 146.212 275.849 136.616C278.456 135.13 277.236 130.767 274.236 130.85C254.959 131.326 236.236 133.703 217.677 136.744C206.8 138.581 195.994 140.753 185.281 143.182C182.935 143.72 180.975 141.101 181.977 138.811C183.725 134.8 185.447 130.773 187.068 126.702C191.824 114.569 196.241 102.247 199.7 89.3179C200.551 86.1723 196.769 83.8501 194.728 86.2648C186.449 96.2162 179.101 106.758 172.098 117.511C169.762 121.143 167.505 124.823 165.302 128.536C164.035 130.664 160.969 130.198 160.168 127.727C156.491 116.463 152.571 105.268 148.346 94.1574C141.057 75.2287 133.165 56.4924 123.459 38.24C121.942 35.4022 117.939 36.5219 118.115 39.7348C119.288 60.3742 122.264 80.4859 125.855 100.449C128.007 112.139 130.465 123.744 133.166 135.28C133.764 137.808 131.385 139.797 129.198 138.636C125.388 136.605 121.549 134.63 117.668 132.737C106.101 127.179 94.3709 121.974 82.1095 117.769C79.126 116.736 77.0976 120.683 79.4428 122.959C89.1023 132.194 99.2786 140.458 109.639 148.362C113.138 151 116.678 153.556 120.248 156.056L120.296 155.995Z" fill="black"/>
<path d="M130.968 158.352C133.013 159.789 132.697 163.045 130.412 163.803C119.994 167.285 109.65 171.029 99.3977 175.103C81.9344 182.139 64.6754 189.827 47.9419 199.472C45.3405 200.98 46.5487 205.299 49.5548 205.238C68.8641 204.801 87.6072 202.418 106.187 199.372C117.064 197.534 127.87 195.362 138.583 192.933C140.929 192.395 142.889 195.014 141.886 197.304C140.139 201.315 138.411 205.321 136.796 209.413C132.055 221.518 127.651 233.813 124.18 246.698C123.329 249.844 127.117 252.188 129.152 249.751C137.411 239.806 144.724 229.297 151.714 218.572C154.063 214.913 156.314 211.21 158.538 207.491C159.805 205.364 162.871 205.83 163.671 208.301C167.374 219.581 171.301 230.798 175.512 241.936C182.795 260.843 190.681 279.557 200.34 297.799C201.837 300.642 205.88 299.511 205.684 296.304C204.476 275.698 201.507 255.608 197.922 235.667C195.763 223.955 193.299 212.329 190.592 200.77C189.994 198.243 192.373 196.253 194.56 197.414C198.391 199.439 202.236 201.437 206.143 203.346C217.683 208.888 229.387 214.076 241.608 218.293C244.592 219.326 246.64 215.373 244.275 213.103C234.621 203.89 224.478 195.664 214.143 187.776C210.619 185.121 207.057 182.572 203.482 180.05C201.437 178.613 201.753 175.357 204.039 174.599C214.47 171.09 224.835 167.339 235.114 163.282C252.557 156.252 269.795 148.569 286.521 138.973C289.128 137.487 287.908 133.125 284.908 133.208C265.631 133.683 246.908 136.06 228.349 139.101C217.471 140.938 206.665 143.11 195.953 145.539C193.606 146.078 191.647 143.458 192.649 141.168C194.397 137.157 196.118 133.13 197.74 129.06C202.495 116.926 206.913 104.604 210.372 91.6752C211.223 88.5296 207.441 86.2073 205.4 88.6221C197.12 98.5735 189.773 109.115 182.769 119.868C180.434 123.5 178.177 127.181 175.974 130.894C174.707 133.021 171.641 132.555 170.84 130.084C167.163 118.82 163.243 107.625 159.018 96.5147C151.729 77.586 143.837 58.8497 134.131 40.5973C132.614 37.7595 128.611 38.8791 128.787 42.0921C129.96 62.7315 132.935 82.8432 136.526 102.806C138.679 114.496 141.137 126.101 143.838 137.637C144.436 140.165 142.057 142.154 139.87 140.993C136.06 138.962 132.221 136.987 128.34 135.094C116.773 129.536 105.043 124.331 92.7814 120.126C89.7978 119.093 87.7695 123.041 90.1147 125.316C99.7742 134.551 109.95 142.815 120.311 150.72C123.809 153.358 127.35 155.913 130.92 158.413L130.968 158.352Z" fill="#FF8B13" stroke="black" stroke-width="2.35" stroke-linecap="round" stroke-linejoin="round"/>
</g>
<defs>
<clipPath id="clip0_1749_1473">
<rect width="262.534" height="278.027" fill="white" transform="translate(327.727 267.749) rotate(164.372)"/>
</clipPath>
</defs>
</svg>
