<svg width="155" height="166" viewBox="0 0 155 166" fill="none" xmlns="http://www.w3.org/2000/svg">
<path d="M140.072 74.9717C101.539 91.7771 95.127 102.86 96.9668 149.575C97.0459 151.512 94.6537 152.008 93.9457 150.202C77.0412 106.611 66.7575 98.9804 24.7217 98.9006C22.9794 98.9004 22.4232 96.2192 24.0193 95.5144C62.5523 78.709 68.9648 67.6266 67.1249 20.9109C67.0459 18.9744 69.438 18.4782 70.1461 20.2842C87.0505 63.8748 97.3342 71.5057 139.37 71.5855C141.112 71.5857 141.669 74.2669 140.072 74.9717Z" fill="black"/>
<path d="M130.656 69.6563C92.1234 86.4616 85.7109 97.544 87.5508 144.26C87.6299 146.196 85.2377 146.692 84.5297 144.886C67.6252 101.296 57.3415 93.6649 15.3057 93.5852C13.5634 93.585 13.0072 90.9037 14.6032 90.1989C53.1363 73.3935 59.5488 62.3111 57.7089 15.5954C57.6298 13.659 60.022 13.1627 60.7301 14.9687C77.6345 58.5593 87.9182 66.1902 129.954 66.27C131.696 66.2702 132.253 68.9515 130.656 69.6563Z" fill="#FCF43D"/>
<path d="M130.656 69.6562C92.1234 86.4616 85.7109 97.5441 87.5508 144.26C87.6299 146.196 85.2377 146.692 84.5296 144.886C67.6252 101.296 57.3415 93.6649 15.3057 93.5852C13.5634 93.585 13.0072 90.9037 14.6032 90.1989C53.1363 73.3935 59.5488 62.3111 57.7089 15.5954C57.6298 13.659 60.022 13.1627 60.7301 14.9687C77.6345 58.5593 87.9182 66.1902 129.954 66.27C131.696 66.2702 132.253 68.9515 130.656 69.6562V69.6562Z" stroke="black" stroke-width="2.35" stroke-linecap="round" stroke-linejoin="round"/>
</svg>
