<svg width="268" height="320" viewBox="0 0 268 320" fill="none" xmlns="http://www.w3.org/2000/svg">
<path d="M290.297 198.68C291.781 193.301 209.2 170.585 209.2 170.585L181.194 162.881L193.973 155.818C193.973 155.818 243.396 128.499 240.552 123.626C237.708 118.752 188.285 146.071 188.285 146.071L175.506 153.134L183.054 125.778C183.054 125.778 205.308 45.115 199.802 43.6003C194.295 42.0856 172.04 122.749 172.04 122.749L164.493 150.105L157.14 137.503C157.14 137.503 128.7 88.7665 123.757 91.4983C118.815 94.2302 147.255 142.967 147.255 142.967L154.608 155.568L126.602 147.864C126.602 147.864 44.021 125.149 42.537 130.527C41.053 135.906 123.634 158.622 123.634 158.622L151.64 166.326L138.861 173.389C138.861 173.389 89.4377 200.707 92.2817 205.581C95.1257 210.455 144.549 183.136 144.549 183.136L157.328 176.073L149.781 203.429C149.781 203.429 127.526 284.092 133.032 285.607C138.539 287.121 160.794 206.458 160.794 206.458L168.341 179.102L175.695 191.704C175.695 191.704 204.135 240.44 209.077 237.708C214.019 234.977 185.579 186.24 185.579 186.24L178.226 173.639L206.232 181.342C206.232 181.342 288.813 204.058 290.297 198.68Z" fill="black"/>
<path d="M283.061 189.221C284.545 183.842 201.964 161.126 201.964 161.126L173.958 153.423L186.737 146.359C186.737 146.359 236.16 119.041 233.316 114.167C230.472 109.293 181.049 136.612 181.049 136.612L168.27 143.675L175.817 116.319C175.817 116.319 198.072 35.6564 192.566 34.1417C187.059 32.6269 164.804 113.29 164.804 113.29L157.257 140.646L149.903 128.045C149.903 128.045 121.463 79.3079 116.521 82.0397C111.579 84.7716 140.018 133.508 140.018 133.508L147.372 146.11L119.366 138.406C119.366 138.406 36.7847 115.69 35.3007 121.069C33.8167 126.447 116.398 149.163 116.398 149.163L144.404 156.867L131.625 163.93C131.625 163.93 82.2014 191.249 85.0454 196.123C87.8894 200.996 137.313 173.678 137.313 173.678L150.092 166.614L142.544 193.97C142.544 193.97 120.289 274.633 125.796 276.148C131.302 277.663 153.557 197 153.557 197L161.105 169.644L168.458 182.245C168.458 182.245 196.898 230.982 201.841 228.25C206.783 225.518 178.343 176.781 178.343 176.781L170.99 164.18L198.996 171.884C198.996 171.884 281.577 194.6 283.061 189.221Z" fill="#FF8B13" stroke="black" stroke-width="2.35" stroke-linecap="round" stroke-linejoin="round"/>
</svg>
