<svg width="508" height="790" viewBox="0 0 508 790" fill="none" xmlns="http://www.w3.org/2000/svg">
<path d="M416.872 309.197C412.846 296.199 218.714 356.484 218.714 356.484L152.876 376.928L169.181 345.819C169.181 345.819 232.241 225.498 220.243 219.15C208.245 212.802 145.184 333.123 145.184 333.123L128.88 364.233L108.406 298.122C108.406 298.122 48.0355 103.186 35.0906 107.206C22.1456 111.226 82.5159 306.162 82.5159 306.162L102.99 372.272L71.9673 355.859C71.9673 355.859 -48.0149 292.379 -54.321 304.411C-60.627 316.444 59.3552 379.923 59.3552 379.923L90.3776 396.336L24.5399 416.781C24.5399 416.781 -169.593 477.066 -165.567 490.065C-161.542 503.063 32.591 442.778 32.591 442.778L98.4286 422.333L82.1238 453.443C82.1238 453.443 19.0632 573.764 31.0614 580.112C43.0596 586.46 106.12 466.139 106.12 466.139L122.425 435.029L142.899 501.139C142.899 501.139 203.269 696.075 216.214 692.056C229.159 688.036 168.789 493.1 168.789 493.1L148.315 426.99L179.337 443.403C179.337 443.403 299.32 506.882 305.626 494.85C311.932 482.818 191.949 419.339 191.949 419.339L160.927 402.925L226.765 382.481C226.765 382.481 420.897 322.196 416.872 309.197Z" fill="black"/>
<path d="M390.161 299.104C386.135 286.105 192.003 346.39 192.003 346.39L126.165 366.835L142.47 335.725C142.47 335.725 205.531 215.404 193.532 209.057C181.534 202.709 118.473 323.029 118.473 323.029L102.169 354.139L81.6948 288.029C81.6948 288.029 21.3245 93.0931 8.37962 97.1129C-4.56531 101.133 55.8049 296.069 55.8049 296.069L76.2787 362.179L45.2563 345.766C45.2563 345.766 -74.7259 282.286 -81.0319 294.318C-87.338 306.35 32.6442 369.83 32.6442 369.83L63.6667 386.243L-2.17105 406.688C-2.17105 406.688 -196.304 466.973 -192.278 479.971C-188.253 492.97 5.88003 432.685 5.88003 432.685L71.7177 412.24L55.4129 443.35C55.4129 443.35 -7.64774 563.671 4.35049 570.019C16.3487 576.367 79.4093 456.046 79.4093 456.046L95.7142 424.936L116.188 491.046C116.188 491.046 176.558 685.982 189.503 681.962C202.448 677.942 142.078 483.006 142.078 483.006L121.604 416.896L152.626 433.309C152.626 433.309 272.609 496.789 278.915 484.757C285.221 472.725 165.239 409.245 165.239 409.245L134.216 392.832L200.054 372.387C200.054 372.387 394.186 312.102 390.161 299.104Z" fill="white" stroke="black" stroke-width="2.35" stroke-linecap="round" stroke-linejoin="round"/>
</svg>
