<svg width="239" height="268" viewBox="0 0 239 268" fill="none" xmlns="http://www.w3.org/2000/svg">
<path d="M157.525 158.642C156.573 156.809 158.089 154.602 160.083 154.958C169.181 156.56 178.328 157.944 187.537 159.057C203.261 160.884 219.09 162.162 235.299 161.833C237.822 161.776 238.626 158.208 236.372 157.07C221.875 149.793 207.034 144.131 192.052 139.009C183.26 136.049 174.389 133.357 165.486 130.885C163.534 130.348 163.111 127.702 164.756 126.456C167.631 124.271 170.489 122.082 173.298 119.786C181.579 112.981 189.685 105.908 197.331 98.0451C199.2 96.127 197.312 92.959 194.844 93.9041C184.803 97.7797 175.242 102.43 165.836 107.363C162.653 109.06 159.526 110.827 156.413 112.616C154.636 113.641 152.545 112.102 152.923 110.018C154.616 100.484 156.118 90.908 157.377 81.2767C159.416 64.8746 160.932 48.373 160.945 31.5126C160.954 28.8881 157.51 28.1087 156.393 30.4826C149.179 45.7136 143.475 61.2673 138.286 76.9567C135.278 86.1924 132.53 95.4868 129.99 104.828C129.438 106.873 126.89 107.363 125.725 105.671C123.68 102.715 121.614 99.7736 119.467 96.8704C113.087 88.3655 106.447 80.049 99.0412 72.2254C97.2345 70.3129 94.1588 72.3387 95.0204 74.8938C98.5553 85.2865 102.843 95.1643 107.404 104.876C108.974 108.162 110.613 111.388 112.272 114.599C113.224 116.432 111.708 118.64 109.714 118.284C100.595 116.696 91.43 115.307 82.2083 114.172C66.5018 112.35 50.6902 111.075 34.5065 111.372C31.9874 111.411 31.1757 115.015 33.4337 116.135C47.9207 123.372 62.7452 129.03 77.7093 134.148C86.5017 137.108 95.3726 139.801 104.275 142.272C106.228 142.809 106.651 145.455 105.006 146.701C102.131 148.886 99.2687 151.094 96.4637 153.371C88.1609 160.191 80.0342 167.278 72.3796 175.177C70.5105 177.095 72.4024 180.245 74.8668 179.318C84.925 175.446 94.5244 170.785 103.952 165.838C107.114 164.156 110.236 162.407 113.332 160.614C115.109 159.589 117.2 161.128 116.822 163.212C115.116 172.723 113.618 182.282 112.38 191.899C110.337 208.319 108.818 224.839 108.834 241.725C108.843 244.354 112.252 245.125 113.387 242.755C120.639 227.514 126.348 211.942 131.541 196.235C134.544 187.017 137.288 177.741 139.825 168.417C140.376 166.372 142.924 165.883 144.09 167.574C146.117 170.526 148.187 173.45 150.321 176.331C156.714 184.858 163.367 193.197 170.808 201.028C172.615 202.94 175.673 200.911 174.829 198.36C171.298 187.949 167.001 178.031 162.426 168.297C160.87 165.033 159.249 161.811 157.585 158.618L157.525 158.642Z" fill="black"/>
<path d="M150.541 152.761C149.589 150.927 151.105 148.72 153.098 149.076C162.197 150.678 171.344 152.063 180.553 153.176C196.276 155.002 212.105 156.281 228.314 155.951C230.838 155.894 231.641 152.327 229.387 151.188C214.891 143.911 200.049 138.25 185.068 133.128C176.275 130.167 167.405 127.475 158.502 125.003C156.549 124.466 156.127 121.82 157.771 120.575C160.647 118.389 163.504 116.2 166.313 113.905C174.595 107.099 182.7 100.026 190.347 92.1634C192.216 90.2452 190.328 87.0773 187.859 88.0223C177.818 91.8979 168.258 96.5484 158.852 101.481C155.668 103.178 152.542 104.945 149.429 106.734C147.651 107.759 145.56 106.22 145.939 104.136C147.631 94.6027 149.133 85.0263 150.393 75.395C152.432 58.9928 153.947 42.4913 153.961 25.6309C153.97 23.0063 150.526 22.2269 149.409 24.6008C142.195 39.8319 136.491 55.3856 131.302 71.0749C128.294 80.3106 125.546 89.6051 123.005 98.9465C122.454 100.992 119.906 101.481 118.741 99.7897C116.696 96.8337 114.63 93.8918 112.482 90.9887C106.103 82.4837 99.4629 74.1672 92.0569 66.3436C90.2502 64.4312 87.1744 66.4569 88.036 69.012C91.5709 79.4047 95.8584 89.2825 100.42 98.9939C101.99 102.28 103.628 105.506 105.288 108.718C106.239 110.551 104.723 112.758 102.73 112.402C93.6102 110.814 84.4456 109.426 75.224 108.291C59.5174 106.469 43.7059 105.194 27.5221 105.49C25.003 105.529 24.1913 109.133 26.4494 110.253C40.9363 117.491 55.7608 123.148 70.7249 128.266C79.5173 131.227 88.3882 133.919 97.2908 136.39C99.2435 136.928 99.6663 139.574 98.0214 140.819C95.1462 143.005 92.2843 145.212 89.4794 147.489C81.1765 154.309 73.0498 161.396 65.3952 169.295C63.5261 171.213 65.418 174.363 67.8824 173.436C77.9407 169.565 87.54 164.904 96.9673 159.957C100.129 158.274 103.252 156.525 106.348 154.732C108.125 153.707 110.216 155.246 109.838 157.33C108.132 166.842 106.634 176.4 105.396 186.017C103.353 202.437 101.833 218.957 101.85 235.843C101.858 238.472 105.268 239.243 106.402 236.873C113.655 221.632 119.363 206.06 124.556 190.353C127.56 181.135 130.304 171.859 132.841 162.535C133.392 160.49 135.94 160.001 137.105 161.692C139.132 164.644 141.203 167.568 143.337 170.449C149.729 178.976 156.383 187.315 163.823 195.146C165.63 197.059 168.689 195.029 167.844 192.478C164.313 182.067 160.017 172.149 155.442 162.416C153.885 159.151 152.264 155.93 150.601 152.736L150.541 152.761Z" fill="#FCF43D" stroke="black" stroke-width="2.35" stroke-linecap="round" stroke-linejoin="round"/>
</svg>
