<svg width="142" height="93" viewBox="0 0 142 93" fill="none" xmlns="http://www.w3.org/2000/svg">
<path d="M74.5757 67.732C78.5034 69.2408 80.4643 73.648 78.9555 77.5757C77.4467 81.5034 73.0395 83.4644 69.1118 81.9556C65.1841 80.4468 63.2231 76.0396 64.7319 72.1118C66.2407 68.1841 70.648 66.2232 74.5757 67.732Z" fill="#FEDC97"/>
<path d="M104.643 79.3513C107.169 80.3213 108.429 83.1546 107.46 85.6794C106.49 88.2043 103.656 89.4648 101.131 88.4947C98.6057 87.5247 97.3449 84.6914 98.3148 82.1666C99.2847 79.6417 102.118 78.3812 104.643 79.3513Z" fill="#FEDC97"/>
<path d="M137.709 83.3434C139.789 84.1422 140.827 86.4754 140.028 88.5548C139.229 90.6342 136.896 91.6723 134.817 90.8736C132.737 90.0748 131.699 87.7416 132.498 85.6622C133.297 83.5828 135.63 82.5447 137.709 83.3434Z" fill="#FEDC97"/>
<path d="M6.10352e-05 45.9598C27.9882 50.4276 30.6572 54.0599 33.9934 91.9196C37.2936 54.0599 39.9806 50.4276 67.9688 45.9598C39.9806 41.4726 37.3116 37.8402 33.9934 0C30.6752 37.8402 27.9882 41.4726 6.10352e-05 45.9598Z" fill="#FEDC97"/>
</svg>
