<svg width="146" height="144" viewBox="0 0 146 144" fill="none" xmlns="http://www.w3.org/2000/svg">
<path fill-rule="evenodd" clip-rule="evenodd" d="M73.0001 0C73.0001 0 70.6468 50.0437 65.9401 52.8973C60.7628 55.2556 40.0536 39.667 40.0536 39.667C40.0536 39.667 57.4917 59.5007 54.6442 64.2174C51.3495 68.9341 0 71.7639 0 71.7639C0 71.7639 51.3495 75.0657 54.6442 79.8059C57.4917 84.5226 40.0536 104.356 40.0536 104.356C40.0536 104.356 60.7863 88.7674 65.9401 91.1258C70.6468 93.9558 73.0001 144 73.0001 144C73.0001 144 75.3533 93.9558 80.5541 91.1258C85.7315 88.7674 105.994 104.356 105.994 104.356C105.994 104.356 89.0261 84.5226 91.8736 79.8059C94.7211 75.0893 146 71.7639 146 71.7639C146 71.7639 94.6505 68.9341 91.8736 64.2174C89.0967 59.5007 105.994 39.667 105.994 39.667C105.994 39.667 85.7315 55.2556 80.5541 52.8973C75.824 49.9729 73.4707 7.09858 73.0001 0Z" fill="#FDFBE2"/>
</svg>
