<svg width="137" height="100" viewBox="0 0 137 100" fill="none" xmlns="http://www.w3.org/2000/svg">
<path fill-rule="evenodd" clip-rule="evenodd" d="M50.4181 0C50.4181 0 48.7927 34.485 45.542 36.4515C41.9663 38.0766 27.6633 27.3345 27.6633 27.3345C27.6633 27.3345 39.7071 41.0019 37.7404 44.2521C35.465 47.5024 0 49.4524 0 49.4524C0 49.4524 35.465 51.7277 37.7404 54.9942C39.7071 58.2444 27.6633 71.9118 27.6633 71.9118C27.6633 71.9118 41.9826 61.1695 45.542 62.7947C48.7927 64.7448 50.4181 99.2302 50.4181 99.2302C50.4181 99.2302 52.0433 64.7448 55.6353 62.7947C59.2111 61.1695 73.2053 71.9118 73.2053 71.9118C73.2053 71.9118 61.4866 58.2444 63.4532 54.9942C65.4199 51.7439 100.836 49.4524 100.836 49.4524C100.836 49.4524 65.3711 47.5024 63.4532 44.2521C61.5353 41.0019 73.2053 27.3345 73.2053 27.3345C73.2053 27.3345 59.2111 38.0766 55.6353 36.4515C52.3684 34.4363 50.7431 4.89163 50.4181 0Z" fill="#FEDC97"/>
<path d="M133.376 38.7921C135.377 38.7921 137 37.1697 137 35.1683C137 33.1669 135.377 31.5444 133.376 31.5444C131.374 31.5444 129.751 33.1669 129.751 35.1683C129.751 37.1697 131.374 38.7921 133.376 38.7921Z" fill="#FEDC97"/>
<path d="M100.853 89.2842C104.237 89.2842 106.981 86.5413 106.981 83.1576C106.981 79.7738 104.237 77.0308 100.853 77.0308C97.469 77.0308 94.7256 79.7738 94.7256 83.1576C94.7256 86.5413 97.469 89.2842 100.853 89.2842Z" fill="#FEDC97"/>
</svg>
