<svg preserveAspectRatio="xMaxYMax meet" width="100%" height="613" viewBox="0 0 196 613" fill="none" xmlns="http://www.w3.org/2000/svg">
<path d="M144.366 411.045C160.346 422.922 176.917 418.029 195.995 420C195.995 391.299 195.993 366.171 195.996 340.149C195.999 305.465 195.993 267.438 195.993 232.595L195.993 56.8184C195.993 50.3221 195.993 56.8184 195.995 27.2903C195.995 27.2903 181.424 25.1153 177.399 22.0384C168.057 14.8964 150.531 10.8882 139.223 6.16058C107.922 -6.92563 57.797 0.526337 40.1232 31.4895C33.4266 43.2216 36.2376 59.6078 33.0023 72.3182C29.3632 86.6147 19.7385 97.9404 18.1669 112.958C16.5762 128.159 21.5296 144.969 21.5296 160.591C21.5296 174.128 12.5759 182.335 4.51846 193.292C-13.6719 218.029 43.8879 250.214 56.9366 264.553C72.1932 281.319 85.9846 304.309 90.9589 326.174C94.9132 343.556 97.3607 360.359 109.355 374.753C120.753 388.431 130.293 400.585 144.366 411.045Z" fill="#5DA1A1"/>
<path d="M138.444 365.453C156.827 357.41 176.665 356.887 196.491 357.015V438.263V493.711V544.58V569.866V588.607C188.798 600.414 189.98 595.524 177.151 601.988C152.26 614.527 129.416 616.834 103.284 606.441C86.237 599.661 83.2804 588.743 88.9909 572.844C94.0332 558.806 99.6739 545.016 104.954 531.017C114.065 506.858 104.797 479.879 87.9476 460.822C82.5396 454.705 72.362 447.125 73.0282 438.263C73.6652 429.79 80.6031 422.055 85.4436 415.219C99.774 394.982 114.132 376.089 138.444 365.453Z" fill="#FED92F"/>
<path d="M196.82 234.548C188.737 215.673 177.37 207 163.459 207C157.572 207 152.416 213.391 152.416 223.603C152.416 231.609 150.443 235.494 155.061 241.462C159.19 246.798 163.475 258.541 165.264 266.716C167.487 276.871 167.532 286.113 167.532 297.411C167.532 310.224 168.287 322.946 168.287 335.849C168.287 344.4 167.515 353.984 169.421 362.08C172.297 374.292 177.154 383.172 182.983 391.868C190.207 402.642 187.525 402.859 196.997 407" stroke="white" stroke-width="5" stroke-linecap="round" stroke-linejoin="round"/>
</svg>
