<svg width="53" height="67" viewBox="0 0 53 67" fill="none" xmlns="http://www.w3.org/2000/svg">
<path d="M19.4981 57.109C18.2587 57.802 17.3946 58.1773 16.0856 58.7095C17.1417 58.3704 18.368 58.1453 19.5316 58.339C20.1852 58.4478 20.9953 58.5738 21.6149 58.8492C22.5746 59.2759 23.667 59.2524 24.6499 59.5919C27.2643 60.4948 30.0707 60.7467 32.7361 61.327C36.9225 62.2383 41.1916 62.6132 45.1097 61.5184C48.122 60.6767 51.7558 58.6517 51.869 55.1933C52.0214 50.5386 47.5193 46.7964 42.9649 46.4732C40.2878 46.2833 37.8222 46.7104 35.4236 47.5669C33.9211 48.1035 32.4859 48.8163 31.0316 49.4471C30.0014 49.8939 29.0464 50.361 28.1153 50.9678C26.233 52.1945 24.4209 53.53 22.6518 54.8963C21.6284 55.6866 20.6404 56.4702 19.4981 57.109Z" fill="#E79565"/>
<path d="M9.3473 41.4352C8.61294 42.9582 8.40893 44.4224 8.33702 46.0487C8.27931 45.68 8.20714 45.307 8.2011 44.969C8.18862 44.2699 8.17876 43.236 7.94756 42.5482C7.56025 41.3959 7.6465 40.2815 7.52682 39.1619C7.28337 36.8843 6.75698 34.2134 6.22519 31.9203C5.35736 28.1782 6.04159 24.1735 6.87469 20.7467C8.17218 15.4098 11.1599 10.7879 15.6818 7.50759C17.0173 6.53877 18.8231 5.90815 20.6069 5.67003C21.7669 5.51518 23.4621 5.65917 24.4384 5.18219C26.3109 4.26729 29.0193 6.3588 30.5645 7.45773C37.5194 12.4041 32.4164 20.1076 29.002 23.8825C26.3653 26.7975 23.0473 28.875 19.9869 31.3644C17.7649 33.1719 14.776 34.3782 13.0115 36.5972C11.7382 38.1984 10.2413 39.5812 9.3473 41.4352Z" fill="#0E7471"/>
</svg>
