<svg width="213" height="1216" viewBox="0 0 213 1216" fill="none" xmlns="http://www.w3.org/2000/svg">
<path d="M-29.0021 5.60059C121.924 55.707 50.1488 178.742 50.1488 265.931C50.1488 361.442 51.1714 460.71 104.6 551.528C119.36 576.617 128.552 604.1 137.876 630.159C152.458 670.914 162.395 691.285 175.034 741.129C187.673 790.974 187.673 806.144 195.352 863.356C192.904 885.981 186.296 924.173 175.035 945.708C143.923 1005.2 120.898 1058.24 72.3326 1112.65C35.6323 1153.77 24.2162 1178.3 -25.6011 1214" stroke="#E79565" stroke-width="3" stroke-linecap="round" stroke-linejoin="round"/>
<path d="M-20.5783 3C130.348 53.1064 58.5726 176.141 58.5726 263.331C58.5726 358.841 59.5952 458.109 113.024 548.928C127.784 574.016 136.976 601.5 146.3 627.558C160.882 668.313 170.819 688.684 183.458 738.529C196.097 788.373 196.097 803.543 203.775 860.756C201.328 883.381 194.72 921.572 183.459 943.107C152.347 1002.6 129.322 1055.64 80.7565 1110.05C44.0561 1151.17 32.64 1175.7 -17.1772 1211.4" stroke="#E79565" stroke-width="5" stroke-linecap="round" stroke-linejoin="round"/>
<path d="M-13.3556 3C137.571 53.1064 65.7952 176.141 65.7952 263.331C65.7952 358.841 66.8178 458.109 120.247 548.928C135.006 574.016 144.199 601.5 153.522 627.558C168.105 668.313 178.041 688.684 190.68 738.529C203.319 788.373 203.319 803.543 210.998 860.756C208.55 883.381 201.942 921.572 190.681 943.107C159.569 1002.6 136.545 1055.64 87.9791 1110.05C51.2788 1151.17 39.8627 1175.7 -9.95459 1211.4" stroke="#E79565" stroke-width="4" stroke-linecap="round" stroke-linejoin="round"/>
<path d="M39.6248 510C39.6248 475.432 33.8715 454.872 0.114996 428C0.114996 428 -0.666804 517.976 0.113863 578C0.113863 619.056 -0.634335 674.007 0.113863 718.112C0.754249 755.861 -0.664534 792.5 0.113864 830.388L0.113864 888.5C0.113864 905.424 0.147953 921.335 0.147953 939.204L0.147833 1065.47C0.147607 1073.26 -6.1343 1083.76 10.7087 1071.11C18.5852 1064.8 32.2631 1062 40.631 1055.44C46.8764 1050.55 59.4723 1046.14 67.033 1041.78C84.9663 1031.44 101.125 1011.16 109.276 996.798C140.371 942.008 129.537 886.526 112.014 830.388C100.008 791.923 75.1338 754.749 54.7121 718.112C44.9232 700.55 38.7694 680.62 35.3506 662C32.9402 648.873 32.3394 641.787 32.0802 628.5C31.9181 620.191 28.0177 604.5 28.0177 593C23.372 584.665 24.5356 571.5 24.5356 566C24.5356 557 31.3917 545.881 32.0802 537.5C32.6606 530.434 35.909 517.88 39.6248 510Z" fill="#B35699"/>
</svg>
