<svg  preserveAspectRatio="xMaxYMax meet" width="100%" height="496" viewBox="0 0 238 496" fill="none" xmlns="http://www.w3.org/2000/svg">
<path d="M186.065 481.935C206.193 495.598 226.866 489.684 250.754 491.75C250.42 457.733 252.006 431.056 249.845 399.705C249.451 359.232 249.002 313.72 248.603 273.06C247.924 204.055 247.263 136.79 246.586 67.9404C246.511 60.3597 246.586 67.9404 246.25 33.483C246.25 33.483 227.997 31.1242 222.927 27.5831C211.158 19.3638 189.188 14.902 174.987 9.52418C135.68 -5.36165 73.0608 3.95073 51.3066 40.3C43.0638 54.073 46.7684 73.1601 42.8668 88.032C38.4784 104.76 26.5681 118.095 24.7744 135.638C22.9588 153.397 29.3482 172.952 29.5275 191.182C29.6827 206.978 18.5759 216.666 8.62205 229.551C-13.8498 258.641 58.5251 295.491 75.0131 312.064C94.291 331.441 111.808 358.098 118.281 383.553C123.427 403.788 126.682 423.366 141.851 440.015C156.267 455.836 168.34 469.902 186.065 481.935Z" fill="#E79565" stroke="#E8996A" stroke-width="3" stroke-linecap="round" stroke-linejoin="round"/>
<path d="M248.48 186.628C236.752 175.982 212.322 181.058 201.482 202.379C195.837 213.482 205.374 230.395 201.851 242.536C200.028 248.819 201.438 259.126 198.471 264.593C190.449 279.373 168.153 281.932 167.625 302.47C167.181 319.758 179.208 329.19 173.934 346.503C168.609 363.981 163.348 383.111 177.442 396.643C183.609 402.563 193.87 402.594 201.415 404.962C209.246 407.42 211.911 408.671 220.069 409.405C235.322 410.777 235.711 418.26 250.581 414.717" stroke="white" stroke-width="5" stroke-linecap="round" stroke-linejoin="round"/>
</svg>
