<svg preserveAspectRatio="xMidYMax meet" width="100%" height="138" viewBox="0 0 354 138" fill="none" xmlns="http://www.w3.org/2000/svg">
<path d="M95.6497 20.5952C115.802 14.0941 135.638 10.3603 156.514 6.96181C161.505 6.96181 163.463 7.98822 168.311 8.73186C175.73 9.87002 181.545 11.0118 189.037 11.9916C201.358 13.6028 215.115 14.1094 227.534 14.1094C234.984 14.1094 242.291 15.3007 249.703 15.3007C257.668 15.3007 266.016 12.6694 273.597 10.5356C286.009 7.04234 298.158 0.360381 311.231 0.0127763C320.035 -0.221308 326.908 2.79601 334.677 6.20626L335.192 6.43236C348.498 12.27 356.334 26.1419 353.379 40.5819C349.435 59.8471 328.324 74.4626 313.475 84.7431L313.023 85.0557C292.314 99.3952 269.917 111.687 245.853 119.867C224.038 127.283 203.926 127.281 181.349 127.279L180.342 127.279C171.024 127.279 163.151 124.279 154.125 122.779C147.607 121.696 140.105 122.324 133.549 122.514C106.913 123.288 82.64 139.141 55.4273 137.935C36.2306 137.084 0.420014 132.813 0.00531716 106.763C-0.340053 85.0679 16.197 78.3073 32.7939 68.378C47.9497 59.3109 59.3391 49.0574 71.6888 36.7434C79.5157 28.9392 84.94 24.05 95.6497 20.5952Z" fill="#FED92F"/>
</svg>
