<svg preserveAspectRatio="xMinYMax meet" width="44" height="59" viewBox="0 0 44 59" fill="none" xmlns="http://www.w3.org/2000/svg">
<path d="M23.053 45.2788C13.9466 41.6745 5.28967 34.3668 0.66894 23.7119C2.26746 25.9334 3.62366 28.1998 5.9861 28.7161C9.08591 29.3935 12.1582 29.126 15.3161 29.6793C19.1067 30.3436 22.711 27.8375 26.4225 28.6487C30.7213 29.5882 38.0707 29.7768 40.345 36.2252C42.2046 41.4975 39.8992 44.4292 36.6865 46.7984C33.201 49.3688 27.1207 46.8889 23.053 45.2788Z" fill="#B35699"/>
<path d="M6.12881 15.1037C4.9628 14.9699 4.18725 14.9514 3.02496 14.9485C3.9314 14.8883 4.9254 14.7017 5.72726 14.2425C6.1777 13.9845 6.73914 13.6709 7.10633 13.3071C7.67514 12.7435 8.49925 12.4546 9.11565 11.9449C10.7552 10.5893 12.7639 9.63079 14.5535 8.48432C17.3642 6.68367 20.4228 5.23145 23.7288 4.89514C26.2706 4.63658 29.6869 5.02387 30.9708 7.38748C32.6988 10.5686 30.634 14.4181 27.3444 15.9142C25.4108 16.7936 23.4211 17.1866 21.3326 17.2634C20.0243 17.3115 18.7051 17.2188 17.4002 17.1882C16.4758 17.1665 15.6005 17.1098 14.6947 16.9497C12.8634 16.6259 11.0468 16.2072 9.25166 15.7552C8.21321 15.4937 7.20355 15.227 6.12881 15.1037Z" fill="#FED92F"/>
</svg>
