<svg width="122" height="190" viewBox="0 0 122 190" fill="none" xmlns="http://www.w3.org/2000/svg">
<path d="M177.558 116.185C123.329 115.674 110.292 124.044 89.8718 172.555C89.0286 174.567 85.9269 173.977 85.9545 171.81C86.8425 119.584 78.2369 107.085 27.9947 87.7406C25.9107 86.942 26.5438 83.9512 28.7942 83.9634C83.023 84.4737 96.0597 76.1039 116.48 27.5929C117.323 25.5808 120.425 26.1707 120.398 28.3379C119.51 80.5636 128.115 93.0627 178.357 112.407C180.441 113.206 179.808 116.197 177.558 116.185Z" fill="black"/>
<path d="M168.629 106.262C114.477 105.866 101.435 114.271 80.9063 162.868C80.0586 164.883 76.9629 164.3 76.9966 162.13C78.0301 109.856 69.4715 97.3645 19.3534 78.1088C17.2746 77.3139 17.9152 74.3191 20.1624 74.3266C74.3145 74.7226 87.3567 66.3179 107.885 17.7207C108.733 15.7049 111.829 16.2888 111.795 18.458C110.761 70.732 119.32 83.2239 169.438 102.48C171.517 103.275 170.876 106.269 168.629 106.262Z" fill="#FCF43D"/>
<path d="M168.629 106.262C114.477 105.866 101.435 114.271 80.9063 162.868C80.0586 164.883 76.9629 164.3 76.9966 162.13C78.0301 109.856 69.4715 97.3645 19.3534 78.1088C17.2746 77.3139 17.9152 74.3191 20.1624 74.3266C74.3145 74.7226 87.3567 66.3179 107.885 17.7207C108.733 15.7049 111.829 16.2888 111.795 18.458C110.761 70.732 119.32 83.2239 169.438 102.48C171.517 103.275 170.876 106.269 168.629 106.262V106.262Z" stroke="black" stroke-width="2.35" stroke-linecap="round" stroke-linejoin="round"/>
</svg>
