<svg width="290" height="282" viewBox="0 0 290 282" fill="none" xmlns="http://www.w3.org/2000/svg">
<g clip-path="url(#clip0_2043_1456)">
<path d="M281.401 146.115C286.087 145.183 285.912 140.039 281.174 139.449C264.719 137.433 246.81 135.832 227.595 134.897C209.059 134.003 191.681 133.886 175.617 134.239C173.19 134.3 171.192 132.887 171.101 131.023C170.355 113.258 168.723 94.3218 165.868 74.3324C163.2 55.6885 159.747 38.08 155.768 21.5838C154.848 17.7952 147.596 18.0418 146.907 21.8851C143.755 39.6967 142.043 57.4594 140.81 75.2058C139.592 94.2392 139.22 113.222 139.499 132.205C139.532 134.028 137.663 135.551 135.266 135.675C117.951 136.607 100.622 137.969 83.3393 139.844C65.3552 141.872 47.3568 144.308 29.4245 147.858C24.7382 148.79 24.9131 153.934 29.6519 154.546C47.7839 156.869 65.9062 158.077 83.9864 158.879C101.357 159.576 118.71 159.758 136.048 159.512C138.448 159.474 140.388 160.867 140.507 162.687C141.519 181.645 143.179 200.559 145.658 219.466C148.104 237.41 151.116 255.355 155.622 273.228C156.57 276.994 163.794 276.749 164.483 272.927C167.765 254.789 169.551 236.681 170.773 218.613C171.963 199.602 172.363 180.617 172.057 161.636C172.023 159.813 173.892 158.29 176.289 158.165C193.605 157.255 210.905 155.873 228.188 154.019C245.947 152.02 263.665 149.637 281.373 146.137L281.401 146.115Z" fill="black"/>
<path d="M263.158 134.761C267.845 133.829 267.67 128.684 262.932 128.094C246.477 126.078 228.567 124.477 209.353 123.542C190.817 122.649 173.438 122.532 157.375 122.885C154.947 122.946 152.95 121.533 152.858 119.669C152.113 101.904 150.48 82.9673 147.625 62.9779C144.957 44.334 141.505 26.7255 137.526 10.2293C136.606 6.44072 129.354 6.68729 128.665 10.5306C125.513 28.3422 123.8 46.1049 122.567 63.8513C121.35 82.8848 120.978 101.868 121.256 120.851C121.29 122.674 119.421 124.196 117.024 124.321C99.7086 125.253 82.38 126.615 65.0971 128.49C47.113 130.518 29.1146 132.954 11.1824 136.503C6.49596 137.435 6.67087 142.58 11.4097 143.191C29.5417 145.515 47.664 146.723 65.7442 147.524C83.1146 148.221 100.467 148.404 117.806 148.158C120.206 148.119 122.146 149.512 122.265 151.332C123.276 170.29 124.936 189.204 127.416 208.112C129.862 226.055 132.874 244.001 137.38 261.874C138.327 265.64 145.552 265.394 146.241 261.572C149.523 243.435 151.309 225.326 152.531 207.258C153.721 188.247 154.121 169.263 153.814 150.281C153.781 148.458 155.65 146.935 158.047 146.811C175.363 145.9 192.663 144.518 209.946 142.664C227.705 140.666 245.423 138.282 263.131 134.783L263.158 134.761Z" fill="#FCF43D" stroke="black" stroke-width="2.35" stroke-linecap="round" stroke-linejoin="round"/>
</g>
<defs>
<clipPath id="clip0_2043_1456">
<rect width="280.125" height="271.676" fill="white" transform="translate(0 9.51855) rotate(-1.94726)"/>
</clipPath>
</defs>
</svg>
