<svg width="334" height="339" viewBox="0 0 334 339" fill="none" xmlns="http://www.w3.org/2000/svg">
<path d="M191.149 312.05C197.144 310.886 179.348 219.654 179.348 219.654L173.313 188.714L186.443 197.706C186.443 197.706 237.222 232.481 240.622 227.356C244.022 222.232 193.243 187.457 193.243 187.457L180.113 178.465L210.607 172.541C210.607 172.541 300.523 155.073 299.337 148.99C298.15 142.907 208.234 160.374 208.234 160.374L177.74 166.298L186.531 153.049C186.531 153.049 220.531 101.804 215.453 98.3262C210.375 94.8487 176.375 146.094 176.375 146.094L167.584 159.344L161.548 128.403C161.548 128.403 143.752 37.1721 137.757 38.3368C131.761 39.5016 149.557 130.733 149.557 130.733L155.592 161.673L142.463 152.682C142.463 152.682 91.6831 117.907 88.2831 123.031C84.8831 128.156 135.663 162.931 135.663 162.931L148.792 171.922L118.298 177.846C118.298 177.846 28.3819 195.314 29.5686 201.397C30.7553 207.481 120.672 190.013 120.672 190.013L151.166 184.089L142.375 197.339C142.375 197.339 108.374 248.584 113.452 252.061C118.53 255.539 152.531 204.294 152.531 204.294L161.322 191.044L167.357 221.984C167.357 221.984 185.153 313.215 191.149 312.05Z" fill="black"/>
<path d="M196.917 300.434C202.913 299.269 185.116 208.038 185.116 208.038L179.081 177.098L192.211 186.089C192.211 186.089 242.99 220.864 246.39 215.739C249.79 210.615 199.011 175.84 199.011 175.84L185.881 166.849L216.375 160.924C216.375 160.924 306.291 143.456 305.105 137.373C303.918 131.29 214.002 148.758 214.002 148.758L183.508 154.682L192.299 141.432C192.299 141.432 226.299 90.1869 221.221 86.7094C216.143 83.2319 182.143 134.477 182.143 134.477L173.352 147.727L167.316 116.787C167.316 116.787 149.52 25.5554 143.524 26.7202C137.529 27.885 155.325 119.116 155.325 119.116L161.36 150.056L148.231 141.065C148.231 141.065 97.451 106.29 94.0509 111.415C90.6509 116.539 141.431 151.314 141.431 151.314L154.56 160.305L124.066 166.23C124.066 166.23 34.15 183.698 35.3366 189.781C36.5233 195.864 126.44 178.396 126.44 178.396L156.934 172.472L148.143 185.722C148.143 185.722 114.143 236.967 119.221 240.445C124.299 243.922 158.299 192.677 158.299 192.677L167.09 179.427L173.125 210.367C173.125 210.367 190.921 301.599 196.917 300.434Z" fill="#F9346C" stroke="black" stroke-width="2.35" stroke-linecap="round" stroke-linejoin="round"/>
</svg>
