<svg width="210" height="242" viewBox="0 0 210 242" fill="none" xmlns="http://www.w3.org/2000/svg">
<path d="M156.298 141.531C154.875 139.843 156.02 137.254 158.238 137.204C168.358 136.951 178.482 136.465 188.613 135.686C205.895 134.279 223.171 132.287 240.503 128.56C243.199 127.974 243.281 124.134 240.612 123.434C223.454 118.974 206.279 116.249 189.072 114.108C178.983 112.899 168.869 111.982 158.77 111.299C156.555 111.155 155.522 108.52 157.015 106.894C159.624 104.044 162.213 101.193 164.727 98.2438C172.129 89.509 179.283 80.535 185.771 70.8449C187.358 68.4801 184.638 65.6141 182.194 67.1027C172.262 73.19 163.015 79.9745 153.996 87.0173C150.949 89.429 147.979 91.9009 145.028 94.3927C143.344 95.8194 140.762 94.6725 140.712 92.4483C140.442 82.2829 139.958 72.1129 139.202 61.9371C137.8 44.63 135.815 27.3299 132.138 9.97432C131.573 7.27125 127.704 7.18895 127.025 9.86556C122.614 27.0491 119.894 44.2491 117.758 61.481C116.55 71.615 115.635 81.7552 114.952 91.9004C114.807 94.1204 112.179 95.1565 110.558 93.6595C107.715 91.0445 104.853 88.4485 101.911 85.9094C93.1998 78.4895 84.2496 71.3179 74.5849 64.8137C72.2263 63.223 69.3674 65.9508 70.8519 68.4004C76.9226 78.3577 83.6887 87.6278 90.7125 96.6694C93.1177 99.7236 95.5829 102.701 98.068 105.66C99.4909 107.347 98.3466 109.936 96.1282 109.986C85.9887 110.258 75.8447 110.744 65.6949 111.504C48.4318 112.911 31.1758 114.903 13.8643 118.591C11.1681 119.158 11.0856 123.037 13.7552 123.718C30.8943 128.138 48.05 130.863 65.2376 133.003C75.3261 134.212 85.4402 135.129 95.54 135.812C97.7542 135.956 98.7874 138.592 97.294 140.217C94.6854 143.067 92.0958 145.937 89.5827 148.867C82.161 157.621 74.987 166.614 68.4975 176.344C66.9106 178.708 69.6315 181.555 72.0746 180.086C82.0266 173.999 91.313 167.196 100.352 160.134C103.379 157.741 106.349 155.289 109.28 152.797C110.964 151.37 113.546 152.517 113.596 154.741C113.847 164.886 114.331 175.037 115.107 185.194C116.508 202.52 118.494 219.84 122.209 237.216C122.793 239.919 126.623 240.001 127.322 237.324C131.772 220.122 134.492 202.903 136.629 185.651C137.836 175.537 138.752 165.416 139.434 155.29C139.578 153.07 142.207 152.034 143.828 153.531C146.651 156.146 149.514 158.722 152.436 161.242C161.167 168.681 170.136 175.873 179.84 182.378C182.198 183.969 185.038 181.24 183.573 178.791C177.502 168.814 170.718 159.505 163.675 150.443C161.289 147.409 158.843 144.432 156.357 141.493L156.298 141.531Z" fill="black"/>
<path d="M147.507 136.937C146.084 135.249 147.229 132.66 149.447 132.61C159.567 132.357 169.691 131.871 179.822 131.091C197.104 129.685 214.38 127.692 231.712 123.966C234.408 123.38 234.49 119.54 231.821 118.84C214.663 114.38 197.488 111.655 180.281 109.514C170.192 108.305 160.078 107.388 149.979 106.705C147.764 106.561 146.731 103.926 148.224 102.3C150.833 99.4497 153.422 96.5993 155.936 93.6497C163.338 84.9149 170.492 75.9409 176.98 66.2507C178.567 63.8859 175.847 61.02 173.403 62.5086C163.471 68.5959 154.224 75.3804 145.205 82.4232C142.158 84.8349 139.188 87.3068 136.237 89.7986C134.553 91.2253 131.971 90.0783 131.921 87.8542C131.651 77.6888 131.167 67.5188 130.411 57.343C129.009 40.0358 127.024 22.7358 123.347 5.3802C122.782 2.67713 118.913 2.59484 118.234 5.27144C113.823 22.455 111.103 39.655 108.967 56.8869C107.759 67.0209 106.844 77.1611 106.161 87.3063C106.016 89.5263 103.388 90.5624 101.767 89.0654C98.9241 86.4503 96.0617 83.8544 93.1204 81.3153C84.4088 73.8954 75.4585 66.7238 65.7939 60.2196C63.4353 58.6289 60.5764 61.3567 62.0609 63.8063C68.1316 73.7636 74.8977 83.0337 81.9215 92.0753C84.3267 95.1295 86.7919 98.107 89.277 101.065C90.6999 102.753 89.5556 105.342 87.3372 105.392C77.1977 105.664 67.0537 106.15 56.9039 106.909C39.6408 108.317 22.3848 110.309 5.07327 113.997C2.37706 114.564 2.29455 118.443 4.96423 119.123C22.1033 123.544 39.259 126.269 56.4466 128.409C66.5351 129.618 76.6492 130.535 86.7489 131.218C88.9632 131.362 89.9964 133.997 88.503 135.623C85.8944 138.473 83.3048 141.343 80.7917 144.273C73.37 153.027 66.1959 162.02 59.7065 171.749C58.1196 174.114 60.8405 176.961 63.2836 175.492C73.2355 169.405 82.522 162.602 91.561 155.54C94.5878 153.147 97.5576 150.695 100.489 148.202C102.173 146.776 104.755 147.923 104.805 150.147C105.056 160.292 105.54 170.443 106.316 180.599C107.717 197.926 109.703 215.246 113.418 232.622C114.002 235.325 117.832 235.407 118.531 232.73C122.981 215.528 125.701 198.309 127.838 181.057C129.045 170.943 129.961 160.822 130.643 150.696C130.787 148.476 133.416 147.44 135.037 148.937C137.86 151.552 140.723 154.128 143.645 156.648C152.376 164.087 161.345 171.279 171.049 177.784C173.407 179.375 176.247 176.646 174.782 174.197C168.711 164.22 161.927 154.911 154.884 145.849C152.498 142.815 150.052 139.838 147.566 136.899L147.507 136.937Z" fill="#F9346C" stroke="black" stroke-width="2.35" stroke-linecap="round" stroke-linejoin="round"/>
</svg>
