<svg width="228" height="339" viewBox="0 0 228 339" fill="none" xmlns="http://www.w3.org/2000/svg">
<path d="M98.2709 269.566C102.636 272.472 146.264 206.841 146.264 206.841L161.059 184.583L163.721 197.896C163.721 197.896 174.015 249.386 179.158 248.347C184.3 247.308 174.007 195.818 174.007 195.818L171.345 182.505L193.546 197.287C193.546 197.287 259.008 240.875 261.917 236.498C264.826 232.122 199.364 188.534 199.364 188.534L177.163 173.752L190.461 171.065C190.461 171.065 241.89 160.673 240.86 155.524C239.831 150.375 188.402 160.767 188.402 160.767L175.105 163.454L189.9 141.196C189.9 141.196 233.528 75.5648 229.163 72.6584C224.798 69.7519 181.17 135.383 181.17 135.383L166.374 157.641L163.713 144.328C163.713 144.328 153.419 92.838 148.276 93.8772C143.133 94.9164 153.427 146.406 153.427 146.406L156.089 159.72L133.888 144.937C133.888 144.937 68.4255 101.35 65.5163 105.726C62.6072 110.102 128.07 153.69 128.07 153.69L150.27 168.472L136.973 171.159C136.973 171.159 85.5439 181.551 86.5732 186.7C87.6026 191.849 139.032 181.457 139.032 181.457L152.329 178.77L137.533 201.028C137.533 201.028 93.9059 266.66 98.2709 269.566Z" fill="black"/>
<path d="M108.738 266.044C113.103 268.95 156.73 203.319 156.73 203.319L171.526 181.061L174.188 194.374C174.188 194.374 184.481 245.864 189.624 244.825C194.767 243.785 184.473 192.295 184.473 192.295L181.812 178.982L204.013 193.765C204.013 193.765 269.475 237.352 272.384 232.976C275.293 228.6 209.831 185.012 209.831 185.012L187.63 170.23L200.928 167.543C200.928 167.543 252.357 157.151 251.327 152.002C250.298 146.853 198.869 157.245 198.869 157.245L185.571 159.932L200.367 137.674C200.367 137.674 243.995 72.0424 239.63 69.1359C235.264 66.2294 191.637 131.861 191.637 131.861L176.841 154.119L174.18 140.806C174.18 140.806 163.886 89.3156 158.743 90.3548C153.6 91.394 163.894 142.884 163.894 142.884L166.555 156.197L144.355 141.415C144.355 141.415 78.8923 97.8271 75.9831 102.203C73.074 106.58 138.536 150.168 138.536 150.168L160.737 164.95L147.44 167.637C147.44 167.637 96.0107 178.029 97.04 183.178C98.0694 188.327 149.499 177.935 149.499 177.935L162.796 175.248L148 197.506C148 197.506 104.373 263.137 108.738 266.044Z" fill="#0071C6" stroke="black" stroke-width="2.35" stroke-linecap="round" stroke-linejoin="round"/>
</svg>
