<svg width="286" height="409" viewBox="0 0 286 409" fill="none" xmlns="http://www.w3.org/2000/svg">
<g clip-path="url(#clip0_1958_1711)">
<path d="M198.979 287L97.5568 253.637C96.4573 253.271 95.2388 253.651 94.403 254.572L19.1411 340.345C16.9348 342.846 13.1839 340.632 14.3278 337.505L53.0345 230.159C53.4584 228.995 53.1672 227.755 52.329 226.946L-25.9245 154.274C-28.2041 152.144 -25.8246 148.112 -22.8711 149.1L78.5506 182.464C79.6501 182.83 80.8687 182.449 81.7044 181.528L156.966 95.7552C159.173 93.2549 162.924 95.4685 161.78 98.5957L123.073 205.942C122.649 207.106 122.94 208.346 123.778 209.155L202.01 281.813C204.29 283.944 201.91 287.976 198.957 286.987L198.979 287Z" fill="black"/>
<path d="M195.807 263.792L94.3857 230.429C93.2862 230.063 92.0677 230.443 91.2319 231.364L15.9701 317.137C13.7637 319.638 10.0128 317.424 11.1567 314.297L49.8635 206.951C50.2873 205.787 49.996 204.547 49.1579 203.738L-29.0739 131.079C-31.3536 128.948 -28.9741 124.916 -26.0205 125.905L75.4012 159.269C76.5007 159.635 77.7193 159.254 78.555 158.333L153.817 72.5599C156.023 70.0596 159.774 72.2732 158.63 75.4004L119.924 182.746C119.5 183.91 119.791 185.151 120.629 185.96L198.861 258.618C201.14 260.749 198.761 264.781 195.807 263.792Z" fill="#FF8B13" stroke="black" stroke-width="2.35" stroke-linecap="round" stroke-linejoin="round"/>
</g>
<defs>
<clipPath id="clip0_1958_1711">
<rect width="283.175" height="307.187" fill="white" transform="translate(42.126 0.0783691) rotate(30.5468)"/>
</clipPath>
</defs>
</svg>
