<svg width="233" height="251" viewBox="0 0 233 251" fill="none" xmlns="http://www.w3.org/2000/svg">
<path d="M213.179 149.489C147.427 152.402 131.836 164.945 108.314 233.961C107.343 236.824 103.568 236.208 103.546 233.184C103.296 160.294 92.5461 143.438 31.1488 119.819C28.6022 118.845 29.2936 114.632 32.022 114.498C97.7735 111.585 113.364 99.0417 136.887 30.0257C137.858 27.1633 141.633 27.7786 141.654 30.8027C141.905 103.693 152.654 120.549 214.052 144.168C216.598 145.142 215.907 149.355 213.179 149.489Z" fill="black"/>
<path d="M202.408 136.481C136.654 139.394 121.062 151.937 97.5385 220.951C96.5675 223.813 92.7923 223.198 92.7707 220.174C92.5203 147.286 81.7703 130.431 20.3704 106.814C17.8237 105.84 18.5152 101.627 21.2437 101.493C86.998 98.5796 102.59 86.0366 126.113 17.0233C127.084 14.161 130.859 14.7763 130.881 17.8003C131.131 90.688 141.881 107.543 203.281 131.16C205.828 132.134 205.136 136.347 202.408 136.481Z" fill="#8F55FF"/>
<path d="M202.408 136.481C136.654 139.394 121.062 151.937 97.5385 220.951C96.5675 223.813 92.7923 223.198 92.7707 220.174C92.5203 147.286 81.7703 130.431 20.3704 106.814C17.8237 105.84 18.5152 101.627 21.2437 101.493C86.998 98.5796 102.59 86.0366 126.113 17.0233C127.084 14.161 130.859 14.7763 130.881 17.8003C131.131 90.688 141.881 107.543 203.281 131.16C205.828 132.134 205.136 136.347 202.408 136.481V136.481Z" stroke="black" stroke-width="2.35" stroke-linecap="round" stroke-linejoin="round"/>
</svg>
