<svg width="310" height="348" viewBox="0 0 310 348" fill="none" xmlns="http://www.w3.org/2000/svg">
<path d="M319.27 165.943L210.894 204.022C209.716 204.431 208.93 205.51 208.826 206.775L201.337 322.94C201.108 326.334 196.454 326.963 195.364 323.747L157.491 213.713C157.084 212.518 156.018 211.717 154.77 211.607L40.1849 203.664C36.8377 203.421 36.2034 198.699 39.3709 197.604L147.747 159.525C148.925 159.115 149.711 158.036 149.815 156.771L157.304 40.6064C157.533 37.2123 162.187 36.5832 163.277 39.7991L201.15 149.833C201.557 151.029 202.623 151.83 203.871 151.939L318.429 159.886C321.777 160.129 322.411 164.851 319.243 165.946L319.27 165.943Z" fill="black"/>
<path d="M301.257 149.505L192.88 187.583C191.703 187.993 190.916 189.072 190.812 190.337L183.323 306.502C183.095 309.896 178.44 310.525 177.351 307.309L139.478 197.275C139.07 196.079 138.004 195.278 136.757 195.169L22.1981 187.222C18.8509 186.98 18.2166 182.257 21.3841 181.162L129.76 143.083C130.938 142.673 131.724 141.594 131.828 140.329L139.317 24.1645C139.546 20.7704 144.201 20.1413 145.29 23.3572L183.163 133.391C183.57 134.587 184.637 135.388 185.884 135.497L300.443 143.444C303.79 143.687 304.424 148.409 301.257 149.505Z" fill="#0071C6" stroke="black" stroke-width="2.35" stroke-linecap="round" stroke-linejoin="round"/>
</svg>
