<svg width="284" height="289" viewBox="0 0 284 289" fill="none" xmlns="http://www.w3.org/2000/svg">
<path d="M169.69 170.892C168.665 168.918 170.298 166.54 172.445 166.923C182.246 168.649 192.1 170.14 202.019 171.339C218.957 173.306 236.008 174.684 253.469 174.33C256.187 174.268 257.053 170.425 254.625 169.199C239.009 161.36 223.021 155.261 206.883 149.743C197.412 146.554 187.856 143.654 178.266 140.992C176.162 140.413 175.707 137.563 177.479 136.221C180.576 133.867 183.655 131.509 186.68 129.036C195.601 121.705 204.333 114.086 212.569 105.616C214.583 103.55 212.549 100.137 209.89 101.155C199.074 105.33 188.775 110.34 178.643 115.653C175.213 117.481 171.846 119.385 168.492 121.312C166.577 122.416 164.325 120.758 164.733 118.513C166.556 108.244 168.174 97.9277 169.531 87.5527C171.727 69.884 173.36 52.1083 173.374 33.946C173.384 31.1188 169.674 30.2792 168.471 32.8363C160.7 49.2435 154.555 65.9982 148.965 82.899C145.725 92.8479 142.765 102.86 140.028 112.923C139.434 115.126 136.689 115.653 135.434 113.831C133.232 110.647 131.006 107.478 128.693 104.35C121.821 95.1888 114.668 86.2302 106.69 77.8024C104.744 75.7423 101.431 77.9245 102.359 80.6769C106.167 91.8721 110.785 102.513 115.699 112.974C117.39 116.514 119.155 119.989 120.943 123.448C121.968 125.423 120.335 127.801 118.187 127.417C108.363 125.707 98.4911 124.211 88.5574 122.988C71.638 121.026 54.6055 119.652 37.1721 119.972C34.4585 120.014 33.5841 123.896 36.0165 125.103C51.6221 132.899 67.5913 138.993 83.7109 144.507C93.1823 147.695 102.738 150.596 112.328 153.258C114.432 153.837 114.887 156.687 113.115 158.029C110.018 160.383 106.935 162.761 103.914 165.214C94.9696 172.56 86.2153 180.195 77.9697 188.704C75.9563 190.77 77.9942 194.163 80.6489 193.164C91.4839 188.994 101.824 183.973 111.98 178.644C115.386 176.831 118.75 174.948 122.085 173.016C123.999 171.912 126.251 173.57 125.844 175.815C124.006 186.061 122.393 196.357 121.059 206.717C118.858 224.405 117.221 242.2 117.239 260.39C117.248 263.222 120.921 264.053 122.143 261.5C129.956 245.082 136.105 228.308 141.699 211.387C144.935 201.458 147.891 191.465 150.623 181.422C151.217 179.219 153.962 178.692 155.217 180.514C157.401 183.694 159.631 186.843 161.93 189.947C168.816 199.132 175.983 208.115 183.998 216.551C185.944 218.611 189.239 216.425 188.33 213.676C184.526 202.462 179.898 191.778 174.97 181.293C173.293 177.776 171.547 174.306 169.754 170.866L169.69 170.892Z" fill="black"/>
<path d="M162.166 164.556C161.141 162.582 162.774 160.204 164.921 160.587C174.722 162.313 184.576 163.805 194.495 165.004C211.433 166.971 228.484 168.348 245.945 167.994C248.663 167.932 249.529 164.089 247.101 162.863C231.485 155.024 215.498 148.925 199.359 143.407C189.888 140.218 180.332 137.318 170.742 134.656C168.639 134.077 168.183 131.227 169.955 129.885C173.052 127.531 176.131 125.173 179.157 122.7C188.078 115.369 196.809 107.75 205.046 99.28C207.059 97.2137 205.026 93.8011 202.366 94.8191C191.55 98.994 181.251 104.004 171.119 109.317C167.69 111.145 164.322 113.049 160.968 114.976C159.054 116.08 156.801 114.422 157.209 112.177C159.032 101.908 160.65 91.5917 162.007 81.2167C164.203 63.5481 165.836 45.7723 165.85 27.61C165.86 24.7828 162.15 23.9432 160.947 26.5004C153.176 42.9076 147.031 59.6623 141.441 76.5631C138.201 86.512 135.241 96.5241 132.504 106.587C131.91 108.79 129.166 109.317 127.91 107.495C125.708 104.311 123.482 101.142 121.169 98.0145C114.297 88.8529 107.144 79.8942 99.1663 71.4665C97.22 69.4064 93.9068 71.5886 94.8349 74.3409C98.6428 85.5361 103.261 96.1766 108.175 106.638C109.866 110.178 111.631 113.653 113.419 117.112C114.444 119.087 112.811 121.465 110.663 121.081C100.84 119.371 90.9673 117.875 81.0336 116.653C64.1142 114.69 47.0817 113.316 29.6483 113.636C26.9347 113.678 26.0603 117.56 28.4927 118.767C44.0983 126.563 60.0675 132.657 76.1871 138.171C85.6585 141.36 95.2144 144.26 104.804 146.922C106.908 147.501 107.363 150.351 105.591 151.693C102.494 154.047 99.4113 156.425 96.3897 158.878C87.4458 166.224 78.6915 173.859 70.4459 182.368C68.4325 184.434 70.4704 187.827 73.1251 186.828C83.9601 182.658 94.3006 177.637 104.456 172.308C107.862 170.495 111.226 168.612 114.561 166.68C116.475 165.576 118.728 167.234 118.32 169.479C116.483 179.725 114.869 190.021 113.535 200.381C111.334 218.069 109.698 235.864 109.716 254.054C109.725 256.886 113.398 257.717 114.619 255.164C122.432 238.746 128.581 221.972 134.175 205.051C137.411 195.122 140.367 185.129 143.099 175.086C143.693 172.883 146.438 172.356 147.693 174.178C149.877 177.358 152.107 180.507 154.406 183.611C161.292 192.796 168.459 201.779 176.474 210.215C178.421 212.275 181.715 210.089 180.806 207.34C177.002 196.126 172.374 185.442 167.446 174.957C165.769 171.441 164.023 167.97 162.231 164.53L162.166 164.556Z" fill="#F9346C" stroke="black" stroke-width="2.35" stroke-linecap="round" stroke-linejoin="round"/>
</svg>
