<svg width="276" height="268" viewBox="0 0 276 268" fill="none" xmlns="http://www.w3.org/2000/svg">
<path d="M170.155 158.335C168.868 156.488 170.309 154.024 172.591 154.219C183.005 155.088 193.448 155.723 203.928 156.066C221.813 156.573 239.751 156.494 257.926 154.686C260.754 154.398 261.234 150.564 258.566 149.568C241.413 143.202 224.064 138.572 206.621 134.522C196.39 132.194 186.103 130.155 175.806 128.353C173.548 127.962 172.758 125.211 174.459 123.749C177.43 121.186 180.382 118.62 183.266 115.947C191.763 108.025 200.031 99.837 207.69 90.8581C209.563 88.6673 207.065 85.4976 204.404 86.7165C193.581 91.7079 183.39 97.473 173.406 103.522C170.031 105.598 166.727 107.743 163.441 109.909C161.566 111.15 159.034 109.716 159.212 107.485C159.982 97.2815 160.533 87.0496 160.805 76.7819C161.149 59.3054 160.893 41.7713 158.906 23.9943C158.605 21.2264 154.642 20.7153 153.669 23.3187C147.371 40.0272 142.808 56.9397 138.839 73.9487C136.556 83.957 134.571 94.0039 132.826 104.082C132.449 106.287 129.644 107.033 128.134 105.355C125.485 102.423 122.814 99.5076 120.057 96.6405C111.879 88.249 103.43 80.0797 94.1794 72.4992C91.9223 70.6458 88.7066 73.0589 89.9781 75.675C95.1839 86.3132 101.174 96.3406 107.453 106.168C109.607 109.491 111.831 112.744 114.077 115.981C115.364 117.827 113.922 120.291 111.64 120.096C101.204 119.244 90.7412 118.607 80.2443 118.241C62.379 117.736 44.4606 117.818 26.3106 119.59C23.4846 119.859 23.0004 123.731 25.6706 124.709C42.8083 131.032 60.1378 135.66 77.5602 139.707C87.7914 142.035 98.079 144.074 108.376 145.877C110.634 146.267 111.423 149.019 109.723 150.48C106.751 153.044 103.798 155.629 100.916 158.283C92.3959 166.221 84.1055 174.426 76.4419 183.444C74.5694 185.635 77.0691 188.785 79.7283 187.586C90.5709 182.597 100.804 176.818 110.81 170.752C114.164 168.693 117.465 166.567 120.731 164.398C122.606 163.157 125.138 164.591 124.96 166.822C124.173 177.004 123.624 187.216 123.374 197.467C123.028 214.963 123.282 232.517 125.305 250.318C125.627 253.089 129.55 253.595 130.543 250.994C136.883 234.271 141.449 217.339 145.419 200.311C147.7 190.322 149.683 180.294 151.426 170.236C151.803 168.03 154.608 167.285 156.118 168.963C158.746 171.892 161.42 174.788 164.16 177.633C172.355 186.047 180.821 194.238 190.112 201.824C192.369 203.677 195.565 201.261 194.313 198.648C189.11 187.99 183.104 177.921 176.808 168.072C174.672 164.771 172.468 161.52 170.219 158.303L170.155 158.335Z" fill="black"/>
<path d="M161.62 152.768C160.333 150.921 161.774 148.457 164.057 148.653C174.47 149.521 184.913 150.157 195.393 150.5C213.278 151.007 231.216 150.928 249.391 149.12C252.219 148.832 252.699 144.998 250.031 144.002C232.878 137.636 215.529 133.006 198.087 128.956C187.855 126.628 177.568 124.589 167.271 122.786C165.013 122.396 164.224 119.644 165.924 118.183C168.895 115.62 171.847 113.054 174.731 110.38C183.229 102.459 191.497 94.2707 199.155 85.2919C201.028 83.1011 198.531 79.9313 195.869 81.1502C185.046 86.1416 174.855 91.9066 164.872 97.9554C161.496 100.031 158.193 102.176 154.907 104.343C153.031 105.584 150.499 104.15 150.677 101.919C151.447 91.715 151.998 81.4832 152.27 71.2154C152.614 53.7389 152.358 36.2048 150.372 18.4278C150.071 15.66 146.108 15.1488 145.135 17.7523C138.837 34.4607 134.273 51.3731 130.305 68.3821C128.021 78.3904 126.037 88.4373 124.291 98.515C123.914 100.721 121.109 101.466 119.599 99.7884C116.951 96.8563 114.28 93.941 111.522 91.0738C103.344 82.6823 94.8956 74.513 85.6449 66.9324C83.3878 65.079 80.1721 67.4921 81.4436 70.1082C86.6493 80.7464 92.6396 90.7739 98.918 100.601C101.072 103.925 103.296 107.178 105.542 110.414C106.829 112.261 105.388 114.725 103.105 114.529C92.6693 113.677 82.2065 113.04 71.7096 112.674C53.8443 112.17 35.9259 112.251 17.7759 114.023C14.9498 114.291 14.4656 118.164 17.1358 119.141C34.2735 125.465 51.603 130.093 69.0254 134.14C79.2565 136.469 89.5442 138.507 99.841 140.31C102.099 140.7 102.888 143.452 101.188 144.914C98.2164 147.477 95.2626 150.062 92.3811 152.716C83.8609 160.654 75.5704 168.86 67.9068 177.877C66.0343 180.068 68.534 183.218 71.1931 182.019C82.0358 177.03 92.269 171.251 102.275 165.185C105.629 163.126 108.93 161.001 112.196 158.832C114.071 157.59 116.603 159.024 116.425 161.256C115.638 171.437 115.089 181.65 114.839 191.901C114.493 209.396 114.746 226.95 116.77 244.752C117.091 247.522 121.014 248.028 122.007 245.427C128.348 228.704 132.913 211.773 136.884 194.744C139.165 184.755 141.148 174.728 142.891 164.67C143.268 162.464 146.073 161.718 147.583 163.396C150.211 166.326 152.885 169.222 155.625 172.067C163.82 180.48 172.286 188.672 181.577 196.257C183.834 198.111 187.03 195.695 185.778 193.081C180.575 182.424 174.569 172.355 168.273 162.505C166.137 159.204 163.933 155.954 161.684 152.737L161.62 152.768Z" fill="#8F55FF" stroke="black" stroke-width="2.35" stroke-linecap="round" stroke-linejoin="round"/>
</svg>
