<svg width="398" height="583" viewBox="0 0 398 583" fill="none" xmlns="http://www.w3.org/2000/svg">
<g clip-path="url(#clip0_1562_1548)">
<path d="M232.896 232.668C234.655 236.603 231.24 241.044 227.138 240.078C208.412 235.715 189.558 231.801 170.545 228.447C138.07 222.876 105.312 218.436 71.571 217.312C66.318 217.15 64.2218 224.511 68.7724 227.14C98.0443 243.959 128.228 257.442 158.766 269.814C176.694 276.98 194.817 283.595 213.032 289.751C217.028 291.091 217.591 296.665 214.023 299.083C207.784 303.325 201.581 307.579 195.467 312.059C177.436 325.347 159.74 339.214 142.904 354.781C138.789 358.578 142.336 365.406 147.581 363.708C168.921 356.735 189.354 348.091 209.498 338.839C216.32 335.651 223.031 332.31 229.718 328.922C233.535 326.979 237.699 330.427 236.663 334.738C232.008 354.46 227.742 374.293 223.975 394.268C217.779 428.297 212.66 462.592 210.62 497.805C210.288 503.285 217.357 505.298 219.962 500.465C236.778 469.46 250.493 437.613 263.153 405.424C270.509 386.471 277.331 367.366 283.728 348.14C285.118 343.93 290.474 343.193 292.695 346.855C296.594 353.258 300.538 359.633 304.657 365.936C316.907 384.412 329.721 402.524 344.186 419.692C347.714 423.888 354.351 420.001 352.864 414.568C346.754 392.467 339.018 371.357 330.692 350.565C327.82 343.525 324.798 336.605 321.731 329.712C319.971 325.777 323.386 321.336 327.488 322.303C346.261 326.638 365.15 330.562 384.188 333.964C416.627 339.525 449.35 343.954 483.034 345.143C488.276 345.343 490.394 337.907 485.833 335.315C456.575 318.581 426.427 305.108 395.925 292.746C377.997 285.581 359.874 278.966 341.659 272.809C337.663 271.469 337.099 265.896 340.668 263.478C346.906 259.235 353.12 254.944 359.224 250.501C377.3 237.187 395.043 223.292 411.9 207.65C416.015 203.853 412.457 197.063 407.223 198.723C385.848 205.686 365.333 214.347 345.142 223.626C338.367 226.787 331.666 230.09 325.015 233.489C321.198 235.432 317.034 231.984 318.069 227.673C322.75 207.998 327.005 188.203 330.726 168.255C336.933 134.188 342.062 99.8559 344.042 64.5858C344.338 59.0951 337.34 57.1026 334.7 61.9257C317.802 92.9477 304.076 124.833 291.406 157.058C284.061 175.974 277.249 195.042 270.863 214.231C269.472 218.44 264.117 219.177 261.896 215.515C258.033 209.123 254.077 202.785 249.983 196.529C237.709 178.006 224.87 159.847 210.334 142.659C206.806 138.462 200.205 142.36 201.656 147.782C207.755 169.921 215.506 191.115 223.856 211.955C226.704 218.947 229.69 225.857 232.768 232.713L232.896 232.668Z" fill="black"/>
<path d="M246.724 245.736C248.484 249.671 245.069 254.112 240.966 253.145C222.24 248.783 203.387 244.869 184.373 241.515C151.899 235.944 119.14 231.504 85.3991 230.38C80.1462 230.217 78.0499 237.579 82.6006 240.208C111.872 257.027 142.056 270.51 172.594 282.882C190.522 290.047 208.645 296.662 226.86 302.819C230.856 304.159 231.419 309.732 227.851 312.15C221.612 316.393 215.409 320.646 209.295 325.126C191.264 338.414 173.568 352.282 156.732 367.849C152.617 371.646 156.164 378.473 161.41 376.775C182.749 369.803 203.182 361.159 223.327 351.907C230.148 348.719 236.859 345.378 243.546 341.99C247.363 340.047 251.527 343.495 250.492 347.806C245.836 367.528 241.571 387.361 237.803 407.336C231.607 441.365 226.488 475.66 224.448 510.872C224.117 516.353 231.185 518.366 233.79 513.533C250.606 482.528 264.321 450.68 276.981 418.492C284.337 399.539 291.159 380.434 297.556 361.207C298.947 356.998 304.302 356.26 306.523 359.923C310.422 366.325 314.367 372.7 318.485 379.004C330.735 397.48 343.549 415.591 358.014 432.759C361.542 436.955 368.179 433.068 366.692 427.635C360.582 405.535 352.846 384.425 344.52 363.632C341.648 356.593 338.626 349.673 335.559 342.78C333.799 338.845 337.214 334.404 341.317 335.37C360.089 339.706 378.978 343.63 398.016 347.031C430.455 352.592 463.178 357.022 496.862 358.211C502.105 358.411 504.222 350.974 499.661 348.383C470.403 331.648 440.255 318.176 409.753 305.814C391.825 298.648 373.702 292.033 355.487 285.877C351.491 284.537 350.927 278.963 354.496 276.545C360.735 272.302 366.948 268.012 373.052 263.569C391.128 250.254 408.871 236.359 425.728 220.718C429.843 216.92 426.285 210.13 421.051 211.791C399.676 218.753 379.161 227.415 358.97 236.694C352.195 239.854 345.494 243.158 338.843 246.556C335.026 248.499 330.862 245.051 331.898 240.741C336.578 221.066 340.833 201.27 344.555 181.323C350.761 147.256 355.891 112.924 357.87 77.6534C358.166 72.1627 351.169 70.1702 348.528 74.9933C331.63 106.015 317.905 137.9 305.234 170.126C297.889 189.042 291.077 208.109 284.691 227.298C283.301 231.508 277.945 232.245 275.724 228.583C271.861 222.19 267.905 215.853 263.812 209.597C251.537 191.073 238.698 172.914 224.162 155.726C220.634 151.53 214.033 155.427 215.484 160.85C221.583 182.988 229.334 204.183 237.684 225.023C240.532 232.015 243.518 238.925 246.596 245.78L246.724 245.736Z" fill="#FF8B13" stroke="black" stroke-width="2.35" stroke-linecap="round" stroke-linejoin="round"/>
<path d="M464.265 501.355C447.725 484.064 440.545 482.812 415.945 492.961C414.926 493.384 414.191 492.203 415.017 491.47C434.992 473.885 437.051 466.893 428.846 444.416C428.504 443.485 429.828 442.662 430.518 443.377C447.058 460.668 454.238 461.92 478.838 451.77C479.857 451.348 480.591 452.529 479.765 453.262C459.791 470.847 457.731 477.839 465.937 500.316C466.279 501.247 464.955 502.07 464.265 501.355Z" fill="black"/>
<path d="M465.258 495.28C448.717 477.989 441.537 476.737 416.937 486.886C415.918 487.308 415.184 486.128 416.01 485.395C435.984 467.809 438.044 460.817 429.838 438.341C429.496 437.41 430.82 436.587 431.51 437.301C448.05 454.593 455.23 455.845 479.83 445.695C480.849 445.273 481.584 446.454 480.758 447.187C460.783 464.772 458.724 471.764 466.929 494.24C467.271 495.171 465.947 495.995 465.258 495.28Z" fill="white"/>
<path d="M465.258 495.28C448.717 477.989 441.537 476.737 416.937 486.886C415.918 487.308 415.184 486.128 416.01 485.395C435.984 467.809 438.044 460.817 429.838 438.341C429.496 437.41 430.82 436.587 431.51 437.301C448.05 454.593 455.23 455.845 479.83 445.695C480.849 445.273 481.584 446.454 480.758 447.187C460.783 464.772 458.724 471.764 466.929 494.24C467.271 495.171 465.947 495.995 465.258 495.28V495.28Z" stroke="black" stroke-width="2.35" stroke-linecap="round" stroke-linejoin="round"/>
<path d="M116.031 443C127.207 443 136.267 434.144 136.267 423.221C136.267 412.297 127.207 403.441 116.031 403.441C104.855 403.441 95.7949 412.297 95.7949 423.221C95.7949 434.144 104.855 443 116.031 443Z" fill="black"/>
<path d="M107.236 434.559C118.412 434.559 127.472 425.703 127.472 414.779C127.472 403.856 118.412 395 107.236 395C96.06 395 87 403.856 87 414.779C87 425.703 96.06 434.559 107.236 434.559Z" fill="white" stroke="black" stroke-width="4" stroke-linecap="round" stroke-linejoin="round"/>
</g>
<defs>
<clipPath id="clip0_1562_1548">
<rect width="459.585" height="474.527" fill="white" transform="translate(442.109 582.396) rotate(-164.106)"/>
</clipPath>
</defs>
</svg>
