<svg width="286" height="316" viewBox="0 0 286 316" fill="none" xmlns="http://www.w3.org/2000/svg">
<path d="M164.393 186.214C163.098 184.041 164.797 181.233 167.261 181.524C178.507 182.829 189.798 183.864 201.144 184.562C220.512 185.664 239.971 186.088 259.78 184.52C262.864 184.268 263.594 179.848 260.755 178.618C242.502 170.762 223.941 164.907 205.247 159.722C194.279 156.735 183.234 154.08 172.165 151.699C169.738 151.183 169.033 147.977 170.957 146.336C174.32 143.457 177.662 140.574 180.936 137.565C190.586 128.647 200.002 119.414 208.8 109.25C210.951 106.77 208.417 103.032 205.463 104.365C193.453 109.827 182.084 116.201 170.925 122.91C167.15 125.214 163.45 127.6 159.768 130.011C157.666 131.393 154.998 129.661 155.314 127.086C156.708 115.306 157.867 103.488 158.725 91.6196C160.057 71.4158 160.741 51.1282 159.562 30.5098C159.387 27.2998 155.117 26.5945 153.919 29.5777C146.172 48.7218 140.296 68.1518 135.059 87.7106C132.034 99.2207 129.331 110.784 126.885 122.39C126.355 124.93 123.272 125.712 121.727 123.728C119.015 120.26 116.279 116.811 113.445 113.416C105.036 103.475 96.3218 93.783 86.7052 84.7489C84.3589 82.5403 80.7393 85.2388 81.9747 88.3013C87.0369 100.755 92.9835 112.526 99.2536 124.073C101.408 127.979 103.641 131.805 105.899 135.613C107.194 137.786 105.495 140.594 103.031 140.303C91.7597 139.017 80.4478 137.979 69.0839 137.254C49.7368 136.156 30.2998 135.735 10.519 137.262C7.43949 137.491 6.70191 141.957 9.54422 143.164C27.7832 150.971 46.3232 156.823 64.9958 162.005C75.9638 164.992 87.0089 167.646 98.077 170.028C100.504 170.544 101.209 173.749 99.2851 175.391C95.9221 178.27 92.5769 181.175 89.3064 184.162C79.631 193.098 70.19 202.35 61.3843 212.56C59.2334 215.04 61.7716 218.755 64.7212 217.444C76.7536 211.986 88.1685 205.596 99.3526 198.868C103.102 196.583 106.799 194.22 110.46 191.805C112.562 190.423 115.229 192.155 114.914 194.731C113.501 206.484 112.347 218.28 111.513 230.129C110.178 250.356 109.491 270.666 110.709 291.314C110.905 294.527 115.132 295.225 116.352 292.246C124.145 273.086 130.025 253.634 135.265 234.053C138.287 222.565 140.986 211.024 143.429 199.441C143.959 196.9 147.041 196.119 148.587 198.103C151.277 201.567 154.017 204.993 156.833 208.363C165.259 218.33 173.992 228.048 183.651 237.089C185.997 239.297 189.596 236.595 188.382 233.536C183.323 221.06 177.362 209.241 171.075 197.668C168.938 193.788 166.726 189.965 164.464 186.18L164.393 186.214Z" fill="black"/>
<path d="M155.425 179.524C154.131 177.35 155.829 174.542 158.293 174.834C169.539 176.138 180.83 177.173 192.176 177.872C211.545 178.973 231.003 179.398 250.813 177.829C253.896 177.578 254.626 173.157 251.787 171.928C233.534 164.072 214.973 158.217 196.279 153.031C185.311 150.044 174.266 147.39 163.198 145.008C160.77 144.492 160.065 141.287 161.99 139.645C165.353 136.766 168.694 133.883 171.968 130.874C181.619 121.957 191.034 112.724 199.833 102.559C201.983 100.079 199.449 96.3411 196.496 97.6743C184.485 103.136 173.117 109.511 161.958 116.22C158.183 118.524 154.482 120.909 150.8 123.321C148.698 124.702 146.031 122.971 146.346 120.395C147.741 108.616 148.899 96.7972 149.757 84.9291C151.089 64.7254 151.773 44.4378 150.594 23.8194C150.419 20.6093 146.149 19.9041 144.951 22.8873C137.204 42.0314 131.328 61.4614 126.092 81.0201C123.066 92.5303 120.363 104.094 117.917 115.699C117.387 118.24 114.304 119.022 112.759 117.037C110.047 113.57 107.311 110.121 104.477 106.725C96.0685 96.7844 87.354 87.0926 77.7374 78.0585C75.3912 75.8499 71.7715 78.5484 73.0069 81.6108C78.0692 94.0649 84.0158 105.835 90.2858 117.382C92.4399 121.288 94.6732 125.115 96.9317 128.923C98.2258 131.096 96.5276 133.904 94.0631 133.612C82.7919 132.327 71.48 131.288 60.1162 130.564C40.769 129.466 21.3321 129.045 1.55123 130.572C-1.52829 130.801 -2.26586 135.266 0.576444 136.474C18.8154 144.281 37.3554 150.132 56.028 155.314C66.996 158.302 78.0411 160.956 89.1092 163.337C91.5367 163.853 92.2415 167.059 90.3173 168.7C86.9543 171.58 83.6091 174.485 80.3386 177.471C70.6632 186.408 61.2222 195.66 52.4165 205.869C50.2656 208.349 52.8038 212.065 55.7534 210.754C67.7858 205.296 79.2007 198.906 90.3848 192.178C94.1345 189.893 97.8311 187.53 101.492 185.115C103.594 183.733 106.261 185.465 105.946 188.04C104.534 199.794 103.379 211.59 102.546 223.439C101.211 243.665 100.523 263.975 101.741 284.623C101.938 287.837 106.164 288.535 107.384 285.555C115.177 266.396 121.057 246.943 126.297 227.362C129.319 215.875 132.019 204.334 134.461 192.75C134.991 190.21 138.073 189.428 139.619 191.412C142.309 194.876 145.049 198.303 147.865 201.672C156.292 211.639 165.024 221.357 174.683 230.398C177.03 232.607 180.628 229.905 179.414 226.846C174.355 214.369 168.395 202.551 162.107 190.977C159.971 187.098 157.759 183.275 155.497 179.489L155.425 179.524Z" fill="#FCF43D" stroke="black" stroke-width="2.35" stroke-linecap="round" stroke-linejoin="round"/>
</svg>
