<svg width="241" height="258" viewBox="0 0 241 258" fill="none" xmlns="http://www.w3.org/2000/svg">
<path d="M219.344 153.087C151.592 156.455 135.593 169.47 111.732 240.735C110.747 243.691 106.853 243.078 106.814 239.961C106.151 164.834 94.9783 147.521 31.5667 123.518C28.9366 122.528 29.6259 118.182 32.4372 118.029C100.189 114.661 116.189 101.646 140.05 30.3812C141.034 27.4255 144.929 28.0387 144.968 31.1556C145.63 106.282 156.803 123.595 220.215 147.598C222.845 148.588 222.156 152.934 219.344 153.087Z" fill="black"/>
<path d="M208.16 139.744C140.405 143.113 124.405 156.127 100.543 227.39C99.5577 230.345 95.6633 229.732 95.6243 226.615C94.9618 151.492 83.7885 134.18 20.3743 110.178C17.7441 109.188 18.4334 104.842 21.2449 104.69C88.9998 101.321 105 88.3065 128.862 17.0442C129.847 14.0887 133.741 14.7018 133.78 17.8186C134.443 92.9421 145.616 110.254 209.03 134.255C211.661 135.246 210.971 139.592 208.16 139.744Z" fill="#8F55FF"/>
<path d="M208.16 139.744C140.405 143.113 124.405 156.127 100.543 227.39C99.5577 230.345 95.6633 229.732 95.6243 226.615C94.9618 151.492 83.7885 134.18 20.3743 110.178C17.7441 109.188 18.4334 104.842 21.2449 104.69C88.9998 101.321 105 88.3065 128.862 17.0442C129.847 14.0887 133.741 14.7018 133.78 17.8186C134.443 92.9421 145.616 110.254 209.03 134.255C211.661 135.246 210.971 139.592 208.16 139.744V139.744Z" stroke="black" stroke-width="2.35" stroke-linecap="round" stroke-linejoin="round"/>
</svg>
