<svg width="312" height="381" viewBox="0 0 312 381" fill="none" xmlns="http://www.w3.org/2000/svg">
<path d="M317.281 149.763C315.414 143.416 225.552 172.767 225.552 172.767L195.076 182.721L202.617 167.541C202.617 167.541 231.78 108.83 226.224 105.726C220.667 102.622 191.503 161.334 191.503 161.334L183.963 176.514L174.467 144.233C174.467 144.233 146.465 49.0475 140.473 51.0046C134.481 52.9618 162.483 148.147 162.483 148.147L171.979 180.428L157.612 172.404C157.612 172.404 102.047 141.367 99.1304 147.238C96.214 153.109 151.779 184.146 151.779 184.146L166.146 192.171L135.671 202.125C135.671 202.125 45.8084 231.476 47.6756 237.823C49.5427 244.17 139.405 214.819 139.405 214.819L169.88 204.865L162.34 220.045C162.34 220.045 133.176 278.757 138.733 281.86C144.29 284.964 173.453 226.252 173.453 226.252L180.993 211.072L190.49 243.353C190.49 243.353 218.491 338.539 224.483 336.581C230.475 334.624 202.474 239.439 202.474 239.439L192.978 207.158L207.345 215.183C207.345 215.183 262.91 246.219 265.826 240.348C268.742 234.477 213.177 203.44 213.177 203.44L198.81 195.415L229.286 185.461C229.286 185.461 319.148 156.11 317.281 149.763Z" fill="black"/>
<path d="M314.714 143.308C312.847 136.961 222.985 166.312 222.985 166.312L192.509 176.266L200.05 161.086C200.05 161.086 229.213 102.375 223.657 99.2709C218.1 96.1672 188.937 154.879 188.937 154.879L181.396 170.059L171.9 137.778C171.9 137.778 143.899 42.5924 137.907 44.5496C131.915 46.5067 159.916 141.692 159.916 141.692L169.412 173.973L155.045 165.949C155.045 165.949 99.4801 134.912 96.5637 140.783C93.6474 146.654 149.213 177.691 149.213 177.691L163.58 185.716L133.104 195.67C133.104 195.67 43.2418 225.021 45.1089 231.368C46.9761 237.715 136.838 208.364 136.838 208.364L167.314 198.41L159.773 213.59C159.773 213.59 130.61 272.301 136.166 275.405C141.723 278.509 170.886 219.797 170.886 219.797L178.427 204.617L187.923 236.898C187.923 236.898 215.924 332.084 221.917 330.126C227.909 328.169 199.907 232.984 199.907 232.984L190.411 200.703L204.778 208.727C204.778 208.727 260.343 239.764 263.259 233.893C266.176 228.022 210.611 196.985 210.611 196.985L196.244 188.96L226.719 179.006C226.719 179.006 316.581 149.655 314.714 143.308Z" fill="#FF8B13" stroke="black" stroke-width="2.35" stroke-linecap="round" stroke-linejoin="round"/>
</svg>
