<svg width="118" height="117" viewBox="0 0 118 117" fill="none" xmlns="http://www.w3.org/2000/svg">
<path d="M105.504 50.1007C76.8976 63.3703 72.2496 71.1925 74.2606 102.754C74.3461 104.062 72.5627 104.515 72.0084 103.326C58.7667 74.6184 50.9677 69.9508 19.5108 71.9514C18.207 72.0364 17.7544 70.247 18.9392 69.6914C47.5457 56.4218 52.1937 48.5997 50.1827 17.0382C50.0972 15.73 51.8806 15.2769 52.4349 16.4659C65.6766 45.1737 73.4756 49.8413 104.932 47.8407C106.236 47.7557 106.689 49.5452 105.504 50.1007Z" fill="black"/>
<path d="M98.3878 46.9552C69.7801 60.2254 65.1316 68.0475 67.1417 99.6082C67.2271 100.916 65.4437 101.369 64.8893 100.181C51.6484 71.4738 43.8493 66.8067 12.3915 68.8083C11.0877 68.8933 10.6351 67.1039 11.8199 66.5484C40.4277 53.2781 45.0761 45.456 43.066 13.8953C42.9806 12.5872 44.7641 12.134 45.3184 13.323C58.5594 42.0297 66.3584 46.6968 97.8162 44.6952C99.12 44.6102 99.5726 46.3996 98.3878 46.9552Z" fill="#8F55FF"/>
<path d="M98.3878 46.9552C69.7801 60.2254 65.1316 68.0475 67.1417 99.6082C67.2271 100.916 65.4437 101.369 64.8893 100.181C51.6484 71.4738 43.8493 66.8067 12.3915 68.8083C11.0877 68.8933 10.6351 67.1039 11.8199 66.5484C40.4277 53.2781 45.0761 45.456 43.066 13.8953C42.9806 12.5872 44.7641 12.134 45.3184 13.323C58.5594 42.0297 66.3584 46.6968 97.8162 44.6952C99.12 44.6102 99.5726 46.3996 98.3878 46.9552V46.9552Z" stroke="black" stroke-width="2.35" stroke-linecap="round" stroke-linejoin="round"/>
</svg>
