<svg width="57" height="46" viewBox="0 0 57 46" fill="none" xmlns="http://www.w3.org/2000/svg">
<rect x="49.5925" y="35.5878" width="36.6995" height="25.5351" transform="rotate(-180 49.5925 35.5878)" fill="#0071C6" stroke="#0071C6"/>
<path d="M12.8414 38.2106L7.0113 9.55269L18.6716 9.55269L12.8414 38.2106Z" fill="#0071C6"/>
<path d="M49.6439 38.2106L43.8138 9.55269L55.4741 9.55269L49.6439 38.2106Z" fill="#0071C6"/>
<rect x="50.9902" y="39.272" width="2.69282" height="3.18422" transform="rotate(-180 50.9902 39.272)" fill="white"/>
<rect x="14.1882" y="39.272" width="2.69282" height="3.18422" transform="rotate(-180 14.1882 39.272)" fill="white"/>
<path d="M13.6459 33.8552V33.8552C11.3583 35.6138 12.602 39.272 15.4874 39.272H48.9097" stroke="#0071C6" stroke-width="2.6"/>
<circle cx="22.3287" cy="42.5571" r="2.28502" stroke="#0071C6" stroke-width="2"/>
<circle cx="40.995" cy="42.5571" r="2.28502" stroke="#0071C6" stroke-width="2"/>
<path d="M9.65335 15.8486L7.31672 4.50981L1.00003 4.50982" stroke="#0071C6" stroke-width="2.6"/>
</svg>
