<svg width="253" height="71" viewBox="0 0 253 71" fill="none" xmlns="http://www.w3.org/2000/svg">
<path d="M-2 1H242C247.523 1 252 5.47715 252 11V60C252 65.5229 247.523 70 242 70H-2V1Z" fill="#F9346C" stroke="black" stroke-width="2"/>
<path d="M25.1 19.0499V13.1749C25.1 12.5262 25.6266 12 26.2749 12C26.9237 12 27.4498 12.5266 27.4498 13.1749V19.0499C27.4498 19.6987 26.9232 20.2248 26.2749 20.2248C25.6266 20.2248 25.1 19.6986 25.1 19.0499ZM17.1353 16.4738C16.6763 16.0148 15.9325 16.0148 15.4739 16.4738C15.0149 16.9328 15.0149 17.6766 15.4739 18.1352L19.6282 22.2895C19.8581 22.5194 20.1581 22.6337 20.4589 22.6337C20.7597 22.6337 21.0601 22.519 21.2896 22.2895C21.7486 21.8305 21.7486 21.0867 21.2896 20.6281L17.1353 16.4738ZM19.2249 27.2755C19.2249 26.6268 18.6983 26.1006 18.05 26.1006L12.1749 26.1002C11.5262 26.1002 11 26.6268 11 27.2751C11 27.9238 11.5266 28.45 12.1749 28.45H18.05C18.6987 28.4504 19.2249 27.9238 19.2249 27.2755V27.2755ZM19.6282 32.2604L15.4739 36.4147C15.0149 36.8737 15.0149 37.6175 15.4739 38.0761C15.7038 38.306 16.0038 38.4203 16.3046 38.4203C16.6054 38.4203 16.9058 38.3056 17.1353 38.0761L21.2896 33.9218C21.7486 33.4628 21.7486 32.719 21.2896 32.2604C20.8306 31.8015 20.0876 31.8015 19.6282 32.2604ZM32.0907 22.6348C32.3915 22.6348 32.6919 22.5201 32.9214 22.2906L37.0757 18.1363C37.5347 17.6773 37.5347 16.9335 37.0757 16.475C36.6167 16.016 35.8729 16.016 35.4143 16.475L31.26 20.6292C30.801 21.0882 30.801 21.832 31.26 22.2906C31.4895 22.5197 31.7903 22.6348 32.0907 22.6348ZM57.6558 52.2943C58.1147 52.7533 58.1147 53.4971 57.6558 53.9556L52.9556 58.6558C52.4966 59.1147 51.7528 59.1147 51.2942 58.6558L43.9 51.2616L36.5053 58.6558C36.2824 58.8791 35.982 59 35.6746 59C35.5808 59 35.4853 58.9881 35.3914 58.9652C34.9915 58.8652 34.673 58.564 34.5517 58.1697L25.1514 27.6196C25.0227 27.2037 25.1354 26.7508 25.4432 26.4434C25.7505 26.1357 26.2042 26.0234 26.6193 26.1517L57.1698 35.5519C57.5641 35.6728 57.8653 35.9912 57.9653 36.3916C58.0644 36.7916 57.9472 37.2141 57.6554 37.5055L50.2615 44.9L57.6558 52.2943ZM55.1637 53.125L47.769 45.7308C47.31 45.2718 47.31 44.528 47.769 44.0694L54.6141 37.2244L28.0503 29.0504L36.2236 55.6139L43.0687 48.7688C43.2986 48.5393 43.5995 48.4246 43.9003 48.4246C44.2011 48.4246 44.5015 48.5393 44.731 48.7688L52.1252 56.1634L55.1637 53.125Z" fill="white"/>
<path d="M85.465 19.505H83.485C83.08 20.75 81.925 21.515 79.945 21.515C77.485 21.515 75.835 20.375 75.835 18.185C75.835 15.995 77.485 14.84 79.945 14.84C81.925 14.84 83.095 15.62 83.5 16.865H85.48C85.225 14.495 83.215 13.1 79.945 13.1C76.3 13.1 73.795 14.84 73.795 18.185C73.795 21.515 76.3 23.21 79.945 23.21C83.215 23.21 85.21 21.86 85.465 19.505ZM89.4215 21.35V13.31H87.4115V23H88.6265V23.015H95.8565V21.35H89.4215ZM97.9943 13.31V23H99.9893V13.31H97.9943ZM113.898 19.505H111.918C111.513 20.75 110.358 21.515 108.378 21.515C105.918 21.515 104.268 20.375 104.268 18.185C104.268 15.995 105.918 14.84 108.378 14.84C110.358 14.84 111.528 15.62 111.933 16.865H113.913C113.658 14.495 111.648 13.1 108.378 13.1C104.733 13.1 102.228 14.84 102.228 18.185C102.228 21.515 104.733 23.21 108.378 23.21C111.648 23.21 113.643 21.86 113.898 19.505ZM126.524 23L120.539 17.87L125.849 13.31H122.879L117.854 17.9V13.31H115.844V23H117.854V17.915L123.644 23H126.524ZM137.469 23.21C141.339 23.21 143.604 21.305 143.604 18.155C143.604 15.005 141.339 13.1 137.469 13.1C133.584 13.1 131.334 15.005 131.334 18.155C131.334 21.305 133.584 23.21 137.469 23.21ZM137.469 21.47C135.234 21.47 133.374 20.405 133.374 18.155C133.374 15.935 135.234 14.855 137.469 14.855C139.704 14.855 141.504 15.935 141.504 18.155C141.504 20.405 139.704 21.47 137.469 21.47ZM154.761 13.31V20.375L147.546 13.31H145.536V23H147.546V15.965L154.761 23H156.756V13.31H154.761ZM171.465 13.31H161.22V14.99H165.345V23H167.34V14.99H171.465V13.31ZM182.035 13.31V17.315H174.91V13.31H172.9V23H174.91V18.98H182.035V23H184.03V13.31H182.035ZM188.328 21.35V18.785H194.433V17.555H188.328V14.975H195.798V13.31H186.318V23H195.813V21.35H188.328ZM74.425 31.31V41H76.42V31.31H74.425ZM91.1833 31.31L86.0833 39.275L81.0133 31.31H79.0033V41H81.0133V34.85L84.9883 41H87.2083L91.1833 34.82V41H93.1783V31.31H91.1833ZM103.733 41H105.908L101.318 31.31H99.1428L94.5828 41H96.7428L97.7478 38.795H102.728L103.733 41ZM98.4228 37.31L100.238 33.32L102.053 37.31H98.4228ZM118.491 41L118.446 36.395H113.811V37.655L116.361 37.625C115.806 38.765 114.621 39.5 112.701 39.5C110.001 39.5 108.516 38.21 108.516 36.185C108.516 34.16 110.016 32.855 112.626 32.855C114.666 32.855 115.776 33.665 116.181 34.82H118.101C117.906 32.54 115.896 31.1 112.626 31.1C108.951 31.1 106.476 32.9 106.476 36.185C106.476 39.44 108.936 41.21 112.401 41.21C114.816 41.21 116.376 40.145 116.976 38.345C116.841 39.245 116.721 40.28 116.721 41H118.491ZM122.6 39.35V36.785H128.705V35.555H122.6V32.975H130.07V31.31H120.59V41H130.085V39.35H122.6ZM131.594 37.73C131.459 39.005 132.974 41.21 136.544 41.21C139.454 41.21 140.774 40.1 140.774 38.27C140.774 36.41 139.079 35.87 136.889 35.54C134.699 35.165 133.724 35 133.724 34.025C133.724 33.14 134.639 32.795 135.959 32.795C137.354 32.795 138.359 33.29 138.419 34.46H140.384C140.399 32.39 138.839 31.1 136.049 31.1C133.214 31.1 131.699 32.255 131.699 33.98C131.699 35.795 133.499 36.425 135.764 36.8C137.789 37.07 138.809 37.295 138.809 38.21C138.809 39.02 138.074 39.545 136.604 39.53C134.984 39.515 133.739 38.795 133.619 37.73H131.594ZM155.632 32.99V31.31H146.152V41H148.162V37.16H154.267V35.57H148.162V32.99H155.632ZM162.562 41.21C166.432 41.21 168.697 39.305 168.697 36.155C168.697 33.005 166.432 31.1 162.562 31.1C158.677 31.1 156.427 33.005 156.427 36.155C156.427 39.305 158.677 41.21 162.562 41.21ZM162.562 39.47C160.327 39.47 158.467 38.405 158.467 36.155C158.467 33.935 160.327 32.855 162.562 32.855C164.797 32.855 166.597 33.935 166.597 36.155C166.597 38.405 164.797 39.47 162.562 39.47ZM178.489 36.785C179.884 36.545 180.934 35.885 180.934 34.25C180.934 32.195 179.464 31.31 177.214 31.31H170.629V41H172.639V37.43H176.299C177.874 37.43 178.729 37.73 178.729 38.84L178.744 41H180.724V38.69C180.724 37.325 180.004 36.905 178.489 36.785ZM172.639 35.855V33.035H177.214C178.234 33.035 178.954 33.47 178.939 34.355C178.939 35.285 178.234 35.855 177.214 35.855H172.639ZM198.82 31.31L193.72 39.275L188.65 31.31H186.64V41H188.65V34.85L192.625 41H194.845L198.82 34.82V41H200.815V31.31H198.82ZM208.909 41.21C212.779 41.21 215.044 39.305 215.044 36.155C215.044 33.005 212.779 31.1 208.909 31.1C205.024 31.1 202.774 33.005 202.774 36.155C202.774 39.305 205.024 41.21 208.909 41.21ZM208.909 39.47C206.674 39.47 204.814 38.405 204.814 36.155C204.814 33.935 206.674 32.855 208.909 32.855C211.144 32.855 212.944 33.935 212.944 36.155C212.944 38.405 211.144 39.47 208.909 39.47ZM224.837 36.785C226.232 36.545 227.282 35.885 227.282 34.25C227.282 32.195 225.812 31.31 223.562 31.31H216.977V41H218.987V37.43H222.647C224.222 37.43 225.077 37.73 225.077 38.84L225.092 41H227.072V38.69C227.072 37.325 226.352 36.905 224.837 36.785ZM218.987 35.855V33.035H223.562C224.582 33.035 225.302 33.47 225.287 34.355C225.287 35.285 224.582 35.855 223.562 35.855H218.987ZM231.379 39.35V36.785H237.484V35.555H231.379V32.975H238.849V31.31H229.369V41H238.864V39.35H231.379ZM74.425 49.31V59H76.42V49.31H74.425ZM88.2283 49.31V56.375L81.0133 49.31H79.0033V59H81.0133V51.965L88.2283 59H90.2233V49.31H88.2283ZM102.004 50.99V49.31H92.5238V59H94.5338V55.16H100.639V53.57H94.5338V50.99H102.004ZM108.934 59.21C112.804 59.21 115.069 57.305 115.069 54.155C115.069 51.005 112.804 49.1 108.934 49.1C105.049 49.1 102.799 51.005 102.799 54.155C102.799 57.305 105.049 59.21 108.934 59.21ZM108.934 57.47C106.699 57.47 104.839 56.405 104.839 54.155C104.839 51.935 106.699 50.855 108.934 50.855C111.169 50.855 112.969 51.935 112.969 54.155C112.969 56.405 111.169 57.47 108.934 57.47ZM124.861 54.785C126.256 54.545 127.306 53.885 127.306 52.25C127.306 50.195 125.836 49.31 123.586 49.31H117.001V59H119.011V55.43H122.671C124.246 55.43 125.101 55.73 125.101 56.84L125.116 59H127.096V56.69C127.096 55.325 126.376 54.905 124.861 54.785ZM119.011 53.855V51.035H123.586C124.606 51.035 125.326 51.47 125.311 52.355C125.311 53.285 124.606 53.855 123.586 53.855H119.011ZM141.574 49.31L136.474 57.275L131.404 49.31H129.394V59H131.404V52.85L135.379 59H137.599L141.574 52.82V59H143.569V49.31H141.574ZM154.123 59H156.298L151.708 49.31H149.533L144.973 59H147.133L148.138 56.795H153.118L154.123 59ZM148.813 55.31L150.628 51.32L152.443 55.31H148.813ZM165.869 49.31H155.624V50.99H159.749V59H161.744V50.99H165.869V49.31ZM167.589 49.31V59H169.584V49.31H167.589ZM177.957 59.21C181.827 59.21 184.092 57.305 184.092 54.155C184.092 51.005 181.827 49.1 177.957 49.1C174.072 49.1 171.822 51.005 171.822 54.155C171.822 57.305 174.072 59.21 177.957 59.21ZM177.957 57.47C175.722 57.47 173.862 56.405 173.862 54.155C173.862 51.935 175.722 50.855 177.957 50.855C180.192 50.855 181.992 51.935 181.992 54.155C181.992 56.405 180.192 57.47 177.957 57.47ZM195.25 49.31V56.375L188.035 49.31H186.025V59H188.035V51.965L195.25 59H197.245V49.31H195.25ZM199.395 49.25V55.985H201.375V49.25H199.395ZM201.51 57.29H199.245V59H201.51V57.29Z" fill="white"/>
</svg>
