<svg width="357" height="355" viewBox="0 0 357 355" fill="none" xmlns="http://www.w3.org/2000/svg">
<path d="M223.014 183.601C220.748 182.448 220.802 179.19 223.132 178.142C233.752 173.339 244.271 168.286 254.667 162.92C272.366 153.682 289.795 143.828 306.507 132.108C309.105 130.278 307.471 126.169 304.326 126.623C284.13 129.582 264.693 134.388 245.484 139.829C234.243 143.068 223.105 146.628 212.087 150.43C209.674 151.269 207.397 148.937 208.252 146.544C209.742 142.352 211.21 138.168 212.554 133.914C216.49 121.333 220.056 108.609 222.595 95.4236C223.219 92.2044 219.049 90.384 217.125 93.0578C209.318 103.965 202.551 115.305 196.142 126.816C193.991 130.739 191.949 134.692 189.936 138.657C188.79 140.925 185.537 140.865 184.487 138.529C179.646 127.869 174.575 117.299 169.213 106.846C159.97 89.1183 150.111 71.6598 138.434 54.9004C136.624 52.2867 132.483 53.9332 132.962 57.0764C135.985 77.2779 140.809 96.7387 146.265 115.972C149.526 127.261 153.098 138.426 156.921 149.492C157.763 151.911 155.439 154.188 153.049 153.327C148.862 151.827 144.663 150.357 140.406 148.982C127.841 145.017 115.135 141.422 101.97 138.854C98.7553 138.224 96.9456 142.398 99.6178 144.331C110.519 152.171 121.849 158.971 133.35 165.413C137.27 167.574 141.219 169.627 145.18 171.651C147.446 172.804 147.392 176.062 145.062 177.109C134.43 181.942 123.889 187.003 113.465 192.357C95.7863 201.586 78.3777 211.432 61.67 223.102C59.0644 224.911 60.7151 229.062 63.8517 228.587C84.0102 225.595 103.426 220.796 122.614 215.364C133.856 212.125 144.994 208.565 156.011 204.763C158.425 203.924 160.701 206.256 159.846 208.65C158.357 212.841 156.896 217.046 155.544 221.28C151.596 233.89 148.017 246.643 145.494 259.869C144.871 263.089 149.033 264.888 150.965 262.235C158.792 251.32 165.593 239.943 172.015 228.402C174.153 224.508 176.203 220.576 178.196 216.619C179.342 214.352 182.594 214.411 183.644 216.748C188.457 227.395 193.519 237.944 198.894 248.368C208.145 266.116 218.012 283.596 229.739 300.36C231.57 302.965 235.669 301.335 235.211 298.184C232.222 277.945 227.39 258.463 221.925 239.209C218.673 227.94 215.108 216.796 211.294 205.751C210.452 203.332 212.775 201.055 215.166 201.916C219.332 203.424 223.523 204.874 227.751 206.236C240.345 210.214 253.08 213.822 266.287 216.373C269.501 217.003 271.29 212.837 268.639 210.896C257.73 203.035 246.362 196.202 234.831 189.747C230.941 187.599 227.013 185.537 223.06 183.534L223.014 183.601Z" fill="black"/>
<path d="M211.631 182.668C209.366 181.515 209.419 178.257 211.75 177.209C222.369 172.406 232.889 167.353 243.284 161.987C260.983 152.75 278.413 142.895 295.125 131.176C297.722 129.345 296.088 125.236 292.943 125.69C272.747 128.649 253.31 133.456 234.102 138.896C222.86 142.135 211.722 145.695 200.704 149.497C198.291 150.336 196.014 148.004 196.87 145.611C198.359 141.419 199.828 137.235 201.172 132.981C205.108 120.4 208.674 107.676 211.213 94.4908C211.836 91.2715 207.667 89.4511 205.742 92.1249C197.936 103.032 191.169 114.372 184.759 125.883C182.609 129.806 180.566 133.759 178.553 137.724C177.407 139.992 174.155 139.933 173.105 137.596C168.263 126.936 163.192 116.366 157.83 105.913C148.587 88.1854 138.729 70.727 127.052 53.9675C125.241 51.3538 121.101 53.0004 121.58 56.1436C124.602 76.345 129.426 95.8058 134.882 115.039C138.143 126.328 141.716 137.493 145.538 148.559C146.38 150.978 144.057 153.255 141.666 152.394C137.48 150.894 133.28 149.424 129.023 148.049C116.458 144.084 103.752 140.489 90.587 137.922C87.3727 137.291 85.563 141.466 88.2352 143.398C99.136 151.238 110.466 158.038 121.968 164.48C125.887 166.641 129.836 168.694 133.798 170.718C136.063 171.871 136.01 175.129 133.679 176.177C123.047 181.009 112.507 186.07 102.082 191.424C84.4037 200.653 66.9951 210.499 50.2874 222.169C47.6818 223.978 49.3325 228.129 52.469 227.654C72.6276 224.662 92.0436 219.864 111.232 214.431C122.473 211.192 133.611 207.632 144.629 203.83C147.042 202.992 149.319 205.323 148.463 207.717C146.974 211.908 145.514 216.113 144.161 220.347C140.213 232.957 136.634 245.71 134.112 258.937C133.489 262.156 137.65 263.955 139.583 261.302C147.41 250.387 154.21 239.01 160.632 227.469C162.77 223.575 164.821 219.644 166.813 215.687C167.959 213.419 171.212 213.478 172.261 215.815C177.074 226.462 182.137 237.011 187.511 247.435C196.763 265.184 206.63 282.663 218.356 299.427C220.188 302.032 224.286 300.402 223.828 297.251C220.839 277.012 216.007 257.53 210.542 238.276C207.29 227.008 203.725 215.863 199.911 204.819C199.07 202.399 201.393 200.123 203.783 200.984C207.949 202.492 212.14 203.941 216.368 205.303C228.962 209.281 241.698 212.889 254.904 215.44C258.119 216.07 259.907 211.904 257.256 209.963C246.347 202.102 234.979 195.269 223.449 188.814C219.558 186.666 215.63 184.604 211.677 182.601L211.631 182.668Z" fill="#FCF43D" stroke="black" stroke-width="2.35" stroke-linecap="round" stroke-linejoin="round"/>
</svg>
