<svg width="116" height="116" viewBox="0 0 116 116" fill="none" xmlns="http://www.w3.org/2000/svg">
<g filter="url(#filter0_d_54_295)">
<path d="M100.615 45.8975C75.4868 60.9002 71.9943 68.5557 77.1465 97.4254C77.362 98.6217 75.7565 99.2125 75.1189 98.1715C59.856 73.0222 52.1419 69.4824 23.1976 74.3845C21.9982 74.5896 21.3923 72.9857 22.4324 72.3589C47.5609 57.3562 51.0535 49.7007 45.9012 20.831C45.6857 19.6347 47.2912 19.0439 47.9289 20.0849C63.1917 45.2342 70.9058 48.774 99.8501 43.8719C101.05 43.6668 101.655 45.2707 100.615 45.8975Z" fill="black"/>
<path d="M93.6798 43.7293C68.5584 58.7272 65.0683 66.3827 70.2277 95.2571C70.4435 96.4537 68.8384 97.0441 68.2005 96.0028C52.9328 70.8465 45.2187 67.3043 16.2793 72.1994C15.08 72.4043 14.4737 70.8 15.5136 70.1734C40.635 55.1755 44.1251 47.5199 38.9657 18.6455C38.7499 17.449 40.355 16.8585 40.9929 17.8999C56.2606 43.0561 63.9747 46.5984 92.9141 41.7032C94.1134 41.4984 94.7196 43.1027 93.6798 43.7293Z" fill="#8F55FF"/>
<path d="M93.6798 43.7293C68.5584 58.7272 65.0683 66.3827 70.2277 95.2571C70.4435 96.4537 68.8383 97.0441 68.2005 96.0028C52.9328 70.8465 45.2187 67.3043 16.2793 72.1994C15.08 72.4043 14.4737 70.8 15.5136 70.1734C40.635 55.1755 44.1251 47.5199 38.9657 18.6455C38.7499 17.449 40.355 16.8585 40.9929 17.8999C56.2606 43.0561 63.9747 46.5984 92.9141 41.7032C94.1134 41.4984 94.7196 43.1027 93.6798 43.7293V43.7293Z" stroke="black" stroke-width="2.35" stroke-linecap="round" stroke-linejoin="round"/>
</g>
<defs>
<filter id="filter0_d_54_295" x="9.80188" y="16.1892" width="95.346" height="90.52" filterUnits="userSpaceOnUse" color-interpolation-filters="sRGB">
<feFlood flood-opacity="0" result="BackgroundImageFix"/>
<feColorMatrix in="SourceAlpha" type="matrix" values="0 0 0 0 0 0 0 0 0 0 0 0 0 0 0 0 0 0 127 0" result="hardAlpha"/>
<feOffset dy="4"/>
<feGaussianBlur stdDeviation="2"/>
<feComposite in2="hardAlpha" operator="out"/>
<feColorMatrix type="matrix" values="0 0 0 0 0 0 0 0 0 0 0 0 0 0 0 0 0 0 0.25 0"/>
<feBlend mode="normal" in2="BackgroundImageFix" result="effect1_dropShadow_54_295"/>
<feBlend mode="normal" in="SourceGraphic" in2="effect1_dropShadow_54_295" result="shape"/>
</filter>
</defs>
</svg>
