<svg width="318" height="510" viewBox="0 0 318 510" fill="none" xmlns="http://www.w3.org/2000/svg">
<path d="M133.407 268.53C130.398 266.806 130.946 262.086 134.365 260.624C149.95 253.919 165.431 246.85 180.784 239.323C206.937 226.364 232.802 212.503 257.931 195.923C261.838 193.333 260.144 187.34 255.669 187.922C226.927 191.724 198.981 198.223 171.262 205.646C155.033 210.069 138.902 214.96 122.904 220.205C119.399 221.362 116.546 217.929 118.093 214.482C120.789 208.444 123.455 202.417 125.957 196.284C133.301 178.149 140.147 159.798 145.621 140.754C146.962 136.105 141.381 133.367 138.295 137.195C125.768 152.812 114.635 169.081 103.979 185.606C100.395 191.239 96.9575 196.918 93.5595 202.615C91.6234 205.873 87.0725 205.709 85.9401 202.299C80.6998 186.736 75.1254 171.3 69.1258 156.024C58.7418 130.116 47.4554 104.583 33.5184 80.0184C31.3597 76.1878 25.3166 78.4743 25.5318 83.0402C26.8359 112.384 30.7735 140.698 35.6306 168.697C38.563 185.133 41.951 201.397 45.7033 217.523C46.532 221.048 42.9444 224.291 39.7181 222.986C34.0666 220.713 28.3934 218.482 22.6244 216.387C5.58588 210.34 -11.7053 204.826 -29.7886 200.791C-34.2033 199.801 -37.3462 205.805 -33.8807 208.67C-19.737 220.292 -4.84019 230.416 10.3482 240.026C15.5295 243.251 20.7674 246.321 26.0271 249.349C29.0357 251.073 28.4877 255.793 25.0688 257.255C9.46242 264.002 -6.04938 271.083 -21.4408 278.59C-47.5636 291.539 -73.398 305.388 -98.5145 321.896C-102.43 324.455 -100.718 330.509 -96.2525 329.897C-67.5579 326.045 -39.642 319.557 -11.9538 312.146C4.27597 307.723 20.407 302.832 36.4045 297.587C39.9094 296.429 42.7626 299.863 41.2161 303.31C38.5195 309.348 35.8619 315.405 33.3516 321.508C25.9856 339.685 19.1176 358.077 13.6611 377.182C12.32 381.832 17.8925 384.539 20.9872 380.741C33.5446 365.113 44.7295 348.791 55.4078 332.223C58.9703 326.632 62.4158 320.984 65.7835 315.299C67.7196 312.04 72.2705 312.204 73.4029 315.615C78.6043 331.159 84.1701 346.565 90.1914 361.798C100.584 387.737 111.879 413.301 125.885 437.872C128.074 441.691 134.057 439.428 133.872 434.85C132.62 405.453 128.674 377.109 123.808 349.079C120.884 332.673 117.505 316.44 113.761 300.345C112.932 296.82 116.52 293.576 119.746 294.881C125.368 297.166 131.032 299.367 136.762 301.442C153.84 307.509 171.17 313.041 189.314 317.054C193.728 318.044 196.841 312.051 193.406 309.175C179.254 297.523 164.309 287.349 149.082 277.72C143.94 274.513 138.732 271.432 133.481 268.435L133.407 268.53Z" fill="black"/>
<path d="M125.971 261.057C122.962 259.333 123.51 254.613 126.929 253.151C142.514 246.447 157.995 239.377 173.348 231.851C199.501 218.891 225.366 205.031 250.496 188.451C254.403 185.861 252.709 179.868 248.234 180.45C219.492 184.252 191.546 190.751 163.827 198.173C147.597 202.596 131.466 207.487 115.469 212.732C111.964 213.889 109.111 210.456 110.657 207.008C113.354 200.97 116.02 194.944 118.522 188.811C125.866 170.676 132.713 152.325 138.187 133.281C139.528 128.632 133.947 125.894 130.86 129.722C118.333 145.339 107.2 161.607 96.5436 178.133C92.9593 183.766 89.5223 189.444 86.1242 195.142C84.188 198.4 79.6371 198.236 78.5048 194.825C73.2646 179.262 67.6904 163.826 61.691 148.55C51.3073 122.642 40.0212 97.1084 26.0845 72.5441C23.9258 68.7135 17.8827 70.9999 18.0978 75.5658C19.4016 104.91 23.3388 133.224 28.1957 161.223C31.1279 177.659 34.5157 193.923 38.2678 210.048C39.0965 213.574 35.5089 216.817 32.2826 215.512C26.6311 213.239 20.9579 211.007 15.189 208.913C-1.84949 202.866 -19.1406 197.351 -37.2238 193.316C-41.6385 192.326 -44.7815 198.33 -41.316 201.195C-27.1725 212.817 -12.2758 222.941 2.91253 232.551C8.09371 235.777 13.3316 238.847 18.5913 241.875C21.5999 243.599 21.0518 248.319 17.6329 249.781C2.02645 256.527 -13.4854 263.608 -28.8769 271.115C-54.9998 284.063 -80.8344 297.913 -105.951 314.42C-109.867 316.979 -108.155 323.033 -103.689 322.421C-74.9945 318.569 -47.0785 312.082 -19.3902 304.671C-3.16047 300.248 12.9706 295.357 28.9682 290.113C32.4731 288.955 35.3262 292.389 33.7797 295.836C31.083 301.874 28.4254 307.931 25.915 314.033C18.5488 332.21 11.6806 350.603 6.22386 369.708C4.88272 374.357 10.4552 377.065 13.5499 373.267C26.1075 357.639 37.2925 341.317 47.971 324.749C51.5336 319.158 54.9792 313.51 58.3469 307.825C60.2831 304.566 64.834 304.731 65.9663 308.141C71.1675 323.685 76.7331 339.091 82.7543 354.325C93.1466 380.264 104.441 405.827 118.447 430.399C120.636 434.218 126.619 431.955 126.434 427.377C125.182 397.98 121.237 369.636 116.371 341.606C113.447 325.2 110.068 308.967 106.325 292.872C105.496 289.346 109.084 286.103 112.31 287.408C117.931 289.693 123.596 291.894 129.326 293.969C146.403 300.036 163.733 305.569 181.877 309.582C186.292 310.572 189.404 304.578 185.969 301.702C171.817 290.05 156.873 279.876 141.646 270.247C136.503 267.04 131.296 263.959 126.045 260.962L125.971 261.057Z" fill="#8F55FF" stroke="black" stroke-width="2.35" stroke-linecap="round" stroke-linejoin="round"/>
</svg>
