<svg width="101" height="126" viewBox="0 0 101 126" fill="none" xmlns="http://www.w3.org/2000/svg">
<path d="M86.8872 78.2937C88.731 78.4214 89.1876 76.4834 87.4789 75.7824C81.5415 73.3605 75.0189 70.9456 67.9416 68.6472C61.1136 66.4331 54.6386 64.626 48.6069 63.128C47.6945 62.9045 47.0923 62.1744 47.2472 61.4694C48.7715 54.7628 50.0834 47.5288 51.0459 39.7777C51.9416 32.5479 52.4396 25.625 52.628 19.0638C52.669 17.5564 49.9369 16.9126 49.29 18.2773C46.3063 24.6059 43.8648 31.0623 41.604 37.5613C39.2184 44.5423 37.1536 51.5904 35.3314 58.7042C35.1591 59.388 34.3068 59.7668 33.3994 59.57C26.8417 58.1611 20.2354 56.9112 13.594 55.8577C6.67548 54.7899 -0.289854 53.8731 -7.3435 53.3786C-9.18732 53.251 -9.64399 55.189 -7.93718 55.898C-1.40489 58.605 5.23697 60.8946 11.9043 63.0282C18.3174 65.0508 24.7761 66.8796 31.2728 68.5469C32.1726 68.7759 32.7555 69.4929 32.615 70.1842C31.0692 77.3631 29.7699 84.5916 28.7769 91.9007C27.8695 98.8465 27.1729 105.85 27.0415 112.979C27.013 114.481 29.7345 115.122 30.3796 113.766C33.4449 107.328 35.9488 100.75 38.2381 94.1302C40.6112 87.1548 42.6866 80.1092 44.4981 72.9929C44.6705 72.3091 45.5228 71.9303 46.4302 72.1271C52.9859 73.544 59.5835 74.7834 66.223 75.845C73.0546 76.9008 79.9098 77.8088 86.8746 78.2993L86.8872 78.2937Z" fill="black"/>
<path d="M81.2309 72.2049C83.0747 72.3325 83.5314 70.3945 81.8227 69.6936C75.8852 67.2717 69.3627 64.8568 62.2853 62.5583C55.4574 60.3442 48.9823 58.5371 42.9506 57.0391C42.0383 56.8156 41.4361 56.0856 41.591 55.3806C43.1152 48.6739 44.4271 41.4399 45.3896 33.6889C46.2853 26.4591 46.7834 19.5362 46.9717 12.975C47.0128 11.4675 44.2807 10.8237 43.6337 12.1884C40.65 18.5171 38.2085 24.9735 35.9477 31.4725C33.5621 38.4535 31.4973 45.5015 29.6752 52.6153C29.5028 53.2992 28.6505 53.6779 27.7431 53.4811C21.1855 52.0723 14.5791 50.8224 7.93778 49.7688C1.01923 48.701 -5.9461 47.7842 -12.9998 47.2897C-14.8436 47.1621 -15.3002 49.1001 -13.5934 49.8091C-7.06114 52.5161 -0.419284 54.8057 6.2481 56.9393C12.6611 58.9619 19.1198 60.7907 25.6166 62.458C26.5164 62.6871 27.0992 63.404 26.9588 64.0954C25.413 71.2743 24.1136 78.5027 23.1206 85.8118C22.2133 92.7576 21.5166 99.7616 21.3853 106.89C21.3568 108.392 24.0782 109.033 24.7233 107.677C27.7887 101.24 30.2925 94.6614 32.5819 88.0413C34.9549 81.0659 37.0303 74.0203 38.8419 66.9041C39.0143 66.2202 39.8665 65.8414 40.7739 66.0382C47.3297 67.4552 53.9273 68.6945 60.5667 69.7561C67.3983 70.8119 74.2536 71.7199 81.2184 72.2104L81.2309 72.2049Z" fill="white" stroke="black" stroke-width="2.35" stroke-linecap="round" stroke-linejoin="round"/>
</svg>
