<svg width="358" height="575" viewBox="0 0 358 575" fill="none" xmlns="http://www.w3.org/2000/svg">
<path d="M131.62 506.402C140.802 503.721 99.8897 364.026 99.8897 364.026L86.015 316.65L107.786 328.777C107.786 328.777 191.986 375.677 196.549 367.196C201.111 358.715 116.911 311.814 116.911 311.814L95.1401 299.687L141.836 286.051C141.836 286.051 279.528 245.84 276.8 236.525C274.072 227.21 136.38 267.421 136.38 267.421L89.684 281.057L101.481 259.128C101.481 259.128 147.106 174.314 138.686 169.624C130.266 164.934 84.6408 249.748 84.6408 249.748L72.8439 271.677L58.9692 224.302C58.9692 224.302 18.0573 84.6068 8.87597 87.288C-0.305411 89.9693 40.6064 229.664 40.6064 229.664L54.4812 277.04L32.7105 264.913C32.7105 264.913 -51.4898 218.013 -56.0524 226.494C-60.6149 234.975 23.5854 281.876 23.5854 281.876L45.3561 294.003L-1.34029 307.639C-1.34029 307.639 -139.032 347.85 -136.304 357.165C-133.576 366.48 4.11578 326.269 4.11578 326.269L50.8122 312.633L39.0153 334.562C39.0153 334.562 -6.61024 419.376 1.80978 424.066C10.2298 428.756 55.8554 343.942 55.8554 343.942L67.6522 322.013L81.527 369.388C81.527 369.388 122.439 509.083 131.62 506.402Z" fill="black"/>
<path d="M138.938 487.455C148.119 484.774 107.207 345.079 107.207 345.079L93.3321 297.703L115.103 309.83C115.103 309.83 199.303 356.73 203.866 348.249C208.428 339.767 124.228 292.867 124.228 292.867L102.457 280.74L149.154 267.103C149.154 267.103 286.845 226.893 284.117 217.578C281.389 208.263 143.697 248.474 143.697 248.474L97.0011 262.111L108.798 240.181C108.798 240.181 154.423 155.367 146.003 150.677C137.583 145.987 91.9578 230.801 91.9578 230.801L80.161 252.73L66.2861 205.355C66.2861 205.355 25.3739 65.66 16.1926 68.3413C7.01119 71.0226 47.9234 210.717 47.9234 210.717L61.7982 258.093L40.0275 245.966C40.0275 245.966 -44.1729 199.066 -48.7354 207.547C-53.298 216.029 30.9024 262.929 30.9024 262.929L52.6732 275.056L5.97684 288.693C5.97684 288.693 -131.715 328.903 -128.986 338.218C-126.258 347.533 11.433 307.323 11.433 307.323L58.1293 293.686L46.3325 315.615C46.3325 315.615 0.707162 400.429 9.1272 405.119C17.5472 409.809 63.1726 324.995 63.1726 324.995L74.9694 303.066L88.8442 350.442C88.8442 350.442 129.756 490.136 138.938 487.455Z" fill="#FCF43D" stroke="black" stroke-width="2.35" stroke-linecap="round" stroke-linejoin="round"/>
</svg>
