<svg width="73" height="70" viewBox="0 0 73 70" fill="none" xmlns="http://www.w3.org/2000/svg">
<g clip-path="url(#clip0_854_115423)">
<path d="M63.6637 47.7805C45.7599 47.9975 41.3826 51.056 34.2207 68.3786C33.9249 69.0971 32.9057 68.9111 32.9335 68.1436C33.6771 49.6492 30.943 45.2876 14.5182 38.808C13.8369 38.5406 14.0717 37.4772 14.8148 37.465C32.7186 37.248 37.0959 34.1895 44.2578 16.8669C44.5535 16.1484 45.5727 16.3345 45.5449 17.1019C44.8013 35.5963 47.5354 39.9579 63.9603 46.4375C64.6416 46.705 64.4067 47.7684 63.6637 47.7805Z" fill="black"/>
<path d="M60.7416 44.3471C42.8722 44.6034 38.4956 47.6761 31.3031 65.041C31.006 65.7613 29.9893 65.5771 30.019 64.8085C30.8088 46.2839 28.0913 41.9216 11.7151 35.4677C11.0359 35.2014 11.273 34.1358 12.0146 34.122C29.884 33.8657 34.2607 30.793 41.4532 13.4281C41.7503 12.7078 42.767 12.892 42.7373 13.6606C41.9475 32.1852 44.665 36.5475 61.0411 43.0014C61.7204 43.2677 61.4833 44.3333 60.7416 44.3471Z" fill="#8F55FF"/>
<path d="M60.7416 44.3471C42.8722 44.6034 38.4956 47.6761 31.3031 65.041C31.006 65.7613 29.9893 65.5771 30.019 64.8085C30.8088 46.2839 28.0913 41.9216 11.7151 35.4677C11.0359 35.2014 11.273 34.1358 12.0146 34.122C29.884 33.8657 34.2607 30.793 41.4532 13.4281C41.7503 12.7078 42.767 12.892 42.7373 13.6606C41.9475 32.1852 44.665 36.5475 61.0411 43.0014C61.7204 43.2677 61.4833 44.3333 60.7416 44.3471V44.3471Z" stroke="black" stroke-width="2.35" stroke-linecap="round" stroke-linejoin="round"/>
</g>
<defs>
<clipPath id="clip0_854_115423">
<rect width="69.725" height="66.0509" fill="white" transform="translate(0 3.18457) rotate(-2.61772)"/>
</clipPath>
</defs>
</svg>
