<svg width="76" height="75" viewBox="0 0 76 75" fill="none" xmlns="http://www.w3.org/2000/svg">
<g clip-path="url(#clip0_854_103619)">
<path d="M62.9194 40.2915C48.949 45.4486 46.4621 49.0969 46.2004 64.8517C46.1905 65.5048 45.3339 65.6407 45.1186 65.0234C39.9858 50.1247 36.4942 47.4211 21.6137 46.8467C20.9968 46.8239 20.8523 45.9138 21.4312 45.6972C35.4016 40.5402 37.8885 36.8919 38.1502 21.1371C38.1601 20.484 39.0167 20.348 39.232 20.9654C44.3648 35.8641 47.8564 38.5677 62.7369 39.1421C63.3538 39.1649 63.4983 40.075 62.9194 40.2915Z" fill="black"/>
<path d="M59.69 38.3789C45.7194 43.5359 43.2326 47.1842 42.9709 62.9389C42.961 63.592 42.1044 63.7279 41.889 63.1106C36.7562 48.2119 33.2646 45.5084 18.384 44.9339C17.7671 44.9112 17.6226 44.001 18.2014 43.7845C32.172 38.6275 34.6589 34.9792 34.9206 19.2245C34.9304 18.5714 35.787 18.4355 36.0024 19.0528C41.1352 33.9515 44.6269 36.655 59.5075 37.2295C60.1243 37.2522 60.2689 38.1624 59.69 38.3789Z" fill="#0071C6"/>
<path d="M59.69 38.3789C45.7194 43.5359 43.2326 47.1842 42.9709 62.9389C42.961 63.592 42.1044 63.7279 41.889 63.1106C36.7562 48.2119 33.2646 45.5084 18.384 44.9339C17.7671 44.9112 17.6226 44.001 18.2014 43.7845C32.172 38.6275 34.6589 34.9792 34.9206 19.2245C34.9304 18.5714 35.787 18.4355 36.0024 19.0528C41.1352 33.9515 44.6269 36.655 59.5075 37.2295C60.1243 37.2522 60.2689 38.1624 59.69 38.3789V38.3789Z" stroke="black" stroke-width="2.35" stroke-linecap="round" stroke-linejoin="round"/>
</g>
<defs>
<clipPath id="clip0_854_103619">
<rect width="57.3988" height="56.7838" fill="white" transform="translate(0 22.4297) rotate(-23.0026)"/>
</clipPath>
</defs>
</svg>
