<svg width="67" height="65" viewBox="0 0 67 65" fill="none" xmlns="http://www.w3.org/2000/svg">
<g clip-path="url(#clip0_854_151052)">
<path d="M55.4141 34.9053C42.9333 39.4116 40.6128 42.6173 39.8122 56.4859C39.7798 57.0608 39.0211 57.1784 38.8539 56.6345C34.8764 43.5066 31.9016 41.1182 18.8275 40.5768C18.2855 40.5553 18.1913 39.7537 18.7085 39.5645C31.1893 35.0582 33.5097 31.8525 34.3104 17.9839C34.3427 17.409 35.1014 17.2914 35.2686 17.8354C39.2461 30.9633 42.2209 33.3516 55.2951 33.893C55.837 33.9145 55.9313 34.7161 55.4141 34.9053Z" fill="black"/>
<path d="M52.5333 33.2121C40.0862 37.7376 37.7696 40.9531 36.9578 54.8588C36.9251 55.4352 36.1685 55.5536 36.0024 55.0083C32.0499 41.8481 29.0865 39.4551 16.0527 38.9199C15.5124 38.8987 15.4193 38.0951 15.9351 37.905C28.3822 33.3796 30.6988 30.1641 31.5106 16.2584C31.5434 15.682 32.2999 15.5636 32.4661 16.1089C36.4186 29.2691 39.3819 31.6621 52.4157 32.1972C52.956 32.2185 53.0492 33.0221 52.5333 33.2121Z" fill="white"/>
<path d="M52.5333 33.2121C40.0862 37.7376 37.7696 40.9531 36.9578 54.8588C36.9251 55.4352 36.1685 55.5536 36.0024 55.0083C32.0499 41.8481 29.0865 39.4551 16.0527 38.9199C15.5124 38.8987 15.4193 38.0951 15.9351 37.905C28.3822 33.3796 30.6988 30.1641 31.5106 16.2584C31.5434 15.682 32.2999 15.5636 32.4661 16.1089C36.4186 29.2691 39.3819 31.6621 52.4157 32.1972C52.956 32.2185 53.0492 33.0221 52.5333 33.2121V33.2121Z" stroke="black" stroke-width="2.35" stroke-linecap="round" stroke-linejoin="round"/>
</g>
<defs>
<clipPath id="clip0_854_151052">
<rect width="51.6729" height="48.9501" fill="white" transform="translate(0 19.1694) rotate(-21.7759)"/>
</clipPath>
</defs>
</svg>
