<svg width="82" height="82" viewBox="0 0 82 82" fill="none" xmlns="http://www.w3.org/2000/svg">
<path d="M70.0948 50.9073C52.1384 53.3215 48.2392 57.0063 43.8726 75.7187C43.6928 76.4947 42.6382 76.4278 42.5407 75.6342C40.266 56.5006 36.8057 52.3443 19.2413 47.6825C18.5129 47.4905 18.5751 46.3668 19.3199 46.2634C37.2763 43.8492 41.1755 40.1644 45.5421 21.452C45.7219 20.676 46.7765 20.7429 46.874 21.5364C49.1487 40.67 52.609 44.8263 70.1734 49.4882C70.9018 49.6802 70.8396 50.8039 70.0948 50.9073Z" fill="black"/>
<path d="M66.7731 47.7722C48.8082 50.1781 44.9084 53.8594 40.5467 72.561C40.367 73.3365 39.3118 73.2692 39.214 72.476C36.9308 53.3509 33.4671 49.1952 15.8917 44.5285C15.1629 44.3363 15.2247 43.2132 15.9698 43.1102C33.9347 40.7043 37.8345 37.023 42.1962 18.3214C42.3759 17.5459 43.4311 17.6132 43.5289 18.4064C45.8121 37.5315 49.2757 41.6872 66.8512 46.3539C67.58 46.5461 67.5182 47.6692 66.7731 47.7722Z" fill="white"/>
<path d="M66.7731 47.7722C48.8082 50.1781 44.9084 53.8594 40.5467 72.561C40.367 73.3365 39.3118 73.2692 39.214 72.476C36.9308 53.3509 33.4671 49.1952 15.8917 44.5285C15.1629 44.3363 15.2247 43.2132 15.9698 43.1102C33.9347 40.7043 37.8345 37.023 42.1962 18.3214C42.3759 17.5459 43.4311 17.6132 43.5289 18.4064C45.8121 37.5315 49.2757 41.6872 66.8512 46.3539C67.58 46.5461 67.5182 47.6692 66.7731 47.7722V47.7722Z" stroke="black" stroke-width="2.35" stroke-linecap="round" stroke-linejoin="round"/>
</svg>
