<svg width="89" height="89" viewBox="0 0 89 89" fill="none" xmlns="http://www.w3.org/2000/svg">
<path d="M62.5605 64.7444L44.4279 53.7758C44.2315 53.6561 43.9844 53.6714 43.7903 53.806L26.2 66.4672C25.6849 66.8356 25.0509 66.2456 25.3865 65.71L36.7984 47.2988C36.923 47.0993 36.9137 46.8524 36.7838 46.6615L24.5488 29.367C24.1929 28.8606 24.7985 28.2118 25.3259 28.5345L43.4584 39.5031C43.6548 39.6228 43.9019 39.6075 44.0961 39.4729L61.6863 26.8118C62.2015 26.4433 62.8354 27.0333 62.4998 27.5689L51.0879 45.9802C50.9634 46.1796 50.9726 46.4265 51.1025 46.6174L63.3338 63.9085C63.6897 64.4149 63.0842 65.0637 62.5568 64.741L62.5605 64.7444Z" fill="black"/>
<path d="M62.8225 60.2298L44.6899 49.2612C44.4935 49.1415 44.2464 49.1567 44.0523 49.2914L26.462 61.9525C25.9469 62.321 25.313 61.731 25.6485 61.1954L37.0605 42.7841C37.185 42.5847 37.1757 42.3378 37.0458 42.1468L24.8145 24.8558C24.4586 24.3494 25.0642 23.7006 25.5916 24.0233L43.7241 34.9919C43.9205 35.1116 44.1676 35.0963 44.3618 34.9616L61.952 22.3005C62.4671 21.932 63.1011 22.5221 62.7655 23.0577L51.3536 41.4689C51.2291 41.6684 51.2383 41.9152 51.3682 42.1062L63.5995 59.3973C63.9554 59.9037 63.3499 60.5524 62.8225 60.2298Z" fill="#FF8B13" stroke="black" stroke-width="2.6" stroke-linecap="round" stroke-linejoin="round"/>
</svg>
