<svg width="184" height="181" viewBox="0 0 184 181" fill="none" xmlns="http://www.w3.org/2000/svg">
<path d="M154.649 71.154C153.839 68.562 113.735 81.8136 113.735 81.8136L100.134 86.3077L103.541 79.9542C103.541 79.9542 116.719 55.3811 114.255 54.1733C111.791 52.9654 98.6141 77.5385 98.6141 77.5385L95.207 83.8921L91.0855 70.7091C91.0855 70.7091 78.9326 31.8371 76.2585 32.7207C73.5843 33.6044 85.7371 72.4764 85.7371 72.4764L89.8586 85.6593L83.4888 82.5363C83.4888 82.5363 58.8529 70.4579 57.5352 72.9152C56.2174 75.3726 80.8534 87.4509 80.8534 87.4509L87.2232 90.5739L73.6224 95.068C73.6224 95.068 33.5182 108.32 34.3286 110.912C35.139 113.504 75.2431 100.252 75.2431 100.252L88.8439 95.7579L85.4368 102.112C85.4368 102.112 72.2595 126.685 74.7231 127.892C77.1867 129.1 90.364 104.527 90.364 104.527L93.7711 98.1736L97.8926 111.357C97.8926 111.357 110.045 150.229 112.72 149.345C115.394 148.461 103.241 109.589 103.241 109.589L99.1194 96.4064L105.489 99.5293C105.489 99.5293 130.125 111.608 131.443 109.15C132.761 106.693 108.125 94.6147 108.125 94.6147L101.755 91.4918L115.356 86.9976C115.356 86.9976 155.46 73.746 154.649 71.154Z" fill="black"/>
<path d="M149.313 69.2129C148.502 66.6209 108.398 79.8726 108.398 79.8726L94.7974 84.3667L98.2045 78.0132C98.2045 78.0132 111.382 53.4401 108.918 52.2323C106.455 51.0244 93.2773 75.5975 93.2773 75.5975L89.8702 81.9511L85.7488 68.7681C85.7488 68.7681 73.596 29.8961 70.9218 30.7797C68.2476 31.6634 80.4004 70.5354 80.4004 70.5354L84.5219 83.7183L78.1521 80.5954C78.1521 80.5954 53.5162 68.517 52.1985 70.9743C50.8807 73.4316 75.5166 85.51 75.5166 85.51L81.8864 88.6329L68.2856 93.1271C68.2856 93.1271 28.1815 106.379 28.9918 108.971C29.8022 111.563 69.9063 98.3111 69.9063 98.3111L83.5071 93.817L80.1 100.171C80.1 100.171 66.9227 124.744 69.3863 125.951C71.8499 127.159 85.0272 102.586 85.0272 102.586L88.4343 96.2327L92.5558 109.416C92.5558 109.416 104.709 148.288 107.383 147.404C110.057 146.52 97.9041 107.648 97.9041 107.648L93.7827 94.4654L100.152 97.5883C100.152 97.5883 124.788 109.667 126.106 107.209C127.424 104.752 102.788 92.6737 102.788 92.6737L96.4181 89.5508L110.019 85.0566C110.019 85.0566 150.123 71.8049 149.313 69.2129Z" fill="#0071C6" stroke="black" stroke-width="2.6" stroke-linecap="round" stroke-linejoin="round"/>
</svg>
