<svg width="137" height="132" viewBox="0 0 137 132" fill="none" xmlns="http://www.w3.org/2000/svg">
<path d="M122.343 79.759C122.902 77.5369 88.2072 69.4009 88.2072 69.4009L76.4407 66.6417L81.6918 63.5714C81.6918 63.5714 102.001 51.6965 100.76 49.7419C99.52 47.7873 79.2109 59.6621 79.2109 59.6621L73.9598 62.7325L76.8031 51.4309C76.8031 51.4309 85.1868 18.1063 82.8733 17.5638C80.5598 17.0213 72.1761 50.3458 72.1761 50.3458L69.3328 61.6474L66.1256 56.5936C66.1256 56.5936 53.7213 37.0476 51.6904 38.235C49.6595 39.4225 62.0638 58.9686 62.0638 58.9686L65.271 64.0224L53.5045 61.2632C53.5045 61.2632 18.8092 53.1272 18.2502 55.3493C17.6912 57.5714 52.3865 65.7074 52.3865 65.7074L64.1529 68.4666L58.9019 71.537C58.9019 71.537 38.5928 83.4118 39.8332 85.3664C41.0737 87.321 61.3827 75.4462 61.3827 75.4462L66.6338 72.3758L63.7906 83.6775C63.7906 83.6775 55.4069 117.002 57.7204 117.545C60.0339 118.087 68.4176 84.7625 68.4176 84.7625L71.2608 73.4609L74.4681 78.5147C74.4681 78.5147 86.8723 98.0608 88.9032 96.8733C90.9341 95.6858 78.5299 76.1397 78.5299 76.1397L75.3226 71.0859L87.0891 73.8451C87.0891 73.8451 121.784 81.9812 122.343 79.759Z" fill="black"/>
<path d="M119.359 76.0113C119.918 73.7892 85.2223 65.6533 85.2223 65.6533L73.4558 62.894L78.7069 59.8237C78.7069 59.8237 99.016 47.9489 97.7756 45.9943C96.5351 44.0397 76.226 55.9145 76.226 55.9145L70.975 58.9848L73.8182 47.6832C73.8182 47.6832 82.202 14.3587 79.8884 13.8162C77.5749 13.2736 69.1912 46.5982 69.1912 46.5982L66.3479 57.8998L63.1407 52.846C63.1407 52.846 50.7364 33.3 48.7055 34.4874C46.6746 35.6749 59.0789 55.221 59.0789 55.221L62.2861 60.2748L50.5196 57.5156C50.5196 57.5156 15.8243 49.3796 15.2653 51.6017C14.7062 53.8238 49.4016 61.9598 49.4016 61.9598L61.168 64.719L55.917 67.7893C55.917 67.7893 35.6079 79.6642 36.8483 81.6188C38.0887 83.5734 58.3978 71.6985 58.3978 71.6985L63.6489 68.6282L60.8056 79.9298C60.8056 79.9298 52.4219 113.254 54.7354 113.797C57.0489 114.339 65.4327 81.0149 65.4327 81.0149L68.2759 69.7132L71.4831 74.767C71.4831 74.767 83.8874 94.3131 85.9183 93.1256C87.9492 91.9381 75.545 72.3921 75.545 72.3921L72.3377 67.3383L84.1042 70.0975C84.1042 70.0975 118.8 78.2335 119.359 76.0113Z" fill="#0071C6" stroke="black" stroke-width="2.6" stroke-linecap="round" stroke-linejoin="round"/>
</svg>
