<svg width="76" height="78" viewBox="0 0 76 78" fill="none" xmlns="http://www.w3.org/2000/svg">
<path d="M65.1669 38.4435L44.8926 44.612C44.6723 44.6782 44.5187 44.8724 44.4892 45.1068L42.163 66.6546C42.0931 67.2841 41.2306 67.3618 41.0561 66.7543L34.9763 45.9639C34.911 45.738 34.7211 45.58 34.4922 45.5491L13.4492 43.1033C12.8345 43.0299 12.7562 42.146 13.3486 41.969L33.6229 35.8004C33.8432 35.7342 33.9968 35.5401 34.0263 35.3057L36.3525 13.7579C36.4224 13.1284 37.2849 13.0506 37.4594 13.6581L43.5392 34.4486C43.6045 34.6745 43.7944 34.8325 44.0233 34.8633L65.0614 37.3096C65.676 37.383 65.7544 38.267 65.162 38.4439L65.1669 38.4435Z" fill="black"/>
<path d="M61.9822 35.233L41.7079 41.4015C41.4876 41.4678 41.3339 41.6619 41.3045 41.8963L38.9782 63.4441C38.9084 64.0736 38.0459 64.1513 37.8714 63.5438L31.7915 42.7534C31.7263 42.5275 31.5364 42.3695 31.3075 42.3386L10.2694 39.8924C9.6548 39.819 9.57643 38.935 10.1688 38.758L30.4432 32.5895C30.6634 32.5233 30.8171 32.3292 30.8466 32.0948L33.1728 10.5469C33.2426 9.91742 34.1052 9.8397 34.2796 10.4472L40.3595 31.2376C40.4247 31.4635 40.6147 31.6215 40.8435 31.6524L61.8816 34.0987C62.4962 34.172 62.5746 35.056 61.9822 35.233Z" fill="#FCF43D" stroke="black" stroke-width="2.6" stroke-linecap="round" stroke-linejoin="round"/>
</svg>
