<svg width="108" height="118" viewBox="0 0 108 118" fill="none" xmlns="http://www.w3.org/2000/svg">
<g clip-path="url(#clip0_854_89224)">
<path d="M87.981 63.3842C66.0035 71.497 62.0914 77.2363 61.6796 102.021C61.6641 103.048 60.3166 103.262 59.9778 102.291C51.9032 78.8531 46.4104 74.6 23.0013 73.6963C22.0309 73.6605 21.8036 72.2288 22.7142 71.8881C44.6917 63.7754 48.6038 58.0361 49.0155 33.2516C49.031 32.2242 50.3786 32.0103 50.7174 32.9815C58.7919 56.4193 64.2847 60.6723 87.6939 61.576C88.6643 61.6118 88.8916 63.0436 87.981 63.3842Z" fill="black"/>
<path d="M82.9007 60.3754C60.923 68.488 57.0108 74.2273 56.5992 99.0116C56.5837 100.039 55.2361 100.253 54.8973 99.2817C46.8227 75.8441 41.3298 71.591 17.9205 70.6873C16.9501 70.6515 16.7228 69.2198 17.6334 68.8791C39.611 60.7665 43.5232 55.0272 43.9349 30.2429C43.9504 29.2155 45.298 29.0016 45.6368 29.9728C53.7114 53.4104 59.2042 57.6635 82.6135 58.5672C83.5839 58.603 83.8113 60.0347 82.9007 60.3754Z" fill="#FCF43D"/>
<path d="M82.9007 60.3754C60.923 68.488 57.0109 74.2273 56.5992 99.0116C56.5837 100.039 55.2361 100.253 54.8973 99.2817C46.8227 75.8441 41.3298 71.591 17.9205 70.6873C16.9501 70.6515 16.7228 69.2198 17.6334 68.8791C39.611 60.7665 43.5232 55.0272 43.9349 30.2429C43.9504 29.2155 45.298 29.0016 45.6368 29.9728C53.7114 53.4104 59.2042 57.6635 82.6135 58.5672C83.5839 58.603 83.8113 60.0347 82.9007 60.3754V60.3754Z" stroke="black" stroke-width="2.35" stroke-linecap="round" stroke-linejoin="round"/>
</g>
<defs>
<clipPath id="clip0_854_89224">
<rect width="90.2963" height="89.3288" fill="white" transform="translate(-11 35.2852) rotate(-23.0026)"/>
</clipPath>
</defs>
</svg>
