<svg width="71" height="72" viewBox="0 0 71 72" fill="none" xmlns="http://www.w3.org/2000/svg">
<path d="M50.2154 52.4395L35.6609 43.6354C35.5033 43.5393 35.305 43.5516 35.1491 43.6596L21.03 53.8223C20.6165 54.1181 20.1076 53.6445 20.377 53.2146L29.537 38.4364C29.6369 38.2764 29.6295 38.0782 29.5253 37.9249L19.7046 24.0432C19.419 23.6367 19.905 23.116 20.3283 23.375L34.8828 32.1791C35.0404 32.2752 35.2387 32.2629 35.3946 32.1548L49.5137 21.9922C49.9272 21.6964 50.4361 22.17 50.1667 22.5999L41.0067 37.378C40.9067 37.5381 40.9142 37.7363 41.0184 37.8896L50.8361 51.7686C51.1218 52.1751 50.6358 52.6958 50.2124 52.4368L50.2154 52.4395Z" fill="black"/>
<path d="M50.4257 48.8157L35.8713 40.0116C35.7136 39.9155 35.5153 39.9277 35.3594 40.0358L21.2403 50.1985C20.8268 50.4943 20.318 50.0207 20.5873 49.5908L29.7473 34.8126C29.8473 34.6525 29.8398 34.4544 29.7356 34.3011L19.9179 20.4221C19.6322 20.0156 20.1182 19.4949 20.5416 19.7539L35.096 28.558C35.2537 28.6541 35.452 28.6418 35.6078 28.5338L49.727 18.3711C50.1405 18.0753 50.6493 18.5489 50.38 18.9788L41.22 33.7569C41.12 33.917 41.1274 34.1152 41.2317 34.2685L51.0494 48.1475C51.3351 48.554 50.849 49.0747 50.4257 48.8157Z" fill="white" stroke="black" stroke-width="2.3" stroke-linecap="round" stroke-linejoin="round"/>
</svg>
