<svg width="183" height="179" viewBox="0 0 183 179" fill="none" xmlns="http://www.w3.org/2000/svg">
<path d="M76.3131 102.44C76.8551 101.478 76.0214 100.355 74.906 100.566C69.8156 101.517 64.6991 102.355 59.5501 103.054C50.7583 104.209 41.911 105.081 32.8607 105.127C31.4519 105.131 31.0239 103.294 32.2892 102.675C40.427 98.7139 48.7484 95.5851 57.1448 92.7337C62.0722 91.084 67.0419 89.5719 72.0279 88.1739C73.1216 87.8698 73.373 86.4941 72.4617 85.871C70.8687 84.7778 69.2854 83.6822 67.7299 82.531C63.1445 79.1176 58.659 75.563 54.4344 71.5937C53.4017 70.6254 54.4743 68.96 55.8474 69.4165C61.4325 71.2896 66.7447 73.5703 71.969 75.9994C73.737 76.8356 75.4728 77.7088 77.2011 78.5937C78.1876 79.1009 79.3643 78.2763 79.165 77.2022C78.2752 72.2885 77.4919 67.3501 76.8443 62.38C75.8009 53.9145 75.0503 45.3906 75.1404 36.6609C75.1506 35.3021 77.0787 34.8527 77.6886 36.067C81.629 43.8573 84.7244 51.8347 87.5312 59.8892C89.1574 64.6312 90.6382 69.4071 92.0028 74.2101C92.299 75.2616 93.7189 75.4811 94.3795 74.5899C95.5385 73.0322 96.7094 71.4815 97.9255 69.9497C101.538 65.4612 105.294 61.0669 109.475 56.9175C110.496 55.9032 112.201 56.9112 111.705 58.2456C109.671 63.6737 107.219 68.8452 104.616 73.9342C103.72 75.6567 102.786 77.3487 101.841 79.0336C101.299 79.9954 102.132 81.1182 103.248 80.9074C108.35 79.9639 113.476 79.123 118.633 78.4127C127.415 77.2603 136.252 76.3899 145.289 76.3283C146.695 76.315 147.128 78.1702 145.86 78.7802C137.728 82.7201 129.416 85.8466 121.029 88.6957C116.102 90.3454 111.132 91.8575 106.146 93.2555C105.052 93.5596 104.801 94.9353 105.712 95.5584C107.305 96.6517 108.891 97.7565 110.444 98.8984C115.041 102.319 119.539 105.881 123.768 109.869C124.8 110.837 123.726 112.493 122.355 112.046C116.76 110.175 111.426 107.889 106.19 105.453C104.434 104.624 102.7 103.76 100.982 102.873C99.9951 102.366 98.8185 103.19 99.0177 104.265C99.9151 109.167 100.696 114.096 101.332 119.059C102.378 127.534 103.13 136.067 103.023 144.81C103.003 146.171 101.094 146.616 100.475 145.404C96.5128 137.609 93.4153 129.622 90.6063 121.559C88.9823 116.826 87.5036 112.059 86.1412 107.266C85.845 106.214 84.4251 105.995 83.7645 106.886C82.6152 108.441 81.4421 109.983 80.2335 111.503C76.614 116.003 72.8499 120.409 68.6492 124.563C67.6291 125.577 65.9329 124.567 66.4192 123.235C68.4514 117.797 70.9085 112.605 73.5197 107.504C74.4081 105.793 75.332 104.104 76.2797 102.428L76.3131 102.44Z" fill="black"/>
<path d="M80.2498 99.3017C80.7917 98.3399 79.958 97.2171 78.8426 97.4279C73.7522 98.3784 68.6358 99.2171 63.4867 99.9159C54.6949 101.07 45.8477 101.943 36.7973 101.988C35.3885 101.992 34.9605 100.156 36.2259 99.5365C44.3636 95.5757 52.6851 92.4469 61.0814 89.5955C66.0088 87.9458 70.9785 86.4337 75.9646 85.0357C77.0582 84.7316 77.3097 83.3559 76.3983 82.7329C74.8053 81.6396 73.222 80.544 71.6666 79.3929C67.0812 75.9794 62.5957 72.4248 58.371 68.4555C57.3384 67.4872 58.411 65.8218 59.7841 66.2783C65.3691 68.1514 70.6814 70.4322 75.9056 72.8612C77.6737 73.6974 79.4095 74.5707 81.1378 75.4555C82.1243 75.9628 83.3009 75.1381 83.1017 74.064C82.2118 69.1504 81.4286 64.2119 80.781 59.2418C79.7375 50.7763 78.9869 42.2524 79.0771 33.5227C79.0873 32.1639 81.0153 31.7145 81.6252 32.9288C85.5657 40.7191 88.661 48.6965 91.4678 56.751C93.094 61.493 94.5749 66.2689 95.9394 71.0719C96.2356 72.1234 97.6556 72.3429 98.3162 71.4518C99.4752 69.894 100.646 68.3433 101.862 66.8115C105.474 62.3231 109.231 57.9287 113.412 53.7793C114.432 52.765 116.138 53.773 115.642 55.1074C113.608 60.5355 111.156 65.707 108.552 70.796C107.656 72.5185 106.723 74.2105 105.777 75.8954C105.235 76.8572 106.069 77.98 107.184 77.7692C112.287 76.8257 117.413 75.9849 122.569 75.2745C131.351 74.1221 140.189 73.2517 149.225 73.1901C150.632 73.1768 151.064 75.032 149.797 75.642C141.664 79.5819 133.353 82.7084 124.966 85.5575C120.039 87.2072 115.069 88.7194 110.083 90.1174C108.989 90.4214 108.738 91.7971 109.649 92.4202C111.242 93.5135 112.828 94.6183 114.381 95.7602C118.978 99.1807 123.475 102.742 127.704 106.73C128.737 107.699 127.662 109.355 126.291 108.908C120.697 107.037 115.363 104.751 110.127 102.315C108.37 101.486 106.637 100.622 104.918 99.7349C103.932 99.2276 102.755 100.052 102.954 101.126C103.852 106.028 104.633 110.958 105.269 115.921C106.314 124.395 107.067 132.929 106.96 141.672C106.94 143.033 105.031 143.478 104.411 142.266C100.449 134.471 97.3519 126.484 94.5429 118.42C92.9189 113.688 91.4402 108.921 90.0778 104.127C89.7817 103.076 88.3617 102.856 87.7011 103.748C86.5518 105.303 85.3787 106.844 84.1701 108.365C80.5506 112.865 76.7866 117.271 72.5858 121.425C71.5657 122.439 69.8695 121.429 70.3558 120.096C72.388 114.659 74.8451 109.467 77.4564 104.366C78.3447 102.655 79.2687 100.965 80.2163 99.2899L80.2498 99.3017Z" fill="#8F55FF" stroke="black" stroke-width="2.6" stroke-linecap="round" stroke-linejoin="round"/>
</svg>
