<svg width="114" height="115" viewBox="0 0 114 115" fill="none" xmlns="http://www.w3.org/2000/svg">
<path d="M83.4848 81.6651L58.3306 69.5743C58.058 69.4421 57.736 69.4933 57.4985 69.6944L36.0369 88.5115C35.4081 89.0596 34.5026 88.3661 34.8749 87.6216L47.5117 62.0461C47.6498 61.769 47.6065 61.4465 47.4122 61.2125L29.1909 40.0849C28.6605 39.4659 29.3724 38.5391 30.1045 38.8955L55.2587 50.9863C55.5313 51.1185 55.8533 51.0673 56.0908 50.8663L77.5524 32.0491C78.1812 31.501 79.0867 32.1945 78.7144 32.939L66.0776 58.5145C65.9395 58.7917 65.9828 59.1141 66.1771 59.3481L84.3931 80.4717C84.9236 81.0907 84.2116 82.0175 83.4796 81.6611L83.4848 81.6651Z" fill="black"/>
<path d="M83.2585 75.7148L58.1043 63.624C57.8317 63.4918 57.5097 63.543 57.2722 63.744L35.8106 82.5612C35.1818 83.1093 34.2763 82.4158 34.6486 81.6713L47.2854 56.0958C47.4235 55.8186 47.3802 55.4962 47.1858 55.2622L28.9699 34.1386C28.4394 33.5196 29.1513 32.5928 29.8834 32.9492L55.0376 45.04C55.3102 45.1722 55.6322 45.121 55.8697 44.92L77.3313 26.1028C77.9601 25.5547 78.8656 26.2482 78.4933 26.9927L65.8565 52.5682C65.7184 52.8454 65.7617 53.1678 65.9561 53.4018L84.172 74.5254C84.7025 75.1444 83.9906 76.0712 83.2585 75.7148Z" fill="#0071C6" stroke="black" stroke-width="2.6" stroke-linecap="round" stroke-linejoin="round"/>
</svg>
