<svg width="152" height="148" viewBox="0 0 152 148" fill="none" xmlns="http://www.w3.org/2000/svg">
<path d="M88.6974 84.2631C88.1906 83.474 88.8426 82.4809 89.7989 82.6049C94.1626 83.1612 98.5429 83.6212 102.944 83.9611C110.457 84.5087 118.003 84.8146 125.681 84.4087C126.875 84.3429 127.148 82.7643 126.045 82.3012C118.949 79.3416 111.738 77.0966 104.477 75.0905C100.217 73.9333 95.9286 72.8949 91.6313 71.954C90.6889 71.7498 90.4081 70.5955 91.1505 70.0223C92.4478 69.0169 93.7368 68.0101 94.9994 66.9575C98.7206 63.8375 102.35 60.6027 105.738 57.0291C106.566 56.1572 105.575 54.7974 104.433 55.252C99.7884 57.1147 95.3951 59.3097 91.0837 61.6262C89.6253 62.4221 88.1961 63.2479 86.7738 64.0832C85.962 64.5618 84.9237 63.9202 85.0399 62.9995C85.5534 58.7886 85.9752 54.562 86.2805 50.3151C86.7499 43.0845 86.968 35.8187 86.4631 28.4196C86.3877 27.2677 84.7305 26.9813 84.2728 28.041C81.3134 34.8412 79.08 41.7587 77.0949 48.7273C75.9486 52.8288 74.9271 56.9518 74.0056 61.0921C73.8061 61.9984 72.6126 62.2543 72.0086 61.5309C70.9492 60.2667 69.8801 59.0091 68.7735 57.7697C65.4899 54.1404 62.0883 50.598 58.3385 47.2843C57.4236 46.4742 56.0263 47.4128 56.5125 48.5201C58.5043 53.0237 60.8374 57.2892 63.2954 61.4772C64.1397 62.8941 65.0146 64.2832 65.8991 65.6657C66.406 66.4548 65.754 67.448 64.7977 67.3239C60.4243 66.7743 56.0357 66.3128 51.6276 65.9634C44.1231 65.4172 36.5854 65.1128 28.9189 65.5042C27.7253 65.5619 27.4497 67.1566 28.5546 67.6116C35.6449 70.5538 42.8474 72.7973 50.0998 74.8019C54.3597 75.9591 58.6486 76.9976 62.9458 77.9385C63.8882 78.1426 64.169 79.297 63.4267 79.8702C62.1294 80.8755 60.839 81.8904 59.5777 82.935C55.8468 86.0615 52.2075 89.3029 48.8167 92.8926C47.9885 93.7645 48.9813 95.1162 50.122 94.6697C54.7749 92.8084 59.1862 90.6082 63.5073 88.2852C64.956 87.4958 66.3838 86.678 67.7978 85.8414C68.6096 85.3627 69.6479 86.0044 69.5317 86.9251C69.0113 91.1264 68.5908 95.3451 68.2953 99.5854C67.8245 106.824 67.605 114.098 68.1252 121.508C68.2089 122.661 69.8495 122.945 70.3154 121.886C73.2929 115.081 75.5277 108.156 77.5142 101.179C78.6591 97.0855 79.6792 92.9705 80.5993 88.8382C80.7989 87.9319 81.9924 87.676 82.5963 88.3994C83.6474 89.6621 84.7179 90.9118 85.8175 92.1417C89.1081 95.7804 92.5166 99.3323 96.283 102.649C97.1979 103.459 98.5869 102.519 98.1091 101.413C96.1187 96.9015 93.78 92.6185 91.315 88.421C90.4777 87.0136 89.6111 85.6259 88.7252 84.2514L88.6974 84.2631Z" fill="black"/>
<path d="M85.2047 81.7953C84.6979 81.0063 85.3498 80.0131 86.3061 80.1372C90.6698 80.6934 95.0502 81.1534 99.4513 81.4933C106.964 82.041 114.51 82.3468 122.188 81.9409C123.383 81.8751 123.656 80.2965 122.552 79.8334C115.456 76.8738 108.245 74.6288 100.985 72.6228C96.7248 71.4656 92.4358 70.4271 88.1386 69.4862C87.1962 69.2821 86.9154 68.1277 87.6577 67.5545C88.9551 66.5492 90.2441 65.5423 91.5067 64.4897C95.2279 61.3697 98.8575 58.1349 102.245 54.5613C103.074 53.6894 102.082 52.3296 100.94 52.7842C96.2956 54.6469 91.9024 56.8419 87.591 59.1584C86.1326 59.9544 84.7034 60.7802 83.2811 61.6154C82.4693 62.094 81.431 61.4524 81.5472 60.5317C82.0607 56.3209 82.4825 52.0942 82.7878 47.8474C83.2571 40.6167 83.4753 33.3509 82.9703 25.9518C82.895 24.7999 81.2378 24.5135 80.7801 25.5732C77.8207 32.3735 75.5872 39.2909 73.6022 46.2596C72.4558 50.361 71.4344 54.484 70.5129 58.6243C70.3133 59.5306 69.1198 59.7865 68.5159 59.0631C67.4565 57.7989 66.3873 56.5413 65.2808 55.3019C61.9972 51.6726 58.5956 48.1302 54.8458 44.8165C53.9309 44.0064 52.5336 44.945 53.0198 46.0523C55.0115 50.5559 57.3447 54.8214 59.8027 59.0095C60.647 60.4263 61.5219 61.8154 62.4064 63.198C62.9133 63.987 62.2613 64.9802 61.305 64.8561C56.9316 64.3065 52.5429 63.845 48.1349 63.4956C40.6304 62.9494 33.0927 62.6451 25.4261 63.0364C24.2326 63.0942 23.9569 64.6888 25.0618 65.1438C32.1522 68.086 39.3547 70.3295 46.6071 72.3342C50.8669 73.4914 55.1559 74.5298 59.4531 75.4707C60.3955 75.6749 60.6763 76.8292 59.934 77.4024C58.6366 78.4078 57.3462 79.4226 56.085 80.4672C52.3541 83.5937 48.7148 86.8351 45.324 90.4248C44.4957 91.2967 45.4886 92.6484 46.6292 92.2019C51.2822 90.3406 55.6935 88.1405 60.0146 85.8174C61.4633 85.028 62.8911 84.2103 64.3051 83.3736C65.1168 82.895 66.1552 83.5366 66.0389 84.4573C65.5185 88.6587 65.0981 92.8773 64.8025 97.1176C64.3318 104.356 64.1122 111.63 64.6325 119.04C64.7161 120.193 66.3567 120.477 66.8227 119.419C69.8001 112.613 72.035 105.688 74.0214 98.7111C75.1664 94.6177 76.1865 90.5027 77.1066 86.3704C77.3061 85.4641 78.4996 85.2083 79.1036 85.9316C80.1547 87.1944 81.2252 88.444 82.3248 89.6739C85.6154 93.3126 89.0238 96.8645 92.7903 100.181C93.7052 100.991 95.0942 100.051 94.6164 98.9453C92.626 94.4337 90.2873 90.1507 87.8223 85.9532C86.9849 84.5458 86.1184 83.1582 85.2325 81.7836L85.2047 81.7953Z" fill="#FF8B13" stroke="black" stroke-width="2.6" stroke-linecap="round" stroke-linejoin="round"/>
</svg>
