<svg width="142" height="138" viewBox="0 0 142 138" fill="none" xmlns="http://www.w3.org/2000/svg">
<path d="M125.836 62.6662C125.563 60.3912 90.2536 65.2113 90.2536 65.2113L78.279 66.8459L82.0834 62.0996C82.0834 62.0996 96.7973 43.7429 94.9395 42.3617C93.0817 40.9805 78.3678 59.3372 78.3678 59.3372L74.5634 64.0835L73.1735 52.5129C73.1735 52.5129 69.0753 18.3952 66.7208 18.7166C64.3664 19.038 68.4646 53.1557 68.4646 53.1557L69.8545 64.7263L65.051 61.1551C65.051 61.1551 46.4729 47.3431 45.0015 49.1788C43.5301 51.0145 62.1082 64.8265 62.1082 64.8265L66.9117 68.3977L54.9371 70.0324C54.9371 70.0324 19.6281 74.8525 19.9014 77.1274C20.1747 79.4024 55.4836 74.5824 55.4836 74.5824L67.4583 72.9477L63.6538 77.694C63.6538 77.694 48.9399 96.0507 50.7977 97.4319C52.6555 98.8131 67.3695 80.4564 67.3695 80.4564L71.1739 75.7101L72.5637 87.2807C72.5637 87.2807 76.662 121.398 79.0164 121.077C81.3708 120.756 77.2726 86.6379 77.2726 86.6379L75.8827 75.0673L80.6862 78.6385C80.6862 78.6385 99.2643 92.4505 100.736 90.6148C102.207 88.7791 83.629 74.9671 83.629 74.9671L78.8255 71.3959L90.8001 69.7612C90.8001 69.7612 126.109 64.9412 125.836 62.6662Z" fill="black"/>
<path d="M121.707 60.2344C121.434 57.9594 86.1251 62.7795 86.1251 62.7795L74.1505 64.4142L77.9549 59.6679C77.9549 59.6679 92.6688 41.3111 90.811 39.9299C88.9532 38.5488 74.2393 56.9055 74.2393 56.9055L70.4349 61.6518L69.045 50.0812C69.045 50.0812 64.9468 15.9635 62.5924 16.2849C60.238 16.6063 64.3361 50.724 64.3361 50.724L65.726 62.2946L60.9225 58.7234C60.9225 58.7234 42.3445 44.9115 40.8731 46.7471C39.4017 48.5828 57.9797 62.3948 57.9797 62.3948L62.7832 65.966L50.8086 67.6007C50.8086 67.6007 15.4996 72.4208 15.7729 74.6958C16.0461 76.9708 51.3551 72.1507 51.3551 72.1507L63.3297 70.516L59.5253 75.2623C59.5253 75.2623 44.8114 93.619 46.6692 95.0002C48.527 96.3814 63.2409 78.0247 63.2409 78.0247L67.0453 73.2784L68.4352 84.849C68.4352 84.849 72.5334 118.967 74.8878 118.645C77.2422 118.324 73.1441 84.2062 73.1441 84.2062L71.7542 72.6356L76.5577 76.2068C76.5577 76.2068 95.1357 90.0188 96.6071 88.1831C98.0785 86.3474 79.5005 72.5354 79.5005 72.5354L74.697 68.9642L86.6716 67.3295C86.6716 67.3295 121.981 62.5094 121.707 60.2344Z" fill="#FCF43D" stroke="black" stroke-width="2.6" stroke-linecap="round" stroke-linejoin="round"/>
</svg>
