<svg width="136" height="131" viewBox="0 0 136 131" fill="none" xmlns="http://www.w3.org/2000/svg">
<path d="M122.975 63.1151C122.859 60.8267 87.3016 63.195 87.3016 63.195L75.2426 63.9981L79.366 59.5261C79.366 59.5261 95.3134 42.2302 93.5555 40.7239C91.7976 39.2176 75.8502 56.5135 75.8502 56.5135L71.7268 60.9856L71.1399 49.3466C71.1399 49.3466 69.4094 15.0272 67.0384 15.1851C64.6674 15.343 66.3979 49.6624 66.3979 49.6624L66.9848 61.3014L62.4396 57.4067C62.4396 57.4067 44.8605 42.3438 43.2658 44.0734C41.671 45.803 59.2501 60.8659 59.2501 60.8659L63.7953 64.7606L51.7363 65.5638C51.7363 65.5638 16.1787 67.932 16.294 70.2205C16.4094 72.5089 51.9671 70.1406 51.9671 70.1406L64.0261 69.3375L59.9027 73.8095C59.9027 73.8095 43.9553 91.1054 45.7132 92.6117C47.4711 94.118 63.4185 76.8221 63.4185 76.8221L67.5419 72.35L68.1288 83.989C68.1288 83.989 69.8592 118.308 72.2303 118.15C74.6013 117.993 72.8708 83.6732 72.8708 83.6732L72.2839 72.0342L76.8291 75.9289C76.8291 75.9289 94.4082 90.9918 96.0029 89.2622C97.5977 87.5326 80.0186 72.4697 80.0186 72.4697L75.4734 68.575L87.5324 67.7719C87.5324 67.7719 123.09 65.4036 122.975 63.1151Z" fill="black"/>
<path d="M119.024 60.4041C118.909 58.1156 83.351 60.4839 83.351 60.4839L71.292 61.2871L75.4154 56.8151C75.4154 56.8151 91.3628 39.5191 89.6049 38.0129C87.847 36.5066 71.8996 53.8025 71.8996 53.8025L67.7762 58.2745L67.1893 46.6356C67.1893 46.6356 65.4589 12.3162 63.0879 12.4741C60.7169 12.632 62.4473 46.9514 62.4473 46.9514L63.0342 58.5904L58.489 54.6957C58.489 54.6957 40.9099 39.6328 39.3152 41.3624C37.7204 43.092 55.2995 58.1549 55.2995 58.1549L59.8447 62.0496L47.7857 62.8528C47.7857 62.8528 12.228 65.2211 12.3434 67.5095C12.4588 69.798 48.0165 67.4297 48.0165 67.4297L60.0755 66.6265L55.9521 71.0985C55.9521 71.0985 40.0047 88.3944 41.7626 89.9007C43.5205 91.407 59.4679 74.1111 59.4679 74.1111L63.5913 69.6391L64.1781 81.2781C64.1781 81.2781 65.9086 115.597 68.2796 115.439C70.6506 115.282 68.9201 80.9622 68.9201 80.9622L68.3333 69.3232L72.8785 73.2179C72.8785 73.2179 90.4575 88.2808 92.0523 86.5512C93.647 84.8216 76.068 69.7587 76.068 69.7587L71.5228 65.864L83.5817 65.0608C83.5817 65.0608 119.139 62.6925 119.024 60.4041Z" fill="#FF8B13" stroke="black" stroke-width="2.6" stroke-linecap="round" stroke-linejoin="round"/>
</svg>
