<svg width="132" height="127" viewBox="0 0 132 127" fill="none" xmlns="http://www.w3.org/2000/svg">
<path d="M119.82 74.9336C120.28 72.6889 85.2584 66.0972 85.2584 66.0972L73.3813 63.8616L78.4913 60.5618C78.4913 60.5618 98.2546 47.7993 96.9288 45.9016C95.6031 44.0038 75.8397 56.7663 75.8397 56.7663L70.7298 60.0661L73.0698 48.6497C73.0698 48.6497 79.9697 14.9866 77.6344 14.547C75.2991 14.1075 68.3992 47.7706 68.3992 47.7706L66.0592 59.187L62.6314 54.2802C62.6314 54.2802 49.3738 35.3025 47.3974 36.5788C45.4211 37.855 58.6787 56.8327 58.6787 56.8327L62.1066 61.7395L50.2294 59.504C50.2294 59.504 15.2079 52.9122 14.7478 55.1569C14.2877 57.4016 49.3093 63.9934 49.3093 63.9934L61.1864 66.2289L56.0764 69.5287C56.0764 69.5287 36.3131 82.2912 37.6388 84.1889C38.9646 86.0867 58.7279 73.3243 58.7279 73.3243L63.8379 70.0244L61.4979 81.4408C61.4979 81.4408 54.598 115.104 56.9332 115.543C59.2685 115.983 66.1684 82.3199 66.1684 82.3199L68.5084 70.9035L71.9363 75.8103C71.9363 75.8103 85.1939 94.788 87.1702 93.5117C89.1465 92.2355 75.889 73.2578 75.889 73.2578L72.4611 68.351L84.3382 70.5865C84.3382 70.5865 119.36 77.1783 119.82 74.9336Z" fill="black"/>
<path d="M116.672 71.3216C117.132 69.077 82.1105 62.4852 82.1105 62.4852L70.2334 60.2497L75.3434 56.9499C75.3434 56.9499 95.1067 44.1874 93.781 42.2897C92.4552 40.3919 72.6919 53.1544 72.6919 53.1544L67.5819 56.4542L69.9219 45.0378C69.9219 45.0378 76.8218 11.3747 74.4866 10.9351C72.1513 10.4956 65.2514 44.1587 65.2514 44.1587L62.9113 55.5751L59.4835 50.6683C59.4835 50.6683 46.2259 31.6907 44.2496 32.9669C42.2732 34.2432 55.5308 53.2208 55.5308 53.2208L58.9587 58.1276L47.0815 55.8921C47.0815 55.8921 12.06 49.3004 11.5999 51.5451C11.1398 53.7898 46.1613 60.3815 46.1613 60.3815L58.0385 62.617L52.9285 65.9168C52.9285 65.9168 33.1651 78.6793 34.4909 80.5771C35.8166 82.4748 55.58 69.7124 55.58 69.7124L60.69 66.4125L58.35 77.8289C58.35 77.8289 51.45 111.492 53.7853 111.932C56.1205 112.371 63.0205 78.708 63.0205 78.708L65.3605 67.2916L68.7884 72.1984C68.7884 72.1984 82.0459 91.1761 84.0223 89.8998C85.9986 88.6236 72.7411 69.6459 72.7411 69.6459L69.3132 64.7391L81.1903 66.9746C81.1903 66.9746 116.212 73.5663 116.672 71.3216Z" fill="#FF8B13" stroke="black" stroke-width="2.6" stroke-linecap="round" stroke-linejoin="round"/>
</svg>
