<svg width="119" height="118" viewBox="0 0 119 118" fill="none" xmlns="http://www.w3.org/2000/svg">
<g clip-path="url(#clip0_854_111741)">
<path d="M98.0542 59.2C77.8042 69.3229 74.655 75.2505 76.8875 99.1006C76.9815 100.089 75.7098 100.437 75.2814 99.5405C65.0404 77.8838 59.3134 74.381 36.7322 75.9951C35.7964 76.0636 35.4262 74.7124 36.2647 74.2887C56.5147 64.1658 59.6639 58.2382 57.4314 34.3881C57.3374 33.3996 58.6091 33.0513 59.0375 33.9483C69.2785 55.6049 75.0055 59.1077 97.5867 57.4936C98.5225 57.4251 98.8927 58.7763 98.0542 59.2Z" fill="black"/>
<path d="M92.8553 56.8488C72.6052 66.9717 69.4559 72.8992 71.6884 96.7491C71.7825 97.7376 70.5108 98.0859 70.0823 97.189C59.8413 75.5325 54.1142 72.0297 31.5329 73.6438C30.597 73.7123 30.2269 72.3612 31.0654 71.9374C51.3155 61.8146 54.4648 55.887 52.2323 32.0371C52.1382 31.0486 53.4099 30.7003 53.8384 31.5972C64.0794 53.2537 69.8065 56.7565 92.3878 55.1424C93.3236 55.0739 93.6938 56.4251 92.8553 56.8488V56.8488Z" fill="white"/>
<path d="M92.8553 56.8488C72.6052 66.9717 69.4559 72.8992 71.6884 96.7491C71.7825 97.7376 70.5108 98.0859 70.0823 97.189C59.8413 75.5325 54.1142 72.0297 31.5329 73.6438C30.597 73.7123 30.2269 72.3612 31.0654 71.9374C51.3155 61.8146 54.4648 55.887 52.2323 32.0371C52.1382 31.0486 53.4099 30.7003 53.8384 31.5972C64.0794 53.2537 69.8065 56.7565 92.3878 55.1424C93.3236 55.0739 93.6938 56.4251 92.8553 56.8488V56.8488Z" stroke="black" stroke-width="2.35" stroke-linecap="round" stroke-linejoin="round"/>
</g>
<defs>
<clipPath id="clip0_854_111741">
<rect width="87.2596" height="86.3247" fill="white" transform="translate(0 42.7056) rotate(-29.3018)"/>
</clipPath>
</defs>
</svg>
