<svg width="227" height="227" viewBox="0 0 227 227" fill="none" xmlns="http://www.w3.org/2000/svg">
<path d="M204.167 92.7756C203.173 88.9118 145.465 103.807 145.465 103.807L125.894 108.859L131.111 99.9798C131.111 99.9798 151.288 65.6404 147.864 63.6109C144.441 61.5814 124.264 95.9208 124.264 95.9208L119.047 104.8L113.991 85.1483C113.991 85.1483 99.0819 27.2038 95.2339 28.197C91.3859 29.1903 106.295 87.1348 106.295 87.1348L111.351 106.786L102.499 101.538C102.499 101.538 68.265 81.2434 66.2473 84.6774C64.2295 88.1113 98.4638 108.406 98.4638 108.406L107.315 113.654L87.7444 118.705C87.7444 118.705 30.0364 133.601 31.0306 137.464C32.0247 141.328 89.7327 126.433 89.7327 126.433L109.304 121.381L104.087 130.26C104.087 130.26 83.9095 164.6 87.333 166.629C90.7564 168.659 110.934 134.319 110.934 134.319L116.151 125.44L121.207 145.092C121.207 145.092 136.115 203.036 139.964 202.043C143.812 201.05 128.903 143.105 128.903 143.105L123.847 123.454L132.698 128.701C132.698 128.701 166.932 148.996 168.95 145.563C170.968 142.129 136.734 121.834 136.734 121.834L127.882 116.586L147.453 111.535C147.453 111.535 205.161 96.6393 204.167 92.7756V92.7756Z" fill="black"/>
<path d="M196.488 89.4402C195.494 85.5764 137.786 100.472 137.786 100.472L118.215 105.523L123.432 96.6444C123.432 96.6444 143.609 62.305 140.185 60.2755C136.762 58.246 116.585 92.5854 116.585 92.5854L111.368 101.464L106.312 81.8129C106.312 81.8129 91.4027 23.8684 87.5547 24.8617C83.7067 25.8549 98.6155 83.7994 98.6155 83.7994L103.672 103.451L94.8201 98.2031C94.8201 98.2031 60.5858 77.908 58.5681 81.342C56.5503 84.7759 90.7846 105.071 90.7846 105.071L99.6362 110.318L80.0652 115.37C80.0652 115.37 22.3572 130.265 23.3514 134.129C24.3455 137.993 82.0535 123.098 82.0535 123.098L101.624 118.046L96.4075 126.925C96.4075 126.925 76.2303 161.264 79.6538 163.294C83.0772 165.323 103.254 130.984 103.254 130.984L108.471 122.105L113.527 141.756C113.527 141.756 128.436 199.701 132.284 198.707C136.132 197.714 121.224 139.77 121.224 139.77L116.167 120.119L125.019 125.366C125.019 125.366 159.253 145.661 161.271 142.227C163.289 138.793 129.054 118.498 129.054 118.498L120.203 113.251L139.774 108.199C139.774 108.199 197.482 93.3039 196.488 89.4402V89.4402Z" fill="#FCF43D" stroke="black" stroke-width="2.35" stroke-linecap="round" stroke-linejoin="round"/>
</svg>
