<svg width="118" height="117" viewBox="0 0 118 117" fill="none" xmlns="http://www.w3.org/2000/svg">
<path d="M97.6719 42.9974L72.5986 62.7585C72.3256 62.9721 72.2241 63.331 72.3231 63.6796L81.9657 95.5219C82.2447 96.4532 81.067 97.0318 80.4544 96.2644L59.3346 70.0607C59.1063 69.7755 58.7418 69.6544 58.3983 69.7348L27.0587 77.6883C26.1422 77.9179 25.4999 76.7059 26.2345 76.1332L51.3079 56.372C51.5808 56.1585 51.6823 55.7996 51.5833 55.4509L41.9408 23.6086C41.6617 22.6774 42.8394 22.0988 43.452 22.8662L64.5719 49.0699C64.8002 49.355 65.1647 49.4762 65.5081 49.3957L96.8409 41.4456C97.7575 41.216 98.3997 42.428 97.6651 43.0008L97.6719 42.9974Z" fill="black"/>
<path d="M91.2228 40.2203L66.1503 59.9833C65.8774 60.1969 65.7759 60.5558 65.8749 60.9045L75.5174 92.7473C75.7965 93.6786 74.6188 94.2572 74.0062 93.4898L52.8869 67.2864C52.6585 67.0012 52.2941 66.8801 51.9506 66.9606L20.6189 74.9126C19.7024 75.1422 19.0601 73.9303 19.7947 73.3575L44.8671 53.5944C45.14 53.3808 45.2415 53.0219 45.1425 52.6732L35.5 20.8304C35.221 19.8992 36.3986 19.3205 37.0112 20.0879L58.1306 46.2913C58.3589 46.5765 58.7234 46.6976 59.0669 46.6171L90.3986 38.6651C91.3151 38.4355 91.9573 39.6474 91.2228 40.2203V40.2203Z" fill="white" stroke="black" stroke-width="2.35" stroke-linecap="round" stroke-linejoin="round"/>
</svg>
