<svg width="163" height="231" viewBox="0 0 163 231" fill="none" xmlns="http://www.w3.org/2000/svg">
<path d="M159.665 124.146L75.8844 141.96C74.9744 142.15 74.2916 142.866 74.0967 143.781L57.7257 228.011C57.2398 230.471 53.7354 230.501 53.2286 228.049L35.4467 144.106C35.2567 143.194 34.5419 142.51 33.6287 142.314L-50.4592 125.909C-52.9145 125.422 -52.9439 121.911 -50.497 121.403L33.2836 103.59C34.1936 103.399 34.8763 102.683 35.0713 101.768L51.4423 17.5385C51.9281 15.0784 55.4326 15.049 55.9393 17.5007L73.7213 101.444C73.9113 102.356 74.626 103.04 75.5393 103.235L159.607 119.641C162.062 120.128 162.092 123.639 159.645 124.146L159.665 124.146Z" fill="black"/>
<path d="M147.86 110.463L64.079 128.277C63.169 128.467 62.4862 129.183 62.2913 130.098L45.9203 214.328C45.4344 216.788 41.93 216.818 41.4232 214.366L23.6413 130.423C23.4513 129.511 22.7365 128.827 21.8233 128.632L-62.2443 112.226C-64.6996 111.739 -64.7291 108.228 -62.2821 107.72L21.4984 89.9066C22.4084 89.7163 23.0912 89.0002 23.2861 88.0852L39.6572 3.85535C40.143 1.39527 43.6474 1.36587 44.1542 3.81762L61.9361 87.7609C62.1261 88.6727 62.8409 89.3568 63.7541 89.5521L147.822 105.958C150.277 106.444 150.307 109.956 147.86 110.463Z" fill="#FF8B13" stroke="black" stroke-width="2.35" stroke-linecap="round" stroke-linejoin="round"/>
</svg>
