<svg width="218" height="281" viewBox="0 0 218 281" fill="none" xmlns="http://www.w3.org/2000/svg">
<path d="M104.912 166.453C103.831 164.529 105.44 162.2 107.629 162.567C117.616 164.215 127.653 165.635 137.75 166.768C154.99 168.625 172.333 169.906 190.056 169.495C192.814 169.424 193.614 165.668 191.124 164.48C175.106 156.883 158.746 150.987 142.245 145.659C132.562 142.581 122.799 139.784 113.006 137.221C110.858 136.664 110.337 133.882 112.109 132.565C115.205 130.254 118.283 127.939 121.305 125.513C130.213 118.32 138.922 110.846 147.112 102.544C149.114 100.518 146.979 97.1935 144.299 98.1977C133.402 102.316 123.047 107.247 112.868 112.474C109.423 114.272 106.042 116.143 102.676 118.038C100.755 119.124 98.434 117.513 98.8018 115.319C100.442 105.283 101.873 95.2029 103.037 85.0657C104.904 67.8025 106.196 50.4369 105.838 32.6998C105.789 29.9388 102.005 29.1328 100.836 31.6346C93.2819 47.6869 87.3869 64.0724 82.0586 80.5985C78.973 90.3266 76.1728 100.115 73.6008 109.953C73.0428 112.106 70.2668 112.632 68.9547 110.857C66.6527 107.756 64.3276 104.669 61.9143 101.624C54.7478 92.7027 47.3003 83.9808 39.0259 75.7804C37.0073 73.7758 33.6878 75.9194 34.6869 78.6038C38.7837 89.5225 43.6924 99.8965 48.8971 110.094C50.6873 113.545 52.5508 116.932 54.4373 120.304C55.5186 122.228 53.9094 124.557 51.7209 124.19C41.7102 122.557 31.6548 121.133 21.5425 119.977C4.32167 118.123 -13.002 116.846 -30.6979 117.224C-33.4526 117.276 -34.2606 121.07 -31.7659 122.239C-15.7591 129.794 0.581958 135.685 17.0638 141.009C26.7469 144.088 36.51 146.884 46.3027 149.448C48.4506 150.005 48.9716 152.787 47.2 154.104C44.1034 156.415 41.0218 158.748 38.0041 161.156C29.0732 168.363 20.3407 175.852 12.1428 184.193C10.1408 186.218 12.28 189.524 14.9551 188.539C25.8716 184.425 36.2685 179.483 46.4709 174.241C49.8926 172.458 53.2693 170.605 56.6161 168.707C58.5373 167.621 60.8586 169.231 60.4908 171.426C58.8358 181.438 57.4091 191.5 56.2676 201.622C54.3967 218.904 53.1005 236.289 53.493 254.053C53.5603 256.818 57.3071 257.616 58.4951 255.118C66.0909 239.055 71.9898 222.65 77.3223 206.105C80.4037 196.396 83.1999 186.626 85.7678 176.808C86.3258 174.655 89.1018 174.129 90.414 175.904C92.697 179.001 95.0261 182.069 97.4245 185.091C104.606 194.035 112.068 202.78 120.381 210.989C122.399 212.993 125.7 210.846 124.72 208.165C120.627 197.228 115.707 186.811 110.488 176.59C108.713 173.163 106.868 169.78 104.978 166.427L104.912 166.453Z" fill="black"/>
<path d="M97.1379 160.293C96.0566 158.368 97.6658 156.04 99.8543 156.406C109.842 158.055 119.878 159.474 129.976 160.608C147.216 162.465 164.558 163.746 182.281 163.334C185.04 163.264 185.84 159.507 183.349 158.319C167.332 150.722 150.971 144.827 134.471 139.499C124.787 136.42 115.024 133.624 105.232 131.06C103.084 130.503 102.563 127.721 104.334 126.404C107.431 124.094 110.509 121.779 113.53 119.353C122.438 112.16 131.148 104.686 139.337 96.3835C141.339 94.3581 139.204 91.0331 136.525 92.0373C125.628 96.1551 115.273 101.086 105.093 106.314C101.649 108.112 98.2679 109.983 94.902 111.878C92.9808 112.963 90.6596 111.353 91.0274 109.159C92.6674 99.123 94.0982 89.0425 95.2628 78.9053C97.1296 61.6421 98.4218 44.2765 98.0633 26.5394C98.015 23.7784 94.2301 22.9724 93.0611 25.4742C85.5074 41.5265 79.6125 57.912 74.2842 74.4381C71.1986 84.1662 68.3984 93.955 65.8264 103.792C65.2684 105.946 62.4924 106.471 61.1803 104.697C58.8783 101.595 56.5532 98.5089 54.1399 95.4635C46.9734 86.5423 39.5259 77.8203 31.2515 69.62C29.2329 67.6154 25.9134 69.759 26.9125 72.4434C31.0093 83.3621 35.918 93.7361 41.1227 103.934C42.9129 107.385 44.7764 110.772 46.6629 114.143C47.7442 116.068 46.135 118.396 43.9465 118.03C33.9358 116.397 23.8804 114.973 13.7681 113.816C-3.45274 111.963 -20.7764 110.686 -38.4724 111.064C-41.227 111.115 -42.035 114.91 -39.5403 116.079C-23.5335 123.633 -7.19245 129.525 9.28941 134.849C18.9725 137.927 28.7356 140.724 38.5283 143.288C40.6762 143.845 41.1972 146.627 39.4256 147.944C36.329 150.254 33.2474 152.588 30.2297 154.995C21.2988 162.203 12.5663 169.692 4.3684 178.032C2.3664 180.058 4.50556 183.364 7.18071 182.379C18.0971 178.265 28.4941 173.323 38.6965 168.08C42.1182 166.297 45.4949 164.445 48.8417 162.546C50.7629 161.461 53.0842 163.071 52.7164 165.265C51.0614 175.278 49.6346 185.339 48.4932 195.461C46.6223 212.744 45.3261 230.128 45.7185 247.893C45.7858 250.658 49.5327 251.456 50.7207 248.958C58.3165 232.895 64.2154 216.49 69.5479 199.945C72.6293 190.236 75.4255 180.466 77.9934 170.648C78.5514 168.494 81.3274 167.969 82.6396 169.743C84.9225 172.841 87.2517 175.908 89.6501 178.93C96.8315 187.875 104.294 196.62 112.606 204.828C114.625 206.833 117.925 204.685 116.945 202.005C112.853 191.067 107.933 180.651 102.713 170.43C100.938 167.002 99.0937 163.62 97.2031 160.267L97.1379 160.293Z" fill="#8F55FF" stroke="black" stroke-width="2.35" stroke-linecap="round" stroke-linejoin="round"/>
</svg>
