<svg width="236" height="335" viewBox="0 0 236 335" fill="none" xmlns="http://www.w3.org/2000/svg">
<path d="M108.049 183.446C105.881 181.854 106.525 178.561 109.159 177.936C121.166 175.056 133.114 171.903 144.988 168.41C165.222 162.361 185.285 155.636 204.932 146.885C207.987 145.517 207.014 141.045 203.633 140.916C181.913 140.133 160.656 141.366 139.523 143.285C127.146 144.462 114.819 145.985 102.575 147.776C99.8918 148.174 97.9245 145.385 99.2538 143.118C101.573 139.148 103.869 135.183 106.047 131.121C112.447 119.105 118.484 106.875 123.528 93.9854C124.763 90.8389 120.718 88.2128 118.216 90.5628C108.058 100.157 98.9125 110.385 90.1108 120.853C87.1467 124.427 84.2907 128.052 81.4629 131.694C79.8511 133.778 76.45 133.109 75.7706 130.544C72.6157 118.831 69.2042 107.168 65.4663 95.5672C58.9704 75.8665 51.78 56.3231 42.5559 37.1478C41.1284 34.1593 36.4881 35.053 36.4231 38.3289C35.9468 59.3726 37.4942 80.0028 39.7461 100.521C41.1288 112.575 42.8613 124.562 44.8737 136.495C45.3199 139.105 42.4716 140.978 40.1193 139.657C35.9982 137.353 31.8587 135.076 27.6407 132.885C15.176 126.513 2.49561 120.489 -10.8514 115.421C-14.1096 114.181 -16.7615 118.073 -14.3072 120.533C-4.28728 130.521 6.37108 139.536 17.2733 148.219C20.995 151.144 24.7669 153.965 28.5572 156.758C30.7257 158.351 30.0814 161.644 27.4477 162.269C15.4222 165.176 3.45105 168.333 -8.45102 171.808C-28.6619 177.853 -48.7014 184.574 -68.3347 193.274C-71.3947 194.62 -70.4123 199.137 -67.0364 199.243C-45.3494 199.985 -24.1153 198.757 -3.0059 196.843C9.37145 195.665 21.6981 194.142 33.9422 192.352C36.6251 191.953 38.5925 194.743 37.2632 197.009C34.9441 200.979 32.6532 204.968 30.4703 209.006C24.0519 221.049 17.9959 233.307 12.962 246.242C11.727 249.388 15.7675 251.992 18.2739 249.665C28.4552 240.065 37.6426 229.806 46.4627 219.311C49.4084 215.764 52.2694 212.162 55.0738 208.524C56.6856 206.44 60.0867 207.109 60.7661 209.674C63.8928 221.369 67.2993 233.01 71.0556 244.583C77.5564 264.306 84.7518 283.873 94.0275 303.062C95.4782 306.046 100.072 305.161 100.16 301.88C100.678 280.805 99.1259 260.152 96.8691 239.611C95.4913 227.58 93.7637 215.616 91.7563 203.706C91.3101 201.096 94.1583 199.223 96.5107 200.543C100.608 202.852 104.743 205.106 108.933 207.279C121.426 213.67 134.134 219.711 147.528 224.77C150.786 226.011 153.415 222.123 150.984 219.659C140.959 209.647 130.267 200.592 119.337 191.89C115.643 188.984 111.895 186.158 108.11 183.388L108.049 183.446Z" fill="black"/>
<path d="M103.443 177.777C101.274 176.184 101.918 172.891 104.552 172.266C116.559 169.386 128.507 166.233 140.381 162.74C160.615 156.691 180.678 149.966 200.325 141.216C203.38 139.847 202.407 135.376 199.026 135.247C177.306 134.464 156.049 135.697 134.916 137.615C122.539 138.793 110.212 140.316 97.9679 142.106C95.2849 142.505 93.3176 139.715 94.6468 137.449C96.966 133.479 99.2618 129.513 101.44 125.452C107.84 113.436 113.877 101.206 118.921 88.3158C120.156 85.1692 116.111 82.5431 113.609 84.8931C103.451 94.4877 94.3056 104.715 85.5038 115.184C82.5398 118.758 79.6837 122.382 76.856 126.025C75.2442 128.109 71.8431 127.439 71.1637 124.874C68.0087 113.162 64.5973 101.498 60.8594 89.8976C54.3635 70.1968 47.1731 50.6534 37.949 31.4781C36.5215 28.4896 31.8812 29.3834 31.8162 32.6593C31.3399 53.7029 32.8872 74.3331 35.1391 94.8513C36.5219 106.905 38.2544 118.892 40.2668 130.825C40.7129 133.435 37.8647 135.308 35.5124 133.987C31.3913 131.683 27.2517 129.406 23.0337 127.215C10.569 120.843 -2.11132 114.819 -15.4583 109.752C-18.7165 108.511 -21.3684 112.403 -18.9141 114.863C-8.89421 124.852 1.76415 133.866 12.6664 142.55C16.3881 145.475 20.16 148.295 23.9503 151.089C26.1188 152.681 25.4744 155.974 22.8408 156.599C10.8153 159.507 -1.15586 162.664 -13.0579 166.139C-33.2688 172.183 -53.3083 178.904 -72.9417 187.604C-76.0016 188.95 -75.0192 193.467 -71.6433 193.574C-49.9564 194.315 -28.7222 193.087 -7.61282 191.173C4.76454 189.995 17.0912 188.473 29.3352 186.682C32.0182 186.283 33.9856 189.073 32.6563 191.339C30.3371 195.31 28.0462 199.298 25.8634 203.336C19.445 215.38 13.389 227.637 8.35505 240.572C7.12011 243.719 11.1606 246.322 13.667 243.995C23.8483 234.396 33.0357 224.137 41.8558 213.641C44.8015 210.094 47.6624 206.492 50.4669 202.854C52.0787 200.77 55.4798 201.44 56.1592 204.005C59.2859 215.699 62.6924 227.34 66.4487 238.913C72.9495 258.637 80.1449 278.203 89.4206 297.392C90.8713 300.376 95.4651 299.491 95.5533 296.211C96.0714 275.135 94.519 254.482 92.2622 233.942C90.8844 221.91 89.1568 209.946 87.1494 198.036C86.7032 195.426 89.5514 193.553 91.9038 194.874C96.0016 197.182 100.136 199.436 104.326 201.609C116.819 208 129.527 214.042 142.921 219.1C146.179 220.341 148.808 216.453 146.377 213.989C136.352 203.978 125.661 194.922 114.73 186.221C111.037 183.314 107.288 180.489 103.503 177.718L103.443 177.777Z" fill="#FCF43D" stroke="black" stroke-width="2.35" stroke-linecap="round" stroke-linejoin="round"/>
</svg>
