<svg width="141" height="173" viewBox="0 0 141 173" fill="none" xmlns="http://www.w3.org/2000/svg">
<path d="M142.546 117.107L94.2281 106.609C93.7041 106.493 93.1749 106.708 92.8552 107.144L64.2592 147.589C63.42 148.769 61.5686 147.953 61.8835 146.542L72.4372 98.146C72.5535 97.6211 72.3396 97.0915 71.9053 96.7721L31.5424 68.1917C30.3657 67.353 31.183 65.4982 32.5913 65.8114L80.9096 76.3099C81.4337 76.4256 81.9629 76.2106 82.2825 75.7753L110.879 35.3295C111.718 34.15 113.569 34.9659 113.254 36.3764L102.7 84.7728C102.584 85.2978 102.798 85.8273 103.232 86.1468L143.585 114.722C144.761 115.561 143.944 117.416 142.536 117.103L142.546 117.107Z" fill="black"/>
<path d="M139.581 107.106L91.2624 96.6078C90.7383 96.4921 90.2091 96.7071 89.8895 97.1424L61.2934 137.588C60.4542 138.768 58.6029 137.952 58.9177 136.541L69.4715 88.1449C69.5878 87.6199 69.3739 87.0903 68.9396 86.7709L28.5873 58.1952C27.4106 57.3566 28.228 55.5017 29.6362 55.815L77.9545 66.3134C78.4786 66.4291 79.0078 66.2142 79.3274 65.7788L107.923 25.333C108.763 24.1536 110.614 24.9694 110.299 26.3799L99.7454 74.7764C99.6291 75.3013 99.843 75.8309 100.277 76.1503L140.63 104.726C141.806 105.565 140.989 107.42 139.581 107.106Z" fill="#FF8B13" stroke="black" stroke-width="2.35" stroke-linecap="round" stroke-linejoin="round"/>
</svg>
