<svg width="352" height="588" viewBox="0 0 352 588" fill="none" xmlns="http://www.w3.org/2000/svg">
<path d="M-94.2827 361.448C-90.2995 370.968 22.604 323.623 22.604 323.623L60.8939 307.566L54.413 330.739C54.413 330.739 29.3472 420.362 37.4861 424.861C45.6249 429.359 70.6906 339.736 70.6906 339.736L77.1715 316.563L97.4299 364.979C97.4299 364.979 157.165 507.74 164.693 504.583C172.222 501.426 112.487 358.665 112.487 358.665L92.2285 310.249L113.272 321.88C113.272 321.88 194.66 366.862 197.167 357.9C199.674 348.938 118.285 303.955 118.285 303.955L97.2417 292.324L135.532 276.268C135.532 276.268 248.435 228.923 244.452 219.403C240.469 209.884 127.565 257.229 127.565 257.229L89.2753 273.285L95.7563 250.113C95.7563 250.113 120.822 160.489 112.683 155.991C104.544 151.493 79.4786 241.116 79.4786 241.116L72.9977 264.289L52.7393 215.873C52.7393 215.873 -6.99556 73.112 -14.5241 76.269C-22.0526 79.426 37.6823 222.187 37.6823 222.187L57.9407 270.603L36.897 258.972C36.897 258.972 -44.4912 213.989 -46.9978 222.952C-49.5043 231.914 31.8839 276.897 31.8839 276.897L52.9276 288.527L14.6377 304.584C14.6377 304.584 -98.2658 351.929 -94.2827 361.448Z" fill="black"/>
<path d="M-76.6264 368.484C-72.6432 378.003 40.2603 330.659 40.2603 330.659L78.5502 314.602L72.0692 337.775C72.0692 337.775 47.0035 427.398 55.1423 431.896C63.2811 436.395 88.3468 346.771 88.3468 346.771L94.8278 323.599L115.086 372.014C115.086 372.014 174.821 514.775 182.35 511.618C189.878 508.461 130.143 365.7 130.143 365.7L109.885 317.285L130.928 328.915C130.928 328.915 212.317 373.898 214.823 364.936C217.33 355.973 135.942 310.991 135.942 310.991L114.898 299.36L153.188 283.304C153.188 283.304 266.091 235.959 262.108 226.439C258.125 216.92 145.221 264.265 145.221 264.265L106.932 280.321L113.413 257.148C113.413 257.148 138.478 167.525 130.339 163.027C122.201 158.529 97.1349 248.152 97.1349 248.152L90.6539 271.325L70.3956 222.909C70.3956 222.909 10.6607 80.1477 3.13219 83.3047C-4.39631 86.4617 55.3386 229.223 55.3386 229.223L75.597 277.639L54.5533 266.008C54.5533 266.008 -26.8349 221.025 -29.3415 229.987C-31.8481 238.95 49.5402 283.933 49.5402 283.933L70.5838 295.563L32.294 311.62C32.294 311.62 -80.6096 358.965 -76.6264 368.484Z" fill="#F9346C" stroke="black" stroke-width="2.35" stroke-linecap="round" stroke-linejoin="round"/>
</svg>
