<svg width="155" height="154" viewBox="0 0 155 154" fill="none" xmlns="http://www.w3.org/2000/svg">
<g clip-path="url(#clip0_1983_1817)">
<path d="M83.2576 141.491L64.7304 95.6477C64.5309 95.1494 64.0554 94.833 63.5156 94.814L13.9893 93.9522C12.5421 93.9226 12.174 91.9333 13.517 91.3994L59.4561 72.8738C59.9554 72.6744 60.2727 72.1995 60.2921 71.6607L61.1876 22.2117C61.2182 20.767 63.2114 20.3982 63.7454 21.7384L82.2726 67.5818C82.472 68.0801 82.9476 68.3964 83.4874 68.4155L133.014 69.2773C134.461 69.3068 134.829 71.2961 133.486 71.8301L87.5469 90.3556C87.0476 90.555 86.7303 91.03 86.7109 91.5688L85.8132 141.006C85.7826 142.451 83.7895 142.82 83.2555 141.48L83.2576 141.491Z" fill="black"/>
<path d="M89.8532 133.409L71.3259 87.5652C71.1265 87.067 70.6509 86.7506 70.1112 86.7316L20.5849 85.8698C19.1376 85.8402 18.7695 83.8509 20.1125 83.317L66.0516 64.7914C66.5509 64.592 66.8682 64.1171 66.8876 63.5783L67.7853 14.1408C67.8159 12.6961 69.8091 12.3273 70.343 13.6675L88.8703 59.5109C89.0697 60.0092 89.5453 60.3255 90.085 60.3446L139.611 61.2064C141.059 61.2359 141.427 63.2252 140.084 63.7592L94.1446 82.2847C93.6452 82.4841 93.328 82.9591 93.3085 83.4979L92.4109 132.935C92.3803 134.38 90.3871 134.749 89.8532 133.409Z" fill="#8F55FF" stroke="black" stroke-width="2.35" stroke-linecap="round" stroke-linejoin="round"/>
</g>
<defs>
<clipPath id="clip0_1983_1817">
<rect width="131.536" height="132.998" fill="white" transform="translate(130.777) rotate(79.5172)"/>
</clipPath>
</defs>
</svg>
