<svg width="162" height="218" viewBox="0 0 162 218" fill="none" xmlns="http://www.w3.org/2000/svg">
<path d="M122.238 195.759C97.1259 142.839 83.1013 134.285 27.8363 138.258C25.5458 138.427 24.6369 135.125 26.6884 134.088C76.2296 109.32 83.9248 94.828 78.4097 36.5364C78.1774 34.1204 81.2892 33.2675 82.3397 35.4592C107.451 88.3796 121.476 96.9339 176.741 92.9602C179.031 92.7916 179.94 96.0936 177.889 97.1304C128.348 121.898 120.653 136.391 126.168 194.682C126.4 197.098 123.288 197.951 122.238 195.759Z" fill="black"/>
<path d="M127.309 182.548C102.196 129.625 88.1716 121.07 32.908 125.042C30.6176 125.21 29.7086 121.908 31.76 120.871C81.2992 96.1047 88.9937 81.6124 83.4767 23.3192C83.2444 20.9032 86.3561 20.0503 87.4066 22.2422C112.52 75.1647 126.544 83.7198 181.808 79.748C184.098 79.5794 185.007 82.8816 182.956 83.9183C133.417 108.685 125.722 123.177 131.239 181.471C131.471 183.887 128.36 184.739 127.309 182.548Z" fill="#0071C6"/>
<path d="M127.309 182.548C102.196 129.625 88.1716 121.07 32.908 125.042C30.6176 125.21 29.7086 121.908 31.76 120.871C81.2992 96.1047 88.9937 81.6124 83.4767 23.3192C83.2444 20.9032 86.3561 20.0503 87.4066 22.2422C112.52 75.1647 126.544 83.7198 181.808 79.748C184.098 79.5794 185.007 82.8816 182.956 83.9183C133.417 108.685 125.722 123.177 131.239 181.471C131.471 183.887 128.36 184.739 127.309 182.548V182.548Z" stroke="black" stroke-width="2.35" stroke-linecap="round" stroke-linejoin="round"/>
</svg>
