<svg width="40" height="40" viewBox="0 0 40 40" fill="none" xmlns="http://www.w3.org/2000/svg">
<path d="M23.9594 39.2891C32.4132 39.2891 39.2664 32.4096 39.2664 23.9233C39.2664 15.437 32.4132 8.5575 23.9594 8.5575C15.5055 8.5575 8.65234 15.437 8.65234 23.9233C8.65234 32.4096 15.5055 39.2891 23.9594 39.2891Z" fill="black"/>
<path d="M17.307 32.7316C25.7608 32.7316 32.614 25.8521 32.614 17.3658C32.614 8.8795 25.7608 2 17.307 2C8.85318 2 2 8.8795 2 17.3658C2 25.8521 8.85318 32.7316 17.307 32.7316Z" fill="white" stroke="black" stroke-width="4" stroke-linecap="round" stroke-linejoin="round"/>
<path d="M23.9594 39.2891C32.4132 39.2891 39.2664 32.4096 39.2664 23.9233C39.2664 15.437 32.4132 8.5575 23.9594 8.5575C15.5055 8.5575 8.65234 15.437 8.65234 23.9233C8.65234 32.4096 15.5055 39.2891 23.9594 39.2891Z" fill="black"/>
<path d="M17.307 32.7316C25.7608 32.7316 32.614 25.8521 32.614 17.3658C32.614 8.8795 25.7608 2 17.307 2C8.85318 2 2 8.8795 2 17.3658C2 25.8521 8.85318 32.7316 17.307 32.7316Z" fill="white" stroke="black" stroke-width="4" stroke-linecap="round" stroke-linejoin="round"/>
</svg>
