<svg width="232" height="230" viewBox="0 0 232 230" fill="none" xmlns="http://www.w3.org/2000/svg">
<path d="M212.346 136.747L136.066 141.137C135.238 141.182 134.532 141.713 134.225 142.481L107.347 213.373C106.555 215.443 103.47 215.005 103.389 212.812L100.205 137.66C100.174 136.844 99.6469 136.156 98.8731 135.866L27.3971 110.537C25.3112 109.791 25.8059 106.741 28.032 106.624L104.311 102.234C105.14 102.189 105.846 101.658 106.153 100.89L133.031 29.9981C133.823 27.9286 136.907 28.3657 136.989 30.559L140.172 105.711C140.204 106.527 140.731 107.215 141.504 107.505L212.963 132.832C215.049 133.578 214.554 136.627 212.328 136.744L212.346 136.747Z" fill="black"/>
<path d="M203.847 123.333L127.567 127.723C126.739 127.768 126.033 128.299 125.726 129.067L98.848 199.959C98.0562 202.028 94.9717 201.591 94.8898 199.398L91.7067 124.246C91.6749 123.43 91.1481 122.742 90.3743 122.452L18.9162 97.1255C16.8303 96.3791 17.325 93.3299 19.551 93.2126L95.8305 88.8226C96.6586 88.7777 97.3649 88.2467 97.6719 87.4788L124.55 16.5865C125.342 14.517 128.426 14.9541 128.508 17.1474L131.691 92.2998C131.723 93.1157 132.25 93.8034 133.023 94.0934L204.482 119.42C206.568 120.166 206.073 123.215 203.847 123.333Z" fill="#FF8B13" stroke="black" stroke-width="2.35" stroke-linecap="round" stroke-linejoin="round"/>
</svg>
