<svg width="126" height="124" viewBox="0 0 126 124" fill="none" xmlns="http://www.w3.org/2000/svg">
<path d="M122.663 67.6629L77.6069 76.67C77.1174 76.7661 76.7564 77.1431 76.6609 77.6287L68.7214 122.33C68.4854 123.636 66.5931 123.632 66.2931 122.325L55.791 77.586C55.6787 77.1001 55.2853 76.7323 54.79 76.6234L9.20185 67.4312C7.87061 67.1587 7.8171 65.2913 9.13319 65.0349L54.189 56.0279C54.6784 55.9318 55.0395 55.5547 55.135 55.0692L63.0745 10.3674C63.3105 9.06189 65.2028 9.06575 65.5027 10.3724L76.0048 55.1118C76.1172 55.5978 76.5105 55.9656 77.0059 56.0745L122.583 65.2666C123.914 65.5392 123.968 67.4066 122.652 67.6629L122.663 67.6629Z" fill="black"/>
<path d="M116.101 60.3953L71.0443 69.4C70.5549 69.4961 70.1938 69.8731 70.0982 70.3587L62.1529 115.06C61.9167 116.365 60.0244 116.361 59.7246 115.055L49.2283 70.315C49.116 69.829 48.7227 69.4612 48.2274 69.3522L2.65131 60.1578C1.32011 59.8852 1.26685 58.0178 2.58297 57.7615L47.64 48.7568C48.1295 48.6607 48.4906 48.2837 48.5861 47.7982L56.5315 3.09689C56.7677 1.79135 58.66 1.79532 58.9597 3.10197L69.456 47.8419C69.5683 48.3278 69.9616 48.6956 70.4569 48.8046L116.033 57.999C117.364 58.2716 117.417 60.139 116.101 60.3953V60.3953Z" fill="#FCF43D" stroke="black" stroke-width="2.35" stroke-linecap="round" stroke-linejoin="round"/>
</svg>
