<svg width="83" height="109" viewBox="0 0 83 109" fill="none" xmlns="http://www.w3.org/2000/svg">
<path d="M86.9636 58.2884C59.3627 64.9897 53.6856 72.1854 48.7874 106.737C48.5862 108.17 46.9443 108.184 46.7138 106.755C41.272 72.2956 35.4909 65.1926 7.78966 58.9906C6.64108 58.7359 6.62515 56.6869 7.76955 56.4029C35.3704 49.7016 41.0475 42.5059 45.9457 7.9542C46.1469 6.52157 47.7888 6.50701 48.0194 7.93581C53.4611 42.3957 59.2423 49.4987 86.9435 55.7006C88.092 55.9554 88.108 58.0044 86.9636 58.2884Z" fill="black"/>
<path d="M81.4561 53.0079C53.854 59.7096 48.1766 66.9052 43.2777 101.456C43.0764 102.888 41.4344 102.903 41.2039 101.474C35.7625 67.0156 29.9813 59.913 2.27911 53.7119C1.13048 53.4572 1.11459 51.4083 2.25903 51.1243C29.8611 44.4226 35.5385 37.227 40.4374 2.67657C40.6387 1.24399 42.2807 1.22939 42.5112 2.65813C47.9526 37.1166 53.7338 44.2192 81.436 50.4203C82.5846 50.675 82.6005 52.7239 81.4561 53.0079Z" fill="#FCF43D"/>
<path d="M81.4561 53.0079C53.854 59.7096 48.1766 66.9052 43.2777 101.456C43.0764 102.888 41.4344 102.903 41.2039 101.474C35.7625 67.0156 29.9813 59.913 2.27911 53.7119C1.13048 53.4572 1.11459 51.4083 2.25903 51.1243C29.8611 44.4226 35.5385 37.227 40.4374 2.67657C40.6387 1.24399 42.2807 1.22939 42.5112 2.65813C47.9526 37.1166 53.7338 44.2192 81.436 50.4203C82.5846 50.675 82.6005 52.7239 81.4561 53.0079V53.0079Z" stroke="black" stroke-width="2.35" stroke-linecap="round" stroke-linejoin="round"/>
</svg>
