<svg width="139" height="181" viewBox="0 0 139 181" fill="none" xmlns="http://www.w3.org/2000/svg">
<path d="M113.572 106.129C112.665 104.875 113.595 103.12 115.145 103.196C122.219 103.53 129.308 103.701 136.417 103.667C148.547 103.554 160.702 103.031 172.985 101.296C174.896 101.022 175.148 98.337 173.321 97.7119C161.576 93.7224 149.73 90.9471 137.832 88.5795C130.855 87.2234 123.844 86.0706 116.831 85.0825C115.294 84.8695 114.706 82.972 115.831 81.9089C117.796 80.0447 119.747 78.1793 121.651 76.2406C127.259 70.4975 132.707 64.5742 137.726 58.1159C138.954 56.5399 137.201 54.3956 135.42 55.3147C128.181 59.0762 121.384 63.3604 114.733 67.8371C112.485 69.3722 110.287 70.9533 108.101 72.5493C106.854 73.4634 105.111 72.5299 105.189 70.9698C105.516 63.8374 105.695 56.6911 105.684 49.5269C105.585 37.3362 105.078 25.1209 103.394 12.7814C103.137 10.8599 100.441 10.607 99.8314 12.4471C95.881 24.2578 93.1102 36.1655 90.7445 48.1249C89.3874 55.1607 88.2334 62.2156 87.242 69.2856C87.0285 70.833 85.1419 71.4259 84.0865 70.2957C82.2359 68.3209 80.3705 66.3585 78.447 64.4319C72.7452 58.796 66.8641 53.322 60.4508 48.2793C58.8858 47.0463 56.7525 48.8122 57.6639 50.6026C61.3942 57.882 65.6447 64.7154 70.0865 71.4017C71.6097 73.6619 73.1787 75.8715 74.7625 78.0687C75.6696 79.3224 74.7397 81.0775 73.1892 81.0008C66.1005 80.6793 58.9977 80.5077 51.877 80.5269C39.7601 80.6409 27.6183 81.1651 15.3518 82.8737C13.4417 83.1345 13.1872 85.8466 15.0154 86.4581C26.7499 90.4191 38.5821 93.193 50.4663 95.5594C57.4443 96.9155 64.455 98.0683 71.4675 99.0564C73.0052 99.2694 73.5923 101.167 72.4678 102.23C70.5028 104.094 68.5502 105.973 66.6479 107.898C61.0248 113.654 55.5624 119.589 50.5404 126.075C49.313 127.651 51.067 129.782 52.8463 128.876C60.0995 125.116 66.9246 120.821 73.5903 116.332C75.8237 114.809 78.0204 113.241 80.1926 111.644C81.4398 110.73 83.1831 111.664 83.1051 113.224C82.7651 120.341 82.5876 127.474 82.6133 134.626C82.7114 146.83 83.2172 159.059 84.9271 171.415C85.1976 173.337 87.8659 173.588 88.4894 171.749C92.4682 159.927 95.2402 148.006 97.6072 136.033C98.9631 129.011 100.116 121.969 101.106 114.913C101.319 113.366 103.206 112.773 104.261 113.903C106.098 115.876 107.965 117.825 109.876 119.737C115.59 125.388 121.484 130.876 127.924 135.922C129.489 137.155 131.609 135.388 130.711 133.598C126.982 126.305 122.721 119.444 118.266 112.742C116.756 110.497 115.2 108.289 113.615 106.105L113.572 106.129Z" fill="black"/>
<path d="M107.671 102.467C106.764 101.214 107.694 99.4586 109.245 99.5353C116.319 99.8692 123.408 100.04 130.516 100.005C142.647 99.8926 154.802 99.3697 167.085 97.6351C168.996 97.3607 169.248 94.6759 167.421 94.0507C155.676 90.0612 143.83 87.286 131.932 84.9183C124.954 83.5623 117.943 82.4094 110.931 81.4214C109.393 81.2083 108.806 79.3109 109.931 78.2478C111.896 76.3836 113.847 74.5182 115.751 72.5795C121.359 66.8363 126.806 60.9131 131.826 54.4547C133.053 52.8788 131.3 50.7345 129.52 51.6536C122.28 55.415 115.484 59.6993 108.833 64.176C106.584 65.7111 104.386 67.2922 102.201 68.8881C100.954 69.8023 99.2102 68.8687 99.2882 67.3087C99.616 60.1763 99.7947 53.0299 99.7838 45.8658C99.6844 33.675 99.1774 21.4597 97.4933 9.12025C97.2364 7.1988 94.541 6.94586 93.9311 8.78596C89.9806 20.5967 87.2098 32.5044 84.8441 44.4638C83.487 51.4996 82.333 58.5544 81.3416 65.6245C81.1281 67.1718 79.2415 67.7647 78.1861 66.6345C76.3355 64.6598 74.4701 62.6974 72.5466 60.7708C66.8448 55.1349 60.9638 49.6609 54.5504 44.6182C52.9854 43.3852 50.8521 45.1511 51.7635 46.9414C55.4939 54.2209 59.7443 61.0542 64.1861 67.7405C65.7093 70.0008 67.2783 72.2103 68.8621 74.4075C69.7692 75.6613 68.8393 77.4164 67.2888 77.3396C60.2001 77.0181 53.0973 76.8465 45.9766 76.8657C33.8597 76.9798 21.7179 77.504 9.45136 79.2126C7.54128 79.4733 7.28676 82.1855 9.115 82.797C20.8495 86.7579 32.6818 89.5319 44.5659 91.8983C51.5439 93.2543 58.5546 94.4072 65.5671 95.3952C67.1048 95.6083 67.6919 97.5057 66.5674 98.5688C64.6025 100.433 62.6498 102.312 60.7475 104.237C55.1244 109.993 49.6621 115.928 44.64 122.414C43.4126 123.99 45.1666 126.12 46.9459 125.215C54.1991 121.455 61.0242 117.16 67.6899 112.67C69.9234 111.148 72.12 109.58 74.2922 107.983C75.5394 107.069 77.2828 108.002 77.2047 109.562C76.8647 116.68 76.6872 123.813 76.7129 130.964C76.8111 143.169 77.3168 155.398 79.0267 167.753C79.2972 169.676 81.9655 169.927 82.589 168.088C86.5678 156.266 89.3398 144.345 91.7068 132.372C93.0627 125.349 94.2153 118.308 95.2055 111.252C95.419 109.704 97.3056 109.111 98.361 110.242C100.198 112.215 102.065 114.164 103.976 116.076C109.69 121.726 115.583 127.215 122.024 132.261C123.589 133.494 125.709 131.726 124.811 129.937C121.082 122.644 116.82 115.782 112.366 109.081C110.855 106.836 109.3 104.628 107.715 102.444L107.671 102.467Z" fill="#8F55FF" stroke="black" stroke-width="2.35" stroke-linecap="round" stroke-linejoin="round"/>
</svg>
