<svg width="220" height="340" viewBox="0 0 220 340" fill="none" xmlns="http://www.w3.org/2000/svg">
<path d="M80.0462 317.431C85.899 316.474 70.3483 221.777 70.3483 221.777L65.0745 189.661L77.669 199.456C77.669 199.456 126.379 237.337 129.784 232.197C133.189 227.056 84.4785 189.174 84.4785 189.174L71.8841 179.38L101.651 174.515C101.651 174.515 189.423 160.171 188.386 153.857C187.349 147.542 99.5771 161.886 99.5771 161.886L69.8102 166.751L78.6136 153.459C78.6136 153.459 112.662 102.053 107.791 98.2647C102.92 94.4766 68.8716 145.883 68.8716 145.883L60.0682 159.174L54.7943 127.059C54.7943 127.059 39.2437 32.3614 33.391 33.3179C27.5382 34.2744 43.0889 128.972 43.0889 128.972L48.3627 161.087L35.7683 151.293C35.7683 151.293 -12.942 113.411 -16.3468 118.552C-19.7516 123.692 28.9587 161.574 28.9587 161.574L41.5531 171.369L11.7863 176.233C11.7863 176.233 -75.986 190.577 -74.949 196.892C-73.9121 203.206 13.8601 188.862 13.8601 188.862L43.627 183.998L34.8236 197.289C34.8236 197.289 0.775646 248.696 5.64668 252.484C10.5177 256.272 44.5657 204.866 44.5657 204.866L53.369 191.574L58.6429 223.689C58.6429 223.689 74.1935 318.387 80.0462 317.431Z" fill="black"/>
<path d="M85.8763 305.699C91.729 304.743 76.1784 210.045 76.1784 210.045L70.9046 177.93L83.499 187.724C83.499 187.724 132.209 225.606 135.614 220.465C139.019 215.325 90.3086 177.443 90.3086 177.443L77.7142 167.649L107.481 162.784C107.481 162.784 195.253 148.44 194.216 142.125C193.179 135.811 105.407 150.155 105.407 150.155L75.6403 155.02L84.4437 141.728C84.4437 141.728 118.492 90.3217 113.621 86.5335C108.75 82.7454 74.7016 134.152 74.7016 134.152L65.8983 147.443L60.6244 115.328C60.6244 115.328 45.0738 20.6302 39.2211 21.5867C33.3683 22.5431 48.919 117.241 48.919 117.241L54.1928 149.356L41.5984 139.562C41.5984 139.562 -7.11195 101.68 -10.5167 106.821C-13.9215 111.961 34.7887 149.843 34.7887 149.843L47.3832 159.637L17.6163 164.502C17.6163 164.502 -70.1559 178.846 -69.1189 185.161C-68.082 191.475 19.6902 177.131 19.6902 177.131L49.4571 172.266L40.6537 185.558C40.6537 185.558 6.60572 236.964 11.4767 240.752C16.3478 244.541 50.3957 193.134 50.3957 193.134L59.1991 179.843L64.473 211.958C64.473 211.958 80.0236 306.656 85.8763 305.699Z" fill="#8F55FF" stroke="black" stroke-width="2.35" stroke-linecap="round" stroke-linejoin="round"/>
</svg>
