<svg width="146" height="183" viewBox="0 0 146 183" fill="none" xmlns="http://www.w3.org/2000/svg">
<path d="M17.4168 145.291C31.7826 104.235 28.4657 92.0792 -4.95217 63.5118C-6.33928 62.3299 -5.07061 60.1325 -3.34993 60.7367C38.0574 75.4662 50.2371 72.2929 78.5921 39.3336C79.7652 37.9655 81.9866 39.2513 81.3976 40.9575C67.0318 82.0138 70.3486 94.1693 103.767 122.737C105.154 123.919 103.885 126.116 102.164 125.512C60.757 110.782 48.5773 113.956 20.2223 146.915C19.0492 148.283 16.8277 146.997 17.4168 145.291Z" fill="black"/>
<path d="M27.4192 141.319C41.7854 100.261 38.469 88.1048 5.05291 59.5373C3.66588 58.3554 4.93456 56.1579 6.65517 56.7621C48.0607 71.491 60.2401 68.3173 88.5948 35.3562C89.7679 33.988 91.9892 35.2737 91.4002 36.98C77.034 78.0381 80.3504 90.194 113.766 118.761C115.154 119.943 113.885 122.141 112.164 121.537C70.7587 106.808 58.5793 109.981 30.2246 142.943C29.0515 144.311 26.8302 143.025 27.4192 141.319Z" fill="#FCF43D"/>
<path d="M27.4192 141.319C41.7854 100.261 38.469 88.1048 5.05291 59.5373C3.66587 58.3554 4.93455 56.1579 6.65517 56.7621C48.0607 71.491 60.2401 68.3173 88.5948 35.3562C89.7679 33.988 91.9892 35.2737 91.4002 36.98C77.034 78.0381 80.3504 90.194 113.766 118.761C115.154 119.943 113.885 122.141 112.164 121.537C70.7587 106.808 58.5793 109.981 30.2246 142.943C29.0515 144.311 26.8302 143.025 27.4192 141.319V141.319Z" stroke="black" stroke-width="2.35" stroke-linecap="round" stroke-linejoin="round"/>
</svg>
