<svg width="132" height="147" viewBox="0 0 132 147" fill="none" xmlns="http://www.w3.org/2000/svg">
<path d="M101.932 44.8528C79.3953 70.3819 78.0957 80.1256 93.2268 110.422C93.856 111.676 92.2951 112.898 91.2554 111.965C66.2946 89.3648 56.6963 88.1424 26.6648 103.78C25.421 104.431 24.2309 102.86 25.1618 101.797C47.6984 76.2677 48.9981 66.524 33.867 36.228C33.2378 34.9732 34.7987 33.7511 35.8383 34.6846C60.7991 57.2848 70.3974 58.5071 100.429 42.8692C101.673 42.2189 102.863 43.7896 101.932 44.8528Z" fill="black"/>
<path d="M93.4506 44.8985C71.0036 70.4362 69.7199 80.197 84.8526 110.582C85.4818 111.841 83.9264 113.062 82.8882 112.125C57.9605 89.4324 48.3847 88.1895 18.4488 103.802C17.2089 104.451 16.0197 102.875 16.9469 101.812C39.3939 76.2739 40.6776 66.5132 25.545 36.1278C24.9157 34.8693 26.4711 33.6478 27.5094 34.5851C52.4371 57.2777 62.0129 58.5207 91.9487 42.9081C93.1886 42.2589 94.3778 43.8349 93.4506 44.8985Z" fill="#FCF43D"/>
<path d="M93.4506 44.8985C71.0037 70.4362 69.7199 80.197 84.8526 110.582C85.4818 111.841 83.9264 113.062 82.8882 112.125C57.9605 89.4324 48.3847 88.1895 18.4488 103.802C17.2089 104.451 16.0197 102.875 16.9469 101.812C39.3939 76.2739 40.6776 66.5132 25.545 36.1278C24.9157 34.8693 26.4711 33.6478 27.5094 34.5851C52.4371 57.2777 62.0129 58.5207 91.9487 42.9081C93.1886 42.2589 94.3778 43.8349 93.4506 44.8985V44.8985Z" stroke="black" stroke-width="2.35" stroke-linecap="round" stroke-linejoin="round"/>
</svg>
