<svg width="130" height="147" viewBox="0 0 130 147" fill="none" xmlns="http://www.w3.org/2000/svg">
<path d="M122.747 85.1552L78.091 90.0924C77.6061 90.1442 77.2134 90.5171 77.0655 91.0376L64.2699 139.049C63.8922 140.451 62.0604 140.24 61.9193 138.779L56.8626 88.7162C56.8093 88.1726 56.4705 87.7276 56.0033 87.5545L12.9118 72.5348C11.654 72.0916 11.8156 70.044 13.1192 69.9071L57.7748 64.9699C58.2596 64.9181 58.6523 64.5452 58.8003 64.0248L71.5958 16.0133C71.9735 14.6116 73.8053 14.822 73.9464 16.2834L79.0032 66.3462C79.0564 66.8897 79.3953 67.3348 79.8624 67.5079L122.943 82.5264C124.201 82.9695 124.04 85.0171 122.736 85.154L122.747 85.1552Z" fill="black"/>
<path d="M117.231 76.4886L72.5754 81.4305C72.0905 81.4823 71.6978 81.8553 71.5499 82.3758L58.7575 130.388C58.3798 131.79 56.548 131.58 56.4068 130.119L51.3469 80.0565C51.2936 79.5129 50.9547 79.0679 50.4876 78.8949L7.40566 63.8809C6.14777 63.4379 6.30922 61.3903 7.61284 61.2533L52.2681 56.3114C52.753 56.2595 53.1457 55.8866 53.2936 55.3661L66.0861 7.35337C66.4637 5.95158 68.2955 6.16187 68.4367 7.62322L73.4966 57.6854C73.5499 58.229 73.8888 58.6739 74.356 58.847L117.438 73.861C118.696 74.304 118.534 76.3516 117.231 76.4886Z" fill="white" stroke="black" stroke-width="2.35" stroke-linecap="round" stroke-linejoin="round"/>
</svg>
