<svg width="124" height="154" viewBox="0 0 124 154" fill="none" xmlns="http://www.w3.org/2000/svg">
<path d="M122.588 79.8148C122.525 76.5468 75.818 76.2011 75.818 76.2011L59.9778 76.0839L65.5564 70.1521C65.5564 70.1521 87.1321 47.2105 84.8857 44.8837C82.6394 42.5569 61.0638 65.4986 61.0638 65.4986L55.4852 71.4303L55.1659 54.8096C55.1659 54.8096 54.2245 5.80071 51.11 5.77766C47.9955 5.75461 48.937 54.7635 48.937 54.7635L49.2562 71.3842L43.4482 65.3682C43.4482 65.3682 20.9849 42.1006 18.8273 44.3947C16.6697 46.6889 39.133 69.9565 39.133 69.9565L44.9411 75.9726L29.101 75.8553C29.101 75.8553 -17.6061 75.5096 -17.5433 78.7775C-17.4805 82.0455 29.2265 82.3912 29.2265 82.3912L45.0667 82.5085L39.4881 88.4402C39.4881 88.4402 17.9125 111.382 20.1588 113.709C22.4051 116.035 43.9808 93.0937 43.9808 93.0937L49.5593 87.162L49.8786 103.783C49.8786 103.783 50.8201 152.792 53.9345 152.815C57.049 152.838 56.1075 103.829 56.1075 103.829L55.7883 87.2081L61.5964 93.2241C61.5964 93.2241 84.0596 116.492 86.2172 114.198C88.3748 111.903 65.9115 88.6358 65.9115 88.6358L60.1034 82.6198L75.9435 82.737C75.9435 82.737 122.651 83.0827 122.588 79.8148Z" fill="black"/>
<path d="M117.531 75.9116C117.469 72.6436 70.7617 72.2904 70.7617 72.2904L54.9215 72.1706L60.5011 66.2397C60.5011 66.2397 82.0808 43.3016 79.8348 40.9745C77.5889 38.6474 56.0092 61.5855 56.0092 61.5855L50.4296 67.5163L50.1132 50.8956C50.1132 50.8956 49.1802 1.88673 46.0657 1.86317C42.9512 1.83962 43.8842 50.8485 43.8842 50.8485L44.2007 67.4692L38.3936 61.4523C38.3936 61.4523 15.9342 38.1811 13.7763 40.4749C11.6183 42.7687 34.0777 66.0399 34.0777 66.0399L39.8847 72.0568L24.0446 71.937C24.0446 71.937 -22.6626 71.5838 -22.6004 74.8517C-22.5382 78.1197 24.169 78.4729 24.169 78.4729L40.0092 78.5927L34.4296 84.5236C34.4296 84.5236 12.8499 107.462 15.0958 109.789C17.3418 112.116 38.9214 89.1778 38.9214 89.1778L44.501 83.247L44.8174 99.8677C44.8174 99.8677 45.7504 148.877 48.8649 148.9C51.9794 148.924 51.0464 99.9148 51.0464 99.9148L50.73 83.2941L56.537 89.311C56.537 89.311 78.9964 112.582 81.1544 110.288C83.3124 107.995 60.853 84.7234 60.853 84.7234L55.0459 78.7065L70.8861 78.8263C70.8861 78.8263 117.593 79.1795 117.531 75.9116Z" fill="#0071C6" stroke="black" stroke-width="2.35" stroke-linecap="round" stroke-linejoin="round"/>
</svg>
