<svg width="192" height="203" viewBox="0 0 192 203" fill="none" xmlns="http://www.w3.org/2000/svg">
<path d="M118.505 120.292C117.858 118.912 119.049 117.341 120.514 117.67C127.199 119.157 133.928 120.486 140.71 121.617C152.294 123.494 163.972 124.972 175.982 125.282C177.852 125.325 178.558 122.73 176.925 121.817C166.42 115.975 155.61 111.308 144.679 107.034C138.262 104.559 131.779 102.278 125.266 100.159C123.837 99.6974 123.607 97.738 124.863 96.8783C127.06 95.3696 129.244 93.8575 131.395 92.2656C137.739 87.5448 143.96 82.6208 149.866 77.1012C151.31 75.7547 150.011 73.3618 148.154 73.9726C140.6 76.4801 133.377 79.5735 126.259 82.8798C123.85 84.0189 121.48 85.2114 119.119 86.4205C117.772 87.1138 116.272 85.9114 116.617 84.3922C118.168 77.442 119.578 70.4535 120.812 63.4166C122.833 51.429 124.471 39.3505 125.007 26.9572C125.096 25.0282 122.57 24.3382 121.669 26.0452C115.853 36.996 111.145 48.2353 106.813 59.5918C104.298 66.2786 101.973 73.0173 99.801 79.7977C99.3289 81.2822 97.4275 81.5553 96.6176 80.2725C95.1962 78.03 93.7586 75.7973 92.2595 73.5902C87.8024 67.1215 83.1463 60.7824 77.9079 54.7796C76.6301 53.3124 74.2899 54.6969 74.848 56.6044C77.1403 64.3641 80.0059 71.7708 83.0796 79.0646C84.1393 81.5337 85.2513 83.9606 86.3797 86.3778C87.0268 87.7576 85.8357 89.3287 84.371 88.9993C77.6692 87.522 70.928 86.1897 64.1366 85.0418C52.5659 83.1683 40.9003 81.6936 28.9101 81.3615C27.044 81.3045 26.3305 83.9261 27.9672 84.8262C38.466 90.6387 49.2639 95.3015 60.1821 99.5726C66.5988 102.048 73.0818 104.328 79.5953 106.448C81.0241 106.909 81.2544 108.868 79.9979 109.728C77.8011 111.237 75.6135 112.762 73.4658 114.341C67.1063 119.071 60.8687 124.005 54.9553 129.551C53.5117 130.897 54.8139 133.277 56.6673 132.68C64.2344 130.175 71.4863 127.076 78.6199 123.76C81.0134 122.63 83.3796 121.451 85.7275 120.239C87.0752 119.545 88.575 120.748 88.2298 122.267C86.6701 129.2 85.2627 136.176 84.0457 143.203C82.0206 155.204 80.3798 167.295 79.8649 179.709C79.789 181.641 82.2891 182.324 83.2027 180.621C89.0479 169.664 93.76 158.411 98.0949 147.042C100.606 140.368 102.928 133.642 105.096 126.875C105.569 125.391 107.47 125.118 108.28 126.4C109.689 128.639 111.13 130.859 112.62 133.049C117.086 139.535 121.751 145.891 127.015 151.9C128.293 153.368 130.62 151.98 130.075 150.075C127.786 142.303 124.915 134.866 121.832 127.556C120.782 125.103 119.682 122.68 118.55 120.276L118.505 120.292Z" fill="black"/>
<path d="M113.518 115.731C112.871 114.351 114.062 112.78 115.527 113.109C122.212 114.596 128.941 115.925 135.723 117.056C147.307 118.933 158.985 120.411 170.995 120.721C172.865 120.764 173.571 118.169 171.938 117.256C161.433 111.414 150.623 106.747 139.692 102.473C133.275 99.9978 126.792 97.7169 120.279 95.5976C118.85 95.1364 118.62 93.1769 119.876 92.3172C122.073 90.8086 124.257 89.2965 126.408 87.7046C132.752 82.9838 138.973 78.0598 144.879 72.5402C146.323 71.1938 145.024 68.8009 143.167 69.4116C135.613 71.9191 128.39 75.0125 121.272 78.3188C118.863 79.4579 116.493 80.6503 114.132 81.8595C112.785 82.5528 111.285 81.3504 111.63 79.8312C113.181 72.8809 114.592 65.8925 115.825 58.8555C117.846 46.8679 119.484 34.7895 120.02 22.3962C120.109 20.4672 117.583 19.7772 116.683 21.4842C110.866 32.435 106.158 43.6743 101.826 55.0308C99.3113 61.7175 96.9865 68.4563 94.8141 75.2366C94.3419 76.7211 92.4405 76.9942 91.6306 75.7114C90.2093 73.469 88.7717 71.2362 87.2725 69.0291C82.8154 62.5604 78.1594 56.2213 72.921 50.2185C71.6432 48.7513 69.303 50.1358 69.8611 52.0433C72.1534 59.803 75.019 67.2097 78.0926 74.5035C79.1523 76.9726 80.2644 79.3995 81.3928 81.8167C82.0399 83.1965 80.8487 84.7676 79.384 84.4382C72.6822 82.9609 65.941 81.6286 59.1496 80.4807C47.5789 78.6072 35.9133 77.1324 23.9232 76.8003C22.057 76.7433 21.3436 79.3649 22.9803 80.265C33.479 86.0775 44.277 90.7403 55.1952 95.0114C61.6118 97.4865 68.0949 99.7673 74.6083 101.887C76.0371 102.348 76.2674 104.307 75.0109 105.167C72.8141 106.676 70.6265 108.201 68.4788 109.78C62.1193 114.51 55.8817 119.444 49.9683 124.99C48.5247 126.336 49.8269 128.716 51.6802 128.118C59.2473 125.614 66.4993 122.515 73.6329 119.199C76.0264 118.069 78.3926 116.89 80.7405 115.677C82.0882 114.984 83.588 116.187 83.2428 117.706C81.6831 124.639 80.2757 131.615 79.0586 138.642C77.0335 150.643 75.3927 162.734 74.8778 175.148C74.8018 177.08 77.302 177.763 78.2156 176.06C84.0608 165.103 88.7729 153.85 93.1078 142.481C95.6194 135.807 97.9406 129.081 100.109 122.314C100.582 120.83 102.483 120.557 103.293 121.839C104.702 124.078 106.143 126.298 107.633 128.488C112.099 134.974 116.764 141.329 122.028 147.339C123.306 148.806 125.633 147.418 125.088 145.514C122.799 137.742 119.928 130.305 116.845 122.995C115.795 120.542 114.695 118.119 113.563 115.715L113.518 115.731Z" fill="#FCF43D" stroke="black" stroke-width="2.35" stroke-linecap="round" stroke-linejoin="round"/>
</svg>
