<svg width="165" height="159" viewBox="0 0 165 159" fill="none" xmlns="http://www.w3.org/2000/svg">
<path d="M130.37 49.2055L101.818 81.5051C101.507 81.8547 101.454 82.3434 101.662 82.7636L121.478 120.969C122.054 122.088 120.635 123.156 119.657 122.34L86.0081 94.5464C85.6439 94.2435 85.1374 94.1888 84.7036 94.3871L45.2647 113.263C44.1106 113.812 42.9944 112.434 43.8322 111.495L72.3841 79.1956C72.6952 78.846 72.7484 78.3573 72.54 77.9371L52.7239 39.7313C52.1483 38.6131 53.5676 37.5448 54.5453 38.3604L88.1943 66.1543C88.5585 66.4572 89.065 66.5119 89.4987 66.3136L128.929 47.4434C130.084 46.8953 131.2 48.2733 130.362 49.2117L130.37 49.2055Z" fill="black"/>
<path d="M121.267 47.4354L92.7176 79.7375C92.4065 80.0871 92.3534 80.5758 92.5617 80.996L112.378 119.202C112.954 120.321 111.535 121.389 110.557 120.573L76.9084 92.7799C76.5442 92.4771 76.0377 92.4224 75.604 92.6207L36.1753 111.493C35.0213 112.042 33.905 110.664 34.7428 109.725L63.2927 77.4231C63.6038 77.0735 63.6569 76.5847 63.4486 76.1645L43.632 37.9582C43.0564 36.84 44.4757 35.7716 45.4533 36.5872L79.1019 64.3806C79.4661 64.6835 79.9726 64.7381 80.4063 64.5399L119.835 45.6672C120.989 45.119 122.105 46.497 121.267 47.4354Z" fill="#8F55FF" stroke="black" stroke-width="2.35" stroke-linecap="round" stroke-linejoin="round"/>
</svg>
