<svg width="124" height="128" viewBox="0 0 124 128" fill="none" xmlns="http://www.w3.org/2000/svg">
<path d="M116.846 62.1282C81.9345 73.0233 75.2898 81.537 72.169 119.444C72.042 121.015 69.9298 121.249 69.5013 119.739C59.3204 83.3061 51.2238 76.4158 14.9935 73.4112C13.4915 73.2891 13.2822 71.0819 14.7291 70.6236C49.6411 59.7285 56.2858 51.2148 59.4066 13.3079C59.5336 11.7364 61.6459 11.5024 62.0743 13.0124C72.2553 49.4458 80.3518 56.336 116.582 59.3406C118.084 59.4627 118.293 61.6699 116.846 62.1282Z" fill="black"/>
<path d="M109.062 57.1127C74.227 68.0695 67.5873 76.609 64.4178 114.602C64.2888 116.177 62.1819 116.414 61.7569 114.901C51.658 78.3992 43.5936 71.5027 7.46494 68.5309C5.96714 68.4102 5.76167 66.1984 7.20545 65.7375C42.0402 54.7807 48.6799 46.2413 51.8494 8.2483C51.9783 6.67323 54.0853 6.43644 54.5103 7.94924C64.6092 44.451 72.6736 51.3475 108.802 54.3193C110.3 54.44 110.506 56.6518 109.062 57.1127Z" fill="#FCF43D"/>
<path d="M109.062 57.1127C74.227 68.0695 67.5873 76.6089 64.4178 114.602C64.2888 116.177 62.1819 116.414 61.7569 114.901C51.658 78.3992 43.5936 71.5027 7.46494 68.5309C5.96714 68.4102 5.76167 66.1984 7.20545 65.7375C42.0402 54.7807 48.6799 46.2413 51.8494 8.2483C51.9783 6.67323 54.0853 6.43644 54.5103 7.94924C64.6092 44.451 72.6736 51.3475 108.802 54.3193C110.3 54.44 110.506 56.6518 109.062 57.1127V57.1127Z" stroke="black" stroke-width="2.35" stroke-linecap="round" stroke-linejoin="round"/>
</svg>
