<svg width="160" height="190" viewBox="0 0 160 190" fill="none" xmlns="http://www.w3.org/2000/svg">
<path d="M165.849 72.0178C164.707 69.0314 120.029 84.7683 120.029 84.7683L104.877 90.1053L108.235 82.7278C108.235 82.7278 121.224 54.1947 118.31 52.8252C115.396 51.4556 102.408 79.9888 102.408 79.9888L99.0493 87.3663L93.2409 72.1774C93.2409 72.1774 76.1138 27.3907 73.1346 28.44C70.1555 29.4894 87.2826 74.2761 87.2826 74.2761L93.091 89.465L85.5573 85.924C85.5573 85.924 56.42 72.2288 55.1212 75.0821C53.8223 77.9355 82.9596 91.6306 82.9596 91.6306L90.4933 95.1716L75.3413 100.509C75.3413 100.509 30.6632 116.246 31.8052 119.232C32.9473 122.218 77.6253 106.481 77.6253 106.481L92.7774 101.144L89.4191 108.522C89.4191 108.522 76.4305 137.055 79.3442 138.425C82.2579 139.794 95.2465 111.261 95.2465 111.261L98.6048 103.883L104.413 119.072C104.413 119.072 121.54 163.859 124.52 162.81C127.499 161.76 110.372 116.974 110.372 116.974L104.563 101.785L112.097 105.326C112.097 105.326 141.234 119.021 142.533 116.168C143.832 113.314 114.695 99.6192 114.695 99.6192L107.161 96.0782L122.313 90.7412C122.313 90.7412 166.991 75.0042 165.849 72.0178Z" fill="black"/>
<path d="M159.732 70.1634C158.59 67.1768 113.91 82.9069 113.91 82.9069L98.7568 88.2415L102.116 80.8645C102.116 80.8645 115.11 52.3332 112.197 50.9633C109.283 49.5933 96.2894 78.1246 96.2894 78.1246L92.9298 85.5016L87.1241 70.3117C87.1241 70.3117 70.0051 25.5221 67.0258 26.571C64.0464 27.6198 81.1654 72.4095 81.1654 72.4095L86.9711 87.5993L79.4381 84.0572C79.4381 84.0572 50.3034 70.3574 49.004 73.2105C47.7047 76.0636 76.8394 89.7634 76.8394 89.7634L84.3724 93.3056L69.2195 98.6403C69.2195 98.6403 24.5388 114.37 25.6803 117.357C26.8219 120.344 71.5025 104.613 71.5025 104.613L86.6554 99.2788L83.2958 106.656C83.2958 106.656 70.3022 135.187 73.2157 136.557C76.1292 137.927 89.1228 109.396 89.1228 109.396L92.4824 102.019L98.2881 117.209C98.2881 117.209 115.407 161.998 118.386 160.949C121.366 159.901 104.247 115.111 104.247 115.111L98.4411 99.921L105.974 103.463C105.974 103.463 135.109 117.163 136.408 114.31C137.708 111.457 108.573 97.7569 108.573 97.7569L101.04 94.2147L116.193 88.8801C116.193 88.8801 160.873 73.15 159.732 70.1634Z" fill="#FF8B13" stroke="black" stroke-width="2.35" stroke-linecap="round" stroke-linejoin="round"/>
</svg>
