<svg width="94" height="106" viewBox="0 0 94 106" fill="none" xmlns="http://www.w3.org/2000/svg">
<path d="M88.3567 52.0413C62.3737 60.9151 57.5012 68.0233 55.5964 99.8958C55.5192 101.217 53.9424 101.396 53.6049 100.122C45.5797 69.3772 39.4474 63.5107 12.3214 60.6766C11.1968 60.5613 11.0153 58.7021 12.0922 58.3286C38.0751 49.4549 42.9476 42.3467 44.8524 10.4741C44.9296 9.15276 46.5064 8.97368 46.8439 10.248C54.8691 40.9927 61.0014 46.8593 88.1274 49.6933C89.252 49.8087 89.4335 51.6678 88.3567 52.0413Z" fill="black"/>
<path d="M82.4781 47.7546C56.5536 56.6809 51.6852 63.8109 49.7449 95.7554C49.6663 97.0798 48.0934 97.2613 47.7585 95.9847C39.794 65.183 33.6856 59.3115 6.63594 56.5059C5.51456 56.3917 5.3359 54.5288 6.41031 54.1531C32.3348 45.2268 37.2032 38.0968 39.1435 6.15228C39.2221 4.82794 40.795 4.64645 41.1299 5.92307C49.0945 36.7247 55.2028 42.5962 82.2525 45.4018C83.3739 45.516 83.5525 47.379 82.4781 47.7546Z" fill="#8F55FF"/>
<path d="M82.4781 47.7546C56.5536 56.6809 51.6852 63.8109 49.7449 95.7554C49.6663 97.0798 48.0934 97.2613 47.7585 95.9847C39.794 65.183 33.6856 59.3115 6.63595 56.5059C5.51456 56.3917 5.3359 54.5288 6.41031 54.1531C32.3348 45.2268 37.2032 38.0968 39.1435 6.15228C39.2221 4.82794 40.795 4.64645 41.1299 5.92307C49.0945 36.7247 55.2028 42.5962 82.2525 45.4018C83.3739 45.516 83.5525 47.379 82.4781 47.7546V47.7546Z" stroke="black" stroke-width="2.35" stroke-linecap="round" stroke-linejoin="round"/>
</svg>
