<svg width="213" height="252" viewBox="0 0 213 252" fill="none" xmlns="http://www.w3.org/2000/svg">
<path d="M178.983 96.3734C177.496 92.3904 117.922 112.857 117.922 112.857L97.718 119.798L102.26 110.022C102.26 110.022 119.825 72.2132 115.965 70.3621C112.104 68.5109 94.5387 106.32 94.5387 106.32L89.997 116.096L82.4294 95.8381C82.4294 95.8381 60.1154 36.1054 56.143 37.4702C52.1705 38.8349 74.4846 98.5676 74.4846 98.5676L82.0521 118.825L72.0704 114.039C72.0704 114.039 33.4654 95.5274 31.7088 99.3083C29.9523 103.089 68.5573 121.601 68.5573 121.601L78.539 126.387L58.3352 133.328C58.3352 133.328 -1.23863 153.795 0.249285 157.778C1.7372 161.761 61.3111 141.294 61.3111 141.294L81.5148 134.353L76.973 144.129C76.973 144.129 59.4073 181.938 63.2679 183.789C67.1284 185.64 84.694 147.831 84.694 147.831L89.2358 138.055L96.8033 158.313C96.8033 158.313 119.117 218.046 123.09 216.681C127.062 215.316 104.748 155.583 104.748 155.583L97.1807 135.326L107.162 140.112C107.162 140.112 145.767 158.624 147.524 154.843C149.28 151.062 110.675 132.55 110.675 132.55L100.694 127.764L120.898 120.823C120.898 120.823 180.471 100.356 178.983 96.3734Z" fill="black"/>
<path d="M170.868 93.8444C169.381 89.8611 109.804 110.319 109.804 110.319L89.5988 117.256L94.1423 107.481C94.1423 107.481 111.715 69.6748 107.854 67.8231C103.994 65.9713 86.422 103.778 86.422 103.778L81.8785 113.553L74.3146 93.294C74.3146 93.294 52.0113 33.5576 48.0387 34.9217C44.066 36.2858 66.3693 96.0222 66.3693 96.0222L73.9332 116.281L63.9524 111.493C63.9524 111.493 25.3509 92.9756 23.5936 96.7563C21.8364 100.537 60.4379 119.055 60.4379 119.055L70.4187 123.842L50.2138 130.78C50.2138 130.78 -9.36341 151.238 -7.87621 155.221C-6.38901 159.204 53.1882 138.747 53.1882 138.747L73.3931 131.809L68.8496 141.584C68.8496 141.584 51.2773 179.391 55.1374 181.242C58.9976 183.094 76.5699 145.288 76.5699 145.288L81.1134 135.512L88.6773 155.771C88.6773 155.771 110.981 215.508 114.953 214.144C118.926 212.78 96.6226 153.043 96.6226 153.043L89.0587 132.784L99.0395 137.572C99.0395 137.572 137.641 156.09 139.398 152.309C141.156 148.528 102.554 130.011 102.554 130.011L92.5732 125.223L112.778 118.285C112.778 118.285 172.355 97.8277 170.868 93.8444Z" fill="#FF8B13" stroke="black" stroke-width="2.35" stroke-linecap="round" stroke-linejoin="round"/>
</svg>
