<svg width="243" height="292" viewBox="0 0 243 292" fill="none" xmlns="http://www.w3.org/2000/svg">
<path d="M124.546 173.794C123.611 171.8 125.332 169.53 127.449 170.006C137.108 172.154 146.829 174.074 156.628 175.709C173.363 178.421 190.235 180.556 207.587 181.003C210.288 181.066 211.309 177.317 208.949 175.997C193.773 167.556 178.154 160.815 162.362 154.639C153.091 151.063 143.724 147.768 134.314 144.706C132.25 144.04 131.917 141.209 133.732 139.967C136.906 137.787 140.062 135.602 143.17 133.302C152.334 126.482 161.323 119.368 169.856 111.393C171.941 109.448 170.065 105.991 167.382 106.873C156.468 110.496 146.032 114.965 135.75 119.742C132.268 121.388 128.844 123.111 125.434 124.858C123.487 125.859 121.32 124.122 121.818 121.927C124.059 111.886 126.097 101.789 127.879 91.6221C130.8 74.3028 133.165 56.8522 133.94 38.9467C134.069 36.1598 130.42 35.1628 129.118 37.6291C120.715 53.4505 113.912 69.6887 107.654 86.0963C104.021 95.7571 100.662 105.493 97.5233 115.289C96.8411 117.434 94.094 117.828 92.924 115.975C90.8704 112.735 88.7934 109.509 86.6275 106.321C80.188 96.9749 73.4611 87.8164 65.8928 79.1437C64.0467 77.0239 60.6656 79.0242 61.4718 81.7801C64.7838 92.991 68.9239 103.692 73.3646 114.23C74.8956 117.797 76.5023 121.304 78.1326 124.796C79.0675 126.789 77.3466 129.059 75.2304 128.583C65.5479 126.449 55.8084 124.524 45.9963 122.866C29.2793 120.159 12.4252 118.028 -4.8978 117.548C-7.59392 117.466 -8.62468 121.254 -6.26007 122.554C8.90821 130.952 24.5088 137.689 40.2831 143.859C49.5536 147.435 58.9202 150.73 68.3306 153.792C70.395 154.459 70.7277 157.29 68.9123 158.532C65.7385 160.711 62.5778 162.915 59.475 165.196C50.2869 172.03 41.275 179.158 32.7315 187.171C30.6459 189.116 32.5272 192.555 35.2049 191.691C46.1376 188.073 56.615 183.595 66.9214 178.804C70.3795 177.173 73.7981 175.469 77.1903 173.717C79.1374 172.715 81.3043 174.452 80.8055 176.647C78.5521 186.665 76.5188 196.742 74.7604 206.895C71.8346 224.234 69.464 241.703 68.7202 259.638C68.6104 262.43 72.2226 263.417 73.5425 260.955C81.9875 245.125 88.7954 228.868 95.0584 212.441C98.6869 202.799 102.04 193.082 105.174 183.305C105.856 181.161 108.603 180.766 109.773 182.619C111.809 185.854 113.891 189.061 116.043 192.226C122.496 201.595 129.236 210.778 136.841 219.461C138.687 221.581 142.05 219.575 141.262 216.824C137.955 205.594 133.807 194.85 129.353 184.288C127.836 180.745 126.247 177.244 124.612 173.771L124.546 173.794Z" fill="black"/>
<path d="M117.341 167.204C116.406 165.211 118.127 162.941 120.243 163.417C129.902 165.565 139.623 167.485 149.422 169.119C166.158 171.831 183.03 173.967 200.382 174.414C203.083 174.477 204.103 170.727 201.744 169.408C186.568 160.967 170.949 154.225 155.156 148.05C145.886 144.474 136.519 141.179 127.109 138.117C125.044 137.45 124.712 134.619 126.527 133.377C129.701 131.198 132.856 129.013 135.964 126.713C145.129 119.893 154.117 112.779 162.65 104.804C164.736 102.859 162.86 99.4015 160.177 100.284C149.263 103.907 138.827 108.376 128.544 113.153C125.063 114.798 121.639 116.521 118.228 118.268C116.281 119.27 114.114 117.533 114.613 115.338C116.853 105.296 118.892 95.1995 120.674 85.0327C123.595 67.7134 125.96 50.2628 126.735 32.3573C126.863 29.5704 123.215 28.5734 121.913 31.0397C113.51 46.8611 106.707 63.0993 100.449 79.5068C96.8155 89.1677 93.4567 98.9036 90.318 108.7C89.6358 110.844 86.8888 111.239 85.7187 109.386C83.6652 106.146 81.5881 102.92 79.4222 99.7313C72.9827 90.3854 66.2559 81.2269 58.6876 72.5542C56.8415 70.4344 53.4604 72.4347 54.2666 75.1906C57.5786 86.4015 61.7187 97.1026 66.1594 107.64C67.6904 111.208 69.2971 114.714 70.9273 118.206C71.8622 120.2 70.1413 122.47 68.0251 121.994C58.3426 119.86 48.6031 117.935 38.7911 116.276C22.0741 113.569 5.21998 111.439 -12.1031 110.959C-14.7992 110.877 -15.83 114.664 -13.4653 115.965C1.70292 124.362 17.3035 131.099 33.0778 137.27C42.3483 140.846 51.7149 144.141 61.1253 147.203C63.1897 147.869 63.5224 150.7 61.7069 151.942C58.5331 154.122 55.3725 156.326 52.2697 158.606C43.0815 165.441 34.0696 172.569 25.5262 180.582C23.4405 182.527 25.3218 185.965 27.9995 185.102C38.9322 181.484 49.4097 177.006 59.7161 172.215C63.1741 170.583 66.5927 168.879 69.985 167.127C71.932 166.126 74.099 167.863 73.6002 170.058C71.3467 180.075 69.3134 190.153 67.555 200.306C64.6292 217.644 62.2585 235.114 61.5146 253.048C61.4049 255.84 65.0171 256.827 66.337 254.366C74.782 238.535 81.5899 222.278 87.8529 205.852C91.4815 196.21 94.8351 186.493 97.9686 176.716C98.6508 174.571 101.398 174.177 102.568 176.03C104.603 179.265 106.685 182.472 108.838 185.636C115.291 195.006 122.031 204.189 129.636 212.871C131.482 214.991 134.845 212.986 134.057 210.235C130.75 199.005 126.602 188.261 122.148 177.699C120.63 174.156 119.042 170.654 117.406 167.181L117.341 167.204Z" fill="#8F55FF" stroke="black" stroke-width="2.35" stroke-linecap="round" stroke-linejoin="round"/>
</svg>
