<svg width="142" height="205" viewBox="0 0 142 205" fill="none" xmlns="http://www.w3.org/2000/svg">
<path d="M59.0058 121.928C58.3768 120.54 59.5883 118.985 61.0486 119.333C67.7141 120.907 74.4247 122.324 81.1917 123.544C92.7496 125.572 104.408 127.202 116.413 127.668C118.282 127.736 119.022 125.151 117.401 124.216C106.973 118.237 96.2247 113.43 85.3505 109.013C78.9667 106.455 72.514 104.089 66.0288 101.885C64.6061 101.406 64.4014 99.4432 65.6691 98.6C67.8853 97.1201 70.0889 95.6366 72.2607 94.073C78.6651 89.4354 84.9502 84.593 90.9279 79.151C92.389 77.8235 91.1217 75.4139 89.257 76.0003C81.6705 78.409 74.4077 81.4079 67.2478 84.621C64.8234 85.7285 62.4383 86.8899 60.062 88.0681C58.7055 88.7437 57.2214 87.5219 57.5865 86.0074C59.2277 79.0779 60.7298 72.1085 62.0548 65.0882C64.2327 53.128 66.0275 41.072 66.7259 28.6867C66.8397 26.7591 64.3234 26.0361 63.4003 27.7313C57.4416 38.6052 52.5867 49.7821 48.1075 61.0811C45.5053 67.7344 43.0928 74.4423 40.832 81.1937C40.3405 82.6719 38.4357 82.9201 37.6426 81.6269C36.2507 79.3661 34.8423 77.1147 33.3721 74.8883C28.9998 68.3619 24.427 61.9626 19.2674 55.8919C18.0088 54.4081 15.6507 55.762 16.1838 57.6766C18.3747 65.4655 21.1434 72.909 24.1215 80.2423C25.1489 82.7251 26.2292 85.1663 27.3259 87.598C27.955 88.9861 26.7434 90.5416 25.2831 90.193C18.6012 88.6284 11.878 87.2082 5.10212 85.9717C-6.44315 83.9474 -18.0885 82.3204 -30.0733 81.8318C-31.9385 81.7505 -32.6861 84.3626 -31.0613 85.284C-20.6394 91.233 -9.9032 96.0364 0.958327 100.45C7.34208 103.008 13.7948 105.373 20.28 107.578C21.7028 108.057 21.9075 110.02 20.6398 110.863C18.4235 112.343 16.2162 113.839 14.0481 115.39C7.62732 120.037 1.32583 124.889 -4.65943 130.357C-6.12047 131.685 -4.84947 134.081 -2.98847 133.508C4.61067 131.103 11.9025 128.098 19.0788 124.876C21.4868 123.777 23.8681 122.629 26.2317 121.447C27.5883 120.772 29.0724 121.994 28.7073 123.508C27.0572 130.421 25.5589 137.377 24.2502 144.388C22.0686 156.361 20.2701 168.43 19.5932 180.836C19.492 182.767 21.9831 183.483 22.9188 181.791C28.9066 170.912 33.7651 159.722 38.2481 148.41C40.8466 141.769 43.2554 135.075 45.5124 128.336C46.0039 126.858 47.9087 126.61 48.7018 127.903C50.0811 130.16 51.4932 132.399 52.9545 134.608C57.3356 141.151 61.9174 147.567 67.1023 153.645C68.3608 155.129 70.7063 153.772 70.1858 151.861C67.9987 144.059 65.2249 136.585 62.2379 129.235C61.2194 126.769 60.1517 124.332 59.0513 121.913L59.0058 121.928Z" fill="black"/>
<path d="M54.0784 117.303C53.4493 115.915 54.6609 114.359 56.1212 114.708C62.7867 116.282 69.4973 117.698 76.2642 118.918C87.8221 120.946 99.4801 122.577 111.485 123.043C113.354 123.111 114.094 120.525 112.473 119.591C102.046 113.612 91.2972 108.805 80.4231 104.388C74.0393 101.829 67.5866 99.4639 61.1014 97.2597C59.6786 96.7799 59.4739 94.8176 60.7416 93.9744C62.9579 92.4945 65.1615 91.011 67.3333 89.4474C73.7377 84.8098 80.0228 79.9675 86.0006 74.5254C87.4616 73.198 86.1944 70.7883 84.3296 71.3748C76.7431 73.7834 69.4803 76.7823 62.3205 79.9954C59.896 81.1029 57.5109 82.2643 55.1347 83.4425C53.7781 84.1181 52.294 82.8963 52.6591 81.3817C54.3003 74.4523 55.8024 67.4829 57.1275 60.4626C59.3054 48.5024 61.1002 36.4464 61.7986 24.0611C61.9124 22.1335 59.3961 21.4105 58.473 23.1057C52.5143 33.9796 47.6594 45.1565 43.1802 56.4554C40.5779 63.1088 38.1654 69.8166 35.9046 76.568C35.4131 78.0462 33.5083 78.2945 32.7152 77.0012C31.3233 74.7404 29.915 72.4891 28.4448 70.2626C24.0725 63.7362 19.4996 57.3369 14.34 51.2662C13.0815 49.7824 10.7234 51.1363 11.2565 53.0509C13.4474 60.8398 16.216 68.2834 19.1942 75.6166C20.2215 78.0994 21.3018 80.5406 22.3985 82.9723C23.0276 84.3605 21.816 85.9159 20.3557 85.5674C13.6738 84.0027 6.95057 82.5825 0.174733 81.346C-11.3705 79.3216 -23.0159 77.6947 -35.0007 77.2061C-36.8659 77.1247 -37.6135 79.7368 -35.9887 80.6582C-25.5668 86.6072 -14.8306 91.4106 -3.96908 95.8239C2.41467 98.3825 8.86742 100.748 15.3526 102.952C16.7753 103.432 16.98 105.394 15.7123 106.237C13.4961 107.717 11.2887 109.214 9.12066 110.764C2.69987 115.411 -3.60162 120.263 -9.58689 125.731C-11.0479 127.059 -9.77694 129.455 -7.91594 128.882C-0.316797 126.477 6.97502 123.472 14.1513 120.25C16.5593 119.152 18.9407 118.004 21.3043 116.822C22.6609 116.146 24.1449 117.368 23.7799 118.882C22.1298 125.795 20.6314 132.751 19.3227 139.762C17.1411 151.736 15.3425 163.805 14.6656 176.21C14.5645 178.142 17.0555 178.857 17.9913 177.166C23.979 166.286 28.8376 155.096 33.3206 143.784C35.9191 137.144 38.3279 130.449 40.5849 123.711C41.0764 122.232 42.9812 121.984 43.7743 123.278C45.1536 125.535 46.5657 127.773 48.027 129.983C52.4082 136.526 56.9899 142.942 62.1748 149.02C63.4333 150.504 65.7788 149.146 65.2583 147.235C63.0712 139.433 60.2974 131.96 57.3104 124.61C56.2919 122.144 55.2243 119.706 54.1238 117.287L54.0784 117.303Z" fill="#FF8B13" stroke="black" stroke-width="2.35" stroke-linecap="round" stroke-linejoin="round"/>
</svg>
