<svg width="77" height="79" viewBox="0 0 77 79" fill="none" xmlns="http://www.w3.org/2000/svg">
<path d="M71.7457 45.3471C49.326 47.6914 44.2685 52.0566 37.7314 74.7414C37.4618 75.6822 36.1576 75.5652 36.0842 74.5938C34.4078 51.1727 30.3642 45.9857 8.85442 39.7096C7.96237 39.4509 8.10685 38.082 9.03689 37.9808C31.4566 35.6365 36.5141 31.2713 43.0512 8.58648C43.3207 7.64574 44.625 7.76265 44.6984 8.73413C46.3747 32.1552 50.4183 37.3422 71.9282 43.6183C72.8202 43.877 72.6757 45.2458 71.7457 45.3471Z" fill="black"/>
<path d="M67.6606 41.3388C45.28 43.7301 40.2223 48.1116 33.6453 70.8428C33.3741 71.7855 32.0727 71.6709 32.0017 70.6982C30.3833 47.2455 26.3598 42.0587 4.90741 35.815C4.01773 35.5577 4.16513 34.1865 5.09355 34.0833C27.4742 31.692 32.5318 27.3105 39.1089 4.57928C39.3801 3.63662 40.6815 3.75118 40.7524 4.72396C42.3708 28.1766 46.3943 33.3634 67.8467 39.6071C68.7364 39.8644 68.589 41.2356 67.6606 41.3388Z" fill="#FCF43D"/>
<path d="M67.6606 41.3388C45.28 43.7301 40.2223 48.1116 33.6453 70.8428C33.3741 71.7855 32.0727 71.6709 32.0017 70.6981C30.3833 47.2455 26.3598 42.0587 4.90741 35.815C4.01773 35.5577 4.16513 34.1865 5.09355 34.0833C27.4742 31.692 32.5318 27.3105 39.1089 4.57928C39.3801 3.63662 40.6815 3.75118 40.7524 4.72396C42.3708 28.1766 46.3943 33.3634 67.8467 39.6071C68.7364 39.8644 68.589 41.2356 67.6606 41.3388V41.3388Z" stroke="black" stroke-width="2.35" stroke-linecap="round" stroke-linejoin="round"/>
</svg>
