<svg width="173" height="177" viewBox="0 0 173 177" fill="none" xmlns="http://www.w3.org/2000/svg">
<path d="M110.35 101.593C109.294 100.436 109.984 98.5316 111.522 98.4085C118.536 97.83 125.543 97.0833 132.544 96.1263C144.482 94.4377 156.392 92.329 168.272 88.972C170.12 88.4452 170.022 85.6832 168.141 85.2848C156.053 82.7533 144.022 81.4692 131.993 80.6061C124.942 80.1331 117.886 79.8708 110.848 79.7763C109.305 79.7593 108.482 77.9066 109.453 76.68C111.149 74.5301 112.831 72.3806 114.457 70.1629C119.243 63.5971 123.847 56.8692 127.961 49.6528C128.967 47.8916 126.963 45.9392 125.327 47.1045C118.678 51.8675 112.533 57.1044 106.557 62.5181C104.539 64.3703 102.577 66.2627 100.629 68.1686C99.5183 69.2597 97.68 68.5369 97.5558 66.941C96.9591 59.6482 96.2137 52.3605 95.2793 45.0793C93.6094 32.7 91.5347 20.3485 88.2841 8.0236C87.7832 6.10373 85.0946 6.19634 84.7309 8.14599C82.361 20.6645 81.1662 33.1285 80.3771 45.5926C79.947 52.9208 79.7196 60.242 79.6543 67.5576C79.6434 69.1582 77.8608 70.0056 76.6751 68.9937C74.5969 67.2264 72.5057 65.4736 70.362 63.7647C64.0167 58.7755 57.5158 53.9741 50.546 49.6802C48.8449 48.6298 46.9704 50.7017 48.0994 52.4034C52.7138 59.3192 57.7833 65.714 63.0223 71.9345C64.8147 74.0345 66.6457 76.077 68.4896 78.105C69.5452 79.2618 68.8552 81.1665 67.3174 81.2897C60.2909 81.8826 53.2697 82.6298 46.2556 83.5732C34.3304 85.2614 22.4337 87.3696 10.5667 90.6981C8.71811 91.2109 8.81702 94.0009 10.6974 94.3853C22.7712 96.8892 34.7882 98.1738 46.8038 99.0373C53.8547 99.5103 60.9116 99.7726 67.949 99.8671C69.4917 99.8842 70.3149 101.737 69.3439 102.963C67.648 105.113 65.9662 107.277 64.3399 109.481C59.5411 116.061 54.924 122.803 50.8115 130.048C49.8053 131.809 51.8084 133.747 53.445 132.596C60.1073 127.832 66.2788 122.581 72.2683 117.152C74.2728 115.315 76.2352 113.436 78.1697 111.531C79.2808 110.44 81.1191 111.163 81.2433 112.759C81.826 120.038 82.5708 127.311 83.5184 134.578C85.1887 146.972 87.2639 159.337 90.542 171.675C91.0564 173.594 93.718 173.503 94.0953 171.553C96.4916 159.019 97.686 146.541 98.4746 134.063C98.9051 126.749 99.1331 119.442 99.1988 112.14C99.2097 110.54 100.992 109.692 102.178 110.704C104.243 112.472 106.333 114.211 108.463 115.906C114.822 120.909 121.337 125.724 128.334 130.017C130.035 131.067 131.896 128.995 130.781 127.293C126.166 120.364 121.082 113.941 115.829 107.707C114.05 105.621 112.233 103.578 110.39 101.564L110.35 101.593Z" fill="black"/>
<path d="M104.066 98.6377C103.01 97.4809 103.7 95.5762 105.238 95.453C112.251 94.8746 119.259 94.1279 126.259 93.1709C138.198 91.4823 150.108 89.3736 161.988 86.0167C163.836 85.4898 163.738 82.7279 161.857 82.3294C149.769 79.798 137.738 78.5138 125.709 77.6507C118.658 77.1777 111.601 76.9154 104.564 76.8209C103.021 76.8038 102.198 74.9512 103.169 73.7246C104.865 71.5746 106.547 69.4252 108.173 67.2075C112.959 60.6417 117.563 53.9137 121.676 46.6974C122.682 44.9361 120.679 42.9838 119.043 44.1491C112.394 48.9121 106.249 54.149 100.273 59.5626C98.2551 61.4148 96.2931 63.3072 94.3451 65.2132C93.234 66.3042 91.3958 65.5815 91.2716 63.9855C90.6748 56.6927 89.9295 49.405 88.995 42.1239C87.3252 29.7445 85.2506 17.3931 82 5.06812C81.499 3.14824 78.8104 3.24084 78.4467 5.1905C76.0769 17.709 74.8819 30.173 74.0928 42.6371C73.6628 49.9653 73.4353 57.2865 73.37 64.6021C73.3591 66.2027 71.5765 67.0501 70.3909 66.0382C68.3127 64.2709 66.2215 62.5181 64.0777 60.8092C57.7325 55.82 51.2316 51.0186 44.2617 46.7246C42.5606 45.6743 40.6862 47.7462 41.8152 49.4479C46.4296 56.3637 51.499 62.7584 56.7381 68.9789C58.5304 71.0789 60.3614 73.1214 62.2053 75.1495C63.2609 76.3063 62.5709 78.211 61.0332 78.3342C54.0066 78.9271 46.9854 79.6742 39.9713 80.6177C28.0461 82.3058 16.1494 84.414 4.28235 87.7424C2.43379 88.2553 2.5327 91.0453 4.41307 91.4297C16.4868 93.9336 28.5039 95.2182 40.5195 96.0818C47.5703 96.5548 54.6273 96.8171 61.6647 96.9116C63.2074 96.9287 64.0306 98.7813 63.0595 100.008C61.3637 102.158 59.6819 104.321 58.0556 106.525C53.2568 113.105 48.6396 119.848 44.5272 127.092C43.521 128.853 45.524 130.792 47.1606 129.64C53.8229 124.877 59.9945 119.625 65.9839 114.197C67.9884 112.359 69.9509 110.481 71.8853 108.575C72.9965 107.484 74.8347 108.207 74.9589 109.803C75.5416 117.082 76.2865 124.356 77.234 131.623C78.9043 144.016 80.9794 156.381 84.2575 168.72C84.772 170.639 87.4336 170.547 87.8108 168.597C90.2072 156.064 91.4016 143.586 92.1902 131.108C92.6208 123.793 92.8487 116.486 92.9145 109.185C92.9254 107.584 94.708 106.737 95.8937 107.749C97.9583 109.516 100.049 111.255 102.179 112.95C108.538 117.953 115.053 122.768 122.05 127.061C123.751 128.111 125.612 126.04 124.496 124.338C119.881 117.408 114.798 110.986 109.544 104.752C107.766 102.665 105.949 100.622 104.105 98.6083L104.066 98.6377Z" fill="#FF8B13" stroke="black" stroke-width="2.35" stroke-linecap="round" stroke-linejoin="round"/>
</svg>
