<svg width="187" height="278" viewBox="0 0 187 278" fill="none" xmlns="http://www.w3.org/2000/svg">
<path d="M164.081 164.774C164.971 159.776 93.4239 145.059 93.4239 145.059L69.1595 140.068L79.5079 132.726C79.5079 132.726 119.532 104.327 116.788 100.099C114.044 95.8718 74.0206 124.271 74.0206 124.271L63.6721 131.614L68.1995 106.193C68.1995 106.193 81.5491 31.2381 76.7783 30.2568C72.0074 29.2755 58.6578 104.231 58.6578 104.231L54.1305 129.651L47.0365 118.72C47.0365 118.72 19.5999 76.4459 15.5976 79.2858C11.5952 82.1257 39.0318 124.4 39.0318 124.4L46.1257 135.331L21.8614 130.34C21.8614 130.34 -49.686 115.624 -50.5761 120.622C-51.4663 125.62 20.081 140.336 20.081 140.336L44.3454 145.327L33.997 152.67C33.997 152.67 -6.02662 181.069 -3.28296 185.296C-0.539302 189.524 39.4843 161.125 39.4843 161.125L49.8327 153.782L45.3054 179.202C45.3054 179.202 31.9558 254.157 36.7266 255.139C41.4974 256.12 54.8471 181.165 54.8471 181.165L59.3744 155.744L66.4684 166.675C66.4684 166.675 93.905 208.949 97.9073 206.11C101.91 203.27 74.4731 160.995 74.4731 160.995L67.3791 150.065L91.6435 155.055C91.6435 155.055 163.191 169.772 164.081 164.774Z" fill="black"/>
<path d="M157.502 157.291C158.393 152.293 86.8474 137.565 86.8474 137.565L62.5837 132.57L72.9334 125.229C72.9334 125.229 112.962 96.8367 110.219 92.6088C107.476 88.381 67.4476 116.773 67.4476 116.773L57.0978 124.114L61.6295 98.695C61.6295 98.695 74.9921 23.7423 70.2214 22.7602C65.4507 21.7781 52.0881 96.7309 52.0881 96.7309L47.5564 122.15L40.4643 111.219C40.4643 111.219 13.0348 68.9398 9.03191 71.7791C5.02904 74.6183 32.4585 116.897 32.4585 116.897L39.5507 127.829L15.287 122.834C15.287 122.834 -56.2582 108.106 -57.1492 113.104C-58.0403 118.102 13.5049 132.83 13.5049 132.83L37.7686 137.824L27.4188 145.166C27.4188 145.166 -12.6099 173.558 -9.86692 177.786C-7.12397 182.014 32.9047 153.621 32.9047 153.621L43.2545 146.28L38.7228 171.7C38.7228 171.7 25.3602 246.652 30.1309 247.634C34.9016 248.616 48.2641 173.664 48.2641 173.664L52.7959 148.244L59.888 159.176C59.888 159.176 87.3175 201.455 91.3204 198.615C95.3233 195.776 67.8938 153.497 67.8938 153.497L60.8016 142.566L85.0653 147.561C85.0653 147.561 156.611 162.289 157.502 157.291Z" fill="#FCF43D" stroke="black" stroke-width="2.35" stroke-linecap="round" stroke-linejoin="round"/>
</svg>
