<svg width="93" height="97" viewBox="0 0 93 97" fill="none" xmlns="http://www.w3.org/2000/svg">
<path d="M77.5449 36.2124C60.0839 49.7617 58.1649 56.1524 64.6574 79.2249C64.928 80.1809 63.7788 80.749 63.2061 79.9423C49.4769 60.4473 43.3741 58.0155 22.1332 63.6053C21.2531 63.8386 20.6529 62.5747 21.3751 62.0091C38.8361 48.4599 40.7551 42.0691 34.2626 18.9967C33.9921 18.0406 35.1412 17.4726 35.7139 18.2792C49.4431 37.7742 55.5459 40.2061 76.7869 34.6162C77.6669 34.383 78.2671 35.6469 77.5449 36.2124Z" fill="black"/>
<path d="M72.0284 34.8269C54.6248 48.397 52.7142 54.8019 59.1979 77.9352C59.468 78.8938 58.3225 79.4624 57.7511 78.6534C44.0537 59.1012 37.9677 56.6592 16.7917 62.2478C15.9144 62.481 15.3153 61.2135 16.0352 60.6471C33.4388 47.0771 35.3494 40.6721 28.8658 17.5388C28.5956 16.5802 29.7411 16.0116 30.3125 16.8206C44.0099 36.3728 50.0959 38.8148 71.2719 33.2262C72.1492 32.993 72.7483 34.2605 72.0284 34.8269Z" fill="white"/>
<path d="M72.0284 34.8269C54.6248 48.3969 52.7142 54.8019 59.1979 77.9352C59.468 78.8938 58.3225 79.4624 57.7511 78.6534C44.0537 59.1012 37.9677 56.6592 16.7917 62.2478C15.9144 62.481 15.3153 61.2135 16.0352 60.6471C33.4388 47.0771 35.3494 40.6721 28.8658 17.5388C28.5956 16.5802 29.7411 16.0116 30.3125 16.8206C44.0099 36.3728 50.0959 38.8148 71.2719 33.2262C72.1492 32.993 72.7483 34.2605 72.0284 34.8269V34.8269Z" stroke="black" stroke-width="2.35" stroke-linecap="round" stroke-linejoin="round"/>
</svg>
