<svg width="301" height="307" viewBox="0 0 301 307" fill="none" xmlns="http://www.w3.org/2000/svg">
<path d="M259.466 197.5L169.231 188.945C168.252 188.849 167.329 189.369 166.831 190.251L122.596 271.973C121.297 274.357 117.758 273.26 118.055 270.565L127.804 178.152C127.914 177.15 127.419 176.213 126.564 175.718L47.2937 131.724C44.9816 130.431 46.1087 126.796 48.7401 127.059L138.974 135.614C139.953 135.71 140.877 135.19 141.374 134.307L185.609 52.5854C186.909 50.2011 190.448 51.2981 190.15 53.9931L180.401 146.406C180.292 147.409 180.786 148.345 181.642 148.841L260.891 192.828C263.203 194.121 262.076 197.756 259.445 197.493L259.466 197.5Z" fill="black"/>
<path d="M252.086 179.571L161.852 171.017C160.873 170.92 159.949 171.44 159.451 172.323L115.216 254.045C113.917 256.429 110.378 255.332 110.676 252.637L120.425 160.224C120.534 159.221 120.039 158.285 119.184 157.789L39.9343 113.802C37.6223 112.51 38.7494 108.874 41.3807 109.137L131.615 117.692C132.594 117.788 133.517 117.268 134.015 116.385L178.25 34.6634C179.55 32.2791 183.088 33.3761 182.791 36.0711L173.042 128.484C172.933 129.487 173.427 130.423 174.282 130.919L253.532 174.906C255.844 176.199 254.717 179.834 252.086 179.571Z" fill="#8F55FF" stroke="black" stroke-width="2.35" stroke-linecap="round" stroke-linejoin="round"/>
</svg>
