<svg width="364" height="416" viewBox="0 0 364 416" fill="none" xmlns="http://www.w3.org/2000/svg">
<path d="M157.689 346.164C163.59 348.05 192.222 258.226 192.222 258.226L201.932 227.763L209.229 242.16C209.229 242.16 237.451 297.84 242.973 294.939C248.494 292.038 220.273 236.357 220.273 236.357L212.976 221.96L242.988 231.552C242.988 231.552 331.483 259.836 333.392 253.846C335.301 247.857 246.806 219.573 246.806 219.573L216.795 209.981L231.072 202.48C231.072 202.48 286.29 173.467 283.468 167.899C280.646 162.331 225.427 191.343 225.427 191.343L211.15 198.845L220.861 168.382C220.861 168.382 249.493 78.5574 243.592 76.6715C237.691 74.7855 209.059 164.61 209.059 164.61L199.348 195.073L192.052 180.676C192.052 180.676 163.83 124.996 158.308 127.897C152.786 130.798 181.008 186.479 181.008 186.479L188.305 200.876L158.293 191.284C158.293 191.284 69.7979 163 67.8887 168.99C65.9795 174.979 154.474 203.263 154.474 203.263L184.486 212.855L170.209 220.356C170.209 220.356 114.991 249.369 117.813 254.937C120.635 260.505 175.853 231.492 175.853 231.492L190.131 223.991L180.42 254.454C180.42 254.454 151.788 344.278 157.689 346.164V346.164Z" fill="black"/>
<path d="M168.48 338.642C174.381 340.528 203.013 250.703 203.013 250.703L212.724 220.24L220.021 234.637C220.021 234.637 248.242 290.318 253.764 287.416C259.286 284.515 231.064 228.834 231.064 228.834L223.767 214.438L253.779 224.03C253.779 224.03 342.274 252.313 344.183 246.323C346.093 240.334 257.598 212.05 257.598 212.05L227.586 202.459L241.863 194.957C241.863 194.957 297.081 165.944 294.259 160.376C291.437 154.808 236.219 183.821 236.219 183.821L221.941 191.322L231.652 160.86C231.652 160.86 260.284 71.0348 254.383 69.1489C248.482 67.2629 219.85 157.088 219.85 157.088L210.14 187.551L202.843 173.154C202.843 173.154 174.621 117.473 169.099 120.375C163.577 123.276 191.799 178.957 191.799 178.957L199.096 193.353L169.084 183.761C169.084 183.761 80.589 155.478 78.6798 161.468C76.7706 167.457 165.266 195.74 165.266 195.74L195.278 205.332L181 212.834C181 212.834 125.782 241.847 128.604 247.415C131.427 252.983 186.645 223.97 186.645 223.97L200.922 216.468L191.212 246.931C191.212 246.931 162.579 336.756 168.48 338.642V338.642Z" fill="#F9346C" stroke="black" stroke-width="2.35" stroke-linecap="round" stroke-linejoin="round"/>
</svg>
