<svg width="349" height="532" viewBox="0 0 349 532" fill="none" xmlns="http://www.w3.org/2000/svg">
<path d="M486.51 297.047C487.233 286.632 332.424 269.47 332.424 269.47L279.922 263.65L300.115 246.704C300.115 246.704 378.213 181.164 371.426 172.992C364.639 164.819 286.541 230.36 286.541 230.36L266.348 247.306L270.028 194.338C270.028 194.338 280.877 38.1534 270.554 37.009C260.231 35.8646 249.382 192.049 249.382 192.049L245.703 245.017L228.155 223.887C228.155 223.887 160.287 142.165 152.477 148.719C144.667 155.273 212.535 236.995 212.535 236.995L230.083 258.125L177.581 252.305C177.581 252.305 22.772 235.143 22.0486 245.557C21.3251 255.972 176.135 273.134 176.135 273.134L228.636 278.954L208.443 295.9C208.443 295.9 130.346 361.44 137.132 369.613C143.919 377.785 222.017 312.244 222.017 312.244L242.21 295.298L238.53 348.266C238.53 348.266 227.681 504.451 238.004 505.595C248.327 506.74 259.176 350.555 259.176 350.555L262.855 297.587L280.403 318.717C280.403 318.717 348.272 400.439 356.081 393.885C363.891 387.331 296.023 305.609 296.023 305.609L278.475 284.479L330.977 290.299C330.977 290.299 485.786 307.461 486.51 297.047Z" fill="black"/>
<path d="M486.445 285.783C487.168 275.368 332.359 258.206 332.359 258.206L279.857 252.386L300.05 235.44C300.05 235.44 378.148 169.9 371.361 161.727C364.574 153.555 286.476 219.096 286.476 219.096L266.283 236.042L269.963 183.074C269.963 183.074 280.812 26.8892 270.489 25.7448C260.166 24.6005 249.317 180.785 249.317 180.785L245.638 233.753L228.09 212.623C228.09 212.623 160.222 130.901 152.412 137.455C144.602 144.009 212.47 225.731 212.47 225.731L230.018 246.861L177.516 241.041C177.516 241.041 22.7071 223.879 21.9836 234.293C21.2602 244.708 176.07 261.87 176.07 261.87L228.571 267.69L208.378 284.636C208.378 284.636 130.281 350.176 137.067 358.348C143.854 366.521 221.952 300.98 221.952 300.98L242.145 284.034L238.465 337.002C238.465 337.002 227.616 493.187 237.939 494.331C248.262 495.475 259.111 339.291 259.111 339.291L262.791 286.323L280.338 307.453C280.338 307.453 348.207 389.175 356.016 382.621C363.826 376.067 295.958 294.345 295.958 294.345L278.41 273.215L330.912 279.035C330.912 279.035 485.721 296.197 486.445 285.783Z" fill="#0071C6" stroke="black" stroke-width="2.35" stroke-linecap="round" stroke-linejoin="round"/>
</svg>
