<svg width="369" height="366" viewBox="0 0 369 366" fill="none" xmlns="http://www.w3.org/2000/svg">
<path d="M308.659 129.562C312.512 126.736 310.178 122.148 305.635 123.616C289.871 128.747 272.964 134.868 255.156 142.145C237.981 149.173 222.182 156.414 207.775 163.526C205.601 164.608 203.193 164.172 202.322 162.522C194.135 146.738 184.649 130.267 173.61 113.36C163.31 97.5924 152.736 83.0948 142.155 69.8282C139.72 66.7838 133.252 70.0737 134.253 73.8477C138.927 91.3216 144.886 108.143 151.272 124.746C158.216 142.509 165.905 159.869 174.183 176.954C174.985 178.592 173.935 180.762 171.815 181.889C156.518 190.054 141.39 198.615 126.521 207.622C111.081 217.063 95.8003 226.881 81.0506 237.679C77.1977 240.505 79.5313 245.093 84.0843 243.644C101.498 238.083 118.432 231.515 135.155 224.597C151.191 217.885 166.994 210.713 182.602 203.159C184.761 202.109 187.108 202.552 187.985 204.151C196.918 220.903 206.419 237.341 216.66 253.428C226.464 268.654 236.78 283.643 248.421 297.934C250.872 300.947 257.315 297.67 256.324 293.915C251.629 276.09 245.591 258.925 239.059 242.035C232.099 224.304 224.435 206.931 216.132 189.859C215.33 188.221 216.381 186.051 218.5 184.924C233.807 176.778 248.9 168.211 263.779 159.223C279.027 149.903 294.076 140.252 308.643 129.594L308.659 129.562Z" fill="black"/>
<path d="M287.327 126.985C291.18 124.159 288.846 119.571 284.303 121.039C268.539 126.17 251.632 132.291 233.824 139.568C216.649 146.595 200.85 153.837 186.443 160.949C184.269 162.031 181.861 161.595 180.99 159.944C172.803 144.161 163.317 127.69 152.278 110.783C141.978 95.0152 131.404 80.5177 120.823 67.2511C118.388 64.2067 111.92 67.4965 112.921 71.2705C117.595 88.7444 123.554 105.565 129.94 122.169C136.884 139.932 144.573 157.292 152.851 174.377C153.653 176.015 152.603 178.185 150.483 179.311C135.186 187.477 120.058 196.038 105.189 205.045C89.7487 214.486 74.4682 224.304 59.7185 235.102C55.8657 237.928 58.1993 242.516 62.7523 241.067C80.1662 235.506 97.0997 228.938 113.823 222.02C129.859 215.308 145.662 208.136 161.27 200.582C163.429 199.532 165.776 199.975 166.653 201.574C175.585 218.326 185.087 234.764 195.328 250.851C205.132 266.077 215.448 281.066 227.089 295.357C229.54 298.37 235.983 295.093 234.992 291.338C230.297 273.513 224.259 256.348 217.727 239.458C210.767 221.726 203.103 204.354 194.8 187.282C193.998 185.644 195.048 183.473 197.168 182.347C212.475 174.201 227.568 165.634 242.447 156.646C257.695 147.326 272.744 137.675 287.311 127.017L287.327 126.985Z" fill="#FCF43D" stroke="black" stroke-width="2.35" stroke-linecap="round" stroke-linejoin="round"/>
</svg>
