<svg width="130" height="129" viewBox="0 0 130 129" fill="none" xmlns="http://www.w3.org/2000/svg">
<path d="M112.651 51.1614C84.0766 67.774 79.9812 76.3868 85.129 109.133C85.3446 110.49 83.5271 111.135 82.8337 109.947C66.2405 81.2648 57.6499 77.1468 25.0123 82.2735C23.6598 82.4882 23.0145 80.6643 24.1974 79.97C52.7715 63.3574 56.8669 54.7446 51.7191 21.9989C51.5036 20.6418 53.3211 19.9966 54.0145 21.184C70.6077 49.8666 79.1982 53.9846 111.836 48.8579C113.188 48.6432 113.834 50.4671 112.651 51.1614Z" fill="black"/>
<path d="M104.92 48.5657C76.3444 65.1791 72.2486 73.7919 77.3952 106.537C77.6107 107.894 75.7932 108.539 75.0998 107.352C58.5074 78.6704 49.9169 74.5527 17.2784 79.6806C15.9259 79.8954 15.2807 78.0715 16.4636 77.3772C45.0389 60.7638 49.1347 52.151 43.9881 19.4061C43.7726 18.0491 45.5901 17.4038 46.2835 18.5911C62.8759 47.2725 71.4664 51.3902 104.105 46.2623C105.457 46.0476 106.103 47.8714 104.92 48.5657V48.5657Z" fill="#F9346C"/>
<path d="M104.92 48.5657C76.3444 65.1791 72.2486 73.7919 77.3952 106.537C77.6107 107.894 75.7932 108.539 75.0998 107.352C58.5074 78.6704 49.9169 74.5527 17.2784 79.6806C15.9259 79.8954 15.2807 78.0715 16.4636 77.3772C45.0389 60.7638 49.1347 52.151 43.9881 19.4061C43.7726 18.0491 45.5901 17.4038 46.2835 18.5911C62.8759 47.2725 71.4664 51.3902 104.105 46.2623C105.457 46.0476 106.103 47.8714 104.92 48.5657V48.5657Z" stroke="black" stroke-width="2.35" stroke-linecap="round" stroke-linejoin="round"/>
</svg>
