<svg width="168" height="213" viewBox="0 0 168 213" fill="none" xmlns="http://www.w3.org/2000/svg">
<path d="M133 110.568C131.649 109.857 131.679 107.892 133.067 107.276C139.394 104.45 145.662 101.473 151.855 98.3057C162.399 92.8528 172.782 87.0256 182.736 80.0689C184.283 78.9824 183.306 76.4928 181.432 76.7452C169.394 78.3942 157.811 81.163 146.364 84.3159C139.665 86.1939 133.028 88.2663 126.463 90.4856C125.025 90.9754 123.666 89.5536 124.174 88.1156C125.059 85.5971 125.931 83.0835 126.729 80.5261C129.067 72.9636 131.183 65.3125 132.687 57.3763C133.056 55.4387 130.57 54.3125 129.424 55.9124C124.779 62.4393 120.753 69.2338 116.94 76.1345C115.661 78.4865 114.446 80.857 113.249 83.2354C112.567 84.5955 110.629 84.5378 110.001 83.1214C107.107 76.6585 104.077 70.249 100.872 63.9073C95.3497 53.1519 89.4601 42.5546 82.4869 32.3667C81.4058 30.7779 78.9389 31.7433 79.2267 33.6425C81.0429 45.8484 83.9327 57.6197 87.1993 69.258C89.1513 76.0896 91.2892 82.8484 93.5759 89.549C94.0794 91.014 92.6961 92.3717 91.2704 91.8362C88.7735 90.9035 86.2692 89.9883 83.7303 89.1304C76.2373 86.6539 68.66 84.3999 60.8101 82.7629C58.8935 82.3612 57.8177 84.8669 59.4121 86.0508C65.9161 90.8532 72.6753 95.031 79.5362 98.994C81.8744 100.324 84.23 101.589 86.5929 102.837C87.9443 103.547 87.9147 105.512 86.5263 106.128C80.1918 108.972 73.9119 111.954 67.7013 115.113C57.1695 120.561 46.7989 126.384 36.8474 133.31C35.2954 134.384 36.2825 136.899 38.1519 136.634C50.1668 134.964 61.7378 132.2 73.1724 129.052C79.8715 127.174 86.5086 125.102 93.0737 122.883C94.5117 122.393 95.8706 123.815 95.3625 125.253C94.4776 127.771 93.6101 130.297 92.807 132.842C90.4623 140.422 88.3383 148.091 86.8441 156.052C86.4749 157.99 88.9569 159.103 90.1071 157.516C94.7652 150.984 98.8108 144.168 102.631 137.249C103.902 134.915 105.122 132.557 106.307 130.184C106.989 128.823 108.928 128.881 109.555 130.297C112.432 136.753 115.457 143.149 118.669 149.474C124.196 160.242 130.091 170.852 137.094 181.042C138.188 182.626 140.63 181.671 140.354 179.767C138.558 167.538 135.663 155.755 132.392 144.104C130.445 137.285 128.312 130.538 126.03 123.85C125.526 122.386 126.91 121.028 128.335 121.563C130.82 122.501 133.319 123.403 135.841 124.254C143.351 126.738 150.946 129 158.82 130.627C160.737 131.029 161.8 128.528 160.218 127.339C153.71 122.524 146.928 118.326 140.05 114.355C137.729 113.033 135.386 111.763 133.028 110.528L133 110.568Z" fill="black"/>
<path d="M126.217 109.928C124.866 109.218 124.895 107.253 126.284 106.637C132.611 103.811 138.878 100.833 145.071 97.6662C155.616 92.2134 165.999 86.3863 175.953 79.4296C177.5 78.3431 176.523 75.8535 174.648 76.1059C162.611 77.7548 151.028 80.5236 139.581 83.6764C132.881 85.5544 126.244 87.6268 119.679 89.846C118.241 90.3358 116.882 88.914 117.391 87.476C118.275 84.9575 119.148 82.4439 119.946 79.8865C122.283 72.324 124.4 64.673 125.904 56.7367C126.273 54.7991 123.786 53.673 122.641 55.2728C117.995 61.7997 113.97 68.5942 110.157 75.4948C108.878 77.8468 107.663 80.2174 106.466 82.5957C105.784 83.9558 103.845 83.8982 103.218 82.4817C100.324 76.0188 97.2933 69.6092 94.0893 63.2676C88.5666 52.5121 82.677 41.9148 75.7039 31.7268C74.6227 30.1381 72.1558 31.1034 72.4436 33.0027C74.2598 45.2086 77.1495 56.9798 80.416 68.6182C82.368 75.4498 84.5059 82.2086 86.7926 88.9093C87.296 90.3742 85.9127 91.7319 84.487 91.1965C81.9901 90.2637 79.4859 89.3485 76.9469 88.4905C69.4539 86.014 61.8767 83.76 54.0268 82.123C52.1102 81.7213 51.0344 84.227 52.6288 85.4108C59.1327 90.2133 65.8919 94.3911 72.7528 98.3541C75.091 99.6842 77.4465 100.949 79.8095 102.197C81.1608 102.907 81.1313 104.872 79.7429 105.488C73.4084 108.332 67.1284 111.314 60.9178 114.473C50.386 119.921 40.0153 125.744 30.0638 132.67C28.5118 133.744 29.4988 136.259 31.3683 135.994C43.3832 134.324 54.9542 131.561 66.3888 128.413C73.0879 126.535 79.725 124.462 86.2902 122.243C87.7282 121.753 89.087 123.175 88.5789 124.613C87.694 127.131 86.8265 129.658 86.0234 132.202C83.6787 139.782 81.5546 147.451 80.0604 155.412C79.6912 157.35 82.1731 158.464 83.3234 156.876C87.9815 150.345 92.0272 143.528 95.8472 136.61C97.1189 134.275 98.3385 131.917 99.5234 129.544C100.205 128.184 102.144 128.241 102.771 129.658C105.648 136.113 108.674 142.51 111.885 148.834C117.413 159.602 123.307 170.212 130.31 180.403C131.404 181.987 133.846 181.031 133.57 179.127C131.774 166.899 128.879 155.115 125.608 143.464C123.661 136.645 121.528 129.899 119.246 123.211C118.743 121.746 120.126 120.388 121.552 120.924C124.036 121.861 126.536 122.764 129.057 123.614C136.568 126.098 144.162 128.36 152.037 129.987C153.953 130.389 155.017 127.888 153.435 126.7C146.926 121.884 140.144 117.686 133.266 113.715C130.945 112.393 128.602 111.123 126.244 109.888L126.217 109.928Z" fill="white" stroke="black" stroke-width="2.35" stroke-linecap="round" stroke-linejoin="round"/>
</svg>
