<svg width="236" height="233" viewBox="0 0 236 233" fill="none" xmlns="http://www.w3.org/2000/svg">
<path d="M214.556 99.9027C213.637 95.7513 151.795 107.726 151.795 107.726L130.821 111.786L136.68 102.738C136.68 102.738 159.338 67.7425 155.772 65.372C152.207 63.0014 129.549 97.997 129.549 97.997L123.691 107.045L119.017 85.9316C119.017 85.9316 105.235 23.6743 101.112 24.4727C96.988 25.2712 110.77 87.5285 110.77 87.5285L115.443 108.642L106.225 102.513C106.225 102.513 70.573 78.8078 68.3072 82.3073C66.0414 85.8069 101.694 109.512 101.694 109.512L110.912 115.641L89.9386 119.702C89.9386 119.702 28.0957 131.677 29.0147 135.828C29.9336 139.979 91.7765 128.005 91.7765 128.005L112.75 123.944L106.891 132.993C106.891 132.993 84.2335 167.988 87.7987 170.359C91.3639 172.729 114.022 137.734 114.022 137.734L119.88 128.685L124.554 149.799C124.554 149.799 138.336 212.056 142.459 211.258C146.583 210.46 132.802 148.202 132.802 148.202L128.128 127.088L137.346 133.218C137.346 133.218 172.998 156.923 175.264 153.423C177.53 149.924 141.877 126.218 141.877 126.218L132.659 120.089L153.633 116.028C153.633 116.028 215.475 104.054 214.556 99.9027Z" fill="black"/>
<path d="M206.872 96.2687C205.954 92.1171 144.109 104.082 144.109 104.082L123.135 108.139L128.995 99.092C128.995 99.092 151.659 64.0999 148.094 61.7288C144.529 59.3577 121.865 94.3498 121.865 94.3498L116.005 103.397L111.335 82.2827C111.335 82.2827 97.5649 20.0232 93.441 20.821C89.3171 21.6188 103.088 83.8784 103.088 83.8784L107.758 104.993L98.5405 98.8623C98.5405 98.8623 62.8926 75.1514 60.6262 78.6506C58.3598 82.1498 94.0077 105.861 94.0077 105.861L103.225 111.991L82.2508 116.049C82.2508 116.049 20.4059 128.014 21.3241 132.165C22.2423 136.317 84.0872 124.352 84.0872 124.352L105.061 120.294L99.2012 129.342C99.2012 129.342 76.537 164.334 80.1018 166.705C83.6666 169.076 106.331 134.084 106.331 134.084L112.191 125.037L116.861 146.151C116.861 146.151 130.631 208.411 134.755 207.613C138.879 206.815 125.109 144.556 125.109 144.556L120.439 123.441L129.656 129.572C129.656 129.572 165.304 153.283 167.57 149.783C169.836 146.284 134.188 122.573 134.188 122.573L124.971 116.443L145.945 112.385C145.945 112.385 207.79 100.42 206.872 96.2687Z" fill="#8F55FF" stroke="black" stroke-width="2.35" stroke-linecap="round" stroke-linejoin="round"/>
</svg>
