<svg width="94" height="106" viewBox="0 0 94 106" fill="none" xmlns="http://www.w3.org/2000/svg">
<path d="M87.4481 60.5488C60.2053 63.9678 53.9924 69.94 45.6622 100.764C45.3186 102.042 43.7382 101.897 43.6662 100.581C42.044 68.8476 37.2292 61.8592 11.2419 53.5819C10.1641 53.2408 10.3634 51.3835 11.4936 51.2362C38.7364 47.8172 44.9494 41.8451 53.2796 11.0215C53.6232 9.74323 55.2035 9.88771 55.2755 11.2039C56.8977 42.9374 61.7126 49.9258 87.6999 58.2032C88.7777 58.5442 88.5783 60.4015 87.4481 60.5488Z" fill="black"/>
<path d="M82.5617 55.1591C55.3655 58.6414 49.1521 64.6357 40.7726 95.5226C40.427 96.8035 38.85 96.6621 38.781 95.3441C37.2297 63.5673 32.4393 56.5788 6.52102 48.3449C5.44611 48.0056 5.64904 46.1451 6.77731 45.9952C33.9735 42.5129 40.1869 36.5186 48.5664 5.63169C48.912 4.35083 50.489 4.49214 50.558 5.81016C52.1093 37.587 56.8997 44.5755 82.818 52.8094C83.8929 53.1487 83.69 55.0092 82.5617 55.1591Z" fill="#FF8B13"/>
<path d="M82.5617 55.1591C55.3655 58.6414 49.1521 64.6357 40.7726 95.5226C40.427 96.8034 38.85 96.6621 38.781 95.3441C37.2297 63.5673 32.4393 56.5788 6.52102 48.3449C5.44611 48.0056 5.64904 46.1451 6.77731 45.9952C33.9735 42.5129 40.1869 36.5186 48.5664 5.63169C48.912 4.35083 50.489 4.49214 50.558 5.81016C52.1093 37.587 56.8997 44.5755 82.818 52.8094C83.8929 53.1487 83.69 55.0092 82.5617 55.1591V55.1591Z" stroke="black" stroke-width="2.35" stroke-linecap="round" stroke-linejoin="round"/>
</svg>
