<svg width="157" height="160" viewBox="0 0 157 160" fill="none" xmlns="http://www.w3.org/2000/svg">
<path d="M126.512 53.7125C100.236 79.1511 98.1328 89.744 112.402 125.001C112.996 126.462 111.215 127.621 110.153 126.465C84.6672 98.5093 74.3363 95.9989 40.6287 109.617C39.2325 110.184 38.0524 108.307 39.1384 107.247C65.4144 81.8084 67.5178 71.2155 53.2487 35.9583C52.655 34.4977 54.4361 33.3384 55.4981 34.4941C80.9834 62.4502 91.3143 64.9606 125.022 51.3421C126.418 50.7752 127.598 52.6522 126.512 53.7125Z" fill="black"/>
<path d="M117.303 52.7362C91.1238 78.1951 89.0365 88.8088 103.301 124.165C103.894 125.629 102.119 126.789 101.059 125.629C75.6163 97.5749 65.3113 95.0445 31.7093 108.647C30.3174 109.213 29.1387 107.33 30.2207 106.269C56.4 80.8098 58.4873 70.1961 44.2229 34.8402C43.6294 33.3756 45.4045 32.2161 46.4647 33.3759C71.9075 61.43 82.2125 63.9604 115.815 50.3583C117.206 49.7921 118.385 51.6749 117.303 52.7362Z" fill="#FCF43D"/>
<path d="M117.303 52.7362C91.1238 78.1951 89.0365 88.8088 103.301 124.165C103.894 125.629 102.119 126.789 101.059 125.629C75.6163 97.5749 65.3113 95.0445 31.7093 108.647C30.3174 109.213 29.1387 107.33 30.2207 106.269C56.4 80.8098 58.4873 70.1961 44.2229 34.8402C43.6294 33.3756 45.4045 32.2161 46.4647 33.3759C71.9075 61.43 82.2125 63.9604 115.815 50.3583C117.206 49.7921 118.385 51.6749 117.303 52.7362V52.7362Z" stroke="black" stroke-width="2.35" stroke-linecap="round" stroke-linejoin="round"/>
</svg>
