<svg width="114" height="119" viewBox="0 0 114 119" fill="none" xmlns="http://www.w3.org/2000/svg">
<path d="M109.227 67.8232L68.8588 72.7133C68.4204 72.7649 68.0762 73.0784 67.9591 73.5085L57.9224 113.163C57.6256 114.321 55.9561 114.183 55.78 112.986L49.5461 71.9813C49.4799 71.5361 49.1578 71.1771 48.7281 71.0437L9.1238 59.5208C7.96757 59.1806 8.04697 57.4965 9.22568 57.3598L49.5941 52.4696C50.0325 52.418 50.3767 52.1045 50.4939 51.6745L60.5305 12.0195C60.8273 10.8616 62.4968 11.0001 62.6729 12.1971L68.9068 53.2016C68.973 53.6469 69.2951 54.0059 69.7248 54.1392L109.319 65.6614C110.476 66.0016 110.396 67.6856 109.218 67.8224L109.227 67.8232Z" fill="black"/>
<path d="M103.921 60.827L63.5508 65.7143C63.1124 65.7659 62.7682 66.0793 62.6509 66.5093L52.6063 106.163C52.3093 107.321 50.6398 107.182 50.4639 105.985L44.2381 64.9809C44.1719 64.5357 43.8499 64.1767 43.4202 64.0433L3.82729 52.5185C2.67112 52.1783 2.75085 50.4942 3.92961 50.3575L44.2995 45.4703C44.738 45.4187 45.0822 45.1053 45.1994 44.6752L55.2441 5.02141C55.5411 3.86359 57.2106 4.00217 57.3864 5.19925L63.6123 46.2036C63.6784 46.6489 64.0005 47.0079 64.4302 47.1413L104.023 58.666C105.179 59.0063 105.1 60.6904 103.921 60.827Z" fill="#8F55FF" stroke="black" stroke-width="2.35" stroke-linecap="round" stroke-linejoin="round"/>
</svg>
