<svg width="168" height="168" viewBox="0 0 168 168" fill="none" xmlns="http://www.w3.org/2000/svg">
<path d="M106.243 93.1232C105.212 92.2067 105.662 90.4876 107.011 90.2473C113.162 89.1369 119.294 87.8804 125.402 86.4413C135.814 83.9377 146.165 81.0707 156.384 77.1188C157.974 76.4999 157.654 74.1022 155.958 73.9177C145.058 72.7577 134.314 72.6793 123.607 72.9676C117.334 73.1653 111.073 73.547 104.844 74.0733C103.479 74.1918 102.595 72.649 103.35 71.4964C104.668 69.4767 105.974 67.4586 107.224 65.386C110.901 59.252 114.404 52.9924 117.432 46.3498C118.173 44.7284 116.237 43.2008 114.889 44.3574C109.413 49.0819 104.422 54.1758 99.5951 59.409C97.9677 61.1971 96.3928 63.0154 94.8314 64.8443C93.9411 65.8909 92.2551 65.4202 92.0107 64.0406C90.8683 57.7387 89.5949 51.4541 88.1549 45.1916C85.6349 34.551 82.7594 23.9699 78.8466 13.5135C78.2419 11.8842 75.8729 12.1974 75.7157 13.9274C74.6761 25.0384 74.6707 36.0005 75.024 46.9274C75.2617 53.3489 75.6779 59.7468 76.237 66.1258C76.3623 67.5212 74.8579 68.4137 73.7244 67.6346C71.7381 66.2747 69.7416 64.9285 67.7024 63.6251C61.6723 59.8272 55.5203 56.2064 48.9966 53.0682C47.4042 52.3003 45.9218 54.2674 47.0634 55.6523C51.7258 61.2783 56.7466 66.411 61.9026 71.3773C63.6643 73.0518 65.4551 74.6729 67.2562 76.2802C68.2869 77.1968 67.8375 78.9158 66.4885 79.1561C60.3267 80.2803 54.1827 81.5384 48.0614 82.9669C37.6614 85.4689 27.3219 88.3343 17.1116 92.2603C15.5206 92.867 15.8433 95.2891 17.538 95.4614C28.4229 96.5987 39.1547 96.6786 49.8499 96.3918C56.123 96.1942 62.3838 95.8124 68.6131 95.2862C69.9784 95.1676 70.8623 96.7105 70.1073 97.8631C68.7894 99.8827 67.485 101.913 66.2331 103.974C62.5456 110.121 59.0323 116.395 56.0075 123.062C55.2665 124.683 57.2007 126.198 58.5504 125.054C64.0386 120.328 69.0517 115.219 73.8889 109.972C75.5061 108.197 77.0826 106.391 78.6321 104.564C79.5224 103.517 81.2084 103.988 81.4528 105.368C82.5817 111.659 83.8534 117.931 85.3037 124.18C87.8253 134.833 90.7024 145.426 94.6407 155.892C95.2573 157.519 97.6026 157.209 97.7716 155.478C98.8334 144.351 98.8372 133.377 98.4822 122.438C98.2462 116.029 97.8316 109.643 97.2741 103.276C97.1488 101.881 98.6532 100.988 99.7868 101.767C101.761 103.129 103.756 104.463 105.782 105.756C111.825 109.564 117.991 113.196 124.538 116.331C126.131 117.098 127.601 115.133 126.472 113.746C121.807 108.108 116.772 102.953 111.602 97.9759C109.854 96.312 108.075 94.6893 106.275 93.0941L106.243 93.1232Z" fill="black"/>
<path d="M100.439 91.0919C99.4083 90.1754 99.8577 88.4563 101.207 88.216C107.358 87.1056 113.49 85.8491 119.598 84.41C130.01 81.9066 140.361 79.0395 150.58 75.0877C152.17 74.4689 151.85 72.0711 150.154 71.8867C139.254 70.7266 128.51 70.6481 117.803 70.9364C111.53 71.134 105.269 71.5157 99.0399 72.042C97.6746 72.1605 96.7907 70.6177 97.5457 69.4651C98.8637 67.4454 100.17 65.4273 101.42 63.3546C105.097 57.2207 108.6 50.9611 111.628 44.3185C112.369 42.6971 110.434 41.1695 109.085 42.3262C103.609 47.0506 98.6182 52.1445 93.7912 57.3776C92.1638 59.1657 90.5889 60.984 89.0275 62.813C88.1372 63.8596 86.4512 63.3889 86.2068 62.0092C85.0644 55.7073 83.7911 49.4227 82.3511 43.1602C79.8312 32.5196 76.9557 21.9384 73.043 11.482C72.4382 9.85273 70.0692 10.1659 69.912 11.8959C68.8724 23.007 68.8669 33.969 69.2202 44.896C69.4578 51.3174 69.874 57.7153 70.433 64.0944C70.5584 65.4897 69.0539 66.3822 67.9204 65.6031C65.9342 64.2432 63.9377 62.897 61.8985 61.5936C55.8684 57.7956 49.7165 54.1748 43.1928 51.0366C41.6004 50.2687 40.118 52.2358 41.2595 53.6207C45.9219 59.2467 50.9427 64.3795 56.0987 69.3457C57.8603 71.0203 59.6511 72.6414 61.4522 74.2487C62.4829 75.1653 62.0335 76.8843 60.6845 77.1246C54.5227 78.2488 48.3787 79.5069 42.2574 80.9353C31.8573 83.4372 21.5178 86.3027 11.3075 90.2286C9.71654 90.8352 10.0392 93.2573 11.7339 93.4296C22.6188 94.567 33.3507 94.647 44.0458 94.3602C50.319 94.1627 56.5797 93.7809 62.8091 93.2547C64.1743 93.1362 65.0583 94.679 64.3032 95.8316C62.9853 97.8512 61.6809 99.8815 60.429 101.942C56.7414 108.09 53.2281 114.363 50.2033 121.03C49.4623 122.651 51.3965 124.167 52.7462 123.022C58.2344 118.296 63.2475 113.187 68.0848 107.94C69.7019 106.166 71.2785 104.36 72.828 102.532C73.7182 101.486 75.4043 101.956 75.6487 103.336C76.7775 109.627 78.0492 115.9 79.4995 122.149C82.0211 132.801 84.8981 143.395 88.8363 153.86C89.4529 155.488 91.7982 155.178 91.9673 153.446C93.029 142.32 93.0329 131.346 92.678 120.407C92.442 113.997 92.0275 107.612 91.47 101.245C91.3447 99.8493 92.8491 98.9568 93.9827 99.7359C95.957 101.097 97.9518 102.431 99.9776 103.724C106.021 107.533 112.187 111.164 118.734 114.299C120.326 115.067 121.797 113.102 120.667 111.715C116.003 106.077 110.967 100.921 105.798 95.9446C104.05 94.2807 102.271 92.658 100.471 91.0628L100.439 91.0919Z" fill="#FCF43D" stroke="black" stroke-width="2.35" stroke-linecap="round" stroke-linejoin="round"/>
</svg>
