<svg width="152" height="156" viewBox="0 0 152 156" fill="none" xmlns="http://www.w3.org/2000/svg">
<path d="M113.704 115.629L78.0608 96.0566C77.6746 95.8428 77.2122 95.8967 76.8662 96.1777L45.5847 122.535C44.6683 123.303 43.3929 122.216 43.9481 121.141L62.8002 84.1979C63.0061 83.7976 62.9538 83.3181 62.6826 82.9591L37.233 50.4999C36.4923 49.5492 37.539 48.2276 38.5762 48.804L74.2194 68.3766C74.6056 68.5904 75.068 68.5365 75.414 68.2555L106.696 41.8979C107.612 41.1305 108.887 42.2167 108.332 43.2918L89.48 80.2354C89.2741 80.6357 89.3264 81.1152 89.5976 81.4741L115.04 113.927C115.781 114.878 114.734 116.199 113.697 115.623L113.704 115.629Z" fill="black"/>
<path d="M113.474 106.851L77.8317 87.2755C77.4455 87.0617 76.983 87.1156 76.637 87.3965L45.3497 113.748C44.4332 114.516 43.1578 113.429 43.7132 112.354L62.5718 75.4157C62.7778 75.0154 62.7255 74.536 62.4543 74.177L37.0151 41.723C36.2744 40.7722 37.3214 39.4508 38.3586 40.0273L74.0013 59.6032C74.3875 59.817 74.85 59.7632 75.196 59.4822L106.483 33.1303C107.4 32.363 108.675 33.4493 108.12 34.5242L89.2612 71.4631C89.0552 71.8633 89.1075 72.3428 89.3787 72.7017L114.818 105.156C115.559 106.106 114.512 107.428 113.474 106.851Z" fill="#8F55FF" stroke="black" stroke-width="2.35" stroke-linecap="round" stroke-linejoin="round"/>
</svg>
