<svg width="236" height="234" viewBox="0 0 236 234" fill="none" xmlns="http://www.w3.org/2000/svg">
<path d="M214.484 100.332C213.53 96.1885 151.792 108.693 151.792 108.693L130.854 112.934L136.635 103.835C136.635 103.835 158.992 68.6467 155.406 66.3069C151.821 63.967 129.464 99.1557 129.464 99.1557L123.683 108.254L118.829 87.1812C118.829 87.1812 104.513 25.0444 100.397 25.8782C96.2798 26.712 110.595 88.8488 110.595 88.8488L115.45 109.922L106.18 103.872C106.18 103.872 70.3252 80.4733 68.0896 83.9922C65.8539 87.5111 101.708 110.91 101.708 110.91L110.979 116.959L90.041 121.2C90.041 121.2 28.3032 133.705 29.2577 137.848C30.2123 141.991 91.9501 129.487 91.9501 129.487L112.888 125.246L107.107 134.344C107.107 134.344 84.7505 169.533 88.3359 171.873C91.9214 174.213 114.278 139.024 114.278 139.024L120.059 129.926L124.914 150.999C124.914 150.999 139.229 213.136 143.346 212.302C147.462 211.468 133.147 149.331 133.147 149.331L128.292 128.258L137.563 134.308C137.563 134.308 173.417 157.707 175.653 154.188C177.888 150.669 142.034 127.27 142.034 127.27L132.763 121.22L153.701 116.98C153.701 116.98 215.439 104.475 214.484 100.332Z" fill="black"/>
<path d="M206.769 96.7639C205.815 92.6204 144.075 105.115 144.075 105.115L123.137 109.353L128.919 100.255C128.919 100.255 151.282 65.0701 147.697 62.7297C144.112 60.3893 121.749 95.5746 121.749 95.5746L115.967 104.672L111.116 83.5983C111.116 83.5983 96.8115 21.4592 92.6947 22.2924C88.5778 23.1256 102.882 85.2647 102.882 85.2647L107.733 106.338L98.4637 100.287C98.4637 100.287 62.6136 76.883 60.3773 80.4015C58.141 83.92 93.9911 107.324 93.9911 107.324L103.26 113.375L82.3221 117.613C82.3221 117.613 20.5821 130.108 21.5359 134.251C22.4897 138.395 84.2297 125.9 84.2297 125.9L105.168 121.662L99.386 130.76C99.386 130.76 77.0229 165.945 80.6079 168.286C84.1929 170.626 106.556 135.441 106.556 135.441L112.338 126.343L117.189 147.417C117.189 147.417 131.493 209.556 135.61 208.723C139.727 207.89 125.423 145.751 125.423 145.751L120.572 124.677L129.841 130.728C129.841 130.728 165.691 154.132 167.928 150.614C170.164 147.095 134.314 123.691 134.314 123.691L125.044 117.64L145.983 113.402C145.983 113.402 207.723 100.907 206.769 96.7639Z" fill="#FCF43D" stroke="black" stroke-width="2.35" stroke-linecap="round" stroke-linejoin="round"/>
</svg>
