<svg width="179" height="242" viewBox="0 0 179 242" fill="none" xmlns="http://www.w3.org/2000/svg">
<path d="M138.42 93.575C140.621 91.9167 139.04 88.5926 136.371 89.2677C127.111 91.6336 117.203 94.5961 106.8 98.2867C96.7677 101.852 87.5695 105.666 79.201 109.493C77.9386 110.076 76.4765 109.6 75.8888 108.402C70.3556 96.9549 64.0153 84.9408 56.7259 72.5119C49.9244 60.9209 43.009 50.1822 36.1374 40.2887C34.5561 38.0179 30.8031 39.8027 31.552 42.4694C35.0437 54.8193 39.2802 66.815 43.7649 78.6926C48.6302 91.4083 53.927 103.902 59.5663 116.249C60.1115 117.433 59.5664 118.847 58.3383 119.465C49.4774 123.951 40.7336 128.721 32.1625 133.816C23.2658 139.168 14.4797 144.789 6.05067 151.125C3.84907 152.783 5.42984 156.107 8.10568 155.446C18.3394 152.905 28.2453 149.638 38.0114 146.115C47.3729 142.681 56.5763 138.916 65.648 134.874C66.9024 134.311 68.3287 134.787 68.9178 135.951C74.9367 148.118 81.285 160.111 88.0633 171.917C94.5452 183.1 101.326 194.157 108.874 204.833C110.463 207.083 114.201 205.305 113.459 202.652C109.942 190.06 105.644 177.822 101.06 165.736C96.1867 153.041 90.9045 140.541 85.2506 128.201C84.7054 127.016 85.2505 125.602 86.4786 124.984C95.3461 120.512 104.069 115.736 112.646 110.655C121.433 105.372 130.086 99.8477 138.411 93.5958L138.42 93.575Z" fill="black"/>
<path d="M125.515 90.2354C127.717 88.577 126.136 85.253 123.467 85.928C114.207 88.2939 104.299 91.2565 93.8961 94.947C83.8634 98.5124 74.6652 102.326 66.2967 106.153C65.0343 106.737 63.5722 106.26 62.9845 105.062C57.4513 93.6153 51.111 81.6011 43.8216 69.1722C37.0201 57.5812 30.1047 46.8425 23.2331 36.9491C21.6518 34.6782 17.8988 36.463 18.6477 39.1297C22.1394 51.4796 26.3759 63.4753 30.8606 75.353C35.7259 88.0686 41.0227 100.562 46.662 112.91C47.2073 114.094 46.6621 115.508 45.434 116.126C36.5731 120.611 27.8293 125.381 19.2582 130.476C10.3615 135.828 1.5754 141.45 -6.85362 147.785C-9.05523 149.443 -7.47445 152.767 -4.79862 152.106C5.43513 149.566 15.341 146.298 25.1071 142.775C34.4686 139.342 43.672 135.576 52.7437 131.534C53.9981 130.971 55.4244 131.448 56.0135 132.611C62.0324 144.778 68.3807 156.772 75.159 168.577C81.6409 179.76 88.4215 190.818 95.9694 201.493C97.5587 203.743 101.297 201.965 100.555 199.313C97.0373 186.72 92.7393 174.482 88.1557 162.397C83.2824 149.702 78.0002 137.201 72.3463 124.861C71.8011 123.677 72.3462 122.263 73.5743 121.645C82.4418 117.173 91.1644 112.396 99.7421 107.315C108.529 102.033 117.182 96.508 125.507 90.2562L125.515 90.2354Z" fill="#FF8B13" stroke="black" stroke-width="2.35" stroke-linecap="round" stroke-linejoin="round"/>
</svg>
