<svg width="381" height="381" viewBox="0 0 381 381" fill="none" xmlns="http://www.w3.org/2000/svg">
<path d="M333.884 239.123C339.219 239.615 340.737 233.882 335.851 231.694C318.873 224.132 300.196 216.554 279.9 209.289C260.318 202.29 241.719 196.523 224.375 191.701C221.751 190.981 220.077 188.774 220.597 186.688C225.687 166.844 230.213 145.419 233.777 122.436C237.097 100.999 239.231 80.4489 240.432 60.9557C240.702 56.4768 232.842 54.3961 230.83 58.4135C221.545 77.0448 213.82 96.0889 206.615 115.271C199 135.878 192.308 156.704 186.314 177.74C185.746 179.762 183.236 180.836 180.624 180.196C161.746 175.607 142.711 171.488 123.554 167.95C103.595 164.353 83.4853 161.203 63.0773 159.302C57.7425 158.81 56.2248 164.543 61.1042 166.755C79.7794 175.201 98.8141 182.413 117.938 189.163C136.336 195.567 154.885 201.398 173.561 206.752C176.148 207.488 177.767 209.654 177.29 211.701C172.091 232.948 167.602 254.357 163.993 276.024C160.668 296.617 157.949 317.395 156.857 338.579C156.625 343.042 164.454 345.114 166.46 341.121C175.992 322.172 183.91 302.77 191.21 283.23C198.789 262.638 205.511 241.821 211.474 220.776C212.042 218.754 214.552 217.68 217.164 218.32C236.036 222.933 255.047 227.02 274.197 230.582C293.905 234.138 313.697 237.255 333.847 239.139L333.884 239.123Z" fill="black"/>
<path d="M318.085 220.677C323.42 221.169 324.937 215.436 320.052 213.248C303.073 205.685 284.397 198.108 264.1 190.843C244.518 183.844 225.919 178.077 208.575 173.255C205.952 172.535 204.278 170.328 204.797 168.242C209.887 148.398 214.414 126.973 217.978 103.99C221.297 82.5522 223.432 62.0026 224.633 42.5094C224.902 38.0305 217.043 35.9499 215.03 39.9672C205.746 58.5985 198.021 77.6426 190.815 96.8244C183.2 117.431 176.509 138.257 170.515 159.293C169.946 161.316 167.437 162.39 164.825 161.749C145.947 157.161 126.911 153.042 107.755 149.504C87.7957 145.907 67.686 142.756 47.278 140.856C41.9432 140.364 40.4255 146.097 45.3049 148.309C63.9801 156.755 83.0148 163.967 102.139 170.717C120.537 177.121 139.086 182.952 157.762 188.305C160.349 189.041 161.968 191.208 161.491 193.255C156.292 214.501 151.802 235.91 148.193 257.578C144.869 278.17 142.15 298.949 141.058 320.132C140.826 324.596 148.654 326.668 150.661 322.675C160.193 303.726 168.111 284.323 175.411 264.783C182.989 244.192 189.711 223.374 195.675 202.33C196.243 200.308 198.753 199.234 201.365 199.874C220.237 204.487 239.248 208.574 258.398 212.135C278.106 215.691 297.897 218.809 318.048 220.693L318.085 220.677Z" fill="#F9346C" stroke="black" stroke-width="2.35" stroke-linecap="round" stroke-linejoin="round"/>
</svg>
