<svg width="230" height="244" viewBox="0 0 230 244" fill="none" xmlns="http://www.w3.org/2000/svg">
<path d="M138.469 127.929C136.931 127.029 137.07 124.738 138.723 124.092C146.257 121.127 153.73 117.981 161.126 114.611C173.721 108.802 186.148 102.547 198.135 94.9519C199.998 93.7653 198.992 90.8089 196.791 91.005C182.658 92.2971 168.994 94.9198 155.469 97.9978C147.551 99.8375 139.696 101.907 131.917 104.152C130.213 104.648 128.704 102.918 129.374 101.267C130.541 98.3742 131.694 95.4868 132.762 92.5445C135.894 83.8425 138.774 75.0257 140.954 65.8439C141.489 63.6022 138.648 62.1576 137.226 63.9644C131.455 71.3366 126.394 79.0537 121.576 86.9059C119.957 89.5833 118.413 92.2857 116.888 94.9981C116.02 96.5495 113.761 96.3804 113.105 94.6946C110.074 87.001 106.882 79.3626 103.483 71.7943C97.6156 58.9538 91.3115 46.2786 83.7212 34.0242C82.5448 32.1135 79.6148 33.1104 79.8488 35.3417C81.3138 49.6802 84.0548 63.5678 87.2425 77.3201C89.154 85.3943 91.2864 93.3935 93.5954 101.332C94.1043 103.068 92.4175 104.58 90.7827 103.88C87.9194 102.661 85.0464 101.461 82.1299 100.327C73.5199 97.0437 64.7996 94.0156 55.7281 91.6932C53.5134 91.1238 52.1239 93.9913 53.9207 95.4564C61.2521 101.402 68.9149 106.632 76.7078 111.617C79.3647 113.291 82.0453 114.891 84.7356 116.471C86.2743 117.371 86.1345 119.662 84.4815 120.309C76.938 123.294 69.4508 126.444 62.0351 129.805C49.4546 135.609 37.0422 141.858 25.0597 149.418C23.1913 150.59 24.2082 153.576 26.4037 153.365C40.5121 152.048 54.1611 149.431 67.6716 146.358C75.5888 144.518 83.4439 142.448 91.2231 140.203C92.9272 139.707 94.4365 141.438 93.7665 143.089C92.5991 145.981 91.4515 148.884 90.3782 151.811C87.2362 160.533 84.3469 169.37 82.1768 178.582C81.6422 180.823 84.4785 182.253 85.9057 180.461C91.6907 173.084 96.7764 165.342 101.604 157.47C103.213 154.812 104.763 152.125 106.272 149.417C107.141 147.866 109.4 148.035 110.056 149.721C113.067 157.404 116.254 165.028 119.662 172.576C125.535 185.432 131.844 198.122 139.469 210.381C140.66 212.287 143.561 211.3 143.341 209.064C141.901 194.7 139.155 180.798 135.962 167.03C134.055 158.971 131.928 150.987 129.624 143.063C129.115 141.327 130.802 139.815 132.437 140.515C135.285 141.74 138.153 142.924 141.05 144.048C149.68 147.342 158.42 150.38 167.521 152.692C169.736 153.262 171.11 150.399 169.328 148.929C161.992 142.968 154.304 137.714 146.491 132.719C143.854 131.054 141.188 129.449 138.503 127.884L138.469 127.929Z" fill="black"/>
<path d="M130.585 126.827C129.047 125.927 129.187 123.635 130.84 122.989C138.373 120.024 145.846 116.879 153.242 113.508C165.837 107.699 178.264 101.445 190.251 93.8494C192.114 92.6628 191.108 89.7064 188.907 89.9025C174.774 91.1946 161.11 93.8173 147.585 96.8953C139.668 98.735 131.813 100.805 124.033 103.05C122.329 103.546 120.82 101.815 121.49 100.164C122.657 97.2716 123.81 94.3843 124.878 91.4419C128.011 82.74 130.89 73.9231 133.071 64.7413C133.605 62.4997 130.764 61.055 129.342 62.8618C123.571 70.234 118.51 77.9512 113.692 85.8033C112.073 88.4807 110.529 91.1831 109.005 93.8956C108.136 95.4469 105.877 95.2778 105.221 93.592C102.19 85.8985 98.9979 78.2601 95.5993 70.6918C89.7318 57.8513 83.4277 45.176 75.8374 32.9216C74.6611 31.0109 71.731 32.0079 71.965 34.2392C73.4301 48.5776 76.171 62.4652 79.3587 76.2175C81.2702 84.2918 83.4026 92.2909 85.7116 100.23C86.2206 101.966 84.5337 103.478 82.8989 102.778C80.0356 101.558 77.1627 100.359 74.2462 99.2244C65.6361 95.9411 56.9158 92.9131 47.8443 90.5907C45.6296 90.0213 44.2401 92.8887 46.0369 94.3538C53.3683 100.299 61.0311 105.529 68.824 110.514C71.4809 112.189 74.1616 113.789 76.8518 115.368C78.3905 116.268 78.2507 118.56 76.5977 119.206C69.0543 122.191 61.567 125.342 54.1513 128.702C41.5709 134.506 29.1584 140.756 17.1759 148.316C15.3075 149.488 16.3244 152.474 18.5199 152.263C32.6283 150.946 46.2774 148.328 59.7879 145.255C67.705 143.415 75.5602 141.346 83.3393 139.101C85.0434 138.605 86.5527 140.335 85.8828 141.986C84.7153 144.879 83.5677 147.781 82.4944 150.708C79.3524 159.43 76.4632 168.267 74.2931 177.479C73.7584 179.721 76.5947 181.15 78.0219 179.359C83.8069 171.981 88.8927 164.239 93.7205 156.367C95.3294 153.71 96.8788 151.022 98.3885 148.315C99.2568 146.763 101.516 146.933 102.172 148.618C105.183 156.302 108.37 163.925 111.778 171.474C117.651 184.329 123.96 197.019 131.585 209.279C132.776 211.184 135.677 210.197 135.458 207.961C134.017 193.598 131.271 179.695 128.078 165.928C126.172 157.868 124.044 149.884 121.74 141.96C121.231 140.224 122.918 138.713 124.553 139.413C127.402 140.637 130.27 141.821 133.166 142.946C141.796 146.239 150.536 149.277 159.637 151.59C161.852 152.159 163.227 149.297 161.445 147.826C154.108 141.866 146.42 136.611 138.608 131.616C135.971 129.951 133.305 128.347 130.619 126.782L130.585 126.827Z" fill="#FF8B13" stroke="black" stroke-width="2.35" stroke-linecap="round" stroke-linejoin="round"/>
</svg>
