<svg width="78" height="83" viewBox="0 0 78 83" fill="none" xmlns="http://www.w3.org/2000/svg">
<path d="M69.8319 37.376C50.6219 45.7541 47.4251 51.279 48.3423 74.5683C48.3817 75.5337 47.1891 75.7811 46.8362 74.8808C38.4087 53.1494 33.282 49.3451 12.3257 49.3054C11.4571 49.3053 11.1798 47.9686 11.9755 47.6172C31.1855 39.2391 34.3824 33.7142 33.4651 10.4249C33.4257 9.45948 34.6183 9.21209 34.9713 10.1124C43.3987 31.8438 48.5255 35.6481 69.4817 35.6878C70.3503 35.6879 70.6276 37.0246 69.8319 37.376Z" fill="black"/>
<path d="M65.1366 34.7261C45.9266 43.1042 42.7298 48.6291 43.647 71.9184C43.6864 72.8838 42.4938 73.1312 42.1409 72.2309C33.7134 50.4995 28.5867 46.6952 7.63041 46.6555C6.7618 46.6554 6.4845 45.3186 7.2802 44.9673C26.4902 36.5892 29.687 31.0643 28.7698 7.77496C28.7304 6.80958 29.923 6.56218 30.276 7.46252C38.7034 29.1939 43.8302 32.9982 64.7864 33.0379C65.655 33.038 65.9323 34.3747 65.1366 34.7261Z" fill="white"/>
<path d="M65.1366 34.7261C45.9266 43.1042 42.7298 48.6291 43.647 71.9184C43.6864 72.8838 42.4938 73.1312 42.1409 72.2309C33.7134 50.4995 28.5867 46.6952 7.63041 46.6555C6.7618 46.6554 6.4845 45.3187 7.2802 44.9673C26.4902 36.5892 29.687 31.0643 28.7698 7.77496C28.7304 6.80958 29.923 6.56218 30.276 7.46252C38.7034 29.1939 43.8302 32.9982 64.7864 33.0379C65.655 33.038 65.9323 34.3747 65.1366 34.7261V34.7261Z" stroke="black" stroke-width="2.35" stroke-linecap="round" stroke-linejoin="round"/>
</svg>
