<svg width="365" height="453" viewBox="0 0 365 453" fill="none" xmlns="http://www.w3.org/2000/svg">
<path d="M182.789 268.596C181.044 265.49 183.64 261.733 187.172 262.324C203.288 264.984 219.483 267.275 235.777 269.104C263.596 272.101 291.581 274.168 320.179 273.503C324.631 273.39 325.922 267.328 321.903 265.411C296.056 253.152 269.657 243.639 243.03 235.042C227.405 230.074 211.651 225.562 195.849 221.425C192.383 220.526 191.542 216.037 194.401 213.912C199.398 210.183 204.364 206.448 209.24 202.533C223.614 190.927 237.668 178.866 250.883 165.469C254.114 162.201 250.668 156.835 246.345 158.456C228.761 165.101 212.052 173.057 195.626 181.493C190.067 184.394 184.612 187.414 179.181 190.471C176.08 192.223 172.335 189.624 172.928 186.084C175.575 169.89 177.884 153.623 179.763 137.266C182.775 109.409 184.86 81.387 184.282 52.7658C184.204 48.3104 178.096 47.0099 176.21 51.047C164.021 76.9495 154.509 103.39 145.911 130.057C140.932 145.755 136.413 161.55 132.263 177.425C131.363 180.9 126.883 181.747 124.766 178.884C121.051 173.879 117.299 168.899 113.405 163.985C101.841 149.589 89.8233 135.515 76.4715 122.282C73.2141 119.048 67.8577 122.507 69.4698 126.838C76.0806 144.457 84.0015 161.197 92.4 177.653C95.2887 183.221 98.2957 188.686 101.34 194.127C103.085 197.233 100.488 200.99 96.9566 200.399C80.8029 197.763 64.5771 195.466 48.2596 193.599C20.4713 190.609 -7.48291 188.548 -36.0378 189.158C-40.4828 189.241 -41.7867 195.364 -37.761 197.25C-11.9318 209.441 14.4367 218.948 41.0325 227.538C56.6576 232.506 72.4116 237.018 88.2136 241.155C91.6796 242.054 92.5203 246.543 89.6616 248.669C84.6648 252.397 79.6921 256.163 74.8226 260.047C60.4113 271.678 46.3203 283.762 33.0918 297.221C29.8613 300.489 33.3131 305.824 37.6298 304.234C55.2451 297.596 72.022 289.621 88.4851 281.162C94.0064 278.285 99.4552 275.296 104.856 272.232C107.956 270.48 111.702 273.079 111.108 276.619C108.438 292.776 106.135 309.012 104.293 325.345C101.274 353.233 99.1828 381.285 99.8161 409.95C99.9247 414.412 105.971 415.7 107.888 411.669C120.145 385.749 129.663 359.278 138.268 332.58C143.24 316.913 147.752 301.148 151.896 285.305C152.797 281.83 157.276 280.982 159.393 283.846C163.077 288.844 166.836 293.793 170.706 298.67C182.294 313.103 194.336 327.215 207.749 340.46C211.006 343.695 216.332 340.229 214.751 335.904C208.146 318.254 200.208 301.446 191.785 284.954C188.921 279.422 185.944 273.964 182.894 268.554L182.789 268.596Z" fill="black"/>
<path d="M170.246 258.655C168.501 255.55 171.097 251.792 174.629 252.384C190.745 255.043 206.94 257.334 223.234 259.163C251.053 262.16 279.038 264.227 307.636 263.563C312.088 263.449 313.379 257.388 309.36 255.47C283.513 243.212 257.114 233.698 230.487 225.101C214.862 220.134 199.108 215.621 183.306 211.484C179.84 210.585 178.999 206.096 181.858 203.971C186.855 200.242 191.821 196.507 196.697 192.592C211.071 180.986 225.125 168.925 238.34 155.528C241.571 152.26 238.125 146.895 233.802 148.515C216.218 155.16 199.509 163.117 183.083 171.552C177.524 174.453 172.069 177.473 166.638 180.53C163.537 182.282 159.792 179.684 160.385 176.143C163.032 159.949 165.341 143.683 167.22 127.325C170.232 99.4683 172.317 71.4464 171.739 42.8251C171.661 38.3698 165.553 37.0692 163.667 41.1063C151.478 67.0088 141.966 93.4492 133.368 120.116C128.389 135.814 123.87 151.61 119.72 167.484C118.82 170.959 114.34 171.806 112.223 168.943C108.508 163.938 104.756 158.958 100.862 154.044C89.298 139.648 77.2804 125.574 63.9285 112.342C60.6712 109.107 55.3147 112.566 56.9269 116.898C63.5377 134.517 71.4586 151.256 79.8571 167.712C82.7458 173.281 85.7528 178.746 88.797 184.186C90.5419 187.292 87.9452 191.049 84.4137 190.458C68.2599 187.822 52.0342 185.525 35.7166 183.659C7.92832 180.668 -20.0259 178.607 -48.5808 179.217C-53.0258 179.3 -54.3297 185.423 -50.304 187.31C-24.4748 199.5 1.89376 209.007 28.4896 217.597C44.1146 222.565 59.8687 227.078 75.6706 231.215C79.1366 232.113 79.9773 236.603 77.1186 238.728C72.1218 242.456 67.1492 246.222 62.2797 250.107C47.8683 261.737 33.7774 273.822 20.5488 287.28C17.3183 290.549 20.7702 295.883 25.0869 294.294C42.7021 287.655 59.479 279.681 75.9421 271.221C81.4634 268.344 86.9123 265.355 92.3128 262.292C95.413 260.539 99.1586 263.138 98.5651 266.679C95.8946 282.836 93.5923 299.071 91.7504 315.405C88.7315 343.292 86.6398 371.345 87.2731 400.01C87.3817 404.472 93.4278 405.759 95.3448 401.729C107.602 375.808 117.12 349.337 125.725 322.639C130.697 306.972 135.209 291.207 139.353 275.364C140.254 271.889 144.733 271.042 146.85 273.905C150.534 278.903 154.293 283.853 158.163 288.73C169.751 303.162 181.793 317.274 195.206 330.519C198.463 333.754 203.789 330.289 202.208 325.963C195.603 308.314 187.665 291.506 179.242 275.013C176.378 269.482 173.402 264.023 170.351 258.613L170.246 258.655Z" fill="#FCF43D" stroke="black" stroke-width="2.35" stroke-linecap="round" stroke-linejoin="round"/>
</svg>
