<svg width="157" height="172" viewBox="0 0 157 172" fill="none" xmlns="http://www.w3.org/2000/svg">
<path d="M83.8982 161.545C68.683 113.825 58.205 104.984 13.3624 102.097C11.5035 101.98 11.0835 99.0772 12.832 98.4302C55.03 83.0357 62.5884 71.6174 63.6477 21.5616C63.6886 19.4865 66.2729 19.1155 66.9115 21.0931C82.1267 68.8126 92.6046 77.6546 137.447 80.5416C139.306 80.6579 139.726 83.5609 137.978 84.2079C95.7797 99.6024 88.2213 111.021 87.162 161.076C87.1211 163.152 84.5367 163.523 83.8982 161.545Z" fill="black"/>
<path d="M89.22 150.914C74.004 103.192 63.5262 94.3497 18.6849 91.4612C16.826 91.3448 16.406 88.4417 18.1544 87.7947C60.3506 72.401 67.9085 60.9826 68.9664 10.9252C69.0073 8.8501 71.5915 8.47918 72.2301 10.4568C87.4461 58.1783 97.9239 67.0209 142.765 69.9094C144.624 70.0258 145.044 72.9289 143.296 73.5758C101.099 88.9696 93.5416 100.388 92.4837 150.445C92.4428 152.52 89.8586 152.891 89.22 150.914Z" fill="#FCF43D"/>
<path d="M89.22 150.914C74.004 103.192 63.5262 94.3497 18.6849 91.4612C16.826 91.3448 16.406 88.4417 18.1544 87.7947C60.3506 72.401 67.9085 60.9826 68.9664 10.9252C69.0073 8.85009 71.5915 8.47918 72.2301 10.4568C87.4461 58.1783 97.9239 67.0209 142.765 69.9094C144.624 70.0258 145.044 72.9289 143.296 73.5758C101.099 88.9696 93.5416 100.388 92.4837 150.445C92.4428 152.52 89.8586 152.891 89.22 150.914V150.914Z" stroke="black" stroke-width="2.35" stroke-linecap="round" stroke-linejoin="round"/>
</svg>
