<svg width="350" height="438" viewBox="0 0 350 438" fill="none" xmlns="http://www.w3.org/2000/svg">
<g clip-path="url(#clip0_2043_1548)">
<path d="M68.6688 201.264C71.4184 203.158 70.7731 207.386 67.5504 208.341C52.8587 212.735 38.2526 217.472 23.7535 222.638C-0.950169 231.563 -25.4114 241.339 -49.2668 253.664C-52.9759 255.591 -51.5715 261.22 -47.3919 261.178C-20.5426 260.853 5.64383 257.992 31.6449 254.267C46.8712 252.015 62.0191 249.329 77.0529 246.306C80.3469 245.636 82.9028 249.065 81.365 252.029C78.6829 257.22 76.0294 262.404 73.5259 267.703C66.1726 283.377 59.2764 299.302 53.6372 316.005C52.256 320.083 57.3698 323.178 60.3508 320.036C72.4536 307.213 83.278 293.647 93.6668 279.795C97.1631 275.068 100.524 270.284 103.849 265.479C105.743 262.73 109.973 263.374 110.928 266.596C115.357 281.303 120.1 295.933 125.243 310.462C134.16 335.127 143.927 359.55 156.188 383.382C158.087 387.096 163.774 385.677 163.705 381.506C163.334 354.708 160.484 328.56 156.769 302.596C154.513 287.347 151.828 272.204 148.8 257.147C148.13 253.854 151.561 251.299 154.525 252.835C159.717 255.516 164.931 258.16 170.238 260.691C185.917 268.039 201.845 274.93 218.553 280.565C222.632 281.945 225.728 276.832 222.586 273.852C209.761 261.756 196.193 250.937 182.338 240.554C177.61 237.06 172.825 233.701 168.019 230.378C165.269 228.484 165.915 224.256 169.137 223.301C183.851 218.871 198.485 214.127 213.02 208.983C237.695 200.065 262.128 190.296 285.969 178.035C289.685 176.137 288.266 170.451 284.094 170.521C257.287 170.896 231.13 173.75 205.157 177.468C189.931 179.72 174.783 182.406 159.749 185.429C156.455 186.099 153.899 182.67 155.437 179.706C158.119 174.515 160.766 169.302 163.276 164.032C170.651 148.322 177.569 132.362 183.194 115.601C184.575 111.523 179.468 108.457 176.48 111.57C164.349 124.4 153.474 138.009 143.064 151.897C139.589 156.588 136.221 161.343 132.925 166.142C131.03 168.891 126.801 168.246 125.845 165.025C121.453 150.339 116.717 135.738 111.552 121.245C102.628 96.5504 92.8536 72.0988 80.5282 48.2532C78.6013 44.5457 72.9706 45.9505 73.0111 50.1288C73.332 76.9694 76.1895 103.147 79.9117 129.139C82.1609 144.36 84.8388 159.474 87.8597 174.502C88.5295 177.795 85.0986 180.351 82.1345 178.814C76.9705 176.126 71.7636 173.51 66.4923 171.001C50.7784 163.632 34.8142 156.719 18.0491 151.099C13.9703 149.719 10.9025 154.824 14.0158 157.811C26.8478 169.936 40.4593 180.805 54.3496 191.209C59.0417 194.682 63.7981 198.048 68.5974 201.342L68.6688 201.264Z" fill="black"/>
<path d="M83.3427 204.462C86.0922 206.356 85.4469 210.584 82.2242 211.54C67.5325 215.934 52.9265 220.67 38.4273 225.836C13.7236 234.761 -10.7376 244.537 -34.5929 256.862C-38.302 258.789 -36.8977 264.418 -32.7181 264.377C-5.86873 264.051 20.3176 261.19 46.3187 257.465C61.545 255.214 76.6929 252.527 91.7267 249.504C95.0207 248.834 97.5766 252.263 96.0388 255.227C93.3568 260.418 90.7032 265.602 88.1997 270.901C80.8464 286.575 73.9502 302.5 68.311 319.204C66.9298 323.281 72.0436 326.376 75.0246 323.234C87.1274 310.411 97.9518 296.845 108.341 282.993C111.837 278.267 115.197 273.483 118.522 268.677C120.417 265.928 124.646 266.573 125.602 269.794C130.031 284.502 134.774 299.131 139.917 313.66C148.834 338.326 158.601 362.749 170.862 386.58C172.76 390.295 178.448 388.875 178.379 384.704C178.008 357.907 175.158 331.758 171.443 305.794C169.186 290.545 166.501 275.402 163.473 260.345C162.804 257.052 166.234 254.497 169.199 256.033C174.391 258.714 179.605 261.358 184.912 263.889C200.59 271.237 216.519 278.128 233.227 283.763C237.306 285.143 240.402 280.03 237.26 277.051C224.435 264.954 210.867 254.135 197.012 243.752C192.284 240.258 187.499 236.899 182.693 233.576C179.943 231.683 180.589 227.455 183.811 226.499C198.524 222.069 213.159 217.325 227.694 212.181C252.369 203.263 276.802 193.495 300.643 181.233C304.359 179.335 302.94 173.649 298.768 173.719C271.961 174.094 245.803 176.948 219.831 180.667C204.605 182.918 189.457 185.605 174.423 188.627C171.129 189.297 168.573 185.868 170.111 182.904C172.793 177.713 175.439 172.5 177.95 167.23C185.325 151.52 192.242 135.56 197.867 118.799C199.249 114.722 194.142 111.656 191.154 114.769C179.022 127.598 168.148 141.207 157.738 155.095C154.263 159.786 150.895 164.542 147.599 169.34C145.704 172.089 141.475 171.444 140.519 168.223C136.126 153.537 131.39 138.936 126.226 124.443C117.302 99.7486 107.527 75.297 95.202 51.4515C93.2751 47.7439 87.6444 49.1487 87.6849 53.327C88.0058 80.1676 90.8633 106.345 94.5855 132.337C96.8347 147.558 99.5126 162.672 102.534 177.7C103.203 180.993 99.7725 183.549 96.8083 182.012C91.6443 179.325 86.4374 176.709 81.1661 174.2C65.4522 166.83 49.488 159.917 32.7229 154.297C28.6441 152.917 25.5763 158.023 28.6896 161.009C41.5216 173.135 55.1331 184.003 69.0234 194.408C73.7155 197.88 78.4719 201.246 83.2712 204.541L83.3427 204.462Z" fill="#F9346C" stroke="black" stroke-width="2.35" stroke-linecap="round" stroke-linejoin="round"/>
</g>
<defs>
<clipPath id="clip0_2043_1548">
<rect width="366.58" height="359.643" fill="white" transform="translate(349.715 349.126) rotate(165.991)"/>
</clipPath>
</defs>
</svg>
