<svg width="97" height="108" viewBox="0 0 97 108" fill="none" xmlns="http://www.w3.org/2000/svg">
<path d="M87.3299 49.2084C63.2944 59.8872 59.2509 67.0758 60.1485 97.6005C60.1874 98.8658 58.6981 99.1715 58.2676 97.9865C47.9915 69.3868 41.6407 64.3237 15.5172 63.9477C14.4344 63.9341 14.1028 62.1787 15.0984 61.7307C39.1339 51.0518 43.1774 43.8632 42.2799 13.3386C42.2409 12.0733 43.7302 11.7676 44.1607 12.9525C54.4369 41.5523 60.7877 46.6153 86.9111 46.9913C87.9939 47.0049 88.3255 48.7604 87.3299 49.2084Z" fill="black"/>
<path d="M81.3564 45.6286C57.3811 56.3525 53.3434 63.5615 54.2133 94.1577C54.2511 95.426 52.7658 95.7337 52.3375 94.5462C42.1143 65.8872 35.7859 60.8173 9.73779 60.4619C8.65811 60.4492 8.32894 58.6898 9.32208 58.2399C33.2973 47.516 37.3351 40.3071 36.4652 9.71081C36.4274 8.44252 37.9126 8.1349 38.3409 9.32231C48.5641 37.9814 54.8925 43.0512 80.9406 43.4067C82.0203 43.4194 82.3495 45.1787 81.3564 45.6286V45.6286Z" fill="#0071C6"/>
<path d="M81.3564 45.6286C57.3811 56.3525 53.3434 63.5615 54.2133 94.1577C54.2511 95.426 52.7658 95.7337 52.3375 94.5462C42.1143 65.8872 35.7859 60.8173 9.73779 60.4619C8.65811 60.4492 8.32894 58.6898 9.32208 58.2399C33.2973 47.516 37.3351 40.3071 36.4652 9.71081C36.4274 8.44252 37.9126 8.1349 38.3409 9.32231C48.5641 37.9814 54.8925 43.0512 80.9406 43.4067C82.0203 43.4194 82.3495 45.1787 81.3564 45.6286V45.6286Z" stroke="black" stroke-width="2.35" stroke-linecap="round" stroke-linejoin="round"/>
</svg>
