<svg width="325" height="324" viewBox="0 0 325 324" fill="none" xmlns="http://www.w3.org/2000/svg">
<path d="M282.14 206.117C283.898 200.898 205.938 174.546 205.938 174.546L179.498 165.609L192.215 159.281C192.215 159.281 241.395 134.808 238.963 129.876C236.53 124.944 187.349 149.417 187.349 149.417L174.633 155.745L183.573 129.203C183.573 129.203 209.934 50.9399 204.735 49.1827C199.537 47.4255 173.176 125.689 173.176 125.689L164.236 152.231L157.947 139.479C157.947 139.479 133.621 90.159 128.703 92.6063C123.784 95.0535 148.11 144.373 148.11 144.373L154.4 157.125L127.961 148.188C127.961 148.188 50.0006 121.836 48.2429 127.055C46.4851 132.273 124.445 158.625 124.445 158.625L150.885 167.562L138.169 173.89C138.169 173.89 88.9877 198.363 91.4203 203.295C93.8529 208.227 143.034 183.754 143.034 183.754L155.75 177.426L146.81 203.968C146.81 203.968 120.449 282.231 125.648 283.988C130.846 285.746 157.207 207.483 157.207 207.483L166.147 180.941L172.436 193.693C172.436 193.693 196.762 243.012 201.68 240.565C206.599 238.118 182.273 188.798 182.273 188.798L175.983 176.046L202.422 184.983C202.422 184.983 280.382 211.335 282.14 206.117Z" fill="black"/>
<path d="M275.77 196.465C277.528 191.246 199.568 164.894 199.568 164.894L173.129 155.957L185.845 149.629C185.845 149.629 235.025 125.157 232.593 120.225C230.16 115.293 180.979 139.765 180.979 139.765L168.263 146.093L177.203 119.551C177.203 119.551 203.564 41.2882 198.366 39.531C193.167 37.7738 166.806 116.037 166.806 116.037L157.866 142.579L151.577 129.827C151.577 129.827 127.251 80.5073 122.333 82.9545C117.415 85.4018 141.741 134.721 141.741 134.721L148.03 147.473L121.591 138.536C121.591 138.536 43.6308 112.184 41.873 117.403C40.1152 122.621 118.075 148.974 118.075 148.974L144.515 157.911L131.799 164.238C131.799 164.238 82.6178 188.711 85.0504 193.643C87.483 198.575 136.664 174.102 136.664 174.102L149.38 167.775L140.44 194.316C140.44 194.316 114.079 272.58 119.278 274.337C124.476 276.094 150.837 197.831 150.837 197.831L159.777 171.289L166.067 184.041C166.067 184.041 190.392 233.36 195.311 230.913C200.229 228.466 175.903 179.146 175.903 179.146L169.613 166.394L196.052 175.331C196.052 175.331 274.013 201.683 275.77 196.465Z" fill="#F9346C" stroke="black" stroke-width="2.35" stroke-linecap="round" stroke-linejoin="round"/>
</svg>
