<svg width="276" height="326" viewBox="0 0 276 326" fill="none" xmlns="http://www.w3.org/2000/svg">
<path d="M68.0998 146.978C70.1445 148.616 69.417 151.899 66.8523 152.471C55.1581 155.111 43.5125 158.024 31.9275 161.279C12.1826 166.924 -7.41831 173.248 -26.6816 181.608C-29.6773 182.916 -28.8799 187.411 -25.6171 187.608C-4.65385 188.832 15.9265 188.029 36.4081 186.537C48.4059 185.609 60.3656 184.335 72.2541 182.791C74.8594 182.446 76.6716 185.278 75.3149 187.519C72.9475 191.446 70.6027 195.369 68.3689 199.389C61.8019 211.286 55.5783 223.404 50.294 236.203C49.0005 239.327 52.8259 242.037 55.318 239.736C65.4391 230.339 74.6023 220.288 83.4408 209.989C86.4188 206.472 89.294 202.902 92.1424 199.314C93.7663 197.261 97.0315 198 97.6063 200.581C100.282 212.367 103.207 224.11 106.45 235.796C112.099 255.646 118.425 275.352 126.728 294.73C128.012 297.75 132.524 296.95 132.691 293.672C133.822 272.62 132.983 251.941 131.461 231.359C130.508 219.267 129.216 207.235 127.651 195.251C127.303 192.629 130.115 190.813 132.346 192.182C136.255 194.572 140.183 196.934 144.189 199.213C156.031 205.843 168.092 212.129 180.828 217.471C183.936 218.779 186.623 214.937 184.33 212.426C174.966 202.225 164.953 192.987 154.695 184.075C151.192 181.073 147.637 178.173 144.063 175.3C142.019 173.663 142.746 170.38 145.311 169.807C157.024 167.141 168.692 164.224 180.304 160.987C200.026 155.347 219.604 149.026 238.853 140.717C241.853 139.431 241.047 134.891 237.788 134.716C216.856 133.534 196.298 134.333 175.839 135.821C163.842 136.749 151.882 138.023 139.993 139.567C137.388 139.912 135.576 137.08 136.933 134.839C139.3 130.912 141.641 126.967 143.878 122.969C150.464 111.045 156.706 98.9002 161.983 86.0557C163.276 82.9315 159.455 80.244 156.959 82.5225C146.815 91.9236 137.61 102.005 128.753 112.331C125.794 115.822 122.915 119.368 120.089 122.953C118.465 125.006 115.2 124.267 114.625 121.686C111.976 109.918 109.055 98.1983 105.794 86.5388C100.14 66.6666 93.8104 46.9379 85.4583 27.5444C84.1515 24.5284 79.6844 25.3209 79.4946 28.6023C78.3229 49.6853 79.1653 70.3875 80.6919 90.9918C81.6402 103.062 82.9286 115.071 84.4891 127.032C84.8371 129.653 82.0252 131.47 79.7942 130.101C75.908 127.707 71.9845 125.367 68.0052 123.108C56.1367 116.458 44.0488 110.154 31.2676 104.819C28.1587 103.512 25.4949 107.35 27.7655 109.865C37.1337 120.088 47.1766 129.368 57.4616 138.299C60.938 141.283 64.4703 144.186 68.0399 147.036L68.0998 146.978Z" fill="black"/>
<path d="M79.3771 150.297C81.4218 151.934 80.6944 155.217 78.1296 155.79C66.4354 158.429 54.7898 161.342 43.2049 164.598C23.4599 170.242 3.85904 176.567 -15.4043 184.926C-18.4 186.234 -17.6026 190.729 -14.3398 190.927C6.62349 192.15 27.2039 191.347 47.6855 189.855C59.6832 188.927 71.6429 187.653 83.5314 186.109C86.1367 185.764 87.9489 188.597 86.5922 190.838C84.2248 194.764 81.8801 198.687 79.6462 202.707C73.0793 214.604 66.8556 226.722 61.5713 239.521C60.2778 242.645 64.1033 245.356 66.5953 243.054C76.7165 233.657 85.8796 223.607 94.7181 213.307C97.6961 209.79 100.571 206.221 103.42 202.632C105.044 200.579 108.309 201.318 108.884 203.899C111.559 215.686 114.484 227.428 117.727 239.115C123.376 258.964 129.702 278.67 138.005 298.049C139.289 301.069 143.801 300.268 143.969 296.991C145.099 275.939 144.261 255.259 142.738 234.678C141.786 222.585 140.493 210.553 138.929 198.569C138.581 195.948 141.393 194.131 143.624 195.5C147.533 197.89 151.46 200.253 155.466 202.531C167.308 209.162 179.369 215.447 192.105 220.79C195.214 222.098 197.9 218.256 195.607 215.744C186.243 205.544 176.231 196.306 165.972 187.394C162.469 184.391 158.914 181.491 155.341 178.619C153.296 176.981 154.023 173.698 156.588 173.126C168.301 170.459 179.969 167.542 191.581 164.306C211.303 158.665 230.882 152.345 250.13 144.035C253.13 142.75 252.325 138.209 249.066 138.034C228.133 136.852 207.576 137.651 187.117 139.139C175.119 140.067 163.159 141.341 151.271 142.886C148.665 143.23 146.853 140.398 148.21 138.157C150.577 134.23 152.918 130.285 155.156 126.287C161.741 114.363 167.984 102.218 173.26 89.374C174.553 86.2498 170.732 83.5623 168.236 85.8407C158.092 95.2419 148.888 105.324 140.031 115.65C137.071 119.14 134.192 122.687 131.366 126.271C129.742 128.324 126.477 127.585 125.902 125.004C123.253 113.236 120.332 101.517 117.071 89.8571C111.418 69.9849 105.088 50.2562 96.7357 30.8627C95.4288 27.8467 90.9617 28.6392 90.772 31.9206C89.6002 53.0036 90.4426 73.7057 91.9693 94.3101C92.9175 106.38 94.2059 118.389 95.7664 130.35C96.1144 132.972 93.3025 134.788 91.0715 133.419C87.1853 131.025 83.2619 128.685 79.2825 126.426C67.4141 119.776 55.3261 113.472 42.5449 108.138C39.436 106.83 36.7722 110.668 39.0428 113.183C48.411 123.406 58.4539 132.686 68.739 141.617C72.2154 144.601 75.7477 147.505 79.3172 150.354L79.3771 150.297Z" fill="#8F55FF" stroke="black" stroke-width="2.35" stroke-linecap="round" stroke-linejoin="round"/>
</svg>
