<svg width="208" height="209" viewBox="0 0 208 209" fill="none" xmlns="http://www.w3.org/2000/svg">
<path d="M93.5519 132.138C94.6376 130.851 96.747 131.349 97.0812 132.991C98.6235 140.475 100.343 147.932 102.285 155.353C105.656 168.003 109.468 180.568 114.599 192.939C115.402 194.863 118.315 194.401 118.488 192.323C119.568 178.967 119.334 165.835 118.654 152.759C118.221 145.098 117.564 137.458 116.731 129.861C116.545 128.196 118.399 127.07 119.827 127.959C122.329 129.509 124.83 131.045 127.394 132.512C134.985 136.823 142.723 140.918 150.913 144.421C152.912 145.278 154.715 142.867 153.264 141.254C147.337 134.702 140.974 128.754 134.447 123.011C132.217 121.075 129.952 119.204 127.675 117.351C126.372 116.294 126.894 114.219 128.568 113.88C136.215 112.296 143.837 110.553 151.428 108.607C164.321 105.211 177.132 101.382 189.759 96.2891C191.726 95.5016 191.272 92.6158 189.158 92.4751C175.582 91.5352 162.218 91.8546 148.909 92.6114C141.088 93.0929 133.302 93.7918 125.543 94.6648C123.846 94.8595 122.712 93.0475 123.626 91.6391C125.223 89.1713 126.803 86.6914 128.33 84.1604C132.775 76.6781 137 69.0523 140.625 60.9864C141.513 59.0175 139.069 57.2644 137.416 58.7006C130.701 64.5659 124.598 70.8544 118.702 77.3032C116.714 79.5059 114.793 81.7427 112.889 83.9916C111.803 85.2784 109.694 84.7804 109.36 83.1389C107.8 75.6421 106.078 68.171 104.149 60.7327C100.781 48.0974 96.9706 35.5469 91.8717 23.1858C91.0834 21.2596 88.1407 21.7259 87.9826 23.8022C86.9299 37.1382 87.1614 50.2559 87.8388 63.3178C88.272 70.9782 88.9293 78.618 89.7617 86.2152C89.9481 87.8801 88.0944 89.0063 86.6662 88.1179C84.1638 86.5673 81.6488 85.0336 79.0987 83.565C71.4914 79.2414 63.7364 75.1344 55.5164 71.6362C53.5172 70.7788 51.7291 73.1877 53.1656 74.8031C59.0951 81.3695 65.4769 87.344 72.0214 93.0995C74.2339 95.023 76.484 96.8959 78.7591 98.7352C80.0623 99.792 79.5401 101.867 77.8658 102.206C70.2311 103.773 62.6239 105.514 55.0508 107.472C42.1422 110.87 29.3168 114.702 16.6799 119.826C14.7145 120.628 15.1644 123.485 17.2804 123.64C30.8763 124.606 44.2543 124.285 57.5785 123.525C65.3844 123.046 73.1561 122.35 80.9004 121.479C82.5976 121.284 83.7316 123.096 82.8166 124.505C81.2174 126.958 79.6524 129.436 78.1385 131.95C73.6811 139.449 69.4433 147.092 65.8223 155.187C64.935 157.155 67.3761 158.894 69.0316 157.472C75.7618 151.605 81.8921 145.297 87.8006 138.831C89.7753 136.646 91.6989 134.423 93.5883 132.177L93.5519 132.138Z" fill="black"/>
<path d="M95.8501 124.984C96.9358 123.697 99.0451 124.195 99.3794 125.837C100.922 133.321 102.641 140.778 104.583 148.199C107.954 160.849 111.766 173.414 116.897 185.785C117.7 187.709 120.613 187.247 120.786 185.169C121.866 171.814 121.632 158.681 120.952 145.605C120.519 137.945 119.862 130.305 119.03 122.708C118.843 121.043 120.697 119.917 122.125 120.805C124.628 122.356 127.128 123.892 129.693 125.358C137.283 129.669 145.021 133.764 153.211 137.267C155.21 138.125 157.013 135.713 155.562 134.1C149.635 127.548 143.272 121.601 136.745 115.857C134.515 113.922 132.25 112.051 129.973 110.197C128.67 109.14 129.192 107.066 130.866 106.726C138.514 105.143 146.136 103.4 153.726 101.453C166.62 98.0574 179.43 94.2286 192.057 89.1359C194.025 88.3484 193.57 85.4625 191.457 85.3219C177.88 84.3819 164.517 84.7012 151.207 85.4579C143.387 85.9393 135.6 86.6383 127.841 87.5112C126.144 87.7059 125.01 85.8939 125.925 84.4855C127.522 82.0177 129.102 79.5377 130.628 77.0068C135.073 69.5246 139.298 61.8987 142.924 53.8328C143.811 51.864 141.368 50.1109 139.715 51.5471C132.999 57.4123 126.896 63.7008 121 70.1496C119.013 72.3522 117.092 74.589 115.187 76.8379C114.102 78.1248 111.992 77.6267 111.658 75.9852C110.099 68.4883 108.377 61.0173 106.448 53.579C103.079 40.9437 99.2692 28.3932 94.1705 16.032C93.3822 14.1058 90.4395 14.5721 90.2814 16.6484C89.2286 29.9844 89.46 43.1021 90.1373 56.164C90.5705 63.8244 91.2277 71.4642 92.0601 79.0614C92.2465 80.7263 90.3928 81.8525 88.9647 80.964C86.4622 79.4135 83.9473 77.8798 81.3971 76.4111C73.7899 72.0874 66.0348 67.9804 57.8149 64.4822C55.8157 63.6248 54.0276 66.0337 55.4641 67.6491C61.3935 74.2156 67.7754 80.1901 74.3197 85.9456C76.5323 87.8691 78.7824 89.742 81.0575 91.5813C82.3606 92.6382 81.8385 94.7127 80.1641 95.0523C72.5294 96.619 64.9222 98.3597 57.3491 100.318C44.4405 103.716 31.6151 107.547 18.9781 112.672C17.0128 113.474 17.4626 116.33 19.5786 116.486C33.1745 117.452 46.5525 117.131 59.8767 116.371C67.6827 115.892 75.4543 115.196 83.1986 114.325C84.8958 114.131 86.0298 115.943 85.1149 117.351C83.5156 119.804 81.9505 122.282 80.4367 124.796C75.9792 132.295 71.7414 139.938 68.1204 148.033C67.233 150.001 69.6741 151.74 71.3297 150.318C78.0598 144.451 84.1902 138.143 90.0987 131.677C92.0735 129.492 93.9971 127.269 95.8865 125.023L95.8501 124.984Z" fill="#FF8B13" stroke="black" stroke-width="2.35" stroke-linecap="round" stroke-linejoin="round"/>
</svg>
