<svg width="179" height="250" viewBox="0 0 179 250" fill="none" xmlns="http://www.w3.org/2000/svg">
<path d="M158.732 144.006C159.561 139.375 88.3544 128.201 88.3544 128.201L64.2056 124.411L74.3996 117.308C74.3996 117.308 113.826 89.8348 111.055 86.0339C108.283 82.233 68.8571 109.706 68.8571 109.706L58.6631 116.81L62.8764 93.2568C62.8764 93.2568 75.2999 23.8073 70.5518 23.0622C65.8037 22.3171 53.3802 91.7666 53.3802 91.7666L49.167 115.32L42.0017 105.492C42.0017 105.492 14.2893 67.4831 10.3466 70.2304C6.40402 72.9777 34.1164 110.987 34.1164 110.987L41.2817 120.814L17.133 117.025C17.133 117.025 -54.0733 105.851 -54.9017 110.482C-55.7301 115.113 15.4762 126.287 15.4762 126.287L39.6249 130.076L29.4309 137.18C29.4309 137.18 -9.99528 164.653 -7.22403 168.454C-4.45279 172.255 34.9734 144.781 34.9734 144.781L45.1674 137.678L40.9541 161.231C40.9541 161.231 28.5306 230.68 33.2787 231.425C38.0268 232.17 50.4503 162.721 50.4503 162.721L54.6636 139.168L61.8289 148.996C61.8289 148.996 89.5413 187.004 93.4839 184.257C97.4265 181.51 69.7141 143.501 69.7141 143.501L62.5488 133.673L86.6975 137.463C86.6975 137.463 157.904 148.637 158.732 144.006Z" fill="black"/>
<path d="M159.129 139.081C159.958 134.45 88.7513 123.276 88.7513 123.276L64.6026 119.487L74.7966 112.383C74.7966 112.383 114.223 84.9102 111.452 81.1093C108.68 77.3084 69.2541 104.782 69.2541 104.782L59.0601 111.885L63.2734 88.3322C63.2734 88.3322 75.6969 18.8827 70.9488 18.1376C66.2007 17.3925 53.7772 86.842 53.7772 86.842L49.5639 110.395L42.3986 100.567C42.3986 100.567 14.6862 62.5585 10.7436 65.3058C6.80099 68.0531 34.5134 106.062 34.5134 106.062L41.6787 115.89L17.53 112.1C17.53 112.1 -53.6763 100.926 -54.5047 105.557C-55.3331 110.188 15.8731 121.362 15.8731 121.362L40.0219 125.152L29.8279 132.255C29.8279 132.255 -9.59831 159.728 -6.82706 163.529C-4.05582 167.33 35.3704 139.857 35.3704 139.857L45.5644 132.753L41.3511 156.306C41.3511 156.306 28.9276 225.756 33.6757 226.501C38.4238 227.246 50.8473 157.796 50.8473 157.796L55.0605 134.243L62.2258 144.071C62.2258 144.071 89.9382 182.08 93.8809 179.333C97.8235 176.585 70.1111 138.576 70.1111 138.576L62.9458 128.749L87.0945 132.538C87.0945 132.538 158.301 143.712 159.129 139.081Z" fill="#FCF43D" stroke="black" stroke-width="2.35" stroke-linecap="round" stroke-linejoin="round"/>
</svg>
