<svg width="505" height="514" viewBox="0 0 505 514" fill="none" xmlns="http://www.w3.org/2000/svg">
<g clip-path="url(#clip0_1562_1521)">
<path d="M206.457 205.05C207.961 208.512 204.929 212.37 201.345 211.485C184.986 207.488 168.511 203.883 151.891 200.767C123.503 195.583 94.8552 191.387 65.3159 190.085C60.7169 189.894 58.8119 196.321 62.7726 198.666C88.2504 213.671 114.558 225.763 141.186 236.885C156.82 243.329 172.63 249.293 188.524 254.855C192.012 256.066 192.452 260.953 189.305 263.037C183.801 266.694 178.328 270.361 172.932 274.227C157.016 285.695 141.388 297.674 126.497 311.149C122.857 314.436 125.9 320.448 130.509 319.011C149.263 313.105 167.239 305.726 184.969 297.813C190.973 295.085 196.882 292.222 202.77 289.318C206.131 287.652 209.745 290.711 208.798 294.476C204.535 311.705 200.614 329.034 197.126 346.492C191.38 376.236 186.575 406.224 184.458 437.043C184.116 441.84 190.287 443.669 192.614 439.46C207.633 412.465 219.943 384.702 231.333 356.631C237.953 340.101 244.108 323.433 249.89 306.655C251.148 302.982 255.845 302.386 257.756 305.615C261.11 311.258 264.505 316.879 268.053 322.438C278.607 338.734 289.659 354.716 302.166 369.887C305.217 373.596 311.066 370.254 309.815 365.482C304.671 346.069 298.094 327.509 290.998 309.221C288.549 303.029 285.968 296.94 283.346 290.874C281.842 287.411 284.874 283.554 288.458 284.439C304.858 288.412 321.364 292.026 338.005 295.184C366.362 300.359 394.979 304.546 424.468 305.904C429.057 306.128 430.982 299.635 427.011 297.323C401.545 282.392 375.269 270.31 348.671 259.197C333.037 252.753 317.228 246.789 301.333 241.226C297.846 240.015 297.405 235.129 300.553 233.045C306.057 229.387 311.539 225.688 316.926 221.855C332.882 210.363 348.551 198.361 363.461 184.821C367.101 181.534 364.049 175.554 359.449 176.959C340.664 182.856 322.616 190.249 304.846 198.185C298.882 200.89 292.983 203.72 287.126 206.634C283.765 208.299 280.151 205.241 281.098 201.475C285.382 184.288 289.294 166.992 292.741 149.557C298.496 119.78 303.312 89.7604 305.376 58.89C305.687 54.0841 299.578 52.2733 297.22 56.4725C282.13 83.4824 269.809 111.278 258.41 139.381C251.8 155.879 245.655 172.514 239.882 189.259C238.624 192.933 233.927 193.528 232.016 190.3C228.693 184.665 225.289 179.078 221.762 173.56C211.186 157.222 200.113 141.198 187.544 126.009C184.493 122.301 178.675 125.652 179.895 130.414C185.029 149.86 191.618 168.495 198.735 186.825C201.163 192.975 203.714 199.054 206.345 205.087L206.457 205.05Z" fill="black"/>
<path d="M218.446 216.624C219.95 220.087 216.917 223.944 213.333 223.059C196.975 219.063 180.5 215.457 163.88 212.342C135.491 207.157 106.843 202.961 77.3042 201.66C72.7052 201.468 70.8002 207.896 74.7609 210.241C100.239 225.246 126.546 237.337 153.175 248.46C168.808 254.903 184.618 260.867 200.513 266.43C204 267.641 204.441 272.527 201.293 274.611C195.789 278.269 190.317 281.935 184.92 285.802C169.004 297.269 153.376 309.248 138.485 322.723C134.846 326.01 137.888 332.023 142.497 330.585C161.252 324.679 179.228 317.3 196.957 309.387C202.961 306.659 208.87 303.797 214.758 300.892C218.119 299.226 221.734 302.285 220.786 306.051C216.523 323.279 212.602 340.609 209.114 358.067C203.369 387.811 198.563 417.798 196.446 448.617C196.104 453.414 202.276 455.243 204.602 451.035C219.621 424.039 231.932 396.276 243.322 368.205C249.941 351.676 256.096 335.008 261.879 318.23C263.136 314.556 267.833 313.961 269.744 317.189C273.098 322.833 276.493 328.453 280.041 334.012C290.595 350.308 301.648 366.291 314.155 381.462C317.205 385.17 323.054 381.828 321.803 377.056C316.66 357.643 310.083 339.083 302.986 320.795C300.537 314.603 297.956 308.514 295.334 302.448C293.83 298.986 296.862 295.128 300.446 296.013C316.846 299.986 333.352 303.601 349.993 306.758C378.351 311.933 406.967 316.12 436.456 317.478C441.045 317.702 442.97 311.209 438.999 308.897C413.533 293.967 387.257 281.884 360.659 270.771C345.026 264.327 329.216 258.364 313.321 252.801C309.834 251.59 309.393 246.703 312.541 244.619C318.045 240.962 323.527 237.263 328.914 233.429C344.87 221.938 360.539 209.936 375.45 196.395C379.089 193.108 376.037 187.128 371.437 188.533C352.652 194.43 334.604 201.823 316.834 209.76C310.871 212.464 304.971 215.294 299.115 218.208C295.753 219.874 292.139 216.815 293.086 213.05C297.371 195.863 301.283 178.566 304.729 161.131C310.485 131.354 315.3 101.335 317.365 70.4643C317.676 65.6585 311.566 63.8477 309.208 68.0469C294.118 95.0567 281.798 122.852 270.398 150.956C263.788 167.453 257.643 184.088 251.87 200.834C250.613 204.507 245.915 205.102 244.004 201.874C240.681 196.24 237.277 190.652 233.75 185.135C223.175 168.797 212.101 152.773 199.532 137.583C196.481 133.875 190.664 137.226 191.884 141.989C197.017 161.434 203.606 180.069 210.724 198.399C213.152 204.549 215.702 210.629 218.333 216.662L218.446 216.624Z" fill="#FCF43D" stroke="black" stroke-width="2.35" stroke-linecap="round" stroke-linejoin="round"/>
</g>
<defs>
<clipPath id="clip0_1562_1521">
<rect width="402.52" height="415.607" fill="white" transform="translate(386.398 513.302) rotate(-163.491)"/>
</clipPath>
</defs>
</svg>
