<svg width="252" height="312" viewBox="0 0 252 312" fill="none" xmlns="http://www.w3.org/2000/svg">
<path d="M223.541 129.305C222.283 123.869 138.856 143.248 138.856 143.248L110.563 149.82L118.432 137.521C118.432 137.521 148.866 89.9528 144.043 87.0232C139.221 84.0936 108.786 131.662 108.786 131.662L100.917 143.961L94.5175 116.314C94.5175 116.314 75.6467 34.7931 70.0838 36.0853C64.5208 37.3776 83.3916 118.899 83.3916 118.899L89.7914 146.546L77.3219 138.971C77.3219 138.971 29.0949 109.675 26.0515 114.432C23.0081 119.189 71.2351 148.485 71.2351 148.485L83.7046 156.059L55.4114 162.632C55.4114 162.632 -28.0155 182.011 -26.7572 187.447C-25.4989 192.883 57.928 173.503 57.928 173.503L86.2212 166.931L78.3522 179.23C78.3522 179.23 47.918 226.799 52.7407 229.728C57.5634 232.658 87.9976 185.09 87.9976 185.09L95.8666 172.79L102.266 200.437C102.266 200.437 121.137 281.958 126.7 280.666C132.263 279.374 113.392 197.853 113.392 197.853L106.993 170.206L119.462 177.781C119.462 177.781 167.689 207.077 170.732 202.32C173.776 197.563 125.549 168.267 125.549 168.267L113.079 160.692L141.373 154.12C141.373 154.12 224.799 134.74 223.541 129.305Z" fill="black"/>
<path d="M212.672 124.437C211.414 119.001 127.987 138.381 127.987 138.381L99.6936 144.953L107.563 132.654C107.563 132.654 137.997 85.0856 133.174 82.156C128.351 79.2264 97.9172 126.795 97.9172 126.795L90.0482 139.094L83.6484 111.447C83.6484 111.447 64.7776 29.9259 59.2146 31.2182C53.6516 32.5104 72.5225 114.032 72.5225 114.032L78.9223 141.679L66.4528 134.104C66.4528 134.104 18.2258 104.808 15.1824 109.565C12.1389 114.322 60.3659 143.617 60.3659 143.617L72.8354 151.192L44.5422 157.764C44.5422 157.764 -38.8847 177.144 -37.6263 182.58C-36.368 188.016 47.0589 168.636 47.0589 168.636L75.3521 162.064L67.4831 174.363C67.4831 174.363 37.0489 221.932 41.8716 224.861C46.6943 227.791 77.1285 180.222 77.1285 180.222L84.9975 167.923L91.3973 195.57C91.3973 195.57 110.268 277.091 115.831 275.799C121.394 274.507 102.523 192.986 102.523 192.986L96.1234 165.339L108.593 172.913C108.593 172.913 156.82 202.209 159.863 197.453C162.907 192.696 114.68 163.4 114.68 163.4L102.21 155.825L130.503 149.253C130.503 149.253 213.93 129.873 212.672 124.437Z" fill="#0071C6" stroke="black" stroke-width="2.35" stroke-linecap="round" stroke-linejoin="round"/>
</svg>
