<svg width="282" height="367" viewBox="0 0 282 367" fill="none" xmlns="http://www.w3.org/2000/svg">
<path d="M-59.1921 152.677C-60.1362 159.464 42.0509 176.46 42.0509 176.46L76.7064 182.224L62.5246 192.558C62.5246 192.558 7.67514 232.528 11.8252 238.127C15.9752 243.727 70.8246 203.757 70.8246 203.757L85.0064 193.423L80.2049 227.939C80.2049 227.939 66.0469 329.718 72.8609 330.851C79.6748 331.984 93.8328 230.206 93.8328 230.206L98.6343 195.689L109.365 210.167C109.365 210.167 150.865 266.162 156.35 262.165C161.835 258.168 120.334 202.173 120.334 202.173L109.604 187.695L144.26 193.459C144.26 193.459 246.447 210.455 247.391 203.669C248.335 196.882 146.148 179.886 146.148 179.886L111.492 174.122L125.674 163.788C125.674 163.788 180.524 123.818 176.374 118.219C172.224 112.619 117.374 152.589 117.374 152.589L103.192 162.923L107.994 128.406C107.994 128.406 122.152 26.6282 115.338 25.4949C108.524 24.3616 94.3659 126.14 94.3659 126.14L89.5644 160.657L78.8342 146.179C78.8342 146.179 37.3339 90.1841 31.849 94.181C26.364 98.178 67.8643 154.173 67.8643 154.173L78.5945 168.65L43.939 162.886C43.939 162.886 -58.2481 145.89 -59.1921 152.677Z" fill="black"/>
<path d="M-49.372 162.465C-50.3186 169.251 51.8634 186.282 51.8634 186.282L86.5172 192.058L72.3315 202.388C72.3315 202.388 17.4669 242.338 21.6149 247.939C25.763 253.54 80.6275 213.589 80.6275 213.589L94.8133 203.26L89.9991 237.775C89.9991 237.775 75.8039 339.547 82.6175 340.683C89.4311 341.818 103.626 240.046 103.626 240.046L108.44 205.531L119.166 220.013C119.166 220.013 160.646 276.021 166.132 272.026C171.619 268.031 130.138 212.023 130.138 212.023L119.413 197.541L154.067 203.317C154.067 203.317 256.249 220.348 257.196 213.562C258.142 206.776 155.96 189.745 155.96 189.745L121.306 183.969L135.492 173.639C135.492 173.639 190.357 133.689 186.209 128.088C182.061 122.488 127.196 162.438 127.196 162.438L113.01 172.767L117.825 138.252C117.825 138.252 132.02 36.4802 125.206 35.3445C118.393 34.2089 104.197 135.981 104.197 135.981L99.3832 170.496L88.6581 156.014C88.6581 156.014 47.1779 100.006 41.6914 104.001C36.2049 107.996 77.6852 164.004 77.6852 164.004L88.4103 178.486L53.7565 172.71C53.7565 172.71 -48.4255 155.679 -49.372 162.465Z" fill="#FCF43D" stroke="black" stroke-width="2.35" stroke-linecap="round" stroke-linejoin="round"/>
</svg>
