<svg width="374" height="535" viewBox="0 0 374 535" fill="none" xmlns="http://www.w3.org/2000/svg">
<path d="M447.114 169.924C442.923 162.789 331.434 228.389 331.434 228.389L293.624 250.637L299.552 229.597C299.552 229.597 322.481 148.224 314.262 146.272C306.043 144.32 283.114 225.693 283.114 225.693L277.186 246.733L255.87 210.443C255.87 210.443 193.017 103.436 185.583 107.811C178.149 112.185 241.002 219.192 241.002 219.192L262.317 255.482L241.066 250.434C241.066 250.434 158.875 230.914 156.582 239.051C154.289 247.189 236.48 266.709 236.48 266.709L257.732 271.756L219.921 294.004C219.921 294.004 108.433 359.605 112.624 366.74C116.815 373.875 228.304 308.275 228.304 308.275L266.114 286.027L260.185 307.067C260.185 307.067 237.256 388.44 245.475 390.392C253.694 392.345 276.623 310.971 276.623 310.971L282.552 289.931L303.868 326.221C303.868 326.221 366.72 433.228 374.154 428.854C381.589 424.479 318.736 317.472 318.736 317.472L297.42 281.182L318.671 286.23C318.671 286.23 400.863 305.75 403.156 297.613C405.448 289.475 323.257 269.955 323.257 269.955L302.006 264.908L339.816 242.66C339.816 242.66 451.305 177.059 447.114 169.924Z" fill="black"/>
<path d="M429.35 167.986C425.159 160.851 313.67 226.452 313.67 226.452L275.86 248.699L281.789 227.66C281.789 227.66 304.718 146.286 296.498 144.334C288.279 142.382 265.35 223.756 265.35 223.756L259.422 244.795L238.106 208.505C238.106 208.505 175.254 101.499 167.819 105.873C160.385 110.247 223.238 217.254 223.238 217.254L244.554 253.544L223.302 248.497C223.302 248.497 141.111 228.976 138.818 237.114C136.525 245.251 218.717 264.772 218.717 264.772L239.968 269.819L202.158 292.066C202.158 292.066 90.6689 357.667 94.8599 364.802C99.051 371.938 210.54 306.337 210.54 306.337L248.35 284.089L242.422 305.129C242.422 305.129 219.493 386.503 227.712 388.455C235.931 390.407 258.86 309.033 258.86 309.033L264.788 287.993L286.104 324.283C286.104 324.283 348.957 431.29 356.391 426.916C363.825 422.542 300.972 315.535 300.972 315.535L279.657 279.245L300.908 284.292C300.908 284.292 383.099 303.812 385.392 295.675C387.685 287.538 305.494 268.017 305.494 268.017L284.242 262.97L322.052 240.722C322.052 240.722 433.541 175.122 429.35 167.986Z" fill="#F9346C" stroke="black" stroke-width="2.35" stroke-linecap="round" stroke-linejoin="round"/>
</svg>
