<svg width="383" height="388" viewBox="0 0 383 388" fill="none" xmlns="http://www.w3.org/2000/svg">
<path d="M342.237 237.064C343.949 230.4 246.643 205.48 246.643 205.48L213.642 197.029L228.633 187.885C228.633 187.885 286.611 152.523 283.233 146.637C279.856 140.751 221.879 176.114 221.879 176.114L206.888 185.257L215.595 151.367C215.595 151.367 241.269 51.4373 234.781 49.7756C228.292 48.1139 202.618 148.043 202.618 148.043L193.911 181.933L185.18 166.715C185.18 166.715 151.409 107.856 145.612 111.392C139.814 114.928 173.584 173.787 173.584 173.787L182.316 189.006L149.316 180.554C149.316 180.554 52.0091 155.634 50.2972 162.298C48.5852 168.961 145.892 193.881 145.892 193.881L178.892 202.333L163.901 211.476C163.901 211.476 105.924 246.838 109.301 252.724C112.678 258.61 170.655 223.248 170.655 223.248L185.646 214.104L176.939 247.994C176.939 247.994 151.265 347.924 157.754 349.585C164.242 351.247 189.916 251.318 189.916 251.318L198.623 217.428L207.355 232.646C207.355 232.646 241.125 291.505 246.923 287.969C252.72 284.433 218.95 225.574 218.95 225.574L210.219 210.355L243.219 218.807C243.219 218.807 340.525 243.727 342.237 237.064Z" fill="black"/>
<path d="M333.659 225.702C335.371 219.039 238.065 194.119 238.065 194.119L205.064 185.667L220.055 176.524C220.055 176.524 278.032 141.162 274.655 135.276C271.278 129.39 213.301 164.752 213.301 164.752L198.31 173.896L207.017 140.006C207.017 140.006 232.691 40.0763 226.202 38.4146C219.714 36.7529 194.04 136.682 194.04 136.682L185.333 170.572L176.602 155.354C176.602 155.354 142.831 96.4949 137.034 100.031C131.236 103.567 165.006 162.426 165.006 162.426L173.738 177.645L140.737 169.193C140.737 169.193 43.431 144.273 41.7191 150.937C40.0071 157.6 137.314 182.52 137.314 182.52L170.314 190.971L155.323 200.115C155.323 200.115 97.3458 235.477 100.723 241.363C104.1 247.249 162.077 211.886 162.077 211.886L177.068 202.743L168.361 236.633C168.361 236.633 142.687 336.563 149.176 338.224C155.664 339.886 181.338 239.957 181.338 239.957L190.045 206.067L198.777 221.285C198.777 221.285 232.547 280.144 238.345 276.608C244.142 273.072 210.372 214.213 210.372 214.213L201.64 198.994L234.641 207.446C234.641 207.446 331.947 232.366 333.659 225.702Z" fill="#FF8B13" stroke="black" stroke-width="2.35" stroke-linecap="round" stroke-linejoin="round"/>
</svg>
