<svg width="147" height="146" viewBox="0 0 147 146" fill="none" xmlns="http://www.w3.org/2000/svg">
<g clip-path="url(#clip0_1983_1852)">
<path d="M51.1664 125.427L55.6378 82.3029C55.6879 81.835 55.4494 81.3946 55.0391 81.1582L17.0234 60.1531C15.9142 59.5359 16.446 57.8436 17.7057 57.9814L60.9035 62.4935C61.3722 62.544 61.8131 62.3063 62.0494 61.8969L83.0489 23.9549C83.6658 22.8482 85.3615 23.381 85.2248 24.6386L80.7533 67.7629C80.7032 68.2309 80.9418 68.6712 81.3521 68.9077L119.368 89.9128C120.477 90.53 119.945 92.2223 118.685 92.0845L75.4877 87.5724C75.0189 87.5218 74.5781 87.7595 74.3418 88.1689L53.3453 126.101C52.7284 127.208 51.0328 126.675 51.1695 125.418L51.1664 125.427Z" fill="black"/>
<path d="M59.5952 121.874L64.0667 78.7495C64.1168 78.2816 63.8783 77.8412 63.4679 77.6048L25.4522 56.5997C24.3431 55.9825 24.8748 54.2901 26.1346 54.428L69.3324 58.9401C69.8011 58.9906 70.2419 58.7529 70.4782 58.3435L91.4747 20.4113C92.0916 19.3046 93.7872 19.8374 93.6506 21.0949L89.1791 64.2193C89.129 64.6872 89.3676 65.1276 89.7779 65.364L127.794 86.3691C128.903 86.9863 128.371 88.6787 127.111 88.5408L83.9134 84.0287C83.4447 83.9782 83.0039 84.2159 82.7676 84.6253L61.7711 122.558C61.1542 123.664 59.4586 123.131 59.5952 121.874Z" fill="#FF8B13" stroke="black" stroke-width="2.35" stroke-linecap="round" stroke-linejoin="round"/>
</g>
<defs>
<clipPath id="clip0_1983_1852">
<rect width="115.335" height="116.617" fill="white" transform="translate(146.082 35.3228) rotate(107.443)"/>
</clipPath>
</defs>
</svg>
