<svg width="191" height="218" viewBox="0 0 191 218" fill="none" xmlns="http://www.w3.org/2000/svg">
<path d="M189.728 85.8571C141.864 114.161 135.082 128.702 144.15 183.726C144.53 186.007 141.48 187.115 140.299 185.126C112.026 137.079 97.523 130.259 42.6799 139.29C40.4072 139.668 39.2989 136.608 41.2802 135.425C89.144 107.121 95.9264 92.5808 86.8579 37.5561C86.4784 35.2758 89.5279 34.1677 90.7093 36.1566C118.982 84.203 133.485 91.0238 188.328 81.9921C190.601 81.614 191.709 84.6744 189.728 85.8571Z" fill="black"/>
<path d="M176.691 81.5865C128.826 109.892 122.042 124.432 131.109 179.456C131.488 181.736 128.439 182.844 127.258 180.855C98.9862 132.811 84.4828 125.991 29.6384 135.025C27.3656 135.403 26.2575 132.342 28.2389 131.16C76.1046 102.854 82.8877 88.3137 73.8212 33.2903C73.4417 31.0101 76.4913 29.9019 77.6726 31.8907C105.944 79.9352 120.447 86.7553 175.292 77.7216C177.565 77.3435 178.673 80.4038 176.691 81.5865Z" fill="#8F55FF"/>
<path d="M176.691 81.5865C128.826 109.892 122.042 124.432 131.109 179.456C131.488 181.736 128.439 182.844 127.258 180.855C98.9862 132.811 84.4828 125.991 29.6384 135.025C27.3656 135.403 26.2574 132.342 28.2389 131.16C76.1046 102.854 82.8877 88.3137 73.8212 33.2903C73.4417 31.0101 76.4913 29.9019 77.6726 31.8907C105.944 79.9352 120.447 86.7553 175.292 77.7216C177.565 77.3435 178.673 80.4038 176.691 81.5865V81.5865Z" stroke="black" stroke-width="2.35" stroke-linecap="round" stroke-linejoin="round"/>
</svg>
