<svg width="119" height="118" viewBox="0 0 119 118" fill="none" xmlns="http://www.w3.org/2000/svg">
<path d="M20.704 74.1925L45.7774 54.4314C46.0503 54.2179 46.1518 53.859 46.0529 53.5103L36.4103 21.668C36.1312 20.7368 37.3089 20.1582 37.9215 20.9256L59.0414 47.1293C59.2697 47.4144 59.6342 47.5356 59.9777 47.4551L91.3173 39.5016C92.2338 39.2721 92.8761 40.484 92.1415 41.0568L67.0681 60.8179C66.7952 61.0314 66.6937 61.3903 66.7926 61.739L76.4352 93.5813C76.7143 94.5126 75.5366 95.0911 74.924 94.3238L53.8041 68.12C53.5758 67.8349 53.2113 67.7138 52.8678 67.7942L21.535 75.7444C20.6185 75.9739 19.9762 74.762 20.7108 74.1892L20.704 74.1925Z" fill="black"/>
<path d="M27.1532 76.9697L52.2256 57.2066C52.4985 56.9931 52.6 56.6341 52.5011 56.2855L42.8585 24.4426C42.5795 23.5114 43.7571 22.9327 44.3697 23.7001L65.4891 49.9036C65.7174 50.1887 66.0819 50.3098 66.4254 50.2293L97.7571 42.2773C98.6736 42.0477 99.3158 43.2596 98.5813 43.8325L73.5089 63.5955C73.2359 63.8091 73.1344 64.168 73.2334 64.5167L82.8759 96.3595C83.155 97.2908 81.9773 97.8694 81.3648 97.1021L60.2454 70.8986C60.017 70.6135 59.6526 70.4924 59.3091 70.5728L27.9774 78.5249C27.0609 78.7544 26.4186 77.5425 27.1532 76.9697V76.9697Z" fill="#FCF43D" stroke="black" stroke-width="2.35" stroke-linecap="round" stroke-linejoin="round"/>
</svg>
