<svg width="282" height="286" viewBox="0 0 282 286" fill="none" xmlns="http://www.w3.org/2000/svg">
<g clip-path="url(#clip0_1562_1512)">
<path d="M162.2 172.611C161.601 170.701 163.416 168.837 165.256 169.504C173.658 172.528 182.143 175.351 190.732 177.925C205.41 182.248 220.28 186.065 235.782 188.406C238.197 188.764 239.561 185.482 237.604 184.024C225.011 174.685 211.817 166.836 198.399 159.48C190.517 155.207 182.515 151.177 174.445 147.354C172.675 146.52 172.716 143.919 174.492 142.996C177.599 141.376 180.69 139.749 183.752 138.013C192.786 132.858 201.697 127.417 210.304 121.146C212.407 119.617 211.139 116.276 208.628 116.776C198.409 118.839 188.517 121.723 178.726 124.903C175.407 126.005 172.131 127.183 168.864 128.385C166.999 129.075 165.264 127.26 165.975 125.327C169.187 116.482 172.225 107.564 175.042 98.5544C179.737 83.193 183.951 67.6507 186.793 51.519C187.242 49.009 184.09 47.6989 182.628 49.7876C173.197 63.1805 165.151 77.1296 157.573 91.2928C153.157 99.6378 148.978 108.082 144.99 116.604C144.121 118.471 141.611 118.522 140.784 116.713C139.332 113.549 137.857 110.395 136.297 107.265C131.645 98.0818 126.712 89.0358 120.967 80.336C119.567 78.21 116.296 79.6446 116.688 82.2307C118.313 92.7547 120.741 102.909 123.458 112.95C124.403 116.352 125.423 119.707 126.466 123.052C127.065 124.962 125.25 126.826 123.41 126.159C114.985 123.145 106.485 120.315 97.887 117.718C83.2246 113.401 68.3704 109.591 52.8977 107.224C50.4904 106.848 49.1121 110.164 51.0761 111.606C63.6675 120.904 76.8457 128.747 90.2475 136.096C98.1298 140.369 106.132 144.399 114.201 148.222C115.972 149.056 115.931 151.657 114.154 152.58C111.047 154.2 107.95 155.843 104.894 157.563C95.8377 162.729 86.9036 168.179 78.2835 174.484C76.1804 176.013 77.4547 179.337 79.9588 178.854C90.1939 176.797 100.124 173.909 109.938 170.72C113.234 169.628 116.503 168.466 119.755 167.258C121.62 166.568 123.355 168.383 122.644 170.315C119.423 179.137 116.391 188.038 113.597 197.038C108.895 212.416 104.675 227.975 101.857 244.137C101.424 246.653 104.544 247.95 106.023 245.868C115.492 232.472 123.545 218.506 131.13 204.326C135.539 195.998 139.711 187.571 143.692 179.065C144.561 177.198 147.071 177.147 147.898 178.957C149.335 182.114 150.817 185.251 152.367 188.357C157.028 197.564 161.97 206.633 167.746 215.346C169.147 217.472 172.402 216.031 172.026 213.452C170.408 202.911 167.978 192.716 165.251 182.653C164.316 179.274 163.311 175.926 162.262 172.597L162.2 172.611Z" fill="black"/>
<path d="M156.529 165.837C155.929 163.927 157.744 162.063 159.585 162.73C167.986 165.753 176.471 168.577 185.06 171.151C199.738 175.474 214.608 179.291 230.111 181.631C232.525 181.99 233.889 178.708 231.932 177.249C219.339 167.911 206.145 160.062 192.727 152.706C184.845 148.433 176.843 144.403 168.773 140.58C167.003 139.746 167.044 137.145 168.82 136.222C171.927 134.602 175.018 132.975 178.08 131.239C187.114 126.083 196.025 120.643 204.632 114.372C206.735 112.842 205.467 109.502 202.956 110.001C192.737 112.065 182.846 114.949 173.054 118.128C169.735 119.231 166.459 120.409 163.192 121.611C161.327 122.301 159.592 120.486 160.303 118.553C163.515 109.708 166.554 100.79 169.37 91.7802C174.066 76.4187 178.279 60.8765 181.121 44.7448C181.57 42.2348 178.419 40.9247 176.956 43.0133C167.525 56.4063 159.479 70.3553 151.901 84.5186C147.485 92.8636 143.307 101.307 139.318 109.83C138.449 111.697 135.939 111.748 135.112 109.938C133.66 106.775 132.185 103.621 130.625 100.491C125.973 91.3076 121.041 82.2616 115.296 73.5618C113.895 71.4357 110.624 72.8703 111.016 75.4565C112.641 85.9805 115.069 96.1351 117.787 106.175C118.731 109.577 119.751 112.932 120.794 116.277C121.393 118.188 119.578 120.052 117.738 119.384C109.313 116.371 100.813 113.541 92.2151 110.944C77.5528 106.627 62.6985 102.817 47.2258 100.449C44.8186 100.074 43.4403 103.39 45.4042 104.831C57.9956 114.13 71.1738 121.972 84.5756 129.322C92.4579 133.595 100.46 137.625 108.529 141.448C110.3 142.282 110.259 144.883 108.482 145.806C105.376 147.426 102.278 149.069 99.2226 150.789C90.1658 155.954 81.2318 161.405 72.6116 167.71C70.5085 169.239 71.7829 172.563 74.287 172.08C84.5221 170.023 94.4522 167.135 104.266 163.946C107.562 162.854 110.831 161.692 114.083 160.483C115.948 159.793 117.683 161.609 116.972 163.541C113.751 172.363 110.719 181.264 107.926 190.264C103.223 205.642 99.0031 221.201 96.1855 237.363C95.7523 239.879 98.8723 241.176 100.351 239.094C109.82 225.698 117.873 211.732 125.458 197.552C129.867 189.224 134.039 180.797 138.02 172.291C138.889 170.424 141.399 170.373 142.226 172.182C143.663 175.339 145.145 178.476 146.695 181.583C151.356 190.79 156.298 199.859 162.074 208.572C163.475 210.698 166.731 209.257 166.354 206.677C164.736 196.137 162.306 185.942 159.579 175.879C158.644 172.5 157.64 169.151 156.59 165.823L156.529 165.837Z" fill="#F9346C" stroke="black" stroke-width="2.35" stroke-linecap="round" stroke-linejoin="round"/>
</g>
<defs>
<clipPath id="clip0_1562_1512">
<rect width="213.432" height="220.371" fill="white" transform="translate(84.5879) rotate(22.5721)"/>
</clipPath>
</defs>
</svg>
