<svg width="125" height="227" viewBox="0 0 125 227" fill="none" xmlns="http://www.w3.org/2000/svg">
<path d="M203.256 123.863C203.633 119.289 138.795 113.909 138.795 113.909L116.806 112.085L125.398 104.379C125.398 104.379 158.627 74.5776 155.837 71.0902C153.046 67.6028 119.817 97.4044 119.817 97.4044L111.225 105.11L113.14 81.8471C113.14 81.8471 118.788 13.253 114.465 12.8943C110.141 12.5356 104.493 81.1296 104.493 81.1296L102.578 104.392L95.363 95.3755C95.363 95.3755 67.4585 60.5015 64.1356 63.4817C60.8126 66.4618 88.7171 101.336 88.7171 101.336L95.932 110.353L73.943 108.528C73.943 108.528 9.10495 103.149 8.72835 107.723C8.35174 112.296 73.1898 117.676 73.1898 117.676L95.1788 119.501L86.587 127.206C86.587 127.206 53.3573 157.008 56.1478 160.495C58.9382 163.982 92.1679 134.181 92.1679 134.181L100.76 126.475L98.8443 149.738C98.8443 149.738 93.1965 218.332 97.52 218.691C101.843 219.05 107.491 150.456 107.491 150.456L109.407 127.193L116.622 136.21C116.622 136.21 144.526 171.084 147.849 168.104C151.172 165.123 123.268 130.249 123.268 130.249L116.053 121.233L138.042 123.057C138.042 123.057 202.88 128.437 203.256 123.863Z" fill="black"/>
<path d="M203.396 119.039C203.772 114.465 138.934 109.085 138.934 109.085L116.945 107.26L125.537 99.555C125.537 99.555 158.767 69.7534 155.976 66.266C153.186 62.7786 119.956 92.5802 119.956 92.5802L111.364 100.286L113.28 77.0229C113.28 77.0229 118.927 8.42881 114.604 8.07009C110.281 7.71137 104.633 76.3054 104.633 76.3054L102.717 99.5682L95.5024 90.5513C95.5024 90.5513 67.5979 55.6773 64.275 58.6574C60.952 61.6376 88.8565 96.5116 88.8565 96.5116L96.0714 105.529L74.0824 103.704C74.0824 103.704 9.24435 98.3244 8.86775 102.898C8.49115 107.472 73.3292 112.852 73.3292 112.852L95.3182 114.676L86.7264 122.382C86.7264 122.382 53.4967 152.183 56.2872 155.671C59.0776 159.158 92.3073 129.357 92.3073 129.357L100.899 121.651L98.9837 144.914C98.9837 144.914 93.3359 213.508 97.6594 213.867C101.983 214.226 107.631 145.631 107.631 145.631L109.546 122.369L116.761 131.386C116.761 131.386 144.665 166.26 147.988 163.279C151.311 160.299 123.407 125.425 123.407 125.425L116.192 116.408L138.181 118.233C138.181 118.233 203.019 123.612 203.396 119.039Z" fill="white" stroke="black" stroke-width="2.35" stroke-linecap="round" stroke-linejoin="round"/>
</svg>
