<svg width="380" height="370" viewBox="0 0 380 370" fill="none" xmlns="http://www.w3.org/2000/svg">
<path d="M337.091 143.185C335.229 137.171 241.244 166.356 241.244 166.356L209.371 176.254L217.422 161.703C217.422 161.703 248.563 105.427 242.816 102.551C237.068 99.6749 205.927 155.951 205.927 155.951L197.876 170.502L188.404 139.916C188.404 139.916 160.474 49.7291 154.208 51.6751C147.941 53.6212 175.87 143.808 175.87 143.808L185.342 174.394L170.481 166.958C170.481 166.958 113.006 138.199 109.892 143.827C106.778 149.454 164.253 178.213 164.253 178.213L179.114 185.649L147.24 195.547C147.24 195.547 53.2552 224.731 55.1176 230.745C56.9799 236.759 150.964 207.574 150.964 207.574L182.838 197.677L174.786 212.227C174.786 212.227 143.645 268.503 149.393 271.379C155.14 274.255 186.281 217.979 186.281 217.979L194.333 203.428L203.805 234.014C203.805 234.014 231.734 324.201 238.001 322.255C244.268 320.309 216.339 230.122 216.339 230.122L206.867 199.536L221.728 206.972C221.728 206.972 279.202 235.731 282.317 230.103C285.431 224.476 227.956 195.717 227.956 195.717L213.095 188.281L244.969 178.383C244.969 178.383 338.954 149.199 337.091 143.185Z" fill="black"/>
<path d="M324.273 138.659C322.411 132.645 228.426 161.83 228.426 161.83L196.552 171.727L204.604 157.177C204.604 157.177 235.745 100.901 229.997 98.0247C224.25 95.1489 193.109 151.425 193.109 151.425L185.057 165.976L175.585 135.39C175.585 135.39 147.656 45.203 141.389 47.1491C135.122 49.0951 163.051 139.282 163.051 139.282L172.523 169.868L157.663 162.432C157.663 162.432 100.188 133.673 97.0739 139.301C93.9598 144.928 151.435 173.687 151.435 173.687L166.295 181.123L134.421 191.021C134.421 191.021 40.4369 220.205 42.2992 226.219C44.1616 232.233 138.146 203.048 138.146 203.048L170.02 193.151L161.968 207.701C161.968 207.701 130.827 263.977 136.575 266.853C142.322 269.729 173.463 213.453 173.463 213.453L181.515 198.902L190.987 229.488C190.987 229.488 218.916 319.675 225.183 317.729C231.45 315.783 203.521 225.596 203.521 225.596L194.049 195.01L208.909 202.446C208.909 202.446 266.384 231.205 269.498 225.577C272.612 219.95 215.138 191.191 215.138 191.191L200.277 183.755L232.151 173.857C232.151 173.857 326.135 144.673 324.273 138.659Z" fill="#0071C6" stroke="black" stroke-width="2.35" stroke-linecap="round" stroke-linejoin="round"/>
</svg>
