<svg width="396" height="412" viewBox="0 0 396 412" fill="none" xmlns="http://www.w3.org/2000/svg">
<path d="M366.709 258.384C255.394 251.859 227.847 268.456 181.414 370.175C179.496 374.394 173.181 372.822 173.439 368.189C180.104 256.567 163.591 228.969 62.2086 182.556C58.003 180.639 59.5803 174.305 64.2006 174.557C175.516 181.082 203.064 164.485 249.496 62.7658C251.414 58.5463 257.729 60.1188 257.472 64.7518C250.806 176.374 267.319 203.972 368.702 250.385C372.907 252.302 371.33 258.636 366.709 258.384Z" fill="black"/>
<path d="M349.768 236.682C238.453 230.157 210.905 246.753 164.472 348.472C162.554 352.691 156.239 351.119 156.497 346.486C163.163 234.864 146.65 207.266 45.2678 160.853C41.0623 158.936 42.6396 152.602 47.2599 152.854C158.575 159.379 186.123 142.783 232.556 41.064C234.474 36.8445 240.788 38.4171 240.531 43.05C233.865 154.672 250.378 182.27 351.76 228.683C355.965 230.6 354.388 236.934 349.768 236.682V236.682Z" fill="#8F55FF"/>
<path d="M349.768 236.682C238.453 230.157 210.905 246.753 164.472 348.472C162.554 352.691 156.239 351.119 156.497 346.486C163.163 234.864 146.65 207.266 45.2678 160.853C41.0623 158.936 42.6396 152.602 47.2599 152.854C158.575 159.379 186.123 142.783 232.556 41.064C234.474 36.8445 240.788 38.4171 240.531 43.05C233.865 154.672 250.378 182.27 351.76 228.683C355.965 230.6 354.388 236.934 349.768 236.682V236.682Z" stroke="black" stroke-width="2.35" stroke-linecap="round" stroke-linejoin="round"/>
</svg>
