<svg width="104" height="105" viewBox="0 0 104 105" fill="none" xmlns="http://www.w3.org/2000/svg">
<path d="M87.7141 69.1805L57.4935 64.7818C57.1657 64.7329 56.8487 64.8882 56.6703 65.1703L40.7732 91.3327C40.3064 92.0958 39.1308 91.6723 39.2648 90.7892L43.7056 60.4995C43.7549 60.1709 43.6005 59.8535 43.3193 59.6752L17.2303 43.7874C16.4694 43.3209 16.8941 42.1422 17.7752 42.2749L47.9957 46.6737C48.3235 46.7225 48.6405 46.5673 48.8189 46.2852L64.716 20.1228C65.1828 19.3596 66.3584 19.7831 66.2245 20.6663L61.7836 50.956C61.7343 51.2846 61.8887 51.6019 62.1699 51.7802L88.2522 67.6656C89.013 68.1321 88.5883 69.3108 87.7073 69.1781L87.7141 69.1805Z" fill="black"/>
<path d="M85.4599 63.1421L55.2394 58.7433C54.9115 58.6945 54.5946 58.8497 54.4162 59.1318L38.5191 85.2942C38.0523 86.0574 36.8767 85.6339 37.0106 84.7507L41.4515 54.461C41.5008 54.1324 41.3464 53.8151 41.0652 53.6368L14.9829 37.7514C14.2221 37.2849 14.6468 36.1062 15.5278 36.2389L45.7484 40.6377C46.0762 40.6865 46.3932 40.5313 46.5716 40.2492L62.4687 14.0868C62.9355 13.3236 64.1111 13.7471 63.9771 14.6303L59.5363 44.92C59.487 45.2486 59.6414 45.5659 59.9226 45.7442L86.0048 61.6296C86.7657 62.0961 86.341 63.2748 85.4599 63.1421Z" fill="#FCF43D" stroke="black" stroke-width="2.35" stroke-linecap="round" stroke-linejoin="round"/>
</svg>
