<svg width="193" height="194" viewBox="0 0 193 194" fill="none" xmlns="http://www.w3.org/2000/svg">
<path d="M117.872 115.652C116.931 114.066 118.23 112.09 120.065 112.354C128.437 113.537 136.846 114.528 145.3 115.28C159.733 116.497 174.24 117.231 189.032 116.544C191.335 116.432 191.93 113.28 189.827 112.336C176.304 106.302 162.528 101.695 148.645 97.5651C140.5 95.1816 132.292 93.0351 124.065 91.0837C122.261 90.6601 121.772 88.347 123.226 87.2128C125.767 85.2234 128.292 83.2309 130.769 81.1463C138.068 74.9675 145.197 68.5575 151.875 61.4659C153.508 59.7357 151.661 57.0004 149.443 57.8908C140.422 61.5404 131.87 65.8586 123.471 70.421C120.629 71.9891 117.842 73.6173 115.068 75.2645C113.484 76.2084 111.515 74.9084 111.78 73.0691C112.955 64.6565 113.955 56.2108 114.731 47.7229C115.956 33.2706 116.699 18.7438 116.057 3.93882C115.963 1.63404 112.787 1.03422 111.859 3.14609C105.861 16.6972 101.256 30.4945 97.1258 44.3983C94.7374 52.5817 92.5883 60.8104 90.6308 69.0753C90.2065 70.8845 87.8985 71.3767 86.7684 69.9203C84.7861 67.3749 82.7847 64.8425 80.7105 62.346C74.5532 55.0347 68.1652 47.8953 61.0968 41.2074C59.3722 39.5724 56.6417 41.4267 57.5279 43.6491C61.1604 52.6879 65.4603 61.256 70.0039 69.6713C71.5656 72.5185 73.1873 75.3107 74.828 78.0899C75.7682 79.6761 74.4694 81.6517 72.6347 81.3881C64.2434 80.2177 55.8187 79.2234 47.3518 78.4532C32.9351 77.2388 18.4436 76.5076 3.67336 77.1655C1.374 77.2616 0.772638 80.4461 2.8786 81.3741C16.3918 87.3731 30.1519 91.9769 44.0186 96.1037C52.1644 98.4872 60.3714 100.634 68.5988 102.585C70.4033 103.009 70.8922 105.322 69.4382 106.456C66.897 108.445 64.3688 110.454 61.8953 112.522C54.5767 118.714 47.4293 125.137 40.7447 132.261C39.112 133.991 40.9624 136.71 43.1773 135.836C52.2138 132.189 60.8005 127.861 69.219 123.286C72.0418 121.731 74.8258 120.119 77.584 118.468C79.1673 117.524 81.1369 118.824 80.8722 120.664C79.6839 129.057 78.6871 137.487 77.9298 145.962C76.7018 160.43 75.9557 174.973 76.6271 189.8C76.7368 192.108 79.8812 192.702 80.825 190.593C86.8573 177.032 91.466 163.218 95.5989 149.299C97.9843 141.131 100.13 132.918 102.085 124.67C102.509 122.86 104.817 122.368 105.947 123.825C107.914 126.367 109.918 128.883 111.979 131.361C118.15 138.691 124.55 145.85 131.651 152.544C133.375 154.178 136.09 152.321 135.22 150.102C131.59 141.047 127.28 132.444 122.724 124.009C121.175 121.181 119.569 118.392 117.926 115.629L117.872 115.652Z" fill="#0071C6" stroke="black" stroke-width="2.35" stroke-linecap="round" stroke-linejoin="round"/>
</svg>
