<svg width="370" height="403" viewBox="0 0 370 403" fill="none" xmlns="http://www.w3.org/2000/svg">
<path d="M355.649 155.854C353.506 149.302 255.576 181.336 255.576 181.336L222.364 192.2L230.384 176.318C230.384 176.318 261.398 114.892 255.266 111.77C249.134 108.648 218.119 170.074 218.119 170.074L210.1 185.956L199.199 152.632C199.199 152.632 167.057 54.3717 160.526 56.5078C153.996 58.6439 186.139 156.904 186.139 156.904L197.04 190.228L181.185 182.156C181.185 182.156 119.864 150.934 116.762 157.077C113.661 163.22 174.982 194.441 174.982 194.441L190.837 202.513L157.626 213.378C157.626 213.378 59.6959 245.412 61.8392 251.964C63.9825 258.517 161.912 226.482 161.912 226.482L195.124 215.618L187.105 231.5C187.105 231.5 156.09 292.926 162.223 296.048C168.355 299.17 199.369 237.744 199.369 237.744L207.388 221.862L218.289 255.186C218.289 255.186 250.432 353.446 256.962 351.31C263.492 349.174 231.349 250.914 231.349 250.914L220.448 217.59L236.303 225.662C236.303 225.662 297.624 256.884 300.726 250.741C303.827 244.598 242.506 213.377 242.506 213.377L226.651 205.305L259.863 194.44C259.863 194.44 357.793 162.406 355.649 155.854V155.854Z" fill="black"/>
<path d="M342.029 150.953C339.886 144.401 241.956 176.436 241.956 176.436L208.744 187.3L216.763 171.418C216.763 171.418 247.778 109.992 241.646 106.87C235.513 103.748 204.499 165.174 204.499 165.174L196.48 181.056L185.579 147.732C185.579 147.732 153.436 49.4716 146.906 51.6077C140.376 53.7438 172.519 152.004 172.519 152.004L183.42 185.328L167.565 177.256C167.565 177.256 106.244 146.034 103.142 152.177C100.041 158.319 161.362 189.541 161.362 189.541L177.217 197.613L144.005 208.478C144.005 208.478 46.0756 240.512 48.2189 247.064C50.3622 253.616 148.292 221.582 148.292 221.582L181.504 210.718L173.485 226.6C173.485 226.6 142.47 288.026 148.602 291.148C154.734 294.27 185.749 232.844 185.749 232.844L193.768 216.962L204.669 250.286C204.669 250.286 236.812 348.546 243.342 346.41C249.872 344.274 217.729 246.013 217.729 246.013L206.828 212.69L222.683 220.762C222.683 220.762 284.004 251.983 287.106 245.841C290.207 239.698 228.886 208.477 228.886 208.477L213.031 200.404L246.243 189.54C246.243 189.54 344.172 157.506 342.029 150.953V150.953Z" fill="white" stroke="black" stroke-width="2.35" stroke-linecap="round" stroke-linejoin="round"/>
</svg>
