<svg width="126" height="130" viewBox="0 0 126 130" fill="none" xmlns="http://www.w3.org/2000/svg">
<path d="M121.956 84.9692C124.302 85.2744 125.082 82.7384 122.966 81.683C115.615 78.0339 107.515 74.3511 98.6929 70.7817C90.1814 67.3425 82.0803 64.4691 74.5152 62.0381C73.3706 61.6745 72.674 60.6621 72.9434 59.7387C75.571 50.9583 77.9802 41.4631 79.9946 31.2565C81.871 21.7362 83.2076 12.5934 84.1114 3.90745C84.3162 1.91162 80.8861 0.856577 79.9205 2.61841C75.464 10.79 71.6882 19.1709 68.1393 27.6216C64.3821 36.7023 61.0285 45.8955 57.9786 55.1937C57.689 56.0877 56.5604 56.5271 55.4194 56.1993C47.1725 53.8478 38.8471 51.7034 30.4571 49.8168C21.714 47.891 12.8957 46.1618 3.92182 44.9862C1.57589 44.681 0.795854 47.2171 2.90778 48.283C10.9912 52.3539 19.2569 55.8795 27.571 59.2001C35.571 62.3547 43.649 65.2557 51.792 67.9454C52.9199 68.3155 53.5932 69.3091 53.3436 70.2155C50.6408 79.6204 48.2481 89.1092 46.2393 98.7276C44.3768 107.871 42.7779 117.106 41.8897 126.549C41.7014 128.538 45.1182 129.589 46.0806 127.838C50.6525 119.528 54.5204 110.99 58.118 102.381C61.8587 93.3071 65.2256 84.118 68.2622 74.8157C68.5518 73.9216 69.6804 73.4822 70.8213 73.8101C79.0651 76.1722 87.3803 78.3018 95.767 80.199C104.4 82.1026 113.078 83.8118 121.939 84.9757L121.956 84.9692Z" fill="#0071C6" stroke="black" stroke-width="2.35" stroke-linecap="round" stroke-linejoin="round"/>
</svg>
