<svg width="183" height="257" viewBox="0 0 183 257" fill="none" xmlns="http://www.w3.org/2000/svg">
<path d="M179.358 157.209L76.3424 156.887C75.2242 156.879 74.2359 157.557 73.7687 158.597L32.599 254.724C31.3875 257.529 27.265 256.663 27.3088 253.612L28.3019 149.045C28.3165 147.91 27.6554 146.911 26.634 146.444L-67.826 105.28C-70.5821 104.069 -69.7018 99.8784 -66.6963 99.9028L36.3189 100.225C37.437 100.233 38.4253 99.5551 38.8926 98.5153L80.0623 2.38839C81.2737 -0.417181 85.3962 0.448897 85.3524 3.49977L84.3593 108.067C84.3448 109.202 85.0058 110.201 86.0273 110.668L180.463 151.827C183.22 153.039 182.339 157.229 179.334 157.204L179.358 157.209Z" fill="black"/>
</svg>
