<svg width="320" height="308" viewBox="0 0 320 308" fill="none" xmlns="http://www.w3.org/2000/svg">
<path d="M289.995 183.465C291.161 178.062 206.853 161.277 206.853 161.277L178.261 155.585L190.67 147.754C190.67 147.754 238.664 117.47 235.514 112.859C232.364 108.248 184.371 138.532 184.371 138.532L171.962 146.363L177.894 118.884C177.894 118.884 195.388 37.8608 189.766 36.7416C184.145 35.6224 166.651 116.646 166.651 116.646L160.718 144.124L152.574 132.202C152.574 132.202 121.075 86.0912 116.276 89.1197C111.476 92.1481 142.975 138.259 142.975 138.259L151.119 150.181L122.527 144.489C122.527 144.489 38.2194 127.704 37.0529 133.107C35.8864 138.509 120.194 155.294 120.194 155.294L148.786 160.986L136.377 168.817C136.377 168.817 88.3842 199.101 91.5341 203.712C94.6839 208.323 142.677 178.039 142.677 178.039L155.086 170.209L149.153 197.687C149.153 197.687 131.66 278.71 137.281 279.83C142.903 280.949 160.397 199.925 160.397 199.925L166.33 172.447L174.474 184.369C174.474 184.369 205.973 230.48 210.772 227.451C215.571 224.423 184.073 178.312 184.073 178.312L175.928 166.39L204.52 172.083C204.52 172.083 288.828 188.867 289.995 183.465V183.465Z" fill="black"/>
<path d="M282.493 174.675C283.66 169.272 199.352 152.487 199.352 152.487L170.76 146.795L183.169 138.964C183.169 138.964 231.162 108.68 228.012 104.069C224.862 99.4576 176.869 129.742 176.869 129.742L164.46 137.573L170.393 110.094C170.393 110.094 187.887 29.0709 182.265 27.9516C176.643 26.8324 159.149 107.856 159.149 107.856L153.217 135.334L145.072 123.412C145.072 123.412 113.574 77.3013 108.774 80.3298C103.975 83.3583 135.474 129.469 135.474 129.469L143.618 141.391L115.026 135.699C115.026 135.699 30.7179 118.914 29.5513 124.317C28.3848 129.719 112.693 146.504 112.693 146.504L141.285 152.197L128.876 160.027C128.876 160.027 80.8826 190.311 84.0324 194.923C87.1823 199.534 135.176 169.249 135.176 169.249L147.585 161.419L141.652 188.897C141.652 188.897 124.158 269.92 129.78 271.04C135.401 272.159 152.895 191.135 152.895 191.135L158.828 163.657L166.972 175.579C166.972 175.579 198.471 221.69 203.27 218.661C208.07 215.633 176.571 169.522 176.571 169.522L168.427 157.6L197.019 163.292C197.019 163.292 281.327 180.077 282.493 174.675V174.675Z" fill="#0071C6" stroke="black" stroke-width="4" stroke-linecap="round" stroke-linejoin="round"/>
</svg>
