<svg width="154" height="160" viewBox="0 0 154 160" fill="none" xmlns="http://www.w3.org/2000/svg">
<path d="M149.74 90.6203C152.543 90.4894 152.931 87.3515 150.243 86.5542C140.906 83.8054 130.685 81.173 119.646 78.8242C108.996 76.5634 98.9421 74.8808 89.6053 73.6056C88.1935 73.4175 87.1711 72.375 87.2955 71.2355C88.555 60.3868 89.412 48.745 89.6614 36.3509C89.8909 24.7906 89.5678 13.7858 88.8334 3.40718C88.6613 1.02301 84.4376 0.500174 83.6729 2.76839C80.1519 13.284 77.4691 23.9034 75.0657 34.5574C72.5487 45.9938 70.5264 57.4782 68.8805 69.0224C68.7265 70.1317 67.4988 70.8824 66.0987 70.7356C55.9818 69.6957 45.8161 68.9152 35.6281 68.4506C25.0194 68.0135 14.3636 67.8228 3.64006 68.314C0.837187 68.4449 0.448774 71.5827 3.13512 72.3931C13.4152 75.4843 23.7959 77.8976 34.191 80.0604C44.1848 82.094 54.2175 83.8138 64.2826 85.2721C65.6763 85.4712 66.6674 86.4965 66.5627 87.6119C65.3441 99.209 64.5051 110.84 64.141 122.543C63.8498 133.657 63.8857 144.826 64.7943 156.089C64.9845 158.462 69.1918 158.983 69.9548 156.727C73.5823 146.026 76.3403 135.203 78.768 124.353C81.2669 112.928 83.3057 101.446 84.9351 89.8994C85.0891 88.7901 86.3168 88.0394 87.717 88.1862C97.8322 89.2392 107.983 90.0045 118.169 90.4823C128.645 90.9161 139.133 91.1127 149.722 90.6313L149.74 90.6203Z" fill="#0071C6" stroke="black" stroke-width="2.35" stroke-linecap="round" stroke-linejoin="round"/>
</svg>
