<svg width="265" height="257" viewBox="0 0 265 257" fill="none" xmlns="http://www.w3.org/2000/svg">
<path d="M172.748 153.363C171.316 151.247 173.142 148.618 175.832 148.974C188.109 150.571 200.431 151.912 212.811 152.933C233.943 154.59 255.167 155.603 276.755 154.723C280.115 154.579 280.869 150.38 277.762 149.117C257.783 141.044 237.486 134.872 217.05 129.336C205.061 126.14 192.991 123.26 180.899 120.64C178.247 120.072 177.448 116.988 179.531 115.48C183.171 112.835 186.788 110.186 190.33 107.415C200.769 99.1986 210.95 90.6742 220.449 81.2405C222.771 78.939 219.972 75.2896 216.764 76.4708C203.717 81.3123 191.38 87.0459 179.274 93.1053C175.179 95.188 171.167 97.3509 167.174 99.5392C164.895 100.793 161.969 99.0562 162.289 96.6059C163.699 85.3987 164.85 74.147 165.674 62.8385C166.935 43.5833 167.489 24.2278 166.009 4.49818C165.788 1.42678 161.125 0.619881 159.846 3.43177C151.579 21.4746 145.355 39.8488 139.829 58.3661C136.639 69.265 133.8 80.2248 131.242 91.2333C130.688 93.6431 127.334 94.2935 125.63 92.3501C122.64 88.9535 119.623 85.5742 116.501 82.2426C107.237 72.4853 97.6422 62.9564 87.0697 54.0277C84.4902 51.8449 80.5684 54.3093 81.9446 57.2728C87.5827 69.3259 94.1789 80.7535 101.126 91.978C103.512 95.7757 105.983 99.5003 108.482 103.208C109.914 105.324 108.089 107.953 105.398 107.597C93.0946 106.018 80.7488 104.672 68.3495 103.626C47.2405 101.973 26.0402 100.964 4.48314 101.805C1.12702 101.928 0.364871 106.17 3.47588 107.411C23.4397 115.437 43.7132 121.605 64.1251 127.138C76.1142 130.333 88.1842 133.213 100.277 135.833C102.929 136.402 103.728 139.485 101.645 140.993C98.0047 143.638 94.3841 146.308 90.8457 149.059C80.3789 157.292 70.1707 165.834 60.6644 175.31C58.3422 177.612 61.1453 181.24 64.3495 180.08C77.4196 175.242 89.8073 169.496 101.94 163.419C106.008 161.353 110.017 159.212 113.986 157.02C116.265 155.765 119.191 157.503 118.871 159.953C117.442 171.135 116.294 182.365 115.497 193.656C114.233 212.933 113.675 232.31 115.198 252.069C115.443 255.144 120.059 255.943 121.361 253.135C129.678 235.079 135.907 216.683 141.436 198.145C144.623 187.267 147.458 176.329 150.012 165.342C150.565 162.932 153.92 162.281 155.624 164.225C158.59 167.617 161.611 170.975 164.714 174.282C173.997 184.064 183.612 193.619 194.231 202.555C196.81 204.738 200.709 202.27 199.356 199.31C193.722 187.236 187.11 175.762 180.144 164.512C177.777 160.739 175.329 157.019 172.826 153.333L172.748 153.363Z" fill="#8F55FF" stroke="black" stroke-width="2.35" stroke-linecap="round" stroke-linejoin="round"/>
</svg>
