<svg width="169" height="176" viewBox="0 0 169 176" fill="none" xmlns="http://www.w3.org/2000/svg">
<path d="M157.48 104.532L100.021 108.362C99.3971 108.402 98.8708 108.821 98.6483 109.423L79.2119 165.017C78.6391 166.64 76.3084 166.315 76.221 164.599L72.9433 105.828C72.9098 105.19 72.5046 104.655 71.9178 104.432L17.7328 84.9905C16.1514 84.4176 16.4888 82.0298 18.1657 81.9265L75.6252 78.0959C76.249 78.0564 76.7753 77.6374 76.9978 77.0351L96.4342 21.4405C97.007 19.8175 99.3377 20.1434 99.4251 21.8587L102.703 80.6295C102.736 81.2675 103.142 81.8027 103.728 82.0255L157.9 101.466C159.481 102.039 159.144 104.426 157.467 104.53L157.48 104.532Z" fill="black"/>
<path d="M151.031 94.0731L93.5711 97.9037C92.9473 97.9431 92.421 98.3621 92.1985 98.9644L72.7621 154.559C72.1893 156.182 69.8586 155.856 69.7712 154.141L66.4935 95.3701C66.46 94.732 66.0548 94.1968 65.468 93.974L11.2965 74.534C9.71508 73.961 10.0525 71.5732 11.7294 71.4699L69.1889 67.6393C69.8127 67.5999 70.339 67.1808 70.5615 66.5786L89.9979 10.9839C90.5707 9.36097 92.9014 9.68687 92.9888 11.4022L96.2665 70.1729C96.3 70.811 96.7052 71.3462 97.292 71.569L151.464 91.009C153.045 91.582 152.708 93.9698 151.031 94.0731Z" fill="#FCF43D" stroke="black" stroke-width="4" stroke-linecap="round" stroke-linejoin="round"/>
</svg>
