<svg width="264" height="257" viewBox="0 0 264 257" fill="none" xmlns="http://www.w3.org/2000/svg">
<path d="M257.974 204.242L144.266 166.217C143.033 165.801 141.707 166.162 140.832 167.1L62.1499 254.579C59.8426 257.129 55.5868 254.697 56.6887 251.459L93.8954 140.28C94.3034 139.075 93.9179 137.768 92.9507 136.895L2.82339 58.4482C0.196445 56.148 2.61605 52.0003 5.9283 53.1258L119.636 91.1509C120.869 91.5676 122.195 91.2064 123.07 90.2681L201.753 2.78869C204.06 0.239112 208.316 2.6709 207.214 5.90924L170.007 117.088C169.599 118.293 169.985 119.6 170.952 120.473L261.079 198.92C263.706 201.22 261.286 205.368 257.974 204.242Z" fill="#FCF43D" stroke="black" stroke-width="2.35" stroke-linecap="round" stroke-linejoin="round"/>
</svg>
