<svg width="152" height="158" viewBox="0 0 152 158" fill="none" xmlns="http://www.w3.org/2000/svg">
<path d="M149.322 89.746C152.125 89.6151 152.513 86.4773 149.826 85.6799C140.488 82.9311 130.267 80.2987 119.228 77.9499C108.578 75.6891 98.5241 74.0065 89.1873 72.7313C87.7755 72.5433 86.7532 71.5008 86.8775 70.3613C88.137 59.5126 88.9941 47.8707 89.2434 35.4766C89.473 23.9163 89.1498 12.9116 88.4155 2.53291C88.2434 0.148742 84.0196 -0.374094 83.2549 1.89412C79.734 12.4098 77.0511 23.0292 74.6477 33.6831C72.1307 45.1195 70.1084 56.6039 68.4625 68.1481C68.3085 69.2574 67.0809 70.0081 65.6807 69.8613C55.5638 68.8214 45.3982 68.0409 35.2101 67.5763C24.6015 67.1392 13.9456 66.9485 3.22209 67.4397C0.419219 67.5707 0.030805 70.7085 2.71715 71.5189C12.9973 74.61 23.378 77.0233 33.773 79.1862C43.7668 81.2198 53.7995 82.9395 63.8646 84.3978C65.2583 84.5969 66.2494 85.6222 66.1447 86.7376C64.9261 98.3347 64.0871 109.966 63.7231 121.668C63.4319 132.783 63.4678 143.951 64.3763 155.214C64.5665 157.588 68.7738 158.108 69.5369 155.853C73.1643 145.152 75.9223 134.329 78.35 123.479C80.8489 112.054 82.8877 100.571 84.5172 89.0251C84.6712 87.9159 85.8988 87.1651 87.299 87.3119C97.4142 88.3649 107.565 89.1303 117.752 89.608C128.227 90.0419 138.715 90.2384 149.304 89.7571L149.322 89.746Z" fill="black"/>
</svg>
