<svg width="183" height="343" viewBox="0 0 183 343" fill="none" xmlns="http://www.w3.org/2000/svg">
<path d="M88.494 194.651C86.7397 192.315 87.7082 188.406 90.1428 188.115C101.246 186.755 112.328 185.052 123.385 182.919C142.237 179.166 161.017 174.556 179.664 167.396C182.564 166.273 182.224 160.633 179.209 159.867C159.836 155.003 140.638 152.685 121.471 151.228C110.238 150.441 99.0102 150.085 87.8242 150.07C85.3723 150.075 83.9405 146.311 85.401 143.781C87.951 139.346 90.4796 134.912 92.9138 130.34C100.077 116.806 106.94 102.945 112.992 88.0982C114.472 84.4748 111.159 80.5374 108.638 82.9595C98.3943 92.8585 88.983 103.713 79.8513 114.924C76.7704 118.759 73.7803 122.675 70.8134 126.618C69.1213 128.875 66.1526 127.445 65.8484 124.188C64.4121 109.305 62.74 94.4366 60.7678 79.5862C57.286 54.3397 53.1631 29.1607 47.1738 4.06559C46.2494 0.156363 41.9845 0.413877 41.5372 4.40592C38.6108 30.0393 37.5473 55.5315 37.1285 81.0135C36.936 95.9946 37.0651 110.956 37.4513 125.902C37.5411 129.173 34.7661 130.949 32.8147 128.912C29.3949 125.355 25.9555 121.827 22.4354 118.391C12.0212 108.36 1.37232 98.7166 -9.98764 90.122C-12.7603 88.0196 -15.5993 92.2997 -13.6919 95.7473C-5.89821 109.758 2.58334 122.692 11.3228 135.267C14.3108 139.511 17.3562 143.637 20.4213 147.733C22.1757 150.069 21.2071 153.978 18.7725 154.268C7.64973 155.658 -3.45404 157.363 -14.5336 159.469C-33.3649 163.22 -52.123 167.83 -70.752 174.931C-73.6543 176.025 -73.3103 181.722 -70.2974 182.46C-50.9493 187.268 -31.7729 189.587 -12.627 191.045C-1.39432 191.832 9.83389 192.189 21.0199 192.203C23.4718 192.198 24.9036 195.962 23.4432 198.493C20.8931 202.928 18.3663 207.39 15.9303 211.933C8.74761 225.497 1.86426 239.388 -4.1836 254.292C-5.6641 257.916 -2.35217 261.824 0.170555 259.431C10.4353 249.531 19.8878 238.645 29.0391 227.404C32.1004 223.599 35.0922 219.712 38.0376 215.77C39.7297 213.513 42.6984 214.943 43.0026 218.2C44.4158 233.055 46.0862 247.895 48.078 262.716C51.5615 287.991 55.6862 313.198 61.7201 338.32C62.6659 342.228 66.888 341.973 67.3567 337.979C70.3242 312.315 71.386 286.794 71.8031 261.283C71.9973 246.331 71.87 231.398 71.4855 216.48C71.3956 213.21 74.1707 211.433 76.122 213.471C79.5204 217.029 82.9581 220.528 86.455 223.937C96.8924 233.995 107.564 243.666 118.967 252.258C121.74 254.36 124.558 250.082 122.671 246.633C114.876 232.594 106.37 219.603 97.6071 207.002C94.6422 202.785 91.6182 198.657 88.5548 194.59L88.494 194.651Z" fill="#FCF43D" stroke="black" stroke-width="2.35" stroke-linecap="round" stroke-linejoin="round"/>
</svg>
