<svg width="199" height="231" viewBox="0 0 199 231" fill="none" xmlns="http://www.w3.org/2000/svg">
<path d="M109.859 126.433C108.347 125.274 108.909 122.928 110.822 122.507C119.54 120.567 128.224 118.432 136.865 116.053C151.594 111.93 166.219 107.323 180.606 101.265C182.844 100.317 182.279 97.1136 179.852 96.9882C164.261 96.2168 148.941 96.8896 133.691 98.0532C124.758 98.7736 115.85 99.7408 106.994 100.9C105.053 101.159 103.722 99.1466 104.746 97.541C106.533 94.7278 108.302 91.9176 109.99 89.038C114.952 80.5177 119.66 71.8411 123.673 62.6833C124.655 60.4479 121.826 58.5326 119.957 60.1866C112.366 66.9407 105.484 74.1565 98.8418 81.548C96.6035 84.0719 94.4414 86.6328 92.2992 89.2069C91.0778 90.6797 88.6528 90.1685 88.2414 88.3297C86.325 79.9326 84.2227 71.5683 81.8838 63.2456C77.8055 49.1102 73.2231 35.0804 67.1676 21.2936C66.2311 19.1451 62.8682 19.7381 62.7232 22.0774C61.7488 37.1038 62.2417 51.8548 63.2444 66.5326C63.8765 75.1562 64.7621 83.7351 65.8505 92.2782C66.0929 94.1468 63.989 95.4567 62.3375 94.4905C59.444 92.8044 56.5364 91.1376 53.5698 89.5315C44.8001 84.8578 35.8649 80.4312 26.4217 76.6811C24.1166 75.7631 22.0932 78.5174 23.7838 80.2983C30.6873 87.5309 38.0791 94.0739 45.6561 100.383C48.2438 102.509 50.8708 104.56 53.5118 106.593C55.0229 107.751 54.4608 110.097 52.5487 110.518C43.8161 112.477 35.115 114.615 26.4541 116.981C11.7427 121.101 -2.86584 125.706 -17.2418 131.728C-19.4821 132.66 -18.9114 135.895 -16.4876 136.004C-0.918848 136.746 14.3836 136.076 29.6169 134.916C38.5505 134.196 47.458 133.228 56.3143 132.069C58.2551 131.811 59.5856 133.823 58.5619 135.428C56.7754 138.241 55.0087 141.068 53.3182 143.931C48.3422 152.471 43.6204 161.167 39.613 170.357C38.6307 172.592 41.4572 174.491 43.329 172.853C50.9368 166.096 57.8498 158.858 64.5059 151.448C66.7301 148.943 68.895 146.398 71.0204 143.827C72.2418 142.354 74.6668 142.866 75.0782 144.704C76.9748 153.088 79.0742 161.436 81.4271 169.74C85.5084 183.891 90.0936 197.937 96.1858 211.735C97.1392 213.88 100.468 213.293 100.63 210.951C101.636 195.902 101.14 181.135 100.134 166.441C99.5049 157.834 98.6222 149.271 97.5367 140.744C97.2943 138.875 99.3982 137.566 101.05 138.532C103.926 140.221 106.831 141.871 109.778 143.464C118.567 148.151 127.522 152.591 136.999 156.335C139.304 157.253 141.311 154.502 139.637 152.718C132.731 145.469 125.316 138.897 117.72 132.574C115.152 130.462 112.542 128.407 109.903 126.391L109.859 126.433Z" fill="black"/>
<path d="M101.488 124.12C99.9765 122.961 100.539 120.615 102.451 120.194C111.169 118.254 119.853 116.119 128.495 113.74C143.223 109.617 157.848 105.01 172.235 98.9517C174.473 98.0039 173.908 94.8006 171.481 94.6752C155.89 93.9038 140.571 94.5767 125.32 95.7403C116.387 96.4606 107.479 97.4278 98.623 98.5872C96.6822 98.8456 95.3516 96.8336 96.3753 95.228C98.1618 92.4148 99.9314 89.6046 101.619 86.725C106.581 78.2048 111.289 69.5281 115.302 60.3703C116.284 58.1349 113.455 56.2196 111.586 57.8737C103.995 64.6277 97.1129 71.8435 90.4709 79.235C88.2326 81.759 86.0705 84.3198 83.9283 86.8939C82.7069 88.3667 80.2819 87.8555 79.8705 86.0167C77.9541 77.6196 75.8518 69.2553 73.5129 60.9326C69.4346 46.7972 64.8522 32.7674 58.7967 18.9806C57.8602 16.8321 54.4973 17.4251 54.3523 19.7644C53.3779 34.7909 53.8708 49.5418 54.8735 64.2196C55.5056 72.8432 56.3912 81.4221 57.4796 89.9653C57.722 91.8338 55.6181 93.1437 53.9666 92.1775C51.0731 90.4914 48.1655 88.8246 45.1989 87.2185C36.4292 82.5448 27.494 78.1182 18.0508 74.3681C15.7457 73.4501 13.7223 76.2044 15.4129 77.9853C22.3164 85.2179 29.7082 91.7609 37.2852 98.07C39.8729 100.196 42.4999 102.247 45.1409 104.28C46.652 105.438 46.0899 107.784 44.1778 108.205C35.4452 110.164 26.7441 112.302 18.0832 114.668C3.37177 118.788 -11.2367 123.393 -25.6127 129.415C-27.853 130.347 -27.2823 133.582 -24.8586 133.691C-9.28976 134.433 6.01268 133.764 21.246 132.603C30.1796 131.883 39.0871 130.915 47.9433 129.756C49.8842 129.498 51.2147 131.51 50.191 133.115C48.4045 135.928 46.6378 138.755 44.9473 141.618C39.9713 150.158 35.2495 158.854 31.2421 168.044C30.2598 170.279 33.0863 172.178 34.9581 170.54C42.5659 163.783 49.4789 156.545 56.135 149.135C58.3592 146.63 60.5241 144.085 62.6495 141.514C63.8709 140.041 66.2959 140.553 66.7073 142.391C68.6039 150.775 70.7033 159.123 73.0562 167.427C77.1374 181.578 81.7228 195.625 87.8149 209.422C88.7683 211.567 92.0974 210.98 92.2593 208.638C93.2647 193.589 92.7689 178.822 91.7632 164.128C91.134 155.521 90.2513 146.958 89.1658 138.431C88.9234 136.562 91.0273 135.253 92.6788 136.219C95.5554 137.908 98.4601 139.558 101.407 141.151C110.196 145.838 119.151 150.278 128.628 154.022C130.933 154.94 132.94 152.189 131.266 150.405C124.36 143.156 116.946 136.584 109.349 130.261C106.781 128.149 104.171 126.094 101.533 124.078L101.488 124.12Z" fill="#8F55FF" stroke="black" stroke-width="4" stroke-linecap="round" stroke-linejoin="round"/>
</svg>
