<svg width="311" height="422" viewBox="0 0 311 422" fill="none" xmlns="http://www.w3.org/2000/svg">
<path d="M397.2 152.246C394.443 142.945 262.583 182.029 262.583 182.029L217.864 195.284L228.897 173.517C228.897 173.517 271.57 89.3315 263.404 84.5981C255.239 79.8647 212.566 164.05 212.566 164.05L201.533 185.817L187.512 138.511C187.512 138.511 146.167 -0.976155 137.374 1.63C128.582 4.23614 169.926 143.724 169.926 143.724L183.948 191.029L162.835 178.791C162.835 178.791 81.1799 131.456 76.9126 139.875C72.6454 148.294 154.301 195.628 154.301 195.628L175.413 207.866L130.695 221.121C130.695 221.121 -1.16574 260.205 1.59116 269.506C4.34805 278.807 136.208 239.723 136.208 239.723L180.927 226.468L169.894 248.235C169.894 248.235 127.221 332.421 135.387 337.154C143.552 341.887 186.225 257.702 186.225 257.702L197.258 235.935L211.28 283.241C211.28 283.241 252.624 422.728 261.417 420.122C270.21 417.516 228.865 278.028 228.865 278.028L214.843 230.723L235.956 242.962C235.956 242.962 317.611 290.296 321.879 281.877C326.146 273.459 244.491 226.125 244.491 226.125L223.378 213.886L268.097 200.631C268.097 200.631 399.957 161.547 397.2 152.246Z" fill="#F9346C" stroke="black" stroke-width="2.35" stroke-linecap="round" stroke-linejoin="round"/>
</svg>
