<svg width="202" height="222" viewBox="0 0 202 222" fill="none" xmlns="http://www.w3.org/2000/svg">
<path d="M127.705 125.726C126.333 124.246 127.099 121.705 129.009 121.477C137.721 120.416 146.416 119.133 155.093 117.573C169.887 114.838 184.625 111.55 199.264 106.619C201.541 105.845 201.284 102.208 198.92 101.763C183.733 98.941 168.679 97.7607 153.647 97.1355C144.838 96.8123 136.031 96.7672 127.257 96.9425C125.334 96.9858 124.217 94.5785 125.367 92.92C127.375 90.0134 129.366 87.108 131.284 84.115C136.926 75.2552 142.334 66.1892 147.106 56.5003C148.274 54.1356 145.682 51.6471 143.7 53.253C135.648 59.8156 128.247 66.9815 121.065 74.3732C118.641 76.901 116.289 79.4794 113.955 82.0751C112.624 83.5608 110.298 82.6863 110.065 80.5876C108.964 70.9986 107.679 61.4228 106.158 51.8636C103.471 35.6145 100.281 19.4196 95.6268 3.30964C94.9086 0.799946 91.5628 1.03659 91.205 3.6224C88.8649 20.227 87.9862 36.7097 87.6132 53.1752C87.436 62.8546 87.5111 72.516 87.7879 82.1633C87.8527 84.2739 85.6729 85.4671 84.1459 84.1835C81.4697 81.9422 78.778 79.7205 76.023 77.559C67.8718 71.2519 59.5359 65.199 50.6404 59.8352C48.4693 58.5229 46.2349 61.3342 47.7251 63.5296C53.8138 72.4503 60.4439 80.6648 67.277 88.6422C69.6133 91.3343 71.9949 93.949 74.3919 96.5441C75.7639 98.0242 74.9973 100.565 73.0872 100.793C64.3603 101.874 55.6478 103.158 46.9536 104.7C32.1762 107.434 17.4547 110.72 2.83009 115.614C0.551694 116.369 0.811552 120.043 3.17352 120.47C18.3414 123.256 33.3788 124.438 48.3939 125.064C57.2032 125.387 66.0097 125.432 74.7838 125.257C76.707 125.214 77.8235 127.621 76.6735 129.279C74.6656 132.186 72.6758 135.11 70.7572 138.084C65.0995 146.964 59.6761 156.05 54.9063 165.775C53.7387 168.14 56.3296 170.61 58.3126 169.023C66.3813 162.459 73.8146 155.272 81.0124 147.861C83.4202 145.353 85.7737 142.793 88.0909 140.198C89.4221 138.713 91.7482 139.587 91.9811 141.686C93.0636 151.257 94.3479 160.815 95.8844 170.354C98.5726 186.622 101.764 202.835 106.453 218.961C107.188 221.47 110.5 221.236 110.875 218.649C113.247 202.023 114.125 185.522 114.496 169.038C114.675 159.377 114.601 149.734 114.325 140.105C114.261 137.995 116.44 136.802 117.967 138.085C120.627 140.328 123.317 142.531 126.054 144.675C134.223 150.999 142.577 157.07 151.507 162.431C153.678 163.743 155.895 160.933 154.422 158.737C148.332 149.797 141.682 141.547 134.831 133.553C132.513 130.878 130.148 128.262 127.752 125.685L127.705 125.726Z" fill="#FF8B13" stroke="black" stroke-width="2.35" stroke-linecap="round" stroke-linejoin="round"/>
</svg>
