<svg width="232" height="306" viewBox="0 0 232 306" fill="none" xmlns="http://www.w3.org/2000/svg">
<path d="M233.573 181.902C234.978 176.432 170.062 159.81 170.062 159.81L148.046 154.173L158.528 146.199C158.528 146.199 199.067 115.358 197.001 110.706C194.934 106.055 154.394 136.896 154.394 136.896L143.913 144.87L151.06 117.047C151.06 117.047 172.134 35.0065 167.805 33.8982C163.477 32.7898 142.402 114.83 142.402 114.83L135.255 142.654L129.911 130.627C129.911 130.627 109.242 84.114 105.188 87.1981C101.134 90.2822 121.803 136.795 121.803 136.795L127.147 148.822L105.132 143.185C105.132 143.185 40.2152 126.563 38.81 132.033C37.4047 137.504 102.321 154.126 102.321 154.126L124.337 159.763L113.855 167.737C113.855 167.737 73.3156 198.578 75.3825 203.229C77.4494 207.881 117.989 177.04 117.989 177.04L128.471 169.065L121.323 196.889C121.323 196.889 100.249 278.929 104.578 280.038C108.906 281.146 129.981 199.105 129.981 199.105L137.128 171.282L142.472 183.309C142.472 183.309 163.141 229.822 167.195 226.738C171.249 223.654 150.58 177.14 150.58 177.14L145.236 165.114L167.251 170.751C167.251 170.751 232.168 187.373 233.573 181.902Z" fill="black"/>
<path d="M228.19 173C229.596 167.53 164.679 150.908 164.679 150.908L142.663 145.271L153.145 137.297C153.145 137.297 193.685 106.456 191.618 101.805C189.551 97.1533 149.012 127.994 149.012 127.994L138.53 135.968L145.677 108.145C145.677 108.145 166.751 26.1047 162.423 24.9963C158.094 23.888 137.019 105.929 137.019 105.929L129.872 133.752L124.528 121.725C124.528 121.725 103.859 75.2121 99.8055 78.2962C95.7516 81.3803 116.42 127.894 116.42 127.894L121.764 139.92L99.7489 134.283C99.7489 134.283 34.8324 117.661 33.4271 123.132C32.0219 128.602 96.9383 145.224 96.9383 145.224L118.954 150.861L108.472 158.835C108.472 158.835 67.9328 189.676 69.9997 194.327C72.0666 198.979 112.606 168.138 112.606 168.138L123.088 160.164L115.941 187.987C115.941 187.987 94.8661 270.027 99.1948 271.136C103.524 272.244 124.598 190.203 124.598 190.203L131.745 162.38L137.089 174.407C137.089 174.407 157.758 220.92 161.812 217.836C165.866 214.752 145.197 168.239 145.197 168.239L139.853 156.212L161.869 161.849C161.869 161.849 226.785 178.471 228.19 173Z" fill="#FCF43D" stroke="black" stroke-width="2.35" stroke-linecap="round" stroke-linejoin="round"/>
</svg>
