<svg width="186" height="243" viewBox="0 0 186 243" fill="none" xmlns="http://www.w3.org/2000/svg">
<path d="M166.269 116.281C168.7 115.235 168.006 111.077 165.37 110.893C156.219 110.284 146.327 110.101 135.806 110.539C125.658 110.969 116.227 111.955 107.564 113.241C106.256 113.442 105.009 112.421 104.742 110.916C102.269 96.5667 99.1781 81.3229 95.3026 65.3019C91.6851 50.3597 87.7633 36.3053 83.6854 23.1851C82.7456 20.1722 78.8444 20.8234 78.9189 23.9807C79.2858 38.6107 80.4268 53.1115 81.8259 67.5692C83.3832 83.069 85.3931 98.4754 87.7551 113.841C87.9857 115.316 87.1501 116.666 85.8656 116.916C76.5915 118.749 67.3601 120.931 58.2133 123.526C48.7043 126.289 39.2351 129.383 29.9314 133.376C27.5005 134.423 28.1945 138.581 30.8337 138.781C40.9297 139.536 50.8905 139.387 60.7812 138.911C70.2751 138.395 79.6995 137.463 89.0661 136.184C90.3622 136.003 91.5759 137.012 91.852 138.479C94.6086 153.779 97.7115 169.003 101.257 184.171C104.673 198.559 108.395 212.914 112.919 227.117C113.871 230.11 117.757 229.461 117.686 226.321C117.352 211.419 116.21 196.633 114.767 181.916C113.198 166.436 111.203 151.027 108.826 135.664C108.595 134.189 109.431 132.838 110.715 132.588C119.992 130.773 129.206 128.576 138.355 125.998C147.746 123.273 157.069 120.239 166.257 116.301L166.269 116.281Z" fill="black"/>
<path d="M155.062 108.215C157.493 107.169 156.799 103.011 154.163 102.827C145.012 102.218 135.12 102.035 124.599 102.473C114.451 102.903 105.02 103.889 96.3569 105.175C95.0486 105.376 93.8016 104.355 93.5349 102.85C91.0616 88.5007 87.9711 73.2569 84.0955 57.2359C80.478 42.2937 76.5562 28.2393 72.4783 15.1191C71.5386 12.1062 67.6374 12.7574 67.7119 15.9147C68.0787 30.5447 69.2198 45.0455 70.6188 59.5032C72.1762 75.0029 74.1861 90.4093 76.548 105.775C76.7787 107.25 75.9431 108.6 74.6586 108.85C65.3845 110.683 56.1531 112.865 47.0062 115.46C37.4973 118.223 28.028 121.317 18.7244 125.31C16.2935 126.357 16.9875 130.515 19.6266 130.715C29.7226 131.47 39.6835 131.321 49.5742 130.845C59.068 130.329 68.4925 129.397 77.8591 128.118C79.1551 127.937 80.3688 128.946 80.645 130.413C83.4016 145.713 86.5044 160.937 90.0504 176.105C93.4662 190.493 97.1885 204.848 101.712 219.051C102.664 222.044 106.55 221.395 106.479 218.255C106.144 203.353 105.003 188.567 103.56 173.85C101.991 158.37 99.9959 142.961 97.6188 127.598C97.3882 126.123 98.2238 124.772 99.5083 124.522C108.785 122.707 117.999 120.51 127.148 117.932C136.539 115.207 145.862 112.173 155.05 108.235L155.062 108.215Z" fill="#FCF43D" stroke="black" stroke-width="2.35" stroke-linecap="round" stroke-linejoin="round"/>
</svg>
