<svg width="144" height="695" viewBox="0 0 144 695" fill="none" xmlns="http://www.w3.org/2000/svg">
<path d="M148.692 3.34286C61.7304 34.7413 106.068 102.547 107.837 151.667C109.776 205.474 111.195 261.42 81.8941 313.707C73.7997 328.151 68.999 343.827 64.093 358.703C57.3578 379.126 47.8911 397.46 37.7575 417.302C24.7545 442.762 14.0441 468.313 17.9914 494.88C19.8776 507.575 29.8457 521.705 36.8473 533.601C56.1908 566.464 82.6798 599.515 112.094 629.148C134.323 651.54 141.475 665.121 171.24 684.186" stroke="#E79565" stroke-width="5" stroke-linecap="round" stroke-linejoin="round"/>
<path d="M154.341 7.82967C67.3793 39.2281 111.716 107.034 113.486 156.154C115.425 209.961 116.844 265.907 87.543 318.193C79.4486 332.637 74.6479 348.314 69.7419 363.19C63.0067 383.613 53.54 401.947 43.4064 421.789C30.4034 447.249 19.693 472.8 23.6403 499.367C25.5266 512.062 35.4946 526.192 42.4962 538.088C61.8397 570.951 88.3288 604.002 117.743 633.634C139.972 656.027 147.124 669.608 176.889 688.673" stroke="#E79565" stroke-width="3" stroke-linecap="round" stroke-linejoin="round"/>
<path d="M160.393 3.12948C73.432 34.5279 117.769 102.334 119.539 151.454C121.478 205.261 122.897 261.207 93.5958 313.493C85.5013 327.937 80.7007 343.614 75.7947 358.49C69.0595 378.913 59.5927 397.247 49.4591 417.088C36.4561 442.548 25.7457 468.1 29.6931 494.667C31.5793 507.362 41.5473 521.492 48.5489 533.387C67.8924 566.251 94.3815 599.302 123.796 628.934C146.024 651.327 153.177 664.908 182.941 683.973" stroke="#E79565" stroke-width="2" stroke-linecap="round" stroke-linejoin="round"/>
<path d="M119.844 288.955C119.828 272.056 123.58 261.997 145.638 248.814C145.638 248.814 146.19 292.799 145.707 322.143C145.726 342.214 146.24 369.076 145.771 390.638C145.37 409.093 146.314 427.003 145.822 445.526L145.849 473.934C145.857 482.208 145.842 489.986 145.85 498.721L145.908 560.447C145.911 564.255 150.023 569.381 139.006 563.218C133.853 560.144 124.909 558.793 119.435 555.601C115.35 553.219 107.113 551.081 102.167 548.96C90.4379 543.929 79.8643 534.036 74.5281 527.026C54.1733 500.284 61.231 473.146 72.6619 445.678C80.4942 426.858 96.7398 408.651 110.075 390.713C116.467 382.114 120.481 372.363 122.708 363.256C124.278 356.835 124.667 353.37 124.83 346.874C124.933 342.812 127.476 335.136 127.47 329.514C130.504 325.433 129.737 318.999 129.735 316.31C129.73 311.911 125.243 306.484 124.789 302.388C124.406 298.934 122.277 292.802 119.844 288.955Z" fill="#5DA1A1"/>
</svg>
