<svg width="96" height="102" viewBox="0 0 96 102" fill="none" xmlns="http://www.w3.org/2000/svg">
<path d="M61.7217 27.7591C70.1634 37.4057 75.7311 49.9972 74.4265 62.6717C73.9505 59.5779 73.7884 56.6167 71.3333 54.4832C68.1119 51.6839 64.3245 49.737 60.9561 47.0058C56.9128 43.7272 51.0818 43.3755 47.2247 40.0238C42.7572 36.1416 34.222 30.754 35.6264 23.4543C36.7747 17.486 41.3456 16.5398 46.629 16.7339C52.3609 16.9444 57.9509 23.4501 61.7217 27.7591Z" fill="#E79565"/>
<path d="M58.4363 74.4623C59.821 74.9136 60.759 75.1246 62.1708 75.4092C61.0547 75.2663 59.8016 75.2625 58.7162 75.6503C58.1065 75.8682 57.3485 76.1297 56.8143 76.5018C55.987 77.0782 54.9156 77.245 54.0434 77.7416C51.7235 79.0625 49.0508 79.791 46.599 80.8107C42.7483 82.4122 38.6805 83.5124 34.5814 83.1391C31.43 82.8522 27.3719 81.5357 26.3825 78.2312C25.0509 73.7838 28.49 69.4067 32.8492 68.3067C35.4114 67.6602 37.9244 67.6434 40.4811 68.051C42.0827 68.3063 43.6634 68.7427 45.2419 69.0969C46.3601 69.3478 47.4101 69.6312 48.4722 70.0531C50.6195 70.9059 52.7261 71.8755 54.7985 72.8821C55.9974 73.4643 57.16 74.0462 58.4363 74.4623Z" fill="#5DA1A1"/>
</svg>
