<svg width="111" height="428" viewBox="0 0 111 428" fill="none" xmlns="http://www.w3.org/2000/svg">
<path d="M25.6345 420.926C16.1194 430.308 6.25271 426.443 -5.10659 428C-5.10652 404.974 -5.98605 386.927 -5.10449 365.693C-5.10644 338.296 -5.10565 307.488 -5.10565 279.965L-5.10548 141.115C-5.10548 135.983 -5.10573 141.115 -5.10659 117.79C-5.10659 117.79 3.56914 116.072 5.96561 113.641C11.5283 108 21.9635 104.834 28.6967 101.099C47.3342 90.762 77.1799 96.6485 87.7032 121.107C91.6906 130.374 90.0168 143.318 91.9432 153.358C94.1101 164.652 99.8408 173.598 100.777 185.461C101.724 197.468 98.7743 210.747 98.7743 223.087C98.7743 233.78 104.106 240.263 108.903 248.918C119.734 268.459 85.4617 293.882 77.6922 305.209C68.608 318.453 60.3962 336.613 57.4344 353.885C55.0799 367.616 53.6226 380.889 46.4811 392.258C39.6943 403.063 34.0141 412.664 25.6345 420.926Z" fill="#B35699"/>
<path d="M22.5786 34.3782C2.36577 46.6063 0.274787 65.4021 -5.46921 90.5955V150.287V157.06C-5.46919 163.834 -5.46908 154.542 -5.46912 161.717C-1.67187 160.404 0.19627 157.336 3.86852 155.114C18.6812 146.153 30.9496 134.273 38.1703 115.707C42.0607 105.705 38.1703 95.4224 38.1703 85.3138C38.1703 75.0937 38.7154 61.6542 40.5091 51.6711C43.0047 37.7812 47.3688 24.6809 50.2972 10.9017C51.3865 5.77613 51.3723 -1.98882 50.2972 0.468297C46.4202 9.32894 46.7487 7.01978 41.2887 14.5699C36.7521 20.8431 28.8764 30.5682 22.5786 34.3782Z" fill="#0E7471"/>
<path d="M-5.46864 233.262C5.40976 222.611 16.1233 229.46 22.7233 242.999C26.1603 250.049 20.5498 260.911 22.7234 268.638C23.8482 272.637 23.0617 279.227 24.8663 282.697C29.7448 292.078 43.0917 293.56 43.5204 306.668C43.8812 317.702 36.7409 323.806 39.9902 334.823C43.2708 345.945 46.5221 358.122 38.168 366.857C34.5131 370.678 28.377 370.768 23.8783 372.331C19.209 373.953 17.6221 374.77 12.7475 375.294C3.63356 376.273 3.44239 381.053 -5.46943 378.892" stroke="white" stroke-width="5" stroke-linecap="round" stroke-linejoin="round"/>
</svg>
