<svg width="54" height="56" viewBox="0 0 54 56" fill="none" xmlns="http://www.w3.org/2000/svg">
<path fill-rule="evenodd" clip-rule="evenodd" d="M0.626879 22.64C0.626879 22.64 19.1459 25.4822 20.5543 23.913C21.8175 22.1286 17.7017 13.1246 17.7017 13.1246C17.7017 13.1246 23.6252 21.2068 25.5731 20.4805C27.5554 19.5849 32.5505 0.353531 32.5505 0.353531C32.5505 0.353531 29.8022 20.0423 31.2852 21.6434C32.794 23.0734 41.4059 17.9504 41.4059 17.9504C41.4059 17.9504 34.0955 24.6375 34.5624 26.7648C35.2366 28.758 53.393 33.3823 53.393 33.3823C53.393 33.3823 34.8738 30.54 33.4359 32.2981C32.1727 34.0824 36.3231 42.9172 36.3231 42.9172C36.3231 42.9172 30.3633 35.0132 28.4155 35.7395C26.4676 36.4658 21.2964 55.6334 21.2964 55.6334C21.2964 55.6334 24.2176 35.9799 22.7033 34.5766C21.189 33.1733 12.6189 38.0914 12.6189 38.0914C12.6189 38.0914 19.8929 31.5825 19.4278 29.4463C18.7209 27.4371 3.19174 23.3477 0.626879 22.64Z" fill="#FEDC97"/>
</svg>
