<svg width="360" height="195" viewBox="0 0 360 195" fill="none" xmlns="http://www.w3.org/2000/svg">
<path d="M75.2236 50.3009C125.008 36.1988 174.466 18.8974 226.141 13.3942C236.311 14.0266 258.689 19.7009 257.331 31.4912C256.651 37.3925 245.358 52.2155 253.427 57.1516C259.828 61.0678 272.913 58.7638 280.235 57.0235C297.554 52.9076 314.912 49.3322 332.053 44.4733C335.25 43.5669 349.217 37.3865 352.522 41.1299C358.735 48.1672 357.371 71.6554 353.595 79.5384C343.462 100.694 302.693 108.205 281.849 111.495C269.964 113.371 258 116.789 246.053 117.989C239.444 118.652 232.902 116.839 226.405 118.434C206.833 123.24 187.447 126.332 169.544 135.8C147.038 147.701 124.533 159.289 102.293 171.754C79.9342 184.286 54.3781 178.858 66.3844 149.132C69.0487 142.536 81.7293 118.756 66.4722 122.978C53.5219 126.561 17.1816 135.303 5.9256 125.368C-1.80806 118.542 10.6725 94.9748 13.8499 88.6729C25.8349 64.9025 51.1658 57.1156 75.2236 50.3009Z" fill="#FED92F"/>
</svg>
