<svg width="305" height="413" viewBox="0 0 305 413" fill="none" xmlns="http://www.w3.org/2000/svg">
<g clip-path="url(#clip0_2043_1451)">
<path d="M96.537 261.208C97.9329 258.63 101.598 258.999 102.676 261.861C107.619 274.905 112.849 287.855 118.437 300.686C128.063 322.542 138.396 344.137 150.859 365.056C152.806 368.308 157.502 366.756 157.129 362.984C154.678 338.758 150.114 315.258 144.827 291.968C141.671 278.334 138.149 264.792 134.35 251.369C133.511 248.429 136.235 245.949 138.891 247.188C143.545 249.348 148.19 251.483 152.92 253.477C166.91 259.327 181.077 264.752 195.807 269.002C199.404 270.044 201.634 265.271 198.708 262.737C186.771 252.455 174.302 243.365 161.624 234.682C157.302 231.763 152.942 228.97 148.566 226.21C146.064 224.637 146.272 220.786 148.948 219.761C161.158 215.022 173.276 210.003 185.276 204.627C205.633 195.334 225.713 185.285 245.087 173.014C248.108 171.113 246.435 166.049 242.876 166.321C220.005 168.005 197.89 171.896 176.003 176.558C163.154 179.363 150.431 182.55 137.809 186.042C135.049 186.813 132.588 183.843 133.661 181.09C135.531 176.266 137.37 171.425 139.102 166.506C144.113 151.98 148.714 137.251 152.177 121.881C153.026 118.129 148.406 115.59 146.114 118.577C136.815 130.766 128.667 143.562 120.916 156.595C118.312 161.04 115.829 165.529 113.378 170.036C111.982 172.614 108.317 172.245 107.239 169.383C102.263 156.321 97.0253 143.346 91.4533 130.481C81.8355 108.651 71.5109 87.0818 59.1038 66.1727C57.1808 62.9128 52.4368 64.48 52.834 68.2439C55.3239 92.4292 59.8793 115.904 65.1584 139.168C68.3141 152.803 71.8358 166.345 75.6352 179.767C76.4744 182.707 73.7507 185.188 71.0938 183.948C66.4404 181.788 61.7716 179.661 57.0649 177.66C43.0429 171.792 28.8442 166.349 14.066 162.115C10.4696 161.073 8.2627 165.838 11.1646 168.379C23.1102 178.687 35.6198 187.821 48.33 196.521C52.62 199.422 56.9564 202.223 61.3236 204.958C63.8261 206.531 63.6176 210.382 60.9419 211.407C48.7471 216.113 36.6532 221.124 24.6855 226.517C4.30482 235.818 -15.7998 245.875 -35.18 258.205C-38.1924 260.131 -36.5362 265.145 -32.969 264.898C-10.0579 263.256 12.0811 259.358 33.9918 254.688C46.8171 251.891 59.5163 248.712 72.1146 245.227C74.8743 244.457 77.3359 247.426 76.2625 250.18C74.3837 254.978 72.5694 259.811 70.8519 264.697C65.8255 279.256 61.2099 294.019 57.7636 309.439C56.9143 313.192 61.5256 315.705 63.8259 312.743C73.1495 300.546 81.336 287.709 89.1033 274.643C91.6915 270.232 94.183 265.768 96.6099 261.268L96.537 261.208Z" fill="black"/>
<path d="M98.0819 247.798C99.4778 245.22 103.143 245.59 104.221 248.452C109.164 261.496 114.394 274.445 119.981 287.277C129.608 309.133 139.941 330.727 152.404 351.646C154.351 354.898 159.047 353.346 158.674 349.575C156.223 325.348 151.659 301.848 146.372 278.559C143.216 264.924 139.694 251.382 135.895 237.96C135.056 235.019 137.779 232.539 140.436 233.778C145.09 235.938 149.735 238.073 154.465 240.067C168.455 245.917 182.622 251.342 197.352 255.593C200.948 256.634 203.179 251.861 200.253 249.328C188.316 239.045 175.847 229.955 163.169 221.272C158.847 218.353 154.487 215.56 150.111 212.8C147.609 211.227 147.817 207.376 150.493 206.351C162.703 201.612 174.821 196.593 186.821 191.217C207.178 181.924 227.258 171.875 246.632 159.604C249.652 157.703 247.979 152.639 244.421 152.911C221.55 154.596 199.435 158.486 177.548 163.148C164.699 165.953 151.976 169.14 139.354 172.632C136.594 173.403 134.133 170.434 135.206 167.68C137.076 162.857 138.914 158.016 140.647 153.096C145.658 138.57 150.259 123.841 153.722 108.471C154.571 104.719 149.951 102.181 147.659 105.168C138.36 117.356 130.212 130.153 122.46 143.185C119.857 147.63 117.374 152.119 114.923 156.627C113.527 159.205 109.862 158.835 108.784 155.973C103.808 142.911 98.5702 129.936 92.9983 117.072C83.3804 95.241 73.0558 73.6721 60.6488 52.763C58.7257 49.5032 53.9817 51.0704 54.379 54.8342C56.8688 79.0195 61.4242 102.494 66.7033 125.758C69.859 139.393 73.3807 152.935 77.1801 166.357C78.0193 169.298 75.2956 171.778 72.6388 170.539C67.9854 168.378 63.3166 166.251 58.6098 164.25C44.5879 158.382 30.3891 152.94 15.6109 148.705C12.0145 147.663 9.80759 152.428 12.7095 154.97C24.6551 165.277 37.1647 174.411 49.8749 183.111C54.165 186.012 58.5013 188.814 62.8685 191.548C65.371 193.121 65.1625 196.972 62.4868 197.997C50.2921 202.703 38.1982 207.714 26.2304 213.107C5.84973 222.409 -14.2548 232.465 -33.6351 244.795C-36.6475 246.722 -34.9914 251.735 -31.4241 251.488C-8.51299 249.847 13.626 245.948 35.5367 241.279C48.362 238.481 61.0612 235.302 73.6595 231.818C76.4193 231.047 78.8808 234.016 77.8074 236.77C75.9286 241.568 74.1144 246.401 72.3968 251.287C67.3704 265.847 62.7548 280.609 59.3085 296.03C58.4593 299.782 63.0705 302.295 65.3709 299.333C74.6944 287.137 82.8809 274.299 90.6482 261.233C93.2364 256.822 95.7279 252.358 98.1548 247.859L98.0819 247.798Z" fill="#FF8B13" stroke="black" stroke-width="2.35" stroke-linecap="round" stroke-linejoin="round"/>
</g>
<defs>
<clipPath id="clip0_2043_1451">
<rect width="333.511" height="306.627" fill="white" transform="translate(200.152) rotate(71.7191)"/>
</clipPath>
</defs>
</svg>
