<svg width="165" height="227" viewBox="0 0 165 227" fill="none" xmlns="http://www.w3.org/2000/svg">
<path d="M69.4996 207.434C46.2135 148.881 31.7486 138.724 -27.8707 139.156C-30.3419 139.178 -31.0884 135.57 -28.8135 134.6C26.1052 111.448 35.3756 96.4237 33.5055 33.4637C33.424 30.8539 36.8248 30.1541 37.8004 32.5799C61.0865 91.1334 75.5514 101.29 135.171 100.858C137.642 100.836 138.388 104.444 136.113 105.414C81.1949 128.566 71.9245 143.59 73.7945 206.55C73.876 209.16 70.4752 209.86 69.4996 207.434Z" fill="black"/>
<path d="M75.8527 193.587C52.5654 135.032 38.1007 124.874 -21.517 125.304C-23.9882 125.326 -24.7347 121.718 -22.4599 120.748C32.4565 97.5968 41.7262 82.5727 39.8542 19.6108C39.7726 17.001 43.1733 16.3013 44.149 18.7272C67.4362 77.2831 81.901 87.4402 141.519 87.0103C143.99 86.9883 144.736 90.5963 142.462 91.5669C87.5452 114.718 78.2755 129.742 80.1475 192.704C80.229 195.314 76.8284 196.013 75.8527 193.587Z" fill="#FCF43D"/>
<path d="M75.8527 193.587C52.5654 135.032 38.1007 124.874 -21.517 125.304C-23.9882 125.326 -24.7347 121.718 -22.4599 120.748C32.4565 97.5968 41.7262 82.5727 39.8542 19.6108C39.7726 17.001 43.1733 16.3013 44.149 18.7272C67.4362 77.2831 81.901 87.4402 141.519 87.0103C143.99 86.9883 144.736 90.5963 142.462 91.5669C87.5452 114.718 78.2755 129.742 80.1475 192.704C80.229 195.314 76.8284 196.013 75.8527 193.587V193.587Z" stroke="black" stroke-width="2.35" stroke-linecap="round" stroke-linejoin="round"/>
</svg>
