<svg width="139" height="229" viewBox="0 0 139 229" fill="none" xmlns="http://www.w3.org/2000/svg">
<g clip-path="url(#clip0_2043_1525)">
<path d="M177.733 123.132C180.763 122.482 180.763 118.143 177.733 117.51C167.21 115.341 155.743 113.479 143.424 112.141C131.54 110.857 120.382 110.261 110.058 110.098C108.498 110.08 107.246 108.832 107.228 107.26C107.137 92.2725 106.502 76.2731 105.105 59.3516C103.799 43.5691 101.966 28.6363 99.7707 14.6255C99.2627 11.4075 94.5999 11.4075 94.0737 14.6255C91.6607 29.5402 90.1729 44.455 88.9936 59.3697C87.7961 75.3691 87.143 91.3505 86.9071 107.35C86.889 108.887 85.6552 110.116 84.113 110.152C72.973 110.441 61.8149 111.092 50.6749 112.177C39.0813 113.37 27.4696 114.907 15.876 117.384C12.846 118.034 12.846 122.373 15.876 123.024C27.4696 125.501 39.0813 127.037 50.6749 128.231C61.8149 129.315 72.9549 129.966 84.0949 130.255C85.6371 130.292 86.8527 131.521 86.889 133.058C87.1248 149.057 87.778 165.038 88.9573 181.038C90.1366 196.224 91.6788 211.428 94.1826 226.614C94.7088 229.814 99.3534 229.814 99.8796 226.614C102.383 211.428 103.926 196.224 105.105 181.038C106.284 165.056 106.956 149.075 107.173 133.076C107.191 131.539 108.425 130.31 109.967 130.273C121.107 130.002 132.247 129.333 143.387 128.267C154.836 127.092 166.266 125.591 177.715 123.151L177.733 123.132Z" fill="black"/>
<path d="M166.266 113.045C169.296 112.394 169.296 108.055 166.266 107.422C155.743 105.253 144.276 103.391 131.957 102.053C120.073 100.769 108.915 100.173 98.5912 100.01C97.0309 99.992 95.779 98.7446 95.7609 97.1718C95.6701 82.1847 95.0351 66.1853 93.6381 49.2638C92.3318 33.4813 90.4993 18.5485 88.3039 4.5377C87.7959 1.31973 83.1331 1.31973 82.6069 4.5377C80.1939 19.4524 78.7061 34.3672 77.5268 49.2819C76.3293 65.2814 75.6762 81.2627 75.4403 97.2622C75.4222 98.7989 74.1884 100.028 72.6462 100.064C61.5062 100.354 50.3481 101.004 39.2081 102.089C27.6145 103.282 16.0028 104.819 4.40917 107.296C1.37923 107.947 1.37923 112.285 4.40917 112.936C16.0028 115.413 27.6145 116.95 39.2081 118.143C50.3481 119.228 61.4881 119.878 72.6281 120.168C74.1703 120.204 75.3859 121.433 75.4222 122.97C75.658 138.969 76.3112 154.951 77.4905 170.95C78.6698 186.136 80.212 201.34 82.7158 216.526C83.242 219.726 87.8867 219.726 88.4128 216.526C90.9166 201.34 92.4588 186.136 93.6381 170.95C94.8174 154.969 95.4887 138.987 95.7064 122.988C95.7246 121.451 96.9583 120.222 98.5005 120.186C109.641 119.915 120.781 119.246 131.921 118.179C143.369 117.004 154.799 115.503 166.248 113.063L166.266 113.045Z" fill="#FCF43D" stroke="black" stroke-width="2.35" stroke-linecap="round" stroke-linejoin="round"/>
</g>
<defs>
<clipPath id="clip0_2043_1525">
<rect width="180" height="229" fill="white"/>
</clipPath>
</defs>
</svg>
