<svg width="327" height="333" viewBox="0 0 327 333" fill="none" xmlns="http://www.w3.org/2000/svg">
<path d="M135.546 308.078C141.568 309.097 157 217.436 157 217.436L162.234 186.35L171.361 199.385C171.361 199.385 206.664 249.8 211.649 246.199C216.635 242.598 181.332 192.183 181.332 192.183L172.204 179.148L202.833 184.329C202.833 184.329 293.148 199.606 294.177 193.494C295.206 187.381 204.891 172.105 204.891 172.105L174.262 166.924L187.152 157.613C187.152 157.613 237.005 121.603 233.475 116.561C229.944 111.52 180.092 147.53 180.092 147.53L167.202 156.841L172.435 125.756C172.435 125.756 187.867 34.0946 181.845 33.076C175.823 32.0573 160.391 123.718 160.391 123.718L155.157 154.804L146.029 141.769C146.029 141.769 110.727 91.3546 105.742 94.9557C100.756 98.5567 136.059 148.971 136.059 148.971L145.187 162.006L114.558 156.825C114.558 156.825 24.2431 141.549 23.2141 147.661C22.1851 153.773 112.5 169.049 112.5 169.049L143.129 174.23L130.239 183.541C130.239 183.541 80.386 219.552 83.9163 224.593C87.4465 229.634 137.299 193.624 137.299 193.624L150.189 184.313L144.956 215.399C144.956 215.399 129.524 307.06 135.546 308.078Z" fill="black"/>
<path d="M145.031 299.233C151.053 300.251 166.485 208.59 166.485 208.59L171.718 177.505L180.846 190.54C180.846 190.54 216.149 240.954 221.134 237.353C226.119 233.752 190.817 183.337 190.817 183.337L181.689 170.302L212.318 175.483C212.318 175.483 302.633 190.759 303.662 184.647C304.69 178.535 214.376 163.259 214.376 163.259L183.747 158.078L196.637 148.767C196.637 148.767 246.489 112.757 242.959 107.715C239.429 102.674 189.576 138.685 189.576 138.685L176.686 147.996L181.92 116.91C181.92 116.91 197.351 25.2488 191.329 24.2301C185.307 23.2115 169.875 114.873 169.875 114.873L164.642 145.958L155.514 132.923C155.514 132.923 120.211 82.5089 115.226 86.11C110.241 89.7111 145.544 140.125 145.544 140.125L154.671 153.16L124.042 147.98C124.042 147.98 33.7277 132.703 32.6987 138.815C31.6697 144.927 121.984 160.204 121.984 160.204L152.613 165.384L139.723 174.695C139.723 174.695 89.8708 210.706 93.401 215.747C96.9313 220.789 146.784 184.778 146.784 184.778L159.674 175.467L154.44 206.553C154.44 206.553 139.009 298.214 145.031 299.233Z" fill="#8F55FF" stroke="black" stroke-width="2.35" stroke-linecap="round" stroke-linejoin="round"/>
</svg>
