<svg width="151" height="264" viewBox="0 0 151 264" fill="none" xmlns="http://www.w3.org/2000/svg">
<path d="M218.931 159.376C152.053 160.479 135.78 172.97 109.478 243.499C108.392 246.424 104.579 245.68 104.663 242.559C106.958 167.344 96.6298 149.641 35.1015 123.494C32.5493 122.415 33.3989 118.088 36.1744 118.029C103.052 116.927 119.325 104.436 145.627 33.9067C146.713 30.9814 150.526 31.7255 150.442 34.8465C148.147 110.062 158.475 127.764 220.003 153.912C222.556 154.991 221.706 159.318 218.931 159.376Z" fill="black"/>
<path d="M208.434 145.642C141.553 146.745 125.279 159.235 98.9762 229.762C97.89 232.687 94.0775 231.943 94.1613 228.822C96.4558 153.61 86.1276 135.908 24.5968 109.762C22.0445 108.683 22.894 104.356 25.6697 104.298C92.5506 103.195 108.824 90.7047 135.127 20.1783C136.213 17.2531 140.026 17.9972 139.942 21.118C137.648 96.3303 147.976 114.032 209.507 140.178C212.059 141.257 211.209 145.584 208.434 145.642Z" fill="#FF8B13"/>
<path d="M208.434 145.642C141.553 146.745 125.279 159.235 98.9762 229.762C97.89 232.687 94.0775 231.943 94.1613 228.822C96.4558 153.61 86.1276 135.908 24.5968 109.762C22.0445 108.683 22.894 104.356 25.6697 104.298C92.5506 103.195 108.824 90.7047 135.127 20.1783C136.213 17.2531 140.026 17.9972 139.942 21.118C137.648 96.3303 147.976 114.032 209.507 140.178C212.059 141.257 211.209 145.584 208.434 145.642V145.642Z" stroke="black" stroke-width="2.35" stroke-linecap="round" stroke-linejoin="round"/>
</svg>
