<svg width="235" height="376" viewBox="0 0 235 376" fill="none" xmlns="http://www.w3.org/2000/svg">
<path d="M317.094 228.408C318.81 221.875 229.296 198.431 229.296 198.431L198.939 190.481L212.987 181.396C212.987 181.396 267.322 146.262 264.315 140.538C261.309 134.814 206.974 169.949 206.974 169.949L192.925 179.033L201.655 145.808C201.655 145.808 227.394 47.8378 221.425 46.2746C215.456 44.7113 189.717 142.681 189.717 142.681L180.988 175.906L173.214 161.107C173.214 161.107 143.148 103.868 137.715 107.381C132.281 110.895 162.347 168.134 162.347 168.134L170.121 182.933L139.763 174.982C139.763 174.982 50.2495 151.539 48.5332 158.071C46.8169 164.604 136.331 188.048 136.331 188.048L166.688 195.999L152.64 205.083C152.64 205.083 98.3051 240.217 101.312 245.941C104.318 251.665 158.653 216.531 158.653 216.531L172.701 207.446L163.972 240.672C163.972 240.672 138.233 338.641 144.202 340.205C150.171 341.768 175.91 243.798 175.91 243.798L184.639 210.573L192.413 225.372C192.413 225.372 222.479 282.611 227.912 279.098C233.346 275.585 203.28 218.346 203.28 218.346L195.506 203.546L225.864 211.497C225.864 211.497 315.377 234.941 317.094 228.408Z" fill="black"/>
<path d="M309.384 217.378C311.101 210.846 221.587 187.402 221.587 187.402L191.229 179.451L205.278 170.367C205.278 170.367 259.613 135.232 256.606 129.509C253.6 123.785 199.265 158.919 199.265 158.919L185.216 168.003L193.945 134.778C193.945 134.778 219.685 36.8082 213.716 35.2449C207.747 33.6817 182.008 131.651 182.008 131.651L173.279 164.877L165.505 150.077C165.505 150.077 135.439 92.838 130.006 96.3514C124.572 99.8649 154.638 157.104 154.638 157.104L162.412 171.903L132.054 163.953C132.054 163.953 42.5404 140.509 40.8241 147.041C39.1078 153.574 128.622 177.018 128.622 177.018L158.979 184.969L144.93 194.053C144.93 194.053 90.5959 229.187 93.6024 234.911C96.609 240.635 150.944 205.501 150.944 205.501L164.992 196.417L156.263 229.642C156.263 229.642 130.524 327.612 136.493 329.175C142.462 330.738 168.201 232.768 168.201 232.768L176.93 199.543L184.704 214.343C184.704 214.343 214.77 271.582 220.203 268.068C225.636 264.555 195.571 207.316 195.571 207.316L187.797 192.516L218.154 200.467C218.154 200.467 307.668 223.911 309.384 217.378Z" fill="#F9346C" stroke="black" stroke-width="2.35" stroke-linecap="round" stroke-linejoin="round"/>
</svg>
