<svg width="206" height="318" viewBox="0 0 206 318" fill="none" xmlns="http://www.w3.org/2000/svg">
<g clip-path="url(#clip0_2043_1543)">
<path d="M-23.816 245.927C-25.478 249.467 -21.9313 251.921 -19.22 249.106C-9.82659 239.316 -0.00127137 228.365 10.013 216.224C19.6676 204.508 28.2351 193.164 35.8436 182.448C36.9882 180.825 38.9144 180.22 40.2133 181.09C52.5302 189.469 66.0688 197.85 80.9129 205.955C94.7603 213.511 108.294 220.036 121.337 225.66C124.335 226.947 127.712 222.066 125.462 219.696C115.017 208.736 103.903 198.746 92.5646 189.078C80.3529 178.778 67.7618 169.058 54.8538 159.765C53.6108 158.877 53.4993 156.891 54.5864 155.256C62.4167 143.43 69.9645 131.38 77.1445 119.104C84.5642 106.292 91.7163 93.2671 98.0868 79.7293C99.7488 76.1893 96.202 73.736 93.476 76.5401C83.0562 87.2771 73.3918 98.5646 64.0213 110.027C55.0679 121.077 46.4692 132.371 38.1661 143.87C37.0198 145.464 35.1347 146.042 33.8522 145.211C20.6027 136.412 7.06568 128.059 -6.86708 120.248C-20.1348 112.896 -33.6801 105.914 -47.9069 99.949C-50.9036 98.6905 -54.2669 103.553 -52.0322 105.913C-41.4314 117.121 -30.1196 127.332 -18.5598 137.153C-6.34977 147.423 6.22812 157.162 19.1493 166.436C20.3923 167.324 20.5038 169.311 19.4167 170.946C11.5717 182.762 4.05177 194.802 -3.14299 207.068C-10.4724 219.718 -17.5227 232.533 -23.8177 245.898L-23.816 245.927Z" fill="black"/>
<path d="M-7.26721 239.627C-8.92922 243.167 -5.38243 245.62 -2.67116 242.806C6.72223 233.015 16.5475 222.064 26.5618 209.923C36.2164 198.208 44.7839 186.863 52.3924 176.148C53.537 174.524 55.4632 173.919 56.7621 174.789C69.079 183.168 82.6176 191.55 97.4617 199.655C111.309 207.211 124.843 213.735 137.886 219.359C140.884 220.647 144.261 215.765 142.011 213.395C131.566 202.436 120.452 192.445 109.113 182.777C96.9017 172.478 84.3107 162.758 71.4027 153.464C70.1596 152.577 70.0481 150.59 71.1353 148.955C78.9655 137.129 86.5133 125.079 93.6933 112.804C101.113 99.9915 108.265 86.9663 114.636 73.4285C116.298 69.8885 112.751 67.4352 110.025 70.2393C99.6051 80.9763 89.9406 92.2639 80.5702 103.727C71.6168 114.776 63.0181 126.07 54.7149 137.569C53.5687 139.163 51.6835 139.741 50.4011 138.91C37.1515 130.111 23.6145 121.759 9.68176 113.947C-3.58598 106.595 -17.1313 99.6133 -31.358 93.6482C-34.3548 92.3898 -37.7181 97.2523 -35.4834 99.6124C-24.8826 110.82 -13.5708 121.031 -2.01098 130.852C10.1991 141.123 22.777 150.861 35.6981 160.136C36.9411 161.023 37.0527 163.01 35.9655 164.645C28.1205 176.461 20.6006 188.502 13.4058 200.767C6.0764 213.417 -0.973889 226.232 -7.26885 239.597L-7.26721 239.627Z" fill="white" stroke="black" stroke-width="2.35" stroke-linecap="round" stroke-linejoin="round"/>
</g>
<defs>
<clipPath id="clip0_2043_1543">
<rect width="229.128" height="227.613" fill="white" transform="translate(205.537 129.479) rotate(124.671)"/>
</clipPath>
</defs>
</svg>
