<svg width="271" height="313" viewBox="0 0 271 313" fill="none" xmlns="http://www.w3.org/2000/svg">
<g clip-path="url(#clip0_2043_1538)">
<path d="M46.6547 244.391L76.6488 165.168C76.9772 164.309 76.7467 163.358 76.0898 162.706L14.7773 104.034C12.9907 102.314 14.8407 99.3833 17.1513 100.273L96.4934 130.381C97.3535 130.71 98.3049 130.482 98.9559 129.826L157.581 68.6504C159.299 66.8683 162.235 68.7218 161.349 71.029L131.355 150.253C131.026 151.111 131.257 152.062 131.914 152.714L193.226 211.386C195.013 213.106 193.163 216.037 190.852 215.147L111.51 185.04C110.65 184.71 109.699 184.939 109.048 185.594L50.4338 246.753C48.7155 248.535 45.7788 246.682 46.6654 244.374L46.6547 244.391Z" fill="black"/>
<path d="M64.3509 241.891L94.345 162.667C94.6735 161.808 94.4429 160.857 93.786 160.206L32.4735 101.534C30.6869 99.8137 32.5369 96.8827 34.8475 97.7726L114.19 127.88C115.05 128.21 116.001 127.981 116.652 127.326L175.266 66.1667C176.984 64.3846 179.921 66.2382 179.034 68.5453L149.04 147.769C148.712 148.628 148.942 149.579 149.599 150.23L210.912 208.902C212.698 210.622 210.848 213.553 208.538 212.664L129.196 182.556C128.336 182.226 127.384 182.455 126.733 183.11L68.1193 244.269C66.401 246.052 63.4644 244.198 64.3509 241.891Z" fill="#FF8B13" stroke="black" stroke-width="2.35" stroke-linecap="round" stroke-linejoin="round"/>
</g>
<defs>
<clipPath id="clip0_2043_1538">
<rect width="225.351" height="227.855" fill="white" transform="translate(270.965 121.619) rotate(122.26)"/>
</clipPath>
</defs>
</svg>
