<svg width="170" height="178" viewBox="0 0 170 178" fill="none" xmlns="http://www.w3.org/2000/svg">
<path d="M141.99 114.99C100.363 109.126 89.0959 115.209 66.1977 155.969C65.2509 157.66 62.9531 156.83 63.2958 154.921C71.7239 108.933 66.9597 97.0466 31.1913 74.964C29.7072 74.0513 30.6375 71.4759 32.3664 71.7113C73.9937 77.5751 85.2604 71.4924 108.159 30.732C109.105 29.0409 111.403 29.871 111.061 31.7803C102.632 77.768 107.397 89.6544 143.165 111.737C144.649 112.65 143.719 115.225 141.99 114.99Z" fill="black"/>
<path d="M136.752 105.53C95.1244 99.6661 83.8576 105.749 60.9594 146.509C60.0127 148.2 57.7149 147.37 58.0575 145.461C66.4856 99.4733 61.7214 87.5868 25.9531 65.5042C24.4689 64.5916 25.3993 62.0161 27.1281 62.2516C68.7554 68.1154 80.0221 62.0326 102.92 21.2722C103.867 19.5811 106.165 20.4112 105.822 22.3205C97.3942 68.3082 102.158 80.1946 137.927 102.277C139.411 103.19 138.48 105.765 136.752 105.53Z" fill="#0071C6"/>
<path d="M136.752 105.53C95.1244 99.6661 83.8576 105.749 60.9594 146.509C60.0127 148.2 57.7149 147.37 58.0575 145.461C66.4856 99.4733 61.7214 87.5868 25.9531 65.5042C24.4689 64.5916 25.3993 62.0161 27.1281 62.2516C68.7554 68.1154 80.0221 62.0326 102.92 21.2722C103.867 19.5811 106.165 20.4112 105.822 22.3205C97.3942 68.3082 102.158 80.1946 137.927 102.277C139.411 103.19 138.48 105.765 136.752 105.53V105.53Z" stroke="black" stroke-width="2.35" stroke-linecap="round" stroke-linejoin="round"/>
</svg>
