<svg width="190" height="218" viewBox="0 0 190 218" fill="none" xmlns="http://www.w3.org/2000/svg">
<path d="M160.546 85.8806L106.903 119.919C106.32 120.286 106.03 120.961 106.131 121.648L116.526 184.479C116.824 186.316 114.396 187.242 113.409 185.667L79.3439 131.858C78.976 131.273 78.3022 130.982 77.6168 131.082L14.9136 141.392C13.0807 141.687 12.1524 139.252 13.7225 138.267L67.365 104.229C67.9485 103.861 68.238 103.187 68.137 102.5L57.7422 39.6682C57.4439 37.8311 59.8727 36.9053 60.8589 38.4802L94.9244 92.289C95.2922 92.8743 95.966 93.1656 96.6515 93.0655L159.341 82.761C161.174 82.4653 162.102 84.9006 160.532 85.886L160.546 85.8806Z" fill="black"/>
<path d="M148.801 79.4104L95.1588 113.448C94.5753 113.816 94.2857 114.491 94.3868 115.177L104.782 178.009C105.08 179.846 102.651 180.772 101.665 179.197L67.5994 125.388C67.2315 124.803 66.5577 124.512 65.8723 124.612L3.18317 134.916C1.35024 135.212 0.421975 132.777 1.99198 131.791L55.6345 97.7531C56.218 97.3856 56.5076 96.711 56.4065 96.024L46.0117 33.1925C45.7134 31.3555 48.1423 30.4297 49.1285 32.0045L83.1939 85.8133C83.5618 86.3986 84.2356 86.6899 84.921 86.5899L147.61 76.2853C149.443 75.9897 150.371 78.425 148.801 79.4104Z" fill="#0071C6" stroke="black" stroke-width="2.35" stroke-linecap="round" stroke-linejoin="round"/>
</svg>
