<svg width="382" height="387" viewBox="0 0 382 387" fill="none" xmlns="http://www.w3.org/2000/svg">
<path d="M341.239 236.11C342.951 229.447 245.645 204.527 245.645 204.527L212.644 196.075L227.635 186.932C227.635 186.932 285.612 151.57 282.235 145.684C278.858 139.798 220.881 175.16 220.881 175.16L205.89 184.304L214.597 150.414C214.597 150.414 240.271 50.4841 233.783 48.8224C227.294 47.1607 201.62 147.09 201.62 147.09L192.913 180.98L184.182 165.762C184.182 165.762 150.411 106.903 144.614 110.439C138.816 113.975 172.586 172.834 172.586 172.834L181.318 188.053L148.318 179.601C148.318 179.601 51.0111 154.681 49.2991 161.344C47.5872 168.008 144.894 192.928 144.894 192.928L177.894 201.379L162.903 210.523C162.903 210.523 104.926 245.885 108.303 251.771C111.68 257.657 169.657 222.294 169.657 222.294L184.648 213.151L175.941 247.041C175.941 247.041 150.267 346.971 156.756 348.632C163.244 350.294 188.918 250.364 188.918 250.364L197.625 216.474L206.357 231.693C206.357 231.693 240.127 290.552 245.925 287.016C251.722 283.479 217.952 224.621 217.952 224.621L209.22 209.402L242.221 217.853C242.221 217.853 339.527 242.774 341.239 236.11Z" fill="black"/>
<path d="M332.661 224.749C334.373 218.086 237.067 193.166 237.067 193.166L204.066 184.714L219.057 175.571C219.057 175.571 277.034 140.209 273.657 134.323C270.28 128.437 212.303 163.799 212.303 163.799L197.312 172.942L206.019 139.053C206.019 139.053 231.693 39.123 225.204 37.4613C218.716 35.7996 193.042 135.729 193.042 135.729L184.335 169.619L175.604 154.401C175.604 154.401 141.833 95.5417 136.036 99.0779C130.238 102.614 164.008 161.473 164.008 161.473L172.74 176.691L139.739 168.24C139.739 168.24 42.433 143.32 40.721 149.983C39.0091 156.647 136.316 181.567 136.316 181.567L169.316 190.018L154.325 199.161C154.325 199.161 96.3477 234.524 99.7248 240.41C103.102 246.295 161.079 210.933 161.079 210.933L176.07 201.79L167.363 235.68C167.363 235.68 141.689 335.609 148.178 337.271C154.666 338.933 180.34 239.003 180.34 239.003L189.047 205.113L197.778 220.332C197.778 220.332 231.549 279.191 237.347 275.655C243.144 272.118 209.374 213.259 209.374 213.259L200.642 198.041L233.643 206.492C233.643 206.492 330.949 231.413 332.661 224.749Z" fill="#FF8B13" stroke="black" stroke-width="2.35" stroke-linecap="round" stroke-linejoin="round"/>
</svg>
