<svg width="243" height="365" viewBox="0 0 243 365" fill="none" xmlns="http://www.w3.org/2000/svg">
<path d="M193.204 226.947C197.574 227.317 199.226 221.699 195.345 219.667C181.855 212.648 166.965 205.649 150.715 198.987C135.037 192.571 120.084 187.334 106.102 182.993C103.986 182.345 102.758 180.229 103.332 178.185C108.916 158.742 114.145 137.77 118.689 115.3C122.922 94.3407 126.116 74.2711 128.465 55.2503C128.999 50.8801 122.656 49.0145 120.715 52.9709C111.752 71.3185 104.048 90.0362 96.7638 108.877C89.0417 129.116 82.0671 149.549 75.6533 170.172C75.0434 172.154 72.8968 173.253 70.785 172.682C55.5197 168.6 40.0921 164.978 24.5239 161.926C8.29732 158.832 -8.08475 156.176 -24.8001 154.745C-29.17 154.375 -30.8223 159.994 -26.9482 162.049C-12.1192 169.894 3.09248 176.53 18.4103 182.714C33.1523 188.575 48.0596 193.875 63.1045 198.707C65.1888 199.371 66.3744 201.449 65.8385 203.453C60.0664 224.265 54.8689 245.221 50.3803 266.41C46.2015 286.546 42.5095 306.851 40.1326 327.516C39.6298 331.87 45.9485 333.729 47.8829 329.796C57.0722 311.133 64.9603 292.063 72.3478 272.871C80.0383 252.648 87.0376 232.223 93.4268 211.592C94.0367 209.61 96.1832 208.511 98.295 209.082C113.553 213.188 128.963 216.778 144.525 219.854C160.547 222.913 176.668 225.543 193.172 226.964L193.204 226.947Z" fill="black"/>
<path d="M181.448 209.297C185.818 209.667 187.47 204.049 183.589 202.017C170.1 194.998 155.209 187.999 138.959 181.337C123.281 174.921 108.328 169.684 94.3459 165.343C92.2301 164.695 91.002 162.579 91.5763 160.535C97.1603 141.092 102.389 120.12 106.933 97.6501C111.166 76.6907 114.36 56.6212 116.709 37.6003C117.243 33.2301 110.9 31.3646 108.959 35.321C99.996 53.6685 92.2922 72.3863 85.0079 91.2274C77.2859 111.466 70.3112 131.899 63.8974 152.522C63.2875 154.504 61.1409 155.603 59.0291 155.033C43.7639 150.95 28.3362 147.328 12.768 144.276C-3.45855 141.182 -19.8406 138.526 -36.556 137.095C-40.9258 136.726 -42.5782 142.344 -38.704 144.399C-23.8751 152.245 -8.66338 158.88 6.65441 165.064C21.3964 170.925 36.3037 176.225 51.3487 181.057C53.4329 181.721 54.6185 183.799 54.0827 185.803C48.3106 206.615 43.1131 227.571 38.6245 248.76C34.4457 268.896 30.7537 289.201 28.3767 309.866C27.8739 314.22 34.1926 316.079 36.127 312.146C45.3164 293.483 53.2044 274.413 60.592 255.221C68.2824 234.998 75.2818 214.573 81.6709 193.942C82.2808 191.96 84.4274 190.861 86.5392 191.432C101.798 195.538 117.207 199.128 132.769 202.204C148.791 205.263 164.912 207.893 181.417 209.314L181.448 209.297Z" fill="#FF8B13" stroke="black" stroke-width="2.35" stroke-linecap="round" stroke-linejoin="round"/>
</svg>
