<svg width="377" height="35" viewBox="0 0 377 35" fill="none" xmlns="http://www.w3.org/2000/svg">
<path d="M22.4576 27.72C17.2256 27.72 13.0136 27.264 9.82158 26.352C6.62958 25.416 4.30158 24.048 2.83758 22.248C1.39758 20.424 0.677578 18.168 0.677578 15.48C0.677578 12.792 1.39758 10.548 2.83758 8.748C4.30158 6.924 6.62958 5.556 9.82158 4.644C13.0136 3.708 17.2256 3.24 22.4576 3.24C27.6896 3.24 31.9016 3.708 35.0936 4.644C38.2856 5.556 40.6016 6.924 42.0416 8.748C43.5056 10.548 44.2376 12.792 44.2376 15.48C44.2376 18.168 43.5056 20.424 42.0416 22.248C40.6016 24.048 38.2856 25.416 35.0936 26.352C31.9016 27.264 27.6896 27.72 22.4576 27.72ZM22.4576 20.88C24.9296 20.88 27.0656 20.736 28.8656 20.448C30.6656 20.136 32.0576 19.596 33.0416 18.828C34.0256 18.036 34.5176 16.92 34.5176 15.48C34.5176 14.04 34.0256 12.936 33.0416 12.168C32.0576 11.376 30.6656 10.836 28.8656 10.548C27.0656 10.236 24.9296 10.08 22.4576 10.08C19.9856 10.08 17.8136 10.236 15.9416 10.548C14.0936 10.836 12.6416 11.376 11.5856 12.168C10.5536 12.936 10.0376 14.04 10.0376 15.48C10.0376 16.92 10.5536 18.036 11.5856 18.828C12.6416 19.596 14.0936 20.136 15.9416 20.448C17.8136 20.736 19.9856 20.88 22.4576 20.88ZM48.0204 9.36H56.6604V27H48.0204V9.36ZM65.9484 16.02C64.3884 16.02 62.9604 16.164 61.6644 16.452C60.3684 16.74 59.2644 17.088 58.3524 17.496C57.4404 17.88 56.7564 18.264 56.3004 18.648L56.2284 16.92C56.3004 16.416 56.4924 15.828 56.8044 15.156C57.1164 14.46 57.5364 13.752 58.0644 13.032C58.5924 12.288 59.2404 11.604 60.0084 10.98C60.7764 10.332 61.6524 9.816 62.6364 9.432C63.6444 9.024 64.7484 8.82 65.9484 8.82V16.02ZM82.8495 24.516C79.4415 24.516 76.6335 24.24 74.4255 23.688C72.2175 23.112 70.5855 22.26 69.5295 21.132C68.4735 19.98 67.9455 18.54 67.9455 16.812C67.9455 15.204 68.4615 13.812 69.4935 12.636C70.5255 11.436 72.1335 10.5 74.3175 9.828C76.5255 9.156 79.3695 8.82 82.8495 8.82C83.5455 8.82 84.2535 8.82 84.9735 8.82C85.6935 8.82 86.4015 8.82 87.0975 8.82H100.85V13.356C99.2895 13.428 97.7055 13.356 96.0975 13.14C94.5135 12.9 93.0495 12.588 91.7055 12.204L91.3095 11.664C92.3895 12 93.4095 12.432 94.3695 12.96C95.3535 13.488 96.1455 14.124 96.7455 14.868C97.3455 15.612 97.6455 16.5 97.6455 17.532C97.6455 19.02 97.1295 20.292 96.0975 21.348C95.0895 22.38 93.4935 23.172 91.3095 23.724C89.1495 24.252 86.3295 24.516 82.8495 24.516ZM90.5175 34.74V33.768C90.5175 33.048 90.1935 32.616 89.5455 32.472C88.9215 32.352 87.9255 32.292 86.5575 32.292H76.5135C74.8095 32.292 73.4295 32.172 72.3735 31.932C71.3415 31.692 70.5495 31.368 69.9975 30.96C69.4695 30.552 69.1095 30.096 68.9175 29.592C68.7495 29.112 68.6655 28.632 68.6655 28.152C68.6655 27.12 69.0495 26.316 69.8175 25.74C70.5855 25.14 71.7615 24.72 73.3455 24.48C74.9295 24.24 76.9455 24.12 79.3935 24.12L82.8495 24.516C80.8335 24.516 79.4295 24.624 78.6375 24.84C77.8455 25.032 77.4495 25.428 77.4495 26.028C77.4495 26.364 77.6055 26.616 77.9175 26.784C78.2295 26.928 78.6495 27 79.1775 27H89.7975C92.1735 27 94.0455 27.168 95.4135 27.504C96.7815 27.864 97.7415 28.452 98.2935 29.268C98.8695 30.108 99.1575 31.248 99.1575 32.688V34.74H90.5175ZM82.8495 19.8C84.4335 19.8 85.7055 19.68 86.6655 19.44C87.6495 19.176 88.3575 18.828 88.7895 18.396C89.2215 17.964 89.4375 17.484 89.4375 16.956C89.4375 16.356 89.2215 15.84 88.7895 15.408C88.3575 14.976 87.6615 14.64 86.7015 14.4C85.7415 14.16 84.4575 14.04 82.8495 14.04C81.2655 14.04 79.9815 14.16 78.9975 14.4C78.0135 14.64 77.2935 14.976 76.8375 15.408C76.3815 15.84 76.1535 16.356 76.1535 16.956C76.1535 17.484 76.3695 17.964 76.8015 18.396C77.2575 18.828 77.9775 19.176 78.9615 19.44C79.9455 19.68 81.2415 19.8 82.8495 19.8ZM115.159 27.504C112.567 27.504 110.263 27.144 108.247 26.424C106.231 25.68 104.635 24.612 103.459 23.22C102.307 21.828 101.731 20.148 101.731 18.18C101.731 16.116 102.307 14.388 103.459 12.996C104.635 11.604 106.231 10.56 108.247 9.864C110.263 9.168 112.567 8.82 115.159 8.82C118.039 8.82 120.523 9.216 122.611 10.008C124.723 10.776 126.343 11.868 127.471 13.284C128.623 14.676 129.199 16.308 129.199 18.18C129.199 19.572 128.875 20.844 128.227 21.996C127.579 23.124 126.643 24.108 125.419 24.948C124.195 25.764 122.719 26.4 120.991 26.856C119.263 27.288 117.319 27.504 115.159 27.504ZM118.399 22.032C120.223 22.032 121.891 21.924 123.403 21.708C124.939 21.468 126.163 21.072 127.075 20.52C128.011 19.968 128.479 19.188 128.479 18.18C128.479 17.148 128.011 16.356 127.075 15.804C126.163 15.252 124.939 14.868 123.403 14.652C121.891 14.436 120.223 14.328 118.399 14.328C115.951 14.328 114.055 14.652 112.711 15.3C111.367 15.924 110.695 16.884 110.695 18.18C110.695 19.02 110.995 19.728 111.595 20.304C112.195 20.88 113.071 21.312 114.223 21.6C115.375 21.888 116.767 22.032 118.399 22.032ZM128.479 9.36H137.119V27H128.983C128.983 27 128.935 26.724 128.839 26.172C128.767 25.62 128.683 24.828 128.587 23.796C128.515 22.764 128.479 21.552 128.479 20.16V9.36ZM140.376 9.36H149.016V27H140.376V9.36ZM161.976 8.82C163.392 8.82 164.76 8.976 166.08 9.288C167.4 9.576 168.576 10.08 169.608 10.8C170.664 11.52 171.504 12.504 172.128 13.752C172.752 15 173.064 16.572 173.064 18.468V27H164.424V19.548C164.424 17.748 163.956 16.476 163.02 15.732C162.084 14.964 160.392 14.58 157.944 14.58C156.648 14.58 155.388 14.724 154.164 15.012C152.964 15.3 151.884 15.648 150.924 16.056C149.964 16.44 149.208 16.824 148.656 17.208L148.584 15.84C148.68 15.408 149.004 14.808 149.556 14.04C150.132 13.248 150.96 12.456 152.04 11.664C153.12 10.872 154.476 10.2 156.108 9.648C157.764 9.096 159.72 8.82 161.976 8.82ZM185.81 0.107999V5.508H176.666V0.107999H185.81ZM176.918 9.36H185.558V27H176.918V9.36ZM189.239 20.664H197.195C197.531 21.288 198.167 21.72 199.103 21.96C200.063 22.2 201.431 22.32 203.207 22.32C204.575 22.32 205.583 22.248 206.231 22.104C206.903 21.96 207.335 21.768 207.527 21.528C207.743 21.288 207.851 21.036 207.851 20.772C207.851 20.364 207.623 20.088 207.167 19.944C206.735 19.776 205.991 19.68 204.935 19.656C203.879 19.608 202.427 19.584 200.579 19.584C198.827 19.584 197.255 19.512 195.863 19.368C194.495 19.2 193.331 18.948 192.371 18.612C191.411 18.252 190.679 17.76 190.175 17.136C189.671 16.512 189.419 15.732 189.419 14.796C189.419 13.644 189.791 12.684 190.535 11.916C191.279 11.124 192.287 10.512 193.559 10.08C194.831 9.624 196.295 9.3 197.951 9.108C199.631 8.916 201.383 8.82 203.207 8.82C206.231 8.82 208.703 9.132 210.623 9.756C212.543 10.356 213.959 11.172 214.871 12.204C215.783 13.236 216.227 14.4 216.203 15.696H208.463C208.199 15.072 207.695 14.64 206.951 14.4C206.231 14.16 204.983 14.04 203.207 14.04C201.527 14.04 200.303 14.172 199.535 14.436C198.791 14.676 198.419 15.072 198.419 15.624C198.419 15.984 198.599 16.26 198.959 16.452C199.343 16.62 200.051 16.74 201.083 16.812C202.139 16.884 203.675 16.92 205.691 16.92C207.083 16.92 208.439 16.968 209.759 17.064C211.103 17.16 212.303 17.364 213.359 17.676C214.439 17.988 215.291 18.468 215.915 19.116C216.539 19.764 216.851 20.652 216.851 21.78C216.851 23.148 216.287 24.264 215.159 25.128C214.055 25.968 212.483 26.58 210.443 26.964C208.403 27.348 205.991 27.54 203.207 27.54C200.783 27.54 198.731 27.384 197.051 27.072C195.395 26.76 194.039 26.352 192.983 25.848C191.927 25.32 191.111 24.756 190.535 24.156C189.983 23.532 189.611 22.92 189.419 22.32C189.251 21.696 189.191 21.144 189.239 20.664ZM244.06 20.664H252.556C252.34 22.056 251.644 23.268 250.468 24.3C249.316 25.332 247.624 26.136 245.392 26.712C243.184 27.264 240.364 27.54 236.932 27.54C233.308 27.54 230.176 27.252 227.536 26.676C224.92 26.1 222.904 25.128 221.488 23.76C220.072 22.392 219.364 20.544 219.364 18.216C219.364 15.912 220.048 14.076 221.416 12.708C222.808 11.316 224.812 10.32 227.428 9.72C230.044 9.12 233.212 8.82 236.932 8.82C240.58 8.82 243.568 9.144 245.896 9.792C248.224 10.44 249.94 11.496 251.044 12.96C252.148 14.4 252.676 16.356 252.628 18.828H228.148C228.268 19.452 228.604 20.028 229.156 20.556C229.732 21.084 230.608 21.516 231.784 21.852C232.984 22.164 234.58 22.32 236.572 22.32C238.636 22.32 240.328 22.176 241.648 21.888C242.992 21.6 243.796 21.192 244.06 20.664ZM236.572 14.04C234.028 14.04 232.084 14.316 230.74 14.868C229.42 15.42 228.64 15.972 228.4 16.524H244.24C244.072 15.9 243.4 15.336 242.224 14.832C241.048 14.304 239.164 14.04 236.572 14.04ZM268.581 27.504C265.989 27.504 263.685 27.144 261.669 26.424C259.653 25.68 258.057 24.612 256.881 23.22C255.729 21.828 255.153 20.148 255.153 18.18C255.153 16.116 255.729 14.388 256.881 12.996C258.057 11.604 259.653 10.56 261.669 9.864C263.685 9.168 265.989 8.82 268.581 8.82C270.741 8.82 272.685 9.048 274.413 9.504C276.141 9.936 277.617 10.572 278.841 11.412C280.065 12.228 281.001 13.212 281.649 14.364C282.297 15.516 282.621 16.788 282.621 18.18C282.621 19.572 282.297 20.844 281.649 21.996C281.001 23.124 280.065 24.108 278.841 24.948C277.617 25.764 276.141 26.4 274.413 26.856C272.685 27.288 270.741 27.504 268.581 27.504ZM271.821 22.032C273.645 22.032 275.313 21.924 276.825 21.708C278.361 21.468 279.585 21.072 280.497 20.52C281.433 19.968 281.901 19.188 281.901 18.18C281.901 17.148 281.433 16.356 280.497 15.804C279.585 15.252 278.361 14.868 276.825 14.652C275.313 14.436 273.645 14.328 271.821 14.328C269.373 14.328 267.477 14.652 266.133 15.3C264.789 15.924 264.117 16.884 264.117 18.18C264.117 19.02 264.417 19.728 265.017 20.304C265.617 20.88 266.493 21.312 267.645 21.6C268.797 21.888 270.189 22.032 271.821 22.032ZM281.901 2.16H290.541V27H282.405C282.309 26.448 282.201 25.56 282.081 24.336C281.961 23.088 281.901 21.696 281.901 20.16V2.16ZM329.393 27.504C327.233 27.504 325.289 27.288 323.561 26.856C321.833 26.4 320.357 25.764 319.133 24.948C317.909 24.108 316.973 23.124 316.325 21.996C315.677 20.844 315.353 19.572 315.353 18.18C315.353 16.788 315.677 15.516 316.325 14.364C316.973 13.212 317.909 12.228 319.133 11.412C320.357 10.572 321.833 9.936 323.561 9.504C325.289 9.048 327.233 8.82 329.393 8.82C331.985 8.82 334.289 9.168 336.305 9.864C338.345 10.56 339.941 11.604 341.093 12.996C342.245 14.388 342.821 16.116 342.821 18.18C342.821 20.148 342.245 21.828 341.093 23.22C339.941 24.612 338.345 25.68 336.305 26.424C334.289 27.144 331.985 27.504 329.393 27.504ZM326.153 22.032C327.785 22.032 329.177 21.888 330.329 21.6C331.481 21.312 332.357 20.88 332.957 20.304C333.557 19.728 333.857 19.02 333.857 18.18C333.857 16.884 333.185 15.924 331.841 15.3C330.497 14.652 328.601 14.328 326.153 14.328C324.329 14.328 322.649 14.436 321.113 14.652C319.601 14.868 318.377 15.252 317.441 15.804C316.529 16.356 316.073 17.148 316.073 18.18C316.073 19.188 316.529 19.968 317.441 20.52C318.377 21.072 319.601 21.468 321.113 21.708C322.649 21.924 324.329 22.032 326.153 22.032ZM316.073 2.16V20.16C316.073 21.696 316.013 23.088 315.893 24.336C315.797 25.56 315.689 26.448 315.569 27H307.433V2.16H316.073ZM343.194 9.36H352.374L362.886 26.28L355.434 27L343.194 9.36ZM376.314 9.36L358.782 34.2H349.962L357.486 24.012L367.134 9.36H376.314Z" fill="black"/>
</svg>
