<svg width="254" height="434" viewBox="0 0 254 434" fill="none" xmlns="http://www.w3.org/2000/svg">
<g clip-path="url(#clip0_1559_1449)">
<path d="M170.502 173.034C171.456 175.954 168.886 179.15 166.174 178.365C153.79 174.817 141.294 171.596 128.657 168.782C107.062 164.093 85.2092 160.229 62.4954 158.779C58.9585 158.562 57.105 163.926 60.0209 165.939C78.7831 178.823 98.3593 189.276 118.241 198.921C129.919 204.511 141.761 209.7 153.693 214.555C156.311 215.612 156.36 219.713 153.806 221.421C149.342 224.419 144.9 227.425 140.506 230.6C127.541 240.017 114.768 249.866 102.474 260.977C99.47 263.688 101.458 268.763 105.101 267.615C119.923 262.893 134.233 256.928 148.385 250.512C153.181 248.299 157.911 245.971 162.627 243.609C165.32 242.254 167.926 244.861 166.97 248.005C162.653 262.391 158.593 276.866 154.86 291.455C148.651 316.311 143.153 341.383 139.68 367.185C139.13 371.201 143.783 372.809 145.829 369.31C159.028 346.869 170.184 323.753 180.648 300.367C186.742 286.595 192.486 272.701 197.949 258.711C199.138 255.648 202.798 255.206 204.08 257.934C206.331 262.705 208.615 267.456 211.02 272.158C218.191 285.943 225.764 299.471 234.509 312.337C236.641 315.481 241.353 312.752 240.673 308.737C237.863 292.406 233.897 276.772 229.513 261.36C227.993 256.141 226.365 251.007 224.704 245.892C223.75 242.972 226.32 239.776 229.032 240.561C241.449 244.09 253.968 247.32 266.62 250.168C288.19 254.85 310.02 258.706 332.692 260.202C336.219 260.446 338.092 255.028 335.166 253.042C316.409 240.22 296.856 229.775 276.997 220.139C265.32 214.549 253.477 209.359 241.546 204.504C238.927 203.447 238.879 199.347 241.432 197.638C245.897 194.64 250.347 191.607 254.733 188.46C267.73 179.023 280.536 169.156 292.849 157.99C295.853 155.279 293.855 150.231 290.222 151.352C275.376 156.066 261.01 162.042 246.825 168.477C242.063 170.671 237.342 172.971 232.649 175.342C229.956 176.697 227.35 174.09 228.306 170.946C232.637 156.595 236.688 142.147 240.388 127.578C246.606 102.694 252.113 77.5948 255.549 51.7495C256.076 47.7258 251.47 46.1341 249.4 49.6245C236.145 72.0763 224.98 95.22 214.507 118.633C208.422 132.378 202.687 146.244 197.234 160.207C196.044 163.271 192.385 163.713 191.103 160.984C188.875 156.222 186.582 151.498 184.19 146.831C177.006 133.011 169.418 119.448 160.627 106.565C158.495 103.421 153.806 106.159 154.463 110.165C157.263 126.523 161.234 142.22 165.632 157.667C167.138 162.851 168.743 167.977 170.413 173.064L170.502 173.034Z" fill="black"/>
<path d="M179.061 182.88C180.015 185.8 177.445 188.995 174.732 188.21C162.349 184.662 149.853 181.441 137.215 178.628C115.621 173.938 93.7678 170.074 71.054 168.624C67.5171 168.408 65.6635 173.771 68.5795 175.784C87.3417 188.669 106.918 199.122 126.8 208.766C138.477 214.356 150.32 219.546 162.251 224.401C164.87 225.458 164.918 229.558 162.365 231.267C157.9 234.265 153.459 237.271 149.064 240.445C136.1 249.862 123.327 259.711 111.033 270.823C108.029 273.533 110.017 278.609 113.659 277.46C128.482 272.738 142.792 266.773 156.944 260.357C161.739 258.144 166.469 255.817 171.186 253.454C173.879 252.099 176.485 254.706 175.529 257.85C171.211 272.237 167.151 286.712 163.418 301.3C157.21 326.157 151.712 351.228 148.239 377.03C147.689 381.046 152.341 382.654 154.388 379.155C167.587 356.715 178.743 333.598 189.206 310.212C195.301 296.44 201.044 282.547 206.507 268.556C207.697 265.493 211.357 265.051 212.638 267.78C214.889 272.55 217.173 277.301 219.579 282.003C226.749 295.788 234.323 309.316 243.067 322.182C245.2 325.327 249.912 322.597 249.232 318.583C246.422 302.252 242.455 286.618 238.072 271.205C236.551 265.987 234.923 260.852 233.262 255.737C232.309 252.817 234.879 249.622 237.591 250.407C250.007 253.936 262.527 257.165 275.178 260.014C296.749 264.695 318.579 268.551 341.25 270.047C344.778 270.291 346.65 264.873 343.725 262.887C324.967 250.066 305.414 239.621 285.556 229.984C273.878 224.394 262.036 219.205 250.104 214.35C247.486 213.292 247.437 209.192 249.991 207.484C254.455 204.486 258.906 201.452 263.291 198.305C276.289 188.869 289.095 179.001 301.407 167.835C304.411 165.125 302.414 160.076 298.781 161.198C283.935 165.911 269.568 171.887 255.384 178.322C250.621 180.516 245.9 182.817 241.208 185.187C238.515 186.542 235.909 183.935 236.864 180.791C241.196 166.44 245.247 151.992 248.947 137.423C255.165 112.539 260.672 87.4401 264.108 61.5948C264.634 57.5711 260.029 55.9794 257.959 59.4698C244.703 81.9216 233.538 105.065 223.065 128.479C216.98 142.224 211.246 156.09 205.792 170.053C204.603 173.116 200.943 173.558 199.661 170.829C197.434 166.067 195.141 161.343 192.749 156.676C185.564 142.856 177.977 129.293 169.186 116.411C167.053 113.266 162.364 116.004 163.021 120.01C165.822 136.369 169.793 152.065 174.191 167.512C175.697 172.696 177.302 177.822 178.972 182.91L179.061 182.88Z" fill="#8F55FF" stroke="black" stroke-width="2.35" stroke-linecap="round" stroke-linejoin="round"/>
</g>
<defs>
<clipPath id="clip0_1559_1449">
<rect width="307.824" height="351.795" fill="white" transform="translate(290.939 433.546) rotate(-160.935)"/>
</clipPath>
</defs>
</svg>
