<svg width="395" height="478" viewBox="0 0 395 478" fill="none" xmlns="http://www.w3.org/2000/svg">
<path d="M99.9939 215.384C102.903 217.79 101.945 222.602 98.3491 223.436C81.9534 227.279 65.6315 231.524 49.4019 236.27C21.7425 244.501 -5.7006 253.73 -32.6282 265.943C-36.8156 267.854 -35.6041 274.448 -31.0108 274.746C-1.50042 276.589 27.4309 275.46 56.2095 273.321C73.0664 271.988 89.8629 270.148 106.554 267.911C110.211 267.412 112.817 271.57 110.954 274.853C107.702 280.606 104.483 286.353 101.421 292.244C92.4224 309.675 83.911 327.431 76.7345 346.188C74.9776 350.766 80.4125 354.75 83.8716 351.381C97.9196 337.624 110.607 322.907 122.833 307.824C126.951 302.673 130.924 297.445 134.858 292.19C137.101 289.183 141.709 290.274 142.569 294.06C146.568 311.351 150.917 328.579 155.712 345.724C164.056 374.846 173.348 403.76 185.413 432.198C187.28 436.63 193.611 435.466 193.78 430.66C194.949 399.791 193.356 369.463 190.803 339.277C189.221 321.541 187.163 303.893 184.722 286.315C184.18 282.47 188.099 279.812 191.264 281.826C196.81 285.339 202.382 288.814 208.062 292.164C224.851 301.916 241.941 311.162 259.962 319.027C264.361 320.952 268.063 315.324 264.787 311.636C251.412 296.655 237.144 283.084 222.537 269.99C217.55 265.578 212.491 261.318 207.407 257.097C204.499 254.69 205.456 249.878 209.052 249.044C225.474 245.162 241.827 240.912 258.095 236.193C285.722 227.968 313.134 218.745 340.042 206.604C344.235 204.726 343.012 198.066 338.424 197.802C308.958 196.019 280.059 197.142 251.312 199.276C234.455 200.608 217.658 202.449 200.968 204.685C197.31 205.184 194.704 201.027 196.568 197.743C199.819 191.991 203.032 186.21 206.1 180.353C215.125 162.883 223.662 145.087 230.826 126.263C232.583 121.685 227.154 117.734 223.689 121.07C209.609 134.833 196.864 149.595 184.613 164.718C180.52 169.829 176.541 175.023 172.638 180.273C170.395 183.28 165.788 182.189 164.928 178.403C160.967 161.139 156.623 143.945 151.803 126.839C143.453 97.6834 134.155 68.7366 122.02 40.2766C120.121 35.8507 113.854 37.0023 113.653 41.814C112.426 72.7291 114.025 103.09 116.585 133.31C118.16 151.012 120.213 168.627 122.647 186.171C123.189 190.016 119.27 192.674 116.105 190.66C110.591 187.141 105.026 183.7 99.3831 180.377C82.5565 170.598 65.428 161.324 47.3438 153.471C42.9449 151.546 39.2749 157.168 42.5189 160.862C55.9004 175.876 70.2119 189.509 84.8571 202.63C89.8065 207.014 94.833 211.28 99.9108 215.468L99.9939 215.384Z" fill="black"/>
<path d="M115.924 220.276C118.832 222.683 117.875 227.495 114.279 228.329C97.8831 232.172 81.5612 236.416 65.3316 241.163C37.6722 249.393 10.2291 258.622 -16.6985 270.836C-20.8859 272.747 -19.6744 279.341 -15.0812 279.638C14.4293 281.482 43.3605 280.353 72.1392 278.214C88.9961 276.881 105.793 275.041 122.483 272.804C126.141 272.305 128.747 276.463 126.883 279.746C123.632 285.499 120.412 291.246 117.351 297.137C108.352 314.567 99.8407 332.324 92.6642 351.081C90.9073 355.659 96.3422 359.643 99.8013 356.274C113.849 342.517 126.537 327.799 138.762 312.717C142.881 307.566 146.853 302.338 150.788 297.082C153.031 294.075 157.638 295.166 158.499 298.953C162.498 316.244 166.847 333.471 171.642 350.617C179.985 379.739 189.277 408.652 201.343 437.091C203.21 441.522 209.541 440.359 209.71 435.553C210.879 404.683 209.286 374.355 206.733 344.169C205.151 326.434 203.092 308.785 200.652 291.208C200.11 287.363 204.029 284.705 207.194 286.719C212.74 290.232 218.312 293.706 223.992 297.057C240.781 306.809 257.871 316.055 275.892 323.92C280.291 325.845 283.992 320.217 280.717 316.528C267.341 301.548 253.074 287.977 238.467 274.883C233.479 270.471 228.421 266.211 223.337 261.989C220.428 259.583 221.386 254.771 224.982 253.937C241.403 250.055 257.757 245.804 274.025 241.085C301.652 232.861 329.063 223.638 355.971 211.497C360.165 209.619 358.941 202.959 354.354 202.694C324.888 200.912 295.988 202.035 267.242 204.168C250.385 205.501 233.588 207.342 216.897 209.578C213.24 210.077 210.634 205.919 212.497 202.636C215.749 196.883 218.962 191.103 222.03 185.246C231.054 167.776 239.591 149.98 246.756 131.156C248.512 126.578 243.084 122.627 239.618 125.963C225.539 139.725 212.794 154.488 200.542 169.61C196.45 174.722 192.471 179.916 188.568 185.166C186.325 188.173 181.718 187.082 180.858 183.296C176.896 166.032 172.553 148.838 167.733 131.732C159.383 102.576 150.085 73.6294 137.949 45.1694C136.051 40.7435 129.783 41.895 129.582 46.7067C128.356 77.6218 129.955 107.983 132.515 138.203C134.09 155.905 136.143 173.52 138.577 191.064C139.119 194.909 135.2 197.566 132.035 195.553C126.521 192.034 120.955 188.593 115.313 185.27C98.4862 175.491 81.3577 166.217 63.2735 158.364C58.8746 156.439 55.2045 162.061 58.4486 165.755C71.83 180.769 86.1416 194.401 100.787 207.522C105.736 211.907 110.763 216.173 115.84 220.361L115.924 220.276Z" fill="#8F55FF" stroke="black" stroke-width="2.35" stroke-linecap="round" stroke-linejoin="round"/>
</svg>
