<svg width="282" height="408" viewBox="0 0 282 408" fill="none" xmlns="http://www.w3.org/2000/svg">
<path d="M227.025 153.279C224.615 146.835 130.561 182.097 130.561 182.097L98.6633 194.055L105.722 177.978C105.722 177.978 133.023 115.796 126.885 112.902C120.746 110.009 93.4459 172.191 93.4459 172.191L86.3871 188.268L74.1289 155.495C74.1289 155.495 37.984 58.8588 31.7124 61.2101C25.4408 63.5613 61.5857 160.198 61.5857 160.198L73.8439 192.971L57.9733 185.49C57.9733 185.49 -3.40746 156.555 -6.13752 162.773C-8.86758 168.991 52.5132 197.926 52.5132 197.926L68.3838 205.407L36.4864 217.366C36.4864 217.366 -57.5678 252.627 -55.1576 259.071C-52.7474 265.515 41.3068 230.253 41.3068 230.253L73.2041 218.295L66.1453 234.372C66.1453 234.372 38.8447 296.554 44.9828 299.447C51.1209 302.341 78.4215 240.159 78.4215 240.159L85.4803 224.082L97.7384 256.855C97.7384 256.855 133.883 353.491 140.155 351.14C146.427 348.788 110.282 252.152 110.282 252.152L98.0235 219.379L113.894 226.86C113.894 226.86 175.275 255.795 178.005 249.577C180.735 243.358 119.354 214.424 119.354 214.424L103.484 206.943L135.381 194.984C135.381 194.984 229.435 159.723 227.025 153.279Z" fill="black"/>
<path d="M213.488 148.873C211.078 142.429 117.023 177.69 117.023 177.69L85.1261 189.649L92.1849 173.571C92.1849 173.571 119.486 111.39 113.347 108.496C107.209 105.603 79.9088 167.784 79.9088 167.784L72.85 183.862L60.5918 151.089C60.5918 151.089 24.4469 54.4525 18.1753 56.8038C11.9036 59.1551 48.0486 155.791 48.0486 155.791L60.3068 188.565L44.4362 181.083C44.4362 181.083 -16.9446 152.149 -19.6746 158.367C-22.4047 164.585 38.9761 193.52 38.9761 193.52L54.8467 201.001L22.9493 212.959C22.9493 212.959 -71.1049 248.221 -68.6947 254.665C-66.2845 261.108 27.7697 225.847 27.7697 225.847L59.667 213.888L52.6082 229.966C52.6082 229.966 25.3076 292.148 31.4457 295.041C37.5838 297.935 64.8844 235.753 64.8844 235.753L71.9432 219.675L84.2013 252.448C84.2013 252.448 120.346 349.085 126.618 346.734C132.889 344.382 96.7445 247.746 96.7445 247.746L84.4864 214.973L100.357 222.454C100.357 222.454 161.738 251.388 164.468 245.17C167.198 238.952 105.817 210.018 105.817 210.018L89.9465 202.536L121.844 190.578C121.844 190.578 215.898 155.316 213.488 148.873Z" fill="#FCF43D" stroke="black" stroke-width="2.35" stroke-linecap="round" stroke-linejoin="round"/>
</svg>
