<svg width="235" height="238" viewBox="0 0 235 238" fill="none" xmlns="http://www.w3.org/2000/svg">
<path d="M138.654 141.341C137.901 139.719 139.298 137.867 141.01 138.251C148.825 139.981 156.69 141.526 164.619 142.838C178.16 145.014 191.813 146.721 205.858 147.051C208.045 147.097 208.878 144.041 206.971 142.971C194.702 136.126 182.073 130.665 169.301 125.666C161.804 122.772 154.228 120.106 146.617 117.631C144.947 117.092 144.684 114.787 146.156 113.772C148.729 111.99 151.287 110.204 153.808 108.325C161.239 102.752 168.529 96.9403 175.452 90.4285C177.144 88.84 175.632 86.0278 173.459 86.7518C164.617 89.7238 156.161 93.3843 147.828 97.2951C145.006 98.6423 142.232 100.052 139.467 101.482C137.889 102.301 136.139 100.891 136.547 99.102C138.38 90.919 140.05 82.6914 141.512 74.4072C143.91 60.2952 145.859 46.0774 146.521 31.4922C146.63 29.222 143.679 28.4172 142.62 30.4285C135.787 43.3311 130.249 56.5702 125.152 69.9461C122.191 77.8217 119.454 85.7581 116.894 93.7429C116.337 95.4911 114.113 95.8178 113.169 94.3106C111.514 91.6758 109.839 89.0526 108.092 86.4596C102.897 78.8602 97.47 71.4139 91.3607 64.3649C89.8704 62.642 87.1297 64.2778 87.7769 66.5209C90.4359 75.6455 93.7663 84.3533 97.3403 92.9274C98.5726 95.83 99.8664 98.6827 101.179 101.524C101.932 103.146 100.535 104.998 98.8225 104.614C90.9891 102.895 83.109 101.346 75.1698 100.015C61.6433 97.8427 48.0047 96.1402 33.9833 95.7833C31.801 95.7215 30.9592 98.8085 32.8708 99.863C45.1325 106.673 57.7475 112.13 70.5041 117.125C78.0013 120.019 85.5768 122.685 93.1882 125.16C94.8579 125.699 95.1217 128.004 93.6497 129.019C91.0764 130.801 88.5137 132.602 85.9976 134.465C78.5468 140.05 71.2381 145.873 64.3068 152.416C62.6148 154.005 64.1309 156.801 66.3001 156.093C75.1568 153.125 83.6466 149.457 91.9986 145.535C94.801 144.199 97.5715 142.805 100.321 141.371C101.899 140.551 103.65 141.962 103.242 143.751C101.398 151.914 99.7323 160.126 98.2892 168.399C95.8869 182.526 93.9339 196.76 93.2967 211.369C93.2025 213.643 96.1245 214.44 97.1977 212.432C104.065 199.522 109.607 186.268 114.709 172.876C117.665 165.016 120.398 157.095 122.954 149.126C123.51 147.378 125.735 147.051 126.678 148.558C128.319 151.189 129.999 153.797 131.735 156.37C136.94 163.989 142.378 171.455 148.517 178.512C150.007 180.235 152.733 178.595 152.1 176.356C149.446 167.216 146.109 158.473 142.524 149.879C141.303 146.996 140.024 144.148 138.707 141.322L138.654 141.341Z" fill="black"/>
<path d="M132.831 135.987C132.078 134.365 133.476 132.513 135.188 132.896C143.002 134.627 150.867 136.172 158.796 137.484C172.337 139.66 185.991 141.366 200.036 141.696C202.222 141.743 203.055 138.687 201.148 137.617C188.88 130.771 176.25 125.311 163.479 120.312C155.981 117.418 148.406 114.752 140.795 112.276C139.125 111.738 138.861 109.433 140.333 108.417C142.906 106.636 145.465 104.85 147.985 102.971C155.417 97.3979 162.707 91.5861 169.629 85.0743C171.321 83.4858 169.81 80.6736 167.636 81.3976C158.794 84.3696 150.338 88.0301 142.005 91.9409C139.184 93.2881 136.409 94.698 133.645 96.1275C132.067 96.9471 130.316 95.5365 130.724 93.7478C132.557 85.5648 134.227 77.3372 135.689 69.0531C138.087 54.941 140.036 40.7232 140.699 26.138C140.808 23.8679 137.856 23.063 136.798 25.0743C129.965 37.9769 124.427 51.216 119.329 64.5919C116.369 72.4675 113.631 80.4039 111.071 88.3887C110.515 90.1369 108.29 90.4636 107.347 88.9564C105.691 86.3217 104.016 83.6984 102.269 81.1054C97.0748 73.506 91.6475 66.0597 85.5382 59.0108C84.048 57.2878 81.3072 58.9236 81.9544 61.1667C84.6134 70.2913 87.9438 78.9991 91.5178 87.5732C92.7501 90.4758 94.0439 93.3285 95.3567 96.1697C96.1096 97.7915 94.7121 99.6437 93.0001 99.2602C85.1666 97.5408 77.2866 95.992 69.3473 94.6604C55.8208 92.4885 42.1822 90.786 28.1608 90.4291C25.9785 90.3673 25.1368 93.4543 27.0483 94.5088C39.3101 101.319 51.925 106.775 64.6817 111.771C72.1788 114.665 79.7543 117.33 87.3657 119.806C89.0354 120.345 89.2992 122.65 87.8273 123.665C85.2539 125.446 82.6912 127.248 80.1751 129.111C72.7243 134.696 65.4156 140.519 58.4843 147.062C56.7923 148.651 58.3085 151.447 60.4776 150.739C69.3343 147.771 77.8242 144.103 86.1762 140.181C88.9785 138.845 91.7491 137.45 94.4984 136.017C96.0764 135.197 97.8271 136.608 97.419 138.397C95.5754 146.56 93.9098 154.772 92.4667 163.045C90.0644 177.172 88.1114 191.406 87.4743 206.014C87.38 208.289 90.302 209.085 91.3752 207.078C98.242 194.168 103.784 180.914 108.886 167.522C111.842 159.662 114.576 151.741 117.131 143.772C117.688 142.024 119.912 141.697 120.856 143.204C122.497 145.835 124.176 148.443 125.912 151.016C131.117 158.635 136.555 166.101 142.694 173.158C144.184 174.881 146.91 173.241 146.278 171.002C143.623 161.862 140.286 153.119 136.702 144.525C135.48 141.642 134.201 138.794 132.884 135.968L132.831 135.987Z" fill="#FCF43D" stroke="black" stroke-width="2.35" stroke-linecap="round" stroke-linejoin="round"/>
</svg>
