<svg width="187" height="220" viewBox="0 0 187 220" fill="none" xmlns="http://www.w3.org/2000/svg">
<path d="M184.519 110.629C184.408 105.979 125.941 107.365 125.941 107.365L106.113 107.835L113.038 99.1643C113.038 99.1643 139.822 65.6284 136.987 62.4056C134.153 59.1827 107.369 92.7186 107.369 92.7186L100.444 101.39L99.8831 77.7352C99.8831 77.7352 98.229 7.98634 94.3303 8.07879C90.4317 8.17125 92.0858 77.9201 92.0858 77.9201L92.6468 101.575L85.3184 93.2416C85.3184 93.2416 56.9749 61.013 54.2966 64.3666C51.6182 67.7202 79.9616 99.9488 79.9616 99.9488L87.29 108.282L67.4616 108.752C67.4616 108.752 8.99449 110.139 9.10479 114.789C9.21509 119.44 67.6822 118.054 67.6822 118.054L87.5106 117.584L80.5855 126.255C80.5855 126.255 53.8017 159.79 56.636 163.013C59.4704 166.236 86.2542 132.7 86.2542 132.7L93.1793 124.029L93.7403 147.684C93.7403 147.684 95.3944 217.433 99.2931 217.34C103.192 217.248 101.538 147.499 101.538 147.499L100.977 123.844L108.305 132.177C108.305 132.177 136.648 164.406 139.327 161.052C142.005 157.699 113.662 125.47 113.662 125.47L106.333 117.137L126.162 116.667C126.162 116.667 184.629 115.28 184.519 110.629Z" fill="black"/>
<path d="M177.895 104.784C177.785 100.133 119.318 101.52 119.318 101.52L99.4894 101.99L106.415 93.3193C106.415 93.3193 133.198 59.7833 130.364 56.5605C127.53 53.3376 100.746 86.8735 100.746 86.8735L93.8207 95.5445L93.2597 71.8901C93.2597 71.8901 91.6056 2.14124 87.7069 2.2337C83.8083 2.32616 85.4624 72.075 85.4624 72.075L86.0234 95.7295L78.695 87.3965C78.695 87.3965 50.3515 55.168 47.6731 58.5215C44.9948 61.8751 73.3382 94.1037 73.3382 94.1037L80.6666 102.437L60.8382 102.907C60.8382 102.907 2.37108 104.293 2.48137 108.944C2.59167 113.595 61.0588 112.209 61.0588 112.209L80.8872 111.738L73.9621 120.409C73.9621 120.409 47.1783 153.945 50.0126 157.168C52.8469 160.391 79.6307 126.855 79.6307 126.855L86.5559 118.184L87.1169 141.839C87.1169 141.839 88.771 211.587 92.6697 211.495C96.5683 211.403 94.9142 141.654 94.9142 141.654L94.3532 117.999L101.682 126.332C101.682 126.332 130.025 158.561 132.703 155.207C135.382 151.854 107.038 119.625 107.038 119.625L99.71 111.292L119.538 110.822C119.538 110.822 178.006 109.435 177.895 104.784Z" fill="#0071C6" stroke="black" stroke-width="2.35" stroke-linecap="round" stroke-linejoin="round"/>
</svg>
