<svg width="170" height="198" viewBox="0 0 170 198" fill="none" xmlns="http://www.w3.org/2000/svg">
<path d="M168.645 107.861L106.103 122.571C105.423 122.728 104.91 123.339 104.759 124.124L92.0333 196.416C91.6559 198.528 89.0443 198.528 88.682 196.416L75.9561 124.124C75.8203 123.339 75.2919 122.745 74.6126 122.571L12.055 107.861C10.2284 107.425 10.2284 104.406 12.055 103.987L74.5975 89.2774C75.2768 89.1203 75.7901 88.5096 75.941 87.7244L88.6669 15.4317C89.0443 13.3203 91.6559 13.3203 92.0182 15.4317L104.744 87.7244C104.88 88.5096 105.408 89.1029 106.088 89.2774L168.63 103.987C170.457 104.423 170.457 107.442 168.63 107.861H168.645Z" fill="black"/>
<path d="M159.945 96.0128L97.4025 110.723C96.7232 110.88 96.2099 111.49 96.059 112.276L83.3331 184.568C82.9557 186.68 80.3441 186.68 79.9818 184.568L67.2559 112.276C67.1201 111.49 66.5917 110.897 65.9124 110.723L3.36996 96.0128C1.54335 95.5766 1.54335 92.5579 3.36996 92.1391L65.9124 77.4293C66.5917 77.2722 67.105 76.6615 67.2559 75.8763L79.9818 3.58353C80.3592 1.47216 82.9708 1.47216 83.3331 3.58353L96.059 75.8763C96.1948 76.6615 96.7232 77.2548 97.4025 77.4293L159.945 92.1391C161.772 92.5753 161.772 95.594 159.945 96.0128Z" fill="#F9346C" stroke="black" stroke-width="2.35" stroke-linecap="round" stroke-linejoin="round"/>
</svg>
