<svg width="76" height="107" viewBox="0 0 76 107" fill="none" xmlns="http://www.w3.org/2000/svg">
<path d="M75.0546 58.0003C76.3151 57.6991 76.3151 55.6912 75.0546 55.3983C70.6765 54.3944 65.906 53.5326 60.7807 52.9135C55.8365 52.3195 51.1943 52.0434 46.8993 51.9681C46.2502 51.9598 45.7293 51.3825 45.7218 50.6546C45.684 43.7189 45.4198 36.3146 44.8386 28.4837C44.2951 21.1799 43.5328 14.2693 42.6194 7.78534C42.4081 6.29612 40.4681 6.29612 40.2492 7.78534C39.2453 14.6876 38.6264 21.5898 38.1357 28.4921C37.6375 35.8963 37.3658 43.2922 37.2677 50.6964C37.2601 51.4076 36.7468 51.9765 36.1052 51.9932C31.4705 52.1271 26.8283 52.4283 22.1937 52.9303C17.3703 53.4824 12.5393 54.1936 7.71597 55.3398C6.4554 55.641 6.4554 57.6489 7.71597 57.9501C12.5393 59.0963 17.3703 59.8074 22.1937 60.3596C26.8283 60.8616 31.463 61.1628 36.0977 61.2966C36.7393 61.3134 37.245 61.8823 37.2601 62.5934C37.3582 69.9976 37.63 77.3935 38.1206 84.7978C38.6113 91.8255 39.2529 98.8616 40.2945 105.889C40.5134 107.37 42.4458 107.37 42.6647 105.889C43.7064 98.8616 44.348 91.8255 44.8386 84.7978C45.3293 77.4019 45.6086 70.006 45.6991 62.6018C45.7067 61.8906 46.22 61.3217 46.8616 61.305C51.4962 61.1795 56.1309 60.8699 60.7656 60.3763C65.5286 59.8325 70.284 59.1381 75.047 58.0086L75.0546 58.0003Z" fill="black"/>
<path d="M70.284 53.3318C71.5446 53.0307 71.5446 51.0227 70.284 50.7299C65.906 49.7259 61.1355 48.8642 56.0102 48.2451C51.066 47.6511 46.4238 47.375 42.1288 47.2997C41.4796 47.2913 40.9588 46.7141 40.9512 45.9862C40.9135 39.0505 40.6493 31.6462 40.0681 23.8153C39.5246 16.5115 38.7622 9.60085 37.8489 3.11691C37.6375 1.6277 35.6976 1.6277 35.4787 3.11691C34.4748 10.0192 33.8558 16.9214 33.3652 23.8237C32.867 31.2279 32.5952 38.6238 32.4971 46.028C32.4896 46.7392 31.9763 47.3081 31.3347 47.3248C26.7 47.4587 22.0578 47.7598 17.4231 48.2618C12.5997 48.814 7.76881 49.5252 2.94543 50.6713C1.68486 50.9725 1.68486 52.9805 2.94543 53.2817C7.76881 54.4278 12.5997 55.139 17.4231 55.6912C22.0578 56.1931 26.6925 56.4943 31.3271 56.6282C31.9687 56.6449 32.4745 57.2138 32.4896 57.925C32.5877 65.3292 32.8594 72.7251 33.3501 80.1293C33.8407 87.1571 34.4823 94.1932 35.524 101.221C35.7429 102.702 37.6753 102.702 37.8942 101.221C38.9358 94.1932 39.5774 87.1571 40.0681 80.1293C40.5587 72.7335 40.838 65.3376 40.9286 57.9333C40.9361 57.2222 41.4494 56.6533 42.091 56.6366C46.7257 56.5111 51.3604 56.2015 55.9951 55.7079C60.758 55.1641 65.5135 54.4697 70.2765 53.3402L70.284 53.3318Z" fill="#0071C6" stroke="black" stroke-width="2.35" stroke-linecap="round" stroke-linejoin="round"/>
</svg>
