<svg width="251" height="261" viewBox="0 0 251 261" fill="none" xmlns="http://www.w3.org/2000/svg">
<path d="M229.784 149.842C230.669 144.976 160.969 133.851 160.969 133.851L137.331 130.078L147.444 122.538C147.444 122.538 186.558 93.376 183.898 89.4109C181.237 85.4458 142.123 114.608 142.123 114.608L132.01 122.148L136.509 97.3969C136.509 97.3969 149.777 24.4146 145.129 23.6728C140.481 22.931 127.214 95.9133 127.214 95.9133L122.714 120.664L115.835 110.412C115.835 110.412 89.2308 70.7611 85.3194 73.6773C81.408 76.5935 108.013 116.245 108.013 116.245L114.892 126.497L91.2535 122.724C91.2535 122.724 21.553 111.599 20.6684 116.466C19.7837 121.332 89.4841 132.457 89.4841 132.457L113.122 136.23L103.009 143.77C103.009 143.77 63.8947 172.932 66.5552 176.897C69.2157 180.862 108.33 151.7 108.33 151.7L118.443 144.16L113.944 168.911C113.944 168.911 100.676 241.893 105.324 242.635C109.972 243.377 123.239 170.395 123.239 170.395L127.738 145.644L134.617 155.896C134.617 155.896 161.222 195.547 165.133 192.631C169.045 189.714 142.44 150.063 142.44 150.063L135.561 139.811L159.199 143.584C159.199 143.584 228.9 154.709 229.784 149.842Z" fill="black"/>
<path d="M230.248 144.669C231.133 139.803 161.432 128.678 161.432 128.678L137.794 124.905L147.907 117.365C147.907 117.365 187.021 88.2032 184.361 84.2381C181.701 80.273 142.586 109.435 142.586 109.435L132.473 116.975L136.973 92.224C136.973 92.224 150.24 19.2418 145.592 18.5C140.945 17.7582 127.677 90.7404 127.677 90.7404L123.178 115.491L116.299 105.239C116.299 105.239 89.6942 65.5882 85.7828 68.5044C81.8714 71.4206 108.476 111.072 108.476 111.072L115.355 121.324L91.7168 117.551C91.7168 117.551 22.0164 106.427 21.1317 111.293C20.2471 116.16 89.9475 127.284 89.9475 127.284L113.586 131.057L103.472 138.597C103.472 138.597 64.3581 167.759 67.0186 171.724C69.679 175.689 108.793 146.527 108.793 146.527L118.906 138.987L114.407 163.738C114.407 163.738 101.14 236.721 105.787 237.462C110.435 238.204 123.702 165.222 123.702 165.222L128.202 140.471L135.081 150.723C135.081 150.723 161.685 190.374 165.597 187.458C169.508 184.542 142.904 144.89 142.904 144.89L136.025 134.638L159.663 138.411C159.663 138.411 229.363 149.536 230.248 144.669Z" fill="#8F55FF" stroke="black" stroke-width="2.35" stroke-linecap="round" stroke-linejoin="round"/>
</svg>
