<svg width="162" height="156" viewBox="0 0 162 156" fill="none" xmlns="http://www.w3.org/2000/svg">
<path d="M133.197 54.5852L99.8118 82.8173C99.4484 83.1225 99.3211 83.6027 99.465 84.051L113.418 124.938C113.823 126.134 112.245 127.002 111.394 126.052L82.0617 93.6175C81.7446 93.2644 81.2477 93.1391 80.785 93.2762L38.583 106.594C37.3487 106.98 36.445 105.449 37.4233 104.63L70.8087 76.3977C71.1721 76.0924 71.2994 75.6122 71.1555 75.1639L57.202 34.2765C56.798 33.0804 58.376 32.213 59.227 33.1634L88.5588 65.5974C88.876 65.9505 89.3728 66.0759 89.8355 65.9387L132.028 52.6258C133.263 52.2403 134.166 53.7712 133.188 54.5902L133.197 54.5852Z" fill="black"/>
<path d="M124.389 51.55L91.001 79.7807C90.6375 80.086 90.5102 80.5662 90.654 81.0145L104.602 121.904C105.006 123.1 103.428 123.968 102.577 123.017L73.2502 90.5801C72.9331 90.227 72.4363 90.1016 71.9736 90.2387L29.7805 103.549C28.5463 103.935 27.6427 102.404 28.6211 101.585L62.0086 73.3539C62.3721 73.0487 62.4994 72.5685 62.3556 72.1201L48.4072 31.2305C48.0033 30.0343 49.5813 29.167 50.4322 30.1175L79.7594 62.5545C80.0765 62.9076 80.5733 63.033 81.036 62.8959L123.229 49.5854C124.463 49.2001 125.367 50.731 124.389 51.55Z" fill="#FCF43D" stroke="black" stroke-width="2.35" stroke-linecap="round" stroke-linejoin="round"/>
</svg>
