<svg width="137" height="182" viewBox="0 0 137 182" fill="none" xmlns="http://www.w3.org/2000/svg">
<path d="M105.701 124.407L57.915 112.322C57.3968 112.189 56.8683 112.399 56.5444 112.844L27.5466 154.183C26.6957 155.389 24.8711 154.496 25.2052 153.037L36.4214 102.996C36.5449 102.453 36.3408 101.898 35.9147 101.555L-3.69933 70.8704C-4.85415 69.9702 -4.01454 68.0623 -2.62191 68.4221L45.1642 80.5081C45.6825 80.6411 46.2109 80.4306 46.5348 79.9859L75.5326 38.6464C76.3836 37.441 78.2081 38.3339 77.874 39.7922L66.6578 89.8335C66.5343 90.3762 66.7384 90.9318 67.1645 91.2743L106.768 121.954C107.923 122.854 107.083 124.762 105.691 124.402L105.701 124.407Z" fill="black"/>
<path d="M103.161 114.011L55.3758 101.92C54.8575 101.787 54.329 101.997 54.0051 102.442L25.002 143.777C24.1509 144.983 22.3264 144.09 22.6607 142.631L33.8831 92.5918C34.0066 92.0491 33.8026 91.4935 33.3765 91.1509L-6.22367 60.467C-7.37839 59.5666 -6.53854 57.6589 -5.14594 58.0188L42.6392 70.1101C43.1575 70.2432 43.6859 70.0327 44.0099 69.5881L73.013 28.2524C73.8641 27.0471 75.6886 27.9402 75.3543 29.3984L64.1319 79.4379C64.0084 79.9806 64.2124 80.5362 64.6384 80.8788L104.239 111.563C105.393 112.463 104.554 114.371 103.161 114.011Z" fill="#0071C6" stroke="black" stroke-width="2.35" stroke-linecap="round" stroke-linejoin="round"/>
</svg>
