<svg width="87" height="101" viewBox="0 0 87 101" fill="none" xmlns="http://www.w3.org/2000/svg">
<path d="M82.6521 51.1532C56.115 58.7303 51.0276 65.4478 48.4449 96.3788C48.3397 97.6612 46.7365 97.7714 46.4202 96.5179C38.9073 66.2805 32.8067 60.3238 5.34911 56.464C4.21077 56.3061 4.0646 54.49 5.1645 54.1704C31.7016 46.5932 36.789 39.8757 39.3717 8.9447C39.4769 7.6623 41.0801 7.55216 41.3964 8.8056C48.9093 39.0431 55.0099 44.9998 82.4675 48.8595C83.6058 49.0174 83.752 50.8336 82.6521 51.1532Z" fill="black"/>
<path d="M81.7649 46.9098C55.2881 54.4564 50.2217 61.1739 47.6993 92.1355C47.5965 93.4191 45.9964 93.5271 45.6784 92.2718C38.1242 61.9897 32.0236 56.0174 4.6073 52.1131C3.47068 51.9533 3.32149 50.135 4.41888 49.8167C30.8957 42.27 35.9621 35.5526 38.4845 4.59098C38.5872 3.30731 40.1874 3.1994 40.5054 4.4547C48.0596 34.7367 54.1602 40.709 81.5765 44.6133C82.7131 44.7731 82.8623 46.5915 81.7649 46.9098Z" fill="#FCF43D"/>
<path d="M81.7649 46.9098C55.2881 54.4564 50.2217 61.1739 47.6993 92.1355C47.5965 93.4191 45.9964 93.5271 45.6784 92.2718C38.1242 61.9897 32.0236 56.0174 4.6073 52.1131C3.47068 51.9533 3.32149 50.135 4.41888 49.8167C30.8957 42.27 35.9621 35.5526 38.4845 4.59098C38.5872 3.30731 40.1874 3.1994 40.5054 4.4547C48.0596 34.7367 54.1602 40.709 81.5765 44.6133C82.7131 44.7731 82.8623 46.5915 81.7649 46.9098V46.9098Z" stroke="black" stroke-width="2.35" stroke-linecap="round" stroke-linejoin="round"/>
</svg>
