<svg width="62" height="61" viewBox="0 0 62 61" fill="none" xmlns="http://www.w3.org/2000/svg">
<path d="M54.7215 26.9903C39.975 33.5449 37.6047 37.509 38.7886 53.6742C38.8388 54.3442 37.9178 54.5614 37.6254 53.9485C30.6416 39.1512 26.5837 36.6989 10.3108 37.4642C9.63639 37.497 9.394 36.5777 10.0047 36.3032C24.7512 29.7486 27.1215 25.7845 25.9376 9.61933C25.8874 8.94931 26.8084 8.7321 27.1008 9.34501C34.0846 24.1423 38.1425 26.5946 54.4154 25.8293C55.0898 25.7965 55.3322 26.7158 54.7215 26.9903Z" fill="black"/>
<path d="M50.9822 25.4013C36.2653 31.9377 33.9052 35.9017 35.1187 52.0852C35.1701 52.7559 34.2506 52.9718 33.9574 52.3578C26.9533 37.5339 22.8954 35.0724 6.64283 35.811C5.96921 35.8427 5.72535 34.9221 6.33484 34.6483C21.0517 28.112 23.4118 24.1479 22.1983 7.96447C22.1469 7.29369 23.0664 7.07781 23.3596 7.69183C30.3637 22.5157 34.4216 24.9773 50.6742 24.2386C51.3478 24.2069 51.5917 25.1275 50.9822 25.4013Z" fill="#8F55FF"/>
<path d="M50.9822 25.4013C36.2653 31.9377 33.9052 35.9017 35.1187 52.0852C35.1701 52.7559 34.2506 52.9718 33.9574 52.3578C26.9533 37.5339 22.8954 35.0724 6.64283 35.811C5.96921 35.8427 5.72535 34.9221 6.33484 34.6483C21.0517 28.112 23.4118 24.1479 22.1983 7.96447C22.1469 7.29369 23.0664 7.07781 23.3596 7.69183C30.3637 22.5157 34.4216 24.9773 50.6742 24.2386C51.3478 24.2069 51.5917 25.1275 50.9822 25.4013V25.4013Z" stroke="black" stroke-width="2.35" stroke-linecap="round" stroke-linejoin="round"/>
</svg>
