<svg width="289" height="283" viewBox="0 0 289 283" fill="none" xmlns="http://www.w3.org/2000/svg">
<path d="M224.58 200.93C227.89 202.316 230.084 199.056 227.423 196.705C218.164 188.56 207.822 180.062 196.375 171.43C185.33 163.108 174.652 155.752 164.575 149.239C163.049 148.259 162.447 146.547 163.225 145.354C170.713 134.036 178.178 121.62 185.36 108.04C192.054 95.3717 197.802 83.0161 202.726 71.1288C203.853 68.3962 199.264 65.5095 197.12 67.6019C187.204 77.3155 178.198 87.6019 169.496 98.0793C160.228 109.361 151.505 120.965 143.183 132.842C142.388 133.985 140.552 134.145 139.016 133.218C127.907 126.538 116.598 120.12 105.087 114.038C93.0753 107.757 80.8717 101.724 68.2107 96.4073C64.9 95.0206 62.7061 98.281 65.3586 100.646C75.515 109.684 86.1646 118.028 96.97 126.102C107.384 133.813 118.017 141.199 128.833 148.313C130.333 149.295 130.907 150.971 130.166 152.148C122.308 164.317 114.87 176.73 107.941 189.483C101.423 201.624 95.2528 214.004 90.0381 226.965C88.9379 229.695 93.5085 232.571 95.6443 230.492C105.787 220.631 114.992 210.161 123.831 199.479C133.072 188.201 141.814 176.607 150.118 164.719C150.913 163.576 152.748 163.416 154.284 164.343C165.384 171.036 176.684 177.43 188.186 183.525C200.046 189.73 212.053 195.679 224.553 200.932L224.58 200.93Z" fill="black"/>
<path d="M220.876 186.276C224.187 187.663 226.381 184.402 223.719 182.051C214.461 173.906 204.118 165.408 192.672 156.776C181.626 148.455 170.948 141.098 160.871 134.585C159.345 133.605 158.744 131.893 159.521 130.7C167.01 119.382 174.475 106.966 181.656 93.386C188.351 80.7177 194.098 68.3622 199.022 56.4748C200.149 53.7422 195.561 50.8556 193.416 52.9479C183.5 62.6615 174.495 72.948 165.793 83.4254C156.524 94.7066 147.801 106.311 139.479 118.188C138.684 119.331 136.848 119.491 135.313 118.564C124.204 111.885 112.895 105.466 101.384 99.3843C89.3717 93.1035 77.1681 87.0696 64.507 81.7534C61.1963 80.3666 59.0025 83.627 61.655 85.9918C71.8114 95.0303 82.461 103.374 93.2664 111.448C103.68 119.159 114.314 126.545 125.13 133.659C126.629 134.641 127.204 136.317 126.462 137.494C118.605 149.663 111.167 162.076 104.237 174.829C97.7192 186.97 91.5492 199.35 86.3345 212.311C85.2343 215.041 89.8049 217.917 91.9407 215.838C102.083 205.977 111.288 195.507 120.127 184.826C129.369 173.547 138.11 161.953 146.414 150.065C147.209 148.922 149.045 148.762 150.58 149.69C161.68 156.382 172.981 162.776 184.482 168.871C196.342 175.076 208.349 181.025 220.849 186.278L220.876 186.276Z" fill="#0071C6" stroke="black" stroke-width="2.35" stroke-linecap="round" stroke-linejoin="round"/>
</svg>
