<svg width="829" height="849" viewBox="0 0 829 849" fill="none" xmlns="http://www.w3.org/2000/svg">
<path d="M772.445 386.352C769.94 370.184 532.595 401.276 532.595 401.276L452.103 411.821L476.454 378.476C476.454 378.476 570.633 249.511 557.673 239.547C544.712 229.582 450.532 358.546 450.532 358.546L426.181 391.891L413.439 309.663C413.439 309.663 375.865 67.1991 360.039 69.2723C344.212 71.3456 381.786 313.809 381.786 313.809L394.528 396.038L361.018 370.273C361.018 370.273 231.411 270.624 221.993 283.521C212.575 296.417 342.182 396.066 342.182 396.066L375.693 421.831L295.2 432.375C295.2 432.375 57.8551 463.468 60.3605 479.635C62.8659 495.803 300.211 464.711 300.211 464.711L380.703 454.166L356.352 487.511C356.352 487.511 262.173 616.476 275.133 626.44C288.094 636.405 382.274 507.441 382.274 507.441L406.625 474.096L419.367 556.324C419.367 556.324 456.941 798.788 472.767 796.715C488.594 794.641 451.02 552.178 451.02 552.178L438.277 469.949L471.789 495.714C471.789 495.714 601.395 595.363 610.813 582.466C620.231 569.57 490.624 469.921 490.624 469.921L457.113 444.156L537.606 433.612C537.606 433.612 774.951 402.519 772.445 386.352Z" fill="black"/>
<path d="M768.463 369.572C765.956 353.404 528.615 384.517 528.615 384.517L448.123 395.068L472.472 361.721C472.472 361.721 566.643 232.748 553.682 222.784C540.72 212.821 446.549 341.794 446.549 341.794L422.201 375.141L409.453 292.913C409.453 292.913 371.864 50.4513 356.038 52.5259C340.212 54.6005 377.8 297.062 377.8 297.062L390.548 379.29L357.036 353.528C357.036 353.528 227.423 253.89 218.006 266.787C208.589 279.684 338.202 379.322 338.202 379.322L371.714 405.085L291.222 415.636C291.222 415.636 53.8806 446.748 56.3871 462.916C58.8935 479.083 296.235 447.971 296.235 447.971L376.727 437.42L352.378 470.767C352.378 470.767 258.207 599.74 271.168 609.704C284.13 619.667 378.301 490.694 378.301 490.694L402.649 457.347L415.397 539.575C415.397 539.575 452.986 782.037 468.812 779.962C484.638 777.888 447.049 535.426 447.049 535.426L434.302 453.198L467.814 478.96C467.814 478.96 597.427 578.598 606.844 565.701C616.261 552.804 486.648 453.166 486.648 453.166L453.136 427.403L533.628 416.852C533.628 416.852 770.969 385.74 768.463 369.572Z" fill="#0071C6" stroke="black" stroke-width="2.35" stroke-linecap="round" stroke-linejoin="round"/>
</svg>
