<svg width="164" height="162" viewBox="0 0 164 162" fill="none" xmlns="http://www.w3.org/2000/svg">
<path d="M140.896 62.1965C106.06 84.4354 101.22 95.2038 108.367 134.674C108.666 136.309 106.44 137.223 105.556 135.828C84.3918 102.114 73.6965 97.7144 33.5691 106.269C31.9062 106.627 31.0659 104.454 32.5078 103.525C67.3435 81.2861 72.1844 70.5177 65.0368 31.0479C64.7379 29.4123 66.9637 28.4983 67.8478 29.8935C89.0121 63.6075 99.7074 68.007 139.835 59.4521C141.498 59.0949 142.338 61.2679 140.896 62.1965Z" fill="black"/>
<path d="M131.066 59.5762C96.3268 81.8561 91.4971 92.6491 98.6115 132.219C98.9091 133.859 96.6896 134.774 95.8085 133.375C74.7171 99.5696 64.0548 95.1551 24.0437 103.715C22.3856 104.073 21.5485 101.894 22.9864 100.964C57.7256 78.6838 62.5554 67.8908 55.4409 28.321C55.1433 26.6813 57.3628 25.7659 58.244 27.1649C79.3354 60.9702 89.9976 65.3848 130.009 56.8247C131.667 56.4672 132.504 58.6459 131.066 59.5762Z" fill="#FCF43D"/>
<path d="M131.066 59.5762C96.3268 81.8561 91.497 92.6491 98.6115 132.219C98.9091 133.859 96.6896 134.774 95.8085 133.375C74.7171 99.5696 64.0548 95.1551 24.0437 103.715C22.3856 104.073 21.5485 101.894 22.9864 100.964C57.7256 78.6838 62.5554 67.8908 55.4409 28.321C55.1433 26.6813 57.3628 25.7659 58.244 27.1649C79.3354 60.9702 89.9976 65.3848 130.009 56.8247C131.667 56.4672 132.504 58.6459 131.066 59.5762V59.5762Z" stroke="black" stroke-width="2.35" stroke-linecap="round" stroke-linejoin="round"/>
</svg>
