<svg width="163" height="183" viewBox="0 0 163 183" fill="none" xmlns="http://www.w3.org/2000/svg">
<path d="M164.131 113.748C114.589 111.477 102.227 118.956 80.9782 164.12C80.1004 165.993 77.2966 165.334 77.4373 163.287C81.0302 113.969 73.8298 101.875 28.9354 81.9391C27.073 81.1157 27.811 78.3106 29.8673 78.3964C79.4087 80.667 91.7708 73.1885 113.02 28.0247C113.898 26.1512 116.702 26.8109 116.561 28.8578C112.968 78.1758 120.168 90.2699 165.063 110.205C166.925 111.029 166.187 113.834 164.131 113.748Z" fill="black"/>
<path d="M156.453 104.147C106.973 101.958 94.611 109.465 73.3 154.71C72.4196 156.587 69.6204 155.931 69.7648 153.882C73.448 104.508 66.2791 92.4141 21.4751 72.5342C19.6165 71.7131 20.3589 68.904 22.4128 68.9864C71.8923 71.1758 84.2544 63.669 105.565 18.4239C106.446 16.5471 109.245 17.2027 109.101 19.2519C105.417 68.6256 112.586 80.7196 157.39 100.6C159.249 101.421 158.506 104.23 156.453 104.147Z" fill="#8F55FF"/>
<path d="M156.453 104.147C106.973 101.958 94.611 109.465 73.3 154.71C72.4196 156.587 69.6204 155.931 69.7648 153.882C73.448 104.508 66.2791 92.4141 21.4751 72.5342C19.6165 71.7131 20.3589 68.904 22.4128 68.9864C71.8923 71.1758 84.2544 63.669 105.565 18.4239C106.446 16.5471 109.245 17.2027 109.101 19.2519C105.417 68.6256 112.586 80.7196 157.39 100.6C159.249 101.421 158.506 104.23 156.453 104.147V104.147Z" stroke="black" stroke-width="2.35" stroke-linecap="round" stroke-linejoin="round"/>
</svg>
