<svg width="309" height="410" viewBox="0 0 309 410" fill="none" xmlns="http://www.w3.org/2000/svg">
<path d="M264.283 218.854C261.563 217.265 261.985 213.407 265.027 212.394C278.894 207.742 292.663 202.784 306.31 197.442C329.555 188.229 352.529 178.256 374.805 166.003C378.268 164.088 376.663 159.055 372.663 159.284C346.965 160.809 322.019 164.599 297.291 169.164C282.813 171.9 268.43 175.027 254.173 178.452C251.049 179.21 248.443 176.222 249.778 173.468C252.107 168.645 254.409 163.829 256.561 158.916C262.879 144.386 268.747 129.651 273.376 114.267C274.51 110.512 269.47 107.944 266.76 110.925C255.762 123.09 246.023 135.87 236.714 148.889C233.584 153.329 230.587 157.815 227.625 162.319C225.937 164.895 221.857 164.505 220.793 161.632C215.873 148.517 210.654 135.488 205.057 122.567C195.378 100.641 184.895 78.9736 172.052 57.9562C170.062 54.6796 164.681 56.2251 164.94 59.9989C166.533 84.2473 170.472 107.794 175.229 131.134C178.095 144.839 181.366 158.428 184.962 171.923C185.755 174.874 182.588 177.345 179.678 176.09C174.581 173.9 169.466 171.745 164.267 169.696C148.912 163.761 133.34 158.251 117.079 153.914C113.109 152.851 110.38 157.623 113.526 160.177C126.367 170.543 139.862 179.717 153.61 188.484C158.299 191.432 163.036 194.254 167.793 197.043C170.514 198.631 170.091 202.489 167.049 203.503C153.163 208.188 139.367 213.154 125.685 218.478C102.467 227.684 79.5198 237.648 57.2546 249.843C53.7834 251.732 55.4047 256.816 59.3973 256.561C85.0519 254.993 109.971 251.21 134.672 246.654C149.15 243.918 163.532 240.791 177.79 237.365C180.914 236.608 183.52 239.596 182.184 242.349C179.855 247.173 177.562 252.015 175.401 256.902C169.065 271.465 163.177 286.234 158.565 301.668C157.431 305.424 162.463 307.966 165.181 305.011C176.206 292.837 185.991 280.016 195.319 266.964C198.43 262.557 201.435 258.097 204.37 253.601C206.058 251.025 210.138 251.415 211.202 254.288C216.087 267.385 221.298 280.389 226.913 293.276C236.601 315.228 247.092 336.921 259.997 357.948C262.014 361.217 267.342 359.687 267.11 355.905C265.562 331.616 261.616 308.043 256.85 284.678C253.992 270.999 250.729 257.436 247.142 243.966C246.348 241.015 249.516 238.544 252.425 239.799C257.495 241.996 262.602 244.126 267.766 246.157C283.156 252.11 298.764 257.638 315.079 261.959C319.049 263.022 321.751 258.258 318.631 255.697C305.782 245.305 292.244 236.087 278.461 227.302C273.807 224.373 269.097 221.543 264.348 218.78L264.283 218.854Z" fill="black"/>
<path d="M257.632 212.723C254.911 211.134 255.334 207.276 258.376 206.263C272.243 201.611 286.012 196.653 299.658 191.312C322.904 182.099 345.878 172.127 368.155 159.874C371.618 157.959 370.013 152.927 366.012 153.155C340.314 154.68 315.368 158.47 290.64 163.034C276.162 165.769 261.779 168.896 247.522 172.321C244.398 173.079 241.792 170.091 243.128 167.337C245.456 162.513 247.758 157.698 249.911 152.785C256.229 138.255 262.097 123.52 266.726 108.136C267.861 104.381 262.82 101.813 260.111 104.794C249.112 116.959 239.373 129.739 230.064 142.758C226.934 147.198 223.936 151.684 220.974 156.187C219.287 158.763 215.207 158.374 214.143 155.5C209.222 142.385 204.004 129.356 198.407 116.435C188.728 94.509 178.246 72.8412 165.403 51.8236C163.414 48.5469 158.032 50.0924 158.291 53.8662C159.884 78.1146 163.822 101.662 168.579 125.001C171.444 138.707 174.715 152.295 178.311 165.791C179.104 168.742 175.937 171.213 173.027 169.957C167.931 167.768 162.815 165.612 157.616 163.564C142.262 157.628 126.689 152.117 110.428 147.78C106.458 146.718 103.729 151.489 106.876 154.043C119.716 164.409 133.211 173.584 146.958 182.351C151.647 185.299 156.385 188.121 161.142 190.91C163.862 192.499 163.44 196.357 160.397 197.37C146.512 202.055 132.716 207.021 119.034 212.344C95.8149 221.55 72.8677 231.514 50.6022 243.708C47.131 245.597 48.7522 250.681 52.7448 250.427C78.3994 248.859 103.318 245.077 128.02 240.52C142.497 237.785 156.88 234.658 171.138 231.233C174.262 230.475 176.868 233.463 175.532 236.217C173.203 241.041 170.91 245.882 168.749 250.769C162.412 265.332 156.524 280.101 151.912 295.535C150.777 299.291 155.809 301.833 158.527 298.878C169.553 286.705 179.338 273.884 188.666 260.832C191.777 256.425 194.783 251.965 197.718 247.469C199.405 244.893 203.485 245.283 204.549 248.156C209.435 261.253 214.645 274.257 220.26 287.144C229.947 309.096 240.438 330.789 253.343 351.817C255.359 355.086 260.687 353.556 260.455 349.775C258.908 325.485 254.962 301.912 250.197 278.547C247.339 264.868 244.077 251.304 240.489 237.835C239.696 234.884 242.863 232.412 245.773 233.668C250.843 235.865 255.95 237.995 261.114 240.026C276.503 245.98 292.111 251.508 308.426 255.829C312.396 256.892 315.098 252.128 311.979 249.567C299.13 239.175 285.592 229.957 271.809 221.172C267.155 218.242 262.445 215.412 257.696 212.649L257.632 212.723Z" fill="#8F55FF" stroke="black" stroke-width="2.35" stroke-linecap="round" stroke-linejoin="round"/>
</svg>
