<svg preserveAspectRatio="none" width="100%" height="3115" viewBox="0 0 1025 3115" fill="none" xmlns="http://www.w3.org/2000/svg">
<rect x="0.5" y="409" width="1024" height="2573" fill="#D48C8D"/>
<rect x="0.5" y="409" width="1024" height="2573" fill="#D48C8D"/>
<path d="M-15.5 0L28.9275 63.3991C68.3788 119.755 108.492 176.787 161.452 220.698C214.412 264.608 282.755 294.447 351.044 286.853C432.717 277.743 503.321 217.473 585.477 214.923C633.723 213.434 680.714 232.509 720.965 259.151C761.216 285.792 795.898 319.793 831.544 352.402C844.86 364.558 858.672 376.742 875.269 383.799C886.104 388.402 897.779 390.69 909.468 392.068C948.539 396.518 988.1 391.052 1024.5 376.177V764H-11.0338L-15.5 0Z" fill="#D48C8D"/>
<path d="M1008.93 506.14C978.596 510.649 975.755 514.289 972.17 552.293C968.585 514.289 965.689 510.649 935.407 506.14C965.744 501.644 968.585 498.004 972.17 460C975.755 498.004 978.651 501.63 1008.93 506.14Z" fill="#FDFBE4"/>
<path d="M158.535 684.203C77.1776 696.296 69.3176 706.101 59.6926 808.308C50.0399 706.128 42.2489 696.324 -39.1504 684.203C42.2075 672.11 50.0537 662.305 59.6926 560.098C69.3176 662.305 77.1362 672.11 158.535 684.203Z" fill="#FDFBE4"/>
<path d="M939.241 586.187C922.528 588.669 920.915 590.682 918.943 611.67C916.957 590.682 915.357 588.669 898.645 586.187C915.357 583.691 916.957 581.678 918.943 560.69C920.928 581.678 922.542 583.691 939.241 586.187Z" fill="#FDFBE4"/>
<path d="M923.974 1609.23C892.107 1613.96 889.059 1617.79 885.281 1657.78C881.516 1617.79 878.386 1613.96 846.602 1609.23C878.455 1604.48 881.516 1600.65 885.281 1560.66C889.059 1600.65 892.107 1604.48 923.974 1609.23Z" fill="#FDFBE4"/>
<path d="M75.9868 741.959C159.142 711.067 216.944 660.16 205.092 628.256C193.239 596.352 116.221 595.531 33.0656 626.423C-50.0895 657.315 -107.892 708.222 -96.0394 740.126C-84.187 772.03 -7.16822 772.851 75.9868 741.959Z" stroke="#FCFAE0" stroke-miterlimit="10"/>
<path d="M119.181 777.999C126.789 777.999 132.957 771.831 132.957 764.223C132.957 756.615 126.789 750.447 119.181 750.447C111.573 750.447 105.405 756.615 105.405 764.223C105.405 771.831 111.573 777.999 119.181 777.999Z" fill="#FCFAE0"/>
<path d="M105.405 837.707C108.276 837.707 110.604 835.38 110.604 832.509C110.604 829.638 108.276 827.31 105.405 827.31C102.534 827.31 100.207 829.638 100.207 832.509C100.207 835.38 102.534 837.707 105.405 837.707Z" fill="#FCFAE0"/>
<path d="M59.6933 892.231C62.5644 892.231 64.8919 889.904 64.8919 887.033C64.8919 884.161 62.5644 881.834 59.6933 881.834C56.8221 881.834 54.4946 884.161 54.4946 887.033C54.4946 889.904 56.8221 892.231 59.6933 892.231Z" fill="#FCFAE0"/>
<path d="M961.773 1165.26C968.536 1165.26 974.018 1159.78 974.018 1153.02C974.018 1146.25 968.536 1140.77 961.773 1140.77C955.01 1140.77 949.528 1146.25 949.528 1153.02C949.528 1159.78 955.01 1165.26 961.773 1165.26Z" fill="#FCFAE0"/>
<path d="M998.535 1101.1C1001.41 1101.1 1003.73 1098.77 1003.73 1095.9C1003.73 1093.03 1001.41 1090.7 998.535 1090.7C995.664 1090.7 993.337 1093.03 993.337 1095.9C993.337 1098.77 995.664 1101.1 998.535 1101.1Z" fill="#FCFAE0"/>
<path d="M956.574 1010.53C959.445 1010.53 961.773 1008.2 961.773 1005.33C961.773 1002.46 959.445 1000.13 956.574 1000.13C953.703 1000.13 951.375 1002.46 951.375 1005.33C951.375 1008.2 953.703 1010.53 956.574 1010.53Z" fill="#FCFAE0"/>
<path fill-rule="evenodd" clip-rule="evenodd" d="M918.956 1068.45C918.956 1068.45 912.061 1214.61 898.272 1222.89C883.103 1229.78 822.43 1184.28 822.43 1184.28C822.43 1184.28 873.451 1242.19 865.177 1255.98C855.524 1269.77 705.219 1278.05 705.219 1278.05C705.219 1278.05 855.524 1287.7 865.177 1301.49C873.451 1315.28 822.43 1373.19 822.43 1373.19C822.43 1373.19 883.103 1327.69 898.272 1334.58C912.061 1342.86 918.956 1489.03 918.956 1489.03C918.956 1489.03 925.851 1342.86 941.019 1334.58C956.188 1327.69 1015.48 1373.19 1015.48 1373.19C1015.48 1373.19 965.84 1315.28 974.114 1301.49C982.388 1287.7 1132.69 1278.05 1132.69 1278.05C1132.69 1278.05 982.388 1269.77 974.114 1255.98C965.84 1242.19 1015.48 1184.28 1015.48 1184.28C1015.48 1184.28 956.188 1229.78 941.019 1222.89C927.23 1214.61 920.335 1089.13 918.956 1068.45Z" fill="#FDFBE4"/>
<path d="M1008.93 1963.14C978.596 1967.65 975.755 1971.29 972.17 2009.29C968.585 1971.29 965.689 1967.65 935.407 1963.14C965.744 1958.64 968.585 1955 972.17 1917C975.755 1955 978.651 1958.63 1008.93 1963.14Z" fill="#FDFBE4"/>
<path d="M158.535 2141.2C77.1776 2153.3 69.3176 2163.1 59.6926 2265.31C50.0399 2163.13 42.2489 2153.32 -39.1504 2141.2C42.2075 2129.11 50.0537 2119.31 59.6926 2017.1C69.3176 2119.31 77.1362 2129.11 158.535 2141.2Z" fill="#FDFBE4"/>
<path d="M939.241 2043.19C922.528 2045.67 920.915 2047.68 918.943 2068.67C916.957 2047.68 915.357 2045.67 898.645 2043.19C915.357 2040.69 916.957 2038.68 918.943 2017.69C920.928 2038.68 922.542 2040.69 939.241 2043.19Z" fill="#FDFBE4"/>
<path d="M923.974 3066.23C892.107 3070.96 889.059 3074.79 885.281 3114.78C881.516 3074.79 878.386 3070.96 846.602 3066.23C878.455 3061.48 881.516 3057.65 885.281 3017.66C889.059 3057.65 892.107 3061.48 923.974 3066.23Z" fill="#FDFBE4"/>
<path d="M75.9868 2198.96C159.142 2168.07 216.944 2117.16 205.092 2085.26C193.239 2053.35 116.221 2052.53 33.0656 2083.42C-50.0895 2114.32 -107.892 2165.22 -96.0394 2197.13C-84.187 2229.03 -7.16822 2229.85 75.9868 2198.96Z" stroke="#FCFAE0" stroke-miterlimit="10"/>
<path d="M119.181 2235C126.789 2235 132.957 2228.83 132.957 2221.22C132.957 2213.61 126.789 2207.45 119.181 2207.45C111.573 2207.45 105.405 2213.61 105.405 2221.22C105.405 2228.83 111.573 2235 119.181 2235Z" fill="#FCFAE0"/>
<path d="M105.405 2294.71C108.276 2294.71 110.604 2292.38 110.604 2289.51C110.604 2286.64 108.276 2284.31 105.405 2284.31C102.534 2284.31 100.207 2286.64 100.207 2289.51C100.207 2292.38 102.534 2294.71 105.405 2294.71Z" fill="#FCFAE0"/>
<path d="M59.6933 2349.23C62.5644 2349.23 64.8919 2346.9 64.8919 2344.03C64.8919 2341.16 62.5644 2338.83 59.6933 2338.83C56.8221 2338.83 54.4946 2341.16 54.4946 2344.03C54.4946 2346.9 56.8221 2349.23 59.6933 2349.23Z" fill="#FCFAE0"/>
<path d="M961.773 2622.26C968.536 2622.26 974.018 2616.78 974.018 2610.02C974.018 2603.25 968.536 2597.77 961.773 2597.77C955.01 2597.77 949.528 2603.25 949.528 2610.02C949.528 2616.78 955.01 2622.26 961.773 2622.26Z" fill="#FCFAE0"/>
<path d="M998.535 2558.1C1001.41 2558.1 1003.73 2555.77 1003.73 2552.9C1003.73 2550.03 1001.41 2547.7 998.535 2547.7C995.664 2547.7 993.337 2550.03 993.337 2552.9C993.337 2555.77 995.664 2558.1 998.535 2558.1Z" fill="#FCFAE0"/>
<path d="M956.574 2467.53C959.445 2467.53 961.773 2465.2 961.773 2462.33C961.773 2459.46 959.445 2457.13 956.574 2457.13C953.703 2457.13 951.375 2459.46 951.375 2462.33C951.375 2465.2 953.703 2467.53 956.574 2467.53Z" fill="#FCFAE0"/>
<path fill-rule="evenodd" clip-rule="evenodd" d="M918.956 2525.45C918.956 2525.45 912.061 2671.61 898.272 2679.89C883.103 2686.78 822.43 2641.28 822.43 2641.28C822.43 2641.28 873.451 2699.19 865.177 2712.98C855.524 2726.77 705.219 2735.05 705.219 2735.05C705.219 2735.05 855.524 2744.7 865.177 2758.49C873.451 2772.28 822.43 2830.19 822.43 2830.19C822.43 2830.19 883.103 2784.69 898.272 2791.58C912.061 2799.86 918.956 2946.03 918.956 2946.03C918.956 2946.03 925.851 2799.86 941.019 2791.58C956.188 2784.69 1015.48 2830.19 1015.48 2830.19C1015.48 2830.19 965.84 2772.28 974.114 2758.49C982.388 2744.7 1132.69 2735.05 1132.69 2735.05C1132.69 2735.05 982.388 2726.77 974.114 2712.98C965.84 2699.19 1015.48 2641.28 1015.48 2641.28C1015.48 2641.28 956.188 2686.78 941.019 2679.89C927.23 2671.61 920.335 2546.13 918.956 2525.45Z" fill="#FDFBE4"/>
</svg>
