<svg width="320" height="422" viewBox="0 0 320 422" fill="none" xmlns="http://www.w3.org/2000/svg">
<path fill-rule="evenodd" clip-rule="evenodd" d="M213.956 0.446289C213.956 0.446289 207.061 146.615 193.272 154.888C178.103 161.783 117.43 116.278 117.43 116.278C117.43 116.278 168.451 174.194 160.177 187.983C150.524 201.773 0.219238 210.046 0.219238 210.046C0.219238 210.046 150.524 219.699 160.177 233.488C168.451 247.278 117.43 305.194 117.43 305.194C117.43 305.194 178.103 259.688 193.272 266.583C207.061 274.857 213.956 421.025 213.956 421.025C213.956 421.025 220.851 274.857 236.019 266.583C251.188 259.688 310.482 305.194 310.482 305.194C310.482 305.194 260.84 247.278 269.114 233.488C277.388 219.699 427.693 210.046 427.693 210.046C427.693 210.046 277.388 201.773 269.114 187.983C260.84 174.194 310.482 116.278 310.482 116.278C310.482 116.278 251.188 161.783 236.019 154.888C222.23 146.615 215.335 21.1305 213.956 0.446289Z" fill="#FDFBE4"/>
</svg>
