<svg preserveAspectRatio="none" width="100%" height="100%" viewBox="0 0 1025 2982" fill="none" xmlns="http://www.w3.org/2000/svg">
<rect x="0.5" y="409" width="1024" height="2573" fill="#D48C8D"/>
<path d="M-15.5 0L28.9275 63.3991C68.3788 119.755 108.492 176.787 161.452 220.698C214.412 264.608 282.756 294.447 351.044 286.853C432.717 277.743 503.321 217.473 585.477 214.923C633.723 213.434 680.714 232.509 720.965 259.151C761.216 285.792 795.898 319.793 831.544 352.402C844.86 364.558 858.672 376.742 875.269 383.799C886.104 388.402 897.779 390.69 909.468 392.068C948.539 396.518 988.1 391.052 1024.5 376.177V764H-11.0338L-15.5 0Z" fill="#D48C8D"/>
</svg>
