<svg width="126" height="196" viewBox="0 0 126 196" fill="none" xmlns="http://www.w3.org/2000/svg">
<path d="M110.357 88.8001C58.7697 108.575 49.7171 121.675 49.4979 176.983C49.4925 179.276 46.3208 179.856 45.4923 177.716C25.7378 126.06 12.6542 116.995 -42.583 116.77C-44.8727 116.764 -45.4523 113.588 -43.315 112.759C8.27223 92.9839 17.3248 79.8843 17.544 24.5758C17.5494 22.2832 20.7212 21.7031 21.5497 23.8432C41.3041 75.4989 54.3877 84.5644 109.625 84.7892C111.915 84.7948 112.494 87.9707 110.357 88.8001Z" fill="black"/>
<path d="M98.2866 82.4706C46.6973 102.247 37.6441 115.346 37.4231 170.653C37.4176 172.946 34.2458 173.526 33.4173 171.386C13.6639 119.732 0.580148 110.667 -54.6587 110.444C-56.9484 110.439 -57.528 107.263 -55.3906 106.434C-3.80123 86.6575 5.25202 73.5579 5.47294 18.2511C5.47843 15.9585 8.65026 15.3784 9.47875 17.5184C29.2322 69.1719 42.3159 78.2368 97.5548 78.4598C99.8445 78.4654 100.424 81.6412 98.2866 82.4706Z" fill="#F9346C"/>
<path d="M98.2866 82.4706C46.6973 102.247 37.644 115.346 37.4231 170.653C37.4176 172.946 34.2458 173.526 33.4173 171.386C13.6639 119.732 0.580149 110.667 -54.6587 110.444C-56.9484 110.439 -57.528 107.263 -55.3906 106.433C-3.80123 86.6575 5.25203 73.5579 5.47294 18.2511C5.47843 15.9585 8.65026 15.3784 9.47875 17.5184C29.2322 69.1719 42.3159 78.2368 97.5547 78.4598C99.8445 78.4654 100.424 81.6412 98.2866 82.4706V82.4706Z" stroke="black" stroke-width="2.35" stroke-linecap="round" stroke-linejoin="round"/>
</svg>
