<svg width="147" height="147" viewBox="0 0 147 147" fill="none" xmlns="http://www.w3.org/2000/svg">
<path d="M94.3181 112.557L70.0919 88.1433C69.8299 87.8774 69.4322 87.8061 69.0694 87.9447L36.0097 101.232C35.0425 101.617 34.2802 100.436 35.0315 99.7161L60.6623 74.9166C60.9413 74.6483 61.0279 74.2531 60.9005 73.8998L48.612 41.7293C48.2559 40.7882 49.4813 39.993 50.1844 40.7089L74.4106 65.1228C74.6726 65.3887 75.0704 65.46 75.4332 65.3215L108.493 52.0341C109.46 51.6487 110.222 52.8299 109.471 53.55L83.8403 78.3495C83.5612 78.6178 83.4746 79.013 83.6021 79.3663L95.8862 111.53C96.2422 112.471 95.0169 113.266 94.3137 112.55L94.3181 112.557Z" fill="black"/>
<path d="M96.5837 105.495L72.3576 81.0808C72.0955 80.8149 71.6978 80.7436 71.335 80.8822L38.2753 94.1695C37.3081 94.555 36.5458 93.3737 37.2971 92.6536L62.9279 67.8541C63.207 67.5858 63.2936 67.1906 63.1661 66.8374L50.882 34.6737C50.5259 33.7325 51.7513 32.9373 52.4545 33.6532L76.6806 58.0672C76.9427 58.3331 77.3404 58.4043 77.7032 58.2658L110.763 44.9785C111.73 44.593 112.492 45.7742 111.741 46.4943L86.1103 71.2938C85.8312 71.5621 85.7446 71.9574 85.8721 72.3106L98.1562 104.474C98.5123 105.415 97.2869 106.211 96.5837 105.495Z" fill="white" stroke="black" stroke-width="2.3" stroke-linecap="round" stroke-linejoin="round"/>
</svg>
