<svg width="131" height="153" viewBox="0 0 131 153" fill="none" xmlns="http://www.w3.org/2000/svg">
<path d="M62.2203 125.451L44.2551 91.2245C44.0614 90.8523 43.6577 90.6444 43.2221 90.6735L3.31898 94.0325C2.15263 94.1273 1.72373 92.6065 2.7686 92.0811L38.4919 73.9016C38.8803 73.7056 39.1039 73.3095 39.0836 72.888L36.504 34.2698C36.4322 33.1412 38.0112 32.6915 38.5302 33.6927L56.4954 67.9196C56.6891 68.2917 57.0929 68.4996 57.5284 68.4705L97.4316 65.1115C98.5979 65.0167 99.0268 66.5375 97.9819 67.063L62.2586 85.2424C61.8702 85.4385 61.6467 85.8345 61.667 86.2561L64.2441 124.865C64.3159 125.994 62.7369 126.444 62.2179 125.442L62.2203 125.451Z" fill="black"/>
<path d="M66.9864 118.612L49.0212 84.3851C48.8275 84.0129 48.4237 83.805 47.9882 83.8341L8.08506 87.1931C6.91871 87.2879 6.48981 85.7672 7.53468 85.2417L43.258 67.0623C43.6464 66.8662 43.8699 66.4702 43.8496 66.0486L41.2726 27.4392C41.2008 26.3106 42.7797 25.8609 43.2988 26.8622L61.264 61.089C61.4577 61.4612 61.8614 61.669 62.297 61.64L102.2 58.2809C103.366 58.1862 103.795 59.7069 102.751 60.2324L67.0272 78.4118C66.6388 78.6079 66.4152 79.0039 66.4355 79.4255L69.0126 118.035C69.0844 119.163 67.5055 119.613 66.9864 118.612Z" fill="white" stroke="black" stroke-width="2.3" stroke-linecap="round" stroke-linejoin="round"/>
</svg>
