<svg width="246" height="264" viewBox="0 0 246 264" fill="none" xmlns="http://www.w3.org/2000/svg">
<path d="M236.624 121.3C169.196 147.492 157.229 165.185 156.165 240.406C156.126 243.524 151.989 244.269 150.941 241.347C125.954 170.822 109.051 158.314 37.1543 157.254C34.174 157.215 33.4643 152.888 36.258 151.789C103.685 125.597 115.653 107.904 116.716 32.6835C116.756 29.5654 120.892 28.8197 121.941 31.7418C146.927 102.267 163.83 114.775 235.727 115.835C238.708 115.874 239.417 120.201 236.624 121.3Z" fill="black"/>
<path d="M220.588 112.449C153.321 138.752 141.367 156.496 140.219 231.893C140.176 235.018 136.05 235.769 135.008 232.841C110.174 162.169 93.3339 149.644 21.6421 148.636C18.6703 148.599 17.9676 144.262 20.7546 143.159C88.0211 116.856 99.9754 99.1126 101.123 23.7154C101.166 20.5899 105.292 19.8395 106.334 22.7676C131.168 93.4389 148.008 105.964 219.7 106.972C222.672 107.009 223.375 111.346 220.588 112.449Z" fill="#FF8B13"/>
<path d="M220.588 112.449C153.321 138.752 141.367 156.496 140.219 231.893C140.176 235.018 136.05 235.769 135.008 232.841C110.174 162.169 93.3339 149.644 21.6421 148.636C18.6703 148.599 17.9676 144.262 20.7546 143.159C88.0211 116.856 99.9754 99.1126 101.123 23.7154C101.166 20.5899 105.292 19.8395 106.334 22.7676C131.168 93.4389 148.008 105.964 219.7 106.972C222.672 107.009 223.375 111.346 220.588 112.449V112.449Z" stroke="black" stroke-width="2.35" stroke-linecap="round" stroke-linejoin="round"/>
</svg>
