<svg width="308" height="419" viewBox="0 0 308 419" fill="none" xmlns="http://www.w3.org/2000/svg">
<path d="M395.852 150.91C393.095 141.609 261.235 180.693 261.235 180.693L216.516 193.948L227.549 172.181C227.549 172.181 270.222 87.9959 262.056 83.2625C253.891 78.5291 211.218 162.714 211.218 162.714L200.185 184.481L186.163 137.176C186.163 137.176 144.819 -2.31173 136.026 0.294424C127.234 2.90057 168.578 142.388 168.578 142.388L182.6 189.694L161.487 177.455C161.487 177.455 79.8318 130.121 75.5645 138.539C71.2972 146.958 152.953 194.292 152.953 194.292L174.065 206.531L129.346 219.785C129.346 219.785 -2.51388 258.869 0.243012 268.17C2.9999 277.472 134.86 238.388 134.86 238.388L179.579 225.133L168.546 246.9C168.546 246.9 125.873 331.085 134.039 335.818C142.204 340.552 184.877 256.366 184.877 256.366L195.91 234.6L209.932 281.905C209.932 281.905 251.276 421.393 260.069 418.787C268.861 416.18 227.517 276.693 227.517 276.693L213.495 229.387L234.608 241.626C234.608 241.626 316.263 288.96 320.531 280.541C324.798 272.123 243.142 224.789 243.142 224.789L222.03 212.55L266.749 199.295C266.749 199.295 398.609 160.212 395.852 150.91Z" fill="black"/>
</svg>
