<svg width="174" height="259" viewBox="0 0 174 259" fill="none" xmlns="http://www.w3.org/2000/svg">
<path d="M169.063 157.875L66.0478 157.552C64.9296 157.545 63.9413 158.223 63.4741 159.262L22.3044 255.389C21.093 258.195 16.9704 257.329 17.0142 254.278L18.0074 149.711C18.0219 148.576 17.3608 147.577 16.3394 147.109L-78.0967 105.95C-80.8529 104.739 -79.9726 100.549 -76.9671 100.573L26.0482 100.896C27.1663 100.903 28.1546 100.226 28.6218 99.1858L69.7915 3.05892C71.003 0.253351 75.1255 1.11943 75.0817 4.1703L74.0886 108.738C74.074 109.873 74.7351 110.871 75.7565 111.339L170.193 152.498C172.949 153.709 172.068 157.899 169.063 157.875Z" fill="#0071C6" stroke="black" stroke-width="2.35" stroke-linecap="round" stroke-linejoin="round"/>
</svg>
