<svg width="538" height="666" viewBox="0 0 538 666" fill="none" xmlns="http://www.w3.org/2000/svg">
<path d="M661.184 414.674C663.968 403.543 471.6 355.612 471.6 355.612L406.361 339.356L434.9 324.852C434.9 324.852 545.278 268.753 538.178 258.624C531.077 248.495 420.7 304.593 420.7 304.593L392.16 319.098L406.323 262.487C406.323 262.487 448.085 95.5613 435.258 92.3651C422.431 89.169 380.669 256.095 380.669 256.095L366.506 312.706L348.148 286.516C348.148 286.516 277.146 185.224 266.108 190.834C255.071 196.444 326.072 297.736 326.072 297.736L344.43 323.925L279.191 307.67C279.191 307.67 86.8224 259.738 84.0377 270.869C81.2529 282 273.621 329.931 273.621 329.931L338.861 346.187L310.322 360.692C310.322 360.692 199.944 416.79 207.044 426.919C214.144 437.048 324.522 380.95 324.522 380.95L353.061 366.445L338.898 423.056C338.898 423.056 297.136 589.982 309.963 593.178C322.79 596.374 364.553 429.448 364.553 429.448L378.716 372.838L397.074 399.027C397.074 399.027 468.075 500.319 479.113 494.71C490.151 489.1 419.149 387.808 419.149 387.808L400.791 361.618L466.031 377.873C466.031 377.873 658.399 425.805 661.184 414.674Z" fill="black"/>
<path d="M643.451 395.004C646.236 383.873 453.868 335.942 453.868 335.942L388.628 319.686L417.168 305.182C417.168 305.182 527.545 249.083 520.445 238.954C513.345 228.825 402.967 284.923 402.967 284.923L374.428 299.428L388.591 242.817C388.591 242.817 430.353 75.8913 417.526 72.6952C404.699 69.499 362.937 236.425 362.937 236.425L348.774 293.036L330.415 266.846C330.415 266.846 259.414 165.554 248.376 171.164C237.338 176.774 308.34 278.066 308.34 278.066L326.698 304.255L261.459 288C261.459 288 69.0901 240.068 66.3054 251.199C63.5207 262.33 255.889 310.262 255.889 310.262L321.128 326.517L292.589 341.022C292.589 341.022 182.211 397.12 189.312 407.249C196.412 417.378 306.79 361.28 306.79 361.28L335.329 346.775L321.166 403.386C321.166 403.386 279.404 570.312 292.231 573.508C305.058 576.704 346.82 409.778 346.82 409.778L360.983 353.168L379.341 379.357C379.341 379.357 450.343 480.649 461.381 475.04C472.418 469.43 401.417 368.138 401.417 368.138L383.059 341.948L448.298 358.203C448.298 358.203 640.667 406.135 643.451 395.004Z" fill="#F9346C" stroke="black" stroke-width="2.35" stroke-linecap="round" stroke-linejoin="round"/>
</svg>
