<svg width="202" height="334" viewBox="0 0 202 334" fill="none" xmlns="http://www.w3.org/2000/svg">
<path d="M201.622 142.019C200.45 134.62 95.7485 151.209 95.7485 151.209L60.2404 156.836L70.8595 141.286C70.8595 141.286 111.93 81.1472 106.165 76.6975C100.4 72.2478 59.3295 132.387 59.3295 132.387L48.7104 147.936L42.747 110.3C42.747 110.3 25.163 -0.674935 18.1814 0.431293C11.1999 1.53752 28.7839 112.513 28.7839 112.513L34.7473 150.149L19.8415 138.644C19.8415 138.644 -37.8084 94.1469 -41.9154 100.161C-46.0224 106.175 11.6274 150.672 11.6274 150.672L26.5333 162.177L-8.97483 167.803C-8.97483 167.803 -113.676 184.393 -112.503 191.793C-111.331 199.193 -6.62979 182.603 -6.62979 182.603L28.8783 176.976L18.2592 192.526C18.2592 192.526 -22.811 252.665 -17.046 257.115C-11.2811 261.564 29.7892 201.425 29.7892 201.425L40.4083 185.876L46.3717 223.512C46.3717 223.512 63.9557 334.487 70.9373 333.381C77.9188 332.275 60.3348 221.299 60.3348 221.299L54.3714 183.663L69.2772 195.168C69.2772 195.168 126.927 239.665 131.034 233.651C135.141 227.637 77.4913 183.141 77.4913 183.141L62.5854 171.636L98.0935 166.009C98.0935 166.009 202.795 149.419 201.622 142.019Z" fill="black"/>
</svg>
