<svg width="1373" height="128" viewBox="0 0 1373 128" fill="none" xmlns="http://www.w3.org/2000/svg">
<path d="M262.782 95.9891L234.142 44.7891H256.702L280.862 92.3891L273.262 92.5491L295.902 44.7891H320.062L342.702 92.5491L335.102 92.3891L359.262 44.7891H381.502L353.182 95.9891H326.142L304.062 52.8691H311.902L289.822 95.9891H262.782ZM430.664 97.5891C419.038 97.5891 409.678 96.5757 402.584 94.5491C395.491 92.4691 390.318 89.4291 387.064 85.4291C383.864 81.3757 382.264 76.3624 382.264 70.3891C382.264 64.4157 383.864 59.4291 387.064 55.4291C390.318 51.3757 395.491 48.3357 402.584 46.3091C409.678 44.2291 419.038 43.1891 430.664 43.1891C442.291 43.1891 451.651 44.2291 458.744 46.3091C465.838 48.3357 470.984 51.3757 474.184 55.4291C477.438 59.4291 479.064 64.4157 479.064 70.3891C479.064 76.3624 477.438 81.3757 474.184 85.4291C470.984 89.4291 465.838 92.4691 458.744 94.5491C451.651 96.5757 442.291 97.5891 430.664 97.5891ZM430.664 82.3891C436.158 82.3891 440.904 82.0691 444.904 81.4291C448.904 80.7357 451.998 79.5357 454.184 77.8291C456.371 76.0691 457.464 73.5891 457.464 70.3891C457.464 67.1891 456.371 64.7357 454.184 63.0291C451.998 61.2691 448.904 60.0691 444.904 59.4291C440.904 58.7357 436.158 58.3891 430.664 58.3891C425.171 58.3891 420.344 58.7357 416.184 59.4291C412.078 60.0691 408.851 61.2691 406.504 63.0291C404.211 64.7357 403.064 67.1891 403.064 70.3891C403.064 73.5891 404.211 76.0691 406.504 77.8291C408.851 79.5357 412.078 80.7357 416.184 81.4291C420.344 82.0691 425.171 82.3891 430.664 82.3891ZM489.471 95.9891V44.7891H551.311C556.164 44.7891 560.511 45.3491 564.351 46.4691C568.244 47.5357 571.311 49.3491 573.551 51.9091C575.844 54.4691 576.991 57.9624 576.991 62.3891C576.991 65.3224 576.457 67.7491 575.391 69.6691C574.324 71.5891 572.857 73.0824 570.991 74.1491C569.124 75.2157 566.991 75.9891 564.591 76.4691C562.191 76.9491 559.684 77.2424 557.071 77.3491L551.231 76.2291C557.577 76.2824 562.457 76.5491 565.871 77.0291C569.337 77.5091 571.737 78.3891 573.071 79.6691C574.457 80.8957 575.151 82.6824 575.151 85.0291V95.9891H555.151V87.4291C555.151 85.8291 554.831 84.6291 554.191 83.8291C553.604 82.9757 552.271 82.3891 550.191 82.0691C548.164 81.7491 545.017 81.5891 540.751 81.5891H509.471V95.9891H489.471ZM509.471 68.2291H551.311C552.911 68.2291 554.244 67.9624 555.311 67.4291C556.431 66.8957 556.991 65.8824 556.991 64.3891C556.991 63.0024 556.431 62.0691 555.311 61.5891C554.244 61.0557 552.911 60.7891 551.311 60.7891H509.471V68.2291ZM630.704 70.7891V66.3091L676.864 95.9891H647.104L607.904 68.7891L644.064 44.7891H672.544L630.704 70.7891ZM588.064 44.7891H608.064V95.9891H588.064V44.7891ZM682.452 77.1891H704.292C704.665 78.3091 705.759 79.2691 707.572 80.0691C709.385 80.8157 711.812 81.4024 714.852 81.8291C717.945 82.2024 721.519 82.3891 725.572 82.3891C729.572 82.3891 732.719 82.2824 735.012 82.0691C737.359 81.8024 739.012 81.3757 739.972 80.7891C740.932 80.1491 741.412 79.2957 741.412 78.2291C741.412 77.2157 740.639 76.4424 739.092 75.9091C737.545 75.3224 734.799 74.9224 730.852 74.7091C726.905 74.4957 721.359 74.3891 714.212 74.3891C708.879 74.3891 704.265 74.1491 700.372 73.6691C696.532 73.1357 693.359 72.3357 690.852 71.2691C688.399 70.1491 686.585 68.7624 685.412 67.1091C684.239 65.4024 683.652 63.3757 683.652 61.0291C683.652 56.9757 685.012 53.6424 687.732 51.0291C690.505 48.3624 694.665 46.3891 700.212 45.1091C705.812 43.7757 712.799 43.1091 721.172 43.1091C733.439 43.1091 742.799 44.8957 749.252 48.4691C755.759 51.9891 759.012 57.0824 759.012 63.7491H738.292C738.025 61.9891 736.372 60.6557 733.332 59.7491C730.292 58.7891 725.972 58.3091 720.372 58.3091C714.825 58.3091 710.692 58.6291 707.972 59.2691C705.305 59.9091 703.972 61.0024 703.972 62.5491C703.972 63.3491 704.345 63.9891 705.092 64.4691C705.839 64.9491 707.119 65.3491 708.932 65.6691C710.799 65.9357 713.412 66.1224 716.772 66.2291C720.132 66.3357 724.399 66.3891 729.572 66.3891C735.279 66.3891 740.132 66.6824 744.132 67.2691C748.132 67.8024 751.359 68.6291 753.812 69.7491C756.319 70.8691 758.132 72.3091 759.252 74.0691C760.372 75.7757 760.932 77.8024 760.932 80.1491C760.932 84.2024 759.652 87.5091 757.092 90.0691C754.532 92.6291 750.479 94.5224 744.932 95.7491C739.385 96.9757 732.132 97.5891 723.172 97.5891C718.105 97.5891 713.439 97.2957 709.172 96.7091C704.959 96.1224 701.199 95.2691 697.892 94.1491C694.585 92.9757 691.785 91.5624 689.492 89.9091C687.199 88.2024 685.439 86.3091 684.212 84.2291C683.039 82.0957 682.452 79.7491 682.452 77.1891ZM786.825 62.4691H843.145V77.6691H786.825V62.4691ZM840.905 44.7891H860.905V95.9891H840.905V44.7891ZM769.705 44.7891H789.705V95.9891H769.705V44.7891ZM919.727 97.5891C908.1 97.5891 898.74 96.5757 891.647 94.5491C884.554 92.4691 879.38 89.4291 876.127 85.4291C872.927 81.3757 871.327 76.3624 871.327 70.3891C871.327 64.4157 872.927 59.4291 876.127 55.4291C879.38 51.3757 884.554 48.3357 891.647 46.3091C898.74 44.2291 908.1 43.1891 919.727 43.1891C931.354 43.1891 940.714 44.2291 947.807 46.3091C954.9 48.3357 960.047 51.3757 963.247 55.4291C966.5 59.4291 968.127 64.4157 968.127 70.3891C968.127 76.3624 966.5 81.3757 963.247 85.4291C960.047 89.4291 954.9 92.4691 947.807 94.5491C940.714 96.5757 931.354 97.5891 919.727 97.5891ZM919.727 82.3891C925.22 82.3891 929.967 82.0691 933.967 81.4291C937.967 80.7357 941.06 79.5357 943.247 77.8291C945.434 76.0691 946.527 73.5891 946.527 70.3891C946.527 67.1891 945.434 64.7357 943.247 63.0291C941.06 61.2691 937.967 60.0691 933.967 59.4291C929.967 58.7357 925.22 58.3891 919.727 58.3891C914.234 58.3891 909.407 58.7357 905.247 59.4291C901.14 60.0691 897.914 61.2691 895.567 63.0291C893.274 64.7357 892.127 67.1891 892.127 70.3891C892.127 73.5891 893.274 76.0691 895.567 77.8291C897.914 79.5357 901.14 80.7357 905.247 81.4291C909.407 82.0691 914.234 82.3891 919.727 82.3891ZM997.093 82.7891V68.7891H1037.01C1038.61 68.7891 1039.95 68.5491 1041.01 68.0691C1042.13 67.5357 1042.69 66.4424 1042.69 64.7891C1042.69 63.0824 1042.13 61.9891 1041.01 61.5091C1039.95 61.0291 1038.61 60.7891 1037.01 60.7891H998.373V95.9891H978.373V44.7891H1033.89C1037.89 44.7891 1041.63 45.0824 1045.09 45.6691C1048.61 46.2024 1051.68 47.1891 1054.29 48.6291C1056.91 50.0691 1058.96 52.0957 1060.45 54.7091C1061.95 57.3224 1062.69 60.6824 1062.69 64.7891C1062.69 68.8957 1061.95 72.1491 1060.45 74.5491C1058.96 76.9491 1056.91 78.7357 1054.29 79.9091C1051.68 81.0824 1048.61 81.8557 1045.09 82.2291C1041.63 82.6024 1037.89 82.7891 1033.89 82.7891H997.093ZM1069.87 77.1891H1091.71C1092.09 78.3091 1093.18 79.2691 1094.99 80.0691C1096.81 80.8157 1099.23 81.4024 1102.27 81.8291C1105.37 82.2024 1108.94 82.3891 1112.99 82.3891C1116.99 82.3891 1120.14 82.2824 1122.43 82.0691C1124.78 81.8024 1126.43 81.3757 1127.39 80.7891C1128.35 80.1491 1128.83 79.2957 1128.83 78.2291C1128.83 77.2157 1128.06 76.4424 1126.51 75.9091C1124.97 75.3224 1122.22 74.9224 1118.27 74.7091C1114.33 74.4957 1108.78 74.3891 1101.63 74.3891C1096.3 74.3891 1091.69 74.1491 1087.79 73.6691C1083.95 73.1357 1080.78 72.3357 1078.27 71.2691C1075.82 70.1491 1074.01 68.7624 1072.83 67.1091C1071.66 65.4024 1071.07 63.3757 1071.07 61.0291C1071.07 56.9757 1072.43 53.6424 1075.15 51.0291C1077.93 48.3624 1082.09 46.3891 1087.63 45.1091C1093.23 43.7757 1100.22 43.1091 1108.59 43.1091C1120.86 43.1091 1130.22 44.8957 1136.67 48.4691C1143.18 51.9891 1146.43 57.0824 1146.43 63.7491H1125.71C1125.45 61.9891 1123.79 60.6557 1120.75 59.7491C1117.71 58.7891 1113.39 58.3091 1107.79 58.3091C1102.25 58.3091 1098.11 58.6291 1095.39 59.2691C1092.73 59.9091 1091.39 61.0024 1091.39 62.5491C1091.39 63.3491 1091.77 63.9891 1092.51 64.4691C1093.26 64.9491 1094.54 65.3491 1096.35 65.6691C1098.22 65.9357 1100.83 66.1224 1104.19 66.2291C1107.55 66.3357 1111.82 66.3891 1116.99 66.3891C1122.7 66.3891 1127.55 66.6824 1131.55 67.2691C1135.55 67.8024 1138.78 68.6291 1141.23 69.7491C1143.74 70.8691 1145.55 72.3091 1146.67 74.0691C1147.79 75.7757 1148.35 77.8024 1148.35 80.1491C1148.35 84.2024 1147.07 87.5091 1144.51 90.0691C1141.95 92.6291 1137.9 94.5224 1132.35 95.7491C1126.81 96.9757 1119.55 97.5891 1110.59 97.5891C1105.53 97.5891 1100.86 97.2957 1096.59 96.7091C1092.38 96.1224 1088.62 95.2691 1085.31 94.1491C1082.01 92.9757 1079.21 91.5624 1076.91 89.9091C1074.62 88.2024 1072.86 86.3091 1071.63 84.2291C1070.46 82.0957 1069.87 79.7491 1069.87 77.1891Z" fill="black"/>
<path d="M262.782 95.9891L260.164 97.4536L261.023 98.9891H262.782V95.9891ZM234.142 44.7891V41.7891H229.027L231.524 46.2536L234.142 44.7891ZM256.702 44.7891L259.378 43.4313L258.544 41.7891H256.702V44.7891ZM280.862 92.3891L280.926 95.3884L285.698 95.2879L283.538 91.0313L280.862 92.3891ZM273.262 92.5491L270.552 91.264L268.472 95.6506L273.326 95.5484L273.262 92.5491ZM295.902 44.7891V41.7891H294.005L293.192 43.504L295.902 44.7891ZM320.062 44.7891L322.773 43.504L321.96 41.7891H320.062V44.7891ZM342.702 92.5491L342.639 95.5484L347.493 95.6506L345.413 91.264L342.702 92.5491ZM335.102 92.3891L332.427 91.0313L330.267 95.2879L335.039 95.3884L335.102 92.3891ZM359.262 44.7891V41.7891H357.421L356.587 43.4313L359.262 44.7891ZM381.503 44.7891L384.128 46.2411L386.59 41.7891H381.503V44.7891ZM353.182 95.9891V98.9891H354.951L355.808 97.4411L353.182 95.9891ZM326.142 95.9891L323.472 97.3564L324.308 98.9891H326.142V95.9891ZM304.062 52.8691V49.8691H299.156L301.392 54.2364L304.062 52.8691ZM311.902 52.8691L314.573 54.2364L316.809 49.8691H311.902V52.8691ZM289.822 95.9891V98.9891H291.657L292.493 97.3564L289.822 95.9891ZM265.401 94.5245L236.761 43.3245L231.524 46.2536L260.164 97.4536L265.401 94.5245ZM234.142 47.7891H256.702V41.7891H234.142V47.7891ZM254.027 46.1469L278.187 93.7469L283.538 91.0313L259.378 43.4313L254.027 46.1469ZM280.799 89.3897L273.199 89.5497L273.326 95.5484L280.926 95.3884L280.799 89.3897ZM275.973 93.8341L298.613 46.0741L293.192 43.504L270.552 91.264L275.973 93.8341ZM295.902 47.7891H320.062V41.7891H295.902V47.7891ZM317.352 46.0741L339.992 93.8341L345.413 91.264L322.773 43.504L317.352 46.0741ZM342.766 89.5497L335.166 89.3897L335.039 95.3884L342.639 95.5484L342.766 89.5497ZM337.778 93.7469L361.938 46.1469L356.587 43.4313L332.427 91.0313L337.778 93.7469ZM359.262 47.7891H381.503V41.7891H359.262V47.7891ZM378.877 43.337L350.557 94.537L355.808 97.4411L384.128 46.2411L378.877 43.337ZM353.182 92.9891H326.142V98.9891H353.182V92.9891ZM328.813 94.6217L306.733 51.5017L301.392 54.2364L323.472 97.3564L328.813 94.6217ZM304.062 55.8691H311.902V49.8691H304.062V55.8691ZM309.232 51.5017L287.152 94.6217L292.493 97.3564L314.573 54.2364L309.232 51.5017ZM289.822 92.9891H262.782V98.9891H289.822V92.9891ZM402.584 94.5491L401.74 97.4279L401.75 97.4308L401.76 97.4336L402.584 94.5491ZM387.064 85.4291L384.71 87.288L384.723 87.3051L384.737 87.322L387.064 85.4291ZM387.064 55.4291L384.725 53.5512L384.722 53.555L387.064 55.4291ZM402.584 46.3091L403.409 49.1936L403.419 49.1908L403.428 49.1879L402.584 46.3091ZM458.744 46.3091L457.9 49.1879L457.91 49.1908L457.92 49.1936L458.744 46.3091ZM474.184 55.4291L471.83 57.288L471.843 57.3051L471.857 57.322L474.184 55.4291ZM474.184 85.4291L471.845 83.5512L471.842 83.555L474.184 85.4291ZM458.744 94.5491L459.569 97.4336L459.579 97.4308L459.589 97.4279L458.744 94.5491ZM444.904 81.4291L445.378 84.3914L445.398 84.3883L445.417 84.385L444.904 81.4291ZM454.184 77.8291L456.03 80.194L456.048 80.1802L456.065 80.1661L454.184 77.8291ZM454.184 63.0291L452.303 65.3661L452.321 65.3802L452.339 65.394L454.184 63.0291ZM444.904 59.4291L444.392 62.385L444.411 62.3883L444.43 62.3914L444.904 59.4291ZM416.184 59.4291L416.646 62.3933L416.662 62.3909L416.678 62.3883L416.184 59.4291ZM406.504 63.0291L408.295 65.4358L408.304 65.4291L406.504 63.0291ZM406.504 77.8291L404.678 80.209L404.709 80.2325L404.74 80.2553L406.504 77.8291ZM416.184 81.4291L415.685 84.3872L415.707 84.3909L415.728 84.3942L416.184 81.4291ZM430.664 94.5891C419.176 94.5891 410.126 93.5837 403.409 91.6645L401.76 97.4336C409.23 99.5677 418.9 100.589 430.664 100.589V94.5891ZM403.428 91.6703C396.676 89.6902 392.129 86.9012 389.392 83.5361L384.737 87.322C388.507 91.9569 394.306 95.248 401.74 97.4279L403.428 91.6703ZM389.419 83.5701C386.701 80.127 385.264 75.7985 385.264 70.3891H379.264C379.264 76.9264 381.028 82.6245 384.71 87.288L389.419 83.5701ZM385.264 70.3891C385.264 64.9786 386.701 60.6856 389.407 57.3032L384.722 53.555C381.028 58.1725 379.264 63.8529 379.264 70.3891H385.264ZM389.404 57.3069C392.136 53.9026 396.671 51.1187 403.409 49.1936L401.76 43.4245C394.311 45.5528 388.499 48.8489 384.725 53.5512L389.404 57.3069ZM403.428 49.1879C410.138 47.2205 419.18 46.1891 430.664 46.1891V40.1891C418.895 40.1891 409.218 41.2376 401.74 43.4303L403.428 49.1879ZM430.664 46.1891C442.149 46.1891 451.191 47.2205 457.9 49.1879L459.589 43.4303C452.111 41.2376 442.433 40.1891 430.664 40.1891V46.1891ZM457.92 49.1936C464.658 51.1188 469.155 53.8996 471.83 57.288L476.539 53.5701C472.814 48.8519 467.017 45.5526 459.569 43.4245L457.92 49.1936ZM471.857 57.322C474.608 60.7043 476.064 64.9905 476.064 70.3891H482.064C482.064 63.841 480.267 58.1538 476.512 53.5361L471.857 57.322ZM476.064 70.3891C476.064 75.7867 474.608 80.1084 471.845 83.5512L476.524 87.3069C480.267 82.6431 482.064 76.9381 482.064 70.3891H476.064ZM471.842 83.555C469.162 86.9043 464.653 89.69 457.9 91.6703L459.589 97.4279C467.022 95.2481 472.806 91.9539 476.527 87.3032L471.842 83.555ZM457.92 91.6645C451.203 93.5837 442.153 94.5891 430.664 94.5891V100.589C442.429 100.589 452.099 99.5677 459.569 97.4336L457.92 91.6645ZM430.664 85.3891C436.265 85.3891 441.178 85.0635 445.378 84.3914L444.43 78.4668C440.631 79.0746 436.051 79.3891 430.664 79.3891V85.3891ZM445.417 84.385C449.694 83.6437 453.316 82.3126 456.03 80.194L452.339 75.4641C450.68 76.7588 448.115 77.8278 444.392 78.4732L445.417 84.385ZM456.065 80.1661C459.064 77.7524 460.464 74.3539 460.464 70.3891H454.464C454.464 72.8242 453.678 74.3857 452.303 75.492L456.065 80.1661ZM460.464 70.3891C460.464 66.4255 459.063 63.0312 456.03 60.6641L452.339 65.394C453.679 66.4403 454.464 67.9527 454.464 70.3891H460.464ZM456.065 60.692C453.331 58.4912 449.679 57.1549 445.378 56.4668L444.43 62.3914C448.129 62.9832 450.664 64.0469 452.303 65.3661L456.065 60.692ZM445.417 56.4731C441.2 55.7423 436.274 55.3891 430.664 55.3891V61.3891C436.042 61.3891 440.608 61.7292 444.392 62.385L445.417 56.4731ZM430.664 55.3891C425.052 55.3891 420.054 55.7427 415.691 56.4699L416.678 62.3883C420.634 61.7288 425.29 61.3891 430.664 61.3891V55.3891ZM415.722 56.4649C411.32 57.1509 407.574 58.4771 404.704 60.6291L408.304 65.4291C410.128 64.061 412.835 62.9873 416.646 62.3933L415.722 56.4649ZM404.713 60.6224C401.561 62.9686 400.064 66.3711 400.064 70.3891H406.064C406.064 68.0071 406.861 66.5029 408.295 65.4358L404.713 60.6224ZM400.064 70.3891C400.064 74.4072 401.558 77.815 404.678 80.209L408.331 75.4491C406.864 74.3231 406.064 72.7709 406.064 70.3891H400.064ZM404.74 80.2553C407.588 82.327 411.306 83.648 415.685 84.3872L416.684 78.4709C412.849 77.8235 410.114 76.7445 408.269 75.4029L404.74 80.2553ZM415.728 84.3942C420.077 85.0632 425.062 85.3891 430.664 85.3891V79.3891C425.28 79.3891 420.612 79.075 416.641 78.464L415.728 84.3942ZM489.471 95.9891H486.471V98.9891H489.471V95.9891ZM489.471 44.7891V41.7891H486.471V44.7891H489.471ZM564.351 46.4691L563.511 49.3491L563.534 49.356L563.558 49.3624L564.351 46.4691ZM573.551 51.9091L571.293 53.8846L571.304 53.8978L571.316 53.9108L573.551 51.9091ZM575.391 69.6691L572.768 68.2121V68.2121L575.391 69.6691ZM570.991 74.1491L572.479 76.7538V76.7538L570.991 74.1491ZM564.591 76.4691L565.179 79.4108L564.591 76.4691ZM557.071 77.3491L556.506 80.2954L556.846 80.3607L557.193 80.3466L557.071 77.3491ZM551.231 76.2291L551.256 73.2292L550.666 79.1754L551.231 76.2291ZM565.871 77.0291L565.453 79.9998L565.459 80.0007L565.871 77.0291ZM573.071 79.6691L570.993 81.8332L571.037 81.8756L571.083 81.9161L573.071 79.6691ZM575.151 95.9891V98.9891H578.151V95.9891H575.151ZM555.151 95.9891H552.151V98.9891H555.151V95.9891ZM554.191 83.8291L551.719 85.5287L551.78 85.6183L551.848 85.7032L554.191 83.8291ZM550.191 82.0691L549.723 85.0324L549.734 85.0342L550.191 82.0691ZM509.471 81.5891V78.5891H506.471V81.5891H509.471ZM509.471 95.9891V98.9891H512.471V95.9891H509.471ZM509.471 68.2291H506.471V71.2291H509.471V68.2291ZM555.311 67.4291L554.021 64.7205L553.995 64.7329L553.969 64.7458L555.311 67.4291ZM555.311 61.5891L553.969 64.2724L554.048 64.3118L554.129 64.3465L555.311 61.5891ZM509.471 60.7891V57.7891H506.471V60.7891H509.471ZM492.471 95.9891V44.7891H486.471V95.9891H492.471ZM489.471 47.7891H551.311V41.7891H489.471V47.7891ZM551.311 47.7891C555.938 47.7891 559.994 48.3235 563.511 49.3491L565.191 43.5891C561.027 42.3746 556.39 41.7891 551.311 41.7891V47.7891ZM563.558 49.3624C566.991 50.3031 569.508 51.845 571.293 53.8846L575.808 49.9336C573.113 46.8532 569.497 44.7684 565.143 43.5757L563.558 49.3624ZM571.316 53.9108C572.988 55.7769 573.991 58.4823 573.991 62.3891H579.991C579.991 57.4425 578.7 53.1613 575.785 49.9073L571.316 53.9108ZM573.991 62.3891C573.991 64.9773 573.518 66.8625 572.768 68.2121L578.013 71.126C579.397 68.6356 579.991 65.6675 579.991 62.3891H573.991ZM572.768 68.2121C571.962 69.6641 570.882 70.7557 569.502 71.5443L572.479 76.7538C574.832 75.4092 576.686 73.5141 578.013 71.126L572.768 68.2121ZM569.502 71.5443C567.951 72.4306 566.129 73.102 564.002 73.5273L565.179 79.4108C567.852 78.8762 570.297 78.0009 572.479 76.7538L569.502 71.5443ZM564.002 73.5273C561.766 73.9746 559.416 74.2509 556.948 74.3516L557.193 80.3466C559.952 80.234 562.615 79.9236 565.179 79.4108L564.002 73.5273ZM557.636 74.4028L551.796 73.2828L550.666 79.1754L556.506 80.2954L557.636 74.4028ZM551.205 79.229C557.51 79.282 562.235 79.5474 565.453 79.9998L566.288 74.0583C562.679 73.5508 557.644 73.2829 551.256 73.2292L551.205 79.229ZM565.459 80.0007C568.778 80.4603 570.372 81.2369 570.993 81.8332L575.148 77.5049C573.103 75.5412 569.896 74.5578 566.282 74.0574L565.459 80.0007ZM571.083 81.9161C571.662 82.4281 572.151 83.2952 572.151 85.0291H578.151C578.151 82.0696 577.253 79.3634 575.058 77.4221L571.083 81.9161ZM572.151 85.0291V95.9891H578.151V85.0291H572.151ZM575.151 92.9891H555.151V98.9891H575.151V92.9891ZM558.151 95.9891V87.4291H552.151V95.9891H558.151ZM558.151 87.4291C558.151 85.5086 557.78 83.513 556.533 81.955L551.848 85.7032C551.882 85.7451 552.151 86.1496 552.151 87.4291H558.151ZM556.663 82.1295C555.309 80.1602 552.812 79.437 550.647 79.104L549.734 85.0342C550.619 85.1703 551.196 85.3427 551.542 85.495C551.897 85.651 551.845 85.712 551.719 85.5287L556.663 82.1295ZM550.659 79.1058C548.387 78.7472 545.044 78.5891 540.751 78.5891V84.5891C544.99 84.5891 547.941 84.751 549.723 85.0324L550.659 79.1058ZM540.751 78.5891H509.471V84.5891H540.751V78.5891ZM506.471 81.5891V95.9891H512.471V81.5891H506.471ZM509.471 92.9891H489.471V98.9891H509.471V92.9891ZM509.471 71.2291H551.311V65.2291H509.471V71.2291ZM551.311 71.2291C553.225 71.2291 555.052 70.9126 556.652 70.1124L553.969 64.7458C553.436 65.0122 552.597 65.2291 551.311 65.2291V71.2291ZM556.6 70.1377C557.683 69.622 558.591 68.8152 559.196 67.7201C559.783 66.6587 559.991 65.5 559.991 64.3891H553.991C553.991 64.7715 553.918 64.8661 553.945 64.818C553.959 64.7931 553.983 64.7602 554.014 64.732C554.043 64.7052 554.053 64.7051 554.021 64.7205L556.6 70.1377ZM559.991 64.3891C559.991 63.2988 559.77 62.1501 559.143 61.1056C558.5 60.0343 557.56 59.289 556.492 58.8316L554.129 64.3465C554.167 64.3629 554.153 64.3626 554.114 64.3298C554.095 64.3139 554.074 64.2933 554.053 64.2681C554.031 64.2429 554.013 64.2171 553.998 64.1926C553.967 64.1412 553.964 64.1154 553.969 64.138C553.976 64.1639 553.991 64.2423 553.991 64.3891H559.991ZM556.652 58.9058C555.052 58.1055 553.225 57.7891 551.311 57.7891V63.7891C552.597 63.7891 553.436 64.006 553.969 64.2724L556.652 58.9058ZM551.311 57.7891H509.471V63.7891H551.311V57.7891ZM506.471 60.7891V68.2291H512.471V60.7891H506.471ZM630.704 70.7891H627.704V76.1854L632.288 73.3372L630.704 70.7891ZM630.704 66.3091L632.327 63.7857L627.704 60.8135V66.3091H630.704ZM676.864 95.9891V98.9891H687.077L678.487 93.4657L676.864 95.9891ZM647.104 95.9891L645.394 98.4538L646.165 98.9891H647.104V95.9891ZM607.904 68.7891L606.245 66.2895L602.562 68.7339L606.194 71.2538L607.904 68.7891ZM644.064 44.7891V41.7891H643.159L642.405 42.2895L644.064 44.7891ZM672.544 44.7891L674.128 47.3372L683.056 41.7891H672.544V44.7891ZM588.064 44.7891V41.7891H585.064V44.7891H588.064ZM608.064 44.7891H611.064V41.7891H608.064V44.7891ZM608.064 95.9891V98.9891H611.064V95.9891H608.064ZM588.064 95.9891H585.064V98.9891H588.064V95.9891ZM633.704 70.7891V66.3091H627.704V70.7891H633.704ZM629.082 68.8325L675.242 98.5125L678.487 93.4657L632.327 63.7857L629.082 68.8325ZM676.864 92.9891H647.104V98.9891H676.864V92.9891ZM648.815 93.5243L609.615 66.3243L606.194 71.2538L645.394 98.4538L648.815 93.5243ZM609.563 71.2886L645.723 47.2886L642.405 42.2895L606.245 66.2895L609.563 71.2886ZM644.064 47.7891H672.544V41.7891H644.064V47.7891ZM670.961 42.241L629.121 68.241L632.288 73.3372L674.128 47.3372L670.961 42.241ZM588.064 47.7891H608.064V41.7891H588.064V47.7891ZM605.064 44.7891V95.9891H611.064V44.7891H605.064ZM608.064 92.9891H588.064V98.9891H608.064V92.9891ZM591.064 95.9891V44.7891H585.064V95.9891H591.064ZM682.452 77.1891V74.1891H679.452V77.1891H682.452ZM704.292 77.1891L707.138 76.2404L706.454 74.1891H704.292V77.1891ZM707.572 80.0691L706.361 82.8138L706.395 82.8289L706.43 82.8431L707.572 80.0691ZM714.852 81.8291L714.435 84.8L714.464 84.804L714.492 84.8075L714.852 81.8291ZM735.012 82.0691L735.29 85.0562L735.32 85.0533L735.351 85.0499L735.012 82.0691ZM739.972 80.7891L741.536 83.3489L741.587 83.3181L741.636 83.2852L739.972 80.7891ZM739.092 75.9091L738.028 78.7141L738.071 78.7303L738.114 78.7452L739.092 75.9091ZM730.852 74.7091L730.69 77.7047L730.852 74.7091ZM700.372 73.6691L699.959 76.6405L699.982 76.6437L700.005 76.6465L700.372 73.6691ZM690.852 71.2691L689.606 73.9981L689.641 74.0143L689.677 74.0295L690.852 71.2691ZM685.412 67.1091L682.94 68.8087L682.952 68.8271L682.965 68.8453L685.412 67.1091ZM687.732 51.0291L689.81 53.1924L689.811 53.1916L687.732 51.0291ZM700.212 45.1091L700.886 48.0322L700.897 48.0299L700.907 48.0275L700.212 45.1091ZM749.252 48.4691L747.799 51.0936L747.811 51.1007L747.824 51.1077L749.252 48.4691ZM759.012 63.7491V66.7491H762.012V63.7491H759.012ZM738.292 63.7491L735.326 64.1985L735.712 66.7491H738.292V63.7491ZM733.332 59.7491L732.428 62.6098L732.451 62.6171L732.474 62.6239L733.332 59.7491ZM707.972 59.2691L707.285 56.3488L707.272 56.3519L707.972 59.2691ZM708.932 65.6691L708.411 68.6234L708.459 68.632L708.508 68.6389L708.932 65.6691ZM744.132 67.2691L743.697 70.2373L743.716 70.2402L743.735 70.2428L744.132 67.2691ZM753.812 69.7491L752.566 72.4781L752.577 72.4832L752.588 72.4881L753.812 69.7491ZM759.252 74.0691L756.721 75.6797L756.732 75.6975L756.744 75.715L759.252 74.0691ZM757.092 90.0691L759.213 92.1904V92.1904L757.092 90.0691ZM744.932 95.7491L745.58 98.6783L744.932 95.7491ZM709.172 96.7091L708.758 99.6804L708.763 99.6811L709.172 96.7091ZM697.892 94.1491L696.889 96.9764L696.909 96.9836L696.929 96.9905L697.892 94.1491ZM689.492 89.9091L687.701 92.3158L687.719 92.3293L687.737 92.3426L689.492 89.9091ZM684.212 84.2291L681.583 85.6748L681.605 85.7143L681.628 85.753L684.212 84.2291ZM682.452 80.1891H704.292V74.1891H682.452V80.1891ZM701.446 78.1378C702.221 80.4644 704.276 81.8941 706.361 82.8138L708.783 77.3243C708.062 77.0063 707.622 76.715 707.371 76.4948C707.132 76.2845 707.122 76.1911 707.138 76.2404L701.446 78.1378ZM706.43 82.8431C708.568 83.7235 711.269 84.3556 714.435 84.8L715.269 78.8582C712.355 78.4492 710.203 77.908 708.714 77.295L706.43 82.8431ZM714.492 84.8075C717.734 85.1987 721.432 85.3891 725.572 85.3891V79.3891C721.605 79.3891 718.156 79.2061 715.211 78.8507L714.492 84.8075ZM725.572 85.3891C729.608 85.3891 732.861 85.2821 735.29 85.0562L734.734 79.082C732.576 79.2827 729.536 79.3891 725.572 79.3891V85.3891ZM735.351 85.0499C737.757 84.7765 739.978 84.301 741.536 83.3489L738.408 78.2292C738.045 78.4505 736.96 78.8284 734.673 79.0883L735.351 85.0499ZM741.636 83.2852C743.35 82.1427 744.412 80.3922 744.412 78.2291H738.412C738.412 78.2694 738.408 78.2771 738.411 78.2615C738.416 78.2445 738.424 78.2209 738.437 78.1983C738.449 78.1764 738.456 78.1728 738.442 78.1867C738.428 78.2018 738.388 78.2394 738.308 78.2929L741.636 83.2852ZM744.412 78.2291C744.412 75.2187 741.969 73.728 740.07 73.073L738.114 78.7452C738.367 78.8323 738.533 78.9109 738.635 78.968C738.736 79.0253 738.747 79.0465 738.711 79.0104C738.669 78.9693 738.585 78.8696 738.514 78.7057C738.441 78.5374 738.412 78.3685 738.412 78.2291H744.412ZM740.156 73.1041C738.129 72.3351 734.959 71.9267 731.014 71.7134L730.69 77.7047C734.638 77.9181 736.962 78.3097 738.028 78.7141L740.156 73.1041ZM731.014 71.7134C726.987 71.4958 721.377 71.3891 714.212 71.3891V77.3891C721.34 77.3891 726.824 77.4957 730.69 77.7047L731.014 71.7134ZM714.212 71.3891C708.961 71.3891 704.476 71.1524 700.739 70.6916L700.005 76.6465C704.054 77.1458 708.796 77.3891 714.212 77.3891V71.3891ZM700.785 70.6976C697.106 70.1867 694.211 69.4382 692.027 68.5086L689.677 74.0295C692.506 75.2333 695.958 76.0848 699.959 76.6405L700.785 70.6976ZM692.098 68.54C689.971 67.5693 688.641 66.4758 687.858 65.3728L682.965 68.8453C684.529 71.0491 686.826 72.7288 689.606 73.9981L692.098 68.54ZM687.884 65.4095C687.099 64.2677 686.652 62.8525 686.652 61.0291H680.652C680.652 63.899 681.378 66.5371 682.94 68.8087L687.884 65.4095ZM686.652 61.0291C686.652 57.7244 687.726 55.1948 689.81 53.1924L685.653 48.8658C682.297 52.0901 680.652 56.2271 680.652 61.0291H686.652ZM689.811 53.1916C692.049 51.0394 695.632 49.2449 700.886 48.0322L699.537 42.1859C693.699 43.5332 688.961 45.6854 685.653 48.8666L689.811 53.1916ZM700.907 48.0275C706.202 46.7668 712.937 46.1091 721.172 46.1091V40.1091C712.66 40.1091 705.422 40.7847 699.517 42.1907L700.907 48.0275ZM721.172 46.1091C733.228 46.1091 741.993 47.879 747.799 51.0936L750.705 45.8446C743.604 41.9125 733.649 40.1091 721.172 40.1091V46.1091ZM747.824 51.1077C750.729 52.6792 752.746 54.5126 754.044 56.544C755.331 58.5593 756.012 60.9269 756.012 63.7491H762.012C762.012 59.9046 761.066 56.3922 759.1 53.3142C757.144 50.2522 754.281 47.7789 750.679 45.8304L747.824 51.1077ZM759.012 60.7491H738.292V66.7491H759.012V60.7491ZM741.258 63.2997C740.71 59.6835 737.434 57.8421 734.189 56.8742L732.474 62.6239C733.788 63.0157 734.557 63.4323 734.969 63.7643C735.162 63.9204 735.248 64.0345 735.283 64.0912C735.314 64.1405 735.321 64.1696 735.326 64.1985L741.258 63.2997ZM734.235 56.8883C730.762 55.7916 726.084 55.3091 720.372 55.3091V61.3091C725.86 61.3091 729.821 61.7866 732.428 62.6098L734.235 56.8883ZM720.372 55.3091C714.773 55.3091 710.355 55.6264 707.285 56.3488L708.659 62.1893C711.029 61.6318 714.877 61.3091 720.372 61.3091V55.3091ZM707.272 56.3519C705.73 56.7219 704.234 57.2948 703.07 58.2493C701.798 59.2917 700.972 60.7665 700.972 62.5491H706.972C706.972 62.61 706.955 62.7178 706.9 62.8265C706.849 62.9263 706.811 62.9408 706.874 62.8889C707.043 62.7501 707.547 62.4562 708.672 62.1862L707.272 56.3519ZM700.972 62.5491C700.972 64.4957 701.976 66.0323 703.47 66.9926L706.714 61.9455C706.661 61.9113 706.748 61.955 706.843 62.1175C706.945 62.2926 706.972 62.4617 706.972 62.5491H700.972ZM703.47 66.9926C704.75 67.8154 706.536 68.2926 708.411 68.6234L709.453 62.7147C707.701 62.4055 706.928 62.0827 706.714 61.9455L703.47 66.9926ZM708.508 68.6389C710.536 68.9287 713.277 69.1196 716.677 69.2276L716.867 63.2306C713.546 63.1252 711.061 62.9428 709.356 62.6992L708.508 68.6389ZM716.677 69.2276C720.08 69.3356 724.382 69.3891 729.572 69.3891V63.3891C724.415 63.3891 720.183 63.3359 716.867 63.2306L716.677 69.2276ZM729.572 69.3891C735.187 69.3891 739.886 69.6784 743.697 70.2373L744.567 64.3008C740.378 63.6864 735.37 63.3891 729.572 63.3891V69.3891ZM743.735 70.2428C747.572 70.7543 750.48 71.5259 752.566 72.4781L755.058 67.02C752.237 65.7322 748.692 64.8505 744.528 64.2954L743.735 70.2428ZM752.588 72.4881C754.725 73.4428 756.002 74.5504 756.721 75.6797L761.783 72.4584C760.262 70.0678 757.912 68.2954 755.036 67.01L752.588 72.4881ZM756.744 75.715C757.497 76.8627 757.932 78.2975 757.932 80.1491H763.932C763.932 77.3073 763.247 74.6888 761.76 72.4231L756.744 75.715ZM757.932 80.1491C757.932 83.5108 756.898 86.0199 754.971 87.9478L759.213 92.1904C762.405 88.9983 763.932 84.8941 763.932 80.1491H757.932ZM754.971 87.9478C752.984 89.9346 749.564 91.6522 744.284 92.8199L745.58 98.6783C751.393 97.3926 756.08 95.3236 759.213 92.1904L754.971 87.9478ZM744.284 92.8199C739.035 93.9806 732.023 94.5891 723.172 94.5891V100.589C732.24 100.589 739.735 99.9709 745.58 98.6783L744.284 92.8199ZM723.172 94.5891C718.219 94.5891 713.691 94.3022 709.581 93.737L708.763 99.6811C713.186 100.289 717.992 100.589 723.172 100.589V94.5891ZM709.586 93.7377C705.52 93.1716 701.949 92.3558 698.854 91.3076L696.929 96.9905C700.448 98.1823 704.397 99.0732 708.758 99.6804L709.586 93.7377ZM698.895 91.3218C695.795 90.2216 693.261 88.9284 691.246 87.4755L687.737 92.3426C690.309 94.1964 693.376 95.7299 696.889 96.9764L698.895 91.3218ZM691.283 87.5024C689.252 85.9911 687.786 84.3838 686.796 82.7051L681.628 85.753C683.091 88.2343 685.145 90.4137 687.701 92.3158L691.283 87.5024ZM686.841 82.7833C685.923 81.1159 685.452 79.2705 685.452 77.1891H679.452C679.452 80.2276 680.154 83.0755 681.583 85.6748L686.841 82.7833ZM786.825 62.4691V59.4691H783.825V62.4691H786.825ZM843.145 62.4691H846.145V59.4691H843.145V62.4691ZM843.145 77.6691V80.6691H846.145V77.6691H843.145ZM786.825 77.6691H783.825V80.6691H786.825V77.6691ZM840.905 44.7891V41.7891H837.905V44.7891H840.905ZM860.905 44.7891H863.905V41.7891H860.905V44.7891ZM860.905 95.9891V98.9891H863.905V95.9891H860.905ZM840.905 95.9891H837.905V98.9891H840.905V95.9891ZM769.705 44.7891V41.7891H766.705V44.7891H769.705ZM789.705 44.7891H792.705V41.7891H789.705V44.7891ZM789.705 95.9891V98.9891H792.705V95.9891H789.705ZM769.705 95.9891H766.705V98.9891H769.705V95.9891ZM786.825 65.4691H843.145V59.4691H786.825V65.4691ZM840.145 62.4691V77.6691H846.145V62.4691H840.145ZM843.145 74.6691H786.825V80.6691H843.145V74.6691ZM789.825 77.6691V62.4691H783.825V77.6691H789.825ZM840.905 47.7891H860.905V41.7891H840.905V47.7891ZM857.905 44.7891V95.9891H863.905V44.7891H857.905ZM860.905 92.9891H840.905V98.9891H860.905V92.9891ZM843.905 95.9891V44.7891H837.905V95.9891H843.905ZM769.705 47.7891H789.705V41.7891H769.705V47.7891ZM786.705 44.7891V95.9891H792.705V44.7891H786.705ZM789.705 92.9891H769.705V98.9891H789.705V92.9891ZM772.705 95.9891V44.7891H766.705V95.9891H772.705ZM891.647 94.5491L890.803 97.4279L890.813 97.4308L890.823 97.4336L891.647 94.5491ZM876.127 85.4291L873.772 87.288L873.786 87.3051L873.799 87.322L876.127 85.4291ZM876.127 55.4291L873.787 53.5512L873.784 53.555L876.127 55.4291ZM891.647 46.3091L892.471 49.1936L892.481 49.1908L892.491 49.1879L891.647 46.3091ZM947.807 46.3091L946.963 49.1879L946.973 49.1908L946.983 49.1936L947.807 46.3091ZM963.247 55.4291L960.892 57.288L960.906 57.3051L960.919 57.322L963.247 55.4291ZM963.247 85.4291L960.907 83.5512L960.904 83.555L963.247 85.4291ZM947.807 94.5491L948.631 97.4336L948.641 97.4308L948.651 97.4279L947.807 94.5491ZM933.967 81.4291L934.441 84.3914L934.46 84.3883L934.479 84.385L933.967 81.4291ZM943.247 77.8291L945.093 80.194L945.11 80.1802L945.128 80.1661L943.247 77.8291ZM943.247 63.0291L941.366 65.3661L941.383 65.3802L941.401 65.394L943.247 63.0291ZM933.967 59.4291L933.455 62.385L933.474 62.3883L933.493 62.3914L933.967 59.4291ZM905.247 59.4291L905.709 62.3933L905.724 62.3909L905.74 62.3883L905.247 59.4291ZM895.567 63.0291L897.358 65.4358L897.367 65.4291L895.567 63.0291ZM895.567 77.8291L893.74 80.209L893.771 80.2325L893.802 80.2553L895.567 77.8291ZM905.247 81.4291L904.747 84.3872L904.769 84.3909L904.791 84.3942L905.247 81.4291ZM919.727 94.5891C908.238 94.5891 899.188 93.5837 892.471 91.6645L890.823 97.4336C898.292 99.5677 907.962 100.589 919.727 100.589V94.5891ZM892.491 91.6703C885.738 89.6902 881.191 86.9012 878.454 83.5361L873.799 87.322C877.569 91.9569 883.369 95.248 890.803 97.4279L892.491 91.6703ZM878.482 83.5701C875.763 80.127 874.327 75.7985 874.327 70.3891H868.327C868.327 76.9264 870.09 82.6245 873.772 87.288L878.482 83.5701ZM874.327 70.3891C874.327 64.9786 875.763 60.6856 878.469 57.3032L873.784 53.555C870.09 58.1725 868.327 63.8529 868.327 70.3891H874.327ZM878.466 57.3069C881.199 53.9026 885.733 51.1187 892.471 49.1936L890.823 43.4245C883.374 45.5528 877.562 48.8489 873.787 53.5512L878.466 57.3069ZM892.491 49.1879C899.2 47.2205 908.242 46.1891 919.727 46.1891V40.1891C907.958 40.1891 898.28 41.2376 890.803 43.4303L892.491 49.1879ZM919.727 46.1891C931.211 46.1891 940.254 47.2205 946.963 49.1879L948.651 43.4303C941.173 41.2376 931.496 40.1891 919.727 40.1891V46.1891ZM946.983 49.1936C953.721 51.1188 958.217 53.8996 960.892 57.288L965.602 53.5701C961.877 48.8519 956.08 45.5526 948.631 43.4245L946.983 49.1936ZM960.919 57.322C963.67 60.7043 965.127 64.9905 965.127 70.3891H971.127C971.127 63.841 969.33 58.1538 965.574 53.5361L960.919 57.322ZM965.127 70.3891C965.127 75.7867 963.671 80.1084 960.907 83.5512L965.586 87.3069C969.33 82.6431 971.127 76.9381 971.127 70.3891H965.127ZM960.904 83.555C958.225 86.9043 953.716 89.69 946.963 91.6703L948.651 97.4279C956.085 95.2481 961.869 91.9539 965.589 87.3032L960.904 83.555ZM946.983 91.6645C940.265 93.5837 931.215 94.5891 919.727 94.5891V100.589C931.492 100.589 941.162 99.5677 948.631 97.4336L946.983 91.6645ZM919.727 85.3891C925.327 85.3891 930.24 85.0635 934.441 84.3914L933.493 78.4668C929.694 79.0746 925.113 79.3891 919.727 79.3891V85.3891ZM934.479 84.385C938.756 83.6437 942.378 82.3126 945.093 80.194L941.401 75.4641C939.742 76.7588 937.178 77.8278 933.455 78.4732L934.479 84.385ZM945.128 80.1661C948.127 77.7524 949.527 74.3539 949.527 70.3891H943.527C943.527 72.8242 942.74 74.3857 941.366 75.492L945.128 80.1661ZM949.527 70.3891C949.527 66.4255 948.125 63.0312 945.093 60.6641L941.401 65.394C942.742 66.4403 943.527 67.9527 943.527 70.3891H949.527ZM945.128 60.692C942.394 58.4912 938.742 57.1549 934.441 56.4668L933.493 62.3914C937.192 62.9832 939.727 64.0469 941.366 65.3661L945.128 60.692ZM934.479 56.4731C930.263 55.7423 925.336 55.3891 919.727 55.3891V61.3891C925.104 61.3891 929.671 61.7292 933.455 62.385L934.479 56.4731ZM919.727 55.3891C914.115 55.3891 909.117 55.7427 904.754 56.4699L905.74 62.3883C909.697 61.7288 914.352 61.3891 919.727 61.3891V55.3891ZM904.785 56.4649C900.383 57.1509 896.636 58.4771 893.767 60.6291L897.367 65.4291C899.191 64.061 901.897 62.9873 905.709 62.3933L904.785 56.4649ZM893.776 60.6224C890.623 62.9686 889.127 66.3711 889.127 70.3891H895.127C895.127 68.0071 895.924 66.5029 897.358 65.4358L893.776 60.6224ZM889.127 70.3891C889.127 74.4072 890.621 77.815 893.74 80.209L897.393 75.4491C895.926 74.3231 895.127 72.7709 895.127 70.3891H889.127ZM893.802 80.2553C896.651 82.327 900.369 83.648 904.747 84.3872L905.746 78.4709C901.912 77.8235 899.176 76.7445 897.331 75.4029L893.802 80.2553ZM904.791 84.3942C909.139 85.0632 914.124 85.3891 919.727 85.3891V79.3891C914.343 79.3891 909.675 79.075 905.703 78.464L904.791 84.3942ZM997.093 82.7891H994.093V85.7891H997.093V82.7891ZM997.093 68.7891V65.7891H994.093V68.7891H997.093ZM1041.01 68.0691L1042.24 70.8048L1042.27 70.7916L1042.3 70.7777L1041.01 68.0691ZM1041.01 61.5091L1039.78 64.2448L1039.81 64.2559L1039.83 64.2665L1041.01 61.5091ZM998.373 60.7891V57.7891H995.373V60.7891H998.373ZM998.373 95.9891V98.9891H1001.37V95.9891H998.373ZM978.373 95.9891H975.373V98.9891H978.373V95.9891ZM978.373 44.7891V41.7891H975.373V44.7891H978.373ZM1045.09 45.6691L1044.59 48.627L1044.62 48.6313L1044.64 48.6352L1045.09 45.6691ZM1060.45 54.7091L1063.06 53.2207V53.2207L1060.45 54.7091ZM1060.45 74.5491L1063 76.134L1060.45 74.5491ZM1045.09 82.2291L1044.78 79.2458L1044.77 79.2463L1045.09 82.2291ZM1000.09 82.7891V68.7891H994.093V82.7891H1000.09ZM997.093 71.7891H1037.01V65.7891H997.093V71.7891ZM1037.01 71.7891C1038.89 71.7891 1040.68 71.5106 1042.24 70.8048L1039.78 65.3333C1039.22 65.5875 1038.34 65.7891 1037.01 65.7891V71.7891ZM1042.3 70.7777C1044.82 69.5774 1045.69 67.1449 1045.69 64.7891H1039.69C1039.69 65.2972 1039.6 65.4786 1039.6 65.4814C1039.6 65.4815 1039.6 65.4791 1039.61 65.4748C1039.61 65.4704 1039.61 65.4644 1039.62 65.4573C1039.63 65.4424 1039.64 65.4255 1039.66 65.4088C1039.7 65.3722 1039.73 65.3586 1039.72 65.3605L1042.3 70.7777ZM1045.69 64.7891C1045.69 62.45 1044.86 59.8936 1042.19 58.7516L1039.83 64.2665C1039.81 64.2573 1039.76 64.2291 1039.7 64.1738C1039.64 64.1187 1039.61 64.0702 1039.6 64.0567C1039.6 64.048 1039.69 64.2366 1039.69 64.7891H1045.69ZM1042.24 58.7733C1040.68 58.0675 1038.89 57.7891 1037.01 57.7891V63.7891C1038.34 63.7891 1039.22 63.9906 1039.78 64.2448L1042.24 58.7733ZM1037.01 57.7891H998.373V63.7891H1037.01V57.7891ZM995.373 60.7891V95.9891H1001.37V60.7891H995.373ZM998.373 92.9891H978.373V98.9891H998.373V92.9891ZM981.373 95.9891V44.7891H975.373V95.9891H981.373ZM978.373 47.7891H1033.89V41.7891H978.373V47.7891ZM1033.89 47.7891C1037.75 47.7891 1041.31 48.0718 1044.59 48.627L1045.59 42.7111C1041.94 42.093 1038.04 41.7891 1033.89 41.7891V47.7891ZM1044.64 48.6352C1047.88 49.1255 1050.6 50.017 1052.85 51.2566L1055.74 46.0016C1052.76 44.3612 1049.35 43.2793 1045.54 42.7029L1044.64 48.6352ZM1052.85 51.2566C1054.97 52.428 1056.63 54.0586 1057.85 56.1975L1063.06 53.2207C1061.29 50.1329 1058.84 47.7102 1055.74 46.0016L1052.85 51.2566ZM1057.85 56.1975C1059.01 58.2219 1059.69 61.0222 1059.69 64.7891H1065.69C1065.69 60.3426 1064.89 56.4229 1063.06 53.2207L1057.85 56.1975ZM1059.69 64.7891C1059.69 68.5749 1059 71.2087 1057.91 72.9642L1063 76.134C1064.89 73.0894 1065.69 69.2166 1065.69 64.7891H1059.69ZM1057.91 72.9642C1056.73 74.8505 1055.14 76.2398 1053.06 77.1723L1055.52 82.6459C1058.67 81.2317 1061.19 79.0477 1063 76.134L1057.91 72.9642ZM1053.06 77.1723C1050.8 78.1893 1048.05 78.8983 1044.78 79.2458L1045.41 85.2123C1049.17 84.8131 1052.56 83.9755 1055.52 82.6459L1053.06 77.1723ZM1044.77 79.2463C1041.43 79.6066 1037.8 79.7891 1033.89 79.7891V85.7891C1037.99 85.7891 1041.83 85.5982 1045.41 85.2118L1044.77 79.2463ZM1033.89 79.7891H997.093V85.7891H1033.89V79.7891ZM1069.87 77.1891V74.1891H1066.87V77.1891H1069.87ZM1091.71 77.1891L1094.56 76.2404L1093.88 74.1891H1091.71V77.1891ZM1094.99 80.0691L1093.78 82.8138L1093.82 82.8289L1093.85 82.8431L1094.99 80.0691ZM1102.27 81.8291L1101.86 84.8L1101.89 84.804L1101.91 84.8075L1102.27 81.8291ZM1122.43 82.0691L1122.71 85.0562L1122.74 85.0533L1122.77 85.0499L1122.43 82.0691ZM1127.39 80.7891L1128.96 83.3489L1129.01 83.3181L1129.06 83.2852L1127.39 80.7891ZM1126.51 75.9091L1125.45 78.7141L1125.49 78.7303L1125.54 78.7452L1126.51 75.9091ZM1118.27 74.7091L1118.11 77.7047L1118.27 74.7091ZM1087.79 73.6691L1087.38 76.6405L1087.4 76.6437L1087.43 76.6465L1087.79 73.6691ZM1078.27 71.2691L1077.03 73.9981L1077.06 74.0143L1077.1 74.0295L1078.27 71.2691ZM1072.83 67.1091L1070.36 68.8087L1070.37 68.8271L1070.39 68.8453L1072.83 67.1091ZM1075.15 51.0291L1077.23 53.1924L1077.23 53.1916L1075.15 51.0291ZM1087.63 45.1091L1088.31 48.0322L1088.32 48.0299L1088.33 48.0275L1087.63 45.1091ZM1136.67 48.4691L1135.22 51.0936L1135.23 51.1007L1135.25 51.1077L1136.67 48.4691ZM1146.43 63.7491V66.7491H1149.43V63.7491H1146.43ZM1125.71 63.7491L1122.75 64.1985L1123.13 66.7491H1125.71V63.7491ZM1120.75 59.7491L1119.85 62.6098L1119.87 62.6171L1119.9 62.6239L1120.75 59.7491ZM1095.39 59.2691L1094.71 56.3488L1094.69 56.3519L1095.39 59.2691ZM1096.35 65.6691L1095.83 68.6234L1095.88 68.632L1095.93 68.6389L1096.35 65.6691ZM1131.55 67.2691L1131.12 70.2373L1131.14 70.2402L1131.16 70.2428L1131.55 67.2691ZM1141.23 69.7491L1139.99 72.4781L1140 72.4832L1140.01 72.4881L1141.23 69.7491ZM1146.67 74.0691L1144.14 75.6797L1144.15 75.6975L1144.17 75.715L1146.67 74.0691ZM1144.51 90.0691L1146.64 92.1904V92.1904L1144.51 90.0691ZM1132.35 95.7491L1133 98.6783L1132.35 95.7491ZM1096.59 96.7091L1096.18 99.6804L1096.19 99.6811L1096.59 96.7091ZM1085.31 94.1491L1084.31 96.9764L1084.33 96.9836L1084.35 96.9905L1085.31 94.1491ZM1076.91 89.9091L1075.12 92.3158L1075.14 92.3293L1075.16 92.3426L1076.91 89.9091ZM1071.63 84.2291L1069.01 85.6748L1069.03 85.7143L1069.05 85.753L1071.63 84.2291ZM1069.87 80.1891H1091.71V74.1891H1069.87V80.1891ZM1088.87 78.1378C1089.64 80.4644 1091.7 81.8941 1093.78 82.8138L1096.2 77.3243C1095.48 77.0063 1095.04 76.715 1094.79 76.4948C1094.55 76.2845 1094.54 76.1911 1094.56 76.2404L1088.87 78.1378ZM1093.85 82.8431C1095.99 83.7235 1098.69 84.3556 1101.86 84.8L1102.69 78.8582C1099.78 78.4492 1097.62 77.908 1096.14 77.295L1093.85 82.8431ZM1101.91 84.8075C1105.16 85.1987 1108.85 85.3891 1112.99 85.3891V79.3891C1109.03 79.3891 1105.58 79.2061 1102.63 78.8507L1101.91 84.8075ZM1112.99 85.3891C1117.03 85.3891 1120.28 85.2821 1122.71 85.0562L1122.16 79.082C1120 79.2827 1116.96 79.3891 1112.99 79.3891V85.3891ZM1122.77 85.0499C1125.18 84.7765 1127.4 84.301 1128.96 83.3489L1125.83 78.2292C1125.47 78.4505 1124.38 78.8284 1122.1 79.0883L1122.77 85.0499ZM1129.06 83.2852C1130.77 82.1427 1131.83 80.3922 1131.83 78.2291H1125.83C1125.83 78.2694 1125.83 78.2771 1125.83 78.2615C1125.84 78.2445 1125.85 78.2209 1125.86 78.1983C1125.87 78.1764 1125.88 78.1728 1125.86 78.1867C1125.85 78.2018 1125.81 78.2394 1125.73 78.2929L1129.06 83.2852ZM1131.83 78.2291C1131.83 75.2187 1129.39 73.728 1127.49 73.073L1125.54 78.7452C1125.79 78.8323 1125.96 78.9109 1126.06 78.968C1126.16 79.0253 1126.17 79.0465 1126.13 79.0104C1126.09 78.9693 1126.01 78.8696 1125.94 78.7057C1125.86 78.5374 1125.83 78.3685 1125.83 78.2291H1131.83ZM1127.58 73.1041C1125.55 72.3351 1122.38 71.9267 1118.44 71.7134L1118.11 77.7047C1122.06 77.9181 1124.38 78.3097 1125.45 78.7141L1127.58 73.1041ZM1118.44 71.7134C1114.41 71.4958 1108.8 71.3891 1101.63 71.3891V77.3891C1108.76 77.3891 1114.25 77.4957 1118.11 77.7047L1118.44 71.7134ZM1101.63 71.3891C1096.38 71.3891 1091.9 71.1524 1088.16 70.6916L1087.43 76.6465C1091.48 77.1458 1096.22 77.3891 1101.63 77.3891V71.3891ZM1088.21 70.6976C1084.53 70.1867 1081.63 69.4382 1079.45 68.5086L1077.1 74.0295C1079.93 75.2333 1083.38 76.0848 1087.38 76.6405L1088.21 70.6976ZM1079.52 68.54C1077.39 67.5693 1076.06 66.4758 1075.28 65.3728L1070.39 68.8453C1071.95 71.0491 1074.25 72.7288 1077.03 73.9981L1079.52 68.54ZM1075.31 65.4095C1074.52 64.2677 1074.07 62.8525 1074.07 61.0291H1068.07C1068.07 63.899 1068.8 66.5371 1070.36 68.8087L1075.31 65.4095ZM1074.07 61.0291C1074.07 57.7244 1075.15 55.1948 1077.23 53.1924L1073.08 48.8658C1069.72 52.0901 1068.07 56.2271 1068.07 61.0291H1074.07ZM1077.23 53.1916C1079.47 51.0394 1083.05 49.2449 1088.31 48.0322L1086.96 42.1859C1081.12 43.5332 1076.38 45.6854 1073.07 48.8666L1077.23 53.1916ZM1088.33 48.0275C1093.62 46.7668 1100.36 46.1091 1108.59 46.1091V40.1091C1100.08 40.1091 1092.84 40.7847 1086.94 42.1907L1088.33 48.0275ZM1108.59 46.1091C1120.65 46.1091 1129.42 47.879 1135.22 51.0936L1138.13 45.8446C1131.03 41.9125 1121.07 40.1091 1108.59 40.1091V46.1091ZM1135.25 51.1077C1138.15 52.6792 1140.17 54.5126 1141.47 56.544C1142.75 58.5593 1143.43 60.9269 1143.43 63.7491H1149.43C1149.43 59.9046 1148.49 56.3922 1146.52 53.3142C1144.57 50.2522 1141.7 47.7789 1138.1 45.8304L1135.25 51.1077ZM1146.43 60.7491H1125.71V66.7491H1146.43V60.7491ZM1128.68 63.2997C1128.13 59.6835 1124.86 57.8421 1121.61 56.8742L1119.9 62.6239C1121.21 63.0157 1121.98 63.4323 1122.39 63.7643C1122.58 63.9204 1122.67 64.0345 1122.7 64.0912C1122.74 64.1405 1122.74 64.1696 1122.75 64.1985L1128.68 63.2997ZM1121.66 56.8883C1118.18 55.7916 1113.51 55.3091 1107.79 55.3091V61.3091C1113.28 61.3091 1117.24 61.7866 1119.85 62.6098L1121.66 56.8883ZM1107.79 55.3091C1102.2 55.3091 1097.78 55.6264 1094.71 56.3488L1096.08 62.1893C1098.45 61.6318 1102.3 61.3091 1107.79 61.3091V55.3091ZM1094.69 56.3519C1093.15 56.7219 1091.66 57.2948 1090.49 58.2493C1089.22 59.2917 1088.39 60.7665 1088.39 62.5491H1094.39C1094.39 62.61 1094.38 62.7178 1094.32 62.8265C1094.27 62.9263 1094.23 62.9408 1094.3 62.8889C1094.47 62.7501 1094.97 62.4562 1096.09 62.1862L1094.69 56.3519ZM1088.39 62.5491C1088.39 64.4957 1089.4 66.0323 1090.89 66.9926L1094.14 61.9455C1094.08 61.9113 1094.17 61.955 1094.27 62.1175C1094.37 62.2926 1094.39 62.4617 1094.39 62.5491H1088.39ZM1090.89 66.9926C1092.17 67.8154 1093.96 68.2926 1095.83 68.6234L1096.88 62.7147C1095.12 62.4055 1094.35 62.0827 1094.14 61.9455L1090.89 66.9926ZM1095.93 68.6389C1097.96 68.9287 1100.7 69.1196 1104.1 69.2276L1104.29 63.2306C1100.97 63.1252 1098.48 62.9428 1096.78 62.6992L1095.93 68.6389ZM1104.1 69.2276C1107.5 69.3356 1111.8 69.3891 1116.99 69.3891V63.3891C1111.84 63.3891 1107.61 63.3359 1104.29 63.2306L1104.1 69.2276ZM1116.99 69.3891C1122.61 69.3891 1127.31 69.6784 1131.12 70.2373L1131.99 64.3008C1127.8 63.6864 1122.79 63.3891 1116.99 63.3891V69.3891ZM1131.16 70.2428C1134.99 70.7543 1137.9 71.5259 1139.99 72.4781L1142.48 67.02C1139.66 65.7322 1136.11 64.8505 1131.95 64.2954L1131.16 70.2428ZM1140.01 72.4881C1142.15 73.4428 1143.42 74.5504 1144.14 75.6797L1149.2 72.4584C1147.68 70.0678 1145.33 68.2954 1142.46 67.01L1140.01 72.4881ZM1144.17 75.715C1144.92 76.8627 1145.35 78.2975 1145.35 80.1491H1151.35C1151.35 77.3073 1150.67 74.6888 1149.18 72.4231L1144.17 75.715ZM1145.35 80.1491C1145.35 83.5108 1144.32 86.0199 1142.39 87.9478L1146.64 92.1904C1149.83 88.9983 1151.35 84.8941 1151.35 80.1491H1145.35ZM1142.39 87.9478C1140.41 89.9346 1136.99 91.6522 1131.71 92.8199L1133 98.6783C1138.82 97.3926 1143.5 95.3236 1146.64 92.1904L1142.39 87.9478ZM1131.71 92.8199C1126.46 93.9806 1119.45 94.5891 1110.59 94.5891V100.589C1119.66 100.589 1127.16 99.9709 1133 98.6783L1131.71 92.8199ZM1110.59 94.5891C1105.64 94.5891 1101.11 94.3022 1097 93.737L1096.19 99.6811C1100.61 100.289 1105.41 100.589 1110.59 100.589V94.5891ZM1097.01 93.7377C1092.94 93.1716 1089.37 92.3558 1086.28 91.3076L1084.35 96.9905C1087.87 98.1823 1091.82 99.0732 1096.18 99.6804L1097.01 93.7377ZM1086.32 91.3218C1083.22 90.2216 1080.68 88.9284 1078.67 87.4755L1075.16 92.3426C1077.73 94.1964 1080.8 95.7299 1084.31 96.9764L1086.32 91.3218ZM1078.7 87.5024C1076.67 85.9911 1075.21 84.3838 1074.22 82.7051L1069.05 85.753C1070.51 88.2343 1072.57 90.4137 1075.12 92.3158L1078.7 87.5024ZM1074.26 82.7833C1073.35 81.1159 1072.87 79.2705 1072.87 77.1891H1066.87C1066.87 80.2276 1067.58 83.0755 1069.01 85.6748L1074.26 82.7833Z" fill="black"/>
<path d="M250.794 84L222.154 32.8H244.714L268.874 80.4L261.274 80.56L283.914 32.8H308.074L330.714 80.56L323.114 80.4L347.274 32.8H369.514L341.194 84H314.154L292.074 40.88H299.914L277.834 84H250.794ZM418.676 85.6C407.049 85.6 397.689 84.5867 390.596 82.56C383.502 80.48 378.329 77.44 375.076 73.44C371.876 69.3867 370.276 64.3733 370.276 58.4C370.276 52.4267 371.876 47.44 375.076 43.44C378.329 39.3867 383.502 36.3467 390.596 34.32C397.689 32.24 407.049 31.2 418.676 31.2C430.302 31.2 439.662 32.24 446.756 34.32C453.849 36.3467 458.996 39.3867 462.196 43.44C465.449 47.44 467.076 52.4267 467.076 58.4C467.076 64.3733 465.449 69.3867 462.196 73.44C458.996 77.44 453.849 80.48 446.756 82.56C439.662 84.5867 430.302 85.6 418.676 85.6ZM418.676 70.4C424.169 70.4 428.916 70.08 432.916 69.44C436.916 68.7467 440.009 67.5467 442.196 65.84C444.382 64.08 445.476 61.6 445.476 58.4C445.476 55.2 444.382 52.7467 442.196 51.04C440.009 49.28 436.916 48.08 432.916 47.44C428.916 46.7467 424.169 46.4 418.676 46.4C413.182 46.4 408.356 46.7467 404.196 47.44C400.089 48.08 396.862 49.28 394.516 51.04C392.222 52.7467 391.076 55.2 391.076 58.4C391.076 61.6 392.222 64.08 394.516 65.84C396.862 67.5467 400.089 68.7467 404.196 69.44C408.356 70.08 413.182 70.4 418.676 70.4ZM477.482 84V32.8H539.322C544.175 32.8 548.522 33.36 552.362 34.48C556.255 35.5467 559.322 37.36 561.562 39.92C563.855 42.48 565.002 45.9733 565.002 50.4C565.002 53.3333 564.468 55.76 563.402 57.68C562.335 59.6 560.868 61.0933 559.002 62.16C557.135 63.2267 555.002 64 552.602 64.48C550.202 64.96 547.695 65.2533 545.082 65.36L539.242 64.24C545.588 64.2933 550.468 64.56 553.882 65.04C557.348 65.52 559.748 66.4 561.082 67.68C562.468 68.9067 563.162 70.6933 563.162 73.04V84H543.162V75.44C543.162 73.84 542.842 72.64 542.202 71.84C541.615 70.9867 540.282 70.4 538.202 70.08C536.175 69.76 533.028 69.6 528.762 69.6H497.482V84H477.482ZM497.482 56.24H539.322C540.922 56.24 542.255 55.9733 543.322 55.44C544.442 54.9067 545.002 53.8933 545.002 52.4C545.002 51.0133 544.442 50.08 543.322 49.6C542.255 49.0667 540.922 48.8 539.322 48.8H497.482V56.24ZM618.716 58.8V54.32L664.876 84H635.116L595.916 56.8L632.076 32.8H660.556L618.716 58.8ZM576.076 32.8H596.076V84H576.076V32.8ZM670.463 65.2H692.303C692.676 66.32 693.77 67.28 695.583 68.08C697.396 68.8267 699.823 69.4133 702.863 69.84C705.956 70.2133 709.53 70.4 713.583 70.4C717.583 70.4 720.73 70.2933 723.023 70.08C725.37 69.8133 727.023 69.3867 727.983 68.8C728.943 68.16 729.423 67.3067 729.423 66.24C729.423 65.2267 728.65 64.4533 727.103 63.92C725.556 63.3333 722.81 62.9333 718.863 62.72C714.916 62.5067 709.37 62.4 702.223 62.4C696.89 62.4 692.276 62.16 688.383 61.68C684.543 61.1467 681.37 60.3467 678.863 59.28C676.41 58.16 674.596 56.7733 673.423 55.12C672.25 53.4133 671.663 51.3867 671.663 49.04C671.663 44.9867 673.023 41.6533 675.743 39.04C678.516 36.3733 682.676 34.4 688.223 33.12C693.823 31.7867 700.81 31.12 709.183 31.12C721.45 31.12 730.81 32.9067 737.263 36.48C743.77 40 747.023 45.0933 747.023 51.76H726.303C726.036 50 724.383 48.6667 721.343 47.76C718.303 46.8 713.983 46.32 708.383 46.32C702.836 46.32 698.703 46.64 695.983 47.28C693.316 47.92 691.983 49.0133 691.983 50.56C691.983 51.36 692.356 52 693.103 52.48C693.85 52.96 695.13 53.36 696.943 53.68C698.81 53.9467 701.423 54.1333 704.783 54.24C708.143 54.3467 712.41 54.4 717.583 54.4C723.29 54.4 728.143 54.6933 732.143 55.28C736.143 55.8133 739.37 56.64 741.823 57.76C744.33 58.88 746.143 60.32 747.263 62.08C748.383 63.7867 748.943 65.8133 748.943 68.16C748.943 72.2133 747.663 75.52 745.103 78.08C742.543 80.64 738.49 82.5333 732.943 83.76C727.396 84.9867 720.143 85.6 711.183 85.6C706.116 85.6 701.45 85.3067 697.183 84.72C692.97 84.1333 689.21 83.28 685.903 82.16C682.596 80.9867 679.796 79.5733 677.503 77.92C675.21 76.2133 673.45 74.32 672.223 72.24C671.05 70.1067 670.463 67.76 670.463 65.2ZM774.836 50.48H831.156V65.68H774.836V50.48ZM828.916 32.8H848.916V84H828.916V32.8ZM757.716 32.8H777.716V84H757.716V32.8ZM907.738 85.6C896.111 85.6 886.751 84.5867 879.658 82.56C872.565 80.48 867.391 77.44 864.138 73.44C860.938 69.3867 859.338 64.3733 859.338 58.4C859.338 52.4267 860.938 47.44 864.138 43.44C867.391 39.3867 872.565 36.3467 879.658 34.32C886.751 32.24 896.111 31.2 907.738 31.2C919.365 31.2 928.725 32.24 935.818 34.32C942.911 36.3467 948.058 39.3867 951.258 43.44C954.511 47.44 956.138 52.4267 956.138 58.4C956.138 64.3733 954.511 69.3867 951.258 73.44C948.058 77.44 942.911 80.48 935.818 82.56C928.725 84.5867 919.365 85.6 907.738 85.6ZM907.738 70.4C913.231 70.4 917.978 70.08 921.978 69.44C925.978 68.7467 929.071 67.5467 931.258 65.84C933.445 64.08 934.538 61.6 934.538 58.4C934.538 55.2 933.445 52.7467 931.258 51.04C929.071 49.28 925.978 48.08 921.978 47.44C917.978 46.7467 913.231 46.4 907.738 46.4C902.245 46.4 897.418 46.7467 893.258 47.44C889.151 48.08 885.925 49.28 883.578 51.04C881.285 52.7467 880.138 55.2 880.138 58.4C880.138 61.6 881.285 64.08 883.578 65.84C885.925 67.5467 889.151 68.7467 893.258 69.44C897.418 70.08 902.245 70.4 907.738 70.4ZM985.104 70.8V56.8H1025.02C1026.62 56.8 1027.96 56.56 1029.02 56.08C1030.14 55.5467 1030.7 54.4533 1030.7 52.8C1030.7 51.0933 1030.14 50 1029.02 49.52C1027.96 49.04 1026.62 48.8 1025.02 48.8H986.384V84H966.384V32.8H1021.9C1025.9 32.8 1029.64 33.0933 1033.1 33.68C1036.62 34.2133 1039.69 35.2 1042.3 36.64C1044.92 38.08 1046.97 40.1067 1048.46 42.72C1049.96 45.3333 1050.7 48.6933 1050.7 52.8C1050.7 56.9067 1049.96 60.16 1048.46 62.56C1046.97 64.96 1044.92 66.7467 1042.3 67.92C1039.69 69.0933 1036.62 69.8667 1033.1 70.24C1029.64 70.6133 1025.9 70.8 1021.9 70.8H985.104ZM1057.88 65.2H1079.72C1080.1 66.32 1081.19 67.28 1083 68.08C1084.82 68.8267 1087.24 69.4133 1090.28 69.84C1093.38 70.2133 1096.95 70.4 1101 70.4C1105 70.4 1108.15 70.2933 1110.44 70.08C1112.79 69.8133 1114.44 69.3867 1115.4 68.8C1116.36 68.16 1116.84 67.3067 1116.84 66.24C1116.84 65.2267 1116.07 64.4533 1114.52 63.92C1112.98 63.3333 1110.23 62.9333 1106.28 62.72C1102.34 62.5067 1096.79 62.4 1089.64 62.4C1084.31 62.4 1079.7 62.16 1075.8 61.68C1071.96 61.1467 1068.79 60.3467 1066.28 59.28C1063.83 58.16 1062.02 56.7733 1060.84 55.12C1059.67 53.4133 1059.08 51.3867 1059.08 49.04C1059.08 44.9867 1060.44 41.6533 1063.16 39.04C1065.94 36.3733 1070.1 34.4 1075.64 33.12C1081.24 31.7867 1088.23 31.12 1096.6 31.12C1108.87 31.12 1118.23 32.9067 1124.68 36.48C1131.19 40 1134.44 45.0933 1134.44 51.76H1113.72C1113.46 50 1111.8 48.6667 1108.76 47.76C1105.72 46.8 1101.4 46.32 1095.8 46.32C1090.26 46.32 1086.12 46.64 1083.4 47.28C1080.74 47.92 1079.4 49.0133 1079.4 50.56C1079.4 51.36 1079.78 52 1080.52 52.48C1081.27 52.96 1082.55 53.36 1084.36 53.68C1086.23 53.9467 1088.84 54.1333 1092.2 54.24C1095.56 54.3467 1099.83 54.4 1105 54.4C1110.71 54.4 1115.56 54.6933 1119.56 55.28C1123.56 55.8133 1126.79 56.64 1129.24 57.76C1131.75 58.88 1133.56 60.32 1134.68 62.08C1135.8 63.7867 1136.36 65.8133 1136.36 68.16C1136.36 72.2133 1135.08 75.52 1132.52 78.08C1129.96 80.64 1125.91 82.5333 1120.36 83.76C1114.82 84.9867 1107.56 85.6 1098.6 85.6C1093.54 85.6 1088.87 85.3067 1084.6 84.72C1080.39 84.1333 1076.63 83.28 1073.32 82.16C1070.02 80.9867 1067.22 79.5733 1064.92 77.92C1062.63 76.2133 1060.87 74.32 1059.64 72.24C1058.47 70.1067 1057.88 67.76 1057.88 65.2Z" fill="white"/>
<path d="M250.794 84L248.175 85.4646L249.034 87H250.794V84ZM222.154 32.8V29.8H217.038L219.535 34.2646L222.154 32.8ZM244.714 32.8L247.389 31.4422L246.555 29.8H244.714V32.8ZM268.874 80.4L268.937 83.3993L273.709 83.2989L271.549 79.0422L268.874 80.4ZM261.274 80.56L258.563 79.275L256.483 83.6615L261.337 83.5593L261.274 80.56ZM283.914 32.8V29.8H282.016L281.203 31.515L283.914 32.8ZM308.074 32.8L310.785 31.515L309.972 29.8H308.074V32.8ZM330.714 80.56L330.651 83.5593L335.504 83.6615L333.424 79.275L330.714 80.56ZM323.114 80.4L320.439 79.0422L318.278 83.2989L323.051 83.3993L323.114 80.4ZM347.274 32.8V29.8H345.432L344.599 31.4422L347.274 32.8ZM369.514 32.8L372.139 34.252L374.601 29.8H369.514V32.8ZM341.194 84V87H342.963L343.819 85.452L341.194 84ZM314.154 84L311.483 85.3673L312.319 87H314.154V84ZM292.074 40.88V37.88H287.167L289.403 42.2473L292.074 40.88ZM299.914 40.88L302.584 42.2473L304.82 37.88H299.914V40.88ZM277.834 84V87H279.668L280.504 85.3673L277.834 84ZM253.412 82.5354L224.772 31.3354L219.535 34.2646L248.175 85.4646L253.412 82.5354ZM222.154 35.8H244.714V29.8H222.154V35.8ZM242.039 34.1578L266.199 81.7578L271.549 79.0422L247.389 31.4422L242.039 34.1578ZM268.811 77.4007L261.211 77.5607L261.337 83.5593L268.937 83.3993L268.811 77.4007ZM263.984 81.845L286.625 34.085L281.203 31.515L258.563 79.275L263.984 81.845ZM283.914 35.8H308.074V29.8H283.914V35.8ZM305.363 34.085L328.003 81.845L333.424 79.275L310.785 31.515L305.363 34.085ZM330.777 77.5607L323.177 77.4007L323.051 83.3993L330.651 83.5593L330.777 77.5607ZM325.789 81.7578L349.949 34.1578L344.599 31.4422L320.439 79.0422L325.789 81.7578ZM347.274 35.8H369.514V29.8H347.274V35.8ZM366.888 31.3479L338.568 82.548L343.819 85.452L372.139 34.252L366.888 31.3479ZM341.194 81H314.154V87H341.194V81ZM316.824 82.6327L294.744 39.5127L289.403 42.2473L311.483 85.3673L316.824 82.6327ZM292.074 43.88H299.914V37.88H292.074V43.88ZM297.243 39.5127L275.163 82.6327L280.504 85.3673L302.584 42.2473L297.243 39.5127ZM277.834 81H250.794V87H277.834V81ZM390.596 82.56L389.751 85.4388L389.761 85.4417L389.771 85.4446L390.596 82.56ZM375.076 73.44L372.721 75.2989L372.734 75.316L372.748 75.3329L375.076 73.44ZM375.076 43.44L372.736 41.5622L372.733 41.5659L375.076 43.44ZM390.596 34.32L391.42 37.2046L391.43 37.2017L391.44 37.1988L390.596 34.32ZM446.756 34.32L445.911 37.1988L445.921 37.2017L445.931 37.2046L446.756 34.32ZM462.196 43.44L459.841 45.2989L459.854 45.316L459.868 45.3329L462.196 43.44ZM462.196 73.44L459.856 71.5622L459.853 71.5659L462.196 73.44ZM446.756 82.56L447.58 85.4446L447.59 85.4417L447.6 85.4388L446.756 82.56ZM432.916 69.44L433.389 72.4023L433.409 72.3992L433.428 72.3959L432.916 69.44ZM442.196 65.84L444.041 68.2049L444.059 68.1911L444.077 68.177L442.196 65.84ZM442.196 51.04L440.315 53.377L440.332 53.3911L440.35 53.4049L442.196 51.04ZM432.916 47.44L432.403 50.3959L432.422 50.3992L432.442 50.4023L432.916 47.44ZM404.196 47.44L404.657 50.4042L404.673 50.4018L404.689 50.3992L404.196 47.44ZM394.516 51.04L396.307 53.4467L396.316 53.44L394.516 51.04ZM394.516 65.84L392.689 68.2199L392.72 68.2435L392.751 68.2662L394.516 65.84ZM404.196 69.44L403.696 72.3981L403.718 72.4018L403.739 72.4051L404.196 69.44ZM418.676 82.6C407.187 82.6 398.137 81.5947 391.42 79.6754L389.771 85.4446C397.241 87.5787 406.911 88.6 418.676 88.6V82.6ZM391.44 79.6812C384.687 77.7011 380.14 74.9122 377.403 71.5471L372.748 75.3329C376.518 79.9678 382.317 83.2589 389.751 85.4388L391.44 79.6812ZM377.43 71.5811C374.712 68.1379 373.276 63.8094 373.276 58.4H367.276C367.276 64.9373 369.039 70.6354 372.721 75.2989L377.43 71.5811ZM373.276 58.4C373.276 52.9895 374.712 48.6966 377.418 45.3141L372.733 41.5659C369.039 46.1834 367.276 51.8638 367.276 58.4H373.276ZM377.415 45.3178C380.148 41.9135 384.682 39.1296 391.42 37.2046L389.771 31.4354C382.322 33.5637 376.51 36.8598 372.736 41.5622L377.415 45.3178ZM391.44 37.1988C398.149 35.2315 407.191 34.2 418.676 34.2V28.2C406.907 28.2 397.229 29.2485 389.751 31.4412L391.44 37.1988ZM418.676 34.2C430.16 34.2 439.202 35.2315 445.911 37.1988L447.6 31.4412C440.122 29.2485 430.444 28.2 418.676 28.2V34.2ZM445.931 37.2046C452.67 39.1298 457.166 41.9105 459.841 45.2989L464.55 41.5811C460.825 36.8628 455.028 33.5636 447.58 31.4354L445.931 37.2046ZM459.868 45.3329C462.619 48.7153 464.076 53.0014 464.076 58.4H470.076C470.076 51.8519 468.279 46.1647 464.523 41.5471L459.868 45.3329ZM464.076 58.4C464.076 63.7976 462.619 68.1193 459.856 71.5622L464.535 75.3178C468.278 70.654 470.076 64.9491 470.076 58.4H464.076ZM459.853 71.5659C457.173 74.9152 452.665 77.701 445.911 79.6812L447.6 85.4388C455.033 83.259 460.818 79.9648 464.538 75.3141L459.853 71.5659ZM445.931 79.6754C439.214 81.5947 430.164 82.6 418.676 82.6V88.6C430.44 88.6 440.11 87.5787 447.58 85.4446L445.931 79.6754ZM418.676 73.4C424.276 73.4 429.189 73.0744 433.389 72.4023L432.442 66.4777C428.642 67.0856 424.062 67.4 418.676 67.4V73.4ZM433.428 72.3959C437.705 71.6546 441.327 70.3236 444.041 68.2049L440.35 63.4751C438.691 64.7698 436.126 65.8387 432.403 66.4841L433.428 72.3959ZM444.077 68.177C447.075 65.7633 448.476 62.3648 448.476 58.4H442.476C442.476 60.8352 441.689 62.3967 440.315 63.503L444.077 68.177ZM448.476 58.4C448.476 54.4364 447.074 51.0421 444.041 48.6751L440.35 53.4049C441.69 54.4512 442.476 55.9636 442.476 58.4H448.476ZM444.077 48.703C441.342 46.5022 437.691 45.1658 433.389 44.4777L432.442 50.4023C436.141 50.9942 438.676 52.0578 440.315 53.377L444.077 48.703ZM433.428 44.4841C429.211 43.7532 424.285 43.4 418.676 43.4V49.4C424.053 49.4 428.62 49.7401 432.403 50.3959L433.428 44.4841ZM418.676 43.4C413.063 43.4 408.066 43.7536 403.702 44.4808L404.689 50.3992C408.646 49.7397 413.301 49.4 418.676 49.4V43.4ZM403.734 44.4758C399.332 45.1618 395.585 46.488 392.716 48.64L396.316 53.44C398.14 52.072 400.846 50.9982 404.657 50.4042L403.734 44.4758ZM392.724 48.6333C389.572 50.9795 388.076 54.382 388.076 58.4H394.076C394.076 56.018 394.873 54.5138 396.307 53.4467L392.724 48.6333ZM388.076 58.4C388.076 62.4182 389.57 65.8259 392.689 68.2199L396.342 63.4601C394.875 62.3341 394.076 60.7818 394.076 58.4H388.076ZM392.751 68.2662C395.6 70.3379 399.318 71.6589 403.696 72.3981L404.695 66.4819C400.86 65.8344 398.125 64.7554 396.28 63.4138L392.751 68.2662ZM403.739 72.4051C408.088 73.0741 413.073 73.4 418.676 73.4V67.4C413.292 67.4 408.623 67.0859 404.652 66.4749L403.739 72.4051ZM477.482 84H474.482V87H477.482V84ZM477.482 32.8V29.8H474.482V32.8H477.482ZM552.362 34.48L551.522 37.36L551.545 37.3669L551.569 37.3734L552.362 34.48ZM561.562 39.92L559.304 41.8955L559.316 41.9087L559.327 41.9217L561.562 39.92ZM563.402 57.68L560.779 56.2231V56.2231L563.402 57.68ZM559.002 62.16L560.49 64.7647V64.7647L559.002 62.16ZM552.602 64.48L553.19 67.4217L552.602 64.48ZM545.082 65.36L544.517 68.3063L544.857 68.3717L545.204 68.3575L545.082 65.36ZM539.242 64.24L539.267 61.2401L538.677 67.1863L539.242 64.24ZM553.882 65.04L553.464 68.0108L553.47 68.0117L553.882 65.04ZM561.082 67.68L559.004 69.8442L559.048 69.8865L559.094 69.927L561.082 67.68ZM563.162 84V87H566.162V84H563.162ZM543.162 84H540.162V87H543.162V84ZM542.202 71.84L539.73 73.5396L539.791 73.6292L539.859 73.7141L542.202 71.84ZM538.202 70.08L537.734 73.0433L537.746 73.0451L538.202 70.08ZM497.482 69.6V66.6H494.482V69.6H497.482ZM497.482 84V87H500.482V84H497.482ZM497.482 56.24H494.482V59.24H497.482V56.24ZM543.322 55.44L542.032 52.7314L542.006 52.7438L541.98 52.7567L543.322 55.44ZM543.322 49.6L541.98 52.2833L542.059 52.3227L542.14 52.3574L543.322 49.6ZM497.482 48.8V45.8H494.482V48.8H497.482ZM480.482 84V32.8H474.482V84H480.482ZM477.482 35.8H539.322V29.8H477.482V35.8ZM539.322 35.8C543.949 35.8 548.005 36.3344 551.522 37.36L553.202 31.6C549.038 30.3856 544.401 29.8 539.322 29.8V35.8ZM551.569 37.3734C555.002 38.314 557.519 39.8559 559.304 41.8955L563.82 37.9445C561.124 34.8641 557.508 32.7793 553.154 31.5866L551.569 37.3734ZM559.327 41.9217C560.999 43.7878 562.002 46.4933 562.002 50.4H568.002C568.002 45.4534 566.711 41.1722 563.796 37.9183L559.327 41.9217ZM562.002 50.4C562.002 52.9883 561.529 54.8735 560.779 56.2231L566.024 59.1369C567.408 56.6465 568.002 53.6784 568.002 50.4H562.002ZM560.779 56.2231C559.973 57.675 558.894 58.7666 557.513 59.5553L560.49 64.7647C562.843 63.4201 564.698 61.525 566.024 59.1369L560.779 56.2231ZM557.513 59.5553C555.962 60.4415 554.14 61.1129 552.013 61.5383L553.19 67.4217C555.863 66.8871 558.308 66.0118 560.49 64.7647L557.513 59.5553ZM552.013 61.5383C549.777 61.9855 547.427 62.2618 544.959 62.3625L545.204 68.3575C547.963 68.2449 550.626 67.9345 553.19 67.4217L552.013 61.5383ZM545.647 62.4137L539.807 61.2937L538.677 67.1863L544.517 68.3063L545.647 62.4137ZM539.217 67.2399C545.521 67.2929 550.247 67.5583 553.464 68.0108L554.3 62.0692C550.69 61.5617 545.655 61.2938 539.267 61.2401L539.217 67.2399ZM553.47 68.0117C556.79 68.4712 558.383 69.2478 559.004 69.8442L563.159 65.5158C561.114 63.5522 557.907 62.5688 554.293 62.0683L553.47 68.0117ZM559.094 69.927C559.673 70.439 560.162 71.3062 560.162 73.04H566.162C566.162 70.0805 565.264 67.3743 563.07 65.433L559.094 69.927ZM560.162 73.04V84H566.162V73.04H560.162ZM563.162 81H543.162V87H563.162V81ZM546.162 84V75.44H540.162V84H546.162ZM546.162 75.44C546.162 73.5195 545.791 71.5239 544.544 69.9659L539.859 73.7141C539.893 73.7561 540.162 74.1605 540.162 75.44H546.162ZM544.674 70.1404C543.32 68.1711 540.823 67.4479 538.658 67.1149L537.746 73.0451C538.631 73.1813 539.207 73.3536 539.554 73.5059C539.908 73.6619 539.856 73.7229 539.73 73.5396L544.674 70.1404ZM538.67 67.1167C536.398 66.7581 533.055 66.6 528.762 66.6V72.6C533.001 72.6 535.952 72.7619 537.734 73.0433L538.67 67.1167ZM528.762 66.6H497.482V72.6H528.762V66.6ZM494.482 69.6V84H500.482V69.6H494.482ZM497.482 81H477.482V87H497.482V81ZM497.482 59.24H539.322V53.24H497.482V59.24ZM539.322 59.24C541.236 59.24 543.063 58.9235 544.663 58.1233L541.98 52.7567C541.447 53.0231 540.608 53.24 539.322 53.24V59.24ZM544.612 58.1486C545.695 57.6329 546.602 56.8261 547.208 55.7311C547.794 54.6696 548.002 53.5109 548.002 52.4H542.002C542.002 52.7824 541.93 52.877 541.956 52.8289C541.97 52.804 541.994 52.7711 542.025 52.7429C542.054 52.7161 542.064 52.7161 542.032 52.7314L544.612 58.1486ZM548.002 52.4C548.002 51.3097 547.781 50.161 547.154 49.1165C546.511 48.0452 545.571 47.2999 544.504 46.8426L542.14 52.3574C542.178 52.3739 542.165 52.3736 542.125 52.3407C542.107 52.3248 542.085 52.3042 542.064 52.279C542.042 52.2539 542.024 52.228 542.009 52.2035C541.979 52.1522 541.975 52.1263 541.981 52.1489C541.987 52.1748 542.002 52.2532 542.002 52.4H548.002ZM544.663 46.9167C543.063 46.1164 541.236 45.8 539.322 45.8V51.8C540.608 51.8 541.447 52.0169 541.98 52.2833L544.663 46.9167ZM539.322 45.8H497.482V51.8H539.322V45.8ZM494.482 48.8V56.24H500.482V48.8H494.482ZM618.716 58.8H615.716V64.1963L620.299 61.3481L618.716 58.8ZM618.716 54.32L620.338 51.7966L615.716 48.8244V54.32H618.716ZM664.876 84V87H675.088L666.498 81.4766L664.876 84ZM635.116 84L633.405 86.4648L634.177 87H635.116V84ZM595.916 56.8L594.257 54.3004L590.574 56.7449L594.205 59.2648L595.916 56.8ZM632.076 32.8V29.8H631.171L630.417 30.3004L632.076 32.8ZM660.556 32.8L662.139 35.3481L671.067 29.8H660.556V32.8ZM576.076 32.8V29.8H573.076V32.8H576.076ZM596.076 32.8H599.076V29.8H596.076V32.8ZM596.076 84V87H599.076V84H596.076ZM576.076 84H573.076V87H576.076V84ZM621.716 58.8V54.32H615.716V58.8H621.716ZM617.093 56.8434L663.253 86.5234L666.498 81.4766L620.338 51.7966L617.093 56.8434ZM664.876 81H635.116V87H664.876V81ZM636.826 81.5352L597.626 54.3352L594.205 59.2648L633.405 86.4648L636.826 81.5352ZM597.575 59.2995L633.734 35.2995L630.417 30.3004L594.257 54.3004L597.575 59.2995ZM632.076 35.8H660.556V29.8H632.076V35.8ZM658.972 30.2519L617.132 56.2519L620.299 61.3481L662.139 35.3481L658.972 30.2519ZM576.076 35.8H596.076V29.8H576.076V35.8ZM593.076 32.8V84H599.076V32.8H593.076ZM596.076 81H576.076V87H596.076V81ZM579.076 84V32.8H573.076V84H579.076ZM670.463 65.2V62.2H667.463V65.2H670.463ZM692.303 65.2L695.149 64.2513L694.465 62.2H692.303V65.2ZM695.583 68.08L694.372 70.8248L694.406 70.8398L694.441 70.854L695.583 68.08ZM702.863 69.84L702.446 72.8109L702.475 72.8149L702.504 72.8184L702.863 69.84ZM723.023 70.08L723.301 73.0671L723.331 73.0643L723.362 73.0608L723.023 70.08ZM727.983 68.8L729.547 71.3598L729.598 71.329L729.647 71.2962L727.983 68.8ZM727.103 63.92L726.039 66.725L726.082 66.7412L726.125 66.7561L727.103 63.92ZM718.863 62.72L718.701 65.7156L718.863 62.72ZM688.383 61.68L687.97 64.6515L687.993 64.6546L688.016 64.6575L688.383 61.68ZM678.863 59.28L677.617 62.0091L677.653 62.0252L677.688 62.0405L678.863 59.28ZM673.423 55.12L670.951 56.8196L670.964 56.838L670.977 56.8562L673.423 55.12ZM675.743 39.04L677.822 41.2033L677.822 41.2025L675.743 39.04ZM688.223 33.12L688.898 36.0432L688.908 36.0408L688.918 36.0384L688.223 33.12ZM737.263 36.48L735.81 39.1045L735.823 39.1116L735.836 39.1186L737.263 36.48ZM747.023 51.76V54.76H750.023V51.76H747.023ZM726.303 51.76L723.337 52.2094L723.723 54.76H726.303V51.76ZM721.343 47.76L720.44 50.6207L720.463 50.628L720.486 50.6349L721.343 47.76ZM695.983 47.28L695.296 44.3597L695.283 44.3628L695.983 47.28ZM696.943 53.68L696.422 56.6343L696.47 56.6429L696.519 56.6498L696.943 53.68ZM732.143 55.28L731.708 58.2482L731.727 58.2511L731.747 58.2537L732.143 55.28ZM741.823 57.76L740.577 60.4891L740.588 60.4941L740.599 60.499L741.823 57.76ZM747.263 62.08L744.732 63.6906L744.743 63.7084L744.755 63.726L747.263 62.08ZM745.103 78.08L747.224 80.2013V80.2013L745.103 78.08ZM732.943 83.76L733.591 86.6892L732.943 83.76ZM697.183 84.72L696.769 87.6913L696.774 87.692L697.183 84.72ZM685.903 82.16L684.9 84.9873L684.92 84.9945L684.941 85.0014L685.903 82.16ZM677.503 77.92L675.712 80.3267L675.73 80.3403L675.749 80.3535L677.503 77.92ZM672.223 72.24L669.594 73.6858L669.616 73.7252L669.639 73.764L672.223 72.24ZM670.463 68.2H692.303V62.2H670.463V68.2ZM689.457 66.1487C690.233 68.4753 692.287 69.905 694.372 70.8248L696.794 65.3352C696.073 65.0172 695.633 64.7259 695.382 64.5057C695.143 64.2954 695.133 64.2021 695.149 64.2513L689.457 66.1487ZM694.441 70.854C696.579 71.7345 699.28 72.3666 702.446 72.8109L703.28 66.8691C700.366 66.4601 698.214 65.9189 696.725 65.306L694.441 70.854ZM702.504 72.8184C705.745 73.2096 709.443 73.4 713.583 73.4V67.4C709.616 67.4 706.167 67.217 703.222 66.8616L702.504 72.8184ZM713.583 73.4C717.619 73.4 720.872 73.293 723.301 73.0671L722.745 67.0929C720.587 67.2936 717.547 67.4 713.583 67.4V73.4ZM723.362 73.0608C725.768 72.7874 727.989 72.312 729.547 71.3598L726.419 66.2402C726.057 66.4614 724.971 66.8393 722.684 67.0992L723.362 73.0608ZM729.647 71.2962C731.361 70.1536 732.423 68.4031 732.423 66.24H726.423C726.423 66.2803 726.419 66.2881 726.423 66.2724C726.427 66.2554 726.436 66.2318 726.448 66.2092C726.461 66.1873 726.467 66.1837 726.453 66.1976C726.439 66.2127 726.399 66.2504 726.319 66.3038L729.647 71.2962ZM732.423 66.24C732.423 63.2296 729.981 61.7389 728.081 61.0839L726.125 66.7561C726.378 66.8433 726.544 66.9218 726.646 66.9789C726.748 67.0363 726.758 67.0574 726.722 67.0213C726.681 66.9802 726.596 66.8805 726.525 66.7167C726.452 66.5484 726.423 66.3794 726.423 66.24H732.423ZM728.167 61.115C726.14 60.3461 722.971 59.9376 719.025 59.7244L718.701 65.7156C722.649 65.929 724.973 66.3206 726.039 66.725L728.167 61.115ZM719.025 59.7244C714.998 59.5067 709.388 59.4 702.223 59.4V65.4C709.351 65.4 714.835 65.5066 718.701 65.7156L719.025 59.7244ZM702.223 59.4C696.972 59.4 692.487 59.1633 688.75 58.7025L688.016 64.6575C692.065 65.1567 696.807 65.4 702.223 65.4V59.4ZM688.796 58.7085C685.117 58.1976 682.222 57.4491 680.038 56.5195L677.688 62.0405C680.517 63.2442 683.969 64.0957 687.97 64.6515L688.796 58.7085ZM680.109 56.5509C677.983 55.5802 676.652 54.4867 675.87 53.3838L670.977 56.8562C672.54 59.06 674.837 60.7398 677.617 62.0091L680.109 56.5509ZM675.895 53.4204C675.11 52.2786 674.663 50.8634 674.663 49.04H668.663C668.663 51.9099 669.389 54.548 670.951 56.8196L675.895 53.4204ZM674.663 49.04C674.663 45.7353 675.737 43.2057 677.822 41.2033L673.665 36.8767C670.309 40.101 668.663 44.238 668.663 49.04H674.663ZM677.822 41.2025C680.061 39.0503 683.643 37.2558 688.898 36.0432L687.548 30.1968C681.71 31.5442 676.972 33.6964 673.664 36.8775L677.822 41.2025ZM688.918 36.0384C694.213 34.7777 700.948 34.12 709.183 34.12V28.12C700.671 28.12 693.433 28.7956 687.528 30.2016L688.918 36.0384ZM709.183 34.12C721.239 34.12 730.004 35.8899 735.81 39.1045L738.716 33.8555C731.615 29.9234 721.66 28.12 709.183 28.12V34.12ZM735.836 39.1186C738.741 40.6902 740.757 42.5236 742.055 44.5549C743.342 46.5702 744.023 48.9378 744.023 51.76H750.023C750.023 47.9155 749.077 44.4031 747.111 41.3251C745.155 38.2631 742.292 35.7898 738.69 33.8414L735.836 39.1186ZM747.023 48.76H726.303V54.76H747.023V48.76ZM729.269 51.3106C728.721 47.6945 725.446 45.853 722.2 44.8851L720.486 50.6349C721.799 51.0266 722.568 51.4432 722.98 51.7752C723.173 51.9313 723.259 52.0455 723.294 52.1021C723.325 52.1514 723.333 52.1806 723.337 52.2094L729.269 51.3106ZM722.246 44.8993C718.773 43.8025 714.095 43.32 708.383 43.32V49.32C713.871 49.32 717.833 49.7975 720.44 50.6207L722.246 44.8993ZM708.383 43.32C702.785 43.32 698.366 43.6373 695.296 44.3597L696.67 50.2002C699.04 49.6427 702.888 49.32 708.383 49.32V43.32ZM695.283 44.3628C693.741 44.7329 692.245 45.3057 691.081 46.2602C689.81 47.3026 688.983 48.7774 688.983 50.56H694.983C694.983 50.6209 694.966 50.7287 694.911 50.8374C694.86 50.9372 694.822 50.9518 694.885 50.8998C695.055 50.761 695.558 50.4671 696.683 50.1972L695.283 44.3628ZM688.983 50.56C688.983 52.5066 689.987 54.0432 691.481 55.0035L694.725 49.9565C694.672 49.9223 694.76 49.9659 694.854 50.1284C694.957 50.3036 694.983 50.4726 694.983 50.56H688.983ZM691.481 55.0035C692.761 55.8263 694.547 56.3035 696.422 56.6343L697.464 50.7256C695.712 50.4165 694.939 50.0937 694.725 49.9565L691.481 55.0035ZM696.519 56.6498C698.547 56.9396 701.289 57.1306 704.688 57.2385L704.878 51.2415C701.557 51.1361 699.072 50.9537 697.367 50.7102L696.519 56.6498ZM704.688 57.2385C708.092 57.3465 712.393 57.4 717.583 57.4V51.4C712.427 51.4 708.194 51.3468 704.878 51.2415L704.688 57.2385ZM717.583 57.4C723.198 57.4 727.897 57.6893 731.708 58.2482L732.578 52.3118C728.389 51.6973 723.381 51.4 717.583 51.4V57.4ZM731.747 58.2537C735.583 58.7653 738.491 59.5369 740.577 60.4891L743.069 55.0309C740.248 53.7431 736.703 52.8614 732.54 52.3063L731.747 58.2537ZM740.599 60.499C742.736 61.4537 744.013 62.5613 744.732 63.6906L749.794 60.4694C748.273 58.0787 745.924 56.3063 743.047 55.021L740.599 60.499ZM744.755 63.726C745.508 64.8736 745.943 66.3084 745.943 68.16H751.943C751.943 65.3183 751.258 62.6997 749.771 60.434L744.755 63.726ZM745.943 68.16C745.943 71.5217 744.91 74.0308 742.982 75.9587L747.224 80.2013C750.416 77.0092 751.943 72.905 751.943 68.16H745.943ZM742.982 75.9587C740.995 77.9455 737.575 79.6631 732.295 80.8308L733.591 86.6892C739.404 85.4036 744.091 83.3345 747.224 80.2013L742.982 75.9587ZM732.295 80.8308C727.047 81.9915 720.035 82.6 711.183 82.6V88.6C720.251 88.6 727.746 87.9818 733.591 86.6892L732.295 80.8308ZM711.183 82.6C706.23 82.6 701.702 82.3131 697.592 81.748L696.774 87.692C701.198 88.3002 706.003 88.6 711.183 88.6V82.6ZM697.597 81.7487C693.531 81.1826 689.96 80.3667 686.865 79.3186L684.941 85.0014C688.459 86.1933 692.408 87.0841 696.769 87.6913L697.597 81.7487ZM686.906 79.3327C683.806 78.2325 681.273 76.9393 679.257 75.4865L675.749 80.3535C678.32 82.2074 681.387 83.7408 684.9 84.9873L686.906 79.3327ZM679.294 75.5133C677.263 74.002 675.797 72.3947 674.807 70.716L669.639 73.764C671.102 76.2453 673.156 78.4246 675.712 80.3267L679.294 75.5133ZM674.852 70.7942C673.935 69.1269 673.463 67.2814 673.463 65.2H667.463C667.463 68.2386 668.165 71.0865 669.594 73.6858L674.852 70.7942ZM774.836 50.48V47.48H771.836V50.48H774.836ZM831.156 50.48H834.156V47.48H831.156V50.48ZM831.156 65.68V68.68H834.156V65.68H831.156ZM774.836 65.68H771.836V68.68H774.836V65.68ZM828.916 32.8V29.8H825.916V32.8H828.916ZM848.916 32.8H851.916V29.8H848.916V32.8ZM848.916 84V87H851.916V84H848.916ZM828.916 84H825.916V87H828.916V84ZM757.716 32.8V29.8H754.716V32.8H757.716ZM777.716 32.8H780.716V29.8H777.716V32.8ZM777.716 84V87H780.716V84H777.716ZM757.716 84H754.716V87H757.716V84ZM774.836 53.48H831.156V47.48H774.836V53.48ZM828.156 50.48V65.68H834.156V50.48H828.156ZM831.156 62.68H774.836V68.68H831.156V62.68ZM777.836 65.68V50.48H771.836V65.68H777.836ZM828.916 35.8H848.916V29.8H828.916V35.8ZM845.916 32.8V84H851.916V32.8H845.916ZM848.916 81H828.916V87H848.916V81ZM831.916 84V32.8H825.916V84H831.916ZM757.716 35.8H777.716V29.8H757.716V35.8ZM774.716 32.8V84H780.716V32.8H774.716ZM777.716 81H757.716V87H777.716V81ZM760.716 84V32.8H754.716V84H760.716ZM879.658 82.56L878.814 85.4388L878.824 85.4417L878.834 85.4446L879.658 82.56ZM864.138 73.44L861.783 75.2989L861.797 75.316L861.811 75.3329L864.138 73.44ZM864.138 43.44L861.798 41.5622L861.795 41.5659L864.138 43.44ZM879.658 34.32L880.482 37.2046L880.492 37.2017L880.502 37.1988L879.658 34.32ZM935.818 34.32L934.974 37.1988L934.984 37.2017L934.994 37.2046L935.818 34.32ZM951.258 43.44L948.903 45.2989L948.917 45.316L948.931 45.3329L951.258 43.44ZM951.258 73.44L948.918 71.5622L948.915 71.5659L951.258 73.44ZM935.818 82.56L936.642 85.4446L936.652 85.4417L936.662 85.4388L935.818 82.56ZM921.978 69.44L922.452 72.4023L922.471 72.3992L922.49 72.3959L921.978 69.44ZM931.258 65.84L933.104 68.2049L933.122 68.1911L933.139 68.177L931.258 65.84ZM931.258 51.04L929.377 53.377L929.395 53.3911L929.412 53.4049L931.258 51.04ZM921.978 47.44L921.466 50.3959L921.485 50.3992L921.504 50.4023L921.978 47.44ZM893.258 47.44L893.72 50.4042L893.736 50.4018L893.751 50.3992L893.258 47.44ZM883.578 51.04L885.369 53.4467L885.378 53.44L883.578 51.04ZM883.578 65.84L881.752 68.2199L881.782 68.2435L881.814 68.2662L883.578 65.84ZM893.258 69.44L892.759 72.3981L892.78 72.4018L892.802 72.4051L893.258 69.44ZM907.738 82.6C896.25 82.6 887.2 81.5947 880.482 79.6754L878.834 85.4446C886.303 87.5787 895.973 88.6 907.738 88.6V82.6ZM880.502 79.6812C873.75 77.7011 869.202 74.9122 866.465 71.5471L861.811 75.3329C865.58 79.9678 871.38 83.2589 878.814 85.4388L880.502 79.6812ZM866.493 71.5811C863.774 68.1379 862.338 63.8094 862.338 58.4H856.338C856.338 64.9373 858.102 70.6354 861.783 75.2989L866.493 71.5811ZM862.338 58.4C862.338 52.9895 863.775 48.6966 866.481 45.3141L861.795 41.5659C858.101 46.1834 856.338 51.8638 856.338 58.4H862.338ZM866.478 45.3178C869.21 41.9135 873.745 39.1296 880.482 37.2046L878.834 31.4354C871.385 33.5637 865.573 36.8598 861.798 41.5622L866.478 45.3178ZM880.502 37.1988C887.211 35.2315 896.254 34.2 907.738 34.2V28.2C895.969 28.2 886.292 29.2485 878.814 31.4412L880.502 37.1988ZM907.738 34.2C919.222 34.2 928.265 35.2315 934.974 37.1988L936.662 31.4412C929.185 29.2485 919.507 28.2 907.738 28.2V34.2ZM934.994 37.2046C941.732 39.1298 946.228 41.9105 948.903 45.2989L953.613 41.5811C949.888 36.8628 944.091 33.5636 936.642 31.4354L934.994 37.2046ZM948.931 45.3329C951.682 48.7153 953.138 53.0014 953.138 58.4H959.138C959.138 51.8519 957.341 46.1647 953.585 41.5471L948.931 45.3329ZM953.138 58.4C953.138 63.7976 951.682 68.1193 948.918 71.5622L953.598 75.3178C957.341 70.654 959.138 64.9491 959.138 58.4H953.138ZM948.915 71.5659C946.236 74.9152 941.727 77.701 934.974 79.6812L936.662 85.4388C944.096 83.259 949.88 79.9648 953.601 75.3141L948.915 71.5659ZM934.994 79.6754C928.277 81.5947 919.227 82.6 907.738 82.6V88.6C919.503 88.6 929.173 87.5787 936.642 85.4446L934.994 79.6754ZM907.738 73.4C913.338 73.4 918.251 73.0744 922.452 72.4023L921.504 66.4777C917.705 67.0856 913.124 67.4 907.738 67.4V73.4ZM922.49 72.3959C926.767 71.6546 930.389 70.3236 933.104 68.2049L929.412 63.4751C927.753 64.7698 925.189 65.8387 921.466 66.4841L922.49 72.3959ZM933.139 68.177C936.138 65.7633 937.538 62.3648 937.538 58.4H931.538C931.538 60.8352 930.752 62.3967 929.377 63.503L933.139 68.177ZM937.538 58.4C937.538 54.4364 936.137 51.0421 933.104 48.6751L929.412 53.4049C930.753 54.4512 931.538 55.9636 931.538 58.4H937.538ZM933.139 48.703C930.405 46.5022 926.753 45.1658 922.452 44.4777L921.504 50.4023C925.203 50.9942 927.738 52.0578 929.377 53.377L933.139 48.703ZM922.49 44.4841C918.274 43.7532 913.347 43.4 907.738 43.4V49.4C913.115 49.4 917.682 49.7401 921.466 50.3959L922.49 44.4841ZM907.738 43.4C902.126 43.4 897.128 43.7536 892.765 44.4808L893.751 50.3992C897.708 49.7397 902.363 49.4 907.738 49.4V43.4ZM892.796 44.4758C888.394 45.1618 884.647 46.488 881.778 48.64L885.378 53.44C887.202 52.072 889.909 50.9982 893.72 50.4042L892.796 44.4758ZM881.787 48.6333C878.634 50.9795 877.138 54.382 877.138 58.4H883.138C883.138 56.018 883.935 54.5138 885.369 53.4467L881.787 48.6333ZM877.138 58.4C877.138 62.4182 878.632 65.8259 881.752 68.2199L885.404 63.4601C883.937 62.3341 883.138 60.7818 883.138 58.4H877.138ZM881.814 68.2662C884.662 70.3379 888.38 71.6589 892.759 72.3981L893.757 66.4819C889.923 65.8344 887.187 64.7554 885.343 63.4138L881.814 68.2662ZM892.802 72.4051C897.15 73.0741 902.135 73.4 907.738 73.4V67.4C902.354 67.4 897.686 67.0859 893.714 66.4749L892.802 72.4051ZM985.104 70.8H982.104V73.8H985.104V70.8ZM985.104 56.8V53.8H982.104V56.8H985.104ZM1029.02 56.08L1030.26 58.8158L1030.28 58.8025L1030.31 58.7886L1029.02 56.08ZM1029.02 49.52L1027.79 52.2558L1027.82 52.2668L1027.84 52.2774L1029.02 49.52ZM986.384 48.8V45.8H983.384V48.8H986.384ZM986.384 84V87H989.384V84H986.384ZM966.384 84H963.384V87H966.384V84ZM966.384 32.8V29.8H963.384V32.8H966.384ZM1033.1 33.68L1032.6 36.6379L1032.63 36.6423L1032.65 36.6461L1033.1 33.68ZM1048.46 42.72L1051.07 41.2316V41.2316L1048.46 42.72ZM1048.46 62.56L1051.01 64.1449L1048.46 62.56ZM1033.1 70.24L1032.79 67.2567L1032.78 67.2572L1033.1 70.24ZM988.104 70.8V56.8H982.104V70.8H988.104ZM985.104 59.8H1025.02V53.8H985.104V59.8ZM1025.02 59.8C1026.9 59.8 1028.69 59.5215 1030.26 58.8158L1027.79 53.3442C1027.23 53.5985 1026.35 53.8 1025.02 53.8V59.8ZM1030.31 58.7886C1032.83 57.5883 1033.7 55.1559 1033.7 52.8H1027.7C1027.7 53.3081 1027.62 53.4896 1027.61 53.4924C1027.61 53.4924 1027.62 53.49 1027.62 53.4857C1027.62 53.4813 1027.62 53.4754 1027.63 53.4682C1027.64 53.4533 1027.66 53.4365 1027.67 53.4197C1027.71 53.3831 1027.74 53.3695 1027.73 53.3714L1030.31 58.7886ZM1033.7 52.8C1033.7 50.4609 1032.87 47.9046 1030.21 46.7626L1027.84 52.2774C1027.82 52.2682 1027.77 52.2401 1027.71 52.1847C1027.65 52.1296 1027.62 52.0811 1027.61 52.0676C1027.61 52.0589 1027.7 52.2475 1027.7 52.8H1033.7ZM1030.26 46.7842C1028.69 46.0785 1026.9 45.8 1025.02 45.8V51.8C1026.35 51.8 1027.23 52.0015 1027.79 52.2558L1030.26 46.7842ZM1025.02 45.8H986.384V51.8H1025.02V45.8ZM983.384 48.8V84H989.384V48.8H983.384ZM986.384 81H966.384V87H986.384V81ZM969.384 84V32.8H963.384V84H969.384ZM966.384 35.8H1021.9V29.8H966.384V35.8ZM1021.9 35.8C1025.76 35.8 1029.32 36.0828 1032.6 36.6379L1033.6 30.7221C1029.95 30.1039 1026.05 29.8 1021.9 29.8V35.8ZM1032.65 36.6461C1035.89 37.1364 1038.61 38.0279 1040.86 39.2675L1043.75 34.0125C1040.78 32.3721 1037.36 31.2903 1033.55 30.7139L1032.65 36.6461ZM1040.86 39.2675C1042.98 40.4389 1044.64 42.0695 1045.86 44.2084L1051.07 41.2316C1049.3 38.1439 1046.85 35.7211 1043.75 34.0125L1040.86 39.2675ZM1045.86 44.2084C1047.02 46.2328 1047.7 49.0331 1047.7 52.8H1053.7C1053.7 48.3535 1052.9 44.4338 1051.07 41.2316L1045.86 44.2084ZM1047.7 52.8C1047.7 56.5858 1047.01 59.2196 1045.92 60.9751L1051.01 64.1449C1052.91 61.1004 1053.7 57.2275 1053.7 52.8H1047.7ZM1045.92 60.9751C1044.74 62.8614 1043.15 64.2507 1041.08 65.1832L1043.53 70.6568C1046.68 69.2426 1049.2 67.0586 1051.01 64.1449L1045.92 60.9751ZM1041.08 65.1832C1038.81 66.2003 1036.06 66.9093 1032.79 67.2567L1033.42 73.2233C1037.18 72.8241 1040.57 71.9864 1043.53 70.6568L1041.08 65.1832ZM1032.78 67.2572C1029.44 67.6176 1025.81 67.8 1021.9 67.8V73.8C1026 73.8 1029.84 73.6091 1033.43 73.2228L1032.78 67.2572ZM1021.9 67.8H985.104V73.8H1021.9V67.8ZM1057.89 65.2V62.2H1054.89V65.2H1057.89ZM1079.72 65.2L1082.57 64.2513L1081.89 62.2H1079.72V65.2ZM1083.01 68.08L1081.79 70.8248L1081.83 70.8398L1081.86 70.854L1083.01 68.08ZM1090.28 69.84L1089.87 72.8109L1089.9 72.8149L1089.93 72.8184L1090.28 69.84ZM1110.44 70.08L1110.72 73.0671L1110.75 73.0643L1110.78 73.0608L1110.44 70.08ZM1115.4 68.8L1116.97 71.3598L1117.02 71.329L1117.07 71.2962L1115.4 68.8ZM1114.52 63.92L1113.46 66.725L1113.5 66.7412L1113.55 66.7561L1114.52 63.92ZM1106.28 62.72L1106.12 65.7156L1106.28 62.72ZM1075.8 61.68L1075.39 64.6515L1075.42 64.6546L1075.44 64.6575L1075.8 61.68ZM1066.28 59.28L1065.04 62.0091L1065.07 62.0252L1065.11 62.0405L1066.28 59.28ZM1060.84 55.12L1058.37 56.8196L1058.39 56.838L1058.4 56.8562L1060.84 55.12ZM1063.16 39.04L1065.24 41.2033L1065.24 41.2025L1063.16 39.04ZM1075.65 33.12L1076.32 36.0432L1076.33 36.0408L1076.34 36.0384L1075.65 33.12ZM1124.68 36.48L1123.23 39.1045L1123.24 39.1116L1123.26 39.1186L1124.68 36.48ZM1134.44 51.76V54.76H1137.44V51.76H1134.44ZM1113.72 51.76L1110.76 52.2094L1111.15 54.76H1113.72V51.76ZM1108.77 47.76L1107.86 50.6207L1107.88 50.628L1107.91 50.6349L1108.77 47.76ZM1083.4 47.28L1082.72 44.3597L1082.7 44.3628L1083.4 47.28ZM1084.36 53.68L1083.84 56.6343L1083.89 56.6429L1083.94 56.6498L1084.36 53.68ZM1119.56 55.28L1119.13 58.2482L1119.15 58.2511L1119.17 58.2537L1119.56 55.28ZM1129.24 57.76L1128 60.4891L1128.01 60.4941L1128.02 60.499L1129.24 57.76ZM1134.68 62.08L1132.15 63.6906L1132.17 63.7084L1132.18 63.726L1134.68 62.08ZM1132.53 78.08L1134.65 80.2013V80.2013L1132.53 78.08ZM1120.36 83.76L1121.01 86.6892L1120.36 83.76ZM1084.6 84.72L1084.19 87.6913L1084.2 87.692L1084.6 84.72ZM1073.32 82.16L1072.32 84.9873L1072.34 84.9945L1072.36 85.0014L1073.32 82.16ZM1064.92 77.92L1063.13 80.3267L1063.15 80.3403L1063.17 80.3535L1064.92 77.92ZM1059.65 72.24L1057.02 73.6858L1057.04 73.7252L1057.06 73.764L1059.65 72.24ZM1057.89 68.2H1079.72V62.2H1057.89V68.2ZM1076.88 66.1487C1077.65 68.4753 1079.71 69.905 1081.79 70.8248L1084.22 65.3352C1083.49 65.0172 1083.06 64.7259 1082.8 64.5057C1082.56 64.2954 1082.55 64.2021 1082.57 64.2513L1076.88 66.1487ZM1081.86 70.854C1084 71.7345 1086.7 72.3666 1089.87 72.8109L1090.7 66.8691C1087.79 66.4601 1085.64 65.9189 1084.15 65.306L1081.86 70.854ZM1089.93 72.8184C1093.17 73.2096 1096.87 73.4 1101.01 73.4V67.4C1097.04 67.4 1093.59 67.217 1090.64 66.8616L1089.93 72.8184ZM1101.01 73.4C1105.04 73.4 1108.29 73.293 1110.72 73.0671L1110.17 67.0929C1108.01 67.2936 1104.97 67.4 1101.01 67.4V73.4ZM1110.78 73.0608C1113.19 72.7874 1115.41 72.312 1116.97 71.3598L1113.84 66.2402C1113.48 66.4614 1112.39 66.8393 1110.11 67.0992L1110.78 73.0608ZM1117.07 71.2962C1118.78 70.1536 1119.84 68.4031 1119.84 66.24H1113.84C1113.84 66.2803 1113.84 66.2881 1113.84 66.2724C1113.85 66.2554 1113.86 66.2318 1113.87 66.2092C1113.88 66.1873 1113.89 66.1837 1113.88 66.1976C1113.86 66.2127 1113.82 66.2504 1113.74 66.3038L1117.07 71.2962ZM1119.84 66.24C1119.84 63.2296 1117.4 61.7389 1115.5 61.0839L1113.55 66.7561C1113.8 66.8433 1113.97 66.9218 1114.07 66.9789C1114.17 67.0363 1114.18 67.0574 1114.14 67.0213C1114.1 66.9802 1114.02 66.8805 1113.95 66.7167C1113.87 66.5484 1113.84 66.3794 1113.84 66.24H1119.84ZM1115.59 61.115C1113.56 60.3461 1110.39 59.9376 1106.45 59.7244L1106.12 65.7156C1110.07 65.929 1112.39 66.3206 1113.46 66.725L1115.59 61.115ZM1106.45 59.7244C1102.42 59.5067 1096.81 59.4 1089.65 59.4V65.4C1096.77 65.4 1102.26 65.5066 1106.12 65.7156L1106.45 59.7244ZM1089.65 59.4C1084.39 59.4 1079.91 59.1633 1076.17 58.7025L1075.44 64.6575C1079.49 65.1567 1084.23 65.4 1089.65 65.4V59.4ZM1076.22 58.7085C1072.54 58.1976 1069.64 57.4491 1067.46 56.5195L1065.11 62.0405C1067.94 63.2442 1071.39 64.0957 1075.39 64.6515L1076.22 58.7085ZM1067.53 56.5509C1065.4 55.5802 1064.07 54.4867 1063.29 53.3838L1058.4 56.8562C1059.96 59.06 1062.26 60.7398 1065.04 62.0091L1067.53 56.5509ZM1063.32 53.4204C1062.53 52.2786 1062.08 50.8634 1062.08 49.04H1056.08C1056.08 51.9099 1056.81 54.548 1058.37 56.8196L1063.32 53.4204ZM1062.08 49.04C1062.08 45.7353 1063.16 43.2057 1065.24 41.2033L1061.09 36.8767C1057.73 40.101 1056.08 44.238 1056.08 49.04H1062.08ZM1065.24 41.2025C1067.48 39.0503 1071.06 37.2558 1076.32 36.0432L1074.97 30.1968C1069.13 31.5442 1064.39 33.6964 1061.09 36.8775L1065.24 41.2025ZM1076.34 36.0384C1081.63 34.7777 1088.37 34.12 1096.6 34.12V28.12C1088.09 28.12 1080.85 28.7956 1074.95 30.2016L1076.34 36.0384ZM1096.6 34.12C1108.66 34.12 1117.43 35.8899 1123.23 39.1045L1126.14 33.8555C1119.04 29.9234 1109.08 28.12 1096.6 28.12V34.12ZM1123.26 39.1186C1126.16 40.6902 1128.18 42.5236 1129.48 44.5549C1130.76 46.5702 1131.44 48.9378 1131.44 51.76H1137.44C1137.44 47.9155 1136.5 44.4031 1134.53 41.3251C1132.58 38.2631 1129.71 35.7898 1126.11 33.8414L1123.26 39.1186ZM1134.44 48.76H1113.72V54.76H1134.44V48.76ZM1116.69 51.3106C1116.14 47.6945 1112.87 45.853 1109.62 44.8851L1107.91 50.6349C1109.22 51.0266 1109.99 51.4432 1110.4 51.7752C1110.6 51.9313 1110.68 52.0455 1110.72 52.1021C1110.75 52.1514 1110.75 52.1806 1110.76 52.2094L1116.69 51.3106ZM1109.67 44.8993C1106.2 43.8025 1101.52 43.32 1095.8 43.32V49.32C1101.29 49.32 1105.25 49.7975 1107.86 50.6207L1109.67 44.8993ZM1095.8 43.32C1090.21 43.32 1085.79 43.6373 1082.72 44.3597L1084.09 50.2002C1086.46 49.6427 1090.31 49.32 1095.8 49.32V43.32ZM1082.7 44.3628C1081.16 44.7329 1079.67 45.3057 1078.5 46.2602C1077.23 47.3026 1076.4 48.7774 1076.4 50.56H1082.4C1082.4 50.6209 1082.39 50.7287 1082.33 50.8374C1082.28 50.9372 1082.24 50.9518 1082.31 50.8998C1082.48 50.761 1082.98 50.4671 1084.11 50.1972L1082.7 44.3628ZM1076.4 50.56C1076.4 52.5066 1077.41 54.0432 1078.9 55.0035L1082.15 49.9565C1082.09 49.9223 1082.18 49.9659 1082.28 50.1284C1082.38 50.3036 1082.4 50.4726 1082.4 50.56H1076.4ZM1078.9 55.0035C1080.18 55.8263 1081.97 56.3035 1083.84 56.6343L1084.89 50.7256C1083.13 50.4165 1082.36 50.0937 1082.15 49.9565L1078.9 55.0035ZM1083.94 56.6498C1085.97 56.9396 1088.71 57.1306 1092.11 57.2385L1092.3 51.2415C1088.98 51.1361 1086.49 50.9537 1084.79 50.7102L1083.94 56.6498ZM1092.11 57.2385C1095.51 57.3465 1099.81 57.4 1105.01 57.4V51.4C1099.85 51.4 1095.62 51.3468 1092.3 51.2415L1092.11 57.2385ZM1105.01 57.4C1110.62 57.4 1115.32 57.6893 1119.13 58.2482L1120 52.3118C1115.81 51.6973 1110.8 51.4 1105.01 51.4V57.4ZM1119.17 58.2537C1123.01 58.7653 1125.91 59.5369 1128 60.4891L1130.49 55.0309C1127.67 53.7431 1124.12 52.8614 1119.96 52.3063L1119.17 58.2537ZM1128.02 60.499C1130.16 61.4537 1131.44 62.5613 1132.15 63.6906L1137.22 60.4694C1135.69 58.0787 1133.35 56.3063 1130.47 55.021L1128.02 60.499ZM1132.18 63.726C1132.93 64.8736 1133.36 66.3084 1133.36 68.16H1139.36C1139.36 65.3183 1138.68 62.6997 1137.19 60.434L1132.18 63.726ZM1133.36 68.16C1133.36 71.5217 1132.33 74.0308 1130.4 75.9587L1134.65 80.2013C1137.84 77.0092 1139.36 72.905 1139.36 68.16H1133.36ZM1130.4 75.9587C1128.42 77.9455 1125 79.6631 1119.72 80.8308L1121.01 86.6892C1126.83 85.4036 1131.51 83.3345 1134.65 80.2013L1130.4 75.9587ZM1119.72 80.8308C1114.47 81.9915 1107.46 82.6 1098.6 82.6V88.6C1107.67 88.6 1115.17 87.9818 1121.01 86.6892L1119.72 80.8308ZM1098.6 82.6C1093.65 82.6 1089.12 82.3131 1085.01 81.748L1084.2 87.692C1088.62 88.3002 1093.42 88.6 1098.6 88.6V82.6ZM1085.02 81.7487C1080.95 81.1826 1077.38 80.3667 1074.29 79.3186L1072.36 85.0014C1075.88 86.1933 1079.83 87.0841 1084.19 87.6913L1085.02 81.7487ZM1074.33 79.3327C1071.23 78.2325 1068.69 76.9393 1066.68 75.4865L1063.17 80.3535C1065.74 82.2074 1068.81 83.7408 1072.32 84.9873L1074.33 79.3327ZM1066.72 75.5133C1064.69 74.002 1063.22 72.3947 1062.23 70.716L1057.06 73.764C1058.52 76.2453 1060.58 78.4246 1063.13 80.3267L1066.72 75.5133ZM1062.27 70.7942C1061.36 69.1269 1060.89 67.2814 1060.89 65.2H1054.89C1054.89 68.2386 1055.59 71.0865 1057.02 73.6858L1062.27 70.7942Z" fill="black"/>
</svg>
