<svg width="123" height="128" viewBox="0 0 123 128" fill="none" xmlns="http://www.w3.org/2000/svg">
<path d="M120.342 83.599C122.688 83.9042 123.468 81.3682 121.353 80.3128C114.002 76.6637 105.902 72.9808 97.0796 69.4115C88.5681 65.9723 80.4671 63.0989 72.9019 60.6679C71.7574 60.3043 71.0607 59.2919 71.3301 58.3685C73.9577 49.5881 76.3669 40.0929 78.3813 29.8863C80.2577 20.366 81.5943 11.2232 82.4982 2.53724C82.703 0.541415 79.2728 -0.513632 78.3072 1.2482C73.8508 9.41976 70.075 17.8007 66.5261 26.2514C62.7688 35.332 59.4152 44.5253 56.3653 53.8235C56.0757 54.7175 54.9471 55.1569 53.8062 54.8291C45.5592 52.4775 37.2339 50.3332 28.8439 48.4466C20.1007 46.5208 11.2825 44.7916 2.30854 43.616C-0.037394 43.3108 -0.817425 45.8469 1.2945 46.9128C9.37788 50.9837 17.6436 54.5092 25.9578 57.8299C33.9577 60.9845 42.0357 63.8855 50.1787 66.5752C51.3067 66.9453 51.9799 67.9389 51.7303 68.8453C49.0275 78.2502 46.6349 87.739 44.626 97.3574C42.7635 106.5 41.1646 115.736 40.2764 125.178C40.0882 127.168 43.505 128.219 44.4673 126.468C49.0393 118.158 52.9071 109.62 56.5048 101.011C60.2454 91.9369 63.6124 82.7478 66.6489 73.4455C66.9385 72.5514 68.0671 72.112 69.2081 72.4398C77.4518 74.802 85.767 76.9316 94.1538 78.8288C102.787 80.7323 111.465 82.4416 120.326 83.6055L120.342 83.599Z" fill="black"/>
</svg>
