<svg width="190" height="336" viewBox="0 0 190 336" fill="none" xmlns="http://www.w3.org/2000/svg">
<path d="M188.503 143.314C187.331 135.914 82.6299 152.504 82.6299 152.504L47.1217 158.13L57.7408 142.581C57.7408 142.581 98.8111 82.4415 93.0461 77.9918C87.2811 73.5421 46.2109 133.681 46.2109 133.681L35.5918 149.231L29.6284 111.595C29.6284 111.595 12.0443 0.619407 5.06276 1.72563C-1.9188 2.83186 15.6653 113.807 15.6653 113.807L21.6287 151.443L6.72281 139.938C6.72281 139.938 -50.927 95.4412 -55.034 101.455C-59.1411 107.469 -1.49124 151.966 -1.49124 151.966L13.4146 163.471L-22.0935 169.097C-22.0935 169.097 -126.795 185.687 -125.622 193.087C-124.45 200.487 -19.7484 183.897 -19.7484 183.897L15.7597 178.271L5.14059 193.82C5.14059 193.82 -35.9297 253.959 -30.1647 258.409C-24.3997 262.859 16.6706 202.72 16.6706 202.72L27.2896 187.17L33.253 224.806C33.253 224.806 50.8371 335.781 57.8186 334.675C64.8002 333.569 47.2161 222.594 47.2161 222.594L41.2527 184.958L56.1586 196.463C56.1586 196.463 113.808 240.96 117.915 234.946C122.022 228.932 64.3726 184.435 64.3726 184.435L49.4668 172.93L84.9749 167.304C84.9749 167.304 189.676 150.714 188.503 143.314Z" fill="white" stroke="black" stroke-width="2.35" stroke-linecap="round" stroke-linejoin="round"/>
</svg>
