<svg width="212" height="211" viewBox="0 0 212 211" fill="none" xmlns="http://www.w3.org/2000/svg">
<path d="M209.393 96.5656C208.982 91.9688 139.94 97.8744 139.94 97.8744L116.526 99.8773L124.19 90.7544C124.19 90.7544 153.83 55.4706 150.285 52.499C146.739 49.5275 117.098 84.8113 117.098 84.8113L109.434 93.9342L107.342 70.5549C107.342 70.5549 101.173 1.61768 96.5697 2.01147C91.966 2.40527 98.1348 71.3425 98.1348 71.3425L100.227 94.7218L91.0591 87.0386C91.0591 87.0386 55.6021 57.3231 52.6381 60.8515C49.674 64.3799 85.131 94.0953 85.131 94.0953L94.2987 101.779L70.8841 103.781C70.8841 103.781 1.84249 109.687 2.25383 114.284C2.66517 118.881 71.7068 112.975 71.7068 112.975L95.1214 110.972L87.4576 120.095C87.4576 120.095 57.8169 155.379 61.3626 158.35C64.9083 161.322 94.549 126.038 94.549 126.038L102.213 116.915L104.305 140.294C104.305 140.294 110.474 209.232 115.077 208.838C119.681 208.444 113.512 139.507 113.512 139.507L111.42 116.128L120.588 123.811C120.588 123.811 156.045 153.526 159.009 149.998C161.973 146.47 126.516 116.754 126.516 116.754L117.348 109.071L140.763 107.068C140.763 107.068 209.805 101.162 209.393 96.5656Z" fill="#FCF43D" stroke="black" stroke-width="4" stroke-linecap="round" stroke-linejoin="round"/>
</svg>
