<svg width="193" height="220" viewBox="0 0 193 220" fill="none" xmlns="http://www.w3.org/2000/svg">
<path d="M126.683 124.355C125.311 122.875 126.078 120.334 127.988 120.106C136.699 119.045 145.395 117.762 154.071 116.202C168.865 113.467 183.604 110.179 198.242 105.248C200.519 104.474 200.262 100.837 197.899 100.392C182.712 97.5699 167.657 96.3896 152.626 95.7644C143.816 95.4412 135.01 95.3961 126.236 95.5714C124.312 95.6147 123.196 93.2074 124.346 91.5489C126.354 88.6423 128.345 85.7369 130.262 82.7439C135.904 73.8841 141.312 64.8182 146.085 55.1292C147.252 52.7645 144.66 50.276 142.678 51.882C134.626 58.4445 127.226 65.6104 120.043 73.0021C117.62 75.5299 115.268 78.1083 112.934 80.704C111.603 82.1897 109.276 81.3152 109.044 79.2165C107.943 69.6275 106.657 60.0517 105.136 50.4925C102.449 34.2434 99.2594 18.0485 94.6053 1.93855C93.8871 -0.571147 90.5414 -0.334499 90.1835 2.2513C87.8434 18.8559 86.9647 35.3386 86.5917 51.8041C86.4146 61.4835 86.4896 71.1449 86.7664 80.7922C86.8312 82.9028 84.6514 84.096 83.1244 82.8124C80.4482 80.5711 77.7565 78.3494 75.0015 76.1879C66.8503 69.8808 58.5144 63.8279 49.6189 58.4641C47.4478 57.1519 45.2135 59.9632 46.7036 62.1585C52.7923 71.0792 59.4224 79.2937 66.2555 87.2711C68.5918 89.9632 70.9734 92.5779 73.3704 95.173C74.7424 96.6531 73.9759 99.1935 72.0657 99.4214C63.3388 100.503 54.6263 101.787 45.9321 103.329C31.1547 106.063 16.4332 109.349 1.80861 114.243C-0.469791 114.998 -0.209933 118.672 2.15204 119.099C17.3199 121.885 32.3573 123.066 47.3724 123.693C56.1817 124.016 64.9882 124.061 73.7623 123.886C75.6855 123.843 76.802 126.25 75.652 127.908C73.6441 130.815 71.6543 133.739 69.7357 136.713C64.078 145.593 58.6546 154.678 53.8848 164.404C52.7172 166.769 55.3082 169.239 57.2911 167.652C65.3598 161.088 72.7931 153.901 79.9909 146.49C82.3987 143.982 84.7522 141.422 87.0694 138.827C88.4006 137.341 90.7267 138.216 90.9596 140.315C92.0421 149.886 93.3264 159.444 94.8629 168.983C97.5511 185.251 100.742 201.464 105.431 217.59C106.166 220.099 109.479 219.864 109.853 217.277C112.226 200.652 113.103 184.151 113.475 167.667C113.653 158.006 113.579 148.363 113.304 138.734C113.239 136.624 115.419 135.43 116.946 136.714C119.605 138.956 122.296 141.16 125.033 143.304C133.202 149.628 141.556 155.698 150.485 161.06C152.656 162.372 154.874 159.562 153.4 157.366C147.31 148.426 140.661 140.176 133.81 132.181C131.491 129.507 129.127 126.891 126.731 124.314L126.683 124.355Z" fill="black"/>
</svg>
