<svg width="341" height="377" viewBox="0 0 341 377" fill="none" xmlns="http://www.w3.org/2000/svg">
<path d="M433.465 242.81C435.552 234.451 291.384 198.456 291.384 198.456L242.491 186.249L263.88 175.357C263.88 175.357 346.601 133.229 341.28 125.622C335.959 118.015 253.237 160.143 253.237 160.143L231.849 171.036L242.463 128.523C242.463 128.523 273.761 3.16783 264.148 0.767656C254.535 -1.63251 223.237 123.723 223.237 123.723L212.623 166.235L198.865 146.568C198.865 146.568 145.653 70.5012 137.381 74.714C129.109 78.9268 182.32 154.993 182.32 154.993L196.079 174.661L147.186 162.454C147.186 162.454 3.01807 126.459 0.931092 134.818C-1.15588 143.176 143.012 179.171 143.012 179.171L191.905 191.379L170.516 202.271C170.516 202.271 87.7952 244.399 93.1163 252.006C98.4374 259.612 181.159 217.484 181.159 217.484L202.547 206.592L191.932 249.105C191.932 249.105 160.634 374.46 170.248 376.86C179.861 379.26 211.159 253.905 211.159 253.905L221.773 211.392L235.531 231.06C235.531 231.06 288.742 307.127 297.015 302.914C305.287 298.701 252.076 222.634 252.076 222.634L238.317 202.967L287.21 215.174C287.21 215.174 431.378 251.169 433.465 242.81Z" fill="black"/>
</svg>
