<svg width="121" height="165" viewBox="0 0 121 165" fill="none" xmlns="http://www.w3.org/2000/svg">
<path d="M118.467 84.2023C120.647 83.7093 120.643 80.4393 118.462 79.9649C110.888 78.3383 102.634 76.9442 93.7679 75.9459C85.2148 74.9882 77.1845 74.5476 69.7552 74.4333C68.6323 74.4209 67.7303 73.4818 67.7159 72.2964C67.6379 61.0012 67.1674 48.9434 66.1477 36.1913C65.1942 24.2976 63.8629 13.0446 62.2711 2.48686C61.9028 0.0619871 58.5473 0.0657628 58.1714 2.49148C56.4475 13.7342 55.3895 24.9762 54.5535 36.218C53.7053 48.2773 53.2488 60.3225 53.0927 72.381C53.0809 73.5392 52.1941 74.4667 51.0843 74.4952C43.0679 74.7222 35.0386 75.2218 27.0228 76.0483C18.6807 76.9569 10.3258 78.1245 1.98478 80.0005C-0.195116 80.4935 -0.191436 83.7635 1.98956 84.2516C10.3348 86.1089 18.6923 87.2576 27.0364 88.1475C35.0541 88.956 43.0714 89.4375 51.0883 89.6465C52.1982 89.6725 53.074 90.598 53.1014 91.7561C53.2847 103.814 53.7683 115.858 54.6305 127.916C55.4921 139.36 56.6148 150.818 58.4295 162.261C58.8108 164.672 62.1533 164.668 62.5292 162.256C64.3182 150.809 65.4151 139.349 66.2509 127.903C67.086 115.857 67.5555 103.812 67.6986 91.7533C67.7104 90.5951 68.5972 89.6676 69.707 89.6391C77.7235 89.4257 85.7396 88.9126 93.7554 88.0997C101.993 87.2048 110.217 86.0646 118.454 84.2159L118.467 84.2023Z" fill="black"/>
</svg>
