<svg width="124" height="167" viewBox="0 0 124 167" fill="none" xmlns="http://www.w3.org/2000/svg">
<path d="M120.207 85.6087C122.387 85.1157 122.383 81.8457 120.202 81.3712C112.627 79.7447 104.374 78.3506 95.5076 77.3523C86.9545 76.3945 78.9242 75.954 71.4949 75.8397C70.372 75.8273 69.4701 74.8882 69.4557 73.7028C69.3777 62.4076 68.9071 50.3498 67.8874 37.5977C66.934 25.7039 65.6026 14.451 64.0109 3.89324C63.6426 1.46836 60.287 1.47213 59.9111 3.89785C58.1872 15.1406 57.1293 26.3826 56.2932 37.6244C55.4451 49.6837 54.9886 61.7289 54.8324 73.7874C54.8207 74.9455 53.9339 75.8731 52.8241 75.9016C44.8076 76.1286 36.7784 76.6281 28.7626 77.4547C20.4204 78.3633 12.0656 79.5309 3.72452 81.4069C1.54463 81.8999 1.54831 85.1699 3.72931 85.658C12.0745 87.5152 20.432 88.664 28.7762 89.5539C36.7938 90.3623 44.8111 90.8438 52.8281 91.0528C53.9379 91.0788 54.8137 92.0043 54.8412 93.1625C55.0245 105.221 55.508 117.265 56.3703 129.322C57.2318 140.766 58.3545 152.224 60.1692 163.667C60.5506 166.078 63.8931 166.075 64.269 163.662C66.0579 152.215 67.1548 140.755 67.9906 129.309C68.8257 117.263 69.2953 105.218 69.4384 93.1597C69.4501 92.0015 70.3369 91.074 71.4467 91.0455C79.4632 90.8321 87.4794 90.3189 95.4952 89.506C103.733 88.6111 111.957 87.471 120.194 85.6223L120.207 85.6087Z" fill="#FCF43D" stroke="black" stroke-width="2.35" stroke-linecap="round" stroke-linejoin="round"/>
</svg>
