<svg width="208" height="208" viewBox="0 0 208 208" fill="none" xmlns="http://www.w3.org/2000/svg">
<path d="M207.716 94.8219C207.304 90.2251 138.263 96.1308 138.263 96.1308L114.848 98.1336L122.512 89.0107C122.512 89.0107 152.153 53.7269 148.607 50.7554C145.061 47.7838 115.421 83.0676 115.421 83.0676L107.757 92.1905L105.665 68.8113C105.665 68.8113 99.4959 -0.125976 94.8922 0.267819C90.2884 0.661615 96.4572 69.5989 96.4572 69.5989L98.5493 92.9781L89.3816 85.2949C89.3816 85.2949 53.9246 55.5795 50.9605 59.1078C47.9964 62.6362 83.4534 92.3517 83.4534 92.3517L92.6212 100.035L69.2065 102.038C69.2065 102.038 0.164934 107.943 0.576274 112.54C0.987613 117.137 70.0292 111.231 70.0292 111.231L93.4438 109.228L85.78 118.351C85.78 118.351 56.1394 153.635 59.6851 156.607C63.2308 159.578 92.8714 124.294 92.8714 124.294L100.535 115.172L102.627 138.551C102.627 138.551 108.796 207.488 113.4 207.094C118.004 206.7 111.835 137.763 111.835 137.763L109.743 114.384L118.91 122.067C118.91 122.067 154.367 151.783 157.332 148.254C160.296 144.726 124.839 115.01 124.839 115.01L115.671 107.327L139.085 105.324C139.085 105.324 208.127 99.4187 207.716 94.8219Z" fill="black"/>
</svg>
