<svg width="355" height="380" viewBox="0 0 355 380" fill="none" xmlns="http://www.w3.org/2000/svg">
<path d="M434.176 244.039C436.263 235.68 292.095 199.685 292.095 199.685L243.202 187.478L264.591 176.585C264.591 176.585 347.312 134.457 341.991 126.851C336.669 119.244 253.948 161.372 253.948 161.372L232.56 172.264L243.174 129.752C243.174 129.752 274.472 4.39639 264.859 1.99622C255.246 -0.403951 223.948 124.951 223.948 124.951L213.334 167.464L199.576 147.796C199.576 147.796 146.364 71.7298 138.092 75.9426C129.82 80.1554 183.031 156.222 183.031 156.222L196.789 175.89L147.897 163.682C147.897 163.682 3.729 127.687 1.64203 136.046C-0.444944 144.405 143.723 180.4 143.723 180.4L192.616 192.607L171.227 203.5C171.227 203.5 88.5061 245.628 93.8272 253.234C99.1483 260.841 181.869 218.713 181.869 218.713L203.258 207.821L192.643 250.333C192.643 250.333 161.345 375.689 170.959 378.089C180.572 380.489 211.87 255.134 211.87 255.134L222.484 212.621L236.242 232.289C236.242 232.289 289.453 308.355 297.726 304.142C305.998 299.93 252.787 223.863 252.787 223.863L239.028 204.195L287.921 216.403C287.921 216.403 432.089 252.397 434.176 244.039Z" fill="#8F55FF" stroke="black" stroke-width="2.35" stroke-linecap="round" stroke-linejoin="round"/>
</svg>
