<svg width="192" height="340" viewBox="0 0 192 340" fill="none" xmlns="http://www.w3.org/2000/svg">
<path d="M98.679 193.53C96.9247 191.193 97.8933 187.285 100.328 186.994C111.431 185.634 122.513 183.931 133.57 181.798C152.422 178.045 171.202 173.434 189.849 166.275C192.749 165.151 192.409 159.512 189.394 158.745C170.021 153.881 150.824 151.564 131.656 150.107C120.423 149.319 109.195 148.963 98.0092 148.949C95.5573 148.953 94.1255 145.19 95.586 142.659C98.136 138.224 100.665 133.79 103.099 129.219C110.262 115.684 117.125 101.823 123.177 86.9768C124.657 83.3534 121.344 79.416 118.823 81.838C108.579 91.737 99.168 102.591 90.0364 113.802C86.9554 117.637 83.9653 121.553 80.9984 125.496C79.3063 127.753 76.3377 126.324 76.0335 123.066C74.5971 108.184 72.925 93.3152 70.9529 78.4648C67.4711 53.2183 63.3481 28.0392 57.3588 2.94413C56.4345 -0.965096 52.1695 -0.707582 51.7222 3.28447C48.7959 28.9179 47.7324 54.4101 47.3136 79.8921C47.1211 94.8732 47.2501 109.835 47.6363 124.781C47.7262 128.051 44.9511 129.828 42.9998 127.791C39.58 124.233 36.1405 120.706 32.6205 117.269C22.2063 107.238 11.5574 97.5951 0.197399 89.0005C-2.57527 86.8981 -5.41428 91.1782 -3.50683 94.6259C4.28684 108.636 12.7684 121.571 21.5078 134.145C24.4959 138.389 27.5413 142.515 30.6064 146.611C32.3607 148.948 31.3921 152.856 28.9576 153.147C17.8348 154.537 6.73101 156.242 -4.34856 158.347C-23.1799 162.099 -41.9379 166.708 -60.567 173.809C-63.4693 174.904 -63.1253 180.601 -60.1124 181.338C-40.7642 186.146 -21.5879 188.465 -2.442 189.924C8.79072 190.711 20.0189 191.067 31.205 191.081C33.6569 191.077 35.0887 194.841 33.6282 197.371C31.0782 201.806 28.5513 206.269 26.1154 210.812C18.9327 224.376 12.0493 238.267 6.00145 253.171C4.52094 256.794 7.83288 260.703 10.3556 258.309C20.6204 248.409 30.0728 237.524 39.2241 226.283C42.2854 222.477 45.2772 218.59 48.2227 214.649C49.9148 212.392 52.8834 213.821 53.1876 217.078C54.6008 231.934 56.2712 246.774 58.2631 261.594C61.7466 286.869 65.8713 312.077 71.9052 337.198C72.851 341.106 77.073 340.851 77.5418 336.858C80.5092 311.193 81.571 285.672 81.9881 260.162C82.1823 245.209 82.055 230.276 81.6705 215.359C81.5806 212.089 84.3557 210.312 86.3071 212.349C89.7054 215.908 93.1432 219.407 96.64 222.816C107.077 232.874 117.749 242.545 129.152 251.137C131.925 253.239 134.743 248.96 132.857 245.511C125.061 231.472 116.555 218.482 107.792 205.88C104.827 201.663 101.803 197.536 98.7399 193.468L98.679 193.53Z" fill="black"/>
</svg>
