<svg width="109" height="721" viewBox="0 0 109 721" fill="none" xmlns="http://www.w3.org/2000/svg">
<path d="M-15.0388 4.61426C16.2179 26.7738 74.2152 89.2322 78.1544 161.259C82.3319 237.645 68.6516 331.031 50.3098 384.613C27.4262 451.462 38.2577 479.212 77.4026 550.381C116.547 621.549 66.7691 691.672 36.9868 717.837" stroke="#FDFBE2" stroke-width="2"/>
<path d="M95 321.5C70.7185 325.057 68.3726 327.94 65.5 358C62.6191 327.948 60.2939 325.065 36 321.5C60.2815 317.943 62.6233 315.06 65.5 285C68.3726 315.06 70.7061 317.943 95 321.5Z" fill="#FDFBE4"/>
<path d="M-41 6.03418C-9.74326 28.1937 48.254 90.6521 52.1932 162.679C56.3707 239.065 42.6905 332.451 24.3486 386.033C1.46503 452.882 12.2966 480.632 51.4414 551.8C90.5862 622.969 40.8079 693.092 11.0256 719.257" stroke="#FDFBE2" stroke-width="2"/>
</svg>
