<svg width="201" height="1216" viewBox="0 0 201 1216" fill="none" xmlns="http://www.w3.org/2000/svg">
<path d="M-40.9999 5.60059C109.926 55.707 38.151 178.742 38.151 265.931C38.151 361.442 39.1736 460.71 92.6023 551.528C107.362 576.617 116.554 604.1 125.878 630.159C140.46 670.914 150.397 691.285 163.036 741.129C175.675 790.974 175.675 806.144 183.354 863.356C180.906 885.981 174.298 924.173 163.037 945.708C131.925 1005.2 108.9 1058.24 60.3348 1112.65C23.6345 1153.77 12.2184 1178.3 -37.5989 1214" stroke="#5DA1A1" stroke-width="3" stroke-linecap="round" stroke-linejoin="round"/>
<path d="M-32.5761 3C118.35 53.1064 46.5748 176.141 46.5748 263.331C46.5748 358.841 47.5974 458.109 101.026 548.928C115.786 574.016 124.978 601.5 134.302 627.558C148.884 668.313 158.821 688.684 171.46 738.529C184.099 788.373 184.099 803.543 191.778 860.756C189.33 883.381 182.722 921.572 171.461 943.107C140.349 1002.6 117.324 1055.64 68.7586 1110.05C32.0583 1151.17 20.6422 1175.7 -29.1751 1211.4" stroke="#5DA1A1" stroke-width="5" stroke-linecap="round" stroke-linejoin="round"/>
<path d="M-25.3534 3C125.573 53.1064 53.7974 176.141 53.7974 263.331C53.7974 358.841 54.82 458.109 108.249 548.928C123.008 574.016 132.201 601.5 141.525 627.558C156.107 668.313 166.044 688.684 178.683 738.529C191.322 788.373 191.322 803.543 199 860.756C196.552 883.381 189.945 921.572 178.683 943.107C147.572 1002.6 124.547 1055.64 75.9813 1110.05C39.281 1151.17 27.8649 1175.7 -21.9524 1211.4" stroke="#5DA1A1" stroke-width="4" stroke-linecap="round" stroke-linejoin="round"/>
<path d="M38.627 490C38.627 455.432 32.8737 434.872 -0.882806 408C-0.882806 408 -1.66461 497.976 -0.883939 558C-0.883939 599.056 -1.63214 654.007 -0.883939 698.112C-0.243554 735.861 -1.66234 772.5 -0.883938 810.388L-0.883939 868.5C-0.883939 885.424 -0.84985 901.335 -0.84985 919.204L-0.849969 1045.47C-0.850196 1053.26 -7.1321 1063.76 9.71086 1051.11C17.5874 1044.8 31.2653 1042 39.6332 1035.44C45.8786 1030.55 58.4745 1026.14 66.0352 1021.78C83.9685 1011.44 100.127 991.161 108.279 976.798C139.373 922.008 128.54 866.526 111.017 810.388C99.01 771.923 74.1359 734.749 53.7143 698.112C43.9254 680.55 37.7716 660.62 34.3528 642C31.9424 628.873 31.3416 621.787 31.0824 608.5C30.9203 600.191 27.0199 584.5 27.0199 573C22.3742 564.665 23.5378 551.5 23.5378 546C23.5378 537 30.3939 525.881 31.0824 517.5C31.6628 510.434 34.9112 497.88 38.627 490Z" fill="#B35699"/>
</svg>
