<svg width="97" height="104" viewBox="0 0 97 104" fill="none" xmlns="http://www.w3.org/2000/svg">
<path d="M14.4435 60.9866C34.2171 48.2798 36.8089 41.3797 31.8569 14.542C31.6501 13.4297 32.9238 12.9568 33.4655 13.9448C46.4386 37.8044 52.7376 41.4109 75.8617 38.1835C76.8199 38.0479 77.3519 39.5532 76.5336 40.0845C56.76 52.7913 54.1683 59.6914 59.1202 86.5292C59.327 87.6414 58.0533 88.1143 57.5116 87.1264C44.5386 63.2667 38.2395 59.6603 15.1154 62.8877C14.1572 63.0233 13.6252 61.518 14.4435 60.9866Z" fill="black"/>
<path d="M20.2069 63.3345C39.9212 50.5961 42.5051 43.6788 37.5678 16.774C37.3616 15.659 38.6315 15.1849 39.1716 16.1753C52.1059 40.0946 58.3861 43.7101 81.4408 40.4748C82.3962 40.3389 82.9266 41.8479 82.1108 42.3806C62.3965 55.119 59.8126 62.0363 64.7499 88.9411C64.9561 90.0561 63.6862 90.5302 63.1461 89.5398C50.2118 65.6205 43.9316 62.005 20.8769 65.2403C19.9215 65.3762 19.3911 63.8672 20.2069 63.3345Z" fill="#FCF43D"/>
<path d="M20.2069 63.3345C39.9212 50.5961 42.5051 43.6788 37.5678 16.774C37.3616 15.659 38.6315 15.1849 39.1716 16.1753C52.1059 40.0946 58.3861 43.7101 81.4408 40.4748C82.3962 40.3389 82.9266 41.8479 82.1108 42.3806C62.3965 55.119 59.8126 62.0363 64.7499 88.9411C64.9561 90.0561 63.6862 90.5302 63.1461 89.5398C50.2118 65.6205 43.9316 62.005 20.8768 65.2403C19.9215 65.3762 19.3911 63.8672 20.2069 63.3345V63.3345Z" stroke="black" stroke-width="2.35" stroke-linecap="round" stroke-linejoin="round"/>
</svg>
