<svg width="206" height="218" viewBox="0 0 206 218" fill="none" xmlns="http://www.w3.org/2000/svg">
<path d="M192.014 126.739C192.555 122.691 131.593 112.886 131.593 112.886L110.918 109.561L119.338 103.356C119.338 103.356 151.904 79.3574 149.412 76.033C146.921 72.7087 114.355 96.707 114.355 96.707L105.935 102.912L108.687 82.3231C108.687 82.3231 116.802 21.6136 112.737 20.9598C108.672 20.306 100.557 81.0155 100.557 81.0155L97.8051 101.604L91.3633 93.009C91.3633 93.009 66.449 59.7658 63.1925 62.1657C59.9359 64.5655 84.8502 97.8087 84.8502 97.8087L91.292 106.404L70.6174 103.079C70.6174 103.079 9.65518 93.2737 9.11408 97.3218C8.57298 101.37 69.5352 111.175 69.5352 111.175L90.2098 114.5L81.7897 120.705C81.7897 120.705 49.2242 144.703 51.7156 148.028C54.2071 151.352 86.7726 127.354 86.7726 127.354L95.1927 121.149L92.4406 141.738C92.4406 141.738 84.3259 202.447 88.3909 203.101C92.4559 203.755 100.571 143.045 100.571 143.045L103.323 122.457L109.764 131.052C109.764 131.052 134.679 164.295 137.935 161.895C141.192 159.495 116.278 126.252 116.278 126.252L109.836 117.657L130.51 120.982C130.51 120.982 191.473 130.787 192.014 126.739Z" fill="black"/>
<path d="M186.129 120.936C186.671 116.888 125.712 107.062 125.712 107.062L105.039 103.73L113.461 97.5278C113.461 97.5278 146.036 73.5411 143.545 70.216C141.055 66.8908 108.48 90.8775 108.48 90.8775L100.058 97.0795L102.818 76.4918C102.818 76.4918 110.955 15.7858 106.89 15.1306C102.825 14.4754 94.688 75.1814 94.688 75.1814L91.9284 95.7691L85.4897 87.1716C85.4897 87.1716 60.5872 53.9202 57.3298 56.3188C54.0723 58.7175 78.9748 91.969 78.9748 91.969L85.4135 100.566L64.7399 97.234C64.7399 97.234 3.78059 87.408 3.23801 91.4559C2.69542 95.5038 63.6547 105.33 63.6547 105.33L84.3283 108.662L75.9059 114.864C75.9059 114.864 43.3313 138.851 45.8215 142.176C48.3118 145.501 80.8864 121.515 80.8864 121.515L89.3088 115.313L86.5493 135.9C86.5493 135.9 78.4123 196.606 82.4771 197.261C86.5419 197.917 94.6789 137.211 94.6789 137.211L97.4385 116.623L103.877 125.22C103.877 125.22 128.78 158.472 132.037 156.073C135.295 153.675 110.392 120.423 110.392 120.423L103.953 111.826L124.627 115.158C124.627 115.158 185.586 124.984 186.129 120.936V120.936Z" fill="#F9346C" stroke="black" stroke-width="2.35" stroke-linecap="round" stroke-linejoin="round"/>
</svg>
