<svg width="396" height="446" viewBox="0 0 396 446" fill="none" xmlns="http://www.w3.org/2000/svg">
<path d="M180.167 263.1C183.206 261.717 186.562 264.402 185.766 267.627C182.168 282.348 178.912 297.17 176.083 312.117C171.372 337.646 167.524 363.399 166.203 389.925C166.007 394.055 171.619 395.703 173.695 392.126C186.981 369.115 197.723 345.387 207.618 321.381C213.353 307.287 218.668 293.04 223.633 278.721C224.714 275.579 228.992 275.137 230.796 277.943C233.962 282.848 237.136 287.725 240.486 292.532C250.421 306.707 260.805 320.62 272.503 333.857C275.356 337.093 280.636 334.305 279.406 330.181C274.355 313.405 268.01 297.34 261.196 281.503C258.846 276.14 256.378 270.863 253.873 265.606C252.436 262.605 255.135 259.332 258.424 260.146C273.471 263.808 288.609 267.163 303.862 270.127C329.851 275 356.057 279.028 383.009 280.634C387.204 280.895 388.842 275.339 385.175 273.29C361.648 260.068 337.434 249.283 312.944 239.327C298.522 233.543 283.977 228.178 269.333 223.148C266.127 222.054 265.635 217.844 268.472 216.098C273.43 213.033 278.368 209.933 283.254 206.695C297.577 197.067 311.629 186.995 324.98 175.624C328.243 172.851 325.355 167.633 321.172 168.801C304.156 173.603 287.876 179.683 271.832 186.227C266.399 188.484 261.056 190.859 255.733 193.27C252.694 194.653 249.337 191.968 250.134 188.743C253.711 173.985 256.976 159.136 259.841 144.169C264.544 118.667 268.384 92.9424 269.754 66.4615C269.978 62.3402 264.31 60.6749 262.262 64.2605C249.041 87.2602 238.308 110.96 228.42 134.939C222.686 149.032 217.371 163.279 212.405 177.599C211.324 180.74 207.046 181.182 205.242 178.377C202.076 173.472 198.874 168.586 195.553 163.788C185.597 149.576 175.193 135.626 163.438 122.372C160.585 119.137 155.334 121.934 156.535 126.049C161.578 142.853 167.935 158.982 174.769 174.856C177.099 180.183 179.538 185.451 182.051 190.68C183.488 193.681 180.79 196.954 177.501 196.14C162.49 192.458 147.381 189.112 132.148 186.184C106.131 181.302 79.8956 177.267 52.8989 175.708C48.696 175.474 47.0739 180.975 50.7334 183.051C74.2719 196.338 98.5147 207.132 123.033 217.096C137.426 222.871 151.943 228.228 166.558 233.25C169.765 234.344 170.256 238.554 167.42 240.3C162.47 243.336 157.56 246.445 152.711 249.663C138.351 259.311 124.263 269.403 110.895 280.829C107.632 283.603 110.528 288.793 114.703 287.652C131.748 282.859 148.093 276.768 164.174 270.204C169.57 267.966 174.905 265.62 180.2 263.2L180.167 263.1Z" fill="black"/>
<path d="M190.365 252.235C193.404 250.852 196.76 253.537 195.964 256.763C192.366 271.484 189.109 286.305 186.281 301.252C181.569 326.782 177.721 352.535 176.4 379.06C176.204 383.19 181.815 384.839 183.892 381.261C197.177 358.251 207.92 334.523 217.815 310.516C223.55 296.423 228.865 282.176 233.83 267.857C234.912 264.715 239.19 264.273 240.994 267.079C244.159 271.983 247.334 276.86 250.683 281.668C260.618 295.843 271.002 309.757 282.7 322.994C285.553 326.229 290.833 323.441 289.603 319.317C284.552 302.541 278.207 286.477 271.393 270.639C269.044 265.276 266.575 259.999 264.071 254.742C262.634 251.741 265.333 248.468 268.621 249.282C283.668 252.944 298.806 256.299 314.06 259.263C340.048 264.137 366.255 268.164 393.207 269.771C397.401 270.032 399.04 264.475 395.372 262.427C371.846 249.204 347.631 238.419 323.142 228.464C308.72 222.679 294.175 217.314 279.531 212.284C276.325 211.19 275.833 206.98 278.669 205.234C283.628 202.17 288.566 199.069 293.452 195.832C307.775 186.203 321.827 176.131 335.178 164.761C338.441 161.987 335.553 156.769 331.37 157.938C314.354 162.739 298.074 168.819 282.029 175.363C276.597 177.62 271.253 179.995 265.93 182.406C262.891 183.789 259.535 181.104 260.332 177.879C263.909 163.121 267.174 148.272 270.039 133.305C274.742 107.803 278.582 82.0785 279.952 55.5976C280.177 51.4764 274.508 49.811 272.46 53.3966C259.24 76.3962 248.506 100.096 238.618 124.075C232.884 138.168 227.569 152.415 222.603 166.734C221.522 169.876 217.244 170.318 215.44 167.512C212.274 162.608 209.072 157.722 205.751 152.923C195.795 138.711 185.391 124.762 173.637 111.508C170.783 108.273 165.532 111.069 166.733 115.184C171.776 131.989 178.133 148.117 184.967 163.991C187.296 169.318 189.736 174.586 192.249 179.815C193.686 182.816 190.987 186.09 187.699 185.275C172.688 181.594 157.579 178.247 142.346 175.32C116.329 170.438 90.0935 166.402 63.0968 164.843C58.8939 164.609 57.2718 170.11 60.9313 172.186C84.4697 185.473 108.712 196.267 133.231 206.231C147.624 212.007 162.14 217.364 176.756 222.386C179.962 223.479 180.454 227.69 177.618 229.435C172.667 232.472 167.757 235.581 162.908 238.799C148.548 248.447 134.46 258.538 121.093 269.965C117.829 272.738 120.726 277.928 124.9 276.787C141.945 271.994 158.29 265.903 174.371 259.34C179.767 257.102 185.102 254.755 190.397 252.336L190.365 252.235Z" fill="#F9346C" stroke="black" stroke-width="2.35" stroke-linecap="round" stroke-linejoin="round"/>
</svg>
