<svg width="165" height="160" viewBox="0 0 165 160" fill="none" xmlns="http://www.w3.org/2000/svg">
<path d="M25.4382 100.219L62.7197 73.3628C63.1254 73.0726 63.2979 72.5799 63.1838 72.0984L51.8998 28.1216C51.574 26.8356 53.298 26.0555 54.1121 27.1206L82.1979 63.4951C82.5014 63.8909 83.0117 64.0628 83.5077 63.9568L128.81 53.4459C130.135 53.1428 130.957 54.8204 129.865 55.5987L92.5833 82.4546C92.1776 82.7448 92.005 83.2375 92.1192 83.719L103.403 127.696C103.729 128.982 102.005 129.762 101.191 128.697L73.1051 92.3223C72.8016 91.9265 72.2912 91.7546 71.7953 91.8606L26.503 102.367C25.1784 102.67 24.3564 100.992 25.4482 100.214L25.4382 100.219Z" fill="black"/>
<path d="M34.4203 104.117L71.7039 77.2626C72.1096 76.9724 72.2822 76.4797 72.1681 75.9982L60.8896 32.0195C60.564 30.7334 62.2881 29.9534 63.102 31.0186L91.1827 67.3959C91.4861 67.7917 91.9964 67.9636 92.4924 67.8577L137.785 57.3539C139.109 57.0508 139.931 58.7285 138.839 59.5068L101.556 86.3611C101.15 86.6513 100.977 87.144 101.091 87.6255L112.37 131.604C112.695 132.89 110.971 133.67 110.157 132.605L82.0767 96.2279C81.7733 95.832 81.263 95.6601 80.767 95.766L35.4748 106.27C34.1502 106.573 33.3284 104.895 34.4203 104.117V104.117Z" fill="#0071C6" stroke="black" stroke-width="2.35" stroke-linecap="round" stroke-linejoin="round"/>
</svg>
