<svg width="219" height="216" viewBox="0 0 219 216" fill="none" xmlns="http://www.w3.org/2000/svg">
<path fill-rule="evenodd" clip-rule="evenodd" d="M109.5 0C109.5 0 105.97 75.0655 98.9102 79.3459C91.1442 82.8834 60.0804 59.5006 60.0804 59.5006C60.0804 59.5006 86.2376 89.2511 81.9663 96.3261C77.0243 103.401 0 107.646 0 107.646C0 107.646 77.0243 112.599 81.9663 119.709C86.2376 126.784 60.0804 156.534 60.0804 156.534C60.0804 156.534 91.1795 133.151 98.9102 136.689C105.97 140.934 109.5 216 109.5 216C109.5 216 113.03 140.934 120.831 136.689C128.597 133.151 158.99 156.534 158.99 156.534C158.99 156.534 133.539 126.784 137.81 119.709C142.082 112.634 219 107.646 219 107.646C219 107.646 141.976 103.401 137.81 96.3261C133.645 89.2511 158.99 59.5006 158.99 59.5006C158.99 59.5006 128.597 82.8834 120.831 79.3459C113.736 74.9594 110.206 10.6479 109.5 0Z" fill="#FDFBE2"/>
</svg>
