<svg width="476" height="176" viewBox="0 0 476 176" fill="none" xmlns="http://www.w3.org/2000/svg">
<path d="M6.2 64C2.36 64 0.44 62.5333 0.44 59.6C0.44 58.5333 0.68 57.3333 1.16 56L3.48 49.6C4.44 46.9867 5.82667 45.0133 7.64 43.68C9.50667 42.2933 11.7467 41.6 14.36 41.6H31.96C35.8533 41.6 37.8 43.0933 37.8 46.08C37.8 47.04 37.56 48.2133 37.08 49.6L35.88 52.8C35.72 53.3333 35.64 53.7867 35.64 54.16C35.64 55.3867 36.4133 56 37.96 56H39.56C41.6933 56 43.1333 54.9333 43.88 52.8L48.84 39.2C49.0533 38.72 49.16 38.24 49.16 37.76C49.16 36.5867 48.3867 36 46.84 36H24.44C20.6 36 17.6933 35.2533 15.72 33.76C13.7467 32.2667 12.76 30.0533 12.76 27.12C12.76 25.04 13.2667 22.6667 14.28 20L15.72 16C17.5867 10.8267 20.3867 6.88 24.12 4.16C27.8533 1.38667 32.3333 -9.53674e-07 37.56 -9.53674e-07H88.76C92.6 -9.53674e-07 94.52 1.46666 94.52 4.39999C94.52 5.41333 94.28 6.61333 93.8 8L91.48 14.4C90.52 17.0133 89.1067 19.0133 87.24 20.4C85.4267 21.7333 83.2133 22.4 80.6 22.4H63C59.1067 22.4 57.16 20.9067 57.16 17.92C57.16 16.9067 57.4 15.7333 57.88 14.4L59.08 11.2C59.24 10.6133 59.32 10.16 59.32 9.84C59.32 8.61333 58.5467 8 57 8H55.4C53.2667 8 51.8267 9.06666 51.08 11.2L46.12 24.8C45.9067 25.28 45.8 25.76 45.8 26.24C45.8 27.4133 46.5733 28 48.12 28H70.52C74.36 28 77.2667 28.7467 79.24 30.24C81.2133 31.7333 82.2 33.9467 82.2 36.88C82.2 38.96 81.6933 41.3333 80.68 44L79.24 48C77.3733 53.1733 74.5733 57.1467 70.84 59.92C67.1067 62.64 62.6267 64 57.4 64H6.2ZM89.4831 64C85.6431 64 83.7231 62.5333 83.7231 59.6C83.7231 58.5333 83.9631 57.3333 84.4431 56L101.883 8C102.843 5.38666 104.256 3.41333 106.123 2.08C107.99 0.693331 110.23 -9.53674e-07 112.843 -9.53674e-07H130.443C134.283 -9.53674e-07 136.203 1.46666 136.203 4.39999C136.203 5.41333 135.963 6.61333 135.483 8L118.043 56C117.083 58.6133 115.67 60.6133 113.803 62C111.936 63.3333 109.696 64 107.083 64H89.4831ZM147.202 64C141.442 64 137.095 62.88 134.162 60.64C131.229 58.4 129.762 55.0933 129.762 50.72C129.762 47.5733 130.509 44 132.002 40L137.762 24C140.589 16.2133 144.802 10.2667 150.402 6.16C156.055 2.05333 162.775 -9.53674e-07 170.562 -9.53674e-07H197.762C203.789 -9.53674e-07 208.349 1.04 211.442 3.12C214.535 5.14666 216.082 8.13333 216.082 12.08C216.082 14.32 215.549 16.96 214.482 20C213.522 22.6133 212.109 24.6133 210.242 26C208.375 27.3333 206.135 28 203.522 28H185.922C182.082 28 180.162 26.5333 180.162 23.6C180.162 22.5333 180.402 21.3333 180.882 20L184.082 11.2C184.242 10.6133 184.322 10.16 184.322 9.84C184.322 8.61333 183.549 8 182.002 8H180.402C178.269 8 176.829 9.06666 176.082 11.2L160.882 52.8C160.722 53.3333 160.642 53.7867 160.642 54.16C160.642 55.3867 161.415 56 162.962 56H164.562C166.695 56 168.135 54.9333 168.882 52.8L172.402 43.2H171.202C169.655 43.2 168.882 42.6133 168.882 41.44C168.882 40.96 168.989 40.48 169.202 40L169.762 38.4C170.509 36.2667 171.949 35.2 174.082 35.2H200.882C204.775 35.2 206.722 36.6933 206.722 39.68C206.722 40.64 206.482 41.8133 206.002 43.2L204.242 48C202.375 53.1733 199.575 57.1467 195.842 59.92C192.109 62.64 187.629 64 182.402 64H147.202ZM214.403 64C210.563 64 208.643 62.5333 208.643 59.6C208.643 58.5333 208.883 57.3333 209.363 56L223.923 16C225.79 10.8267 228.59 6.88 232.323 4.16C236.056 1.38667 240.536 -9.53674e-07 245.763 -9.53674e-07H288.963C292.803 -9.53674e-07 295.683 0.746666 297.603 2.24C299.576 3.73333 300.563 5.94667 300.563 8.88C300.563 10.9067 300.083 13.28 299.123 16L284.563 56C283.603 58.6133 282.19 60.6133 280.323 62C278.456 63.3333 276.216 64 273.603 64H256.003C252.163 64 250.243 62.5333 250.243 59.6C250.243 58.5333 250.483 57.3333 250.963 56L267.283 11.2C267.443 10.6133 267.523 10.16 267.523 9.84C267.523 8.61333 266.75 8 265.203 8H263.603C261.47 8 260.03 9.06666 259.283 11.2L242.963 56C242.003 58.6133 240.59 60.6133 238.723 62C236.856 63.3333 234.616 64 232.003 64H214.403ZM354.662 -9.53674e-07C358.502 -9.53674e-07 360.422 1.46666 360.422 4.39999C360.422 5.41333 360.182 6.61333 359.702 8L343.382 52.8C343.222 53.3333 343.142 53.7867 343.142 54.16C343.142 55.3867 343.915 56 345.462 56H347.062C349.195 56 350.635 54.9333 351.382 52.8L367.702 8C368.662 5.38666 370.075 3.41333 371.942 2.08C373.809 0.693331 376.049 -9.53674e-07 378.662 -9.53674e-07H396.262C400.102 -9.53674e-07 402.022 1.46666 402.022 4.39999C402.022 5.41333 401.782 6.61333 401.302 8L386.742 48C384.875 53.1733 382.075 57.1467 378.342 59.92C374.609 62.64 370.129 64 364.902 64H321.702C317.862 64 314.955 63.2533 312.982 61.76C311.062 60.2667 310.102 58.0533 310.102 55.12C310.102 53.0933 310.582 50.72 311.542 48L326.102 8C327.062 5.38666 328.475 3.41333 330.342 2.08C332.209 0.693331 334.449 -9.53674e-07 337.062 -9.53674e-07H354.662ZM396.905 64C393.065 64 391.145 62.5333 391.145 59.6C391.145 58.5333 391.385 57.3333 391.865 56L409.305 8C410.265 5.38666 411.678 3.41333 413.545 2.08C415.412 0.693331 417.652 -9.53674e-07 420.265 -9.53674e-07H463.865C467.705 -9.53674e-07 470.585 0.746666 472.505 2.24C474.478 3.73333 475.465 5.94667 475.465 8.88C475.465 10.9067 474.985 13.28 474.025 16L468.505 31.2C466.585 36.4267 463.758 40.4 460.025 43.12C456.292 45.84 451.838 47.2 446.665 47.2H428.665L425.465 56C424.505 58.6133 423.092 60.6133 421.225 62C419.358 63.3333 417.118 64 414.505 64H396.905ZM432.745 35.92C432.585 36.2933 432.505 36.6667 432.505 37.04C432.505 37.68 432.718 38.2133 433.145 38.64C433.572 39.0133 434.132 39.2 434.825 39.2H450.505C451.412 39.2 452.292 38.88 453.145 38.24C454.052 37.6 454.665 36.8267 454.985 35.92L455.225 35.28C455.385 34.8533 455.465 34.48 455.465 34.16C455.465 33.52 455.252 33.0133 454.825 32.64C454.398 32.2133 453.838 32 453.145 32H437.465C436.558 32 435.652 32.32 434.745 32.96C433.892 33.6 433.305 34.3733 432.985 35.28L432.745 35.92ZM6.28 176C2.44 176 0.52 174.533 0.52 171.6C0.52 170.533 0.76 169.333 1.24 168L18.68 120C19.64 117.387 21.0533 115.413 22.92 114.08C24.7867 112.693 27.0267 112 29.64 112H47.24C51.08 112 53 113.467 53 116.4C53 117.413 52.76 118.613 52.28 120L44.92 140.16H52.92L60.28 120C61.24 117.387 62.6533 115.413 64.52 114.08C66.3867 112.693 68.6267 112 71.24 112H88.84C92.68 112 94.6 113.467 94.6 116.4C94.6 117.413 94.36 118.613 93.88 120L76.44 168C75.48 170.613 74.0667 172.613 72.2 174C70.3333 175.333 68.0933 176 65.48 176H47.88C44.04 176 42.12 174.533 42.12 171.6C42.12 170.533 42.36 169.333 42.84 168L50.04 148.16H42.04L34.84 168C33.88 170.613 32.4667 172.613 30.6 174C28.7333 175.333 26.4933 176 23.88 176H6.28ZM89.5613 176C85.7212 176 83.8012 174.533 83.8012 171.6C83.8012 170.533 84.0412 169.333 84.5212 168L101.961 120C102.921 117.387 104.335 115.413 106.201 114.08C108.068 112.693 110.308 112 112.921 112H167.721C169.268 112 170.041 112.587 170.041 113.76C170.041 113.973 169.935 114.453 169.721 115.2L169.161 116.8C168.361 118.933 166.895 120 164.761 120H135.561L132.681 128H154.681C156.228 128 157.001 128.587 157.001 129.76C157.001 130.24 156.895 130.72 156.681 131.2L156.121 132.8C155.321 134.933 153.855 136 151.721 136H129.721L126.521 144.8H154.121C158.015 144.8 159.961 146.293 159.961 149.28C159.961 150.24 159.721 151.413 159.241 152.8L153.721 168C152.761 170.613 151.348 172.613 149.481 174C147.615 175.333 145.375 176 142.761 176H89.5613ZM166.827 176C162.987 176 161.067 174.533 161.067 171.6C161.067 170.533 161.307 169.333 161.787 168L179.227 120C180.187 117.387 181.6 115.413 183.467 114.08C185.334 112.693 187.574 112 190.187 112H239.787C243.84 112 246.8 112.64 248.667 113.92C250.534 115.147 251.467 117.147 251.467 119.92C251.467 122.587 250.72 125.92 249.227 129.92C246.827 136.48 244.054 141.173 240.907 144C237.814 146.773 233.76 148.16 228.747 148.16H218.587L217.707 150.56C217.547 151.093 217.467 151.547 217.467 151.92C217.467 153.147 218.24 153.76 219.787 153.76H232.587C236.427 153.76 238.347 155.227 238.347 158.16C238.347 159.173 238.107 160.373 237.627 161.76L235.387 168C234.427 170.613 233.014 172.613 231.147 174C229.28 175.333 227.04 176 224.427 176H216.427C212.587 176 209.68 175.253 207.707 173.76C205.787 172.267 204.827 170.053 204.827 167.12C204.827 165.093 205.307 162.72 206.267 160L210.587 148.16H202.587L195.387 168C194.427 170.613 193.014 172.613 191.147 174C189.28 175.333 187.04 176 184.427 176H166.827ZM206.667 136.96C206.454 137.707 206.347 138.187 206.347 138.4C206.347 139.573 207.12 140.16 208.667 140.16H210.267C211.334 140.16 212.24 139.893 212.987 139.36C213.734 138.773 214.294 137.973 214.667 136.96L219.707 123.2C219.867 122.613 219.947 122.16 219.947 121.84C219.947 120.613 219.174 120 217.627 120H216.027C213.894 120 212.454 121.067 211.707 123.2L206.667 136.96ZM248.546 176C244.706 176 242.786 174.533 242.786 171.6C242.786 170.533 243.026 169.333 243.506 168L260.946 120C261.906 117.387 263.319 115.413 265.186 114.08C267.052 112.693 269.292 112 271.906 112H326.706C328.252 112 329.026 112.587 329.026 113.76C329.026 113.973 328.919 114.453 328.706 115.2L328.146 116.8C327.346 118.933 325.879 120 323.746 120H294.546L291.666 128H313.666C315.212 128 315.986 128.587 315.986 129.76C315.986 130.24 315.879 130.72 315.666 131.2L315.106 132.8C314.306 134.933 312.839 136 310.706 136H288.706L285.506 144.8H313.106C316.999 144.8 318.946 146.293 318.946 149.28C318.946 150.24 318.706 151.413 318.226 152.8L312.706 168C311.746 170.613 310.332 172.613 308.466 174C306.599 175.333 304.359 176 301.746 176H248.546Z" fill="white"/>
<path d="M1.16 56L-1.66042 54.9776L-1.66266 54.9838L1.16 56ZM3.48 49.6L0.663965 48.5655L0.659592 48.5776L3.48 49.6ZM7.64 43.68L9.41717 46.097L9.42308 46.0926L9.42897 46.0882L7.64 43.68ZM37.08 49.6L39.889 50.6534L39.9024 50.6175L39.915 50.5813L37.08 49.6ZM35.88 52.8L33.071 51.7466L33.0355 51.8412L33.0065 51.938L35.88 52.8ZM43.88 52.8L41.0616 51.7721L41.0549 51.7905L41.0484 51.8089L43.88 52.8ZM48.84 39.2L46.0986 37.9816L46.0568 38.0755L46.0216 38.1721L48.84 39.2ZM14.28 20L17.0844 21.0657L17.0937 21.041L17.1027 21.0162L14.28 20ZM15.72 16L12.8981 14.9818L12.8973 14.9838L15.72 16ZM24.12 4.16L25.8866 6.58471L25.8978 6.57652L25.909 6.56823L24.12 4.16ZM93.8 8L96.6204 9.0224L96.6278 9.00191L96.635 8.98132L93.8 8ZM91.48 14.4L94.296 15.4345L94.3004 15.4224L91.48 14.4ZM87.24 20.4L89.0172 22.817L89.0231 22.8126L89.029 22.8082L87.24 20.4ZM57.88 14.4L55.071 13.3466L55.0641 13.3652L55.0573 13.3838L57.88 14.4ZM59.08 11.2L61.889 12.2534L61.9378 12.1233L61.9743 11.9894L59.08 11.2ZM51.08 11.2L53.8984 12.2279L53.9051 12.2095L53.9116 12.191L51.08 11.2ZM46.12 24.8L48.8614 26.0184L48.9032 25.9245L48.9384 25.8279L46.12 24.8ZM80.68 44L77.8757 42.9343L77.8663 42.959L77.8573 42.9838L80.68 44ZM79.24 48L82.0619 49.0182L82.0627 49.0162L79.24 48ZM70.84 59.92L72.6066 62.3447L72.6178 62.3365L72.629 62.3282L70.84 59.92ZM6.2 61C4.57722 61 3.90978 60.6754 3.70112 60.516C3.62341 60.4566 3.58435 60.4048 3.54962 60.3252C3.50713 60.2278 3.44 60.0099 3.44 59.6H-2.56C-2.56 61.7782 -1.80527 63.86 0.0588789 65.284C1.77022 66.5913 3.98278 67 6.2 67V61ZM3.44 59.6C3.44 58.9726 3.58376 58.1242 3.98266 57.0162L-1.66266 54.9838C-2.22376 56.5424 -2.56 58.094 -2.56 59.6H3.44ZM3.98041 57.0224L6.30041 50.6224L0.659592 48.5776L-1.66041 54.9776L3.98041 57.0224ZM6.29601 50.6345C7.10127 48.4424 8.17987 47.0067 9.41717 46.097L5.86283 41.263C3.47346 43.0199 1.77873 45.531 0.663991 48.5655L6.29601 50.6345ZM9.42897 46.0882C10.715 45.1329 12.3075 44.6 14.36 44.6V38.6C11.1859 38.6 8.29831 39.4538 5.85103 41.2718L9.42897 46.0882ZM14.36 44.6H31.96V38.6H14.36V44.6ZM31.96 44.6C33.6074 44.6 34.2927 44.9305 34.514 45.1003C34.5847 45.1545 34.8 45.2936 34.8 46.08H40.8C40.8 43.8798 40.0419 41.7788 38.166 40.3397C36.4406 39.0161 34.2059 38.6 31.96 38.6V44.6ZM34.8 46.08C34.8 46.5784 34.6673 47.3989 34.245 48.6187L39.915 50.5813C40.4527 49.0278 40.8 47.5016 40.8 46.08H34.8ZM34.271 48.5466L33.071 51.7466L38.689 53.8534L39.889 50.6534L34.271 48.5466ZM33.0065 51.938C32.7996 52.6278 32.64 53.3892 32.64 54.16H38.64C38.64 54.1829 38.638 54.1539 38.6544 54.0614C38.6704 53.9706 38.7004 53.8391 38.7535 53.662L33.0065 51.938ZM32.64 54.16C32.64 55.4445 33.0796 56.8783 34.3558 57.8905C35.4994 58.7975 36.8707 59 37.96 59V53C37.7618 53 37.6916 52.9793 37.7118 52.9846C37.7373 52.9914 37.8916 53.0368 38.0842 53.1895C38.2911 53.3536 38.4539 53.5724 38.5507 53.8026C38.6397 54.0146 38.64 54.1564 38.64 54.16H32.64ZM37.96 59H39.56V53H37.96V59ZM39.56 59C41.1436 59 42.6961 58.5955 44.0257 57.6107C45.3411 56.6363 46.1916 55.2767 46.7116 53.7911L41.0484 51.8089C40.8217 52.4566 40.5789 52.6971 40.4543 52.7893C40.3439 52.8711 40.1097 53 39.56 53V59ZM46.6984 53.8279L51.6584 40.2279L46.0216 38.1721L41.0616 51.7721L46.6984 53.8279ZM51.5814 40.4184C51.949 39.5914 52.16 38.698 52.16 37.76H46.16C46.16 37.782 46.1576 37.8486 46.0986 37.9816L51.5814 40.4184ZM52.16 37.76C52.16 36.4541 51.6864 35.031 50.3932 34.0499C49.2563 33.1875 47.9072 33 46.84 33V39C47.0468 39 47.1281 39.0206 47.1195 39.0184C47.1074 39.0154 46.9596 38.9763 46.7668 38.8301C46.5576 38.6714 46.3793 38.449 46.2684 38.1968C46.1654 37.9622 46.16 37.7926 46.16 37.76H52.16ZM46.84 33H24.44V39H46.84V33ZM24.44 33C20.9151 33 18.7652 32.3023 17.5303 31.3678L13.9097 36.1522C16.6214 38.2044 20.2849 39 24.44 39V33ZM17.5303 31.3678C16.4501 30.5503 15.76 29.3098 15.76 27.12H9.76C9.76 30.7968 11.0433 33.983 13.9097 36.1522L17.5303 31.3678ZM15.76 27.12C15.76 25.5119 16.1556 23.5098 17.0844 21.0657L11.4756 18.9343C10.3777 21.8236 9.76 24.5681 9.76 27.12H15.76ZM17.1027 21.0162L18.5427 17.0162L12.8973 14.9838L11.4573 18.9838L17.1027 21.0162ZM18.5419 17.0182C20.2447 12.2991 22.7239 8.88897 25.8866 6.58471L22.3534 1.73529C18.0495 4.87103 14.9286 9.35425 12.8981 14.9818L18.5419 17.0182ZM25.909 6.56823C29.0617 4.22621 32.8941 3 37.56 3V-3C31.7725 -3 26.645 -1.45288 22.331 1.75177L25.909 6.56823ZM37.56 3H88.76V-3H37.56V3ZM88.76 3C90.3828 3 91.0502 3.32462 91.2589 3.48401C91.3366 3.54338 91.3757 3.59524 91.4104 3.67483C91.4529 3.7722 91.52 3.99013 91.52 4.39999H97.52C97.52 2.22178 96.7653 0.139988 94.9011 -1.28402C93.1898 -2.59129 90.9772 -3 88.76 -3V3ZM91.52 4.39999C91.52 4.96593 91.3803 5.81892 90.965 7.01867L96.635 8.98132C97.1797 7.40774 97.52 5.86073 97.52 4.39999H91.52ZM90.9796 6.9776L88.6596 13.3776L94.3004 15.4224L96.6204 9.0224L90.9796 6.9776ZM88.664 13.3655C87.8651 15.5404 86.7633 17.017 85.451 17.9918L89.029 22.8082C91.4501 21.0097 93.1749 18.4863 94.296 15.4345L88.664 13.3655ZM85.4628 17.983C84.2445 18.8789 82.6807 19.4 80.6 19.4V25.4C83.746 25.4 86.6089 24.5877 89.0172 22.817L85.4628 17.983ZM80.6 19.4H63V25.4H80.6V19.4ZM63 19.4C61.3526 19.4 60.6673 19.0695 60.446 18.8997C60.3753 18.8455 60.16 18.7064 60.16 17.92H54.16C54.16 20.1202 54.9181 22.2212 56.794 23.6603C58.5194 24.9839 60.7541 25.4 63 25.4V19.4ZM60.16 17.92C60.16 17.361 60.2968 16.5435 60.7027 15.4162L55.0573 13.3838C54.5032 14.9232 54.16 16.4523 54.16 17.92H60.16ZM60.689 15.4534L61.889 12.2534L56.271 10.1466L55.071 13.3466L60.689 15.4534ZM61.9743 11.9894C62.1535 11.3322 62.32 10.5683 62.32 9.84H56.32C56.32 9.76768 56.3273 9.77624 56.3057 9.89864C56.2857 10.0118 56.2487 10.1795 56.1857 10.4106L61.9743 11.9894ZM62.32 9.84C62.32 8.5555 61.8804 7.12164 60.6042 6.1095C59.4606 5.20254 58.0893 5 57 5V11C57.1982 11 57.2684 11.0207 57.2482 11.0154C57.2227 11.0086 57.0684 10.9632 56.8758 10.8105C56.6689 10.6464 56.5061 10.4276 56.4093 10.1974C56.3203 9.98542 56.32 9.84362 56.32 9.84H62.32ZM57 5H55.4V11H57V5ZM55.4 5C53.8164 5 52.2639 5.40447 50.9343 6.38933C49.6189 7.36374 48.7684 8.72331 48.2484 10.2089L53.9116 12.191C54.1383 11.5434 54.3811 11.3029 54.5057 11.2107C54.6161 11.1289 54.8503 11 55.4 11V5ZM48.2616 10.1721L43.3016 23.7721L48.9384 25.8279L53.8984 12.2279L48.2616 10.1721ZM43.3786 23.5816C43.011 24.4086 42.8 25.302 42.8 26.24H48.8C48.8 26.218 48.8024 26.1514 48.8614 26.0184L43.3786 23.5816ZM42.8 26.24C42.8 27.5459 43.2736 28.969 44.5668 29.9501C45.7037 30.8125 47.0528 31 48.12 31V25C47.9132 25 47.8319 24.9794 47.8405 24.9815C47.8526 24.9846 48.0004 25.0237 48.1932 25.1699C48.4024 25.3286 48.5807 25.551 48.6916 25.8032C48.7946 26.0378 48.8 26.2074 48.8 26.24H42.8ZM48.12 31H70.52V25H48.12V31ZM70.52 31C74.0449 31 76.1948 31.6977 77.4297 32.6322L81.0503 27.8478C78.3386 25.7956 74.6751 25 70.52 25V31ZM77.4297 32.6322C78.5099 33.4497 79.2 34.6902 79.2 36.88H85.2C85.2 33.2032 83.9168 30.017 81.0503 27.8478L77.4297 32.6322ZM79.2 36.88C79.2 38.4881 78.8044 40.4902 77.8757 42.9343L83.4844 45.0657C84.5823 42.1764 85.2 39.4319 85.2 36.88H79.2ZM77.8573 42.9838L76.4173 46.9838L82.0627 49.0162L83.5027 45.0162L77.8573 42.9838ZM76.4181 46.9818C74.7144 51.7035 72.2299 55.1503 69.051 57.5118L72.629 62.3282C76.9168 59.143 80.0323 54.6431 82.0619 49.0182L76.4181 46.9818ZM69.0734 57.4953C65.9194 59.7932 62.0789 61 57.4 61V67C63.1744 67 68.2939 65.4868 72.6066 62.3447L69.0734 57.4953ZM57.4 61H6.2V67H57.4V61ZM84.4431 56L81.6235 54.9755L81.6205 54.9838L84.4431 56ZM101.883 8L99.0671 6.96554L99.0635 6.97552L101.883 8ZM106.123 2.08L107.867 4.52119L107.89 4.50492L107.912 4.48823L106.123 2.08ZM135.483 8L138.303 9.02447L138.311 9.00296L138.318 8.98132L135.483 8ZM118.043 56L120.859 57.0345L120.863 57.0245L118.043 56ZM113.803 62L115.547 64.4412L115.57 64.4249L115.592 64.4082L113.803 62ZM89.4831 61C87.8603 61 87.1929 60.6754 86.9842 60.516C86.9065 60.4566 86.8675 60.4048 86.8327 60.3252C86.7903 60.2278 86.7231 60.0099 86.7231 59.6H80.7231C80.7231 61.7782 81.4779 63.86 83.342 65.284C85.0533 66.5913 87.2659 67 89.4831 67V61ZM86.7231 59.6C86.7231 58.9726 86.8669 58.1242 87.2658 57.0162L81.6205 54.9838C81.0594 56.5424 80.7231 58.094 80.7231 59.6H86.7231ZM87.2628 57.0245L104.703 9.02447L99.0635 6.97552L81.6235 54.9755L87.2628 57.0245ZM104.699 9.03445C105.496 6.86455 106.587 5.43511 107.867 4.52119L104.379 -0.361202C101.926 1.39155 100.19 3.90878 99.0671 6.96554L104.699 9.03445ZM107.912 4.48823C109.198 3.53288 110.791 3 112.843 3V-3C109.669 -3 106.781 -2.14621 104.334 -0.328236L107.912 4.48823ZM112.843 3H130.443V-3H112.843V3ZM130.443 3C132.066 3 132.733 3.32462 132.942 3.48401C133.02 3.54337 133.059 3.59524 133.094 3.67483C133.136 3.7722 133.203 3.99013 133.203 4.39999H139.203C139.203 2.22178 138.448 0.13999 136.584 -1.28402C134.873 -2.59129 132.66 -3 130.443 -3V3ZM133.203 4.39999C133.203 4.96593 133.063 5.81892 132.648 7.01867L138.318 8.98132C138.863 7.40774 139.203 5.86073 139.203 4.39999H133.203ZM132.663 6.97552L115.223 54.9755L120.863 57.0245L138.303 9.02447L132.663 6.97552ZM115.227 54.9655C114.428 57.1404 113.326 58.617 112.014 59.5918L115.592 64.4082C118.013 62.6097 119.738 60.0863 120.859 57.0345L115.227 54.9655ZM112.059 59.5588C110.771 60.4794 109.162 61 107.083 61V67C110.231 67 113.102 66.1872 115.547 64.4412L112.059 59.5588ZM107.083 61H89.4831V67H107.083V61ZM132.002 40L134.812 41.0493L134.819 41.0327L134.825 41.0162L132.002 40ZM137.762 24L134.942 22.9763L134.939 22.9838L137.762 24ZM150.402 6.16L148.639 3.73277L148.628 3.74078L150.402 6.16ZM211.442 3.12L209.768 5.60953L209.783 5.61954L209.798 5.62938L211.442 3.12ZM214.482 20L217.298 21.0345L217.305 21.0139L217.313 20.9933L214.482 20ZM210.242 26L211.986 28.4412L212.008 28.4249L212.031 28.4082L210.242 26ZM180.882 20L178.062 18.9748L178.059 18.9838L180.882 20ZM184.082 11.2L186.901 12.2252L186.944 12.1088L186.976 11.9894L184.082 11.2ZM176.082 11.2L178.9 12.2296L178.907 12.2104L178.913 12.191L176.082 11.2ZM160.882 52.8L158.064 51.7704L158.034 51.8534L158.008 51.938L160.882 52.8ZM168.882 52.8L166.065 51.7672L166.058 51.788L166.05 51.809L168.882 52.8ZM172.402 43.2L175.219 44.2328L176.697 40.2H172.402V43.2ZM169.202 40L171.943 41.2184L171.993 41.1066L172.033 40.991L169.202 40ZM169.762 38.4L166.93 37.4089V37.409L169.762 38.4ZM206.002 43.2L208.819 44.2328L208.828 44.2071L208.837 44.1813L206.002 43.2ZM204.242 48L201.425 46.9672L201.423 46.9745L201.42 46.9818L204.242 48ZM195.842 59.92L197.608 62.3447L197.62 62.3365L197.631 62.3282L195.842 59.92ZM147.202 61C141.754 61 138.172 59.9278 135.983 58.2557L132.341 63.0243C136.018 65.8322 141.13 67 147.202 67V61ZM135.983 58.2557C133.935 56.6917 132.762 54.3527 132.762 50.72H126.762C126.762 55.8339 128.523 60.1083 132.341 63.0243L135.983 58.2557ZM132.762 50.72C132.762 48.0343 133.403 44.8256 134.812 41.0493L129.191 38.9507C127.615 43.1744 126.762 47.1124 126.762 50.72H132.762ZM134.825 41.0162L140.585 25.0162L134.939 22.9838L129.179 38.9838L134.825 41.0162ZM140.582 25.0237C143.246 17.6859 147.141 12.2714 152.176 8.57921L148.628 3.74078C142.463 8.26193 137.932 14.7407 134.942 22.9763L140.582 25.0237ZM152.165 8.5872C157.248 4.89508 163.333 3 170.562 3V-3C162.218 -3 154.863 -0.788416 148.639 3.7328L152.165 8.5872ZM170.562 3H197.762V-3H170.562V3ZM197.762 3C203.527 3 207.389 4.00987 209.768 5.60953L213.116 0.630468C209.308 -1.92988 204.05 -3 197.762 -3V3ZM209.798 5.62938C211.979 7.05863 213.082 9.06374 213.082 12.08H219.082C219.082 7.20292 217.091 3.2347 213.086 0.610613L209.798 5.62938ZM213.082 12.08C213.082 13.8687 212.651 16.1582 211.651 19.0067L217.313 20.9933C218.447 17.7618 219.082 14.7713 219.082 12.08H213.082ZM211.666 18.9655C210.867 21.1404 209.765 22.617 208.453 23.5918L212.031 28.4082C214.452 26.6097 216.177 24.0863 217.298 21.0345L211.666 18.9655ZM208.498 23.5588C207.209 24.4795 205.6 25 203.522 25V31C206.67 31 209.541 30.1872 211.986 28.4412L208.498 23.5588ZM203.522 25H185.922V31H203.522V25ZM185.922 25C184.299 25 183.632 24.6754 183.423 24.516C183.345 24.4566 183.306 24.4048 183.271 24.3252C183.229 24.2278 183.162 24.0099 183.162 23.6H177.162C177.162 25.7782 177.917 27.86 179.781 29.284C181.492 30.5913 183.705 31 185.922 31V25ZM183.162 23.6C183.162 22.9726 183.306 22.1242 183.705 21.0162L178.059 18.9838C177.498 20.5424 177.162 22.094 177.162 23.6H183.162ZM183.701 21.0252L186.901 12.2252L181.262 10.1748L178.062 18.9748L183.701 21.0252ZM186.976 11.9894C187.155 11.3322 187.322 10.5683 187.322 9.84H181.322C181.322 9.76768 181.329 9.77624 181.308 9.89864C181.288 10.0118 181.251 10.1795 181.188 10.4106L186.976 11.9894ZM187.322 9.84C187.322 8.5555 186.882 7.12165 185.606 6.1095C184.462 5.20254 183.091 5 182.002 5V11C182.2 11 182.27 11.0207 182.25 11.0154C182.225 11.0086 182.07 10.9632 181.878 10.8105C181.671 10.6464 181.508 10.4276 181.411 10.1974C181.322 9.98542 181.322 9.84362 181.322 9.84H187.322ZM182.002 5H180.402V11H182.002V5ZM180.402 5C178.818 5 177.266 5.40447 175.936 6.38933C174.621 7.36374 173.77 8.72331 173.25 10.2089L178.913 12.191C179.14 11.5434 179.383 11.3029 179.508 11.2107C179.618 11.1289 179.852 11 180.402 11V5ZM173.264 10.1704L158.064 51.7704L163.7 53.8296L178.9 12.2296L173.264 10.1704ZM158.008 51.938C157.801 52.6278 157.642 53.3892 157.642 54.16H163.642C163.642 54.1829 163.64 54.1539 163.656 54.0614C163.672 53.9706 163.702 53.8391 163.755 53.662L158.008 51.938ZM157.642 54.16C157.642 55.4445 158.082 56.8783 159.358 57.8905C160.501 58.7975 161.873 59 162.962 59V53C162.764 53 162.693 52.9793 162.714 52.9846C162.739 52.9914 162.893 53.0368 163.086 53.1895C163.293 53.3536 163.456 53.5724 163.553 53.8026C163.642 54.0146 163.642 54.1564 163.642 54.16H157.642ZM162.962 59H164.562V53H162.962V59ZM164.562 59C166.145 59 167.698 58.5955 169.028 57.6107C170.343 56.6363 171.193 55.2767 171.713 53.7911L166.05 51.809C165.824 52.4566 165.581 52.6971 165.456 52.7893C165.346 52.8711 165.112 53 164.562 53V59ZM171.699 53.8328L175.219 44.2328L169.585 42.1672L166.065 51.7672L171.699 53.8328ZM172.402 40.2H171.202V46.2H172.402V40.2ZM171.202 40.2C170.995 40.2 170.914 40.1794 170.922 40.1815C170.934 40.1846 171.082 40.2237 171.275 40.3699C171.484 40.5286 171.663 40.751 171.773 41.0032C171.877 41.2378 171.882 41.4074 171.882 41.44H165.882C165.882 42.7459 166.355 44.169 167.649 45.1501C168.786 46.0125 170.135 46.2 171.202 46.2V40.2ZM171.882 41.44C171.882 41.418 171.884 41.3514 171.943 41.2184L166.46 38.7816C166.093 39.6086 165.882 40.502 165.882 41.44H171.882ZM172.033 40.991L172.593 39.391L166.93 37.409L166.37 39.009L172.033 40.991ZM172.593 39.391C172.82 38.7434 173.063 38.5029 173.188 38.4107C173.298 38.3289 173.532 38.2 174.082 38.2V32.2C172.498 32.2 170.946 32.6045 169.616 33.5893C168.301 34.5637 167.45 35.9233 166.93 37.4089L172.593 39.391ZM174.082 38.2H200.882V32.2H174.082V38.2ZM200.882 38.2C202.529 38.2 203.215 38.5305 203.436 38.7003C203.507 38.7545 203.722 38.8936 203.722 39.68H209.722C209.722 37.4798 208.964 35.3788 207.088 33.9397C205.363 32.6161 203.128 32.2 200.882 32.2V38.2ZM203.722 39.68C203.722 40.1784 203.589 40.9989 203.167 42.2187L208.837 44.1813C209.375 42.6278 209.722 41.1016 209.722 39.68H203.722ZM203.185 42.1672L201.425 46.9672L207.059 49.0328L208.819 44.2328L203.185 42.1672ZM201.42 46.9818C199.716 51.7035 197.232 55.1503 194.053 57.5118L197.631 62.3282C201.919 59.143 205.034 54.6431 207.064 49.0182L201.42 46.9818ZM194.075 57.4953C190.921 59.7932 187.081 61 182.402 61V67C188.176 67 193.296 65.4868 197.608 62.3447L194.075 57.4953ZM182.402 61H147.202V67H182.402V61ZM209.363 56L206.544 54.9739L206.54 54.9838L209.363 56ZM223.923 16L226.742 17.0261L226.745 17.0182L223.923 16ZM232.323 4.16L234.09 6.58471L234.101 6.57652L234.112 6.56823L232.323 4.16ZM297.603 2.24L295.761 4.60806L295.777 4.62024L295.793 4.63222L297.603 2.24ZM299.123 16L301.942 17.0261L301.947 17.0123L301.952 16.9985L299.123 16ZM284.563 56L287.379 57.0345L287.382 57.0261L284.563 56ZM280.323 62L282.067 64.4412L282.09 64.4249L282.112 64.4082L280.323 62ZM250.963 56L248.144 54.9731L248.14 54.9838L250.963 56ZM267.283 11.2L270.102 12.2268L270.145 12.1097L270.177 11.9894L267.283 11.2ZM259.283 11.2L262.102 12.2268L262.108 12.209L262.115 12.191L259.283 11.2ZM242.963 56L245.779 57.0345L245.782 57.0268L242.963 56ZM238.723 62L240.467 64.4412L240.49 64.4249L240.512 64.4082L238.723 62ZM214.403 61C212.78 61 212.113 60.6754 211.904 60.516C211.827 60.4566 211.787 60.4048 211.753 60.3252C211.71 60.2278 211.643 60.0099 211.643 59.6H205.643C205.643 61.7782 206.398 63.86 208.262 65.284C209.973 66.5913 212.186 67 214.403 67V61ZM211.643 59.6C211.643 58.9726 211.787 58.1242 212.186 57.0162L206.54 54.9838C205.979 56.5424 205.643 58.094 205.643 59.6H211.643ZM212.182 57.0261L226.742 17.0261L221.104 14.9739L206.544 54.9739L212.182 57.0261ZM226.745 17.0182C228.448 12.2991 230.927 8.88897 234.09 6.58471L230.557 1.73529C226.253 4.87103 223.132 9.35425 221.101 14.9818L226.745 17.0182ZM234.112 6.56823C237.265 4.22621 241.097 3 245.763 3V-3C239.976 -3 234.848 -1.45288 230.534 1.75177L234.112 6.56823ZM245.763 3H288.963V-3H245.763V3ZM288.963 3C292.497 3 294.595 3.70129 295.761 4.60806L299.445 -0.128057C296.771 -2.20796 293.109 -3 288.963 -3V3ZM295.793 4.63222C296.873 5.4497 297.563 6.69016 297.563 8.88H303.563C303.563 5.20317 302.28 2.01696 299.413 -0.152222L295.793 4.63222ZM297.563 8.88C297.563 10.4558 297.185 12.4778 296.294 15.0015L301.952 16.9985C302.981 14.0822 303.563 11.3575 303.563 8.88H297.563ZM296.304 14.9739L281.744 54.9739L287.382 57.0261L301.942 17.0261L296.304 14.9739ZM281.747 54.9655C280.948 57.1404 279.846 58.617 278.534 59.5918L282.112 64.4082C284.533 62.6097 286.258 60.0863 287.379 57.0345L281.747 54.9655ZM278.579 59.5588C277.29 60.4794 275.682 61 273.603 61V67C276.751 67 279.622 66.1872 282.067 64.4412L278.579 59.5588ZM273.603 61H256.003V67H273.603V61ZM256.003 61C254.38 61 253.713 60.6754 253.504 60.516C253.427 60.4566 253.387 60.4048 253.353 60.3252C253.31 60.2278 253.243 60.0099 253.243 59.6H247.243C247.243 61.7782 247.998 63.86 249.862 65.284C251.573 66.5913 253.786 67 256.003 67V61ZM253.243 59.6C253.243 58.9726 253.387 58.1242 253.786 57.0162L248.14 54.9838C247.579 56.5424 247.243 58.094 247.243 59.6H253.243ZM253.782 57.0268L270.102 12.2268L264.464 10.1732L248.144 54.9732L253.782 57.0268ZM270.177 11.9894C270.357 11.3322 270.523 10.5683 270.523 9.84H264.523C264.523 9.76768 264.53 9.77624 264.509 9.89864C264.489 10.0118 264.452 10.1795 264.389 10.4106L270.177 11.9894ZM270.523 9.84C270.523 8.5555 270.083 7.12164 268.807 6.1095C267.664 5.20254 266.292 5 265.203 5V11C265.401 11 265.472 11.0207 265.451 11.0154C265.426 11.0086 265.272 10.9632 265.079 10.8105C264.872 10.6464 264.709 10.4276 264.612 10.1974C264.523 9.98542 264.523 9.84362 264.523 9.84H270.523ZM265.203 5H263.603V11H265.203V5ZM263.603 5C262.02 5 260.467 5.40447 259.137 6.38933C257.822 7.36374 256.972 8.72331 256.452 10.2089L262.115 12.191C262.341 11.5434 262.584 11.3029 262.709 11.2107C262.819 11.1289 263.053 11 263.603 11V5ZM256.464 10.1732L240.144 54.9732L245.782 57.0268L262.102 12.2268L256.464 10.1732ZM240.147 54.9655C239.348 57.1404 238.246 58.617 236.934 59.5918L240.512 64.4082C242.933 62.6097 244.658 60.0863 245.779 57.0345L240.147 54.9655ZM236.979 59.5588C235.691 60.4794 234.082 61 232.003 61V67C235.151 67 238.022 66.1872 240.467 64.4412L236.979 59.5588ZM232.003 61H214.403V67H232.003V61ZM359.702 8L362.521 9.02684L362.529 9.00415L362.537 8.98132L359.702 8ZM343.382 52.8L340.563 51.7732L340.533 51.8548L340.508 51.938L343.382 52.8ZM351.382 52.8L348.563 51.7732L348.557 51.791L348.55 51.809L351.382 52.8ZM367.702 8L364.886 6.96554L364.883 6.97315L367.702 8ZM371.942 2.08L373.686 4.5212L373.708 4.50492L373.731 4.48823L371.942 2.08ZM401.302 8L404.121 9.02613L404.129 9.0038L404.137 8.98133L401.302 8ZM386.742 48L383.923 46.9739L383.92 46.9818L386.742 48ZM378.342 59.92L380.108 62.3447L380.12 62.3365L380.131 62.3282L378.342 59.92ZM312.982 61.76L311.14 64.1281L311.156 64.1402L311.172 64.1522L312.982 61.76ZM311.542 48L308.723 46.9739L308.718 46.9877L308.713 47.0015L311.542 48ZM326.102 8L323.286 6.96554L323.283 6.97386L326.102 8ZM330.342 2.08L332.086 4.52119L332.108 4.50492L332.131 4.48823L330.342 2.08ZM354.662 3C356.285 3 356.952 3.32462 357.161 3.48401C357.238 3.54337 357.278 3.59524 357.312 3.67483C357.355 3.7722 357.422 3.99013 357.422 4.39999H363.422C363.422 2.22178 362.667 0.13999 360.803 -1.28402C359.092 -2.59129 356.879 -3 354.662 -3V3ZM357.422 4.39999C357.422 4.96593 357.282 5.81892 356.867 7.01867L362.537 8.98132C363.082 7.40774 363.422 5.86073 363.422 4.39999H357.422ZM356.883 6.97315L340.563 51.7732L346.201 53.8268L362.521 9.02684L356.883 6.97315ZM340.508 51.938C340.301 52.6278 340.142 53.3892 340.142 54.16H346.142C346.142 54.1829 346.14 54.1539 346.156 54.0614C346.172 53.9706 346.202 53.8391 346.255 53.662L340.508 51.938ZM340.142 54.16C340.142 55.4445 340.582 56.8783 341.858 57.8905C343.001 58.7975 344.373 59 345.462 59V53C345.264 53 345.193 52.9793 345.214 52.9846C345.239 52.9914 345.393 53.0368 345.586 53.1895C345.793 53.3536 345.956 53.5724 346.053 53.8026C346.142 54.0146 346.142 54.1564 346.142 54.16H340.142ZM345.462 59H347.062V53H345.462V59ZM347.062 59C348.645 59 350.198 58.5955 351.528 57.6107C352.843 56.6363 353.693 55.2767 354.213 53.7911L348.55 51.809C348.324 52.4566 348.081 52.6971 347.956 52.7893C347.846 52.8711 347.612 53 347.062 53V59ZM354.201 53.8268L370.521 9.02684L364.883 6.97315L348.563 51.7732L354.201 53.8268ZM370.518 9.03445C371.315 6.86455 372.406 5.43511 373.686 4.5212L370.198 -0.361204C367.744 1.39155 366.009 3.90878 364.886 6.96554L370.518 9.03445ZM373.731 4.48823C375.017 3.53288 376.609 3 378.662 3V-3C375.488 -3 372.6 -2.14621 370.153 -0.328236L373.731 4.48823ZM378.662 3H396.262V-3H378.662V3ZM396.262 3C397.885 3 398.552 3.32462 398.761 3.48401C398.838 3.54338 398.878 3.59524 398.912 3.67483C398.955 3.7722 399.022 3.99013 399.022 4.39999H405.022C405.022 2.22178 404.267 0.139988 402.403 -1.28402C400.692 -2.59129 398.479 -3 396.262 -3V3ZM399.022 4.39999C399.022 4.96593 398.882 5.81891 398.467 7.01866L404.137 8.98133C404.682 7.40775 405.022 5.86073 405.022 4.39999H399.022ZM398.483 6.97386L383.923 46.9739L389.561 49.0261L404.121 9.02613L398.483 6.97386ZM383.92 46.9818C382.216 51.7035 379.732 55.1503 376.553 57.5118L380.131 62.3282C384.419 59.143 387.534 54.6431 389.564 49.0182L383.92 46.9818ZM376.575 57.4953C373.421 59.7932 369.581 61 364.902 61V67C370.676 67 375.796 65.4868 380.108 62.3447L376.575 57.4953ZM364.902 61H321.702V67H364.902V61ZM321.702 61C318.177 61 316.027 60.3023 314.792 59.3678L311.172 64.1522C313.883 66.2044 317.547 67 321.702 67V61ZM314.824 59.3919C313.787 58.5859 313.102 57.3401 313.102 55.12H307.102C307.102 58.7665 308.336 61.9475 311.14 64.1281L314.824 59.3919ZM313.102 55.12C313.102 53.5442 313.48 51.5222 314.371 48.9985L308.713 47.0015C307.684 49.9178 307.102 52.6425 307.102 55.12H313.102ZM314.361 49.0261L328.921 9.02613L323.283 6.97386L308.723 46.9739L314.361 49.0261ZM328.918 9.03445C329.715 6.86455 330.806 5.43511 332.086 4.52119L328.598 -0.361202C326.144 1.39155 324.409 3.90878 323.286 6.96554L328.918 9.03445ZM332.131 4.48823C333.417 3.53288 335.009 3 337.062 3V-3C333.888 -3 331 -2.14621 328.553 -0.328236L332.131 4.48823ZM337.062 3H354.662V-3H337.062V3ZM391.865 56L389.045 54.9755L389.042 54.9838L391.865 56ZM409.305 8L406.489 6.96554L406.485 6.97552L409.305 8ZM413.545 2.08L415.289 4.52119L415.311 4.50492L415.334 4.48823L413.545 2.08ZM472.505 2.24L470.663 4.60806L470.679 4.62024L470.695 4.63222L472.505 2.24ZM474.025 16L476.845 17.024L476.849 17.0113L476.854 16.9985L474.025 16ZM468.505 31.2L471.321 32.2345L471.325 32.224L468.505 31.2ZM460.025 43.12L458.258 40.6953L460.025 43.12ZM428.665 47.2V44.2H426.564L425.846 46.1748L428.665 47.2ZM425.465 56L428.281 57.0345L428.284 57.0252L425.465 56ZM421.225 62L422.969 64.4412L422.991 64.4249L423.014 64.4082L421.225 62ZM432.745 35.92L435.502 37.1018L435.53 37.0382L435.554 36.9734L432.745 35.92ZM433.145 38.64L431.024 40.7613L431.094 40.832L431.169 40.8977L433.145 38.64ZM453.145 38.24L451.415 35.7891L451.38 35.814L451.345 35.84L453.145 38.24ZM454.985 35.92L452.176 34.8666L452.166 34.894L452.156 34.9215L454.985 35.92ZM455.225 35.28L452.416 34.2266V34.2266L455.225 35.28ZM454.825 32.64L452.704 34.7613L452.774 34.832L452.849 34.8977L454.825 32.64ZM434.745 32.96L433.015 30.5091L432.98 30.534L432.945 30.56L434.745 32.96ZM432.985 35.28L435.794 36.3334L435.804 36.306L435.814 36.2785L432.985 35.28ZM396.905 61C395.282 61 394.615 60.6754 394.406 60.516C394.328 60.4566 394.289 60.4048 394.255 60.3252C394.212 60.2278 394.145 60.0099 394.145 59.6H388.145C388.145 61.7782 388.9 63.86 390.764 65.284C392.475 66.5913 394.688 67 396.905 67V61ZM394.145 59.6C394.145 58.9726 394.289 58.1242 394.688 57.0162L389.042 54.9838C388.481 56.5424 388.145 58.094 388.145 59.6H394.145ZM394.685 57.0245L412.125 9.02447L406.485 6.97552L389.045 54.9755L394.685 57.0245ZM412.121 9.03445C412.918 6.86455 414.009 5.43511 415.289 4.52119L411.801 -0.361202C409.347 1.39155 407.612 3.90878 406.489 6.96554L412.121 9.03445ZM415.334 4.48823C416.62 3.53288 418.212 3 420.265 3V-3C417.091 -3 414.203 -2.14621 411.756 -0.328236L415.334 4.48823ZM420.265 3H463.865V-3H420.265V3ZM463.865 3C467.399 3 469.497 3.70129 470.663 4.60806L474.347 -0.128057C471.673 -2.20796 468.011 -3 463.865 -3V3ZM470.695 4.63222C471.775 5.4497 472.465 6.69016 472.465 8.88H478.465C478.465 5.20317 477.182 2.01696 474.315 -0.15222L470.695 4.63222ZM472.465 8.88C472.465 10.4558 472.087 12.4778 471.196 15.0015L476.854 16.9985C477.883 14.0822 478.465 11.3575 478.465 8.88H472.465ZM471.205 14.976L465.685 30.176L471.325 32.224L476.845 17.024L471.205 14.976ZM465.689 30.1655C463.931 34.9512 461.421 38.391 458.258 40.6953L461.792 45.5447C466.096 42.409 469.239 37.9021 471.321 32.2345L465.689 30.1655ZM458.258 40.6953C455.099 42.9971 451.283 44.2 446.665 44.2V50.2C452.394 50.2 457.484 48.6829 461.792 45.5447L458.258 40.6953ZM446.665 44.2H428.665V50.2H446.665V44.2ZM425.846 46.1748L422.646 54.9748L428.284 57.0252L431.484 48.2252L425.846 46.1748ZM422.649 54.9655C421.85 57.1404 420.748 58.617 419.436 59.5918L423.014 64.4082C425.435 62.6097 427.16 60.0863 428.281 57.0345L422.649 54.9655ZM419.481 59.5588C418.192 60.4794 416.583 61 414.505 61V67C417.653 67 420.524 66.1872 422.969 64.4412L419.481 59.5588ZM414.505 61H396.905V67H414.505V61ZM429.988 34.7382C429.682 35.4519 429.505 36.2258 429.505 37.04H435.505C435.505 37.0694 435.502 37.0934 435.498 37.1086C435.495 37.1232 435.494 37.1214 435.502 37.1018L429.988 34.7382ZM429.505 37.04C429.505 38.4221 429.998 39.7353 431.024 40.7613L435.266 36.5187C435.326 36.5779 435.399 36.6764 435.45 36.8058C435.501 36.9318 435.505 37.0218 435.505 37.04H429.505ZM431.169 40.8977C432.258 41.8502 433.574 42.2 434.825 42.2V36.2C434.746 36.2 434.76 36.1893 434.834 36.214C434.916 36.2413 435.022 36.2958 435.121 36.3823L431.169 40.8977ZM434.825 42.2H450.505V36.2H434.825V42.2ZM450.505 42.2C452.17 42.2 453.667 41.5983 454.945 40.64L451.345 35.84C450.916 36.1617 450.653 36.2 450.505 36.2V42.2ZM454.875 40.6909C456.209 39.7495 457.256 38.4985 457.814 36.9185L452.156 34.9215C452.074 35.1548 451.895 35.4505 451.415 35.7891L454.875 40.6909ZM457.794 36.9734L458.034 36.3334L452.416 34.2266L452.176 34.8666L457.794 36.9734ZM458.034 36.3334C458.271 35.7011 458.465 34.9573 458.465 34.16H452.465C452.465 34.0728 452.476 34.033 452.472 34.0514C452.468 34.0691 452.454 34.126 452.416 34.2266L458.034 36.3334ZM458.465 34.16C458.465 32.7792 457.966 31.4023 456.801 30.3823L452.849 34.8977C452.731 34.7942 452.616 34.6439 452.54 34.4642C452.468 34.2936 452.465 34.175 452.465 34.16H458.465ZM456.946 30.5187C455.872 29.4445 454.505 29 453.145 29V35C453.183 35 453.127 35.0054 453.017 34.9635C452.899 34.9185 452.787 34.845 452.704 34.7613L456.946 30.5187ZM453.145 29H437.465V35H453.145V29ZM437.465 29C435.811 29 434.313 29.593 433.015 30.5091L436.475 35.4109C436.991 35.047 437.305 35 437.465 35V29ZM432.945 30.56C431.672 31.515 430.694 32.7561 430.156 34.2815L435.814 36.2785C435.916 35.9906 436.112 35.685 436.545 35.36L432.945 30.56ZM430.176 34.2266L429.936 34.8666L435.554 36.9734L435.794 36.3334L430.176 34.2266ZM1.24 168L-1.57967 166.976L-1.58266 166.984L1.24 168ZM18.68 120L15.864 118.966L15.8603 118.976L18.68 120ZM22.92 114.08L24.6637 116.521L24.6865 116.505L24.709 116.488L22.92 114.08ZM52.28 120L55.0981 121.029L55.1067 121.005L55.115 120.981L52.28 120ZM44.92 140.16L42.1019 139.131L40.6311 143.16H44.92V140.16ZM52.92 140.16V143.16H55.0184L55.7381 141.189L52.92 140.16ZM60.28 120L57.464 118.966L57.4619 118.971L60.28 120ZM64.52 114.08L66.2637 116.521L66.2865 116.505L66.309 116.488L64.52 114.08ZM93.88 120L96.6997 121.024L96.7075 121.003L96.715 120.981L93.88 120ZM76.44 168L79.256 169.034L79.2597 169.024L76.44 168ZM72.2 174L73.9437 176.441L73.9665 176.425L73.989 176.408L72.2 174ZM42.84 168L40.0199 166.977L40.0173 166.984L42.84 168ZM50.04 148.16L52.86 149.183L54.3201 145.16H50.04V148.16ZM42.04 148.16V145.16H39.9373L39.22 147.137L42.04 148.16ZM34.84 168L37.656 169.034L37.66 169.023L34.84 168ZM30.6 174L32.3437 176.441L32.3665 176.425L32.389 176.408L30.6 174ZM6.28 173C4.65722 173 3.98978 172.675 3.78112 172.516C3.70341 172.457 3.66435 172.405 3.62962 172.325C3.58713 172.228 3.52 172.01 3.52 171.6H-2.48C-2.48 173.778 -1.72527 175.86 0.138879 177.284C1.85022 178.591 4.06278 179 6.28 179V173ZM3.52 171.6C3.52 170.973 3.66376 170.124 4.06266 169.016L-1.58266 166.984C-2.14376 168.542 -2.48 170.094 -2.48 171.6H3.52ZM4.05965 169.024L21.4997 121.024L15.8603 118.976L-1.57965 166.976L4.05965 169.024ZM21.496 121.034C22.2931 118.865 23.3842 117.435 24.6637 116.521L21.1763 111.639C18.7224 113.392 16.9869 115.909 15.864 118.966L21.496 121.034ZM24.709 116.488C25.995 115.533 27.5875 115 29.64 115V109C26.4659 109 23.5783 109.854 21.131 111.672L24.709 116.488ZM29.64 115H47.24V109H29.64V115ZM47.24 115C48.8628 115 49.5302 115.325 49.7389 115.484C49.8166 115.543 49.8556 115.595 49.8904 115.675C49.9329 115.772 50 115.99 50 116.4H56C56 114.222 55.2453 112.14 53.3811 110.716C51.6698 109.409 49.4572 109 47.24 109V115ZM50 116.4C50 116.966 49.8603 117.819 49.445 119.019L55.115 120.981C55.6597 119.408 56 117.861 56 116.4H50ZM49.4619 118.971L42.1019 139.131L47.7381 141.189L55.0981 121.029L49.4619 118.971ZM44.92 143.16H52.92V137.16H44.92V143.16ZM55.7381 141.189L63.0981 121.029L57.4619 118.971L50.1019 139.131L55.7381 141.189ZM63.096 121.034C63.8931 118.865 64.9842 117.435 66.2637 116.521L62.7763 111.639C60.3224 113.392 58.5869 115.909 57.464 118.966L63.096 121.034ZM66.309 116.488C67.595 115.533 69.1875 115 71.24 115V109C68.0659 109 65.1783 109.854 62.731 111.672L66.309 116.488ZM71.24 115H88.84V109H71.24V115ZM88.84 115C90.4628 115 91.1302 115.325 91.3389 115.484C91.4166 115.543 91.4557 115.595 91.4904 115.675C91.5329 115.772 91.6 115.99 91.6 116.4H97.6C97.6 114.222 96.8453 112.14 94.9811 110.716C93.2698 109.409 91.0572 109 88.84 109V115ZM91.6 116.4C91.6 116.966 91.4604 117.819 91.045 119.019L96.715 120.981C97.2597 119.408 97.6 117.861 97.6 116.4H91.6ZM91.0603 118.976L73.6203 166.976L79.2597 169.024L96.6997 121.024L91.0603 118.976ZM73.624 166.966C72.8251 169.14 71.7233 170.617 70.411 171.592L73.989 176.408C76.4101 174.61 78.1349 172.086 79.256 169.034L73.624 166.966ZM70.4563 171.559C69.1674 172.479 67.5585 173 65.48 173V179C68.6282 179 71.4993 178.187 73.9437 176.441L70.4563 171.559ZM65.48 173H47.88V179H65.48V173ZM47.88 173C46.2572 173 45.5898 172.675 45.3811 172.516C45.3034 172.457 45.2644 172.405 45.2296 172.325C45.1871 172.228 45.12 172.01 45.12 171.6H39.12C39.12 173.778 39.8747 175.86 41.7389 177.284C43.4502 178.591 45.6628 179 47.88 179V173ZM45.12 171.6C45.12 170.973 45.2638 170.124 45.6627 169.016L40.0173 166.984C39.4562 168.542 39.12 170.094 39.12 171.6H45.12ZM45.66 169.023L52.86 149.183L47.22 147.137L40.02 166.977L45.66 169.023ZM50.04 145.16H42.04V151.16H50.04V145.16ZM39.22 147.137L32.02 166.977L37.66 169.023L44.86 149.183L39.22 147.137ZM32.024 166.966C31.2251 169.14 30.1233 170.617 28.811 171.592L32.389 176.408C34.8101 174.61 36.5349 172.086 37.656 169.034L32.024 166.966ZM28.8563 171.559C27.5674 172.479 25.9585 173 23.88 173V179C27.0282 179 29.8993 178.187 32.3437 176.441L28.8563 171.559ZM23.88 173H6.28V179H23.88V173ZM84.5212 168L81.7016 166.976L81.6986 166.984L84.5212 168ZM101.961 120L99.1452 118.966L99.1416 118.976L101.961 120ZM106.201 114.08L107.945 116.521L107.968 116.505L107.99 116.488L106.201 114.08ZM169.721 115.2L172.553 116.191L172.582 116.108L172.606 116.024L169.721 115.2ZM169.161 116.8L171.97 117.853L171.982 117.822L171.993 117.791L169.161 116.8ZM135.561 120V117H133.453L132.739 118.984L135.561 120ZM132.681 128L129.859 126.984L128.413 131H132.681V128ZM156.681 131.2L153.94 129.982L153.89 130.093L153.85 130.209L156.681 131.2ZM156.121 132.8L158.93 133.853L158.942 133.822L158.953 133.791L156.121 132.8ZM129.721 136V133H127.62L126.902 134.975L129.721 136ZM126.521 144.8L123.702 143.775L122.238 147.8H126.521V144.8ZM159.241 152.8L162.061 153.824L162.069 153.803L162.076 153.781L159.241 152.8ZM153.721 168L156.537 169.034L156.541 169.024L153.721 168ZM149.481 174L151.225 176.441L151.248 176.425L151.27 176.408L149.481 174ZM89.5612 173C87.9385 173 87.271 172.675 87.0624 172.516C86.9847 172.457 86.9456 172.405 86.9109 172.325C86.8684 172.228 86.8012 172.01 86.8012 171.6H80.8012C80.8012 173.778 81.556 175.86 83.4201 177.284C85.1315 178.591 87.344 179 89.5612 179V173ZM86.8012 171.6C86.8012 170.973 86.945 170.124 87.3439 169.016L81.6986 166.984C81.1375 168.542 80.8012 170.094 80.8012 171.6H86.8012ZM87.3409 169.024L104.781 121.024L99.1416 118.976L81.7016 166.976L87.3409 169.024ZM104.777 121.034C105.574 118.865 106.665 117.435 107.945 116.521L104.458 111.639C102.004 113.392 100.268 115.909 99.1452 118.966L104.777 121.034ZM107.99 116.488C109.276 115.533 110.869 115 112.921 115V109C109.747 109 106.86 109.854 104.412 111.672L107.99 116.488ZM112.921 115H167.721V109H112.921V115ZM167.721 115C167.928 115 168.009 115.021 168.001 115.018C167.989 115.015 167.841 114.976 167.648 114.83C167.439 114.671 167.261 114.449 167.15 114.197C167.047 113.962 167.041 113.793 167.041 113.76H173.041C173.041 112.454 172.568 111.031 171.274 110.05C170.138 109.187 168.788 109 167.721 109V115ZM167.041 113.76C167.041 113.667 167.047 113.6 167.05 113.568C167.053 113.534 167.056 113.514 167.056 113.514C167.056 113.512 167.055 113.521 167.051 113.542C167.047 113.563 167.041 113.592 167.033 113.629C166.997 113.788 166.935 114.031 166.837 114.376L172.606 116.024C172.721 115.622 172.818 115.252 172.89 114.931C172.945 114.681 173.041 114.225 173.041 113.76H167.041ZM166.89 114.209L166.33 115.809L171.993 117.791L172.553 116.191L166.89 114.209ZM166.352 115.747C166.106 116.404 165.846 116.665 165.697 116.774C165.562 116.872 165.309 117 164.761 117V123C166.347 123 167.894 122.595 169.226 121.626C170.543 120.668 171.417 119.329 171.97 117.853L166.352 115.747ZM164.761 117H135.561V123H164.761V117ZM132.739 118.984L129.859 126.984L135.504 129.016L138.384 121.016L132.739 118.984ZM132.681 131H154.681V125H132.681V131ZM154.681 131C154.888 131 154.969 131.021 154.961 131.018C154.949 131.015 154.801 130.976 154.608 130.83C154.399 130.671 154.221 130.449 154.11 130.197C154.007 129.962 154.001 129.793 154.001 129.76H160.001C160.001 128.454 159.528 127.031 158.234 126.05C157.098 125.187 155.748 125 154.681 125V131ZM154.001 129.76C154.001 129.782 153.999 129.849 153.94 129.982L159.423 132.418C159.79 131.591 160.001 130.698 160.001 129.76H154.001ZM153.85 130.209L153.29 131.809L158.953 133.791L159.513 132.191L153.85 130.209ZM153.312 131.747C153.066 132.404 152.806 132.665 152.657 132.774C152.522 132.872 152.269 133 151.721 133V139C153.307 139 154.854 138.595 156.186 137.626C157.503 136.668 158.377 135.329 158.93 133.853L153.312 131.747ZM151.721 133H129.721V139H151.721V133ZM126.902 134.975L123.702 143.775L129.341 145.825L132.541 137.025L126.902 134.975ZM126.521 147.8H154.121V141.8H126.521V147.8ZM154.121 147.8C155.769 147.8 156.454 148.131 156.675 148.3C156.746 148.355 156.961 148.494 156.961 149.28H162.961C162.961 147.08 162.203 144.979 160.327 143.54C158.602 142.216 156.367 141.8 154.121 141.8V147.8ZM156.961 149.28C156.961 149.778 156.829 150.599 156.406 151.819L162.076 153.781C162.614 152.228 162.961 150.702 162.961 149.28H156.961ZM156.421 151.776L150.901 166.976L156.541 169.024L162.061 153.824L156.421 151.776ZM150.905 166.966C150.106 169.14 149.005 170.617 147.692 171.592L151.27 176.408C153.691 174.61 155.416 172.086 156.537 169.034L150.905 166.966ZM147.738 171.559C146.449 172.479 144.84 173 142.761 173V179C145.909 179 148.781 178.187 151.225 176.441L147.738 171.559ZM142.761 173H89.5612V179H142.761V173ZM161.787 168L158.967 166.976L158.964 166.984L161.787 168ZM179.227 120L176.411 118.966L176.407 118.976L179.227 120ZM183.467 114.08L185.211 116.521L185.233 116.505L185.256 116.488L183.467 114.08ZM248.667 113.92L246.97 116.394L246.995 116.411L247.019 116.427L248.667 113.92ZM249.227 129.92L246.416 128.871L246.413 128.88L246.41 128.889L249.227 129.92ZM240.907 144L242.91 146.234L242.912 146.232L240.907 144ZM218.587 148.16V145.16H216.492L215.77 147.127L218.587 148.16ZM217.707 150.56L214.89 149.527L214.859 149.612L214.833 149.698L217.707 150.56ZM237.627 161.76L240.45 162.774L240.456 162.757L240.462 162.741L237.627 161.76ZM235.387 168L238.203 169.034L238.207 169.024L238.21 169.014L235.387 168ZM231.147 174L232.891 176.441L232.913 176.425L232.936 176.408L231.147 174ZM207.707 173.76L205.865 176.128L205.881 176.14L205.897 176.152L207.707 173.76ZM206.267 160L203.449 158.972L203.443 158.987L203.438 159.002L206.267 160ZM210.587 148.16L213.405 149.188L214.875 145.16H210.587V148.16ZM202.587 148.16V145.16H200.484L199.767 147.137L202.587 148.16ZM195.387 168L198.203 169.034L198.207 169.023L195.387 168ZM191.147 174L192.891 176.441L192.913 176.425L192.936 176.408L191.147 174ZM206.667 136.96L203.85 135.928L203.812 136.031L203.782 136.136L206.667 136.96ZM212.987 139.36L214.731 141.801L214.786 141.761L214.84 141.719L212.987 139.36ZM214.667 136.96L217.482 137.997L217.484 137.992L214.667 136.96ZM219.707 123.2L222.524 124.232L222.568 124.112L222.601 123.989L219.707 123.2ZM211.707 123.2L214.524 124.232L214.531 124.211L214.538 124.191L211.707 123.2ZM166.827 173C165.204 173 164.537 172.675 164.328 172.516C164.25 172.457 164.211 172.405 164.176 172.325C164.134 172.228 164.067 172.01 164.067 171.6H158.067C158.067 173.778 158.822 175.86 160.686 177.284C162.397 178.591 164.61 179 166.827 179V173ZM164.067 171.6C164.067 170.973 164.211 170.124 164.61 169.016L158.964 166.984C158.403 168.542 158.067 170.094 158.067 171.6H164.067ZM164.607 169.024L182.047 121.024L176.407 118.976L158.967 166.976L164.607 169.024ZM182.043 121.034C182.84 118.865 183.931 117.435 185.211 116.521L181.723 111.639C179.269 113.392 177.534 115.909 176.411 118.966L182.043 121.034ZM185.256 116.488C186.542 115.533 188.134 115 190.187 115V109C187.013 109 184.125 109.854 181.678 111.672L185.256 116.488ZM190.187 115H239.787V109H190.187V115ZM239.787 115C243.653 115 245.863 115.635 246.97 116.394L250.363 111.446C247.738 109.645 244.028 109 239.787 109V115ZM247.019 116.427C247.833 116.962 248.467 117.879 248.467 119.92H254.467C254.467 116.415 253.234 113.331 250.314 111.413L247.019 116.427ZM248.467 119.92C248.467 122.078 247.851 125.029 246.416 128.871L252.037 130.969C253.59 126.811 254.467 123.095 254.467 119.92H248.467ZM246.41 128.889C244.081 135.254 241.519 139.417 238.902 141.768L242.912 146.232C246.588 142.93 249.573 137.706 252.044 130.951L246.41 128.889ZM238.904 141.766C236.47 143.949 233.182 145.16 228.747 145.16V151.16C234.339 151.16 239.157 149.598 242.91 146.234L238.904 141.766ZM228.747 145.16H218.587V151.16H228.747V145.16ZM215.77 147.127L214.89 149.527L220.524 151.593L221.404 149.193L215.77 147.127ZM214.833 149.698C214.626 150.388 214.467 151.149 214.467 151.92H220.467C220.467 151.943 220.465 151.914 220.481 151.821C220.497 151.731 220.527 151.599 220.58 151.422L214.833 149.698ZM214.467 151.92C214.467 153.204 214.907 154.638 216.183 155.65C217.326 156.557 218.698 156.76 219.787 156.76V150.76C219.589 150.76 219.518 150.739 219.539 150.745C219.564 150.751 219.718 150.797 219.911 150.95C220.118 151.114 220.281 151.332 220.378 151.563C220.467 151.775 220.467 151.916 220.467 151.92H214.467ZM219.787 156.76H232.587V150.76H219.787V156.76ZM232.587 156.76C234.21 156.76 234.877 157.085 235.086 157.244C235.163 157.303 235.203 157.355 235.237 157.435C235.28 157.532 235.347 157.75 235.347 158.16H241.347C241.347 155.982 240.592 153.9 238.728 152.476C237.017 151.169 234.804 150.76 232.587 150.76V156.76ZM235.347 158.16C235.347 158.726 235.207 159.579 234.792 160.779L240.462 162.741C241.007 161.168 241.347 159.621 241.347 158.16H235.347ZM234.803 160.746L232.563 166.986L238.21 169.014L240.45 162.774L234.803 160.746ZM232.571 166.966C231.772 169.14 230.67 170.617 229.358 171.592L232.936 176.408C235.357 174.61 237.082 172.086 238.203 169.034L232.571 166.966ZM229.403 171.559C228.114 172.479 226.505 173 224.427 173V179C227.575 179 230.446 178.187 232.891 176.441L229.403 171.559ZM224.427 173H216.427V179H224.427V173ZM216.427 173C212.902 173 210.752 172.302 209.517 171.368L205.897 176.152C208.608 178.204 212.272 179 216.427 179V173ZM209.549 171.392C208.512 170.586 207.827 169.34 207.827 167.12H201.827C201.827 170.767 203.061 173.947 205.865 176.128L209.549 171.392ZM207.827 167.12C207.827 165.544 208.205 163.522 209.096 160.998L203.438 159.002C202.409 161.918 201.827 164.642 201.827 167.12H207.827ZM209.085 161.028L213.405 149.188L207.769 147.132L203.449 158.972L209.085 161.028ZM210.587 145.16H202.587V151.16H210.587V145.16ZM199.767 147.137L192.567 166.977L198.207 169.023L205.407 149.183L199.767 147.137ZM192.571 166.966C191.772 169.14 190.67 170.617 189.358 171.592L192.936 176.408C195.357 174.61 197.082 172.086 198.203 169.034L192.571 166.966ZM189.403 171.559C188.114 172.479 186.505 173 184.427 173V179C187.575 179 190.446 178.187 192.891 176.441L189.403 171.559ZM184.427 173H166.827V179H184.427V173ZM203.782 136.136C203.667 136.538 203.57 136.908 203.498 137.229C203.443 137.479 203.347 137.935 203.347 138.4H209.347C209.347 138.493 209.341 138.56 209.338 138.592C209.335 138.626 209.332 138.646 209.332 138.646C209.332 138.648 209.333 138.639 209.337 138.618C209.341 138.597 209.347 138.568 209.355 138.531C209.391 138.372 209.453 138.129 209.551 137.784L203.782 136.136ZM203.347 138.4C203.347 139.706 203.82 141.129 205.114 142.11C206.251 142.973 207.6 143.16 208.667 143.16V137.16C208.46 137.16 208.379 137.139 208.387 137.142C208.4 137.145 208.547 137.184 208.74 137.33C208.949 137.489 209.128 137.711 209.238 137.963C209.342 138.198 209.347 138.367 209.347 138.4H203.347ZM208.667 143.16H210.267V137.16H208.667V143.16ZM210.267 143.16C211.854 143.16 213.396 142.755 214.731 141.801L211.243 136.919C211.084 137.032 210.813 137.16 210.267 137.16V143.16ZM214.84 141.719C216.081 140.744 216.944 139.458 217.482 137.997L211.852 135.923C211.644 136.488 211.386 136.803 211.133 137.001L214.84 141.719ZM217.484 137.992L222.524 124.232L216.89 122.168L211.85 135.928L217.484 137.992ZM222.601 123.989C222.78 123.332 222.947 122.568 222.947 121.84H216.947C216.947 121.768 216.954 121.776 216.933 121.899C216.913 122.012 216.876 122.18 216.813 122.411L222.601 123.989ZM222.947 121.84C222.947 120.555 222.507 119.122 221.231 118.109C220.087 117.203 218.716 117 217.627 117V123C217.825 123 217.895 123.021 217.875 123.015C217.85 123.009 217.695 122.963 217.503 122.81C217.296 122.646 217.133 122.428 217.036 122.197C216.947 121.985 216.947 121.844 216.947 121.84H222.947ZM217.627 117H216.027V123H217.627V117ZM216.027 117C214.443 117 212.891 117.404 211.561 118.389C210.246 119.364 209.395 120.723 208.875 122.209L214.538 124.191C214.765 123.543 215.008 123.303 215.133 123.211C215.243 123.129 215.477 123 216.027 123V117ZM208.89 122.168L203.85 135.928L209.484 137.992L214.524 124.232L208.89 122.168ZM243.506 168L240.686 166.976L240.683 166.984L243.506 168ZM260.946 120L258.13 118.966L258.126 118.976L260.946 120ZM265.186 114.08L266.929 116.521L266.952 116.505L266.975 116.488L265.186 114.08ZM328.706 115.2L331.537 116.191L331.566 116.108L331.59 116.024L328.706 115.2ZM328.146 116.8L330.955 117.853L330.966 117.822L330.977 117.791L328.146 116.8ZM294.546 120V117H292.437L291.723 118.984L294.546 120ZM291.666 128L288.843 126.984L287.397 131H291.666V128ZM315.666 131.2L312.924 129.982L312.874 130.093L312.834 130.209L315.666 131.2ZM315.106 132.8L317.915 133.853L317.926 133.822L317.937 133.791L315.106 132.8ZM288.706 136V133H286.604L285.886 134.975L288.706 136ZM285.506 144.8L282.686 143.775L281.223 147.8H285.506V144.8ZM318.226 152.8L321.045 153.824L321.053 153.803L321.061 153.781L318.226 152.8ZM312.706 168L315.522 169.034L315.525 169.024L312.706 168ZM308.466 174L310.209 176.441L310.232 176.425L310.255 176.408L308.466 174ZM248.546 173C246.923 173 246.255 172.675 246.047 172.516C245.969 172.457 245.93 172.405 245.895 172.325C245.853 172.228 245.786 172.01 245.786 171.6H239.786C239.786 173.778 240.54 175.86 242.405 177.284C244.116 178.591 246.328 179 248.546 179V173ZM245.786 171.6C245.786 170.973 245.929 170.124 246.328 169.016L240.683 166.984C240.122 168.542 239.786 170.094 239.786 171.6H245.786ZM246.325 169.024L263.765 121.024L258.126 118.976L240.686 166.976L246.325 169.024ZM263.762 121.034C264.559 118.865 265.65 117.435 266.929 116.521L263.442 111.639C260.988 113.392 259.253 115.909 258.13 118.966L263.762 121.034ZM266.975 116.488C268.261 115.533 269.853 115 271.906 115V109C268.732 109 265.844 109.854 263.397 111.672L266.975 116.488ZM271.906 115H326.706V109H271.906V115ZM326.706 115C326.912 115 326.994 115.021 326.985 115.018C326.973 115.015 326.825 114.976 326.632 114.83C326.423 114.671 326.245 114.449 326.134 114.197C326.031 113.962 326.026 113.793 326.026 113.76H332.026C332.026 112.454 331.552 111.031 330.259 110.05C329.122 109.187 327.773 109 326.706 109V115ZM326.026 113.76C326.026 113.667 326.031 113.6 326.034 113.568C326.037 113.534 326.04 113.514 326.041 113.514C326.041 113.512 326.039 113.521 326.035 113.542C326.031 113.563 326.025 113.592 326.017 113.629C325.982 113.788 325.92 114.031 325.821 114.376L331.59 116.024C331.705 115.622 331.803 115.252 331.874 114.931C331.93 114.681 332.026 114.225 332.026 113.76H326.026ZM325.874 114.209L325.314 115.809L330.977 117.791L331.537 116.191L325.874 114.209ZM325.337 115.747C325.09 116.404 324.831 116.665 324.681 116.774C324.547 116.872 324.294 117 323.746 117V123C325.331 123 326.878 122.595 328.21 121.626C329.527 120.668 330.401 119.329 330.955 117.853L325.337 115.747ZM323.746 117H294.546V123H323.746V117ZM291.723 118.984L288.843 126.984L294.488 129.016L297.368 121.016L291.723 118.984ZM291.666 131H313.666V125H291.666V131ZM313.666 131C313.872 131 313.954 131.021 313.945 131.018C313.933 131.015 313.785 130.976 313.592 130.83C313.383 130.671 313.205 130.449 313.094 130.197C312.991 129.962 312.986 129.793 312.986 129.76H318.986C318.986 128.454 318.512 127.031 317.219 126.05C316.082 125.187 314.733 125 313.666 125V131ZM312.986 129.76C312.986 129.782 312.983 129.849 312.924 129.982L318.407 132.418C318.775 131.591 318.986 130.698 318.986 129.76H312.986ZM312.834 130.209L312.274 131.809L317.937 133.791L318.497 132.191L312.834 130.209ZM312.297 131.747C312.05 132.404 311.791 132.665 311.641 132.774C311.507 132.872 311.254 133 310.706 133V139C312.291 139 313.838 138.595 315.17 137.626C316.487 136.668 317.361 135.329 317.915 133.853L312.297 131.747ZM310.706 133H288.706V139H310.706V133ZM285.886 134.975L282.686 143.775L288.325 145.825L291.525 137.025L285.886 134.975ZM285.506 147.8H313.106V141.8H285.506V147.8ZM313.106 147.8C314.753 147.8 315.438 148.131 315.66 148.3C315.73 148.355 315.946 148.494 315.946 149.28H321.946C321.946 147.08 321.188 144.979 319.312 143.54C317.586 142.216 315.352 141.8 313.106 141.8V147.8ZM315.946 149.28C315.946 149.778 315.813 150.599 315.391 151.819L321.061 153.781C321.598 152.228 321.946 150.702 321.946 149.28H315.946ZM315.406 151.776L309.886 166.976L315.525 169.024L321.045 153.824L315.406 151.776ZM309.89 166.966C309.091 169.14 307.989 170.617 306.677 171.592L310.255 176.408C312.676 174.61 314.401 172.086 315.522 169.034L309.89 166.966ZM306.722 171.559C305.433 172.479 303.824 173 301.746 173V179C304.894 179 307.765 178.187 310.209 176.441L306.722 171.559ZM301.746 173H248.546V179H301.746V173Z" fill="black"/>
</svg>
