<svg width="479" height="176" viewBox="0 0 479 176" fill="none" xmlns="http://www.w3.org/2000/svg">
<path d="M7.2 64H58.4C68.8 64 76.48 58.4 80.24 48L81.68 44C85.52 33.6 81.92 28 71.52 28H49.12C47.04 28 46.32 26.88 47.12 24.8L52.08 11.2C52.8 9.12 54.32 8 56.4 8H58C60.08 8 60.8 9.12 60.08 11.2L58.88 14.4C56.96 19.6 58.8 22.4 64 22.4H81.6C86.8 22.4 90.56 19.6 92.48 14.4L94.8 8C96.72 2.8 94.96 -9.53674e-07 89.76 -9.53674e-07H38.56C28.16 -9.53674e-07 20.48 5.6 16.72 16L15.28 20C11.44 30.4 15.04 36 25.44 36H47.84C49.92 36 50.64 37.12 49.84 39.2L44.88 52.8C44.16 54.88 42.64 56 40.56 56H38.96C36.88 56 36.16 54.88 36.88 52.8L38.08 49.6C40 44.4 38.16 41.6 32.96 41.6H15.36C10.16 41.6 6.4 44.4 4.48 49.6L2.16 56C0.24 61.2 2 64 7.2 64ZM90.4831 64H108.083C113.283 64 117.123 61.2 119.043 56L136.483 8C138.403 2.8 136.643 -9.53674e-07 131.443 -9.53674e-07H113.843C108.643 -9.53674e-07 104.803 2.8 102.883 8L85.4431 56C83.5231 61.2 85.2831 64 90.4831 64ZM148.202 64H183.402C193.802 64 201.482 58.4 205.242 48L207.002 43.2C208.922 38 207.082 35.2 201.882 35.2H175.082C173.002 35.2 171.482 36.32 170.762 38.4L170.202 40C169.402 42.08 170.122 43.2 172.202 43.2H173.402L169.882 52.8C169.162 54.88 167.642 56 165.562 56H163.962C161.882 56 161.162 54.88 161.882 52.8L177.082 11.2C177.802 9.12 179.322 8 181.402 8H183.002C185.082 8 185.802 9.12 185.082 11.2L181.882 20C179.962 25.2 181.722 28 186.922 28H204.522C209.722 28 213.562 25.2 215.482 20C220.202 6.96 214.362 -9.53674e-07 198.762 -9.53674e-07H171.562C155.962 -9.53674e-07 144.442 8.4 138.762 24L133.002 40C127.322 55.6 132.602 64 148.202 64ZM215.403 64H233.003C238.203 64 242.043 61.2 243.963 56L260.283 11.2C261.003 9.12 262.523 8 264.603 8H266.203C268.283 8 269.003 9.12 268.283 11.2L251.963 56C250.043 61.2 251.803 64 257.003 64H274.603C279.803 64 283.643 61.2 285.563 56L300.123 16C303.883 5.6 300.363 -9.53674e-07 289.963 -9.53674e-07H246.763C236.363 -9.53674e-07 228.683 5.6 224.923 16L210.363 56C208.443 61.2 210.203 64 215.403 64ZM355.662 -9.53674e-07H338.062C332.862 -9.53674e-07 329.022 2.8 327.102 8L312.542 48C308.782 58.4 312.302 64 322.702 64H365.902C376.302 64 383.982 58.4 387.742 48L402.302 8C404.222 2.8 402.462 -9.53674e-07 397.262 -9.53674e-07H379.662C374.462 -9.53674e-07 370.622 2.8 368.702 8L352.382 52.8C351.662 54.88 350.142 56 348.062 56H346.462C344.382 56 343.662 54.88 344.382 52.8L360.702 8C362.622 2.8 360.862 -9.53674e-07 355.662 -9.53674e-07ZM397.905 64H415.505C420.705 64 424.545 61.2 426.465 56L429.665 47.2H447.665C458.065 47.2 465.665 41.6 469.505 31.2L475.025 16C478.785 5.6 475.265 -9.53674e-07 464.865 -9.53674e-07H421.265C416.065 -9.53674e-07 412.225 2.8 410.305 8L392.865 56C390.945 61.2 392.705 64 397.905 64ZM433.745 35.92L433.985 35.28C434.625 33.44 436.625 32 438.465 32H454.145C455.985 32 456.865 33.44 456.225 35.28L455.985 35.92C455.345 37.76 453.345 39.2 451.505 39.2H435.825C433.985 39.2 433.105 37.76 433.745 35.92ZM7.28 176H24.88C30.08 176 33.92 173.2 35.84 168L43.04 148.16H51.04L43.84 168C41.92 173.2 43.68 176 48.88 176H66.48C71.68 176 75.52 173.2 77.44 168L94.88 120C96.8 114.8 95.04 112 89.84 112H72.24C67.04 112 63.2 114.8 61.28 120L53.92 140.16H45.92L53.28 120C55.2 114.8 53.44 112 48.24 112H30.64C25.44 112 21.6 114.8 19.68 120L2.24 168C0.32 173.2 2.08 176 7.28 176ZM90.5613 176H143.761C148.961 176 152.801 173.2 154.721 168L160.241 152.8C162.161 147.6 160.321 144.8 155.121 144.8H127.521L130.721 136H152.721C154.801 136 156.321 134.88 157.121 132.8L157.681 131.2C158.481 129.12 157.761 128 155.681 128H133.681L136.561 120H165.761C167.841 120 169.361 118.88 170.161 116.8L170.721 115.2C171.441 113.12 170.801 112 168.721 112H113.921C108.721 112 104.881 114.8 102.961 120L85.5212 168C83.6012 173.2 85.3612 176 90.5613 176ZM167.827 176H185.427C190.627 176 194.467 173.2 196.387 168L203.587 148.16H211.587L207.267 160C203.507 170.4 207.027 176 217.427 176H225.427C230.627 176 234.467 173.2 236.387 168L238.627 161.76C240.547 156.56 238.787 153.76 233.587 153.76H220.787C218.707 153.76 217.987 152.64 218.707 150.56L219.587 148.16H229.747C239.827 148.16 245.427 143.04 250.227 129.92C254.947 116.88 252.467 112 240.787 112H191.187C185.987 112 182.147 114.8 180.227 120L162.787 168C160.867 173.2 162.627 176 167.827 176ZM207.667 136.96L212.707 123.2C213.427 121.12 214.947 120 217.027 120H218.627C220.707 120 221.427 121.12 220.707 123.2L215.667 136.96C214.947 139.04 213.347 140.16 211.267 140.16H209.667C207.587 140.16 206.947 139.04 207.667 136.96ZM249.546 176H302.746C307.946 176 311.786 173.2 313.706 168L319.226 152.8C321.146 147.6 319.306 144.8 314.106 144.8H286.506L289.706 136H311.706C313.786 136 315.306 134.88 316.106 132.8L316.666 131.2C317.466 129.12 316.746 128 314.666 128H292.666L295.546 120H324.746C326.826 120 328.346 118.88 329.146 116.8L329.706 115.2C330.426 113.12 329.786 112 327.706 112H272.906C267.706 112 263.866 114.8 261.946 120L244.506 168C242.586 173.2 244.346 176 249.546 176Z" fill="black"/>
<path d="M80.24 48L83.0613 49.02L83.0627 49.0162L80.24 48ZM81.68 44L78.8657 42.9609L78.8615 42.9723L78.8573 42.9838L81.68 44ZM47.12 24.8L49.92 25.8769L49.9294 25.8525L49.9384 25.8279L47.12 24.8ZM52.08 11.2L54.8984 12.2279L54.9069 12.2047L54.915 12.1813L52.08 11.2ZM60.08 11.2L62.889 12.2534L62.9024 12.2175L62.915 12.1813L60.08 11.2ZM58.88 14.4L56.071 13.3466L56.0683 13.3537L56.0657 13.3609L58.88 14.4ZM92.48 14.4L95.2943 15.4391L95.2974 15.4308L95.3004 15.4224L92.48 14.4ZM94.8 8L91.9857 6.96088L91.9826 6.96923L91.9796 6.9776L94.8 8ZM16.72 16L13.8987 14.98L13.8973 14.9838L16.72 16ZM15.28 20L18.0943 21.0391L18.0985 21.0277L18.1027 21.0162L15.28 20ZM49.84 39.2L47.04 38.1231L47.0306 38.1475L47.0216 38.1721L49.84 39.2ZM44.88 52.8L42.0616 51.7721L42.0531 51.7953L42.045 51.8187L44.88 52.8ZM36.88 52.8L34.071 51.7466L34.0576 51.7825L34.045 51.8187L36.88 52.8ZM38.08 49.6L40.889 50.6534L40.8917 50.6463L40.8943 50.6391L38.08 49.6ZM4.48 49.6L1.66571 48.5609L1.66263 48.5692L1.65959 48.5776L4.48 49.6ZM2.16 56L4.97429 57.0391L4.97737 57.0308L4.98041 57.0224L2.16 56ZM7.2 67H58.4V61H7.2V67ZM58.4 67C64.1582 67 69.3173 65.4412 73.5815 62.3211C77.8356 59.2083 81.0163 54.6763 83.0613 49.02L77.4187 46.98C75.7037 51.7237 73.1644 55.1917 70.0385 57.4789C66.9227 59.7588 63.0418 61 58.4 61V67ZM83.0627 49.0162L84.5027 45.0162L78.8573 42.9838L77.4173 46.9838L83.0627 49.0162ZM84.4943 45.0391C86.5183 39.5575 86.9586 34.3944 84.4702 30.4882C81.9277 26.497 77.1087 25 71.52 25V31C76.3313 31 78.5123 32.303 79.4098 33.7118C80.3614 35.2056 80.6817 38.0425 78.8657 42.9609L84.4943 45.0391ZM71.52 25H49.12V31H71.52V25ZM49.12 25C48.8461 25 48.8127 24.96 48.9213 25.0029C49.0629 25.059 49.3542 25.225 49.5787 25.5816C49.7951 25.9253 49.8029 26.2134 49.801 26.2718C49.7998 26.3104 49.7989 26.1919 49.92 25.8769L44.32 23.7231C43.8132 25.0407 43.3904 27.014 44.5013 28.7784C45.6646 30.626 47.6982 31 49.12 31V25ZM49.9384 25.8279L54.8984 12.2279L49.2616 10.1721L44.3016 23.7721L49.9384 25.8279ZM54.915 12.1813C55.1144 11.6051 55.3552 11.3494 55.5141 11.2318C55.6635 11.1214 55.9175 11 56.4 11V5C54.8025 5 53.2565 5.43864 51.9459 6.40816C50.6448 7.37063 49.7656 8.71494 49.245 10.2187L54.915 12.1813ZM56.4 11H58V5H56.4V11ZM58 11C58.2728 11 58.3081 11.0397 58.2034 10.9984C58.0658 10.9442 57.7893 10.7862 57.5725 10.4517C57.3644 10.1305 57.3511 9.86223 57.3513 9.81306C57.3514 9.78277 57.3539 9.90424 57.245 10.2187L62.915 12.1813C63.3742 10.8546 63.7216 8.9073 62.6075 7.18831C61.4363 5.38145 59.4388 5 58 5V11ZM57.271 10.1466L56.071 13.3466L61.689 15.4534L62.889 12.2534L57.271 10.1466ZM56.0657 13.3609C54.9977 16.2533 54.602 19.4205 56.2483 21.9751C57.9418 24.6029 61.01 25.4 64 25.4V19.4C61.79 19.4 61.3383 18.7971 61.2917 18.7249C61.198 18.5795 60.8423 17.7467 61.6943 15.4391L56.0657 13.3609ZM64 25.4H81.6V19.4H64V25.4ZM81.6 25.4C84.7612 25.4 87.6444 24.5395 90.0509 22.7642C92.4427 20.9998 94.1742 18.4726 95.2943 15.4391L89.6657 13.3609C88.8658 15.5274 87.7573 17.0002 86.4891 17.9358C85.2356 18.8605 83.6388 19.4 81.6 19.4V25.4ZM95.3004 15.4224L97.6204 9.0224L91.9796 6.9776L89.6596 13.3776L95.3004 15.4224ZM97.6143 9.03912C98.6743 6.16831 99.0991 3.00926 97.4887 0.451557C95.8172 -2.20312 92.7473 -3 89.76 -3V3C91.9727 3 92.3828 3.60311 92.4113 3.64844C92.5009 3.79073 92.8457 4.63169 91.9857 6.96088L97.6143 9.03912ZM89.76 -3H38.56V3H89.76V-3ZM38.56 -3C32.8018 -3 27.6427 -1.44123 23.3785 1.67891C19.1244 4.79166 15.9437 9.32372 13.8987 14.98L19.5413 17.02C21.2563 12.2763 23.7956 8.80834 26.9215 6.52109C30.0373 4.24123 33.9182 3 38.56 3V-3ZM13.8973 14.9838L12.4573 18.9838L18.1027 21.0162L19.5427 17.0162L13.8973 14.9838ZM12.4657 18.9609C10.4417 24.4425 10.0014 29.6056 12.4898 33.5118C15.0323 37.503 19.8513 39 25.44 39V33C20.6287 33 18.4477 31.697 17.5502 30.2882C16.5986 28.7944 16.2783 25.9575 18.0943 21.0391L12.4657 18.9609ZM25.44 39H47.84V33H25.44V39ZM47.84 39C48.1139 39 48.1473 39.04 48.0387 38.9971C47.8971 38.941 47.6058 38.775 47.3813 38.4184C47.1649 38.0747 47.1571 37.7866 47.159 37.7282C47.1602 37.6896 47.1611 37.8081 47.04 38.1231L52.64 40.2769C53.1468 38.9593 53.5696 36.986 52.4587 35.2216C51.2954 33.374 49.2618 33 47.84 33V39ZM47.0216 38.1721L42.0616 51.7721L47.6984 53.8279L52.6584 40.2279L47.0216 38.1721ZM42.045 51.8187C41.8456 52.3949 41.6048 52.6506 41.4459 52.7682C41.2965 52.8786 41.0425 53 40.56 53V59C42.1575 59 43.7035 58.5614 45.0141 57.5918C46.3152 56.6294 47.1944 55.2851 47.715 53.7813L42.045 51.8187ZM40.56 53H38.96V59H40.56V53ZM38.96 53C38.6872 53 38.6519 52.9603 38.7566 53.0016C38.8942 53.0558 39.1707 53.2138 39.3875 53.5483C39.5956 53.8695 39.6089 54.1378 39.6087 54.1869C39.6086 54.2172 39.6061 54.0958 39.715 53.7813L34.045 51.8187C33.5858 53.1454 33.2384 55.0927 34.3525 56.8117C35.5237 58.6185 37.5212 59 38.96 59V53ZM39.689 53.8534L40.889 50.6534L35.271 48.5466L34.071 51.7466L39.689 53.8534ZM40.8943 50.6391C41.9623 47.7467 42.358 44.5795 40.7117 42.0249C39.0183 39.3971 35.95 38.6 32.96 38.6V44.6C35.17 44.6 35.6217 45.2029 35.6683 45.2751C35.762 45.4205 36.1177 46.2533 35.2657 48.5609L40.8943 50.6391ZM32.96 38.6H15.36V44.6H32.96V38.6ZM15.36 38.6C12.1988 38.6 9.31556 39.4605 6.90905 41.2358C4.51731 43.0002 2.78576 45.5274 1.66571 48.5609L7.29429 50.6391C8.09424 48.4726 9.20269 46.9998 10.4709 46.0642C11.7244 45.1395 13.3212 44.6 15.36 44.6V38.6ZM1.65959 48.5776L-0.660408 54.9776L4.98041 57.0224L7.30041 50.6224L1.65959 48.5776ZM-0.65429 54.9609C-1.71428 57.8317 -2.13911 60.9907 -0.528698 63.5484C1.14276 66.2031 4.21271 67 7.2 67V61C4.98729 61 4.57724 60.3969 4.5487 60.3516C4.45911 60.2093 4.11428 59.3683 4.97429 57.0391L-0.65429 54.9609ZM119.043 56L121.857 57.0391L121.86 57.0318L121.863 57.0245L119.043 56ZM136.483 8L133.669 6.96087L133.666 6.96819L133.663 6.97552L136.483 8ZM102.883 8L100.069 6.96087L100.066 6.96819L100.063 6.97552L102.883 8ZM85.4431 56L88.2574 57.0391L88.2601 57.0318L88.2628 57.0245L85.4431 56ZM90.4831 67H108.083V61H90.4831V67ZM108.083 67C111.242 67 114.139 66.1408 116.562 64.3734C118.972 62.6141 120.732 60.0878 121.857 57.0391L116.229 54.9609C115.435 57.1122 114.314 58.5859 113.025 59.5266C111.747 60.4592 110.124 61 108.083 61V67ZM121.863 57.0245L139.303 9.02447L133.663 6.97552L116.223 54.9755L121.863 57.0245ZM139.297 9.03912C140.357 6.16831 140.782 3.00926 139.172 0.451557C137.5 -2.20312 134.43 -3 131.443 -3V3C133.656 3 134.066 3.60311 134.094 3.64844C134.184 3.79073 134.529 4.63168 133.669 6.96087L139.297 9.03912ZM131.443 -3H113.843V3H131.443V-3ZM113.843 -3C110.684 -3 107.787 -2.14084 105.365 -0.373375C102.954 1.3859 101.195 3.91216 100.069 6.96087L105.697 9.03912C106.492 6.88783 107.612 5.4141 108.902 4.47337C110.179 3.54083 111.802 3 113.843 3V-3ZM100.063 6.97552L82.6235 54.9755L88.2628 57.0245L105.703 9.02447L100.063 6.97552ZM82.6288 54.9609C81.5688 57.8317 81.144 60.9907 82.7544 63.5484C84.4259 66.2031 87.4958 67 90.4831 67V61C88.2704 61 87.8604 60.3969 87.8318 60.3516C87.7422 60.2093 87.3974 59.3683 88.2574 57.0391L82.6288 54.9609ZM205.242 48L202.425 46.9672L202.421 46.98L205.242 48ZM207.002 43.2L204.188 42.1609L204.185 42.1672L207.002 43.2ZM170.762 38.4L173.593 39.3911L173.597 39.3813L170.762 38.4ZM170.202 40L173.002 41.0769L173.018 41.0342L173.033 40.991L170.202 40ZM173.402 43.2L176.219 44.2328L177.697 40.2H173.402V43.2ZM169.882 52.8L167.065 51.7672L167.056 51.7929L167.047 51.8187L169.882 52.8ZM161.882 52.8L159.064 51.7704L159.055 51.7945L159.047 51.8187L161.882 52.8ZM177.082 11.2L179.9 12.2296L179.908 12.2055L179.917 12.1813L177.082 11.2ZM185.082 11.2L187.901 12.2252L187.909 12.2033L187.917 12.1813L185.082 11.2ZM181.882 20L184.696 21.0391L184.699 21.0322L184.701 21.0252L181.882 20ZM215.482 20L218.296 21.0391L218.299 21.0301L218.303 21.0211L215.482 20ZM138.762 24L135.943 22.9736L135.939 22.9838L138.762 24ZM133.002 40L135.821 41.0264L135.825 41.0162L133.002 40ZM148.202 67H183.402V61H148.202V67ZM183.402 67C189.16 67 194.319 65.4412 198.583 62.3211C202.837 59.2083 206.018 54.6763 208.063 49.02L202.421 46.98C200.706 51.7237 198.166 55.1917 195.04 57.4789C191.925 59.7588 188.044 61 183.402 61V67ZM208.059 49.0328L209.819 44.2328L204.185 42.1672L202.425 46.9672L208.059 49.0328ZM209.816 44.2391C210.884 41.3467 211.28 38.1795 209.634 35.6249C207.94 32.9971 204.872 32.2 201.882 32.2V38.2C204.092 38.2 204.544 38.8029 204.59 38.8751C204.684 39.0205 205.04 39.8533 204.188 42.1609L209.816 44.2391ZM201.882 32.2H175.082V38.2H201.882V32.2ZM175.082 32.2C173.484 32.2 171.938 32.6386 170.628 33.6082C169.327 34.5706 168.447 35.9149 167.927 37.4187L173.597 39.3813C173.796 38.8051 174.037 38.5494 174.196 38.4318C174.345 38.3214 174.599 38.2 175.082 38.2V32.2ZM167.93 37.409L167.37 39.009L173.033 40.991L173.593 39.391L167.93 37.409ZM167.402 38.9231C166.895 40.2407 166.472 42.214 167.583 43.9784C168.746 45.826 170.78 46.2 172.202 46.2V40.2C171.928 40.2 171.895 40.16 172.003 40.2029C172.145 40.259 172.436 40.425 172.661 40.7816C172.877 41.1253 172.885 41.4134 172.883 41.4718C172.882 41.5104 172.881 41.3919 173.002 41.0769L167.402 38.9231ZM172.202 46.2H173.402V40.2H172.202V46.2ZM170.585 42.1672L167.065 51.7672L172.699 53.8328L176.219 44.2328L170.585 42.1672ZM167.047 51.8187C166.847 52.3949 166.607 52.6506 166.448 52.7682C166.298 52.8786 166.044 53 165.562 53V59C167.159 59 168.705 58.5614 170.016 57.5918C171.317 56.6294 172.196 55.2851 172.717 53.7813L167.047 51.8187ZM165.562 53H163.962V59H165.562V53ZM163.962 53C163.689 53 163.654 52.9603 163.758 53.0016C163.896 53.0558 164.173 53.2138 164.389 53.5483C164.598 53.8695 164.611 54.1378 164.611 54.1869C164.611 54.2172 164.608 54.0958 164.717 53.7813L159.047 51.8187C158.588 53.1454 158.24 55.0927 159.354 56.8117C160.526 58.6185 162.523 59 163.962 59V53ZM164.7 53.8296L179.9 12.2296L174.264 10.1704L159.064 51.7704L164.7 53.8296ZM179.917 12.1813C180.116 11.6051 180.357 11.3494 180.516 11.2318C180.665 11.1214 180.919 11 181.402 11V5C179.804 5 178.258 5.43864 176.948 6.40816C175.647 7.37063 174.767 8.71494 174.247 10.2187L179.917 12.1813ZM181.402 11H183.002V5H181.402V11ZM183.002 11C183.275 11 183.31 11.0397 183.205 10.9984C183.068 10.9442 182.791 10.7862 182.574 10.4517C182.366 10.1305 182.353 9.86223 182.353 9.81306C182.353 9.78277 182.356 9.90424 182.247 10.2187L187.917 12.1813C188.376 10.8546 188.723 8.90731 187.609 7.18831C186.438 5.38145 184.441 5 183.002 5V11ZM182.262 10.1748L179.062 18.9748L184.701 21.0252L187.901 12.2252L182.262 10.1748ZM179.068 18.9609C178.008 21.8317 177.583 24.9907 179.193 27.5484C180.865 30.2031 183.935 31 186.922 31V25C184.709 25 184.299 24.3969 184.271 24.3516C184.181 24.2093 183.836 23.3683 184.696 21.0391L179.068 18.9609ZM186.922 31H204.522V25H186.922V31ZM204.522 31C207.681 31 210.578 30.1408 213 28.3734C215.411 26.6141 217.17 24.0878 218.296 21.0391L212.668 18.9609C211.873 21.1122 210.753 22.5859 209.463 23.5266C208.186 24.4592 206.563 25 204.522 25V31ZM218.303 21.0211C220.812 14.0884 220.874 7.76327 217.043 3.18475C213.344 -1.23545 206.818 -3 198.762 -3V3C206.306 3 210.5 4.71544 212.441 7.03525C214.25 9.19672 214.872 12.8716 212.661 18.9789L218.303 21.0211ZM198.762 -3H171.562V3H198.762V-3ZM171.562 -3C163.203 -3 155.785 -0.741098 149.671 3.72815C143.568 8.18973 138.948 14.7199 135.943 22.9736L141.581 25.0264C144.256 17.6801 148.235 12.2103 153.212 8.57185C158.179 4.9411 164.32 3 171.562 3V-3ZM135.939 22.9838L130.179 38.9838L135.825 41.0162L141.585 25.0162L135.939 22.9838ZM130.183 38.9736C127.244 47.0456 126.766 54.2012 130.086 59.4529C133.467 64.8021 140.012 67 148.202 67V61C140.791 61 136.897 58.9979 135.158 56.2471C133.357 53.3988 133.08 48.5544 135.821 41.0264L130.183 38.9736ZM243.963 56L246.777 57.0391L246.782 57.0268L243.963 56ZM260.283 11.2L263.102 12.2268L263.11 12.2042L263.118 12.1813L260.283 11.2ZM268.283 11.2L271.102 12.2268L271.11 12.2042L271.118 12.1813L268.283 11.2ZM251.963 56L254.777 57.0391L254.782 57.0268L251.963 56ZM285.563 56L288.377 57.0391L288.382 57.0261L285.563 56ZM300.123 16L302.942 17.0261L302.944 17.02L300.123 16ZM224.923 16L227.742 17.0261L227.744 17.02L224.923 16ZM210.363 56L213.177 57.0391L213.182 57.0261L210.363 56ZM215.403 67H233.003V61H215.403V67ZM233.003 67C236.162 67 239.059 66.1408 241.482 64.3734C243.892 62.6141 245.652 60.0878 246.777 57.0391L241.149 54.9609C240.355 57.1122 239.234 58.5859 237.945 59.5266C236.667 60.4592 235.044 61 233.003 61V67ZM246.782 57.0268L263.102 12.2268L257.464 10.1732L241.144 54.9732L246.782 57.0268ZM263.118 12.1813C263.318 11.6051 263.558 11.3494 263.717 11.2318C263.867 11.1214 264.121 11 264.603 11V5C263.006 5 261.46 5.43864 260.149 6.40816C258.848 7.37063 257.969 8.71494 257.448 10.2187L263.118 12.1813ZM264.603 11H266.203V5H264.603V11ZM266.203 11C266.476 11 266.511 11.0397 266.407 10.9984C266.269 10.9442 265.992 10.7862 265.776 10.4517C265.568 10.1305 265.554 9.86223 265.554 9.81306C265.554 9.78277 265.557 9.90424 265.448 10.2187L271.118 12.1813C271.577 10.8546 271.925 8.9073 270.811 7.18831C269.639 5.38145 267.642 5 266.203 5V11ZM265.464 10.1732L249.144 54.9732L254.782 57.0268L271.102 12.2268L265.464 10.1732ZM249.149 54.9609C248.089 57.8317 247.664 60.9907 249.274 63.5484C250.946 66.2031 254.016 67 257.003 67V61C254.79 61 254.38 60.3969 254.352 60.3516C254.262 60.2093 253.917 59.3683 254.777 57.0391L249.149 54.9609ZM257.003 67H274.603V61H257.003V67ZM274.603 67C277.762 67 280.659 66.1408 283.082 64.3734C285.492 62.6141 287.252 60.0878 288.377 57.0391L282.749 54.9609C281.955 57.1122 280.834 58.5859 279.545 59.5266C278.267 60.4592 276.644 61 274.603 61V67ZM288.382 57.0261L302.942 17.0261L297.304 14.9739L282.744 54.9739L288.382 57.0261ZM302.944 17.02C304.923 11.5474 305.357 6.3935 302.888 2.49484C300.357 -1.5016 295.554 -3 289.963 -3V3C294.772 3 296.93 4.3016 297.819 5.70516C298.77 7.2065 299.083 10.0526 297.302 14.98L302.944 17.02ZM289.963 -3H246.763V3H289.963V-3ZM246.763 -3C241.005 -3 235.846 -1.44123 231.582 1.67891C227.327 4.79166 224.147 9.32372 222.102 14.98L227.744 17.02C229.459 12.2763 231.999 8.80834 235.125 6.52109C238.24 4.24123 242.121 3 246.763 3V-3ZM222.104 14.9739L207.544 54.9739L213.182 57.0261L227.742 17.0261L222.104 14.9739ZM207.549 54.9609C206.489 57.8317 206.064 60.9907 207.674 63.5484C209.346 66.2031 212.416 67 215.403 67V61C213.19 61 212.78 60.3969 212.752 60.3516C212.662 60.2093 212.317 59.3683 213.177 57.0391L207.549 54.9609ZM327.102 8L324.288 6.96086L324.283 6.97386L327.102 8ZM312.542 48L309.723 46.9739L309.721 46.98L312.542 48ZM387.742 48L384.923 46.9739L384.921 46.98L387.742 48ZM402.302 8L399.488 6.96086L399.483 6.97386L402.302 8ZM368.702 8L365.888 6.96087L365.883 6.97315L368.702 8ZM352.382 52.8L349.563 51.7732L349.555 51.7958L349.547 51.8187L352.382 52.8ZM344.382 52.8L341.563 51.7732L341.555 51.7958L341.547 51.8187L344.382 52.8ZM360.702 8L357.888 6.96087L357.883 6.97315L360.702 8ZM355.662 -3H338.062V3H355.662V-3ZM338.062 -3C334.903 -3 332.006 -2.14084 329.583 -0.373375C327.173 1.3859 325.413 3.91216 324.288 6.96087L329.916 9.03912C330.71 6.88783 331.831 5.4141 333.12 4.47337C334.398 3.54083 336.021 3 338.062 3V-3ZM324.283 6.97386L309.723 46.9739L315.361 49.0261L329.921 9.02613L324.283 6.97386ZM309.721 46.98C307.742 52.4526 307.308 57.6065 309.777 61.5052C312.309 65.5016 317.111 67 322.702 67V61C317.893 61 315.735 59.6984 314.846 58.2948C313.895 56.7935 313.582 53.9474 315.363 49.02L309.721 46.98ZM322.702 67H365.902V61H322.702V67ZM365.902 67C371.66 67 376.819 65.4412 381.083 62.3211C385.337 59.2083 388.518 54.6763 390.563 49.02L384.921 46.98C383.206 51.7237 380.666 55.1917 377.54 57.4789C374.425 59.7588 370.544 61 365.902 61V67ZM390.561 49.0261L405.121 9.02613L399.483 6.97386L384.923 46.9739L390.561 49.0261ZM405.116 9.03912C406.176 6.16831 406.601 3.00926 404.991 0.451557C403.319 -2.20311 400.249 -3 397.262 -3V3C399.475 3 399.885 3.60311 399.913 3.64844C400.003 3.79073 400.348 4.63168 399.488 6.96087L405.116 9.03912ZM397.262 -3H379.662V3H397.262V-3ZM379.662 -3C376.503 -3 373.606 -2.14084 371.183 -0.373375C368.773 1.3859 367.013 3.91216 365.888 6.96087L371.516 9.03912C372.31 6.88783 373.431 5.4141 374.72 4.47337C375.998 3.54083 377.621 3 379.662 3V-3ZM365.883 6.97315L349.563 51.7732L355.201 53.8268L371.521 9.02684L365.883 6.97315ZM349.547 51.8187C349.347 52.3949 349.107 52.6506 348.948 52.7682C348.798 52.8786 348.544 53 348.062 53V59C349.659 59 351.205 58.5614 352.516 57.5918C353.817 56.6294 354.696 55.2851 355.217 53.7813L349.547 51.8187ZM348.062 53H346.462V59H348.062V53ZM346.462 53C346.189 53 346.154 52.9603 346.258 53.0016C346.396 53.0558 346.673 53.2138 346.889 53.5483C347.098 53.8695 347.111 54.1378 347.111 54.1869C347.111 54.2172 347.108 54.0958 347.217 53.7813L341.547 51.8187C341.088 53.1454 340.74 55.0927 341.854 56.8117C343.026 58.6185 345.023 59 346.462 59V53ZM347.201 53.8268L363.521 9.02684L357.883 6.97315L341.563 51.7732L347.201 53.8268ZM363.516 9.03912C364.576 6.16831 365.001 3.00926 363.391 0.451557C361.719 -2.20312 358.649 -3 355.662 -3V3C357.875 3 358.285 3.60311 358.313 3.64844C358.403 3.79073 358.748 4.63168 357.888 6.96087L363.516 9.03912ZM426.465 56L429.279 57.0391L429.282 57.0322L429.284 57.0252L426.465 56ZM429.665 47.2V44.2H427.564L426.846 46.1748L429.665 47.2ZM469.505 31.2L472.319 32.2391L472.322 32.2316L472.325 32.224L469.505 31.2ZM475.025 16L477.845 17.024L477.846 17.02L475.025 16ZM410.305 8L407.491 6.96087L407.488 6.96819L407.485 6.97552L410.305 8ZM392.865 56L395.679 57.0391L395.682 57.0318L395.685 57.0245L392.865 56ZM433.745 35.92L430.936 34.8666L430.923 34.9004L430.911 34.9344L433.745 35.92ZM433.985 35.28L436.794 36.3334L436.807 36.2996L436.818 36.2656L433.985 35.28ZM456.225 35.28L459.034 36.3334L459.047 36.2996L459.059 36.2656L456.225 35.28ZM455.985 35.92L453.176 34.8666L453.163 34.9004L453.152 34.9344L455.985 35.92ZM397.905 67H415.505V61H397.905V67ZM415.505 67C418.664 67 421.561 66.1408 423.983 64.3734C426.394 62.6141 428.154 60.0878 429.279 57.0391L423.651 54.9609C422.856 57.1122 421.736 58.5859 420.447 59.5266C419.169 60.4592 417.546 61 415.505 61V67ZM429.284 57.0252L432.484 48.2252L426.846 46.1748L423.646 54.9748L429.284 57.0252ZM429.665 50.2H447.665V44.2H429.665V50.2ZM447.665 50.2C453.425 50.2 458.565 48.6402 462.82 45.5188C467.061 42.407 470.236 37.8802 472.319 32.2391L466.691 30.1609C464.934 34.9198 462.389 38.393 459.27 40.6812C456.165 42.9598 452.305 44.2 447.665 44.2V50.2ZM472.325 32.224L477.845 17.024L472.205 14.976L466.685 30.176L472.325 32.224ZM477.846 17.02C479.825 11.5474 480.259 6.3935 477.789 2.49484C475.258 -1.5016 470.456 -3 464.865 -3V3C469.674 3 471.832 4.3016 472.721 5.70515C473.671 7.2065 473.985 10.0526 472.204 14.98L477.846 17.02ZM464.865 -3H421.265V3H464.865V-3ZM421.265 -3C418.106 -3 415.209 -2.14084 412.787 -0.373375C410.376 1.3859 408.616 3.91216 407.491 6.96087L413.119 9.03912C413.914 6.88783 415.034 5.4141 416.323 4.47337C417.601 3.54083 419.224 3 421.265 3V-3ZM407.485 6.97552L390.045 54.9755L395.685 57.0245L413.125 9.02447L407.485 6.97552ZM390.051 54.9609C388.991 57.8317 388.566 60.9907 390.176 63.5484C391.848 66.2031 394.918 67 397.905 67V61C395.692 61 395.282 60.3969 395.254 60.3516C395.164 60.2093 394.819 59.3683 395.679 57.0391L390.051 54.9609ZM436.554 36.9734L436.794 36.3334L431.176 34.2266L430.936 34.8666L436.554 36.9734ZM436.818 36.2656C436.907 36.0107 437.144 35.664 437.541 35.3749C437.944 35.0814 438.299 35 438.465 35V29C436.791 29 435.226 29.6386 434.009 30.5251C432.786 31.416 431.703 32.7093 431.152 34.2944L436.818 36.2656ZM438.465 35H454.145V29H438.465V35ZM454.145 35C454.215 35 454.149 35.0132 454.007 34.9431C453.855 34.868 453.692 34.7327 453.573 34.5439C453.33 34.1556 453.503 33.9728 453.392 34.2944L459.059 36.2656C459.587 34.7472 459.64 32.9244 458.657 31.3561C457.63 29.7197 455.878 29 454.145 29V35ZM453.416 34.2266L453.176 34.8666L458.794 36.9734L459.034 36.3334L453.416 34.2266ZM453.152 34.9344C453.063 35.1893 452.826 35.536 452.429 35.8251C452.026 36.1186 451.671 36.2 451.505 36.2V42.2C453.179 42.2 454.744 41.5614 455.961 40.6749C457.184 39.784 458.267 38.4907 458.818 36.9056L453.152 34.9344ZM451.505 36.2H435.825V42.2H451.505V36.2ZM435.825 36.2C435.755 36.2 435.821 36.1868 435.963 36.2569C436.115 36.332 436.278 36.4673 436.397 36.6561C436.64 37.0444 436.467 37.2272 436.578 36.9056L430.911 34.9344C430.383 36.4528 430.33 38.2756 431.313 39.8439C432.34 41.4803 434.092 42.2 435.825 42.2V36.2ZM35.84 168L38.6543 169.039L38.6572 169.031L38.66 169.023L35.84 168ZM43.04 148.16V145.16H40.9373L40.22 147.137L43.04 148.16ZM51.04 148.16L53.86 149.183L55.3201 145.16H51.04V148.16ZM43.84 168L46.6543 169.039L46.6572 169.031L46.66 169.023L43.84 168ZM77.44 168L80.2543 169.039L80.257 169.032L80.2597 169.024L77.44 168ZM94.88 120L92.0657 118.961L92.063 118.968L92.0603 118.976L94.88 120ZM61.28 120L58.4657 118.961L58.4619 118.971L61.28 120ZM53.92 140.16V143.16H56.0184L56.7381 141.189L53.92 140.16ZM45.92 140.16L43.1019 139.131L41.6311 143.16H45.92V140.16ZM53.28 120L50.4657 118.961L50.4619 118.971L53.28 120ZM19.68 120L16.8657 118.961L16.863 118.968L16.8603 118.976L19.68 120ZM2.24 168L5.05429 169.039L5.05699 169.032L5.05965 169.024L2.24 168ZM7.28 179H24.88V173H7.28V179ZM24.88 179C28.0391 179 30.9363 178.141 33.3584 176.373C35.7693 174.614 37.5286 172.088 38.6543 169.039L33.0257 166.961C32.2314 169.112 31.1107 170.586 29.8216 171.527C28.5437 172.459 26.9209 173 24.88 173V179ZM38.66 169.023L45.86 149.183L40.22 147.137L33.02 166.977L38.66 169.023ZM43.04 151.16H51.04V145.16H43.04V151.16ZM48.22 147.137L41.02 166.977L46.66 169.023L53.86 149.183L48.22 147.137ZM41.0257 166.961C39.9657 169.832 39.5409 172.991 41.1513 175.548C42.8228 178.203 45.8927 179 48.88 179V173C46.6673 173 46.2572 172.397 46.2287 172.352C46.1391 172.209 45.7943 171.368 46.6543 169.039L41.0257 166.961ZM48.88 179H66.48V173H48.88V179ZM66.48 179C69.6391 179 72.5363 178.141 74.9584 176.373C77.3693 174.614 79.1286 172.088 80.2543 169.039L74.6257 166.961C73.8314 169.112 72.7107 170.586 71.4216 171.527C70.1437 172.459 68.5209 173 66.48 173V179ZM80.2597 169.024L97.6997 121.024L92.0603 118.976L74.6203 166.976L80.2597 169.024ZM97.6943 121.039C98.7543 118.168 99.1791 115.009 97.5687 112.452C95.8972 109.797 92.8273 109 89.84 109V115C92.0527 115 92.4628 115.603 92.4913 115.648C92.5809 115.791 92.9257 116.632 92.0657 118.961L97.6943 121.039ZM89.84 109H72.24V115H89.84V109ZM72.24 109C69.0809 109 66.1837 109.859 63.7616 111.627C61.3507 113.386 59.5914 115.912 58.4657 118.961L64.0943 121.039C64.8886 118.888 66.0093 117.414 67.2984 116.473C68.5763 115.541 70.1991 115 72.24 115V109ZM58.4619 118.971L51.1019 139.131L56.7381 141.189L64.0981 121.029L58.4619 118.971ZM53.92 137.16H45.92V143.16H53.92V137.16ZM48.7381 141.189L56.0981 121.029L50.4619 118.971L43.1019 139.131L48.7381 141.189ZM56.0943 121.039C57.1543 118.168 57.5791 115.009 55.9687 112.452C54.2972 109.797 51.2273 109 48.24 109V115C50.4527 115 50.8628 115.603 50.8913 115.648C50.9809 115.791 51.3257 116.632 50.4657 118.961L56.0943 121.039ZM48.24 109H30.64V115H48.24V109ZM30.64 109C27.4809 109 24.5837 109.859 22.1616 111.627C19.7507 113.386 17.9914 115.912 16.8657 118.961L22.4943 121.039C23.2886 118.888 24.4093 117.414 25.6984 116.473C26.9763 115.541 28.5991 115 30.64 115V109ZM16.8603 118.976L-0.579655 166.976L5.05965 169.024L22.4997 121.024L16.8603 118.976ZM-0.574289 166.961C-1.63428 169.832 -2.05911 172.991 -0.448699 175.548C1.22276 178.203 4.29271 179 7.28 179V173C5.06729 173 4.65724 172.397 4.6287 172.352C4.53911 172.209 4.19428 171.368 5.05429 169.039L-0.574289 166.961ZM154.721 168L157.536 169.039L157.538 169.032L157.541 169.024L154.721 168ZM160.241 152.8L157.427 151.761L157.424 151.768L157.421 151.776L160.241 152.8ZM127.521 144.8L124.702 143.775L123.238 147.8H127.521V144.8ZM130.721 136V133H128.62L127.902 134.975L130.721 136ZM157.121 132.8L159.921 133.877L159.938 133.834L159.953 133.791L157.121 132.8ZM157.681 131.2L154.881 130.123L154.865 130.166L154.85 130.209L157.681 131.2ZM133.681 128L130.859 126.984L129.413 131H133.681V128ZM136.561 120V117H134.453L133.739 118.984L136.561 120ZM170.161 116.8L172.961 117.877L172.978 117.834L172.993 117.791L170.161 116.8ZM170.721 115.2L173.553 116.191L173.556 116.181L170.721 115.2ZM102.961 120L100.147 118.961L100.144 118.968L100.142 118.976L102.961 120ZM85.5212 168L88.3355 169.039L88.3382 169.032L88.3409 169.024L85.5212 168ZM90.5612 179H143.761V173H90.5612V179ZM143.761 179C146.92 179 149.818 178.141 152.24 176.373C154.651 174.614 156.41 172.088 157.536 169.039L151.907 166.961C151.113 169.112 149.992 170.586 148.703 171.527C147.425 172.459 145.802 173 143.761 173V179ZM157.541 169.024L163.061 153.824L157.421 151.776L151.901 166.976L157.541 169.024ZM163.056 153.839C164.124 150.947 164.519 147.779 162.873 145.225C161.18 142.597 158.111 141.8 155.121 141.8V147.8C157.331 147.8 157.783 148.403 157.83 148.475C157.923 148.621 158.279 149.453 157.427 151.761L163.056 153.839ZM155.121 141.8H127.521V147.8H155.121V141.8ZM130.341 145.825L133.541 137.025L127.902 134.975L124.702 143.775L130.341 145.825ZM130.721 139H152.721V133H130.721V139ZM152.721 139C154.323 139 155.86 138.559 157.17 137.603C158.465 136.658 159.357 135.343 159.921 133.877L154.321 131.723C154.085 132.337 153.818 132.622 153.633 132.757C153.463 132.881 153.199 133 152.721 133V139ZM159.953 133.791L160.513 132.191L154.85 130.209L154.29 131.809L159.953 133.791ZM160.481 132.277C160.988 130.959 161.411 128.986 160.3 127.222C159.137 125.374 157.103 125 155.681 125V131C155.955 131 155.989 131.04 155.88 130.997C155.738 130.941 155.447 130.775 155.223 130.418C155.006 130.075 154.998 129.787 155 129.728C155.001 129.69 155.002 129.808 154.881 130.123L160.481 132.277ZM155.681 125H133.681V131H155.681V125ZM136.504 129.016L139.384 121.016L133.739 118.984L130.859 126.984L136.504 129.016ZM136.561 123H165.761V117H136.561V123ZM165.761 123C167.363 123 168.9 122.559 170.21 121.603C171.505 120.658 172.397 119.343 172.961 117.877L167.361 115.723C167.125 116.337 166.858 116.622 166.673 116.757C166.503 116.881 166.239 117 165.761 117V123ZM172.993 117.791L173.553 116.191L167.89 114.209L167.33 115.809L172.993 117.791ZM173.556 116.181C173.997 114.909 174.386 112.981 173.331 111.256C172.186 109.381 170.154 109 168.721 109V115C168.997 115 169.016 115.04 168.891 114.99C168.727 114.924 168.431 114.744 168.211 114.384C168.006 114.048 168.005 113.781 168.006 113.756C168.006 113.747 168.001 113.887 167.886 114.219L173.556 116.181ZM168.721 109H113.921V115H168.721V109ZM113.921 109C110.762 109 107.865 109.859 105.443 111.627C103.032 113.386 101.273 115.912 100.147 118.961L105.776 121.039C106.57 118.888 107.691 117.414 108.98 116.473C110.258 115.541 111.88 115 113.921 115V109ZM100.142 118.976L82.7016 166.976L88.3409 169.024L105.781 121.024L100.142 118.976ZM82.707 166.961C81.647 169.832 81.2221 172.991 82.8326 175.548C84.504 178.203 87.574 179 90.5612 179V173C88.3485 173 87.9385 172.397 87.91 172.352C87.8204 172.209 87.4755 171.368 88.3355 169.039L82.707 166.961ZM196.387 168L199.201 169.039L199.204 169.031L199.207 169.023L196.387 168ZM203.587 148.16V145.16H201.484L200.767 147.137L203.587 148.16ZM211.587 148.16L214.405 149.188L215.875 145.16H211.587V148.16ZM207.267 160L204.449 158.972L204.446 158.98L207.267 160ZM236.387 168L239.201 169.039L239.206 169.026L239.21 169.014L236.387 168ZM238.627 161.76L235.813 160.721L235.808 160.734L235.803 160.746L238.627 161.76ZM218.707 150.56L215.89 149.527L215.881 149.553L215.872 149.579L218.707 150.56ZM219.587 148.16V145.16H217.492L216.77 147.127L219.587 148.16ZM250.227 129.92L253.044 130.951L253.048 130.941L250.227 129.92ZM180.227 120L177.413 118.961L177.41 118.968L177.407 118.976L180.227 120ZM162.787 168L165.601 169.039L165.604 169.032L165.607 169.024L162.787 168ZM207.667 136.96L204.85 135.928L204.841 135.953L204.832 135.979L207.667 136.96ZM212.707 123.2L215.524 124.232L215.533 124.207L215.542 124.181L212.707 123.2ZM220.707 123.2L223.524 124.232L223.533 124.207L223.542 124.181L220.707 123.2ZM215.667 136.96L212.85 135.928L212.841 135.953L212.832 135.979L215.667 136.96ZM167.827 179H185.427V173H167.827V179ZM185.427 179C188.586 179 191.483 178.141 193.905 176.373C196.316 174.614 198.075 172.088 199.201 169.039L193.573 166.961C192.778 169.112 191.658 170.586 190.368 171.527C189.091 172.459 187.468 173 185.427 173V179ZM199.207 169.023L206.407 149.183L200.767 147.137L193.567 166.977L199.207 169.023ZM203.587 151.16H211.587V145.16H203.587V151.16ZM208.769 147.132L204.449 158.972L210.085 161.028L214.405 149.188L208.769 147.132ZM204.446 158.98C202.467 164.453 202.033 169.606 204.502 173.505C207.034 177.502 211.836 179 217.427 179V173C212.618 173 210.46 171.698 209.571 170.295C208.62 168.794 208.307 165.947 210.088 161.02L204.446 158.98ZM217.427 179H225.427V173H217.427V179ZM225.427 179C228.586 179 231.483 178.141 233.905 176.373C236.316 174.614 238.075 172.088 239.201 169.039L233.573 166.961C232.778 169.112 231.658 170.586 230.368 171.527C229.091 172.459 227.468 173 225.427 173V179ZM239.21 169.014L241.45 162.774L235.803 160.746L233.563 166.986L239.21 169.014ZM241.441 162.799C242.501 159.928 242.926 156.769 241.316 154.212C239.644 151.557 236.574 150.76 233.587 150.76V156.76C235.8 156.76 236.21 157.363 236.238 157.408C236.328 157.551 236.673 158.392 235.813 160.721L241.441 162.799ZM233.587 150.76H220.787V156.76H233.587V150.76ZM220.787 150.76C220.514 150.76 220.479 150.72 220.583 150.762C220.721 150.816 220.998 150.974 221.214 151.308C221.423 151.629 221.436 151.898 221.436 151.947C221.436 151.977 221.433 151.856 221.542 151.541L215.872 149.579C215.413 150.905 215.065 152.853 216.179 154.572C217.351 156.379 219.348 156.76 220.787 156.76V150.76ZM221.524 151.593L222.404 149.193L216.77 147.127L215.89 149.527L221.524 151.593ZM219.587 151.16H229.747V145.16H219.587V151.16ZM229.747 151.16C235.355 151.16 240.043 149.71 243.968 146.195C247.773 142.787 250.583 137.679 253.044 130.951L247.41 128.889C245.071 135.281 242.681 139.293 239.965 141.725C237.37 144.05 234.219 145.16 229.747 145.16V151.16ZM253.048 130.941C254.266 127.574 255.083 124.571 255.368 121.943C255.653 119.321 255.436 116.824 254.315 114.68C251.959 110.173 246.705 109 240.787 109V115C246.549 115 248.374 116.267 248.998 117.46C249.368 118.166 249.616 119.334 249.403 121.295C249.191 123.249 248.547 125.746 247.406 128.899L253.048 130.941ZM240.787 109H191.187V115H240.787V109ZM191.187 109C188.028 109 185.131 109.859 182.708 111.627C180.298 113.386 178.538 115.912 177.413 118.961L183.041 121.039C183.835 118.888 184.956 117.414 186.245 116.473C187.523 115.541 189.146 115 191.187 115V109ZM177.407 118.976L159.967 166.976L165.607 169.024L183.047 121.024L177.407 118.976ZM159.973 166.961C158.913 169.832 158.488 172.991 160.098 175.548C161.77 178.203 164.84 179 167.827 179V173C165.614 173 165.204 172.397 165.176 172.352C165.086 172.209 164.741 171.368 165.601 169.039L159.973 166.961ZM210.484 137.992L215.524 124.232L209.89 122.168L204.85 135.928L210.484 137.992ZM215.542 124.181C215.741 123.605 215.982 123.349 216.141 123.232C216.29 123.121 216.544 123 217.027 123V117C215.429 117 213.883 117.439 212.573 118.408C211.272 119.371 210.392 120.715 209.872 122.219L215.542 124.181ZM217.027 123H218.627V117H217.027V123ZM218.627 123C218.9 123 218.935 123.04 218.83 122.998C218.693 122.944 218.416 122.786 218.199 122.452C217.991 122.131 217.978 121.862 217.978 121.813C217.978 121.783 217.981 121.904 217.872 122.219L223.542 124.181C224.001 122.855 224.348 120.907 223.234 119.188C222.063 117.381 220.066 117 218.627 117V123ZM217.89 122.168L212.85 135.928L218.484 137.992L223.524 124.232L217.89 122.168ZM212.832 135.979C212.646 136.516 212.406 136.774 212.224 136.905C212.043 137.035 211.755 137.16 211.267 137.16V143.16C212.859 143.16 214.41 142.725 215.73 141.775C217.048 140.826 217.968 139.484 218.502 137.941L212.832 135.979ZM211.267 137.16H209.667V143.16H211.267V137.16ZM209.667 137.16C209.392 137.16 209.372 137.12 209.497 137.17C209.661 137.236 209.957 137.416 210.177 137.776C210.382 138.112 210.383 138.38 210.382 138.404C210.382 138.413 210.387 138.273 210.502 137.941L204.832 135.979C204.392 137.251 204.002 139.179 205.057 140.904C206.203 142.779 208.235 143.16 209.667 143.16V137.16ZM313.706 168L316.52 169.039L316.523 169.032L316.525 169.024L313.706 168ZM319.226 152.8L316.411 151.761L316.409 151.768L316.406 151.776L319.226 152.8ZM286.506 144.8L283.686 143.775L282.223 147.8H286.506V144.8ZM289.706 136V133H287.604L286.886 134.975L289.706 136ZM316.106 132.8L318.906 133.877L318.922 133.834L318.937 133.791L316.106 132.8ZM316.666 131.2L313.866 130.123L313.849 130.166L313.834 130.209L316.666 131.2ZM292.666 128L289.843 126.984L288.397 131H292.666V128ZM295.546 120V117H293.437L292.723 118.984L295.546 120ZM329.146 116.8L331.946 117.877L331.962 117.834L331.977 117.791L329.146 116.8ZM329.706 115.2L332.537 116.191L332.541 116.181L329.706 115.2ZM261.946 120L259.131 118.961L259.129 118.968L259.126 118.976L261.946 120ZM244.506 168L247.32 169.039L247.323 169.032L247.325 169.024L244.506 168ZM249.546 179H302.746V173H249.546V179ZM302.746 179C305.905 179 308.802 178.141 311.224 176.373C313.635 174.614 315.394 172.088 316.52 169.039L310.891 166.961C310.097 169.112 308.976 170.586 307.687 171.527C306.409 172.459 304.787 173 302.746 173V179ZM316.525 169.024L322.045 153.824L316.406 151.776L310.886 166.976L316.525 169.024ZM322.04 153.839C323.108 150.947 323.504 147.779 321.857 145.225C320.164 142.597 317.096 141.8 314.106 141.8V147.8C316.316 147.8 316.767 148.403 316.814 148.475C316.908 148.621 317.263 149.453 316.411 151.761L322.04 153.839ZM314.106 141.8H286.506V147.8H314.106V141.8ZM289.325 145.825L292.525 137.025L286.886 134.975L283.686 143.775L289.325 145.825ZM289.706 139H311.706V133H289.706V139ZM311.706 139C313.307 139 314.844 138.559 316.154 137.603C317.449 136.658 318.342 135.343 318.906 133.877L313.306 131.723C313.07 132.337 312.802 132.622 312.617 132.757C312.447 132.881 312.184 133 311.706 133V139ZM318.937 133.791L319.497 132.191L313.834 130.209L313.274 131.809L318.937 133.791ZM319.466 132.277C319.972 130.959 320.395 128.986 319.284 127.222C318.121 125.374 316.087 125 314.666 125V131C314.94 131 314.973 131.04 314.864 130.997C314.723 130.941 314.431 130.775 314.207 130.418C313.991 130.075 313.983 129.787 313.985 129.728C313.986 129.69 313.987 129.808 313.866 130.123L319.466 132.277ZM314.666 125H292.666V131H314.666V125ZM295.488 129.016L298.368 121.016L292.723 118.984L289.843 126.984L295.488 129.016ZM295.546 123H324.746V117H295.546V123ZM324.746 123C326.348 123 327.884 122.559 329.194 121.603C330.489 120.658 331.382 119.343 331.946 117.877L326.346 115.723C326.11 116.337 325.842 116.622 325.657 116.757C325.487 116.881 325.224 117 324.746 117V123ZM331.977 117.791L332.537 116.191L326.874 114.209L326.314 115.809L331.977 117.791ZM332.541 116.181C332.981 114.909 333.37 112.981 332.315 111.256C331.17 109.381 329.138 109 327.706 109V115C327.981 115 328.001 115.04 327.876 114.99C327.711 114.924 327.415 114.744 327.196 114.384C326.99 114.048 326.99 113.781 326.99 113.756C326.99 113.747 326.985 113.887 326.871 114.219L332.541 116.181ZM327.706 109H272.906V115H327.706V109ZM272.906 109C269.747 109 266.849 109.859 264.427 111.627C262.016 113.386 260.257 115.912 259.131 118.961L264.76 121.039C265.554 118.888 266.675 117.414 267.964 116.473C269.242 115.541 270.865 115 272.906 115V109ZM259.126 118.976L241.686 166.976L247.325 169.024L264.765 121.024L259.126 118.976ZM241.691 166.961C240.631 169.832 240.207 172.991 241.817 175.548C243.488 178.203 246.558 179 249.546 179V173C247.333 173 246.923 172.397 246.894 172.352C246.805 172.209 246.46 171.368 247.32 169.039L241.691 166.961Z" fill="black"/>
</svg>
