<svg width="789" height="346" viewBox="0 0 789 346" fill="none" xmlns="http://www.w3.org/2000/svg">
<path d="M13.2 97H64.4C74.8 97 82.48 91.4 86.24 81L87.68 77C91.52 66.6 87.92 61 77.52 61H55.12C53.04 61 52.32 59.88 53.12 57.8L58.08 44.2C58.8 42.12 60.32 41 62.4 41H64C66.08 41 66.8 42.12 66.08 44.2L64.88 47.4C62.96 52.6 64.8 55.4 70 55.4H87.6C92.8 55.4 96.56 52.6 98.48 47.4L100.8 41C102.72 35.8 100.96 33 95.76 33H44.56C34.16 33 26.48 38.6 22.72 49L21.28 53C17.44 63.4 21.04 69 31.44 69H53.84C55.92 69 56.64 70.12 55.84 72.2L50.88 85.8C50.16 87.88 48.64 89 46.56 89H44.96C42.88 89 42.16 87.88 42.88 85.8L44.08 82.6C46 77.4 44.16 74.6 38.96 74.6H21.36C16.16 74.6 12.4 77.4 10.48 82.6L8.16 89C6.24 94.2 8 97 13.2 97ZM96.4831 97H114.083C119.283 97 123.123 94.2 125.043 89L142.483 41C144.403 35.8 142.643 33 137.443 33H119.843C114.643 33 110.803 35.8 108.883 41L91.4431 89C89.5231 94.2 91.2831 97 96.4831 97ZM154.202 97H189.402C199.802 97 207.482 91.4 211.242 81L213.002 76.2C214.922 71 213.082 68.2 207.882 68.2H181.082C179.002 68.2 177.482 69.32 176.762 71.4L176.202 73C175.402 75.08 176.122 76.2 178.202 76.2H179.402L175.882 85.8C175.162 87.88 173.642 89 171.562 89H169.962C167.882 89 167.162 87.88 167.882 85.8L183.082 44.2C183.802 42.12 185.322 41 187.402 41H189.002C191.082 41 191.802 42.12 191.082 44.2L187.882 53C185.962 58.2 187.722 61 192.922 61H210.522C215.722 61 219.562 58.2 221.482 53C226.202 39.96 220.362 33 204.762 33H177.562C161.962 33 150.442 41.4 144.762 57L139.002 73C133.322 88.6 138.602 97 154.202 97ZM221.403 97H239.003C244.203 97 248.043 94.2 249.963 89L266.283 44.2C267.003 42.12 268.523 41 270.603 41H272.203C274.283 41 275.003 42.12 274.283 44.2L257.963 89C256.043 94.2 257.803 97 263.003 97H280.603C285.803 97 289.643 94.2 291.563 89L306.123 49C309.883 38.6 306.363 33 295.963 33H252.763C242.363 33 234.683 38.6 230.923 49L216.363 89C214.443 94.2 216.203 97 221.403 97ZM361.662 33H344.062C338.862 33 335.022 35.8 333.102 41L318.542 81C314.782 91.4 318.302 97 328.702 97H371.902C382.302 97 389.982 91.4 393.742 81L408.302 41C410.222 35.8 408.462 33 403.262 33H385.662C380.462 33 376.622 35.8 374.702 41L358.382 85.8C357.662 87.88 356.142 89 354.062 89H352.462C350.382 89 349.662 87.88 350.382 85.8L366.702 41C368.622 35.8 366.862 33 361.662 33ZM403.905 97H421.505C426.705 97 430.545 94.2 432.465 89L435.665 80.2H453.665C464.065 80.2 471.665 74.6 475.505 64.2L481.025 49C484.785 38.6 481.265 33 470.865 33H427.265C422.065 33 418.225 35.8 416.305 41L398.865 89C396.945 94.2 398.705 97 403.905 97ZM439.745 68.92L439.985 68.28C440.625 66.44 442.625 65 444.465 65H460.145C461.985 65 462.865 66.44 462.225 68.28L461.985 68.92C461.345 70.76 459.345 72.2 457.505 72.2H441.825C439.985 72.2 439.105 70.76 439.745 68.92ZM13.28 209H30.88C36.08 209 39.92 206.2 41.84 201L49.04 181.16H57.04L49.84 201C47.92 206.2 49.68 209 54.88 209H72.48C77.68 209 81.52 206.2 83.44 201L100.88 153C102.8 147.8 101.04 145 95.84 145H78.24C73.04 145 69.2 147.8 67.28 153L59.92 173.16H51.92L59.28 153C61.2 147.8 59.44 145 54.24 145H36.64C31.44 145 27.6 147.8 25.68 153L8.24 201C6.32 206.2 8.08 209 13.28 209ZM96.5613 209H149.761C154.961 209 158.801 206.2 160.721 201L166.241 185.8C168.161 180.6 166.321 177.8 161.121 177.8H133.521L136.721 169H158.721C160.801 169 162.321 167.88 163.121 165.8L163.681 164.2C164.481 162.12 163.761 161 161.681 161H139.681L142.561 153H171.761C173.841 153 175.361 151.88 176.161 149.8L176.721 148.2C177.441 146.12 176.801 145 174.721 145H119.921C114.721 145 110.881 147.8 108.961 153L91.5212 201C89.6012 206.2 91.3612 209 96.5613 209ZM173.827 209H191.427C196.627 209 200.467 206.2 202.387 201L209.587 181.16H217.587L213.267 193C209.507 203.4 213.027 209 223.427 209H231.427C236.627 209 240.467 206.2 242.387 201L244.627 194.76C246.547 189.56 244.787 186.76 239.587 186.76H226.787C224.707 186.76 223.987 185.64 224.707 183.56L225.587 181.16H235.747C245.827 181.16 251.427 176.04 256.227 162.92C260.947 149.88 258.467 145 246.787 145H197.187C191.987 145 188.147 147.8 186.227 153L168.787 201C166.867 206.2 168.627 209 173.827 209ZM213.667 169.96L218.707 156.2C219.427 154.12 220.947 153 223.027 153H224.627C226.707 153 227.427 154.12 226.707 156.2L221.667 169.96C220.947 172.04 219.347 173.16 217.267 173.16H215.667C213.587 173.16 212.947 172.04 213.667 169.96ZM255.546 209H308.746C313.946 209 317.786 206.2 319.706 201L325.226 185.8C327.146 180.6 325.306 177.8 320.106 177.8H292.506L295.706 169H317.706C319.786 169 321.306 167.88 322.106 165.8L322.666 164.2C323.466 162.12 322.746 161 320.666 161H298.666L301.546 153H330.746C332.826 153 334.346 151.88 335.146 149.8L335.706 148.2C336.426 146.12 335.786 145 333.706 145H278.906C273.706 145 269.866 147.8 267.946 153L250.506 201C248.586 206.2 250.346 209 255.546 209Z" fill="black"/>
<path d="M86.24 81L89.0613 82.02L89.0627 82.0162L86.24 81ZM87.68 77L84.8657 75.9609L84.8615 75.9723L84.8573 75.9838L87.68 77ZM53.12 57.8L55.92 58.8769L55.9294 58.8525L55.9384 58.8279L53.12 57.8ZM58.08 44.2L60.8984 45.2279L60.9069 45.2047L60.915 45.1813L58.08 44.2ZM66.08 44.2L68.889 45.2534L68.9024 45.2175L68.915 45.1813L66.08 44.2ZM64.88 47.4L62.071 46.3466L62.0683 46.3537L62.0657 46.3609L64.88 47.4ZM98.48 47.4L101.294 48.4391L101.297 48.4308L101.3 48.4224L98.48 47.4ZM100.8 41L97.9857 39.9609L97.9826 39.9692L97.9796 39.9776L100.8 41ZM22.72 49L19.8987 47.98L19.8973 47.9838L22.72 49ZM21.28 53L24.0943 54.0391L24.0985 54.0277L24.1027 54.0162L21.28 53ZM55.84 72.2L53.04 71.1231L53.0306 71.1475L53.0216 71.1721L55.84 72.2ZM50.88 85.8L48.0616 84.7721L48.0531 84.7953L48.045 84.8187L50.88 85.8ZM42.88 85.8L40.071 84.7466L40.0576 84.7825L40.045 84.8187L42.88 85.8ZM44.08 82.6L46.889 83.6534L46.8917 83.6463L46.8943 83.6391L44.08 82.6ZM10.48 82.6L7.66571 81.5609L7.66263 81.5692L7.65959 81.5776L10.48 82.6ZM8.16 89L10.9743 90.0391L10.9774 90.0308L10.9804 90.0224L8.16 89ZM13.2 100H64.4V94H13.2V100ZM64.4 100C70.1582 100 75.3173 98.4412 79.5815 95.3211C83.8356 92.2083 87.0163 87.6763 89.0613 82.02L83.4187 79.98C81.7037 84.7237 79.1644 88.1917 76.0385 90.4789C72.9227 92.7588 69.0418 94 64.4 94V100ZM89.0627 82.0162L90.5027 78.0162L84.8573 75.9838L83.4173 79.9838L89.0627 82.0162ZM90.4943 78.0391C92.5183 72.5575 92.9586 67.3944 90.4702 63.4882C87.9277 59.497 83.1087 58 77.52 58V64C82.3313 64 84.5123 65.303 85.4098 66.7118C86.3614 68.2056 86.6817 71.0425 84.8657 75.9609L90.4943 78.0391ZM77.52 58H55.12V64H77.52V58ZM55.12 58C54.8461 58 54.8127 57.96 54.9213 58.0029C55.0629 58.059 55.3542 58.225 55.5787 58.5816C55.7951 58.9253 55.8029 59.2134 55.801 59.2718C55.7998 59.3104 55.7989 59.1919 55.92 58.8769L50.32 56.7231C49.8132 58.0407 49.3904 60.014 50.5013 61.7784C51.6646 63.626 53.6982 64 55.12 64V58ZM55.9384 58.8279L60.8984 45.2279L55.2616 43.1721L50.3016 56.7721L55.9384 58.8279ZM60.915 45.1813C61.1144 44.6051 61.3552 44.3494 61.5141 44.2318C61.6635 44.1214 61.9175 44 62.4 44V38C60.8025 38 59.2565 38.4386 57.9459 39.4082C56.6448 40.3706 55.7656 41.7149 55.245 43.2187L60.915 45.1813ZM62.4 44H64V38H62.4V44ZM64 44C64.2728 44 64.3081 44.0397 64.2034 43.9984C64.0658 43.9442 63.7893 43.7862 63.5725 43.4517C63.3644 43.1305 63.3511 42.8622 63.3513 42.8131C63.3514 42.7828 63.3539 42.9042 63.245 43.2187L68.915 45.1813C69.3742 43.8546 69.7216 41.9073 68.6075 40.1883C67.4363 38.3815 65.4388 38 64 38V44ZM63.271 43.1466L62.071 46.3466L67.689 48.4534L68.889 45.2534L63.271 43.1466ZM62.0657 46.3609C60.9977 49.2533 60.602 52.4205 62.2483 54.9751C63.9418 57.6029 67.01 58.4 70 58.4V52.4C67.79 52.4 67.3383 51.7971 67.2917 51.7249C67.198 51.5795 66.8423 50.7467 67.6943 48.4391L62.0657 46.3609ZM70 58.4H87.6V52.4H70V58.4ZM87.6 58.4C90.7612 58.4 93.6444 57.5395 96.051 55.7642C98.4427 53.9998 100.174 51.4726 101.294 48.4391L95.6657 46.3609C94.8658 48.5274 93.7573 50.0002 92.4891 50.9358C91.2356 51.8605 89.6388 52.4 87.6 52.4V58.4ZM101.3 48.4224L103.62 42.0224L97.9796 39.9776L95.6596 46.3776L101.3 48.4224ZM103.614 42.0391C104.674 39.1683 105.099 36.0093 103.489 33.4516C101.817 30.7969 98.7473 30 95.76 30V36C97.9727 36 98.3828 36.6031 98.4113 36.6484C98.5009 36.7907 98.8457 37.6317 97.9857 39.9609L103.614 42.0391ZM95.76 30H44.56V36H95.76V30ZM44.56 30C38.8018 30 33.6427 31.5588 29.3785 34.6789C25.1244 37.7917 21.9437 42.3237 19.8987 47.98L25.5413 50.02C27.2563 45.2763 29.7956 41.8083 32.9215 39.5211C36.0373 37.2412 39.9182 36 44.56 36V30ZM19.8973 47.9838L18.4573 51.9838L24.1027 54.0162L25.5427 50.0162L19.8973 47.9838ZM18.4657 51.9609C16.4417 57.4425 16.0014 62.6056 18.4898 66.5118C21.0323 70.503 25.8513 72 31.44 72V66C26.6287 66 24.4477 64.697 23.5502 63.2882C22.5986 61.7944 22.2783 58.9575 24.0943 54.0391L18.4657 51.9609ZM31.44 72H53.84V66H31.44V72ZM53.84 72C54.1139 72 54.1473 72.04 54.0387 71.9971C53.8971 71.941 53.6058 71.775 53.3813 71.4184C53.1649 71.0747 53.1571 70.7866 53.159 70.7282C53.1602 70.6896 53.1611 70.8081 53.04 71.1231L58.64 73.2769C59.1468 71.9593 59.5696 69.986 58.4587 68.2216C57.2954 66.374 55.2618 66 53.84 66V72ZM53.0216 71.1721L48.0616 84.7721L53.6984 86.8279L58.6584 73.2279L53.0216 71.1721ZM48.045 84.8187C47.8456 85.3949 47.6048 85.6506 47.4459 85.7682C47.2965 85.8786 47.0425 86 46.56 86V92C48.1575 92 49.7035 91.5614 51.0141 90.5918C52.3152 89.6294 53.1944 88.2851 53.715 86.7813L48.045 84.8187ZM46.56 86H44.96V92H46.56V86ZM44.96 86C44.6872 86 44.6519 85.9603 44.7566 86.0016C44.8942 86.0558 45.1707 86.2138 45.3875 86.5483C45.5956 86.8695 45.6089 87.1378 45.6087 87.1869C45.6086 87.2172 45.6061 87.0958 45.715 86.7813L40.045 84.8187C39.5858 86.1454 39.2384 88.0927 40.3525 89.8117C41.5237 91.6185 43.5212 92 44.96 92V86ZM45.689 86.8534L46.889 83.6534L41.271 81.5466L40.071 84.7466L45.689 86.8534ZM46.8943 83.6391C47.9623 80.7467 48.358 77.5795 46.7117 75.0249C45.0183 72.3971 41.95 71.6 38.96 71.6V77.6C41.17 77.6 41.6217 78.2029 41.6683 78.2751C41.762 78.4205 42.1177 79.2533 41.2657 81.5609L46.8943 83.6391ZM38.96 71.6H21.36V77.6H38.96V71.6ZM21.36 71.6C18.1988 71.6 15.3156 72.4605 12.9091 74.2358C10.5173 76.0002 8.78576 78.5274 7.66571 81.5609L13.2943 83.6391C14.0942 81.4726 15.2027 79.9998 16.4709 79.0642C17.7244 78.1395 19.3212 77.6 21.36 77.6V71.6ZM7.65959 81.5776L5.33959 87.9776L10.9804 90.0224L13.3004 83.6224L7.65959 81.5776ZM5.34571 87.9609C4.28572 90.8317 3.86089 93.9907 5.4713 96.5484C7.14276 99.2031 10.2127 100 13.2 100V94C10.9873 94 10.5772 93.3969 10.5487 93.3516C10.4591 93.2093 10.1143 92.3683 10.9743 90.0391L5.34571 87.9609ZM125.043 89L127.857 90.0391L127.86 90.0318L127.863 90.0245L125.043 89ZM142.483 41L139.669 39.9609L139.666 39.9682L139.663 39.9755L142.483 41ZM108.883 41L106.069 39.9609L106.066 39.9682L106.063 39.9755L108.883 41ZM91.4431 89L94.2574 90.0391L94.2601 90.0318L94.2628 90.0245L91.4431 89ZM96.4831 100H114.083V94H96.4831V100ZM114.083 100C117.242 100 120.139 99.1408 122.562 97.3734C124.972 95.6141 126.732 93.0878 127.857 90.0391L122.229 87.9609C121.435 90.1122 120.314 91.5859 119.025 92.5266C117.747 93.4592 116.124 94 114.083 94V100ZM127.863 90.0245L145.303 42.0245L139.663 39.9755L122.223 87.9755L127.863 90.0245ZM145.297 42.0391C146.357 39.1683 146.782 36.0093 145.172 33.4516C143.5 30.7969 140.43 30 137.443 30V36C139.656 36 140.066 36.6031 140.094 36.6484C140.184 36.7907 140.529 37.6317 139.669 39.9609L145.297 42.0391ZM137.443 30H119.843V36H137.443V30ZM119.843 30C116.684 30 113.787 30.8592 111.365 32.6266C108.954 34.3859 107.195 36.9122 106.069 39.9609L111.697 42.0391C112.492 39.8878 113.612 38.4141 114.902 37.4734C116.179 36.5408 117.802 36 119.843 36V30ZM106.063 39.9755L88.6235 87.9755L94.2628 90.0245L111.703 42.0245L106.063 39.9755ZM88.6288 87.9609C87.5688 90.8317 87.144 93.9907 88.7544 96.5484C90.4259 99.2031 93.4958 100 96.4831 100V94C94.2704 94 93.8604 93.3969 93.8318 93.3516C93.7422 93.2093 93.3974 92.3683 94.2574 90.0391L88.6288 87.9609ZM211.242 81L208.425 79.9672L208.421 79.98L211.242 81ZM213.002 76.2L210.188 75.1609L210.185 75.1672L213.002 76.2ZM176.762 71.4L179.593 72.3911L179.597 72.3813L176.762 71.4ZM176.202 73L179.002 74.0769L179.018 74.0342L179.033 73.991L176.202 73ZM179.402 76.2L182.219 77.2328L183.697 73.2H179.402V76.2ZM175.882 85.8L173.065 84.7672L173.056 84.7929L173.047 84.8187L175.882 85.8ZM167.882 85.8L165.064 84.7704L165.055 84.7945L165.047 84.8187L167.882 85.8ZM183.082 44.2L185.9 45.2296L185.908 45.2055L185.917 45.1813L183.082 44.2ZM191.082 44.2L193.901 45.2252L193.909 45.2033L193.917 45.1813L191.082 44.2ZM187.882 53L190.696 54.0391L190.699 54.0322L190.701 54.0252L187.882 53ZM221.482 53L224.296 54.0391L224.299 54.0301L224.303 54.0211L221.482 53ZM144.762 57L141.943 55.9736L141.939 55.9838L144.762 57ZM139.002 73L141.821 74.0264L141.825 74.0162L139.002 73ZM154.202 100H189.402V94H154.202V100ZM189.402 100C195.16 100 200.319 98.4412 204.583 95.3211C208.837 92.2083 212.018 87.6763 214.063 82.02L208.421 79.98C206.706 84.7237 204.166 88.1917 201.04 90.4789C197.925 92.7588 194.044 94 189.402 94V100ZM214.059 82.0328L215.819 77.2328L210.185 75.1672L208.425 79.9672L214.059 82.0328ZM215.816 77.2391C216.884 74.3467 217.28 71.1795 215.634 68.6249C213.94 65.9971 210.872 65.2 207.882 65.2V71.2C210.092 71.2 210.544 71.8029 210.59 71.8751C210.684 72.0205 211.04 72.8533 210.188 75.1609L215.816 77.2391ZM207.882 65.2H181.082V71.2H207.882V65.2ZM181.082 65.2C179.484 65.2 177.938 65.6386 176.628 66.6082C175.327 67.5706 174.447 68.9149 173.927 70.4187L179.597 72.3813C179.796 71.8051 180.037 71.5494 180.196 71.4318C180.345 71.3214 180.599 71.2 181.082 71.2V65.2ZM173.93 70.409L173.37 72.009L179.033 73.991L179.593 72.391L173.93 70.409ZM173.402 71.9231C172.895 73.2407 172.472 75.214 173.583 76.9784C174.746 78.826 176.78 79.2 178.202 79.2V73.2C177.928 73.2 177.895 73.16 178.003 73.2029C178.145 73.259 178.436 73.425 178.661 73.7816C178.877 74.1253 178.885 74.4134 178.883 74.4718C178.882 74.5104 178.881 74.3919 179.002 74.0769L173.402 71.9231ZM178.202 79.2H179.402V73.2H178.202V79.2ZM176.585 75.1672L173.065 84.7672L178.699 86.8328L182.219 77.2328L176.585 75.1672ZM173.047 84.8187C172.847 85.3949 172.607 85.6506 172.448 85.7682C172.298 85.8786 172.044 86 171.562 86V92C173.159 92 174.705 91.5614 176.016 90.5918C177.317 89.6294 178.196 88.2851 178.717 86.7813L173.047 84.8187ZM171.562 86H169.962V92H171.562V86ZM169.962 86C169.689 86 169.654 85.9603 169.758 86.0016C169.896 86.0558 170.173 86.2138 170.389 86.5483C170.598 86.8695 170.611 87.1378 170.611 87.1869C170.611 87.2172 170.608 87.0958 170.717 86.7813L165.047 84.8187C164.588 86.1454 164.24 88.0927 165.354 89.8117C166.526 91.6185 168.523 92 169.962 92V86ZM170.7 86.8296L185.9 45.2296L180.264 43.1704L165.064 84.7704L170.7 86.8296ZM185.917 45.1813C186.116 44.6051 186.357 44.3494 186.516 44.2318C186.665 44.1214 186.919 44 187.402 44V38C185.804 38 184.258 38.4386 182.948 39.4082C181.647 40.3706 180.767 41.7149 180.247 43.2187L185.917 45.1813ZM187.402 44H189.002V38H187.402V44ZM189.002 44C189.275 44 189.31 44.0397 189.205 43.9984C189.068 43.9442 188.791 43.7862 188.574 43.4517C188.366 43.1305 188.353 42.8622 188.353 42.8131C188.353 42.7828 188.356 42.9042 188.247 43.2187L193.917 45.1813C194.376 43.8546 194.723 41.9073 193.609 40.1883C192.438 38.3815 190.441 38 189.002 38V44ZM188.262 43.1748L185.062 51.9748L190.701 54.0252L193.901 45.2252L188.262 43.1748ZM185.068 51.9609C184.008 54.8317 183.583 57.9907 185.193 60.5484C186.865 63.2031 189.935 64 192.922 64V58C190.709 58 190.299 57.3969 190.271 57.3516C190.181 57.2093 189.836 56.3683 190.696 54.0391L185.068 51.9609ZM192.922 64H210.522V58H192.922V64ZM210.522 64C213.681 64 216.578 63.1408 219 61.3734C221.411 59.6141 223.17 57.0878 224.296 54.0391L218.668 51.9609C217.873 54.1122 216.753 55.5859 215.463 56.5266C214.186 57.4592 212.563 58 210.522 58V64ZM224.303 54.0211C226.812 47.0884 226.874 40.7633 223.043 36.1847C219.344 31.7646 212.818 30 204.762 30V36C212.306 36 216.5 37.7154 218.441 40.0352C220.25 42.1967 220.872 45.8716 218.661 51.9789L224.303 54.0211ZM204.762 30H177.562V36H204.762V30ZM177.562 30C169.203 30 161.785 32.2589 155.671 36.7281C149.568 41.1897 144.948 47.7199 141.943 55.9736L147.581 58.0264C150.256 50.6801 154.235 45.2103 159.212 41.5719C164.179 37.9411 170.32 36 177.562 36V30ZM141.939 55.9838L136.179 71.9838L141.825 74.0162L147.585 58.0162L141.939 55.9838ZM136.183 71.9736C133.244 80.0456 132.766 87.2012 136.086 92.4529C139.467 97.8021 146.012 100 154.202 100V94C146.791 94 142.897 91.9979 141.158 89.2471C139.357 86.3988 139.08 81.5544 141.821 74.0264L136.183 71.9736ZM249.963 89L252.777 90.0391L252.782 90.0268L249.963 89ZM266.283 44.2L269.102 45.2268L269.11 45.2042L269.118 45.1813L266.283 44.2ZM274.283 44.2L277.102 45.2268L277.11 45.2042L277.118 45.1813L274.283 44.2ZM257.963 89L260.777 90.0391L260.782 90.0268L257.963 89ZM291.563 89L294.377 90.0391L294.382 90.0261L291.563 89ZM306.123 49L308.942 50.0261L308.944 50.02L306.123 49ZM230.923 49L233.742 50.0261L233.744 50.02L230.923 49ZM216.363 89L219.177 90.0391L219.182 90.0261L216.363 89ZM221.403 100H239.003V94H221.403V100ZM239.003 100C242.162 100 245.059 99.1408 247.482 97.3734C249.892 95.6141 251.652 93.0878 252.777 90.0391L247.149 87.9609C246.355 90.1122 245.234 91.5859 243.945 92.5266C242.667 93.4592 241.044 94 239.003 94V100ZM252.782 90.0268L269.102 45.2268L263.464 43.1732L247.144 87.9732L252.782 90.0268ZM269.118 45.1813C269.318 44.6051 269.558 44.3494 269.717 44.2318C269.867 44.1214 270.121 44 270.603 44V38C269.006 38 267.46 38.4386 266.149 39.4082C264.848 40.3706 263.969 41.7149 263.448 43.2187L269.118 45.1813ZM270.603 44H272.203V38H270.603V44ZM272.203 44C272.476 44 272.511 44.0397 272.407 43.9984C272.269 43.9442 271.992 43.7862 271.776 43.4517C271.567 43.1305 271.554 42.8622 271.554 42.8131C271.554 42.7828 271.557 42.9042 271.448 43.2187L277.118 45.1813C277.577 43.8546 277.925 41.9073 276.811 40.1883C275.639 38.3815 273.642 38 272.203 38V44ZM271.464 43.1732L255.144 87.9732L260.782 90.0268L277.102 45.2268L271.464 43.1732ZM255.149 87.9609C254.089 90.8317 253.664 93.9907 255.274 96.5484C256.946 99.2031 260.016 100 263.003 100V94C260.79 94 260.38 93.3969 260.352 93.3516C260.262 93.2093 259.917 92.3683 260.777 90.0391L255.149 87.9609ZM263.003 100H280.603V94H263.003V100ZM280.603 100C283.762 100 286.659 99.1408 289.082 97.3734C291.492 95.6141 293.252 93.0878 294.377 90.0391L288.749 87.9609C287.955 90.1122 286.834 91.5859 285.545 92.5266C284.267 93.4592 282.644 94 280.603 94V100ZM294.382 90.0261L308.942 50.0261L303.304 47.9739L288.744 87.9739L294.382 90.0261ZM308.944 50.02C310.923 44.5474 311.357 39.3935 308.888 35.4948C306.357 31.4984 301.554 30 295.963 30V36C300.772 36 302.93 37.3016 303.819 38.7052C304.77 40.2065 305.083 43.0526 303.302 47.98L308.944 50.02ZM295.963 30H252.763V36H295.963V30ZM252.763 30C247.005 30 241.846 31.5588 237.582 34.6789C233.328 37.7917 230.147 42.3237 228.102 47.98L233.744 50.02C235.459 45.2763 237.999 41.8083 241.125 39.5211C244.24 37.2412 248.121 36 252.763 36V30ZM228.104 47.9739L213.544 87.9739L219.182 90.0261L233.742 50.0261L228.104 47.9739ZM213.549 87.9609C212.489 90.8317 212.064 93.9907 213.674 96.5484C215.346 99.2031 218.416 100 221.403 100V94C219.19 94 218.78 93.3969 218.752 93.3516C218.662 93.2093 218.317 92.3683 219.177 90.0391L213.549 87.9609ZM333.102 41L330.288 39.9609L330.283 39.9739L333.102 41ZM318.542 81L315.723 79.9739L315.721 79.98L318.542 81ZM393.742 81L390.923 79.9739L390.921 79.98L393.742 81ZM408.302 41L405.488 39.9609L405.483 39.9739L408.302 41ZM374.702 41L371.888 39.9609L371.883 39.9732L374.702 41ZM358.382 85.8L355.563 84.7732L355.555 84.7958L355.547 84.8187L358.382 85.8ZM350.382 85.8L347.563 84.7732L347.555 84.7958L347.547 84.8187L350.382 85.8ZM366.702 41L363.888 39.9609L363.883 39.9732L366.702 41ZM361.662 30H344.062V36H361.662V30ZM344.062 30C340.903 30 338.006 30.8592 335.583 32.6266C333.173 34.3859 331.413 36.9122 330.288 39.9609L335.916 42.0391C336.71 39.8878 337.831 38.4141 339.12 37.4734C340.398 36.5408 342.021 36 344.062 36V30ZM330.283 39.9739L315.723 79.9739L321.361 82.0261L335.921 42.0261L330.283 39.9739ZM315.721 79.98C313.742 85.4526 313.308 90.6065 315.777 94.5052C318.309 98.5016 323.111 100 328.702 100V94C323.893 94 321.735 92.6984 320.846 91.2948C319.895 89.7935 319.582 86.9474 321.363 82.02L315.721 79.98ZM328.702 100H371.902V94H328.702V100ZM371.902 100C377.66 100 382.819 98.4412 387.083 95.3211C391.337 92.2083 394.518 87.6763 396.563 82.02L390.921 79.98C389.206 84.7237 386.666 88.1917 383.54 90.4789C380.425 92.7588 376.544 94 371.902 94V100ZM396.561 82.0261L411.121 42.0261L405.483 39.9739L390.923 79.9739L396.561 82.0261ZM411.116 42.0391C412.176 39.1683 412.601 36.0093 410.991 33.4516C409.319 30.7969 406.249 30 403.262 30V36C405.475 36 405.885 36.6031 405.913 36.6484C406.003 36.7907 406.348 37.6317 405.488 39.9609L411.116 42.0391ZM403.262 30H385.662V36H403.262V30ZM385.662 30C382.503 30 379.606 30.8592 377.183 32.6266C374.773 34.3859 373.013 36.9122 371.888 39.9609L377.516 42.0391C378.31 39.8878 379.431 38.4141 380.72 37.4734C381.998 36.5408 383.621 36 385.662 36V30ZM371.883 39.9732L355.563 84.7732L361.201 86.8268L377.521 42.0268L371.883 39.9732ZM355.547 84.8187C355.347 85.3949 355.107 85.6506 354.948 85.7682C354.798 85.8786 354.544 86 354.062 86V92C355.659 92 357.205 91.5614 358.516 90.5918C359.817 89.6294 360.696 88.2851 361.217 86.7813L355.547 84.8187ZM354.062 86H352.462V92H354.062V86ZM352.462 86C352.189 86 352.154 85.9603 352.258 86.0016C352.396 86.0558 352.673 86.2138 352.889 86.5483C353.098 86.8695 353.111 87.1378 353.111 87.1869C353.111 87.2172 353.108 87.0958 353.217 86.7813L347.547 84.8187C347.088 86.1454 346.74 88.0927 347.854 89.8117C349.026 91.6185 351.023 92 352.462 92V86ZM353.201 86.8268L369.521 42.0268L363.883 39.9732L347.563 84.7732L353.201 86.8268ZM369.516 42.0391C370.576 39.1683 371.001 36.0093 369.391 33.4516C367.719 30.7969 364.649 30 361.662 30V36C363.875 36 364.285 36.6031 364.313 36.6484C364.403 36.7907 364.748 37.6317 363.888 39.9609L369.516 42.0391ZM432.465 89L435.279 90.0391L435.282 90.0322L435.284 90.0252L432.465 89ZM435.665 80.2V77.2H433.564L432.846 79.1748L435.665 80.2ZM475.505 64.2L478.319 65.2391L478.322 65.2316L478.325 65.224L475.505 64.2ZM481.025 49L483.845 50.024L483.846 50.02L481.025 49ZM416.305 41L413.491 39.9609L413.488 39.9682L413.485 39.9755L416.305 41ZM398.865 89L401.679 90.0391L401.682 90.0318L401.685 90.0245L398.865 89ZM439.745 68.92L436.936 67.8666L436.923 67.9004L436.912 67.9344L439.745 68.92ZM439.985 68.28L442.794 69.3334L442.807 69.2996L442.818 69.2656L439.985 68.28ZM462.225 68.28L465.034 69.3334L465.047 69.2996L465.058 69.2656L462.225 68.28ZM461.985 68.92L459.176 67.8666L459.163 67.9004L459.152 67.9344L461.985 68.92ZM403.905 100H421.505V94H403.905V100ZM421.505 100C424.664 100 427.561 99.1408 429.983 97.3734C432.394 95.6141 434.154 93.0878 435.279 90.0391L429.651 87.9609C428.856 90.1122 427.736 91.5859 426.447 92.5266C425.169 93.4592 423.546 94 421.505 94V100ZM435.284 90.0252L438.484 81.2252L432.846 79.1748L429.646 87.9748L435.284 90.0252ZM435.665 83.2H453.665V77.2H435.665V83.2ZM453.665 83.2C459.425 83.2 464.565 81.6402 468.82 78.5188C473.061 75.407 476.236 70.8802 478.319 65.2391L472.691 63.1609C470.934 67.9198 468.389 71.393 465.27 73.6812C462.165 75.9598 458.305 77.2 453.665 77.2V83.2ZM478.325 65.224L483.845 50.024L478.205 47.976L472.685 63.176L478.325 65.224ZM483.846 50.02C485.825 44.5474 486.259 39.3935 483.789 35.4948C481.258 31.4984 476.456 30 470.865 30V36C475.674 36 477.832 37.3016 478.721 38.7052C479.671 40.2065 479.985 43.0526 478.204 47.98L483.846 50.02ZM470.865 30H427.265V36H470.865V30ZM427.265 30C424.106 30 421.209 30.8592 418.787 32.6266C416.376 34.3859 414.616 36.9122 413.491 39.9609L419.119 42.0391C419.914 39.8878 421.034 38.4141 422.323 37.4734C423.601 36.5408 425.224 36 427.265 36V30ZM413.485 39.9755L396.045 87.9755L401.685 90.0245L419.125 42.0245L413.485 39.9755ZM396.051 87.9609C394.991 90.8317 394.566 93.9907 396.176 96.5484C397.848 99.2031 400.918 100 403.905 100V94C401.692 94 401.282 93.3969 401.254 93.3516C401.164 93.2093 400.819 92.3683 401.679 90.0391L396.051 87.9609ZM442.554 69.9734L442.794 69.3334L437.176 67.2266L436.936 67.8666L442.554 69.9734ZM442.818 69.2656C442.907 69.0107 443.144 68.664 443.541 68.3749C443.944 68.0814 444.299 68 444.465 68V62C442.791 62 441.226 62.6386 440.009 63.5251C438.786 64.416 437.703 65.7093 437.152 67.2944L442.818 69.2656ZM444.465 68H460.145V62H444.465V68ZM460.145 68C460.215 68 460.149 68.0132 460.007 67.9431C459.855 67.868 459.692 67.7327 459.573 67.5439C459.33 67.1556 459.503 66.9728 459.392 67.2944L465.058 69.2656C465.587 67.7472 465.64 65.9244 464.657 64.3561C463.63 62.7197 461.878 62 460.145 62V68ZM459.416 67.2266L459.176 67.8666L464.794 69.9734L465.034 69.3334L459.416 67.2266ZM459.152 67.9344C459.063 68.1893 458.826 68.536 458.429 68.8251C458.026 69.1186 457.671 69.2 457.505 69.2V75.2C459.179 75.2 460.744 74.5614 461.961 73.6749C463.184 72.784 464.267 71.4907 464.818 69.9056L459.152 67.9344ZM457.505 69.2H441.825V75.2H457.505V69.2ZM441.825 69.2C441.755 69.2 441.821 69.1868 441.963 69.2569C442.115 69.332 442.278 69.4673 442.397 69.6561C442.64 70.0444 442.467 70.2272 442.578 69.9056L436.912 67.9344C436.383 69.4528 436.33 71.2756 437.313 72.8439C438.34 74.4803 440.092 75.2 441.825 75.2V69.2ZM41.84 201L44.6543 202.039L44.6572 202.031L44.66 202.023L41.84 201ZM49.04 181.16V178.16H46.9373L46.22 180.137L49.04 181.16ZM57.04 181.16L59.86 182.183L61.3201 178.16H57.04V181.16ZM49.84 201L52.6543 202.039L52.6572 202.031L52.66 202.023L49.84 201ZM83.44 201L86.2543 202.039L86.257 202.032L86.2597 202.024L83.44 201ZM100.88 153L98.0657 151.961L98.063 151.968L98.0603 151.976L100.88 153ZM67.28 153L64.4657 151.961L64.4619 151.971L67.28 153ZM59.92 173.16V176.16H62.0184L62.7381 174.189L59.92 173.16ZM51.92 173.16L49.1019 172.131L47.6311 176.16H51.92V173.16ZM59.28 153L56.4657 151.961L56.4619 151.971L59.28 153ZM25.68 153L22.8657 151.961L22.863 151.968L22.8603 151.976L25.68 153ZM8.24 201L11.0543 202.039L11.057 202.032L11.0597 202.024L8.24 201ZM13.28 212H30.88V206H13.28V212ZM30.88 212C34.0391 212 36.9363 211.141 39.3584 209.373C41.7693 207.614 43.5286 205.088 44.6543 202.039L39.0257 199.961C38.2314 202.112 37.1107 203.586 35.8216 204.527C34.5437 205.459 32.9209 206 30.88 206V212ZM44.66 202.023L51.86 182.183L46.22 180.137L39.02 199.977L44.66 202.023ZM49.04 184.16H57.04V178.16H49.04V184.16ZM54.22 180.137L47.02 199.977L52.66 202.023L59.86 182.183L54.22 180.137ZM47.0257 199.961C45.9657 202.832 45.5409 205.991 47.1513 208.548C48.8228 211.203 51.8927 212 54.88 212V206C52.6673 206 52.2572 205.397 52.2287 205.352C52.1391 205.209 51.7943 204.368 52.6543 202.039L47.0257 199.961ZM54.88 212H72.48V206H54.88V212ZM72.48 212C75.6391 212 78.5363 211.141 80.9584 209.373C83.3693 207.614 85.1286 205.088 86.2543 202.039L80.6257 199.961C79.8314 202.112 78.7107 203.586 77.4216 204.527C76.1437 205.459 74.5209 206 72.48 206V212ZM86.2597 202.024L103.7 154.024L98.0603 151.976L80.6203 199.976L86.2597 202.024ZM103.694 154.039C104.754 151.168 105.179 148.009 103.569 145.452C101.897 142.797 98.8273 142 95.84 142V148C98.0527 148 98.4628 148.603 98.4913 148.648C98.5809 148.791 98.9257 149.632 98.0657 151.961L103.694 154.039ZM95.84 142H78.24V148H95.84V142ZM78.24 142C75.0809 142 72.1837 142.859 69.7616 144.627C67.3507 146.386 65.5914 148.912 64.4657 151.961L70.0943 154.039C70.8886 151.888 72.0093 150.414 73.2984 149.473C74.5763 148.541 76.1991 148 78.24 148V142ZM64.4619 151.971L57.1019 172.131L62.7381 174.189L70.0981 154.029L64.4619 151.971ZM59.92 170.16H51.92V176.16H59.92V170.16ZM54.7381 174.189L62.0981 154.029L56.4619 151.971L49.1019 172.131L54.7381 174.189ZM62.0943 154.039C63.1543 151.168 63.5791 148.009 61.9687 145.452C60.2972 142.797 57.2273 142 54.24 142V148C56.4527 148 56.8628 148.603 56.8913 148.648C56.9809 148.791 57.3257 149.632 56.4657 151.961L62.0943 154.039ZM54.24 142H36.64V148H54.24V142ZM36.64 142C33.4809 142 30.5837 142.859 28.1616 144.627C25.7507 146.386 23.9914 148.912 22.8657 151.961L28.4943 154.039C29.2886 151.888 30.4093 150.414 31.6984 149.473C32.9763 148.541 34.5991 148 36.64 148V142ZM22.8603 151.976L5.42035 199.976L11.0597 202.024L28.4997 154.024L22.8603 151.976ZM5.42571 199.961C4.36572 202.832 3.94089 205.991 5.5513 208.548C7.22276 211.203 10.2927 212 13.28 212V206C11.0673 206 10.6572 205.397 10.6287 205.352C10.5391 205.209 10.1943 204.368 11.0543 202.039L5.42571 199.961ZM160.721 201L163.536 202.039L163.538 202.032L163.541 202.024L160.721 201ZM166.241 185.8L163.427 184.761L163.424 184.768L163.421 184.776L166.241 185.8ZM133.521 177.8L130.702 176.775L129.238 180.8H133.521V177.8ZM136.721 169V166H134.62L133.902 167.975L136.721 169ZM163.121 165.8L165.921 166.877L165.938 166.834L165.953 166.791L163.121 165.8ZM163.681 164.2L160.881 163.123L160.865 163.166L160.85 163.209L163.681 164.2ZM139.681 161L136.859 159.984L135.413 164H139.681V161ZM142.561 153V150H140.453L139.739 151.984L142.561 153ZM176.161 149.8L178.961 150.877L178.978 150.834L178.993 150.791L176.161 149.8ZM176.721 148.2L179.553 149.191L179.556 149.181L176.721 148.2ZM108.961 153L106.147 151.961L106.144 151.968L106.142 151.976L108.961 153ZM91.5212 201L94.3355 202.039L94.3382 202.032L94.3409 202.024L91.5212 201ZM96.5613 212H149.761V206H96.5613V212ZM149.761 212C152.92 212 155.818 211.141 158.24 209.373C160.651 207.614 162.41 205.088 163.536 202.039L157.907 199.961C157.113 202.112 155.992 203.586 154.703 204.527C153.425 205.459 151.802 206 149.761 206V212ZM163.541 202.024L169.061 186.824L163.421 184.776L157.901 199.976L163.541 202.024ZM169.056 186.839C170.124 183.947 170.519 180.779 168.873 178.225C167.18 175.597 164.111 174.8 161.121 174.8V180.8C163.331 180.8 163.783 181.403 163.83 181.475C163.923 181.621 164.279 182.453 163.427 184.761L169.056 186.839ZM161.121 174.8H133.521V180.8H161.121V174.8ZM136.341 178.825L139.541 170.025L133.902 167.975L130.702 176.775L136.341 178.825ZM136.721 172H158.721V166H136.721V172ZM158.721 172C160.323 172 161.86 171.559 163.17 170.603C164.465 169.658 165.357 168.343 165.921 166.877L160.321 164.723C160.085 165.337 159.818 165.622 159.633 165.757C159.463 165.881 159.199 166 158.721 166V172ZM165.953 166.791L166.513 165.191L160.85 163.209L160.29 164.809L165.953 166.791ZM166.481 165.277C166.988 163.959 167.411 161.986 166.3 160.222C165.137 158.374 163.103 158 161.681 158V164C161.955 164 161.989 164.04 161.88 163.997C161.738 163.941 161.447 163.775 161.223 163.418C161.006 163.075 160.998 162.787 161 162.728C161.001 162.69 161.002 162.808 160.881 163.123L166.481 165.277ZM161.681 158H139.681V164H161.681V158ZM142.504 162.016L145.384 154.016L139.739 151.984L136.859 159.984L142.504 162.016ZM142.561 156H171.761V150H142.561V156ZM171.761 156C173.363 156 174.9 155.559 176.21 154.603C177.505 153.658 178.397 152.343 178.961 150.877L173.361 148.723C173.125 149.337 172.858 149.622 172.673 149.757C172.503 149.881 172.239 150 171.761 150V156ZM178.993 150.791L179.553 149.191L173.89 147.209L173.33 148.809L178.993 150.791ZM179.556 149.181C179.997 147.909 180.386 145.981 179.331 144.256C178.186 142.381 176.154 142 174.721 142V148C174.997 148 175.016 148.04 174.891 147.99C174.727 147.924 174.431 147.744 174.211 147.384C174.006 147.048 174.005 146.78 174.006 146.756C174.006 146.747 174.001 146.887 173.886 147.219L179.556 149.181ZM174.721 142H119.921V148H174.721V142ZM119.921 142C116.762 142 113.865 142.859 111.443 144.627C109.032 146.386 107.273 148.912 106.147 151.961L111.776 154.039C112.57 151.888 113.691 150.414 114.98 149.473C116.258 148.541 117.88 148 119.921 148V142ZM106.142 151.976L88.7016 199.976L94.3409 202.024L111.781 154.024L106.142 151.976ZM88.707 199.961C87.647 202.832 87.2221 205.991 88.8326 208.548C90.504 211.203 93.574 212 96.5613 212V206C94.3485 206 93.9385 205.397 93.9099 205.352C93.8204 205.209 93.4755 204.368 94.3355 202.039L88.707 199.961ZM202.387 201L205.201 202.039L205.204 202.031L205.207 202.023L202.387 201ZM209.587 181.16V178.16H207.484L206.767 180.137L209.587 181.16ZM217.587 181.16L220.405 182.188L221.875 178.16H217.587V181.16ZM213.267 193L210.449 191.972L210.446 191.98L213.267 193ZM242.387 201L245.201 202.039L245.206 202.026L245.21 202.014L242.387 201ZM244.627 194.76L241.813 193.721L241.808 193.734L241.803 193.746L244.627 194.76ZM224.707 183.56L221.89 182.527L221.881 182.553L221.872 182.579L224.707 183.56ZM225.587 181.16V178.16H223.492L222.77 180.127L225.587 181.16ZM256.227 162.92L259.044 163.951L259.048 163.941L256.227 162.92ZM186.227 153L183.413 151.961L183.41 151.968L183.407 151.976L186.227 153ZM168.787 201L171.601 202.039L171.604 202.032L171.607 202.024L168.787 201ZM213.667 169.96L210.85 168.928L210.841 168.953L210.832 168.979L213.667 169.96ZM218.707 156.2L221.524 157.232L221.533 157.207L221.542 157.181L218.707 156.2ZM226.707 156.2L229.524 157.232L229.533 157.207L229.542 157.181L226.707 156.2ZM221.667 169.96L218.85 168.928L218.841 168.953L218.832 168.979L221.667 169.96ZM173.827 212H191.427V206H173.827V212ZM191.427 212C194.586 212 197.483 211.141 199.905 209.373C202.316 207.614 204.075 205.088 205.201 202.039L199.573 199.961C198.778 202.112 197.658 203.586 196.368 204.527C195.091 205.459 193.468 206 191.427 206V212ZM205.207 202.023L212.407 182.183L206.767 180.137L199.567 199.977L205.207 202.023ZM209.587 184.16H217.587V178.16H209.587V184.16ZM214.769 180.132L210.449 191.972L216.085 194.028L220.405 182.188L214.769 180.132ZM210.446 191.98C208.467 197.453 208.033 202.606 210.502 206.505C213.034 210.502 217.836 212 223.427 212V206C218.618 206 216.46 204.698 215.571 203.295C214.62 201.794 214.307 198.947 216.088 194.02L210.446 191.98ZM223.427 212H231.427V206H223.427V212ZM231.427 212C234.586 212 237.483 211.141 239.905 209.373C242.316 207.614 244.075 205.088 245.201 202.039L239.573 199.961C238.778 202.112 237.658 203.586 236.368 204.527C235.091 205.459 233.468 206 231.427 206V212ZM245.21 202.014L247.45 195.774L241.803 193.746L239.563 199.986L245.21 202.014ZM247.441 195.799C248.501 192.928 248.926 189.769 247.316 187.212C245.644 184.557 242.574 183.76 239.587 183.76V189.76C241.8 189.76 242.21 190.363 242.238 190.408C242.328 190.551 242.673 191.392 241.813 193.721L247.441 195.799ZM239.587 183.76H226.787V189.76H239.587V183.76ZM226.787 183.76C226.514 183.76 226.479 183.72 226.583 183.762C226.721 183.816 226.998 183.974 227.214 184.308C227.423 184.629 227.436 184.898 227.436 184.947C227.436 184.977 227.433 184.856 227.542 184.541L221.872 182.579C221.413 183.905 221.065 185.853 222.179 187.572C223.351 189.379 225.348 189.76 226.787 189.76V183.76ZM227.524 184.593L228.404 182.193L222.77 180.127L221.89 182.527L227.524 184.593ZM225.587 184.16H235.747V178.16H225.587V184.16ZM235.747 184.16C241.355 184.16 246.043 182.71 249.968 179.195C253.773 175.787 256.583 170.679 259.044 163.951L253.41 161.889C251.071 168.281 248.681 172.293 245.965 174.725C243.37 177.05 240.219 178.16 235.747 178.16V184.16ZM259.048 163.941C260.266 160.574 261.083 157.571 261.368 154.943C261.653 152.321 261.436 149.824 260.315 147.68C257.959 143.173 252.705 142 246.787 142V148C252.549 148 254.374 149.267 254.998 150.46C255.368 151.166 255.616 152.334 255.403 154.295C255.191 156.249 254.547 158.746 253.406 161.899L259.048 163.941ZM246.787 142H197.187V148H246.787V142ZM197.187 142C194.028 142 191.131 142.859 188.708 144.627C186.298 146.386 184.538 148.912 183.413 151.961L189.041 154.039C189.835 151.888 190.956 150.414 192.245 149.473C193.523 148.541 195.146 148 197.187 148V142ZM183.407 151.976L165.967 199.976L171.607 202.024L189.047 154.024L183.407 151.976ZM165.973 199.961C164.913 202.832 164.488 205.991 166.098 208.548C167.77 211.203 170.84 212 173.827 212V206C171.614 206 171.204 205.397 171.176 205.352C171.086 205.209 170.741 204.368 171.601 202.039L165.973 199.961ZM216.484 170.992L221.524 157.232L215.89 155.168L210.85 168.928L216.484 170.992ZM221.542 157.181C221.741 156.605 221.982 156.349 222.141 156.232C222.29 156.121 222.544 156 223.027 156V150C221.429 150 219.883 150.439 218.573 151.408C217.272 152.371 216.392 153.715 215.872 155.219L221.542 157.181ZM223.027 156H224.627V150H223.027V156ZM224.627 156C224.9 156 224.935 156.04 224.83 155.998C224.693 155.944 224.416 155.786 224.199 155.452C223.991 155.131 223.978 154.862 223.978 154.813C223.978 154.783 223.981 154.904 223.872 155.219L229.542 157.181C230.001 155.855 230.348 153.907 229.234 152.188C228.063 150.381 226.066 150 224.627 150V156ZM223.89 155.168L218.85 168.928L224.484 170.992L229.524 157.232L223.89 155.168ZM218.832 168.979C218.646 169.516 218.406 169.774 218.224 169.905C218.043 170.035 217.755 170.16 217.267 170.16V176.16C218.859 176.16 220.41 175.725 221.73 174.775C223.048 173.826 223.968 172.484 224.502 170.941L218.832 168.979ZM217.267 170.16H215.667V176.16H217.267V170.16ZM215.667 170.16C215.392 170.16 215.372 170.12 215.497 170.17C215.661 170.236 215.957 170.416 216.177 170.776C216.382 171.112 216.383 171.38 216.382 171.404C216.382 171.413 216.387 171.273 216.502 170.941L210.832 168.979C210.392 170.251 210.002 172.179 211.057 173.904C212.203 175.779 214.235 176.16 215.667 176.16V170.16ZM319.706 201L322.52 202.039L322.523 202.032L322.525 202.024L319.706 201ZM325.226 185.8L322.411 184.761L322.409 184.768L322.406 184.776L325.226 185.8ZM292.506 177.8L289.686 176.775L288.223 180.8H292.506V177.8ZM295.706 169V166H293.604L292.886 167.975L295.706 169ZM322.106 165.8L324.906 166.877L324.922 166.834L324.937 166.791L322.106 165.8ZM322.666 164.2L319.866 163.123L319.849 163.166L319.834 163.209L322.666 164.2ZM298.666 161L295.843 159.984L294.397 164H298.666V161ZM301.546 153V150H299.437L298.723 151.984L301.546 153ZM335.146 149.8L337.946 150.877L337.962 150.834L337.977 150.791L335.146 149.8ZM335.706 148.2L338.537 149.191L338.541 149.181L335.706 148.2ZM267.946 153L265.131 151.961L265.129 151.968L265.126 151.976L267.946 153ZM250.506 201L253.32 202.039L253.323 202.032L253.325 202.024L250.506 201ZM255.546 212H308.746V206H255.546V212ZM308.746 212C311.905 212 314.802 211.141 317.224 209.373C319.635 207.614 321.394 205.088 322.52 202.039L316.891 199.961C316.097 202.112 314.976 203.586 313.687 204.527C312.409 205.459 310.787 206 308.746 206V212ZM322.525 202.024L328.045 186.824L322.406 184.776L316.886 199.976L322.525 202.024ZM328.04 186.839C329.108 183.947 329.504 180.779 327.857 178.225C326.164 175.597 323.096 174.8 320.106 174.8V180.8C322.316 180.8 322.767 181.403 322.814 181.475C322.908 181.621 323.263 182.453 322.411 184.761L328.04 186.839ZM320.106 174.8H292.506V180.8H320.106V174.8ZM295.325 178.825L298.525 170.025L292.886 167.975L289.686 176.775L295.325 178.825ZM295.706 172H317.706V166H295.706V172ZM317.706 172C319.307 172 320.844 171.559 322.154 170.603C323.449 169.658 324.342 168.343 324.906 166.877L319.306 164.723C319.07 165.337 318.802 165.622 318.617 165.757C318.447 165.881 318.184 166 317.706 166V172ZM324.937 166.791L325.497 165.191L319.834 163.209L319.274 164.809L324.937 166.791ZM325.466 165.277C325.972 163.959 326.395 161.986 325.284 160.222C324.121 158.374 322.087 158 320.666 158V164C320.94 164 320.973 164.04 320.864 163.997C320.723 163.941 320.431 163.775 320.207 163.418C319.991 163.075 319.983 162.787 319.985 162.728C319.986 162.69 319.987 162.808 319.866 163.123L325.466 165.277ZM320.666 158H298.666V164H320.666V158ZM301.488 162.016L304.368 154.016L298.723 151.984L295.843 159.984L301.488 162.016ZM301.546 156H330.746V150H301.546V156ZM330.746 156C332.348 156 333.884 155.559 335.194 154.603C336.489 153.658 337.382 152.343 337.946 150.877L332.346 148.723C332.11 149.337 331.842 149.622 331.657 149.757C331.487 149.881 331.224 150 330.746 150V156ZM337.977 150.791L338.537 149.191L332.874 147.209L332.314 148.809L337.977 150.791ZM338.541 149.181C338.981 147.909 339.37 145.981 338.315 144.256C337.17 142.381 335.138 142 333.706 142V148C333.981 148 334.001 148.04 333.876 147.99C333.711 147.924 333.415 147.744 333.196 147.384C332.99 147.048 332.99 146.78 332.99 146.756C332.99 146.747 332.985 146.887 332.871 147.219L338.541 149.181ZM333.706 142H278.906V148H333.706V142ZM278.906 142C275.747 142 272.849 142.859 270.427 144.627C268.016 146.386 266.257 148.912 265.131 151.961L270.76 154.039C271.554 151.888 272.675 150.414 273.964 149.473C275.242 148.541 276.865 148 278.906 148V142ZM265.126 151.976L247.686 199.976L253.325 202.024L270.765 154.024L265.126 151.976ZM247.691 199.961C246.631 202.832 246.207 205.991 247.817 208.548C249.488 211.203 252.558 212 255.546 212V206C253.333 206 252.923 205.397 252.894 205.352C252.805 205.209 252.46 204.368 253.32 202.039L247.691 199.961Z" fill="black"/>
<path d="M7.2 88H58.4C68.8 88 76.48 82.4 80.24 72L81.68 68C85.52 57.6 81.92 52 71.52 52H49.12C47.04 52 46.32 50.88 47.12 48.8L52.08 35.2C52.8 33.12 54.32 32 56.4 32H58C60.08 32 60.8 33.12 60.08 35.2L58.88 38.4C56.96 43.6 58.8 46.4 64 46.4H81.6C86.8 46.4 90.56 43.6 92.48 38.4L94.8 32C96.72 26.8 94.96 24 89.76 24H38.56C28.16 24 20.48 29.6 16.72 40L15.28 44C11.44 54.4 15.04 60 25.44 60H47.84C49.92 60 50.64 61.12 49.84 63.2L44.88 76.8C44.16 78.88 42.64 80 40.56 80H38.96C36.88 80 36.16 78.88 36.88 76.8L38.08 73.6C40 68.4 38.16 65.6 32.96 65.6H15.36C10.16 65.6 6.4 68.4 4.48 73.6L2.16 80C0.24 85.2 2 88 7.2 88ZM90.4831 88H108.083C113.283 88 117.123 85.2 119.043 80L136.483 32C138.403 26.8 136.643 24 131.443 24H113.843C108.643 24 104.803 26.8 102.883 32L85.4431 80C83.5231 85.2 85.2831 88 90.4831 88ZM148.202 88H183.402C193.802 88 201.482 82.4 205.242 72L207.002 67.2C208.922 62 207.082 59.2 201.882 59.2H175.082C173.002 59.2 171.482 60.32 170.762 62.4L170.202 64C169.402 66.08 170.122 67.2 172.202 67.2H173.402L169.882 76.8C169.162 78.88 167.642 80 165.562 80H163.962C161.882 80 161.162 78.88 161.882 76.8L177.082 35.2C177.802 33.12 179.322 32 181.402 32H183.002C185.082 32 185.802 33.12 185.082 35.2L181.882 44C179.962 49.2 181.722 52 186.922 52H204.522C209.722 52 213.562 49.2 215.482 44C220.202 30.96 214.362 24 198.762 24H171.562C155.962 24 144.442 32.4 138.762 48L133.002 64C127.322 79.6 132.602 88 148.202 88ZM215.403 88H233.003C238.203 88 242.043 85.2 243.963 80L260.283 35.2C261.003 33.12 262.523 32 264.603 32H266.203C268.283 32 269.003 33.12 268.283 35.2L251.963 80C250.043 85.2 251.803 88 257.003 88H274.603C279.803 88 283.643 85.2 285.563 80L300.123 40C303.883 29.6 300.363 24 289.963 24H246.763C236.363 24 228.683 29.6 224.923 40L210.363 80C208.443 85.2 210.203 88 215.403 88ZM355.662 24H338.062C332.862 24 329.022 26.8 327.102 32L312.542 72C308.782 82.4 312.302 88 322.702 88H365.902C376.302 88 383.982 82.4 387.742 72L402.302 32C404.222 26.8 402.462 24 397.262 24H379.662C374.462 24 370.622 26.8 368.702 32L352.382 76.8C351.662 78.88 350.142 80 348.062 80H346.462C344.382 80 343.662 78.88 344.382 76.8L360.702 32C362.622 26.8 360.862 24 355.662 24ZM397.905 88H415.505C420.705 88 424.545 85.2 426.465 80L429.665 71.2H447.665C458.065 71.2 465.665 65.6 469.505 55.2L475.025 40C478.785 29.6 475.265 24 464.865 24H421.265C416.065 24 412.225 26.8 410.305 32L392.865 80C390.945 85.2 392.705 88 397.905 88ZM433.745 59.92L433.985 59.28C434.625 57.44 436.625 56 438.465 56H454.145C455.985 56 456.865 57.44 456.225 59.28L455.985 59.92C455.345 61.76 453.345 63.2 451.505 63.2H435.825C433.985 63.2 433.105 61.76 433.745 59.92ZM7.28 200H24.88C30.08 200 33.92 197.2 35.84 192L43.04 172.16H51.04L43.84 192C41.92 197.2 43.68 200 48.88 200H66.48C71.68 200 75.52 197.2 77.44 192L94.88 144C96.8 138.8 95.04 136 89.84 136H72.24C67.04 136 63.2 138.8 61.28 144L53.92 164.16H45.92L53.28 144C55.2 138.8 53.44 136 48.24 136H30.64C25.44 136 21.6 138.8 19.68 144L2.24 192C0.32 197.2 2.08 200 7.28 200ZM90.5613 200H143.761C148.961 200 152.801 197.2 154.721 192L160.241 176.8C162.161 171.6 160.321 168.8 155.121 168.8H127.521L130.721 160H152.721C154.801 160 156.321 158.88 157.121 156.8L157.681 155.2C158.481 153.12 157.761 152 155.681 152H133.681L136.561 144H165.761C167.841 144 169.361 142.88 170.161 140.8L170.721 139.2C171.441 137.12 170.801 136 168.721 136H113.921C108.721 136 104.881 138.8 102.961 144L85.5212 192C83.6012 197.2 85.3612 200 90.5613 200ZM167.827 200H185.427C190.627 200 194.467 197.2 196.387 192L203.587 172.16H211.587L207.267 184C203.507 194.4 207.027 200 217.427 200H225.427C230.627 200 234.467 197.2 236.387 192L238.627 185.76C240.547 180.56 238.787 177.76 233.587 177.76H220.787C218.707 177.76 217.987 176.64 218.707 174.56L219.587 172.16H229.747C239.827 172.16 245.427 167.04 250.227 153.92C254.947 140.88 252.467 136 240.787 136H191.187C185.987 136 182.147 138.8 180.227 144L162.787 192C160.867 197.2 162.627 200 167.827 200ZM207.667 160.96L212.707 147.2C213.427 145.12 214.947 144 217.027 144H218.627C220.707 144 221.427 145.12 220.707 147.2L215.667 160.96C214.947 163.04 213.347 164.16 211.267 164.16H209.667C207.587 164.16 206.947 163.04 207.667 160.96ZM249.546 200H302.746C307.946 200 311.786 197.2 313.706 192L319.226 176.8C321.146 171.6 319.306 168.8 314.106 168.8H286.506L289.706 160H311.706C313.786 160 315.306 158.88 316.106 156.8L316.666 155.2C317.466 153.12 316.746 152 314.666 152H292.666L295.546 144H324.746C326.826 144 328.346 142.88 329.146 140.8L329.706 139.2C330.426 137.12 329.786 136 327.706 136H272.906C267.706 136 263.866 138.8 261.946 144L244.506 192C242.586 197.2 244.346 200 249.546 200Z" fill="white"/>
<path d="M80.24 72L83.0613 73.02L83.0627 73.0162L80.24 72ZM81.68 68L78.8657 66.9609L78.8615 66.9723L78.8573 66.9838L81.68 68ZM47.12 48.8L49.92 49.8769L49.9294 49.8525L49.9384 49.8279L47.12 48.8ZM52.08 35.2L54.8984 36.2279L54.9069 36.2047L54.915 36.1813L52.08 35.2ZM60.08 35.2L62.889 36.2534L62.9024 36.2175L62.915 36.1813L60.08 35.2ZM58.88 38.4L56.071 37.3466L56.0683 37.3537L56.0657 37.3609L58.88 38.4ZM92.48 38.4L95.2943 39.4391L95.2974 39.4308L95.3004 39.4224L92.48 38.4ZM94.8 32L91.9857 30.9609L91.9826 30.9692L91.9796 30.9776L94.8 32ZM16.72 40L13.8987 38.98L13.8973 38.9838L16.72 40ZM15.28 44L18.0943 45.0391L18.0985 45.0277L18.1027 45.0162L15.28 44ZM49.84 63.2L47.04 62.1231L47.0306 62.1475L47.0216 62.1721L49.84 63.2ZM44.88 76.8L42.0616 75.7721L42.0531 75.7953L42.045 75.8187L44.88 76.8ZM36.88 76.8L34.071 75.7466L34.0576 75.7825L34.045 75.8187L36.88 76.8ZM38.08 73.6L40.889 74.6534L40.8917 74.6463L40.8943 74.6391L38.08 73.6ZM4.48 73.6L1.66571 72.5609L1.66263 72.5692L1.65959 72.5776L4.48 73.6ZM2.16 80L4.97429 81.0391L4.97737 81.0308L4.98041 81.0224L2.16 80ZM7.2 91H58.4V85H7.2V91ZM58.4 91C64.1582 91 69.3173 89.4412 73.5815 86.3211C77.8356 83.2083 81.0163 78.6763 83.0613 73.02L77.4187 70.98C75.7037 75.7237 73.1644 79.1917 70.0385 81.4789C66.9227 83.7588 63.0418 85 58.4 85V91ZM83.0627 73.0162L84.5027 69.0162L78.8573 66.9838L77.4173 70.9838L83.0627 73.0162ZM84.4943 69.0391C86.5183 63.5575 86.9586 58.3944 84.4702 54.4882C81.9277 50.497 77.1087 49 71.52 49V55C76.3313 55 78.5123 56.303 79.4098 57.7118C80.3614 59.2056 80.6817 62.0425 78.8657 66.9609L84.4943 69.0391ZM71.52 49H49.12V55H71.52V49ZM49.12 49C48.8461 49 48.8127 48.96 48.9213 49.0029C49.0629 49.059 49.3542 49.225 49.5787 49.5816C49.7951 49.9253 49.8029 50.2134 49.801 50.2718C49.7998 50.3104 49.7989 50.1919 49.92 49.8769L44.32 47.7231C43.8132 49.0407 43.3904 51.014 44.5013 52.7784C45.6646 54.626 47.6982 55 49.12 55V49ZM49.9384 49.8279L54.8984 36.2279L49.2616 34.1721L44.3016 47.7721L49.9384 49.8279ZM54.915 36.1813C55.1144 35.6051 55.3552 35.3494 55.5141 35.2318C55.6635 35.1214 55.9175 35 56.4 35V29C54.8025 29 53.2565 29.4386 51.9459 30.4082C50.6448 31.3706 49.7656 32.7149 49.245 34.2187L54.915 36.1813ZM56.4 35H58V29H56.4V35ZM58 35C58.2728 35 58.3081 35.0397 58.2034 34.9984C58.0658 34.9442 57.7893 34.7862 57.5725 34.4517C57.3644 34.1305 57.3511 33.8622 57.3513 33.8131C57.3514 33.7828 57.3539 33.9042 57.245 34.2187L62.915 36.1813C63.3742 34.8546 63.7216 32.9073 62.6075 31.1883C61.4363 29.3815 59.4388 29 58 29V35ZM57.271 34.1466L56.071 37.3466L61.689 39.4534L62.889 36.2534L57.271 34.1466ZM56.0657 37.3609C54.9977 40.2533 54.602 43.4205 56.2483 45.9751C57.9418 48.6029 61.01 49.4 64 49.4V43.4C61.79 43.4 61.3383 42.7971 61.2917 42.7249C61.198 42.5795 60.8423 41.7467 61.6943 39.4391L56.0657 37.3609ZM64 49.4H81.6V43.4H64V49.4ZM81.6 49.4C84.7612 49.4 87.6444 48.5395 90.051 46.7642C92.4427 44.9998 94.1742 42.4726 95.2943 39.4391L89.6657 37.3609C88.8658 39.5274 87.7573 41.0002 86.4891 41.9358C85.2356 42.8605 83.6388 43.4 81.6 43.4V49.4ZM95.3004 39.4224L97.6204 33.0224L91.9796 30.9776L89.6596 37.3776L95.3004 39.4224ZM97.6143 33.0391C98.6743 30.1683 99.0991 27.0093 97.4887 24.4516C95.8172 21.7969 92.7473 21 89.76 21V27C91.9727 27 92.3828 27.6031 92.4113 27.6484C92.5009 27.7907 92.8457 28.6317 91.9857 30.9609L97.6143 33.0391ZM89.76 21H38.56V27H89.76V21ZM38.56 21C32.8018 21 27.6427 22.5588 23.3785 25.6789C19.1244 28.7917 15.9437 33.3237 13.8987 38.98L19.5413 41.02C21.2563 36.2763 23.7956 32.8083 26.9215 30.5211C30.0373 28.2412 33.9182 27 38.56 27V21ZM13.8973 38.9838L12.4573 42.9838L18.1027 45.0162L19.5427 41.0162L13.8973 38.9838ZM12.4657 42.9609C10.4417 48.4425 10.0014 53.6056 12.4898 57.5118C15.0323 61.503 19.8513 63 25.44 63V57C20.6287 57 18.4477 55.697 17.5502 54.2882C16.5986 52.7944 16.2783 49.9575 18.0943 45.0391L12.4657 42.9609ZM25.44 63H47.84V57H25.44V63ZM47.84 63C48.1139 63 48.1473 63.04 48.0387 62.9971C47.8971 62.941 47.6058 62.775 47.3813 62.4184C47.1649 62.0747 47.1571 61.7866 47.159 61.7282C47.1602 61.6896 47.1611 61.8081 47.04 62.1231L52.64 64.2769C53.1468 62.9593 53.5696 60.986 52.4587 59.2216C51.2954 57.374 49.2618 57 47.84 57V63ZM47.0216 62.1721L42.0616 75.7721L47.6984 77.8279L52.6584 64.2279L47.0216 62.1721ZM42.045 75.8187C41.8456 76.3949 41.6048 76.6506 41.4459 76.7682C41.2965 76.8786 41.0425 77 40.56 77V83C42.1575 83 43.7035 82.5614 45.0141 81.5918C46.3152 80.6294 47.1944 79.2851 47.715 77.7813L42.045 75.8187ZM40.56 77H38.96V83H40.56V77ZM38.96 77C38.6872 77 38.6519 76.9603 38.7566 77.0016C38.8942 77.0558 39.1707 77.2138 39.3875 77.5483C39.5956 77.8695 39.6089 78.1378 39.6087 78.1869C39.6086 78.2172 39.6061 78.0958 39.715 77.7813L34.045 75.8187C33.5858 77.1454 33.2384 79.0927 34.3525 80.8117C35.5237 82.6185 37.5212 83 38.96 83V77ZM39.689 77.8534L40.889 74.6534L35.271 72.5466L34.071 75.7466L39.689 77.8534ZM40.8943 74.6391C41.9623 71.7467 42.358 68.5795 40.7117 66.0249C39.0183 63.3971 35.95 62.6 32.96 62.6V68.6C35.17 68.6 35.6217 69.2029 35.6683 69.2751C35.762 69.4205 36.1177 70.2533 35.2657 72.5609L40.8943 74.6391ZM32.96 62.6H15.36V68.6H32.96V62.6ZM15.36 62.6C12.1988 62.6 9.31556 63.4605 6.90905 65.2358C4.51731 67.0002 2.78576 69.5274 1.66571 72.5609L7.29429 74.6391C8.09424 72.4726 9.20269 70.9998 10.4709 70.0642C11.7244 69.1395 13.3212 68.6 15.36 68.6V62.6ZM1.65959 72.5776L-0.660408 78.9776L4.98041 81.0224L7.30041 74.6224L1.65959 72.5776ZM-0.65429 78.9609C-1.71428 81.8317 -2.13911 84.9907 -0.528699 87.5484C1.14276 90.2031 4.21271 91 7.2 91V85C4.98729 85 4.57724 84.3969 4.5487 84.3516C4.45911 84.2093 4.11428 83.3683 4.97429 81.0391L-0.65429 78.9609ZM119.043 80L121.857 81.0391L121.86 81.0318L121.863 81.0245L119.043 80ZM136.483 32L133.669 30.9609L133.666 30.9682L133.663 30.9755L136.483 32ZM102.883 32L100.069 30.9609L100.066 30.9682L100.063 30.9755L102.883 32ZM85.4431 80L88.2574 81.0391L88.2601 81.0318L88.2628 81.0245L85.4431 80ZM90.4831 91H108.083V85H90.4831V91ZM108.083 91C111.242 91 114.139 90.1408 116.562 88.3734C118.972 86.6141 120.732 84.0878 121.857 81.0391L116.229 78.9609C115.435 81.1122 114.314 82.5859 113.025 83.5266C111.747 84.4592 110.124 85 108.083 85V91ZM121.863 81.0245L139.303 33.0245L133.663 30.9755L116.223 78.9755L121.863 81.0245ZM139.297 33.0391C140.357 30.1683 140.782 27.0093 139.172 24.4516C137.5 21.7969 134.43 21 131.443 21V27C133.656 27 134.066 27.6031 134.094 27.6484C134.184 27.7907 134.529 28.6317 133.669 30.9609L139.297 33.0391ZM131.443 21H113.843V27H131.443V21ZM113.843 21C110.684 21 107.787 21.8592 105.365 23.6266C102.954 25.3859 101.195 27.9122 100.069 30.9609L105.697 33.0391C106.492 30.8878 107.612 29.4141 108.902 28.4734C110.179 27.5408 111.802 27 113.843 27V21ZM100.063 30.9755L82.6235 78.9755L88.2628 81.0245L105.703 33.0245L100.063 30.9755ZM82.6288 78.9609C81.5688 81.8317 81.144 84.9907 82.7544 87.5484C84.4259 90.2031 87.4958 91 90.4831 91V85C88.2704 85 87.8604 84.3969 87.8318 84.3516C87.7422 84.2093 87.3974 83.3683 88.2574 81.0391L82.6288 78.9609ZM205.242 72L202.425 70.9672L202.421 70.98L205.242 72ZM207.002 67.2L204.188 66.1609L204.185 66.1672L207.002 67.2ZM170.762 62.4L173.593 63.3911L173.597 63.3813L170.762 62.4ZM170.202 64L173.002 65.0769L173.018 65.0342L173.033 64.991L170.202 64ZM173.402 67.2L176.219 68.2328L177.697 64.2H173.402V67.2ZM169.882 76.8L167.065 75.7672L167.056 75.7929L167.047 75.8187L169.882 76.8ZM161.882 76.8L159.064 75.7704L159.055 75.7945L159.047 75.8187L161.882 76.8ZM177.082 35.2L179.9 36.2296L179.908 36.2055L179.917 36.1813L177.082 35.2ZM185.082 35.2L187.901 36.2252L187.909 36.2033L187.917 36.1813L185.082 35.2ZM181.882 44L184.696 45.0391L184.699 45.0322L184.701 45.0252L181.882 44ZM215.482 44L218.296 45.0391L218.299 45.0301L218.303 45.0211L215.482 44ZM138.762 48L135.943 46.9736L135.939 46.9838L138.762 48ZM133.002 64L135.821 65.0264L135.825 65.0162L133.002 64ZM148.202 91H183.402V85H148.202V91ZM183.402 91C189.16 91 194.319 89.4412 198.583 86.3211C202.837 83.2083 206.018 78.6763 208.063 73.02L202.421 70.98C200.706 75.7237 198.166 79.1917 195.04 81.4789C191.925 83.7588 188.044 85 183.402 85V91ZM208.059 73.0328L209.819 68.2328L204.185 66.1672L202.425 70.9672L208.059 73.0328ZM209.816 68.2391C210.884 65.3467 211.28 62.1795 209.634 59.6249C207.94 56.9971 204.872 56.2 201.882 56.2V62.2C204.092 62.2 204.544 62.8029 204.59 62.8751C204.684 63.0205 205.04 63.8533 204.188 66.1609L209.816 68.2391ZM201.882 56.2H175.082V62.2H201.882V56.2ZM175.082 56.2C173.484 56.2 171.938 56.6386 170.628 57.6082C169.327 58.5706 168.447 59.9149 167.927 61.4187L173.597 63.3813C173.796 62.8051 174.037 62.5494 174.196 62.4318C174.345 62.3214 174.599 62.2 175.082 62.2V56.2ZM167.93 61.409L167.37 63.009L173.033 64.991L173.593 63.391L167.93 61.409ZM167.402 62.9231C166.895 64.2407 166.472 66.214 167.583 67.9784C168.746 69.826 170.78 70.2 172.202 70.2V64.2C171.928 64.2 171.895 64.16 172.003 64.2029C172.145 64.259 172.436 64.425 172.661 64.7816C172.877 65.1253 172.885 65.4134 172.883 65.4718C172.882 65.5104 172.881 65.3919 173.002 65.0769L167.402 62.9231ZM172.202 70.2H173.402V64.2H172.202V70.2ZM170.585 66.1672L167.065 75.7672L172.699 77.8328L176.219 68.2328L170.585 66.1672ZM167.047 75.8187C166.847 76.3949 166.607 76.6506 166.448 76.7682C166.298 76.8786 166.044 77 165.562 77V83C167.159 83 168.705 82.5614 170.016 81.5918C171.317 80.6294 172.196 79.2851 172.717 77.7813L167.047 75.8187ZM165.562 77H163.962V83H165.562V77ZM163.962 77C163.689 77 163.654 76.9603 163.758 77.0016C163.896 77.0558 164.173 77.2138 164.389 77.5483C164.598 77.8695 164.611 78.1378 164.611 78.1869C164.611 78.2172 164.608 78.0958 164.717 77.7813L159.047 75.8187C158.588 77.1454 158.24 79.0927 159.354 80.8117C160.526 82.6185 162.523 83 163.962 83V77ZM164.7 77.8296L179.9 36.2296L174.264 34.1704L159.064 75.7704L164.7 77.8296ZM179.917 36.1813C180.116 35.6051 180.357 35.3494 180.516 35.2318C180.665 35.1214 180.919 35 181.402 35V29C179.804 29 178.258 29.4386 176.948 30.4082C175.647 31.3706 174.767 32.7149 174.247 34.2187L179.917 36.1813ZM181.402 35H183.002V29H181.402V35ZM183.002 35C183.275 35 183.31 35.0397 183.205 34.9984C183.068 34.9442 182.791 34.7862 182.574 34.4517C182.366 34.1305 182.353 33.8622 182.353 33.8131C182.353 33.7828 182.356 33.9042 182.247 34.2187L187.917 36.1813C188.376 34.8546 188.723 32.9073 187.609 31.1883C186.438 29.3815 184.441 29 183.002 29V35ZM182.262 34.1748L179.062 42.9748L184.701 45.0252L187.901 36.2252L182.262 34.1748ZM179.068 42.9609C178.008 45.8317 177.583 48.9907 179.193 51.5484C180.865 54.2031 183.935 55 186.922 55V49C184.709 49 184.299 48.3969 184.271 48.3516C184.181 48.2093 183.836 47.3683 184.696 45.0391L179.068 42.9609ZM186.922 55H204.522V49H186.922V55ZM204.522 55C207.681 55 210.578 54.1408 213 52.3734C215.411 50.6141 217.17 48.0878 218.296 45.0391L212.668 42.9609C211.873 45.1122 210.753 46.5859 209.463 47.5266C208.186 48.4592 206.563 49 204.522 49V55ZM218.303 45.0211C220.812 38.0884 220.874 31.7633 217.043 27.1847C213.344 22.7646 206.818 21 198.762 21V27C206.306 27 210.5 28.7154 212.441 31.0352C214.25 33.1967 214.872 36.8716 212.661 42.9789L218.303 45.0211ZM198.762 21H171.562V27H198.762V21ZM171.562 21C163.203 21 155.785 23.2589 149.671 27.7281C143.568 32.1897 138.948 38.7199 135.943 46.9736L141.581 49.0264C144.256 41.6801 148.235 36.2103 153.212 32.5719C158.179 28.9411 164.32 27 171.562 27V21ZM135.939 46.9838L130.179 62.9838L135.825 65.0162L141.585 49.0162L135.939 46.9838ZM130.183 62.9736C127.244 71.0456 126.766 78.2012 130.086 83.4529C133.467 88.8021 140.012 91 148.202 91V85C140.791 85 136.897 82.9979 135.158 80.2471C133.357 77.3988 133.08 72.5544 135.821 65.0264L130.183 62.9736ZM243.963 80L246.777 81.0391L246.782 81.0268L243.963 80ZM260.283 35.2L263.102 36.2268L263.11 36.2042L263.118 36.1813L260.283 35.2ZM268.283 35.2L271.102 36.2268L271.11 36.2042L271.118 36.1813L268.283 35.2ZM251.963 80L254.777 81.0391L254.782 81.0268L251.963 80ZM285.563 80L288.377 81.0391L288.382 81.0261L285.563 80ZM300.123 40L302.942 41.0261L302.944 41.02L300.123 40ZM224.923 40L227.742 41.0261L227.744 41.02L224.923 40ZM210.363 80L213.177 81.0391L213.182 81.0261L210.363 80ZM215.403 91H233.003V85H215.403V91ZM233.003 91C236.162 91 239.059 90.1408 241.482 88.3734C243.892 86.6141 245.652 84.0878 246.777 81.0391L241.149 78.9609C240.355 81.1122 239.234 82.5859 237.945 83.5266C236.667 84.4592 235.044 85 233.003 85V91ZM246.782 81.0268L263.102 36.2268L257.464 34.1732L241.144 78.9732L246.782 81.0268ZM263.118 36.1813C263.318 35.6051 263.558 35.3494 263.717 35.2318C263.867 35.1214 264.121 35 264.603 35V29C263.006 29 261.46 29.4386 260.149 30.4082C258.848 31.3706 257.969 32.7149 257.448 34.2187L263.118 36.1813ZM264.603 35H266.203V29H264.603V35ZM266.203 35C266.476 35 266.511 35.0397 266.407 34.9984C266.269 34.9442 265.992 34.7862 265.776 34.4517C265.567 34.1305 265.554 33.8622 265.554 33.8131C265.554 33.7828 265.557 33.9042 265.448 34.2187L271.118 36.1813C271.577 34.8546 271.925 32.9073 270.811 31.1883C269.639 29.3815 267.642 29 266.203 29V35ZM265.464 34.1732L249.144 78.9732L254.782 81.0268L271.102 36.2268L265.464 34.1732ZM249.149 78.9609C248.089 81.8317 247.664 84.9907 249.274 87.5484C250.946 90.2031 254.016 91 257.003 91V85C254.79 85 254.38 84.3969 254.352 84.3516C254.262 84.2093 253.917 83.3683 254.777 81.0391L249.149 78.9609ZM257.003 91H274.603V85H257.003V91ZM274.603 91C277.762 91 280.659 90.1408 283.082 88.3734C285.492 86.6141 287.252 84.0878 288.377 81.0391L282.749 78.9609C281.955 81.1122 280.834 82.5859 279.545 83.5266C278.267 84.4592 276.644 85 274.603 85V91ZM288.382 81.0261L302.942 41.0261L297.304 38.9739L282.744 78.9739L288.382 81.0261ZM302.944 41.02C304.923 35.5474 305.357 30.3935 302.888 26.4948C300.357 22.4984 295.554 21 289.963 21V27C294.772 27 296.93 28.3016 297.819 29.7052C298.77 31.2065 299.083 34.0526 297.302 38.98L302.944 41.02ZM289.963 21H246.763V27H289.963V21ZM246.763 21C241.005 21 235.846 22.5588 231.582 25.6789C227.328 28.7917 224.147 33.3237 222.102 38.98L227.744 41.02C229.459 36.2763 231.999 32.8083 235.125 30.5211C238.24 28.2412 242.121 27 246.763 27V21ZM222.104 38.9739L207.544 78.9739L213.182 81.0261L227.742 41.0261L222.104 38.9739ZM207.549 78.9609C206.489 81.8317 206.064 84.9907 207.674 87.5484C209.346 90.2031 212.416 91 215.403 91V85C213.19 85 212.78 84.3969 212.752 84.3516C212.662 84.2093 212.317 83.3683 213.177 81.0391L207.549 78.9609ZM327.102 32L324.288 30.9609L324.283 30.9739L327.102 32ZM312.542 72L309.723 70.9739L309.721 70.98L312.542 72ZM387.742 72L384.923 70.9739L384.921 70.98L387.742 72ZM402.302 32L399.488 30.9609L399.483 30.9739L402.302 32ZM368.702 32L365.888 30.9609L365.883 30.9732L368.702 32ZM352.382 76.8L349.563 75.7732L349.555 75.7958L349.547 75.8187L352.382 76.8ZM344.382 76.8L341.563 75.7732L341.555 75.7958L341.547 75.8187L344.382 76.8ZM360.702 32L357.888 30.9609L357.883 30.9732L360.702 32ZM355.662 21H338.062V27H355.662V21ZM338.062 21C334.903 21 332.006 21.8592 329.583 23.6266C327.173 25.3859 325.413 27.9122 324.288 30.9609L329.916 33.0391C330.71 30.8878 331.831 29.4141 333.12 28.4734C334.398 27.5408 336.021 27 338.062 27V21ZM324.283 30.9739L309.723 70.9739L315.361 73.0261L329.921 33.0261L324.283 30.9739ZM309.721 70.98C307.742 76.4526 307.308 81.6065 309.777 85.5052C312.309 89.5016 317.111 91 322.702 91V85C317.893 85 315.735 83.6984 314.846 82.2948C313.895 80.7935 313.582 77.9474 315.363 73.02L309.721 70.98ZM322.702 91H365.902V85H322.702V91ZM365.902 91C371.66 91 376.819 89.4412 381.083 86.3211C385.337 83.2083 388.518 78.6763 390.563 73.02L384.921 70.98C383.206 75.7237 380.666 79.1917 377.54 81.4789C374.425 83.7588 370.544 85 365.902 85V91ZM390.561 73.0261L405.121 33.0261L399.483 30.9739L384.923 70.9739L390.561 73.0261ZM405.116 33.0391C406.176 30.1683 406.601 27.0093 404.991 24.4516C403.319 21.7969 400.249 21 397.262 21V27C399.475 27 399.885 27.6031 399.913 27.6484C400.003 27.7907 400.348 28.6317 399.488 30.9609L405.116 33.0391ZM397.262 21H379.662V27H397.262V21ZM379.662 21C376.503 21 373.606 21.8592 371.183 23.6266C368.773 25.3859 367.013 27.9122 365.888 30.9609L371.516 33.0391C372.31 30.8878 373.431 29.4141 374.72 28.4734C375.998 27.5408 377.621 27 379.662 27V21ZM365.883 30.9732L349.563 75.7732L355.201 77.8268L371.521 33.0268L365.883 30.9732ZM349.547 75.8187C349.347 76.3949 349.107 76.6506 348.948 76.7682C348.798 76.8786 348.544 77 348.062 77V83C349.659 83 351.205 82.5614 352.516 81.5918C353.817 80.6294 354.696 79.2851 355.217 77.7813L349.547 75.8187ZM348.062 77H346.462V83H348.062V77ZM346.462 77C346.189 77 346.154 76.9603 346.258 77.0016C346.396 77.0558 346.673 77.2138 346.889 77.5483C347.098 77.8695 347.111 78.1378 347.111 78.1869C347.111 78.2172 347.108 78.0958 347.217 77.7813L341.547 75.8187C341.088 77.1454 340.74 79.0927 341.854 80.8117C343.026 82.6185 345.023 83 346.462 83V77ZM347.201 77.8268L363.521 33.0268L357.883 30.9732L341.563 75.7732L347.201 77.8268ZM363.516 33.0391C364.576 30.1683 365.001 27.0093 363.391 24.4516C361.719 21.7969 358.649 21 355.662 21V27C357.875 27 358.285 27.6031 358.313 27.6484C358.403 27.7907 358.748 28.6317 357.888 30.9609L363.516 33.0391ZM426.465 80L429.279 81.0391L429.282 81.0322L429.284 81.0252L426.465 80ZM429.665 71.2V68.2H427.564L426.846 70.1748L429.665 71.2ZM469.505 55.2L472.319 56.2391L472.322 56.2316L472.325 56.224L469.505 55.2ZM475.025 40L477.845 41.024L477.846 41.02L475.025 40ZM410.305 32L407.491 30.9609L407.488 30.9682L407.485 30.9755L410.305 32ZM392.865 80L395.679 81.0391L395.682 81.0318L395.685 81.0245L392.865 80ZM433.745 59.92L430.936 58.8666L430.923 58.9004L430.912 58.9344L433.745 59.92ZM433.985 59.28L436.794 60.3334L436.807 60.2996L436.818 60.2656L433.985 59.28ZM456.225 59.28L459.034 60.3334L459.047 60.2996L459.058 60.2656L456.225 59.28ZM455.985 59.92L453.176 58.8666L453.163 58.9004L453.152 58.9344L455.985 59.92ZM397.905 91H415.505V85H397.905V91ZM415.505 91C418.664 91 421.561 90.1408 423.983 88.3734C426.394 86.6141 428.154 84.0878 429.279 81.0391L423.651 78.9609C422.856 81.1122 421.736 82.5859 420.447 83.5266C419.169 84.4592 417.546 85 415.505 85V91ZM429.284 81.0252L432.484 72.2252L426.846 70.1748L423.646 78.9748L429.284 81.0252ZM429.665 74.2H447.665V68.2H429.665V74.2ZM447.665 74.2C453.425 74.2 458.565 72.6402 462.82 69.5188C467.061 66.407 470.236 61.8802 472.319 56.2391L466.691 54.1609C464.934 58.9198 462.389 62.393 459.27 64.6812C456.165 66.9598 452.305 68.2 447.665 68.2V74.2ZM472.325 56.224L477.845 41.024L472.205 38.976L466.685 54.176L472.325 56.224ZM477.846 41.02C479.825 35.5474 480.259 30.3935 477.789 26.4948C475.258 22.4984 470.456 21 464.865 21V27C469.674 27 471.832 28.3016 472.721 29.7052C473.671 31.2065 473.985 34.0526 472.204 38.98L477.846 41.02ZM464.865 21H421.265V27H464.865V21ZM421.265 21C418.106 21 415.209 21.8592 412.787 23.6266C410.376 25.3859 408.616 27.9122 407.491 30.9609L413.119 33.0391C413.914 30.8878 415.034 29.4141 416.323 28.4734C417.601 27.5408 419.224 27 421.265 27V21ZM407.485 30.9755L390.045 78.9755L395.685 81.0245L413.125 33.0245L407.485 30.9755ZM390.051 78.9609C388.991 81.8317 388.566 84.9907 390.176 87.5484C391.848 90.2031 394.918 91 397.905 91V85C395.692 85 395.282 84.3969 395.254 84.3516C395.164 84.2093 394.819 83.3683 395.679 81.0391L390.051 78.9609ZM436.554 60.9734L436.794 60.3334L431.176 58.2266L430.936 58.8666L436.554 60.9734ZM436.818 60.2656C436.907 60.0107 437.144 59.664 437.541 59.3749C437.944 59.0814 438.299 59 438.465 59V53C436.791 53 435.226 53.6386 434.009 54.5251C432.786 55.416 431.703 56.7093 431.152 58.2944L436.818 60.2656ZM438.465 59H454.145V53H438.465V59ZM454.145 59C454.215 59 454.149 59.0132 454.007 58.9431C453.855 58.868 453.692 58.7327 453.573 58.5439C453.33 58.1556 453.503 57.9728 453.392 58.2944L459.058 60.2656C459.587 58.7472 459.64 56.9244 458.657 55.3561C457.63 53.7197 455.878 53 454.145 53V59ZM453.416 58.2266L453.176 58.8666L458.794 60.9734L459.034 60.3334L453.416 58.2266ZM453.152 58.9344C453.063 59.1893 452.826 59.536 452.429 59.8251C452.026 60.1186 451.671 60.2 451.505 60.2V66.2C453.179 66.2 454.744 65.5614 455.961 64.6749C457.184 63.784 458.267 62.4907 458.818 60.9056L453.152 58.9344ZM451.505 60.2H435.825V66.2H451.505V60.2ZM435.825 60.2C435.755 60.2 435.821 60.1868 435.963 60.2569C436.115 60.332 436.278 60.4673 436.397 60.6561C436.64 61.0444 436.467 61.2272 436.578 60.9056L430.912 58.9344C430.383 60.4528 430.33 62.2756 431.313 63.8439C432.34 65.4803 434.092 66.2 435.825 66.2V60.2ZM35.84 192L38.6543 193.039L38.6572 193.031L38.66 193.023L35.84 192ZM43.04 172.16V169.16H40.9373L40.22 171.137L43.04 172.16ZM51.04 172.16L53.86 173.183L55.3201 169.16H51.04V172.16ZM43.84 192L46.6543 193.039L46.6572 193.031L46.66 193.023L43.84 192ZM77.44 192L80.2543 193.039L80.257 193.032L80.2597 193.024L77.44 192ZM94.88 144L92.0657 142.961L92.063 142.968L92.0603 142.976L94.88 144ZM61.28 144L58.4657 142.961L58.4619 142.971L61.28 144ZM53.92 164.16V167.16H56.0184L56.7381 165.189L53.92 164.16ZM45.92 164.16L43.1019 163.131L41.6311 167.16H45.92V164.16ZM53.28 144L50.4657 142.961L50.4619 142.971L53.28 144ZM19.68 144L16.8657 142.961L16.863 142.968L16.8603 142.976L19.68 144ZM2.24 192L5.05429 193.039L5.05699 193.032L5.05965 193.024L2.24 192ZM7.28 203H24.88V197H7.28V203ZM24.88 203C28.0391 203 30.9363 202.141 33.3584 200.373C35.7693 198.614 37.5286 196.088 38.6543 193.039L33.0257 190.961C32.2314 193.112 31.1107 194.586 29.8216 195.527C28.5437 196.459 26.9209 197 24.88 197V203ZM38.66 193.023L45.86 173.183L40.22 171.137L33.02 190.977L38.66 193.023ZM43.04 175.16H51.04V169.16H43.04V175.16ZM48.22 171.137L41.02 190.977L46.66 193.023L53.86 173.183L48.22 171.137ZM41.0257 190.961C39.9657 193.832 39.5409 196.991 41.1513 199.548C42.8228 202.203 45.8927 203 48.88 203V197C46.6673 197 46.2572 196.397 46.2287 196.352C46.1391 196.209 45.7943 195.368 46.6543 193.039L41.0257 190.961ZM48.88 203H66.48V197H48.88V203ZM66.48 203C69.6391 203 72.5363 202.141 74.9584 200.373C77.3693 198.614 79.1286 196.088 80.2543 193.039L74.6257 190.961C73.8314 193.112 72.7107 194.586 71.4216 195.527C70.1437 196.459 68.5209 197 66.48 197V203ZM80.2597 193.024L97.6997 145.024L92.0603 142.976L74.6203 190.976L80.2597 193.024ZM97.6943 145.039C98.7543 142.168 99.1791 139.009 97.5687 136.452C95.8972 133.797 92.8273 133 89.84 133V139C92.0527 139 92.4628 139.603 92.4913 139.648C92.5809 139.791 92.9257 140.632 92.0657 142.961L97.6943 145.039ZM89.84 133H72.24V139H89.84V133ZM72.24 133C69.0809 133 66.1837 133.859 63.7616 135.627C61.3507 137.386 59.5914 139.912 58.4657 142.961L64.0943 145.039C64.8886 142.888 66.0093 141.414 67.2984 140.473C68.5763 139.541 70.1991 139 72.24 139V133ZM58.4619 142.971L51.1019 163.131L56.7381 165.189L64.0981 145.029L58.4619 142.971ZM53.92 161.16H45.92V167.16H53.92V161.16ZM48.7381 165.189L56.0981 145.029L50.4619 142.971L43.1019 163.131L48.7381 165.189ZM56.0943 145.039C57.1543 142.168 57.5791 139.009 55.9687 136.452C54.2972 133.797 51.2273 133 48.24 133V139C50.4527 139 50.8628 139.603 50.8913 139.648C50.9809 139.791 51.3257 140.632 50.4657 142.961L56.0943 145.039ZM48.24 133H30.64V139H48.24V133ZM30.64 133C27.4809 133 24.5837 133.859 22.1616 135.627C19.7507 137.386 17.9914 139.912 16.8657 142.961L22.4943 145.039C23.2886 142.888 24.4093 141.414 25.6984 140.473C26.9763 139.541 28.5991 139 30.64 139V133ZM16.8603 142.976L-0.579655 190.976L5.05965 193.024L22.4997 145.024L16.8603 142.976ZM-0.57429 190.961C-1.63428 193.832 -2.05911 196.991 -0.448699 199.548C1.22276 202.203 4.29271 203 7.28 203V197C5.06729 197 4.65724 196.397 4.6287 196.352C4.53911 196.209 4.19428 195.368 5.05429 193.039L-0.57429 190.961ZM154.721 192L157.536 193.039L157.538 193.032L157.541 193.024L154.721 192ZM160.241 176.8L157.427 175.761L157.424 175.768L157.421 175.776L160.241 176.8ZM127.521 168.8L124.702 167.775L123.238 171.8H127.521V168.8ZM130.721 160V157H128.62L127.902 158.975L130.721 160ZM157.121 156.8L159.921 157.877L159.938 157.834L159.953 157.791L157.121 156.8ZM157.681 155.2L154.881 154.123L154.865 154.166L154.85 154.209L157.681 155.2ZM133.681 152L130.859 150.984L129.413 155H133.681V152ZM136.561 144V141H134.453L133.739 142.984L136.561 144ZM170.161 140.8L172.961 141.877L172.978 141.834L172.993 141.791L170.161 140.8ZM170.721 139.2L173.553 140.191L173.556 140.181L170.721 139.2ZM102.961 144L100.147 142.961L100.144 142.968L100.142 142.976L102.961 144ZM85.5212 192L88.3355 193.039L88.3382 193.032L88.3409 193.024L85.5212 192ZM90.5613 203H143.761V197H90.5613V203ZM143.761 203C146.92 203 149.818 202.141 152.24 200.373C154.651 198.614 156.41 196.088 157.536 193.039L151.907 190.961C151.113 193.112 149.992 194.586 148.703 195.527C147.425 196.459 145.802 197 143.761 197V203ZM157.541 193.024L163.061 177.824L157.421 175.776L151.901 190.976L157.541 193.024ZM163.056 177.839C164.124 174.947 164.519 171.779 162.873 169.225C161.18 166.597 158.111 165.8 155.121 165.8V171.8C157.331 171.8 157.783 172.403 157.83 172.475C157.923 172.621 158.279 173.453 157.427 175.761L163.056 177.839ZM155.121 165.8H127.521V171.8H155.121V165.8ZM130.341 169.825L133.541 161.025L127.902 158.975L124.702 167.775L130.341 169.825ZM130.721 163H152.721V157H130.721V163ZM152.721 163C154.323 163 155.86 162.559 157.17 161.603C158.465 160.658 159.357 159.343 159.921 157.877L154.321 155.723C154.085 156.337 153.818 156.622 153.633 156.757C153.463 156.881 153.199 157 152.721 157V163ZM159.953 157.791L160.513 156.191L154.85 154.209L154.29 155.809L159.953 157.791ZM160.481 156.277C160.988 154.959 161.411 152.986 160.3 151.222C159.137 149.374 157.103 149 155.681 149V155C155.955 155 155.989 155.04 155.88 154.997C155.738 154.941 155.447 154.775 155.223 154.418C155.006 154.075 154.998 153.787 155 153.728C155.001 153.69 155.002 153.808 154.881 154.123L160.481 156.277ZM155.681 149H133.681V155H155.681V149ZM136.504 153.016L139.384 145.016L133.739 142.984L130.859 150.984L136.504 153.016ZM136.561 147H165.761V141H136.561V147ZM165.761 147C167.363 147 168.9 146.559 170.21 145.603C171.505 144.658 172.397 143.343 172.961 141.877L167.361 139.723C167.125 140.337 166.858 140.622 166.673 140.757C166.503 140.881 166.239 141 165.761 141V147ZM172.993 141.791L173.553 140.191L167.89 138.209L167.33 139.809L172.993 141.791ZM173.556 140.181C173.997 138.909 174.386 136.981 173.331 135.256C172.186 133.381 170.154 133 168.721 133V139C168.997 139 169.016 139.04 168.891 138.99C168.727 138.924 168.431 138.744 168.211 138.384C168.006 138.048 168.005 137.78 168.006 137.756C168.006 137.747 168.001 137.887 167.886 138.219L173.556 140.181ZM168.721 133H113.921V139H168.721V133ZM113.921 133C110.762 133 107.865 133.859 105.443 135.627C103.032 137.386 101.273 139.912 100.147 142.961L105.776 145.039C106.57 142.888 107.691 141.414 108.98 140.473C110.258 139.541 111.88 139 113.921 139V133ZM100.142 142.976L82.7016 190.976L88.3409 193.024L105.781 145.024L100.142 142.976ZM82.707 190.961C81.647 193.832 81.2221 196.991 82.8326 199.548C84.504 202.203 87.574 203 90.5613 203V197C88.3485 197 87.9385 196.397 87.9099 196.352C87.8204 196.209 87.4755 195.368 88.3355 193.039L82.707 190.961ZM196.387 192L199.201 193.039L199.204 193.031L199.207 193.023L196.387 192ZM203.587 172.16V169.16H201.484L200.767 171.137L203.587 172.16ZM211.587 172.16L214.405 173.188L215.875 169.16H211.587V172.16ZM207.267 184L204.449 182.972L204.446 182.98L207.267 184ZM236.387 192L239.201 193.039L239.206 193.026L239.21 193.014L236.387 192ZM238.627 185.76L235.813 184.721L235.808 184.734L235.803 184.746L238.627 185.76ZM218.707 174.56L215.89 173.527L215.881 173.553L215.872 173.579L218.707 174.56ZM219.587 172.16V169.16H217.492L216.77 171.127L219.587 172.16ZM250.227 153.92L253.044 154.951L253.048 154.941L250.227 153.92ZM180.227 144L177.413 142.961L177.41 142.968L177.407 142.976L180.227 144ZM162.787 192L165.601 193.039L165.604 193.032L165.607 193.024L162.787 192ZM207.667 160.96L204.85 159.928L204.841 159.953L204.832 159.979L207.667 160.96ZM212.707 147.2L215.524 148.232L215.533 148.207L215.542 148.181L212.707 147.2ZM220.707 147.2L223.524 148.232L223.533 148.207L223.542 148.181L220.707 147.2ZM215.667 160.96L212.85 159.928L212.841 159.953L212.832 159.979L215.667 160.96ZM167.827 203H185.427V197H167.827V203ZM185.427 203C188.586 203 191.483 202.141 193.905 200.373C196.316 198.614 198.075 196.088 199.201 193.039L193.573 190.961C192.778 193.112 191.658 194.586 190.368 195.527C189.091 196.459 187.468 197 185.427 197V203ZM199.207 193.023L206.407 173.183L200.767 171.137L193.567 190.977L199.207 193.023ZM203.587 175.16H211.587V169.16H203.587V175.16ZM208.769 171.132L204.449 182.972L210.085 185.028L214.405 173.188L208.769 171.132ZM204.446 182.98C202.467 188.453 202.033 193.606 204.502 197.505C207.034 201.502 211.836 203 217.427 203V197C212.618 197 210.46 195.698 209.571 194.295C208.62 192.794 208.307 189.947 210.088 185.02L204.446 182.98ZM217.427 203H225.427V197H217.427V203ZM225.427 203C228.586 203 231.483 202.141 233.905 200.373C236.316 198.614 238.075 196.088 239.201 193.039L233.573 190.961C232.778 193.112 231.658 194.586 230.368 195.527C229.091 196.459 227.468 197 225.427 197V203ZM239.21 193.014L241.45 186.774L235.803 184.746L233.563 190.986L239.21 193.014ZM241.441 186.799C242.501 183.928 242.926 180.769 241.316 178.212C239.644 175.557 236.574 174.76 233.587 174.76V180.76C235.8 180.76 236.21 181.363 236.238 181.408C236.328 181.551 236.673 182.392 235.813 184.721L241.441 186.799ZM233.587 174.76H220.787V180.76H233.587V174.76ZM220.787 174.76C220.514 174.76 220.479 174.72 220.583 174.762C220.721 174.816 220.998 174.974 221.214 175.308C221.423 175.629 221.436 175.898 221.436 175.947C221.436 175.977 221.433 175.856 221.542 175.541L215.872 173.579C215.413 174.905 215.065 176.853 216.179 178.572C217.351 180.379 219.348 180.76 220.787 180.76V174.76ZM221.524 175.593L222.404 173.193L216.77 171.127L215.89 173.527L221.524 175.593ZM219.587 175.16H229.747V169.16H219.587V175.16ZM229.747 175.16C235.355 175.16 240.043 173.71 243.968 170.195C247.773 166.787 250.583 161.679 253.044 154.951L247.41 152.889C245.071 159.281 242.681 163.293 239.965 165.725C237.37 168.05 234.219 169.16 229.747 169.16V175.16ZM253.048 154.941C254.266 151.574 255.083 148.571 255.368 145.943C255.653 143.321 255.436 140.824 254.315 138.68C251.959 134.173 246.705 133 240.787 133V139C246.549 139 248.374 140.267 248.998 141.46C249.368 142.166 249.616 143.334 249.403 145.295C249.191 147.249 248.547 149.746 247.406 152.899L253.048 154.941ZM240.787 133H191.187V139H240.787V133ZM191.187 133C188.028 133 185.131 133.859 182.708 135.627C180.298 137.386 178.538 139.912 177.413 142.961L183.041 145.039C183.835 142.888 184.956 141.414 186.245 140.473C187.523 139.541 189.146 139 191.187 139V133ZM177.407 142.976L159.967 190.976L165.607 193.024L183.047 145.024L177.407 142.976ZM159.973 190.961C158.913 193.832 158.488 196.991 160.098 199.548C161.77 202.203 164.84 203 167.827 203V197C165.614 197 165.204 196.397 165.176 196.352C165.086 196.209 164.741 195.368 165.601 193.039L159.973 190.961ZM210.484 161.992L215.524 148.232L209.89 146.168L204.85 159.928L210.484 161.992ZM215.542 148.181C215.741 147.605 215.982 147.349 216.141 147.232C216.29 147.121 216.544 147 217.027 147V141C215.429 141 213.883 141.439 212.573 142.408C211.272 143.371 210.392 144.715 209.872 146.219L215.542 148.181ZM217.027 147H218.627V141H217.027V147ZM218.627 147C218.9 147 218.935 147.04 218.83 146.998C218.693 146.944 218.416 146.786 218.199 146.452C217.991 146.131 217.978 145.862 217.978 145.813C217.978 145.783 217.981 145.904 217.872 146.219L223.542 148.181C224.001 146.855 224.348 144.907 223.234 143.188C222.063 141.381 220.066 141 218.627 141V147ZM217.89 146.168L212.85 159.928L218.484 161.992L223.524 148.232L217.89 146.168ZM212.832 159.979C212.646 160.516 212.406 160.774 212.224 160.905C212.043 161.035 211.755 161.16 211.267 161.16V167.16C212.859 167.16 214.41 166.725 215.73 165.775C217.048 164.826 217.968 163.484 218.502 161.941L212.832 159.979ZM211.267 161.16H209.667V167.16H211.267V161.16ZM209.667 161.16C209.392 161.16 209.372 161.12 209.497 161.17C209.661 161.236 209.957 161.416 210.177 161.776C210.382 162.112 210.383 162.38 210.382 162.404C210.382 162.413 210.387 162.273 210.502 161.941L204.832 159.979C204.392 161.251 204.002 163.179 205.057 164.904C206.203 166.779 208.235 167.16 209.667 167.16V161.16ZM313.706 192L316.52 193.039L316.523 193.032L316.525 193.024L313.706 192ZM319.226 176.8L316.411 175.761L316.409 175.768L316.406 175.776L319.226 176.8ZM286.506 168.8L283.686 167.775L282.223 171.8H286.506V168.8ZM289.706 160V157H287.604L286.886 158.975L289.706 160ZM316.106 156.8L318.906 157.877L318.922 157.834L318.937 157.791L316.106 156.8ZM316.666 155.2L313.866 154.123L313.849 154.166L313.834 154.209L316.666 155.2ZM292.666 152L289.843 150.984L288.397 155H292.666V152ZM295.546 144V141H293.437L292.723 142.984L295.546 144ZM329.146 140.8L331.946 141.877L331.962 141.834L331.977 141.791L329.146 140.8ZM329.706 139.2L332.537 140.191L332.541 140.181L329.706 139.2ZM261.946 144L259.131 142.961L259.129 142.968L259.126 142.976L261.946 144ZM244.506 192L247.32 193.039L247.323 193.032L247.325 193.024L244.506 192ZM249.546 203H302.746V197H249.546V203ZM302.746 203C305.905 203 308.802 202.141 311.224 200.373C313.635 198.614 315.394 196.088 316.52 193.039L310.891 190.961C310.097 193.112 308.976 194.586 307.687 195.527C306.409 196.459 304.787 197 302.746 197V203ZM316.525 193.024L322.045 177.824L316.406 175.776L310.886 190.976L316.525 193.024ZM322.04 177.839C323.108 174.947 323.504 171.779 321.857 169.225C320.164 166.597 317.096 165.8 314.106 165.8V171.8C316.316 171.8 316.767 172.403 316.814 172.475C316.908 172.621 317.263 173.453 316.411 175.761L322.04 177.839ZM314.106 165.8H286.506V171.8H314.106V165.8ZM289.325 169.825L292.525 161.025L286.886 158.975L283.686 167.775L289.325 169.825ZM289.706 163H311.706V157H289.706V163ZM311.706 163C313.307 163 314.844 162.559 316.154 161.603C317.449 160.658 318.342 159.343 318.906 157.877L313.306 155.723C313.07 156.337 312.802 156.622 312.617 156.757C312.447 156.881 312.184 157 311.706 157V163ZM318.937 157.791L319.497 156.191L313.834 154.209L313.274 155.809L318.937 157.791ZM319.466 156.277C319.972 154.959 320.395 152.986 319.284 151.222C318.121 149.374 316.087 149 314.666 149V155C314.94 155 314.973 155.04 314.864 154.997C314.723 154.941 314.431 154.775 314.207 154.418C313.991 154.075 313.983 153.787 313.985 153.728C313.986 153.69 313.987 153.808 313.866 154.123L319.466 156.277ZM314.666 149H292.666V155H314.666V149ZM295.488 153.016L298.368 145.016L292.723 142.984L289.843 150.984L295.488 153.016ZM295.546 147H324.746V141H295.546V147ZM324.746 147C326.348 147 327.884 146.559 329.194 145.603C330.489 144.658 331.382 143.343 331.946 141.877L326.346 139.723C326.11 140.337 325.842 140.622 325.657 140.757C325.487 140.881 325.224 141 324.746 141V147ZM331.977 141.791L332.537 140.191L326.874 138.209L326.314 139.809L331.977 141.791ZM332.541 140.181C332.981 138.909 333.37 136.981 332.315 135.256C331.17 133.381 329.138 133 327.706 133V139C327.981 139 328.001 139.04 327.876 138.99C327.711 138.924 327.415 138.744 327.196 138.384C326.99 138.048 326.99 137.78 326.99 137.756C326.99 137.747 326.985 137.887 326.871 138.219L332.541 140.181ZM327.706 133H272.906V139H327.706V133ZM272.906 133C269.747 133 266.849 133.859 264.427 135.627C262.016 137.386 260.257 139.912 259.131 142.961L264.76 145.039C265.554 142.888 266.675 141.414 267.964 140.473C269.242 139.541 270.865 139 272.906 139V133ZM259.126 142.976L241.686 190.976L247.325 193.024L264.765 145.024L259.126 142.976ZM241.691 190.961C240.631 193.832 240.207 196.991 241.817 199.548C243.488 202.203 246.558 203 249.546 203V197C247.333 197 246.923 196.397 246.894 196.352C246.805 196.209 246.46 195.368 247.32 193.039L241.691 190.961Z" fill="black"/>
</svg>
