<svg width="254" height="254" viewBox="0 0 254 254" fill="none" xmlns="http://www.w3.org/2000/svg">
<path d="M171.622 152.045C170.191 149.929 172.016 147.3 174.706 147.655C186.983 149.252 199.305 150.593 211.685 151.615C232.817 153.271 254.041 154.285 275.629 153.405C278.989 153.261 279.743 149.062 276.636 147.799C256.657 139.726 236.36 133.554 215.924 128.018C203.935 124.822 191.865 121.942 179.773 119.322C177.121 118.753 176.322 115.67 178.405 114.162C182.045 111.517 185.662 108.868 189.204 106.096C199.643 97.8803 209.824 89.3559 219.323 79.9222C221.645 77.6206 218.846 73.9712 215.638 75.1524C202.591 79.994 190.254 85.7276 178.148 91.7869C174.054 93.8696 170.041 96.0325 166.048 98.2208C163.769 99.4749 160.844 97.7378 161.163 95.2875C162.573 84.0804 163.724 72.8286 164.548 61.5201C165.809 42.2649 166.363 22.9094 164.883 3.17981C164.662 0.108418 159.999 -0.698481 158.72 2.11341C150.453 20.1562 144.229 38.5305 138.703 57.0477C135.513 67.9467 132.674 78.9065 130.116 89.9149C129.562 92.3247 126.208 92.9751 124.504 91.0317C121.514 87.6351 118.497 84.2558 115.375 80.9242C106.111 71.1669 96.5163 61.638 85.9438 52.7093C83.3643 50.5266 79.4424 52.9909 80.8186 55.9545C86.4568 68.0075 93.0529 79.4351 99.9996 90.6597C102.386 94.4573 104.857 98.1819 107.356 101.889C108.788 104.005 106.963 106.634 104.272 106.279C91.9687 104.699 79.6229 103.354 67.2235 102.307C46.1146 100.655 24.9142 99.6454 3.35722 100.487C0.00110351 100.609 -0.761042 104.851 2.34996 106.093C22.3138 114.119 42.5873 120.287 62.9992 125.819C74.9883 129.015 87.0583 131.895 99.1508 134.515C101.803 135.084 102.602 138.167 100.519 139.675C96.8787 142.32 93.2581 144.99 89.7198 147.741C79.253 155.974 69.0448 164.515 59.5385 173.992C57.2163 176.293 60.0194 179.921 63.2236 178.761C76.2936 173.924 88.6814 168.177 100.814 162.101C104.882 160.035 108.891 157.894 112.86 155.701C115.139 154.447 118.065 156.184 117.745 158.634C116.316 169.816 115.168 181.047 114.372 192.338C113.107 211.614 112.549 230.991 114.072 250.75C114.317 253.826 118.933 254.625 120.235 251.817C128.552 233.761 134.781 215.365 140.31 196.827C143.497 185.949 146.332 175.01 148.886 164.023C149.44 161.614 152.794 160.963 154.498 162.907C157.464 166.299 160.485 169.657 163.588 172.963C172.871 182.746 182.486 192.3 193.105 201.237C195.685 203.42 199.583 200.951 198.23 197.992C192.596 185.917 185.984 174.443 179.018 163.193C176.651 159.421 174.203 155.7 171.7 152.014L171.622 152.045Z" fill="black"/>
</svg>
