<svg width="120" height="126" viewBox="0 0 120 126" fill="none" xmlns="http://www.w3.org/2000/svg">
<path fill-rule="evenodd" clip-rule="evenodd" d="M0.530715 62.2857C0.530715 62.2857 41.8709 60.6299 44.2614 56.6341C46.2465 52.2333 33.5249 34.4539 33.5249 34.4539C33.5249 34.4539 49.7756 49.4722 53.691 47.0758C57.6097 44.2979 60.3198 0.504922 60.3198 0.504922C60.3198 0.504922 62.6729 44.341 66.5631 47.1855C70.4372 49.6482 86.9414 34.9091 86.9414 34.9091C86.9414 34.9091 73.9183 52.4892 75.8282 56.9031C78.1309 60.9388 119.437 63.2989 119.437 63.2989C119.437 63.2989 78.0967 64.9546 75.722 69.3722C73.737 73.773 86.462 91.1709 86.462 91.1709C86.462 91.1709 70.2079 76.5542 66.2925 78.9506C62.377 81.347 59.2584 125.076 59.2584 125.076C59.2584 125.076 57.2949 81.2435 53.4204 78.841C49.5458 76.4384 33.0455 90.7157 33.0455 90.7157C33.0455 90.7157 46.0649 73.5372 44.1552 69.1032C41.7748 65.0467 6.38888 62.7372 0.530715 62.2857Z" fill="#FDFBE2"/>
<circle cx="13.5" cy="32.5" r="5.5" fill="#FDFBE2"/>
<circle cx="3.5" cy="47.5" r="3.5" fill="#FDFBE2"/>
</svg>
