<svg width="180" height="317" viewBox="0 0 180 317" fill="none" xmlns="http://www.w3.org/2000/svg">
<path fill-rule="evenodd" clip-rule="evenodd" d="M-120.664 156.763C-120.664 156.763 -16.6179 152.595 -10.6013 142.539C-5.60538 131.463 -37.6234 86.7148 -37.6234 86.7148C-37.6234 86.7148 3.2769 124.513 13.1314 118.482C22.9941 111.49 29.8149 1.2708 29.8149 1.2708C29.8149 1.2708 35.7372 111.599 45.5283 118.758C55.2787 124.956 96.8171 87.8603 96.8171 87.8603C96.8171 87.8603 64.0402 132.106 68.8471 143.216C74.6424 153.373 178.604 159.313 178.604 159.313C178.604 159.313 74.5563 163.48 68.5797 174.598C63.5837 185.674 95.6105 229.462 95.6105 229.462C95.6105 229.462 54.7017 192.674 44.8471 198.706C34.9926 204.737 27.1435 314.796 27.1435 314.796C27.1435 314.796 22.2018 204.476 12.4502 198.43C2.6986 192.383 -38.8299 228.316 -38.8299 228.316C-38.8299 228.316 -6.06224 185.081 -10.8687 173.921C-16.8597 163.712 -105.92 157.899 -120.664 156.763Z" fill="#FEDC97"/>
<path d="M101 53.5C133.531 58.7008 136.633 62.929 140.51 107C144.346 62.929 147.469 58.7008 180 53.5C147.469 48.2766 144.367 44.0483 140.51 0C136.654 44.0483 133.531 48.2766 101 53.5Z" fill="#FEDC97"/>
</svg>
