<svg width="252" height="303" viewBox="0 0 252 303" fill="none" xmlns="http://www.w3.org/2000/svg">
<path d="M279.798 166.904C280.336 160.89 194.427 153.542 194.427 153.542L165.292 151.05L176.748 140.953C176.748 140.953 221.053 101.902 217.383 97.3038C213.713 92.7058 169.408 131.757 169.408 131.757L157.953 141.854L160.69 111.27C160.69 111.27 168.76 21.0872 163.031 20.5972C157.303 20.1072 149.233 110.29 149.233 110.29L146.496 140.874L137.008 128.985C137.008 128.985 100.312 83.0056 95.8812 86.9107C91.4507 90.8158 128.147 136.795 128.147 136.795L137.635 148.684L108.5 146.192C108.5 146.192 22.5914 138.843 22.0533 144.857C21.5152 150.87 107.424 158.219 107.424 158.219L136.559 160.711L125.103 170.808C125.103 170.808 80.7983 209.859 84.4679 214.457C88.1375 219.055 132.443 180.004 132.443 180.004L143.898 169.907L141.161 200.491C141.161 200.491 133.091 290.673 138.82 291.163C144.548 291.653 152.618 201.471 152.618 201.471L155.355 170.887L164.843 182.775C164.843 182.775 201.539 228.755 205.97 224.85C210.4 220.945 173.704 174.965 173.704 174.965L164.216 163.077L193.351 165.569C193.351 165.569 279.26 172.917 279.798 166.904Z" fill="black"/>
<path d="M271.289 158.33C271.827 152.317 185.918 144.968 185.918 144.968L156.783 142.476L168.239 132.379C168.239 132.379 212.544 93.328 208.874 88.73C205.204 84.1321 160.899 123.183 160.899 123.183L149.444 133.28L152.181 102.696C152.181 102.696 160.25 12.5135 154.522 12.0235C148.794 11.5335 140.724 101.716 140.724 101.716L137.987 132.3L128.499 120.412C128.499 120.412 91.8026 74.4319 87.3721 78.337C82.9416 82.2421 119.638 128.222 119.638 128.222L129.126 140.11L99.991 137.618C99.991 137.618 14.0823 130.27 13.5442 136.283C13.0061 142.296 98.9148 149.645 98.9148 149.645L128.05 152.137L116.594 162.234C116.594 162.234 72.2892 201.285 75.9588 205.883C79.6285 210.481 123.933 171.43 123.933 171.43L135.389 161.333L132.652 191.917C132.652 191.917 124.582 282.1 130.311 282.59C136.039 283.08 144.109 192.897 144.109 192.897L146.846 162.313L156.334 174.201C156.334 174.201 193.03 220.181 197.461 216.276C201.891 212.371 165.195 166.391 165.195 166.391L155.707 154.503L184.842 156.995C184.842 156.995 270.75 164.343 271.289 158.33Z" fill="#0071C6" stroke="black" stroke-width="4" stroke-linecap="round" stroke-linejoin="round"/>
</svg>
