<svg width="135" height="130" viewBox="0 0 135 130" fill="none" xmlns="http://www.w3.org/2000/svg">
<path d="M83.7989 67.8367C82.9817 67.3767 83.0928 66.1939 83.996 65.8558C88.1124 64.3046 92.1985 62.6606 96.2467 60.9006C103.142 57.8676 109.953 54.6054 116.548 50.6526C117.573 50.0351 117.075 48.5124 115.883 48.6198C108.227 49.3262 100.804 50.718 93.4491 52.3443C89.1431 53.3158 84.867 54.4059 80.6293 55.5862C79.7009 55.847 78.9124 54.9583 79.3001 54.1043C79.9758 52.6086 80.6436 51.1155 81.2665 49.5942C83.0943 45.0953 84.7873 40.5377 86.1082 35.7938C86.432 34.6356 84.9194 33.8981 84.1229 34.8344C80.8907 38.6547 78.036 42.651 75.3106 46.7162C74.3945 48.1023 73.5181 49.5011 72.6523 50.905C72.1591 51.7079 70.9411 51.627 70.6129 50.759C69.0954 46.7977 67.4895 42.8653 65.7712 38.9696C62.8011 32.3604 59.5926 25.8378 55.6827 19.5359C55.0769 18.5533 53.4784 19.076 53.5701 20.2266C54.1383 27.6211 55.4029 34.7794 56.911 41.8666C57.818 46.0275 58.8455 50.149 59.9694 54.239C60.2173 55.1333 59.2824 55.9181 58.4101 55.5616C56.8821 54.9404 55.3487 54.3296 53.7907 53.7524C49.1901 52.0825 44.526 50.5446 39.6611 49.3717C38.4735 49.0841 37.6781 50.5676 38.6261 51.3186C42.4944 54.3658 46.5529 57.0429 50.6855 59.5931C52.0948 60.4498 53.5182 61.2678 54.947 62.0754C55.7643 62.5354 55.6531 63.7182 54.75 64.0563C50.6281 65.6179 46.5339 67.2645 42.4752 69.0193C35.588 72.0497 28.7848 75.3093 22.1933 79.244C21.1657 79.8538 21.6686 81.392 22.858 81.2769C30.5007 80.5575 37.9156 79.1684 45.2627 77.5448C49.5686 76.5732 53.8447 75.4831 58.0825 74.3029C59.0108 74.0421 59.7993 74.9307 59.4117 75.7847C58.7359 77.2805 58.0707 78.7813 57.4452 80.2948C55.612 84.8041 53.9134 89.3721 52.5976 94.1314C52.2738 95.2896 53.7839 96.0193 54.5828 95.0908C57.8231 91.2679 60.6913 87.2586 63.4222 83.183C64.3328 81.8073 65.2117 80.4163 66.0695 79.015C66.5628 78.2121 67.7807 78.293 68.109 79.161C69.6159 83.1172 71.2192 87.0419 72.943 90.9272C75.9156 97.5441 79.1267 104.074 83.0552 110.379C83.6691 111.359 85.2515 110.841 85.1679 109.688C84.6131 102.281 83.346 95.1146 81.8354 88.0197C80.9309 83.8665 79.906 79.7527 78.7846 75.6704C78.5367 74.7762 79.4716 73.9914 80.3439 74.3478C81.8638 74.9717 83.3948 75.5748 84.9422 76.1468C89.5533 77.8219 94.228 79.3649 99.1089 80.5325C100.297 80.8201 101.084 79.3392 100.144 78.5856C96.2731 75.5306 92.2016 72.8408 88.0584 70.2855C86.6596 69.4338 85.2443 68.6132 83.818 67.8134L83.7989 67.8367Z" fill="black"/>
<path d="M79.5573 67.2913C78.74 66.8313 78.8512 65.6485 79.7543 65.3104C83.8708 63.7592 87.9569 62.1152 92.0051 60.3552C98.9002 57.3222 105.712 54.06 112.306 50.1072C113.331 49.4896 112.833 47.967 111.641 48.0743C103.985 48.7808 96.5626 50.1726 89.2075 51.7989C84.9015 52.7704 80.6254 53.8605 76.3877 55.0408C75.4593 55.3015 74.6708 54.4129 75.0585 53.5589C75.7342 52.0632 76.4019 50.5701 77.0249 49.0488C78.8527 44.5499 80.5457 39.9923 81.8666 35.2484C82.1904 34.0902 80.6777 33.3527 79.8813 34.289C76.649 38.1093 73.7944 42.1056 71.069 46.1708C70.1529 47.5569 69.2765 48.9557 68.4107 50.3596C67.9174 51.1625 66.6995 51.0816 66.3712 50.2136C64.8538 46.2523 63.2479 42.3198 61.5296 38.4242C58.5595 31.815 55.351 25.2924 51.4411 18.9905C50.8353 18.0079 49.2367 18.5305 49.3284 19.6812C49.8967 27.0757 51.1613 34.234 52.6694 41.3211C53.5764 45.4821 54.6038 49.6036 55.7277 53.6936C55.9757 54.5879 55.0408 55.3727 54.1685 55.0162C52.6405 54.395 51.107 53.7842 49.549 53.207C44.9485 51.5371 40.2844 49.9991 35.4195 48.8263C34.2318 48.5387 33.4365 50.0222 34.3844 50.7732C38.2528 53.8204 42.3112 56.4975 46.4438 59.0476C47.8532 59.9044 49.2765 60.7224 50.7054 61.53C51.5227 61.99 51.4115 63.1728 50.5084 63.5108C46.3864 65.0724 42.2923 66.7191 38.2335 68.4739C31.3464 71.5043 24.5431 74.7639 17.9517 78.6986C16.924 79.3084 17.4269 80.8466 18.6163 80.7315C26.2591 80.0121 33.674 78.623 41.021 76.9993C45.327 76.0278 49.6031 74.9377 53.8408 73.7575C54.7692 73.4967 55.5577 74.3853 55.17 75.2393C54.4943 76.735 53.8291 78.2359 53.2036 79.7494C51.3703 84.2587 49.6718 88.8267 48.3559 93.586C48.0322 94.7442 49.5423 95.4739 50.3412 94.5454C53.5815 90.7225 56.4497 86.7132 59.1806 82.6376C60.0912 81.2619 60.9701 79.8708 61.8279 78.4696C62.3212 77.6666 63.5391 77.7475 63.8674 78.6156C65.3743 82.5718 66.9776 86.4965 68.7014 90.3818C71.674 96.9987 74.8851 103.529 78.8136 109.833C79.4274 110.813 81.0099 110.296 80.9262 109.143C80.3715 101.735 79.1044 94.5692 77.5938 87.4743C76.6893 83.3211 75.6644 79.2073 74.543 75.125C74.2951 74.2308 75.2299 73.446 76.1023 73.8024C77.6222 74.4263 79.1531 75.0294 80.7006 75.6014C85.3117 77.2765 89.9864 78.8195 94.8673 79.9871C96.055 80.2747 96.8423 78.7938 95.9023 78.0402C92.0315 74.9852 87.9599 72.2953 83.8168 69.7401C82.418 68.8884 81.0027 68.0678 79.5763 67.268L79.5573 67.2913Z" fill="#8F55FF" stroke="black" stroke-width="2.6" stroke-linecap="round" stroke-linejoin="round"/>
</svg>
