<svg width="72" height="74" viewBox="0 0 72 74" fill="none" xmlns="http://www.w3.org/2000/svg">
<path d="M66.2134 43.9508L42.0543 45.5614C41.792 45.578 41.5707 45.7542 41.4771 46.0074L33.305 69.3824C33.0642 70.0648 32.0842 69.9278 32.0475 69.2066L30.6693 44.4961C30.6552 44.2278 30.4849 44.0028 30.2382 43.9091L7.45579 35.7347C6.79089 35.4938 6.93274 34.4898 7.63782 34.4464L31.7969 32.8358C32.0592 32.8192 32.2805 32.643 32.3741 32.3898L40.5462 9.01474C40.787 8.33235 41.767 8.46938 41.8037 9.19058L43.1819 33.9011C43.196 34.1693 43.3663 34.3944 43.613 34.488L66.3898 42.6617C67.0547 42.9026 66.9128 43.9066 66.2077 43.95L66.2134 43.9508Z" fill="black"/>
<path d="M63.5016 39.5535L39.3424 41.1641C39.0802 41.1807 38.8589 41.3569 38.7653 41.6101L30.5932 64.9851C30.3523 65.6675 29.3724 65.5305 29.3357 64.8093L27.9575 40.0988C27.9434 39.8306 27.7731 39.6055 27.5264 39.5118L4.74964 31.3382C4.08474 31.0973 4.22659 30.0933 4.93167 30.0499L29.0908 28.4393C29.3531 28.4227 29.5744 28.2465 29.6679 27.9933L37.8401 4.61826C38.0809 3.93587 39.0609 4.0729 39.0976 4.7941L40.4757 29.5046C40.4898 29.7728 40.6602 29.9979 40.9069 30.0915L63.6836 38.2652C64.3485 38.5061 64.2066 39.5101 63.5016 39.5535Z" fill="#0071C6" stroke="black" stroke-width="2.6" stroke-linecap="round" stroke-linejoin="round"/>
</svg>
