<svg width="90" height="89" viewBox="0 0 90 89" fill="none" xmlns="http://www.w3.org/2000/svg">
<path d="M63.3714 68.5272C47.294 60.9423 42.1068 61.8759 28.4698 74.8307C27.9054 75.3686 27.0731 74.7527 27.4187 74.0529C35.8145 57.2198 35.1966 51.9847 23.2394 38.8308C22.7428 38.2864 23.3971 37.4021 24.0657 37.714C40.1431 45.2989 45.3303 44.3653 58.9672 31.4105C59.5317 30.8726 60.364 31.4885 60.0183 32.1883C51.6226 49.0214 52.2405 54.2564 64.1977 67.4103C64.6943 67.9547 64.04 68.8391 63.3714 68.5272Z" fill="black"/>
<path d="M62.2991 64.1769C46.2216 56.5919 41.0344 57.5254 27.3976 70.4801C26.8331 71.018 26.0008 70.4022 26.3465 69.7024C34.7421 52.8693 34.1242 47.6342 22.1669 34.4802C21.6703 33.9358 22.3246 33.0515 22.9932 33.3633C39.0706 40.9483 44.2578 40.0148 57.8946 27.06C58.4591 26.5222 59.2914 27.138 58.9457 27.8378C50.5501 44.6709 51.168 49.906 63.1253 63.06C63.6219 63.6044 62.9676 64.4887 62.2991 64.1769Z" fill="#8F55FF"/>
<path d="M62.2991 64.1769C46.2216 56.5919 41.0344 57.5254 27.3976 70.4801C26.8331 71.018 26.0008 70.4022 26.3465 69.7024C34.7421 52.8693 34.1242 47.6342 22.1669 34.4802C21.6703 33.9358 22.3246 33.0515 22.9932 33.3633C39.0706 40.9483 44.2578 40.0148 57.8946 27.06C58.4591 26.5222 59.2914 27.138 58.9457 27.8378C50.5501 44.6709 51.168 49.906 63.1253 63.06C63.6219 63.6044 62.9676 64.4887 62.2991 64.1769V64.1769Z" stroke="black" stroke-width="2.35" stroke-linecap="round" stroke-linejoin="round"/>
</svg>
