<svg width="109" height="107" viewBox="0 0 109 107" fill="none" xmlns="http://www.w3.org/2000/svg">
<g clip-path="url(#clip0_854_108725)">
<path d="M90.8259 56.6064C70.6502 64.3832 66.9816 69.6867 66.1611 92.3084C66.1285 93.2462 64.8965 93.4642 64.6051 92.5838C57.6673 71.3355 52.7377 67.5482 31.4192 67.1223C30.5355 67.1062 30.354 65.8036 31.1901 65.4773C51.3657 57.7006 55.0343 52.3971 55.8549 29.7753C55.8875 28.8376 57.1195 28.6195 57.4108 29.4999C64.3486 50.7483 69.2783 54.5355 90.5967 54.9614C91.4804 54.9776 91.6619 56.2801 90.8259 56.6064Z" fill="black"/>
<path d="M86.0737 53.9486C65.9535 61.7554 62.2917 67.0747 61.4542 89.7572C61.4209 90.6975 60.1925 90.9167 59.9028 90.0341C53.0046 68.7322 48.0934 64.9372 26.841 64.5199C25.96 64.5041 25.7802 63.1982 26.6139 62.8706C46.7341 55.0638 50.396 49.7445 51.2334 27.062C51.2667 26.1218 52.4951 25.9026 52.7848 26.7852C59.683 48.087 64.5942 51.8821 85.8467 52.2993C86.7277 52.3151 86.9075 53.621 86.0737 53.9486Z" fill="white"/>
<path d="M86.0737 53.9486C65.9535 61.7554 62.2917 67.0747 61.4542 89.7572C61.4209 90.6975 60.1925 90.9167 59.9028 90.0341C53.0046 68.7322 48.0934 64.9372 26.841 64.5199C25.96 64.5042 25.7802 63.1982 26.6139 62.8706C46.7341 55.0638 50.396 49.7445 51.2334 27.062C51.2667 26.1218 52.4951 25.9026 52.7848 26.7852C59.683 48.087 64.5942 51.8821 85.8467 52.2993C86.7277 52.3151 86.9075 53.621 86.0737 53.9486V53.9486Z" stroke="black" stroke-width="2.35" stroke-linecap="round" stroke-linejoin="round"/>
</g>
<defs>
<clipPath id="clip0_854_108725">
<rect width="84.2015" height="79.7646" fill="white" transform="translate(0 32.9038) rotate(-23.0026)"/>
</clipPath>
</defs>
</svg>
