<svg width="110" height="106" viewBox="0 0 110 106" fill="none" xmlns="http://www.w3.org/2000/svg">
<path d="M66.9064 58.8014C66.3801 58.2566 66.7394 57.3668 67.5165 57.3137C71.0609 57.0638 74.6033 56.7351 78.1431 56.3079C84.1806 55.5529 90.2061 54.601 96.2233 53.0646C97.1593 52.8234 97.1257 51.5299 96.1783 51.3377C90.0894 50.1163 84.0226 49.479 77.954 49.039C74.3968 48.7964 70.8352 48.6525 67.2826 48.5873C66.5038 48.5747 66.0988 47.7047 66.596 47.1333C67.4645 46.1317 68.3262 45.1302 69.1598 44.0966C71.6136 41.0365 73.9767 37.9 76.0948 34.5332C76.6129 33.7115 75.6124 32.7914 74.7797 33.3321C71.3956 35.5425 68.263 37.9763 65.2146 40.4934C64.1854 41.3546 63.184 42.2349 62.1895 43.1215C61.6223 43.6291 60.6983 43.2852 60.6447 42.5375C60.3851 39.1209 60.0504 35.7063 59.6202 32.2941C58.8479 26.4925 57.8709 20.7029 56.3002 14.9221C56.0582 14.0216 54.7002 14.0569 54.5054 14.9688C53.2374 20.8234 52.5628 26.6561 52.0932 32.4899C51.8342 35.92 51.6775 39.3474 51.6027 42.7727C51.5881 43.5222 50.6832 43.9137 50.0904 43.4363C49.0512 42.6026 48.0054 41.7756 46.9327 40.969C43.7576 38.6139 40.5027 36.3462 37.0082 34.3148C36.1553 33.8179 35.197 34.7825 35.7573 35.5827C38.0476 38.8347 40.5706 41.8442 43.1803 44.7725C44.0733 45.7612 44.986 46.7231 45.9054 47.6782C46.4318 48.223 46.0725 49.1128 45.2954 49.1659C41.7443 49.4225 38.1951 49.7514 34.6483 50.1722C28.6176 50.9271 22.5989 51.8787 16.5883 53.4018C15.652 53.6364 15.686 54.9431 16.6332 55.1287C22.7149 56.3372 28.775 56.9746 34.8367 57.4148C38.3939 57.6574 41.9555 57.8013 45.5081 57.8666C46.2869 57.8792 46.692 58.7491 46.1947 59.3205C45.3262 60.3222 44.4647 61.3302 43.631 62.3572C41.1705 65.424 38.8007 68.5674 36.683 71.9473C36.1649 72.7689 37.1652 73.6825 37.998 73.1483C41.389 70.9378 44.535 68.497 47.5901 65.9732C48.6127 65.1187 49.6143 64.245 50.6019 63.3586C51.1691 62.851 52.0931 63.1949 52.1467 63.9426C52.3993 67.3528 52.7338 70.7609 53.1707 74.1663C53.9432 79.9744 54.9203 85.7707 56.5049 91.5577C56.7537 92.458 58.098 92.423 58.2996 91.511C59.5812 85.6494 60.2555 79.8102 60.725 73.9698C60.9842 70.5462 61.141 67.1254 61.216 63.7067C61.2306 62.9572 62.1355 62.5657 62.7283 63.0431C63.7607 63.877 64.8063 64.6974 65.872 65.4976C69.0541 67.8591 72.316 70.1331 75.8242 72.1642C76.6771 72.6611 77.6285 71.6968 77.075 70.8964C74.7845 67.6378 72.2544 64.6153 69.6377 61.6806C68.7518 60.6983 67.8458 59.7363 66.9266 58.7877L66.9064 58.8014Z" fill="black"/>
<path d="M63.7494 57.3995C63.2231 56.8547 63.5824 55.9649 64.3595 55.9118C67.9039 55.6619 71.4463 55.3332 74.9861 54.906C81.0236 54.151 87.0491 53.1992 93.0662 51.6628C94.0023 51.4216 93.9687 50.128 93.0213 49.9358C86.9324 48.7144 80.8656 48.0772 74.797 47.6371C71.2398 47.3946 67.6782 47.2507 64.1256 47.1854C63.3468 47.1728 62.9417 46.3029 63.439 45.7314C64.3075 44.7298 65.1692 43.7283 66.0028 42.6948C68.4566 39.6347 70.8197 36.4981 72.9378 33.1313C73.4559 32.3097 72.4554 31.3895 71.6227 31.9303C68.2385 34.1407 65.106 36.5745 62.0576 39.0915C61.0284 39.9528 60.027 40.833 59.0325 41.7197C58.4653 42.2272 57.5413 41.8833 57.4877 41.1356C57.2281 37.719 56.8934 34.3044 56.4632 30.8922C55.6908 25.0907 54.7139 19.301 53.1432 13.5202C52.9012 12.6197 51.5432 12.6551 51.3484 13.5669C50.0803 19.4216 49.4058 25.2542 48.9362 31.0881C48.6772 34.5182 48.5205 37.9456 48.4457 41.3709C48.4311 42.1203 47.5262 42.5118 46.9333 42.0344C45.8942 41.2007 44.8483 40.3737 43.7757 39.5672C40.6005 37.212 37.3457 34.9444 33.8511 32.913C32.9983 32.4161 32.04 33.3806 32.6003 34.1808C34.8906 37.4329 37.4136 40.4423 40.0233 43.3707C40.9162 44.3593 41.829 45.3212 42.7484 46.2763C43.2748 46.8211 42.9155 47.711 42.1384 47.764C38.5873 48.0207 35.0381 48.3496 31.4912 48.7704C25.4606 49.5252 19.4419 50.4769 13.4313 52C12.495 52.2346 12.529 53.5413 13.4762 53.7269C19.5579 54.9354 25.6179 55.5728 31.6797 56.013C35.2369 56.2556 38.7985 56.3994 42.3511 56.4647C43.1299 56.4773 43.535 57.3472 43.0377 57.9187C42.1692 58.9203 41.3076 59.9283 40.4739 60.9554C38.0134 64.0222 35.6437 67.1655 33.5259 70.5454C33.0079 71.3671 34.0081 72.2807 34.841 71.7465C38.232 69.5359 41.378 67.0952 44.4331 64.5714C45.4557 63.7169 46.4572 62.8432 47.4448 61.9567C48.0121 61.4492 48.9361 61.7931 48.9897 62.5408C49.2423 65.951 49.5768 69.359 50.0137 72.7644C50.7862 78.5726 51.7633 84.3688 53.3479 90.1558C53.5966 91.0561 54.941 91.0211 55.1426 90.1091C56.4242 84.2476 57.0985 78.4084 57.568 72.5679C57.8272 69.1444 57.984 65.7235 58.059 62.3048C58.0736 61.5554 58.9785 61.1639 59.5713 61.6412C60.6037 62.4751 61.6493 63.2956 62.715 64.0957C65.8971 66.4573 69.159 68.7313 72.6672 70.7624C73.52 71.2593 74.4715 70.2949 73.918 69.4945C71.6275 66.2359 69.0974 63.2135 66.4807 60.2787C65.5947 59.2965 64.6888 58.3344 63.7696 57.3859L63.7494 57.3995Z" fill="#8F55FF" stroke="black" stroke-width="2.6" stroke-linecap="round" stroke-linejoin="round"/>
</svg>
