<svg width="114" height="108" viewBox="0 0 114 108" fill="none" xmlns="http://www.w3.org/2000/svg">
<path d="M71.102 58.0651C70.4056 57.5902 70.5965 56.5397 71.4312 56.3067C75.2367 55.2352 79.0222 54.0784 82.7828 52.8149C89.1907 50.631 95.5412 48.2354 101.751 45.2048C102.716 44.731 102.388 43.3292 101.313 43.3334C94.403 43.3753 87.6491 44.0489 80.9379 44.9376C77.0074 45.4754 73.0944 46.1216 69.2089 46.8515C68.3575 47.0133 67.7201 46.1568 68.133 45.4221C68.8535 44.1349 69.5666 42.8495 70.2417 41.5354C72.2254 37.648 74.0929 33.6978 75.6417 29.552C76.0209 28.5399 74.7234 27.7629 73.938 28.5398C70.7491 31.7112 67.8848 35.0692 65.1309 38.499C64.2036 39.6694 63.311 40.8543 62.4274 42.0445C61.9238 42.7254 60.8395 42.559 60.6126 41.7565C59.5594 38.0924 58.4249 34.4475 57.1869 30.8267C55.0373 24.6797 52.6676 18.5918 49.6528 12.6475C49.1861 11.7209 47.7145 12.0656 47.7078 13.103C47.6462 19.7678 48.2263 26.2749 49.0299 32.7371C49.521 36.5328 50.1231 40.3025 50.8139 44.0514C50.9669 44.8713 50.0693 45.5018 49.3157 45.1154C47.9955 44.4413 46.6695 43.776 45.319 43.139C41.3285 41.2889 37.2709 39.552 33.0054 38.1265C31.9641 37.7774 31.1375 39.0444 31.9284 39.7899C35.157 42.8168 38.5844 45.527 42.088 48.1292C43.2839 49.0051 44.4952 49.8473 45.7123 50.6807C46.4086 51.1556 46.2178 52.2061 45.3831 52.4391C41.5718 53.5194 37.7789 54.678 34.0093 55.9361C27.6088 58.1182 21.2657 60.5121 15.0601 63.5267C14.0929 63.9935 14.4246 65.4095 15.4984 65.3982C22.3973 65.3437 29.1437 64.6719 35.8476 63.7849C39.7781 63.2471 43.691 62.6009 47.5765 61.871C48.4279 61.7092 49.0654 62.5657 48.6524 63.3005C47.9319 64.5876 47.2205 65.8801 46.5437 67.1871C44.5543 71.0833 42.681 75.0424 41.1357 79.2025C40.7564 80.2145 42.0523 80.9844 42.8393 80.2146C46.0356 77.0416 48.913 73.6729 51.6727 70.2343C52.5942 69.0727 53.4885 67.895 54.3647 66.7065C54.8683 66.0256 55.9526 66.192 56.1795 66.9945C57.2236 70.6532 58.3565 74.291 59.6002 77.9029C61.7515 84.057 64.1229 90.1521 67.1541 96.1001C67.6282 97.0249 69.085 96.6837 69.0991 95.6445C69.1738 88.9691 68.5921 82.4549 67.7868 75.9856C67.2973 72.197 66.6969 68.4344 66.0078 64.6927C65.8548 63.8728 66.7524 63.2422 67.506 63.6287C68.8188 64.3045 70.1431 64.9627 71.4846 65.5942C75.4842 67.4498 79.5508 69.1921 83.8311 70.6141C84.8724 70.9632 85.6916 69.6979 84.9081 68.9507C81.6778 65.9166 78.2396 63.194 74.727 60.5864C73.5402 59.7159 72.3362 58.8719 71.1208 58.0457L71.102 58.0651Z" fill="black"/>
<path d="M67.3462 57.2487C66.6499 56.7738 66.8407 55.7233 67.6754 55.4902C71.481 54.4188 75.2665 53.262 79.027 51.9984C85.435 49.8146 91.7855 47.419 97.9951 44.3884C98.9606 43.9146 98.6323 42.5127 97.5568 42.5169C90.6472 42.5589 83.8934 43.2325 77.1821 44.1212C73.2516 44.659 69.3387 45.3052 65.4532 46.0351C64.6018 46.1969 63.9643 45.3404 64.3773 44.6057C65.0978 43.3185 65.8108 42.0331 66.486 40.719C68.4697 36.8316 70.3372 32.8814 71.8859 28.7356C72.2651 27.7235 70.9676 26.9465 70.1823 27.7234C66.9934 30.8947 64.129 34.2528 61.3751 37.6826C60.4479 38.853 59.5553 40.0379 58.6717 41.2281C58.1681 41.909 57.0838 41.7426 56.8568 40.9401C55.8037 37.276 54.6692 33.631 53.4311 30.0103C51.2816 23.8633 48.9118 17.7754 45.897 11.831C45.4304 10.9045 43.9587 11.2492 43.9521 12.2866C43.8904 18.9514 44.4705 25.4585 45.2742 31.9207C45.7653 35.7164 46.3673 39.4861 47.0581 43.235C47.2112 44.0549 46.3135 44.6854 45.5599 44.299C44.2397 43.6249 42.9138 42.9596 41.5632 42.3226C37.5727 40.4725 33.5151 38.7356 29.2496 37.3101C28.2083 36.961 27.3817 38.228 28.1726 38.9735C31.4012 42.0004 34.8287 44.7106 38.3323 47.3128C39.5281 48.1887 40.7395 49.0309 41.9566 49.8642C42.6529 50.3392 42.4621 51.3897 41.6274 51.6227C37.8161 52.703 34.0232 53.8616 30.2536 55.1197C23.853 57.3018 17.5099 59.6957 11.3044 62.7103C10.3372 63.1771 10.6688 64.5931 11.7427 64.5818C18.6415 64.5273 25.388 63.8555 32.0918 62.9685C36.0223 62.4307 39.9353 61.7845 43.8208 61.0546C44.6722 60.8928 45.3096 61.7493 44.8966 62.484C44.1762 63.7712 43.4648 65.0637 42.788 66.3707C40.7986 70.2669 38.9253 74.226 37.3799 78.3861C37.0007 79.3981 38.2965 80.168 39.0835 79.3982C42.2798 76.2251 45.1573 72.8565 47.917 69.4179C48.8384 68.2563 49.7327 67.0786 50.6089 65.8901C51.1125 65.2092 52.1968 65.3756 52.4238 66.1781C53.4679 69.8367 54.6007 73.4746 55.8445 77.0865C57.9957 83.2406 60.3671 89.3357 63.3984 95.2837C63.8724 96.2085 65.3293 95.8673 65.3433 94.8281C65.4181 88.1527 64.8363 81.6385 64.031 75.1692C63.5416 71.3806 62.9412 67.618 62.2521 63.8762C62.099 63.0564 62.9967 62.4258 63.7503 62.8123C65.0631 63.4881 66.3874 64.1462 67.7288 64.7778C71.7284 66.6334 75.7951 68.3757 80.0754 69.7977C81.1167 70.1468 81.9359 68.8815 81.1524 68.1343C77.9221 65.1002 74.4839 62.3776 70.9712 59.77C69.7845 58.8995 68.5805 58.0555 67.3651 57.2293L67.3462 57.2487Z" fill="#8F55FF" stroke="black" stroke-width="2.6" stroke-linecap="round" stroke-linejoin="round"/>
</svg>
