<svg width="143" height="146" viewBox="0 0 143 146" fill="none" xmlns="http://www.w3.org/2000/svg">
<path d="M119.892 67.0081L85.2989 81.8982C84.9229 82.0586 84.6897 82.4317 84.6839 82.8515L84.8212 121.368C84.822 122.494 83.3138 122.801 82.886 121.762L68.0509 86.2399C67.8911 85.8538 67.5245 85.6122 67.1142 85.6027L29.4656 85.4294C28.3656 85.4209 28.053 83.8751 29.0644 83.4458L63.6578 68.5557C64.0338 68.3954 64.2669 68.0222 64.2728 67.6024L64.1354 29.0858C64.1347 27.9602 65.6428 27.653 66.0707 28.6916L80.9058 64.214C81.0656 64.6001 81.4321 64.8418 81.8425 64.8512L119.482 65.0263C120.582 65.0348 120.895 66.5806 119.884 67.0099L119.892 67.0081Z" fill="black"/>
<path d="M113.634 61.965L79.0407 76.8551C78.6647 77.0154 78.4315 77.3885 78.4257 77.8084L78.5631 116.325C78.5638 117.451 77.0556 117.758 76.6278 116.719L61.7927 81.1968C61.6329 80.8107 61.2664 80.569 60.856 80.5596L23.2161 80.3845C22.1161 80.376 21.8035 78.8302 22.815 78.4009L57.4083 63.5108C57.7843 63.3504 58.0175 62.9773 58.0233 62.5575L57.886 24.0409C57.8852 22.9153 59.3934 22.6081 59.8212 23.6466L74.6563 59.1691C74.8161 59.5552 75.1827 59.7968 75.593 59.8063L113.233 59.9813C114.333 59.9898 114.646 61.5357 113.634 61.965Z" fill="#0071C6" stroke="black" stroke-width="2.6" stroke-linecap="round" stroke-linejoin="round"/>
</svg>
