<svg width="169" height="174" viewBox="0 0 169 174" fill="none" xmlns="http://www.w3.org/2000/svg">
<path d="M83.1497 67.3591C83.5484 68.3885 84.9452 68.4576 85.4908 67.4622C87.9895 62.9266 90.5911 58.4418 93.3215 54.0208C98.0133 46.4964 102.958 39.1083 108.671 32.0888C109.563 30.9981 111.253 31.8339 110.928 33.2046C108.819 42.006 105.951 50.4208 102.821 58.7173C100.966 63.5711 98.9775 68.3702 96.8907 73.1094C96.431 74.1473 97.334 75.2152 98.3941 74.907C100.25 74.3709 102.102 73.8436 103.979 73.3733C109.528 71.9993 115.122 70.7921 120.871 70.0498C122.275 69.8671 122.88 71.7533 121.656 72.524C116.662 75.6484 111.526 78.3032 106.332 80.7959C104.563 81.6305 102.786 82.4167 101.005 83.1898C99.9869 83.6296 99.8766 85.0622 100.833 85.5905C105.193 88.0238 109.505 90.5552 113.756 93.2115C120.957 97.7819 128.018 102.616 134.704 108.23C135.747 109.1 134.87 110.875 133.545 110.575C125.025 108.671 116.897 105.996 108.893 103.048C104.197 101.293 99.5673 99.4033 94.9907 97.407C93.9904 96.968 92.9191 97.9254 93.1879 99.0016C93.655 100.886 94.1092 102.775 94.52 104.688C95.6931 110.328 96.7016 116.021 97.2512 121.886C97.3867 123.318 95.5247 123.996 94.809 122.765C91.9082 117.746 89.4707 112.568 87.1935 107.325C86.4319 105.539 85.7179 103.743 85.0169 101.943C84.6182 100.913 83.2214 100.844 82.6759 101.839C80.1642 106.38 77.5581 110.873 74.8319 115.308C70.1445 122.823 65.2041 130.202 59.5127 137.221C58.6296 138.316 56.922 137.472 57.2559 136.106C59.3775 127.322 62.2412 118.916 65.3669 110.628C67.222 105.774 69.2102 100.975 71.297 96.236C71.7568 95.1981 70.8538 94.1301 69.7937 94.4384C67.9375 94.9745 66.0771 95.4975 64.2087 95.9721C58.6469 97.3508 53.0394 98.5627 47.2732 99.2965C45.8694 99.4792 45.2728 97.5972 46.4889 96.8223C51.4872 93.689 56.6401 91.0205 61.8473 88.5231C63.6031 87.6932 65.3715 86.9028 67.1482 86.1387C68.1665 85.6988 68.2768 84.2662 67.3206 83.738C62.9642 81.3178 58.6607 78.7906 54.4234 76.1297C47.2131 71.555 40.1437 66.717 33.4581 61.081C32.4194 60.2013 33.288 58.4444 34.6177 58.7356C43.1551 60.6259 51.2916 63.3057 59.3043 66.2573C63.9914 68.0086 68.6123 69.8936 73.1803 71.8857C74.1807 72.3248 75.252 71.3673 74.9832 70.2911C74.5116 68.4154 74.066 66.5304 73.6594 64.6314C72.4822 58.9776 71.4694 53.2719 70.9287 47.389C70.7931 45.9569 72.6508 45.2883 73.3709 46.5099C76.2803 51.533 78.7305 56.7286 81.0119 61.985C81.7693 63.7578 82.4877 65.5446 83.1801 67.3408L83.1497 67.3591Z" fill="black"/>
<path d="M83.0736 72.3932C83.4723 73.4227 84.8691 73.4918 85.4146 72.4963C87.9133 67.9607 90.515 63.476 93.2454 59.0549C97.9372 51.5306 102.882 44.1425 108.595 37.123C109.487 36.0323 111.177 36.8681 110.852 38.2388C108.743 47.0401 105.875 55.455 102.745 63.7514C100.89 68.6053 98.9014 73.4043 96.8146 78.1436C96.3549 79.1815 97.2578 80.2494 98.3179 79.9412C100.174 79.405 102.026 78.8778 103.903 78.4075C109.452 77.0334 115.046 75.8262 120.795 75.0839C122.199 74.9012 122.804 76.7874 121.58 77.5581C116.586 80.6825 111.45 83.3374 106.256 85.8301C104.487 86.6647 102.71 87.4509 100.929 88.2239C99.9108 88.6638 99.8005 90.0964 100.757 90.6246C105.117 93.058 109.429 95.5894 113.68 98.2457C120.881 102.816 127.942 107.65 134.628 113.264C135.671 114.135 134.794 115.909 133.468 115.609C124.948 113.705 116.821 111.03 108.816 108.082C104.121 106.327 99.4912 104.438 94.9146 102.441C93.9143 102.002 92.8429 102.96 93.1117 104.036C93.5789 105.92 94.0331 107.81 94.4439 109.722C95.6169 115.363 96.6255 121.055 97.175 126.92C97.3106 128.352 95.4486 129.03 94.7328 127.799C91.8321 122.78 89.3946 117.602 87.1173 112.359C86.3558 110.573 85.6418 108.777 84.9408 106.977C84.5421 105.947 83.1453 105.878 82.5998 106.874C80.0881 111.414 77.482 115.908 74.7558 120.342C70.0684 127.857 65.1279 135.236 59.4366 142.255C58.5535 143.35 56.8458 142.506 57.1797 141.14C59.3013 132.356 62.1651 123.95 65.2907 115.662C67.1458 110.808 69.1341 106.009 71.2209 101.27C71.6806 100.232 70.7777 99.1643 69.7176 99.4726C67.8614 100.009 66.001 100.532 64.1325 101.006C58.5707 102.385 52.9633 103.597 47.1971 104.331C45.7933 104.513 45.1966 102.631 46.4127 101.856C51.4111 98.7231 56.564 96.0547 61.7712 93.5573C63.527 92.7274 65.2953 91.9369 67.072 91.1728C68.0904 90.733 68.2007 89.3004 67.2445 88.7721C62.8881 86.352 58.5846 83.8248 54.3472 81.1638C47.137 76.5891 40.0676 71.7512 33.382 66.1152C32.3433 65.2354 33.2119 63.4785 34.5416 63.7697C43.079 65.6601 51.2154 68.3399 59.2282 71.2914C63.9152 73.0427 68.5362 74.9278 73.1042 76.9199C74.1045 77.359 75.1759 76.4015 74.9071 75.3253C74.4355 73.4496 73.9899 71.5646 73.5833 69.6656C72.4061 64.0117 71.3933 58.3061 70.8526 52.4231C70.717 50.991 72.5746 50.3224 73.2948 51.5441C76.2041 56.5672 78.6544 61.7628 80.9358 67.0192C81.6932 68.792 82.4116 70.5788 83.104 72.375L83.0736 72.3932Z" fill="#FCF43D" stroke="black" stroke-width="2.6" stroke-linecap="round" stroke-linejoin="round"/>
</svg>
