<svg width="93" height="95" viewBox="0 0 93 95" fill="none" xmlns="http://www.w3.org/2000/svg">
<path d="M77.4991 42.8398L55.4828 52.9167C55.2435 53.0253 55.0991 53.2685 55.1015 53.5384L55.7538 78.2922C55.7708 79.0157 54.8059 79.2352 54.5157 78.574L44.4606 55.9598C44.3522 55.714 44.1131 55.5641 43.8492 55.564L19.6487 56.0039C18.9416 56.0146 18.718 55.0256 19.3618 54.7348L41.378 44.6579C41.6174 44.5494 41.7617 44.3061 41.7594 44.0362L41.107 19.2824C41.0901 18.5589 42.0549 18.3394 42.3451 19.0006L52.4003 41.6148C52.5087 41.8606 52.7478 42.0106 53.0117 42.0106L77.2066 41.572C77.9137 41.5613 78.1373 42.5503 77.4935 42.8411L77.4991 42.8398Z" fill="black"/>
<path d="M73.4035 39.6907L51.3873 49.7676C51.148 49.8761 51.0036 50.1194 51.006 50.3893L51.6583 75.1431C51.6752 75.8666 50.7104 76.0861 50.4202 75.4248L40.365 52.8107C40.2567 52.5649 40.0175 52.4149 39.7536 52.4149L15.5587 52.8535C14.8516 52.8642 14.628 51.8752 15.2718 51.5844L37.288 41.5075C37.5274 41.399 37.6718 41.1558 37.6694 40.8858L37.0171 16.132C37.0001 15.4086 37.9649 15.189 38.2552 15.8503L48.3103 38.4644C48.4187 38.7102 48.6578 38.8602 48.9217 38.8602L73.1166 38.4216C73.8237 38.4109 74.0473 39.3999 73.4035 39.6907Z" fill="#FCF43D" stroke="black" stroke-width="2.6" stroke-linecap="round" stroke-linejoin="round"/>
</svg>
