<svg width="274" height="325" viewBox="0 0 274 325" fill="none" xmlns="http://www.w3.org/2000/svg">
<path d="M148.949 177.953C146.838 176.342 147.614 173.092 150.278 172.515C162.425 169.855 174.524 166.924 186.562 163.655C207.079 157.989 227.452 151.65 247.487 143.301C250.603 141.994 249.805 137.552 246.422 137.37C224.685 136.249 203.332 137.131 182.077 138.693C169.626 139.662 157.212 140.973 144.87 142.551C142.166 142.903 140.304 140.109 141.726 137.887C144.207 133.993 146.664 130.104 149.007 126.118C155.896 114.324 162.429 102.312 167.993 89.6313C169.355 86.5359 165.404 83.8715 162.805 86.1581C152.246 95.4951 142.676 105.475 133.442 115.698C130.33 119.19 127.325 122.732 124.347 126.293C122.649 128.331 119.267 127.614 118.687 125.064C115.988 113.418 113.029 101.816 109.741 90.2719C104.009 70.6643 97.5742 51.2014 89.0869 32.0704C87.7743 29.0891 83.0884 29.8999 82.894 33.1421C81.5858 53.9681 82.3221 74.4171 83.7689 94.7663C84.6788 106.722 85.9419 118.617 87.4876 130.463C87.8317 133.054 84.9033 134.863 82.5979 133.518C78.5587 131.171 74.4999 128.851 70.3592 126.615C58.1186 120.107 45.6482 113.941 32.4719 108.712C29.2556 107.431 26.4441 111.243 28.8067 113.717C38.4543 123.765 48.7802 132.86 59.3636 141.63C62.978 144.585 66.6468 147.438 70.3352 150.264C72.4456 151.875 71.6698 155.125 69.0057 155.702C56.839 158.389 44.7168 161.323 32.6514 164.574C12.1574 170.236 -8.19147 176.571 -28.2114 184.871C-31.3313 186.155 -30.525 190.642 -27.1459 190.801C-5.44055 191.881 15.8888 191.004 37.1201 189.445C49.5712 188.477 61.9851 187.165 74.3268 185.588C77.0314 185.236 78.8929 188.029 77.4712 190.252C74.9902 194.145 72.5368 198.057 70.1898 202.021C63.2818 213.841 56.7285 225.88 51.1729 238.606C49.811 241.701 53.7575 244.343 56.3614 242.079C66.944 232.738 76.5567 222.728 85.8105 212.477C88.9027 209.013 91.9121 205.493 94.8664 201.936C96.564 199.898 99.9462 200.615 100.526 203.165C103.198 214.793 106.152 226.372 109.46 237.889C115.196 257.52 121.635 277.005 130.173 296.15C131.509 299.128 136.148 298.325 136.366 295.079C137.717 274.222 136.977 253.75 135.526 233.379C134.62 221.445 133.361 209.573 131.82 197.75C131.476 195.159 134.404 193.35 136.709 194.695C140.725 197.046 144.78 199.343 148.893 201.561C161.161 208.087 173.659 214.271 186.883 219.493C190.099 220.773 192.887 216.966 190.548 214.488C180.896 204.416 170.539 195.281 159.928 186.492C156.341 183.556 152.695 180.699 149.011 177.895L148.949 177.953Z" fill="black"/>
<path d="M137.261 174.752C135.151 173.141 135.926 169.891 138.59 169.314C150.738 166.654 162.836 163.723 174.874 160.454C195.392 154.788 215.764 148.449 235.799 140.1C238.915 138.793 238.117 134.351 234.734 134.169C212.997 133.048 191.644 133.93 170.389 135.492C157.938 136.461 145.524 137.772 133.182 139.35C130.478 139.702 128.616 136.908 130.038 134.686C132.519 130.793 134.976 126.903 137.319 122.917C144.208 111.123 150.742 99.1112 156.305 86.4304C157.667 83.3349 153.717 80.6705 151.117 82.9572C140.558 92.2942 130.988 102.274 121.754 112.497C118.642 115.989 115.637 119.531 112.659 123.092C110.961 125.13 107.579 124.413 107 121.863C104.3 110.217 101.342 98.6153 98.0535 87.071C92.3212 67.4633 85.8865 48.0004 77.3992 28.8695C76.0866 25.8881 71.4007 26.699 71.2063 29.9411C69.8981 50.7672 70.6344 71.2161 72.0812 91.5654C72.9911 103.521 74.2542 115.416 75.7998 127.262C76.1439 129.853 73.2155 131.662 70.9102 130.317C66.8709 127.97 62.8122 125.65 58.6714 123.414C46.4309 116.906 33.9605 110.74 20.7842 105.511C17.5678 104.23 14.7564 108.042 17.119 110.516C26.7666 120.564 37.0925 129.659 47.6759 138.429C51.2903 141.384 54.9591 144.237 58.6474 147.063C60.7578 148.674 59.9821 151.924 57.318 152.501C45.1513 155.188 33.0291 158.123 20.9637 161.373C0.469699 167.035 -19.8792 173.37 -39.8992 181.67C-43.019 182.954 -42.2128 187.441 -38.8337 187.6C-17.1283 188.68 4.20106 187.803 25.4324 186.245C37.8835 185.276 50.2973 183.965 62.639 182.387C65.3436 182.035 67.2052 184.829 65.7835 187.051C63.3025 190.944 60.8491 194.856 58.5021 198.82C51.5941 210.641 45.0408 222.679 39.4851 235.405C38.1232 238.5 42.0698 241.142 44.6736 238.878C55.2563 229.537 64.8689 219.527 74.1228 209.276C77.215 205.812 80.2244 202.292 83.1786 198.735C84.8763 196.697 88.2585 197.414 88.8381 199.964C91.5099 211.592 94.4644 223.171 97.772 234.688C103.508 254.319 109.947 273.804 118.486 292.949C119.822 295.927 124.461 295.124 124.678 291.878C126.03 271.021 125.289 250.55 123.839 230.178C122.933 218.244 121.674 206.372 120.132 194.549C119.788 191.958 122.716 190.149 125.022 191.494C129.037 193.845 133.092 196.142 137.205 198.36C149.473 204.886 161.971 211.07 175.195 216.292C178.411 217.572 181.199 213.765 178.86 211.287C169.208 201.216 158.851 192.08 148.24 183.291C144.653 180.355 141.008 177.498 137.323 174.694L137.261 174.752Z" fill="#F9346C" stroke="black" stroke-width="4" stroke-linecap="round" stroke-linejoin="round"/>
</svg>
