<svg width="196" height="243" viewBox="0 0 196 243" fill="none" xmlns="http://www.w3.org/2000/svg">
<path d="M218.344 143.965L139.48 149.38C138.624 149.435 137.9 150.012 137.593 150.838L110.762 227.134C109.972 229.361 106.774 228.921 106.659 226.569L102.327 145.981C102.283 145.106 101.728 144.373 100.924 144.069L26.6188 117.559C24.4502 116.778 24.9199 113.502 27.2216 113.356L106.086 107.941C106.942 107.886 107.666 107.309 107.973 106.483L134.803 30.1871C135.594 27.9598 138.792 28.4002 138.907 30.7522L143.239 111.34C143.283 112.215 143.837 112.948 144.642 113.252L218.929 139.759C221.097 140.541 220.627 143.816 218.326 143.963L218.344 143.965Z" fill="black"/>
<path d="M209.479 129.644L130.615 135.058C129.758 135.114 129.035 135.69 128.728 136.517L101.897 212.813C101.107 215.04 97.9091 214.6 97.794 212.248L93.4621 131.66C93.418 130.785 92.8634 130.052 92.0588 129.748L17.7722 103.24C15.6036 102.459 16.0733 99.1836 18.3749 99.0372L97.2395 93.6229C98.0957 93.567 98.8191 92.9909 99.1262 92.1643L125.957 15.8685C126.747 13.6412 129.945 14.0816 130.06 16.4336L134.392 97.0215C134.436 97.8964 134.991 98.6292 135.795 98.9331L210.082 125.441C212.25 126.222 211.781 129.498 209.479 129.644V129.644Z" fill="#FCF43D" stroke="black" stroke-width="4" stroke-linecap="round" stroke-linejoin="round"/>
</svg>
