<svg width="135" height="200" viewBox="0 0 135 200" fill="none" xmlns="http://www.w3.org/2000/svg">
<path d="M102.037 13.6372C106.107 75.2592 115.503 89.2391 165.304 107.661C167.37 108.42 167.047 112 164.897 112.181C113.061 116.302 101.4 127.301 86.4673 186.246C85.8517 188.691 82.8341 188.266 82.6563 185.709C78.5859 124.087 69.1907 110.107 19.3889 91.6858C17.3235 90.9261 17.6464 87.3465 19.7967 87.165C71.6318 83.0441 83.2933 72.0457 98.2259 13.1004C98.8415 10.6558 101.859 11.0809 102.037 13.6372Z" fill="black"/>
<path d="M94.5018 14.4786C98.8345 75.7611 108.321 89.741 158.385 108.502C160.461 109.276 160.152 112.831 157.994 112.991C105.979 116.617 94.3178 127.442 79.5649 185.892C78.9567 188.316 75.926 187.866 75.7373 185.324C71.4046 124.041 61.9178 110.061 11.8538 91.3003C9.77761 90.5265 10.0874 86.9717 12.245 86.8108C64.2598 83.1855 75.9213 72.3602 90.6742 13.9105C91.2824 11.4864 94.3131 11.9363 94.5018 14.4786V14.4786Z" fill="#FCF43D"/>
<path d="M94.5018 14.4786C98.8345 75.7611 108.321 89.741 158.385 108.502C160.461 109.276 160.152 112.831 157.994 112.991C105.979 116.617 94.3178 127.442 79.5649 185.892C78.9567 188.316 75.926 187.866 75.7373 185.324C71.4046 124.041 61.9178 110.061 11.8538 91.3003C9.77761 90.5265 10.0874 86.9717 12.245 86.8108C64.2598 83.1855 75.9213 72.3602 90.6742 13.9105C91.2824 11.4864 94.3131 11.9363 94.5018 14.4786V14.4786Z" stroke="black" stroke-width="2.35" stroke-linecap="round" stroke-linejoin="round"/>
</svg>
