<svg width="263" height="354" viewBox="0 0 263 354" fill="none" xmlns="http://www.w3.org/2000/svg">
<path d="M234.641 210.515C235.61 204.163 145.477 183.957 145.477 183.957L114.91 177.104L127.669 167.955C127.669 167.955 177.015 132.571 173.452 127.127C169.888 121.684 120.541 157.068 120.541 157.068L107.782 166.217L112.713 133.91C112.713 133.91 127.253 38.6477 121.243 37.3003C115.233 35.953 100.693 131.215 100.693 131.215L95.7618 163.522L86.5474 149.447C86.5474 149.447 50.9097 95.0112 45.9751 98.5497C41.0404 102.088 76.678 156.524 76.678 156.524L85.8924 170.599L55.3248 163.746C55.3248 163.746 -34.8085 143.541 -35.778 149.893C-36.7475 156.245 53.3858 176.451 53.3858 176.451L83.9534 183.303L71.1943 192.452C71.1943 192.452 21.8475 227.837 25.4113 233.28C28.975 238.724 78.3219 203.34 78.3219 203.34L91.0809 194.191L86.1499 226.498C86.1499 226.498 71.6102 321.76 77.6203 323.107C83.6305 324.454 98.1702 229.192 98.1702 229.192L103.101 196.885L112.316 210.96C112.316 210.96 147.953 265.396 152.888 261.858C157.823 258.319 122.185 203.883 122.185 203.883L112.971 189.808L143.538 196.661C143.538 196.661 233.671 216.867 234.641 210.515Z" fill="black"/>
<path d="M235.294 203.526C236.264 197.173 146.131 176.967 146.131 176.967L115.563 170.115L128.322 160.966C128.322 160.966 177.669 125.582 174.105 120.138C170.541 114.694 121.194 150.079 121.194 150.079L108.435 159.228L113.366 126.921C113.366 126.921 127.906 31.6584 121.896 30.3111C115.886 28.9637 101.346 124.226 101.346 124.226L96.4151 156.533L87.2007 142.458C87.2007 142.458 51.5631 88.022 46.6284 91.5604C41.6937 95.0988 77.3313 149.535 77.3313 149.535L86.5458 163.61L55.9781 156.757C55.9781 156.757 -34.1551 136.551 -35.1247 142.903C-36.0942 149.256 54.0391 169.462 54.0391 169.462L84.6067 176.314L71.8477 185.463C71.8477 185.463 22.5008 220.847 26.0646 226.291C29.6284 231.735 78.9752 196.35 78.9752 196.35L91.7342 187.201L86.8032 219.508C86.8032 219.508 72.2635 314.771 78.2736 316.118C84.2838 317.465 98.8236 222.203 98.8236 222.203L103.755 189.896L112.969 203.971C112.969 203.971 148.607 258.407 153.541 254.869C158.476 251.33 122.838 196.894 122.838 196.894L113.624 182.819L144.192 189.672C144.192 189.672 234.325 209.878 235.294 203.526Z" fill="#FCF43D" stroke="black" stroke-width="2.35" stroke-linecap="round" stroke-linejoin="round"/>
</svg>
