<svg width="254" height="365" viewBox="0 0 254 365" fill="none" xmlns="http://www.w3.org/2000/svg">
<path d="M125.971 192.057C122.962 190.333 123.51 185.613 126.929 184.151C142.514 177.446 157.995 170.377 173.348 162.851C199.501 149.891 225.366 136.031 250.496 119.451C254.403 116.861 252.709 110.868 248.234 111.45C219.492 115.252 191.546 121.751 163.827 129.173C147.597 133.596 131.466 138.487 115.469 143.731C111.964 144.889 109.111 141.456 110.657 138.008C113.354 131.97 116.02 125.944 118.522 119.811C125.866 101.676 132.713 83.3252 138.187 64.2813C139.528 59.6317 133.947 56.8939 130.86 60.7219C118.333 76.339 107.2 92.6071 96.5436 109.133C92.9593 114.766 89.5223 120.444 86.1242 126.141C84.188 129.4 79.6371 129.236 78.5048 125.825C73.2646 110.262 67.6904 94.8258 61.691 79.5503C51.3073 53.6418 40.0212 28.1083 26.0845 3.54401C23.9258 -0.286595 17.8827 1.99979 18.0978 6.56572C19.4016 35.9096 23.3388 64.2235 28.1957 92.2231C31.1279 108.659 34.5157 124.923 38.2678 141.048C39.0965 144.574 35.5089 147.817 32.2826 146.512C26.6311 144.239 20.9579 142.007 15.189 139.913C-1.84949 133.865 -19.1406 128.351 -37.2238 124.316C-41.6385 123.325 -44.7815 129.33 -41.316 132.195C-27.1725 143.817 -12.2758 153.941 2.91253 163.551C8.09371 166.777 13.3316 169.847 18.5913 172.874C21.5999 174.599 21.0518 179.319 17.6329 180.781C2.02645 187.527 -13.4854 194.608 -28.8769 202.115C-54.9998 215.063 -80.8344 228.913 -105.951 245.42C-109.867 247.979 -108.155 254.033 -103.689 253.421C-74.9945 249.569 -47.0785 243.082 -19.3902 235.671C-3.16047 231.248 12.9706 226.357 28.9682 221.113C32.4731 219.955 35.3262 223.388 33.7797 226.836C31.083 232.874 28.4254 238.931 25.915 245.033C18.5488 263.21 11.6806 281.603 6.22386 300.708C4.88272 305.357 10.4552 308.065 13.5499 304.267C26.1075 288.639 37.2925 272.317 47.971 255.749C51.5336 250.158 54.9792 244.51 58.3469 238.825C60.2831 235.566 64.834 235.73 65.9663 239.141C71.1675 254.685 76.7331 270.091 82.7543 285.324C93.1466 311.263 104.441 336.827 118.447 361.399C120.636 365.218 126.619 362.955 126.434 358.377C125.182 328.98 121.237 300.636 116.371 272.606C113.447 256.2 110.068 239.967 106.325 223.872C105.496 220.346 109.084 217.103 112.31 218.408C117.931 220.693 123.596 222.894 129.326 224.969C146.403 231.036 163.733 236.569 181.877 240.582C186.292 241.572 189.404 235.578 185.969 232.702C171.817 221.05 156.873 210.876 141.646 201.247C136.503 198.04 131.296 194.959 126.045 191.962L125.971 192.057Z" fill="#8F55FF" stroke="black" stroke-width="2.35" stroke-linecap="round" stroke-linejoin="round"/>
</svg>
