<svg width="180" height="195" viewBox="0 0 180 195" fill="none" xmlns="http://www.w3.org/2000/svg">
<path d="M164.638 80.0988C114.562 103.421 105.721 117.131 105.201 172.388C105.183 174.679 102.108 175.477 101.317 173.397C82.4705 123.171 69.8484 115.022 16.3482 118.621C14.1305 118.774 13.5867 115.642 15.6615 114.665C65.7376 91.3435 74.5785 77.633 75.0981 22.3759C75.1161 20.0856 78.1914 19.2868 78.982 21.367C97.8286 71.5932 110.451 79.7422 163.951 76.1434C166.169 75.9905 166.712 79.1224 164.638 80.0988V80.0988Z" fill="#0071C6"/>
<path d="M164.638 80.0988C114.562 103.421 105.721 117.131 105.201 172.388C105.183 174.679 102.108 175.477 101.317 173.397C82.4705 123.171 69.8484 115.022 16.3482 118.621C14.1305 118.774 13.5867 115.642 15.6615 114.665C65.7376 91.3435 74.5785 77.633 75.0981 22.3759C75.1161 20.0856 78.1914 19.2868 78.982 21.367C97.8286 71.5932 110.451 79.7422 163.951 76.1434C166.169 75.9905 166.712 79.1224 164.638 80.0988V80.0988Z" stroke="black" stroke-width="2.35" stroke-linecap="round" stroke-linejoin="round"/>
</svg>
