<svg width="237" height="289" viewBox="0 0 237 289" fill="none" xmlns="http://www.w3.org/2000/svg">
<path d="M235.294 174.526C236.264 168.173 146.131 147.967 146.131 147.967L115.563 141.115L128.322 131.966C128.322 131.966 177.669 96.5816 174.105 91.1379C170.541 85.6943 121.194 121.079 121.194 121.079L108.435 130.228L113.366 97.9206C113.366 97.9206 127.906 2.65841 121.896 1.31107C115.886 -0.036284 101.346 95.2259 101.346 95.2259L96.4151 127.533L87.2007 113.458C87.2007 113.458 51.5631 59.022 46.6284 62.5604C41.6937 66.0988 77.3313 120.535 77.3313 120.535L86.5458 134.61L55.9781 127.757C55.9781 127.757 -34.1551 107.551 -35.1247 113.903C-36.0942 120.256 54.0391 140.462 54.0391 140.462L84.6067 147.314L71.8477 156.463C71.8477 156.463 22.5008 191.847 26.0646 197.291C29.6284 202.735 78.9752 167.35 78.9752 167.35L91.7342 158.201L86.8032 190.508C86.8032 190.508 72.2635 285.771 78.2736 287.118C84.2838 288.465 98.8236 193.203 98.8236 193.203L103.755 160.896L112.969 174.971C112.969 174.971 148.607 229.407 153.541 225.869C158.476 222.33 122.838 167.894 122.838 167.894L113.624 153.819L144.192 160.672C144.192 160.672 234.325 180.878 235.294 174.526Z" fill="#FCF43D" stroke="black" stroke-width="2.35" stroke-linecap="round" stroke-linejoin="round"/>
</svg>
