<svg width="188" height="203" viewBox="0 0 188 203" fill="none" xmlns="http://www.w3.org/2000/svg">
<path d="M169.726 88.1615C119.902 111.198 111.148 124.909 110.88 180.451C110.873 182.753 107.81 183.531 107.012 181.434C87.9934 130.791 75.3713 122.496 22.0434 125.679C19.8329 125.814 19.2766 122.661 21.3408 121.697C71.1652 98.6603 79.9183 84.9499 80.1864 29.4073C80.1939 27.1052 83.2566 26.3272 84.0543 28.4247C103.073 79.0676 115.695 87.362 169.023 84.1798C171.234 84.0442 171.79 87.1969 169.726 88.1615Z" fill="black"/>
<path d="M167.638 80.0988C117.562 103.421 108.721 117.131 108.201 172.388C108.183 174.679 105.108 175.477 104.317 173.397C85.4705 123.171 72.8484 115.022 19.3482 118.621C17.1305 118.774 16.5867 115.642 18.6615 114.665C68.7375 91.3435 77.5785 77.633 78.0981 22.3759C78.1161 20.0856 81.1914 19.2868 81.982 21.367C100.829 71.5932 113.451 79.7422 166.951 76.1434C169.169 75.9905 169.712 79.1225 167.638 80.0988Z" fill="#0071C6"/>
<path d="M167.638 80.0988C117.562 103.421 108.721 117.131 108.201 172.388C108.183 174.679 105.108 175.477 104.317 173.397C85.4705 123.171 72.8484 115.022 19.3482 118.621C17.1305 118.774 16.5867 115.642 18.6615 114.665C68.7376 91.3435 77.5785 77.633 78.0981 22.3759C78.1161 20.0856 81.1914 19.2868 81.982 21.367C100.829 71.5932 113.451 79.7422 166.951 76.1434C169.169 75.9905 169.712 79.1224 167.638 80.0988V80.0988Z" stroke="black" stroke-width="2.35" stroke-linecap="round" stroke-linejoin="round"/>
</svg>
