<svg width="235" height="243" viewBox="0 0 235 243" fill="none" xmlns="http://www.w3.org/2000/svg">
<path d="M152.03 129.376C150.09 128.149 150.428 125.087 152.621 124.248C162.621 120.397 172.553 116.303 182.401 111.908C199.177 104.33 215.765 96.1537 231.871 86.178C234.375 84.6193 233.267 80.6502 230.392 80.8791C211.923 82.3928 193.975 85.6931 176.175 89.6044C165.754 91.9447 155.397 94.5936 145.127 97.4779C142.877 98.1155 141.032 95.7784 142.016 93.5801C143.731 89.7296 145.427 85.8856 147.016 81.9668C151.683 70.3766 156.028 58.6288 159.488 46.3823C160.336 43.3925 156.739 41.4174 154.767 43.8121C146.761 53.5841 139.653 63.828 132.852 74.2562C130.565 77.8124 128.373 81.4031 126.205 85.0075C124.97 87.0691 122.044 86.8086 121.305 84.5442C117.888 74.2091 114.256 63.9452 110.351 53.772C103.595 36.5104 96.2589 19.4632 87.2219 2.95935C85.8221 0.386196 81.9436 1.67503 82.0961 4.66269C83.0252 23.8608 85.6444 42.4753 88.8539 60.9157C90.7901 71.743 93.0187 82.4732 95.4811 93.1256C96.0249 95.4549 93.7282 97.451 91.6497 96.4904C88.0089 94.8161 84.3543 93.1683 80.6386 91.607C69.6646 87.0854 58.5299 82.9035 46.8903 79.66C44.0488 78.8649 42.0465 82.6787 44.2836 84.6654C53.4134 92.7279 63.0229 99.8385 72.8183 106.623C76.1597 108.903 79.537 111.084 82.9282 113.237C84.868 114.464 84.5302 117.527 82.3365 118.366C72.3228 122.244 62.3711 126.343 52.4981 130.725C35.7418 138.297 19.1738 146.466 3.07556 156.395C0.565928 157.934 1.68515 161.943 4.55473 161.694C22.9926 160.147 40.9217 156.853 58.7016 152.948C69.1232 150.608 79.4799 147.959 89.7496 145.074C91.9996 144.437 93.8446 146.774 92.861 148.972C91.1458 152.823 89.4557 156.687 87.8605 160.586C83.1805 172.202 78.8214 183.977 75.372 196.264C74.5241 199.253 78.1154 201.208 80.0935 198.834C88.1193 189.055 95.2604 178.778 102.075 168.323C104.348 164.794 106.546 161.223 108.694 157.625C109.929 155.564 112.856 155.824 113.594 158.089C116.986 168.41 120.613 178.654 124.531 188.8C131.294 206.082 138.635 223.15 147.716 239.661C149.136 242.227 152.975 240.951 152.842 237.957C151.947 218.726 149.322 200.091 146.107 181.631C144.176 170.824 141.953 160.114 139.496 149.481C138.952 147.152 141.249 145.156 143.328 146.117C146.949 147.797 150.598 149.425 154.289 150.973C165.288 155.508 176.447 159.703 188.126 162.934C190.968 163.729 192.95 159.922 190.733 157.929C181.597 149.846 171.957 142.702 162.137 135.903C158.82 133.637 155.462 131.45 152.077 129.317L152.03 129.376Z" fill="#8F55FF" stroke="black" stroke-width="2.35" stroke-linecap="round" stroke-linejoin="round"/>
</svg>
