<svg width="329" height="472" viewBox="0 0 329 472" fill="none" xmlns="http://www.w3.org/2000/svg">
<path d="M466.445 261.783C467.168 251.368 312.359 234.206 312.359 234.206L259.857 228.386L280.05 211.44C280.05 211.44 358.148 145.9 351.361 137.727C344.574 129.555 266.476 195.096 266.476 195.096L246.283 212.042L249.963 159.074C249.963 159.074 260.812 2.88922 250.489 1.74484C240.166 0.600467 229.317 156.785 229.317 156.785L225.638 209.753L208.09 188.623C208.09 188.623 140.222 106.901 132.412 113.455C124.602 120.009 192.47 201.731 192.47 201.731L210.018 222.861L157.516 217.041C157.516 217.041 2.70708 199.879 1.98364 210.293C1.26019 220.708 156.07 237.87 156.07 237.87L208.571 243.69L188.378 260.636C188.378 260.636 110.281 326.176 117.067 334.348C123.854 342.521 201.952 276.98 201.952 276.98L222.145 260.034L218.465 313.002C218.465 313.002 207.616 469.187 217.939 470.331C228.262 471.475 239.111 315.291 239.111 315.291L242.791 262.323L260.338 283.453C260.338 283.453 328.207 365.175 336.016 358.621C343.826 352.067 275.958 270.345 275.958 270.345L258.41 249.215L310.912 255.035C310.912 255.035 465.721 272.197 466.445 261.783Z" fill="#0071C6" stroke="black" stroke-width="2.35" stroke-linecap="round" stroke-linejoin="round"/>
</svg>
