<svg width="317" height="312" viewBox="0 0 317 312" fill="none" xmlns="http://www.w3.org/2000/svg">
<path d="M192.16 184.094C190.893 181.963 192.657 179.3 195.139 179.649C206.464 181.213 217.838 182.518 229.275 183.501C248.8 185.09 268.427 186.03 288.445 185.056C291.561 184.897 292.377 180.653 289.535 179.39C271.257 171.316 252.632 165.164 233.861 159.653C222.847 156.474 211.749 153.613 200.623 151.015C198.183 150.451 197.53 147.34 199.501 145.809C202.946 143.124 206.37 140.434 209.728 137.621C219.626 129.282 229.293 120.633 238.353 111.069C240.568 108.735 238.078 105.061 235.074 106.266C222.856 111.207 211.27 117.047 199.889 123.214C196.038 125.333 192.262 127.533 188.503 129.759C186.357 131.035 183.696 129.292 184.061 126.816C185.679 115.493 187.061 104.125 188.14 92.7013C189.846 73.2505 190.901 53.7013 190.081 33.7823C189.962 30.6813 185.666 29.8849 184.404 32.7297C176.243 50.9838 169.964 69.5645 164.329 88.2869C161.07 99.3064 158.134 110.386 155.458 121.513C154.877 123.949 151.753 124.619 150.229 122.663C147.555 119.245 144.855 115.844 142.057 112.492C133.75 102.675 125.131 93.0896 115.589 84.1144C113.261 81.9203 109.56 84.4245 110.752 87.4119C115.636 99.562 121.426 111.077 127.545 122.385C129.649 126.21 131.834 129.962 134.044 133.696C135.311 135.827 133.547 138.49 131.066 138.142C119.715 136.595 108.319 135.285 96.8651 134.277C77.3619 132.692 57.756 131.757 37.7681 132.691C34.6565 132.829 33.832 137.115 36.6785 138.357C54.9429 146.384 73.5462 152.532 92.2954 158.039C103.309 161.218 114.407 164.079 125.533 166.677C127.973 167.241 128.627 170.352 126.656 171.883C123.211 174.568 119.783 177.279 116.429 180.071C106.505 188.427 96.8124 197.094 87.7434 206.702C85.5285 209.035 88.023 212.688 91.0229 211.504C103.263 206.567 114.896 200.714 126.302 194.529C130.127 192.427 133.9 190.249 137.637 188.019C139.783 186.744 142.444 188.486 142.079 190.962C140.443 202.26 139.066 213.606 138.012 225.012C136.302 244.485 135.243 264.055 136.102 284.004C136.243 287.109 140.495 287.897 141.779 285.057C149.988 266.789 156.27 248.187 161.909 229.443C165.165 218.445 168.096 207.387 170.769 196.281C171.349 193.845 174.473 193.175 175.998 195.131C178.65 198.545 181.353 201.924 184.134 205.251C192.458 215.094 201.095 224.705 210.68 233.688C213.008 235.882 216.688 233.374 215.518 230.39C210.637 218.219 204.835 206.657 198.697 195.323C196.611 191.523 194.448 187.775 192.233 184.063L192.16 184.094Z" fill="black"/>
<path d="M183.199 177.386C181.932 175.254 183.696 172.592 186.178 172.94C197.502 174.505 208.877 175.81 220.313 176.793C239.838 178.382 259.466 179.321 279.484 178.347C282.599 178.189 283.415 173.945 280.573 172.682C262.295 164.608 243.67 158.455 224.9 152.945C213.886 149.765 202.788 146.905 191.662 144.307C189.222 143.743 188.568 140.632 190.539 139.101C193.985 136.415 197.408 133.726 200.766 130.913C210.664 122.574 220.331 113.925 229.392 104.36C231.607 102.027 229.117 98.3524 226.112 99.558C213.894 104.499 202.308 110.338 190.928 116.506C187.077 118.625 183.3 120.825 179.541 123.051C177.396 124.326 174.735 122.584 175.099 120.108C176.718 108.784 178.099 97.4167 179.179 85.993C180.885 66.5423 181.939 46.993 181.12 27.074C181.001 23.9731 176.705 23.1767 175.442 26.0214C167.282 44.2755 161.003 62.8563 155.368 81.5786C152.109 92.5981 149.173 103.678 146.496 114.805C145.916 117.241 142.791 117.911 141.267 115.955C138.593 112.537 135.894 109.136 133.096 105.784C124.789 95.9666 116.169 86.3814 106.628 77.4061C104.3 75.212 100.599 77.7162 101.79 80.7037C106.675 92.8537 112.464 104.368 118.584 115.676C120.688 119.502 122.872 123.254 125.083 126.988C126.35 129.119 124.586 131.782 122.104 131.433C110.754 129.887 99.3577 128.577 87.9037 127.569C68.4005 125.984 48.7946 125.048 28.8067 125.983C25.6951 126.12 24.8706 130.407 27.7171 131.649C45.9815 139.676 64.5848 145.824 83.334 151.33C94.348 154.51 105.446 157.371 116.572 159.969C119.012 160.533 119.666 163.644 117.694 165.175C114.249 167.86 110.821 170.571 107.468 173.363C97.5439 181.719 87.851 190.386 78.7821 199.993C76.5671 202.327 79.0616 205.98 82.0616 204.796C94.3012 199.859 105.935 194.006 117.341 187.821C121.166 185.719 124.938 183.54 128.676 181.311C130.822 180.035 133.482 181.778 133.118 184.254C131.482 195.552 130.104 206.898 129.051 218.304C127.341 237.776 126.282 257.347 127.141 277.296C127.281 280.401 131.534 281.189 132.818 278.348C141.026 260.081 147.309 241.478 152.948 222.734C156.203 211.737 159.135 200.679 161.807 189.573C162.387 187.137 165.512 186.467 167.036 188.423C169.688 191.837 172.392 195.216 175.173 198.543C183.497 208.386 192.134 217.996 201.719 226.98C204.047 229.174 207.726 226.665 206.556 223.682C201.676 211.51 195.873 199.949 189.736 188.615C187.65 184.815 185.487 181.067 183.272 177.355L183.199 177.386Z" fill="#F9346C" stroke="black" stroke-width="2.35" stroke-linecap="round" stroke-linejoin="round"/>
</svg>
