<svg width="141" height="171" viewBox="0 0 141 171" fill="none" xmlns="http://www.w3.org/2000/svg">
<path d="M153.917 69.4182C153.124 66.5415 109.954 78.0761 109.954 78.0761L95.3131 81.9879L99.1256 75.3232C99.1256 75.3232 113.871 49.5468 111.275 48.0567C108.679 46.5667 93.9338 72.3431 93.9338 72.3431L90.1213 79.0078L86.088 64.3769C86.088 64.3769 74.195 21.2353 71.3164 22.0044C68.4378 22.7736 80.3307 65.9151 80.3307 65.9151L84.364 80.5461L77.6521 76.6934C77.6521 76.6934 51.6932 61.7927 50.2187 64.3703C48.7441 66.948 74.703 81.8487 74.703 81.8487L81.4149 85.7014L66.7742 89.6132C66.7742 89.6132 23.6038 101.148 24.3968 104.025C25.1899 106.901 68.3603 95.3666 68.3603 95.3666L83.001 91.4548L79.1884 98.1195C79.1884 98.1195 64.4431 123.896 67.0389 125.386C69.6348 126.876 84.3802 101.1 84.3802 101.1L88.1928 94.4349L92.2261 109.066C92.2261 109.066 104.119 152.207 106.998 151.438C109.876 150.669 97.9834 107.528 97.9834 107.528L93.95 92.8967L100.662 96.7494C100.662 96.7494 126.621 111.65 128.095 109.072C129.57 106.495 103.611 91.5941 103.611 91.5941L96.8991 87.7414L111.54 83.8295C111.54 83.8295 154.71 72.2949 153.917 69.4182Z" fill="black"/>
<path d="M148.106 67.0073C147.313 64.1306 104.143 75.6652 104.143 75.6652L89.502 79.577L93.3145 72.9123C93.3145 72.9123 108.06 47.1359 105.464 45.6458C102.868 44.1558 88.1227 69.9322 88.1227 69.9322L84.3102 76.5969L80.2769 61.966C80.2769 61.966 68.3839 18.8244 65.5053 19.5935C62.6267 20.3627 74.5196 63.5042 74.5196 63.5042L78.5529 78.1352L71.841 74.2825C71.841 74.2825 45.8821 59.3818 44.4076 61.9594C42.933 64.5371 68.8919 79.4378 68.8919 79.4378L75.6038 83.2905L60.9631 87.2023C60.9631 87.2023 17.7927 98.7369 18.5857 101.614C19.3788 104.49 62.5492 92.9557 62.5492 92.9557L77.1899 89.0439L73.3773 95.7086C73.3773 95.7086 58.632 121.485 61.2278 122.975C63.8237 124.465 78.5691 98.6888 78.5691 98.6888L82.3817 92.024L86.415 106.655C86.415 106.655 98.3079 149.797 101.187 149.027C104.065 148.258 92.1723 105.117 92.1723 105.117L88.139 90.4858L94.8509 94.3385C94.8509 94.3385 120.81 109.239 122.284 106.662C123.759 104.084 97.7999 89.1832 97.7999 89.1832L91.088 85.3305L105.729 81.4186C105.729 81.4186 148.899 69.884 148.106 67.0073Z" fill="white" stroke="black" stroke-width="2.35" stroke-linecap="round" stroke-linejoin="round"/>
</svg>
