<svg width="379" height="72" viewBox="0 0 379 72" fill="none" xmlns="http://www.w3.org/2000/svg">
<path d="M9.6941 71.8125H49.5941C53.4941 71.8125 56.3741 69.7125 57.8141 65.8125L61.9541 54.4125C63.3941 50.5125 62.0141 48.4125 58.1141 48.4125H37.4141L39.8141 41.8125H56.3141C57.8741 41.8125 59.0141 40.9725 59.6141 39.4125L60.0341 38.2125C60.6341 36.6525 60.0941 35.8125 58.5341 35.8125H42.0341L44.1941 29.8125H66.0941C67.6541 29.8125 68.7941 28.9725 69.3941 27.4125L69.8141 26.2125C70.3541 24.6525 69.8741 23.8125 68.3141 23.8125H27.2141C23.3141 23.8125 20.4341 25.9125 18.9941 29.8125L5.9141 65.8125C4.4741 69.7125 5.7941 71.8125 9.6941 71.8125ZM79.6433 71.8125H99.6833C110.303 71.8125 120.863 64.0725 124.763 53.4525L133.343 29.8125C134.783 25.9125 133.463 23.8125 129.563 23.8125H116.363C112.463 23.8125 109.583 25.9125 108.143 29.8125L95.9033 63.4125C95.3633 64.9725 94.2233 65.8125 92.6633 65.8125H91.4633C89.9033 65.8125 89.3633 64.9725 89.9033 63.4125L102.143 29.8125C103.583 25.9125 102.263 23.8125 98.3633 23.8125H85.1633C81.2633 23.8125 78.3833 25.9125 76.9433 29.8125L68.2433 53.8125C63.9833 65.5125 67.9433 71.8125 79.6433 71.8125ZM130.104 71.8125H170.004C173.904 71.8125 176.784 69.7125 178.224 65.8125L182.364 54.4125C183.804 50.5125 182.424 48.4125 178.524 48.4125H157.824L160.224 41.8125H176.724C178.284 41.8125 179.424 40.9725 180.024 39.4125L180.444 38.2125C181.044 36.6525 180.504 35.8125 178.944 35.8125H162.444L164.604 29.8125H186.504C188.064 29.8125 189.204 28.9725 189.804 27.4125L190.224 26.2125C190.764 24.6525 190.284 23.8125 188.724 23.8125H147.624C143.724 23.8125 140.844 25.9125 139.404 29.8125L126.324 65.8125C124.884 69.7125 126.204 71.8125 130.104 71.8125ZM187.993 71.8125H201.193C205.093 71.8125 207.973 69.7125 209.413 65.8125L221.653 32.2125C222.193 30.6525 223.333 29.8125 224.893 29.8125H226.093C227.653 29.8125 228.193 30.6525 227.653 32.2125L215.413 65.8125C213.973 69.7125 215.293 71.8125 219.193 71.8125H232.393C236.293 71.8125 239.173 69.7125 240.613 65.8125L251.533 35.8125C254.353 28.0125 251.713 23.8125 243.913 23.8125H211.513C203.713 23.8125 197.953 28.0125 195.133 35.8125L184.213 65.8125C182.773 69.7125 184.093 71.8125 187.993 71.8125ZM265.156 71.8125H278.356C282.256 71.8125 285.136 69.7125 286.576 65.8125L293.356 47.2125H302.056C305.956 47.2125 308.776 45.1125 310.216 41.2125L314.356 29.8125C315.796 25.9125 314.476 23.8125 310.576 23.8125H267.976C264.076 23.8125 261.196 25.9125 259.756 29.8125L255.616 41.2125C254.176 45.1125 255.556 47.2125 259.456 47.2125H268.156L261.376 65.8125C259.936 69.7125 261.256 71.8125 265.156 71.8125ZM311.04 71.8125H349.44C357.24 71.8125 363 67.6125 365.82 59.8125L366.9 56.8125C369.78 49.0125 367.08 44.8125 359.28 44.8125H342.48C340.92 44.8125 340.38 43.9725 340.98 42.4125L344.7 32.2125C345.24 30.6525 346.38 29.8125 347.94 29.8125H349.14C350.7 29.8125 351.24 30.6525 350.7 32.2125L349.8 34.6125C348.36 38.5125 349.74 40.6125 353.64 40.6125H366.84C370.74 40.6125 373.56 38.5125 375 34.6125L376.74 29.8125C378.18 25.9125 376.86 23.8125 372.96 23.8125H334.56C326.76 23.8125 321 28.0125 318.18 35.8125L317.1 38.8125C314.22 46.6125 316.92 50.8125 324.72 50.8125H341.52C343.08 50.8125 343.62 51.6525 343.02 53.2125L339.3 63.4125C338.76 64.9725 337.62 65.8125 336.06 65.8125H334.86C333.3 65.8125 332.76 64.9725 333.3 63.4125L334.2 61.0125C335.64 57.1125 334.26 55.0125 330.36 55.0125H317.16C313.26 55.0125 310.44 57.1125 309 61.0125L307.26 65.8125C305.82 69.7125 307.14 71.8125 311.04 71.8125Z" fill="black"/>
<path d="M57.8141 65.8125L60.6284 66.8516L60.6312 66.8441L60.6339 66.8365L57.8141 65.8125ZM61.9541 54.4125L59.1398 53.3734L59.137 53.3809L59.1343 53.3885L61.9541 54.4125ZM37.4141 48.4125L34.5947 47.3873L33.131 51.4125H37.4141V48.4125ZM39.8141 41.8125V38.8125H37.7128L36.9947 40.7873L39.8141 41.8125ZM59.6141 39.4125L62.4141 40.4894L62.4306 40.4467L62.4457 40.4036L59.6141 39.4125ZM60.0341 38.2125L57.2341 37.1356L57.2176 37.1783L57.2025 37.2214L60.0341 38.2125ZM42.0341 35.8125L39.2114 34.7963L37.7656 38.8125H42.0341V35.8125ZM44.1941 29.8125V26.8125H42.0856L41.3714 28.7963L44.1941 29.8125ZM69.3941 27.4125L72.1941 28.4894L72.2106 28.4467L72.2257 28.4036L69.3941 27.4125ZM69.8141 26.2125L72.6457 27.2036L72.6491 27.1938L69.8141 26.2125ZM18.9941 29.8125L16.1798 28.7734L16.1771 28.7807L16.1744 28.788L18.9941 29.8125ZM5.9141 65.8125L8.72839 66.8516L8.73109 66.8443L8.73375 66.837L5.9141 65.8125ZM9.6941 74.8125H49.5941V68.8125H9.6941V74.8125ZM49.5941 74.8125C52.1032 74.8125 54.4354 74.1283 56.395 72.6984C58.3434 71.2766 59.7427 69.2503 60.6284 66.8516L54.9998 64.7734C54.4455 66.2747 53.6848 67.2484 52.8582 67.8516C52.0428 68.4467 50.985 68.8125 49.5941 68.8125V74.8125ZM60.6339 66.8365L64.7739 55.4365L59.1343 53.3885L54.9943 64.7885L60.6339 66.8365ZM64.7684 55.4516C65.5964 53.2092 65.9871 50.542 64.5583 48.3249C63.0824 46.0346 60.4541 45.4125 58.1141 45.4125V51.4125C59.6741 51.4125 59.6858 51.8404 59.5149 51.5751C59.4535 51.4799 59.5151 51.4927 59.5104 51.7806C59.5054 52.0889 59.4228 52.6071 59.1398 53.3734L64.7684 55.4516ZM58.1141 45.4125H37.4141V51.4125H58.1141V45.4125ZM40.2335 49.4377L42.6335 42.8377L36.9947 40.7873L34.5947 47.3873L40.2335 49.4377ZM39.8141 44.8125H56.3141V38.8125H39.8141V44.8125ZM56.3141 44.8125C57.656 44.8125 58.9674 44.4419 60.0925 43.6209C61.2024 42.811 61.9502 41.6957 62.4141 40.4894L56.8141 38.3356C56.678 38.6893 56.5558 38.774 56.5557 38.7741C56.5512 38.7774 56.5443 38.7824 56.5223 38.7892C56.4979 38.7967 56.4335 38.8125 56.3141 38.8125V44.8125ZM62.4457 40.4036L62.8657 39.2036L57.2025 37.2214L56.7825 38.4214L62.4457 40.4036ZM62.8341 39.2894C63.2409 38.2318 63.6587 36.4585 62.6328 34.8291C61.5545 33.1165 59.6959 32.8125 58.5341 32.8125V38.8125C58.678 38.8125 58.6026 38.835 58.4072 38.7577C58.1787 38.6673 57.8224 38.45 57.5554 38.0259C57.2965 37.6147 57.2687 37.2428 57.2737 37.0851C57.278 36.9471 57.3052 36.9506 57.2341 37.1356L62.8341 39.2894ZM58.5341 32.8125H42.0341V38.8125H58.5341V32.8125ZM44.8568 36.8287L47.0168 30.8287L41.3714 28.7963L39.2114 34.7963L44.8568 36.8287ZM44.1941 32.8125H66.0941V26.8125H44.1941V32.8125ZM66.0941 32.8125C67.436 32.8125 68.7475 32.4419 69.8725 31.6209C70.9824 30.811 71.7302 29.6957 72.1941 28.4894L66.5941 26.3356C66.458 26.6893 66.3358 26.774 66.3357 26.7741C66.3312 26.7774 66.3243 26.7824 66.3023 26.7892C66.2779 26.7967 66.2136 26.8125 66.0941 26.8125V32.8125ZM72.2257 28.4036L72.6457 27.2036L66.9825 25.2214L66.5625 26.4214L72.2257 28.4036ZM72.6491 27.1938C72.9995 26.1815 73.3835 24.4538 72.4114 22.8631C71.3484 21.1237 69.4864 20.8125 68.3141 20.8125V26.8125C68.4594 26.8125 68.3717 26.8355 68.1613 26.7507C67.9114 26.65 67.5525 26.4186 67.2918 25.9919C67.0451 25.5883 67.0249 25.2367 67.0276 25.1134C67.03 25.0044 67.0489 25.0297 66.9791 25.2312L72.6491 27.1938ZM68.3141 20.8125H27.2141V26.8125H68.3141V20.8125ZM27.2141 20.8125C24.705 20.8125 22.3728 21.4967 20.4132 22.9266C18.4648 24.3484 17.0655 26.3747 16.1798 28.7734L21.8084 30.8516C22.3627 29.3503 23.1234 28.3766 23.95 27.7734C24.7654 27.1783 25.8232 26.8125 27.2141 26.8125V20.8125ZM16.1744 28.788L3.09445 64.788L8.73375 66.837L21.8138 30.837L16.1744 28.788ZM3.09981 64.7734C2.27982 66.9942 1.86499 69.6532 3.2629 71.8734C4.72186 74.1906 7.35681 74.8125 9.6941 74.8125V68.8125C8.96513 68.8125 8.55431 68.7112 8.3622 68.635C8.20437 68.5723 8.26698 68.5601 8.3403 68.6766C8.40418 68.778 8.34081 68.765 8.34793 68.467C8.3555 68.1504 8.44299 67.6246 8.72839 66.8516L3.09981 64.7734ZM124.763 53.4525L127.579 54.4867L127.583 54.476L124.763 53.4525ZM133.343 29.8125L130.529 28.7734L130.526 28.7812L130.523 28.789L133.343 29.8125ZM108.143 29.8125L105.329 28.7734L105.325 28.7857L108.143 29.8125ZM95.9033 63.4125L93.0845 62.3857L93.0763 62.4083L93.0684 62.4312L95.9033 63.4125ZM89.9033 63.4125L87.0845 62.3857L87.0763 62.4083L87.0684 62.4312L89.9033 63.4125ZM102.143 29.8125L99.329 28.7734L99.3245 28.7857L102.143 29.8125ZM76.9433 29.8125L74.129 28.7734L74.1259 28.7817L74.1229 28.7901L76.9433 29.8125ZM68.2433 53.8125L71.0623 54.8389L71.0637 54.8349L68.2433 53.8125ZM79.6433 74.8125H99.6833V68.8125H79.6433V74.8125ZM99.6833 74.8125C111.67 74.8125 123.284 66.1821 127.579 54.4867L121.947 52.4183C118.442 61.9629 108.937 68.8125 99.6833 68.8125V74.8125ZM127.583 54.476L136.163 30.836L130.523 28.789L121.943 52.429L127.583 54.476ZM136.158 30.8516C136.978 28.6308 137.392 25.9718 135.995 23.7516C134.536 21.4344 131.901 20.8125 129.563 20.8125V26.8125C130.292 26.8125 130.703 26.9138 130.895 26.99C131.053 27.0527 130.99 27.0649 130.917 26.9484C130.853 26.847 130.917 26.86 130.909 27.158C130.902 27.4746 130.814 28.0004 130.529 28.7734L136.158 30.8516ZM129.563 20.8125H116.363V26.8125H129.563V20.8125ZM116.363 20.8125C113.854 20.8125 111.522 21.4967 109.562 22.9266C107.614 24.3484 106.215 26.3747 105.329 28.7734L110.958 30.8516C111.512 29.3503 112.273 28.3766 113.099 27.7734C113.915 27.1783 114.972 26.8125 116.363 26.8125V20.8125ZM105.325 28.7857L93.0845 62.3857L98.7221 64.4393L110.962 30.8393L105.325 28.7857ZM93.0684 62.4312C92.9589 62.7474 92.8581 62.8031 92.8817 62.7857C92.8871 62.7816 92.8875 62.784 92.8684 62.7899C92.8466 62.7966 92.7833 62.8125 92.6633 62.8125V68.8125C94.0009 68.8125 95.3218 68.4439 96.4499 67.6093C97.5685 66.7819 98.3078 65.6376 98.7383 64.3938L93.0684 62.4312ZM92.6633 62.8125H91.4633V68.8125H92.6633V62.8125ZM91.4633 62.8125C91.3205 62.8125 91.3939 62.7903 91.5859 62.866C91.8106 62.9546 92.1527 63.1638 92.4133 63.5658C92.6652 63.9545 92.7003 64.3065 92.6999 64.4551C92.6995 64.5847 92.6744 64.5783 92.7383 64.3938L87.0684 62.4312C86.6991 63.4979 86.3517 65.2452 87.3784 66.8292C88.462 68.501 90.2845 68.8125 91.4633 68.8125V62.8125ZM92.7221 64.4393L104.962 30.8393L99.3245 28.7857L87.0845 62.3857L92.7221 64.4393ZM104.958 30.8516C105.778 28.6308 106.192 25.9718 104.795 23.7516C103.336 21.4344 100.701 20.8125 98.3633 20.8125V26.8125C99.0923 26.8125 99.5031 26.9138 99.6952 26.99C99.8531 27.0527 99.7904 27.0649 99.7171 26.9484C99.6532 26.847 99.7166 26.86 99.7095 27.158C99.7019 27.4746 99.6144 28.0004 99.329 28.7734L104.958 30.8516ZM98.3633 20.8125H85.1633V26.8125H98.3633V20.8125ZM85.1633 20.8125C82.6542 20.8125 80.322 21.4967 78.3624 22.9266C76.4141 24.3484 75.0147 26.3747 74.129 28.7734L79.7576 30.8516C80.3119 29.3503 81.0726 28.3766 81.8992 27.7734C82.7147 27.1783 83.7724 26.8125 85.1633 26.8125V20.8125ZM74.1229 28.7901L65.4229 52.7901L71.0637 54.8349L79.7637 30.8349L74.1229 28.7901ZM65.4244 52.7861C63.1953 58.9081 62.7429 64.5637 65.4224 68.8029C68.1637 73.1396 73.4037 74.8125 79.6433 74.8125V68.8125C74.1829 68.8125 71.593 67.3354 70.4942 65.5971C69.3338 63.7612 69.0313 60.4169 71.0623 54.8389L65.4244 52.7861ZM178.224 65.8125L181.039 66.8516L181.041 66.8441L181.044 66.8365L178.224 65.8125ZM182.364 54.4125L179.55 53.3734L179.547 53.3809L179.544 53.3885L182.364 54.4125ZM157.824 48.4125L155.005 47.3873L153.541 51.4125H157.824V48.4125ZM160.224 41.8125V38.8125H158.123L157.405 40.7873L160.224 41.8125ZM180.024 39.4125L182.824 40.4894L182.841 40.4467L182.856 40.4036L180.024 39.4125ZM180.444 38.2125L177.644 37.1356L177.628 37.1783L177.613 37.2214L180.444 38.2125ZM162.444 35.8125L159.622 34.7963L158.176 38.8125H162.444V35.8125ZM164.604 29.8125V26.8125H162.496L161.782 28.7963L164.604 29.8125ZM189.804 27.4125L192.604 28.4894L192.621 28.4467L192.636 28.4036L189.804 27.4125ZM190.224 26.2125L193.056 27.2036L193.059 27.1938L190.224 26.2125ZM139.404 29.8125L136.59 28.7734L136.587 28.7807L136.585 28.788L139.404 29.8125ZM126.324 65.8125L129.139 66.8516L129.141 66.8443L129.144 66.837L126.324 65.8125ZM130.104 74.8125H170.004V68.8125H130.104V74.8125ZM170.004 74.8125C172.513 74.8125 174.846 74.1283 176.805 72.6984C178.754 71.2766 180.153 69.2503 181.039 66.8516L175.41 64.7734C174.856 66.2747 174.095 67.2484 173.268 67.8516C172.453 68.4467 171.395 68.8125 170.004 68.8125V74.8125ZM181.044 66.8365L185.184 55.4365L179.544 53.3885L175.404 64.7885L181.044 66.8365ZM185.179 55.4516C186.007 53.2092 186.397 50.542 184.968 48.3249C183.493 46.0346 180.864 45.4125 178.524 45.4125V51.4125C180.084 51.4125 180.096 51.8404 179.925 51.5751C179.864 51.4799 179.925 51.4927 179.921 51.7806C179.916 52.0889 179.833 52.6071 179.55 53.3734L185.179 55.4516ZM178.524 45.4125H157.824V51.4125H178.524V45.4125ZM160.644 49.4377L163.044 42.8377L157.405 40.7873L155.005 47.3873L160.644 49.4377ZM160.224 44.8125H176.724V38.8125H160.224V44.8125ZM176.724 44.8125C178.066 44.8125 179.378 44.4419 180.503 43.6209C181.613 42.811 182.36 41.6957 182.824 40.4894L177.224 38.3356C177.088 38.6893 176.966 38.774 176.966 38.7741C176.961 38.7774 176.954 38.7824 176.932 38.7892C176.908 38.7967 176.844 38.8125 176.724 38.8125V44.8125ZM182.856 40.4036L183.276 39.2036L177.613 37.2214L177.193 38.4214L182.856 40.4036ZM183.244 39.2894C183.651 38.2318 184.069 36.4585 183.043 34.8291C181.965 33.1165 180.106 32.8125 178.944 32.8125V38.8125C179.088 38.8125 179.013 38.835 178.817 38.7577C178.589 38.6673 178.233 38.45 177.966 38.0259C177.707 37.6147 177.679 37.2428 177.684 37.0851C177.688 36.9471 177.715 36.9506 177.644 37.1356L183.244 39.2894ZM178.944 32.8125H162.444V38.8125H178.944V32.8125ZM165.267 36.8287L167.427 30.8287L161.782 28.7963L159.622 34.7963L165.267 36.8287ZM164.604 32.8125H186.504V26.8125H164.604V32.8125ZM186.504 32.8125C187.846 32.8125 189.158 32.4419 190.283 31.6209C191.393 30.811 192.14 29.6957 192.604 28.4894L187.004 26.3356C186.868 26.6893 186.746 26.774 186.746 26.7741C186.741 26.7774 186.734 26.7824 186.713 26.7892C186.688 26.7967 186.624 26.8125 186.504 26.8125V32.8125ZM192.636 28.4036L193.056 27.2036L187.393 25.2214L186.973 26.4214L192.636 28.4036ZM193.059 27.1938C193.41 26.1815 193.794 24.4538 192.822 22.8631C191.759 21.1237 189.897 20.8125 188.724 20.8125V26.8125C188.87 26.8125 188.782 26.8355 188.572 26.7507C188.322 26.65 187.963 26.4186 187.702 25.9919C187.455 25.5883 187.435 25.2367 187.438 25.1134C187.44 25.0044 187.459 25.0297 187.389 25.2312L193.059 27.1938ZM188.724 20.8125H147.624V26.8125H188.724V20.8125ZM147.624 20.8125C145.115 20.8125 142.783 21.4967 140.823 22.9266C138.875 24.3484 137.476 26.3747 136.59 28.7734L142.219 30.8516C142.773 29.3503 143.534 28.3766 144.36 27.7734C145.176 27.1783 146.233 26.8125 147.624 26.8125V20.8125ZM136.585 28.788L123.505 64.788L129.144 66.837L142.224 30.837L136.585 28.788ZM123.51 64.7734C122.69 66.9942 122.275 69.6532 123.673 71.8734C125.132 74.1906 127.767 74.8125 130.104 74.8125V68.8125C129.375 68.8125 128.964 68.7112 128.772 68.635C128.615 68.5723 128.677 68.5601 128.75 68.6766C128.814 68.778 128.751 68.765 128.758 68.467C128.766 68.1504 128.853 67.6246 129.139 66.8516L123.51 64.7734ZM209.413 65.8125L212.228 66.8516L212.232 66.8393L209.413 65.8125ZM221.653 32.2125L224.472 33.2393L224.481 33.2167L224.488 33.1938L221.653 32.2125ZM227.653 32.2125L230.472 33.2393L230.481 33.2167L230.488 33.1938L227.653 32.2125ZM215.413 65.8125L218.228 66.8516L218.232 66.8393L215.413 65.8125ZM240.613 65.8125L243.428 66.8516L243.433 66.8386L240.613 65.8125ZM251.533 35.8125L254.353 36.8386L254.355 36.8325L251.533 35.8125ZM195.133 35.8125L197.953 36.8386L197.955 36.8325L195.133 35.8125ZM184.213 65.8125L187.028 66.8516L187.033 66.8386L184.213 65.8125ZM187.993 74.8125H201.193V68.8125H187.993V74.8125ZM201.193 74.8125C203.703 74.8125 206.035 74.1283 207.994 72.6984C209.943 71.2766 211.342 69.2503 212.228 66.8516L206.599 64.7734C206.045 66.2747 205.284 67.2484 204.458 67.8516C203.642 68.4467 202.584 68.8125 201.193 68.8125V74.8125ZM212.232 66.8393L224.472 33.2393L218.835 31.1857L206.595 64.7857L212.232 66.8393ZM224.488 33.1938C224.598 32.8776 224.699 32.8219 224.675 32.8393C224.67 32.8434 224.669 32.841 224.688 32.8351C224.71 32.8284 224.774 32.8125 224.893 32.8125V26.8125C223.556 26.8125 222.235 27.1811 221.107 28.0157C219.988 28.8431 219.249 29.9874 218.819 31.2312L224.488 33.1938ZM224.893 32.8125H226.093V26.8125H224.893V32.8125ZM226.093 32.8125C226.236 32.8125 226.163 32.8347 225.971 32.759C225.746 32.6704 225.404 32.4612 225.144 32.0592C224.892 31.6705 224.856 31.3185 224.857 31.1699C224.857 31.0403 224.882 31.0467 224.819 31.2312L230.488 33.1938C230.858 32.1271 231.205 30.3798 230.178 28.7958C229.095 27.124 227.272 26.8125 226.093 26.8125V32.8125ZM224.835 31.1857L212.595 64.7857L218.232 66.8393L230.472 33.2393L224.835 31.1857ZM212.599 64.7734C211.779 66.9942 211.364 69.6532 212.762 71.8734C214.221 74.1906 216.856 74.8125 219.193 74.8125V68.8125C218.465 68.8125 218.054 68.7112 217.862 68.635C217.704 68.5723 217.766 68.5601 217.84 68.6766C217.904 68.778 217.84 68.765 217.847 68.467C217.855 68.1504 217.942 67.6246 218.228 66.8516L212.599 64.7734ZM219.193 74.8125H232.393V68.8125H219.193V74.8125ZM232.393 74.8125C234.903 74.8125 237.235 74.1283 239.194 72.6984C241.143 71.2766 242.542 69.2503 243.428 66.8516L237.799 64.7734C237.245 66.2747 236.484 67.2484 235.658 67.8516C234.842 68.4467 233.784 68.8125 232.393 68.8125V74.8125ZM243.433 66.8386L254.353 36.8386L248.714 34.7864L237.794 64.7864L243.433 66.8386ZM254.355 36.8325C255.863 32.6599 256.282 28.506 254.24 25.2823C252.137 21.9609 248.204 20.8125 243.913 20.8125V26.8125C247.423 26.8125 248.71 27.7641 249.172 28.4927C249.695 29.319 250.024 31.1651 248.712 34.7925L254.355 36.8325ZM243.913 20.8125H211.513V26.8125H243.913V20.8125ZM211.513 20.8125C207.055 20.8125 203.026 22.0213 199.684 24.4664C196.353 26.9042 193.887 30.4362 192.312 34.7925L197.955 36.8325C199.2 33.3888 201.024 30.9208 203.228 29.3086C205.421 27.7037 208.172 26.8125 211.513 26.8125V20.8125ZM192.314 34.7864L181.394 64.7864L187.033 66.8386L197.953 36.8386L192.314 34.7864ZM181.399 64.7734C180.579 66.9942 180.164 69.6532 181.562 71.8734C183.021 74.1906 185.656 74.8125 187.993 74.8125V68.8125C187.264 68.8125 186.854 68.7112 186.662 68.635C186.504 68.5723 186.566 68.5601 186.64 68.6766C186.704 68.778 186.64 68.765 186.647 68.467C186.655 68.1504 186.742 67.6246 187.028 66.8516L181.399 64.7734ZM286.576 65.8125L289.39 66.8516L289.394 66.8399L286.576 65.8125ZM293.356 47.2125V44.2125H291.256L290.537 46.1851L293.356 47.2125ZM310.216 41.2125L313.03 42.2516L313.033 42.2441L313.036 42.2365L310.216 41.2125ZM314.356 29.8125L311.542 28.7734L311.539 28.7809L311.536 28.7885L314.356 29.8125ZM259.756 29.8125L256.942 28.7734L256.939 28.7809L256.936 28.7885L259.756 29.8125ZM255.616 41.2125L258.43 42.2516L258.433 42.2441L258.436 42.2365L255.616 41.2125ZM268.156 47.2125L270.974 48.2399L272.442 44.2125H268.156V47.2125ZM261.376 65.8125L264.19 66.8516L264.194 66.8399L261.376 65.8125ZM265.156 74.8125H278.356V68.8125H265.156V74.8125ZM278.356 74.8125C280.865 74.8125 283.197 74.1283 285.157 72.6984C287.105 71.2766 288.504 69.2503 289.39 66.8516L283.762 64.7734C283.207 66.2747 282.447 67.2484 281.62 67.8516C280.805 68.4467 279.747 68.8125 278.356 68.8125V74.8125ZM289.394 66.8399L296.174 48.2399L290.537 46.1851L283.757 64.7851L289.394 66.8399ZM293.356 50.2125H302.056V44.2125H293.356V50.2125ZM302.056 50.2125C304.567 50.2125 306.89 49.527 308.839 48.0892C310.774 46.6623 312.15 44.6351 313.03 42.2516L307.402 40.1734C306.842 41.6899 306.088 42.6627 305.277 43.2608C304.481 43.848 303.445 44.2125 302.056 44.2125V50.2125ZM313.036 42.2365L317.176 30.8365L311.536 28.7885L307.396 40.1885L313.036 42.2365ZM317.17 30.8516C317.99 28.6308 318.405 25.9718 317.007 23.7516C315.548 21.4344 312.913 20.8125 310.576 20.8125V26.8125C311.305 26.8125 311.716 26.9138 311.908 26.99C312.066 27.0527 312.003 27.0649 311.93 26.9484C311.866 26.847 311.929 26.86 311.922 27.158C311.914 27.4746 311.827 28.0004 311.542 28.7734L317.17 30.8516ZM310.576 20.8125H267.976V26.8125H310.576V20.8125ZM267.976 20.8125C265.467 20.8125 263.134 21.4967 261.175 22.9266C259.227 24.3484 257.827 26.3747 256.942 28.7734L262.57 30.8516C263.124 29.3503 263.885 28.3766 264.712 27.7734C265.527 27.1783 266.585 26.8125 267.976 26.8125V20.8125ZM256.936 28.7885L252.796 40.1885L258.436 42.2365L262.576 30.8365L256.936 28.7885ZM252.802 40.1734C251.974 42.4158 251.583 45.083 253.012 47.3001C254.488 49.5904 257.116 50.2125 259.456 50.2125V44.2125C257.896 44.2125 257.884 43.7846 258.055 44.0499C258.116 44.1451 258.055 44.1322 258.059 43.8444C258.065 43.5361 258.147 43.0179 258.43 42.2516L252.802 40.1734ZM259.456 50.2125H268.156V44.2125H259.456V50.2125ZM265.337 46.1851L258.557 64.7851L264.194 66.8399L270.974 48.2399L265.337 46.1851ZM258.562 64.7734C257.742 66.9942 257.327 69.6532 258.725 71.8734C260.184 74.1906 262.819 74.8125 265.156 74.8125V68.8125C264.427 68.8125 264.016 68.7112 263.824 68.635C263.666 68.5723 263.729 68.5601 263.802 68.6766C263.866 68.778 263.803 68.765 263.81 68.467C263.817 68.1504 263.905 67.6246 264.19 66.8516L258.562 64.7734ZM365.82 59.8125L368.642 60.8325L368.643 60.8287L365.82 59.8125ZM366.9 56.8125L364.086 55.7734L364.082 55.7848L364.078 55.7963L366.9 56.8125ZM340.98 42.4125L343.78 43.4894L343.79 43.465L343.799 43.4404L340.98 42.4125ZM344.7 32.2125L347.519 33.2404L347.527 33.2172L347.535 33.1938L344.7 32.2125ZM350.7 32.2125L353.509 33.2659L353.523 33.23L353.535 33.1938L350.7 32.2125ZM349.8 34.6125L346.991 33.5591L346.989 33.5662L346.986 33.5734L349.8 34.6125ZM375 34.6125L377.815 35.6516L377.818 35.6433L377.821 35.6349L375 34.6125ZM376.74 29.8125L373.926 28.7734L373.923 28.7817L373.92 28.7901L376.74 29.8125ZM318.18 35.8125L315.359 34.7925L315.358 34.7963L318.18 35.8125ZM317.1 38.8125L319.915 39.8516L319.919 39.8402L319.923 39.8287L317.1 38.8125ZM343.02 53.2125L340.22 52.1356L340.211 52.16L340.202 52.1846L343.02 53.2125ZM339.3 63.4125L336.482 62.3846L336.473 62.4078L336.465 62.4312L339.3 63.4125ZM333.3 63.4125L330.491 62.3591L330.478 62.395L330.465 62.4312L333.3 63.4125ZM334.2 61.0125L337.009 62.0659L337.012 62.0588L337.015 62.0516L334.2 61.0125ZM309 61.0125L306.186 59.9734L306.183 59.9817L306.18 59.9901L309 61.0125ZM307.26 65.8125L310.075 66.8516L310.078 66.8433L310.081 66.8349L307.26 65.8125ZM311.04 74.8125H349.44V68.8125H311.04V74.8125ZM349.44 74.8125C353.899 74.8125 357.928 73.6037 361.269 71.1586C364.601 68.7208 367.067 65.1888 368.642 60.8325L362.999 58.7925C361.754 62.2362 359.93 64.7042 357.726 66.3164C355.533 67.9213 352.782 68.8125 349.44 68.8125V74.8125ZM368.643 60.8287L369.723 57.8287L364.078 55.7963L362.998 58.7963L368.643 60.8287ZM369.715 57.8516C371.259 53.67 371.684 49.5069 369.626 46.2757C367.513 42.9595 363.569 41.8125 359.28 41.8125V47.8125C362.792 47.8125 364.098 48.7655 364.565 49.4993C365.087 50.3181 365.422 52.155 364.086 55.7734L369.715 57.8516ZM359.28 41.8125H342.48V47.8125H359.28V41.8125ZM342.48 41.8125C342.336 41.8125 342.412 41.79 342.607 41.8673C342.836 41.9577 343.192 42.175 343.459 42.5991C343.718 43.0103 343.746 43.3821 343.741 43.5399C343.736 43.6779 343.709 43.6744 343.78 43.4894L338.18 41.3356C337.774 42.3932 337.356 44.1665 338.382 45.7959C339.46 47.5085 341.319 47.8125 342.48 47.8125V41.8125ZM343.799 43.4404L347.519 33.2404L341.882 31.1846L338.162 41.3846L343.799 43.4404ZM347.535 33.1938C347.645 32.8776 347.746 32.8219 347.722 32.8393C347.717 32.8434 347.716 32.841 347.735 32.8351C347.757 32.8284 347.82 32.8125 347.94 32.8125V26.8125C346.603 26.8125 345.282 27.1811 344.154 28.0157C343.035 28.8431 342.296 29.9874 341.865 31.2312L347.535 33.1938ZM347.94 32.8125H349.14V26.8125H347.94V32.8125ZM349.14 32.8125C349.283 32.8125 349.21 32.8347 349.018 32.759C348.793 32.6704 348.451 32.4612 348.19 32.0592C347.938 31.6705 347.903 31.3185 347.904 31.1699C347.904 31.0403 347.929 31.0467 347.865 31.2312L353.535 33.1938C353.905 32.1271 354.252 30.3798 353.225 28.7958C352.142 27.124 350.319 26.8125 349.14 26.8125V32.8125ZM347.891 31.1591L346.991 33.5591L352.609 35.6659L353.509 33.2659L347.891 31.1591ZM346.986 33.5734C346.158 35.8158 345.767 38.483 347.196 40.7001C348.672 42.9904 351.3 43.6125 353.64 43.6125V37.6125C352.08 37.6125 352.069 37.1846 352.24 37.4499C352.301 37.5451 352.239 37.5322 352.244 37.2444C352.249 36.9361 352.332 36.4179 352.615 35.6516L346.986 33.5734ZM353.64 43.6125H366.84V37.6125H353.64V43.6125ZM366.84 43.6125C369.352 43.6125 371.675 42.927 373.624 41.4892C375.558 40.0623 376.935 38.0351 377.815 35.6516L372.186 33.5734C371.626 35.0899 370.873 36.0627 370.062 36.6608C369.266 37.248 368.229 37.6125 366.84 37.6125V43.6125ZM377.821 35.6349L379.561 30.8349L373.92 28.7901L372.18 33.5901L377.821 35.6349ZM379.555 30.8516C380.375 28.6308 380.789 25.9718 379.392 23.7516C377.933 21.4344 375.298 20.8125 372.96 20.8125V26.8125C373.689 26.8125 374.1 26.9138 374.292 26.99C374.45 27.0527 374.387 27.0649 374.314 26.9484C374.25 26.847 374.314 26.86 374.307 27.158C374.299 27.4746 374.211 28.0004 373.926 28.7734L379.555 30.8516ZM372.96 20.8125H334.56V26.8125H372.96V20.8125ZM334.56 20.8125C330.102 20.8125 326.073 22.0213 322.731 24.4664C319.4 26.9042 316.934 30.4362 315.359 34.7925L321.002 36.8325C322.247 33.3888 324.071 30.9208 326.274 29.3086C328.468 27.7037 331.219 26.8125 334.56 26.8125V20.8125ZM315.358 34.7963L314.278 37.7963L319.923 39.8287L321.003 36.8287L315.358 34.7963ZM314.286 37.7734C312.742 41.955 312.317 46.1181 314.375 49.3493C316.488 52.6655 320.432 53.8125 324.72 53.8125V47.8125C321.209 47.8125 319.903 46.8595 319.436 46.1257C318.914 45.3069 318.579 43.47 319.915 39.8516L314.286 37.7734ZM324.72 53.8125H341.52V47.8125H324.72V53.8125ZM341.52 53.8125C341.664 53.8125 341.589 53.835 341.393 53.7577C341.165 53.6673 340.809 53.45 340.542 53.0259C340.283 52.6147 340.255 52.2428 340.26 52.0851C340.264 51.9471 340.291 51.9506 340.22 52.1356L345.82 54.2894C346.227 53.2318 346.645 51.4585 345.619 49.8291C344.541 48.1165 342.682 47.8125 341.52 47.8125V53.8125ZM340.202 52.1846L336.482 62.3846L342.119 64.4404L345.839 54.2404L340.202 52.1846ZM336.465 62.4312C336.356 62.7474 336.255 62.8031 336.279 62.7857C336.284 62.7816 336.284 62.784 336.265 62.7899C336.244 62.7966 336.18 62.8125 336.06 62.8125V68.8125C337.398 68.8125 338.719 68.4439 339.847 67.6093C340.966 66.7819 341.705 65.6376 342.135 64.3938L336.465 62.4312ZM336.06 62.8125H334.86V68.8125H336.06V62.8125ZM334.86 62.8125C334.718 62.8125 334.791 62.7903 334.983 62.866C335.208 62.9546 335.55 63.1638 335.81 63.5658C336.062 63.9545 336.097 64.3065 336.097 64.4551C336.096 64.5847 336.071 64.5783 336.135 64.3938L330.465 62.4312C330.096 63.4979 329.749 65.2452 330.775 66.8292C331.859 68.501 333.682 68.8125 334.86 68.8125V62.8125ZM336.109 64.4659L337.009 62.0659L331.391 59.9591L330.491 62.3591L336.109 64.4659ZM337.015 62.0516C337.843 59.8092 338.233 57.142 336.805 54.9249C335.329 52.6346 332.7 52.0125 330.36 52.0125V58.0125C331.92 58.0125 331.932 58.4404 331.761 58.1751C331.7 58.0799 331.761 58.0927 331.757 58.3806C331.752 58.6889 331.669 59.2071 331.386 59.9734L337.015 62.0516ZM330.36 52.0125H317.16V58.0125H330.36V52.0125ZM317.16 52.0125C314.649 52.0125 312.326 52.698 310.377 54.1358C308.443 55.5627 307.066 57.5899 306.186 59.9734L311.815 62.0516C312.375 60.5351 313.128 59.5623 313.939 58.9642C314.735 58.377 315.772 58.0125 317.16 58.0125V52.0125ZM306.18 59.9901L304.44 64.7901L310.081 66.8349L311.821 62.0349L306.18 59.9901ZM304.446 64.7734C303.626 66.9942 303.211 69.6532 304.609 71.8734C306.068 74.1906 308.703 74.8125 311.04 74.8125V68.8125C310.311 68.8125 309.901 68.7112 309.708 68.635C309.551 68.5723 309.613 68.5601 309.687 68.6766C309.75 68.778 309.687 68.765 309.694 68.467C309.702 68.1504 309.789 67.6246 310.075 66.8516L304.446 64.7734Z" fill="black"/>
<path d="M6.41737 66H46.3174C50.2174 66 53.0974 63.9 54.5374 60L58.6774 48.6C60.1174 44.7 58.7374 42.6 54.8374 42.6H34.1374L36.5374 36H53.0374C54.5974 36 55.7374 35.16 56.3374 33.6L56.7574 32.4C57.3574 30.84 56.8174 30 55.2574 30H38.7574L40.9174 24H62.8174C64.3774 24 65.5174 23.16 66.1174 21.6L66.5374 20.4C67.0774 18.84 66.5974 18 65.0374 18H23.9374C20.0374 18 17.1574 20.1 15.7174 24L2.63737 60C1.19737 63.9 2.51737 66 6.41737 66ZM76.3666 66H96.4066C107.027 66 117.587 58.26 121.487 47.64L130.067 24C131.507 20.1 130.187 18 126.287 18H113.087C109.187 18 106.307 20.1 104.867 24L92.6266 57.6C92.0866 59.16 90.9466 60 89.3866 60H88.1866C86.6266 60 86.0866 59.16 86.6266 57.6L98.8666 24C100.307 20.1 98.9866 18 95.0866 18H81.8866C77.9866 18 75.1066 20.1 73.6666 24L64.9666 48C60.7066 59.7 64.6666 66 76.3666 66ZM126.828 66H166.728C170.628 66 173.508 63.9 174.948 60L179.088 48.6C180.528 44.7 179.148 42.6 175.248 42.6H154.548L156.948 36H173.448C175.008 36 176.148 35.16 176.748 33.6L177.168 32.4C177.768 30.84 177.228 30 175.668 30H159.168L161.328 24H183.228C184.788 24 185.928 23.16 186.528 21.6L186.948 20.4C187.488 18.84 187.008 18 185.448 18H144.348C140.448 18 137.568 20.1 136.128 24L123.048 60C121.608 63.9 122.928 66 126.828 66ZM184.717 66H197.917C201.817 66 204.697 63.9 206.137 60L218.377 26.4C218.917 24.84 220.057 24 221.617 24H222.817C224.377 24 224.917 24.84 224.377 26.4L212.137 60C210.697 63.9 212.017 66 215.917 66H229.117C233.017 66 235.897 63.9 237.337 60L248.257 30C251.077 22.2 248.437 18 240.637 18H208.237C200.437 18 194.677 22.2 191.857 30L180.937 60C179.497 63.9 180.817 66 184.717 66ZM261.879 66H275.079C278.979 66 281.859 63.9 283.299 60L290.079 41.4H298.779C302.679 41.4 305.499 39.3 306.939 35.4L311.079 24C312.519 20.1 311.199 18 307.299 18H264.699C260.799 18 257.919 20.1 256.479 24L252.339 35.4C250.899 39.3 252.279 41.4 256.179 41.4H264.879L258.099 60C256.659 63.9 257.979 66 261.879 66ZM307.764 66H346.164C353.964 66 359.724 61.8 362.544 54L363.624 51C366.504 43.2 363.804 39 356.004 39H339.204C337.644 39 337.104 38.16 337.704 36.6L341.424 26.4C341.964 24.84 343.104 24 344.664 24H345.864C347.424 24 347.964 24.84 347.424 26.4L346.524 28.8C345.084 32.7 346.464 34.8 350.364 34.8H363.564C367.464 34.8 370.284 32.7 371.724 28.8L373.464 24C374.904 20.1 373.584 18 369.684 18H331.284C323.484 18 317.724 22.2 314.904 30L313.824 33C310.944 40.8 313.644 45 321.444 45H338.244C339.804 45 340.344 45.84 339.744 47.4L336.024 57.6C335.484 59.16 334.344 60 332.784 60H331.584C330.024 60 329.484 59.16 330.024 57.6L330.924 55.2C332.364 51.3 330.984 49.2 327.084 49.2H313.884C309.984 49.2 307.164 51.3 305.724 55.2L303.984 60C302.544 63.9 303.864 66 307.764 66Z" fill="white"/>
<path d="M54.5374 60L57.3517 61.0391L57.3544 61.0316L57.3572 61.024L54.5374 60ZM58.6774 48.6L55.8631 47.5609L55.8603 47.5684L55.8576 47.576L58.6774 48.6ZM34.1374 42.6L31.318 41.5748L29.8543 45.6H34.1374V42.6ZM36.5374 36V33H34.4361L33.718 34.9748L36.5374 36ZM56.3374 33.6L59.1374 34.6769L59.1538 34.6342L59.1689 34.5911L56.3374 33.6ZM56.7574 32.4L53.9573 31.3231L53.9409 31.3658L53.9258 31.4089L56.7574 32.4ZM38.7574 30L35.9347 28.9838L34.4889 33H38.7574V30ZM40.9174 24V21H38.8089L38.0947 22.9838L40.9174 24ZM66.1174 21.6L68.9174 22.6769L68.9338 22.6342L68.9489 22.5911L66.1174 21.6ZM66.5374 20.4L69.369 21.3911L69.3723 21.3813L66.5374 20.4ZM15.7174 24L12.9031 22.9609L12.9004 22.9682L12.8977 22.9755L15.7174 24ZM2.63737 60L5.45166 61.0391L5.45436 61.0318L5.45702 61.0245L2.63737 60ZM6.41737 69H46.3174V63H6.41737V69ZM46.3174 69C48.8265 69 51.1587 68.3158 53.1183 66.8859C55.0666 65.4641 56.466 63.4378 57.3517 61.0391L51.7231 58.9609C51.1688 60.4622 50.4081 61.4359 49.5815 62.0391C48.766 62.6342 47.7083 63 46.3174 63V69ZM57.3572 61.024L61.4972 49.624L55.8576 47.576L51.7176 58.976L57.3572 61.024ZM61.4917 49.6391C62.3196 47.3967 62.7104 44.7295 61.2816 42.5124C59.8056 40.2221 57.1774 39.6 54.8374 39.6V45.6C56.3974 45.6 56.4091 46.0279 56.2382 45.7626C56.1768 45.6674 56.2384 45.6802 56.2337 45.9681C56.2287 46.2764 56.146 46.7946 55.8631 47.5609L61.4917 49.6391ZM54.8374 39.6H34.1374V45.6H54.8374V39.6ZM36.9567 43.6252L39.3568 37.0252L33.718 34.9748L31.318 41.5748L36.9567 43.6252ZM36.5374 39H53.0374V33H36.5374V39ZM53.0374 39C54.3792 39 55.6907 38.6294 56.8158 37.8084C57.9257 36.9985 58.6735 35.8832 59.1374 34.6769L53.5373 32.5231C53.4013 32.8768 53.2791 32.9615 53.279 32.9616C53.2745 32.9649 53.2676 32.9699 53.2456 32.9767C53.2212 32.9842 53.1568 33 53.0374 33V39ZM59.1689 34.5911L59.5889 33.3911L53.9258 31.4089L53.5058 32.6089L59.1689 34.5911ZM59.5574 33.4769C59.9642 32.4193 60.382 30.646 59.3561 29.0166C58.2778 27.304 56.4192 27 55.2574 27V33C55.4013 33 55.3259 33.0225 55.1305 32.9452C54.902 32.8548 54.5457 32.6375 54.2787 32.2134C54.0198 31.8022 53.992 31.4303 53.997 31.2726C54.0013 31.1346 54.0285 31.1381 53.9573 31.3231L59.5574 33.4769ZM55.2574 27H38.7574V33H55.2574V27ZM41.58 31.0162L43.74 25.0162L38.0947 22.9838L35.9347 28.9838L41.58 31.0162ZM40.9174 27H62.8174V21H40.9174V27ZM62.8174 27C64.1592 27 65.4707 26.6294 66.5958 25.8084C67.7057 24.9985 68.4535 23.8832 68.9174 22.6769L63.3173 20.5231C63.1813 20.8768 63.0591 20.9615 63.059 20.9616C63.0545 20.9649 63.0476 20.9699 63.0256 20.9767C63.0012 20.9842 62.9368 21 62.8174 21V27ZM68.9489 22.5911L69.3689 21.3911L63.7058 19.4089L63.2858 20.6089L68.9489 22.5911ZM69.3723 21.3813C69.7227 20.369 70.1068 18.6413 69.1347 17.0506C68.0717 15.3112 66.2096 15 65.0374 15V21C65.1827 21 65.0949 21.023 64.8846 20.9382C64.6347 20.8375 64.2758 20.6061 64.015 20.1794C63.7684 19.7758 63.7482 19.4242 63.7509 19.3009C63.7533 19.1919 63.7721 19.2172 63.7024 19.4187L69.3723 21.3813ZM65.0374 15H23.9374V21H65.0374V15ZM23.9374 15C21.4283 15 19.096 15.6842 17.1365 17.1141C15.1881 18.5359 13.7888 20.5622 12.9031 22.9609L18.5317 25.0391C19.086 23.5378 19.8466 22.5641 20.6733 21.9609C21.4887 21.3658 22.5465 21 23.9374 21V15ZM12.8977 22.9755L-0.182288 58.9755L5.45702 61.0245L18.537 25.0245L12.8977 22.9755ZM-0.176923 58.9609C-0.996914 61.1817 -1.41174 63.8407 -0.0138316 66.0609C1.44513 68.3781 4.08007 69 6.41737 69V63C5.68839 63 5.27758 62.8987 5.08547 62.8225C4.92764 62.7598 4.99025 62.7476 5.06357 62.8641C5.12745 62.9655 5.06407 62.9525 5.0712 62.6545C5.07876 62.3379 5.16626 61.8121 5.45166 61.0391L-0.176923 58.9609ZM121.487 47.64L124.303 48.6742L124.307 48.6635L121.487 47.64ZM130.067 24L127.252 22.9609L127.249 22.9687L127.247 22.9765L130.067 24ZM104.867 24L102.052 22.9609L102.048 22.9732L104.867 24ZM92.6266 57.6L89.8078 56.5732L89.7995 56.5958L89.7916 56.6187L92.6266 57.6ZM86.6266 57.6L83.8078 56.5732L83.7995 56.5958L83.7916 56.6187L86.6266 57.6ZM98.8666 24L96.0523 22.9609L96.0478 22.9732L98.8666 24ZM73.6666 24L70.8523 22.9609L70.8492 22.9692L70.8462 22.9776L73.6666 24ZM64.9666 48L67.7855 49.0264L67.787 49.0224L64.9666 48ZM76.3666 69H96.4066V63H76.3666V69ZM96.4066 69C108.393 69 120.008 60.3696 124.303 48.6742L118.67 46.6058C115.165 56.1504 105.66 63 96.4066 63V69ZM124.307 48.6635L132.887 25.0235L127.247 22.9765L118.667 46.6165L124.307 48.6635ZM132.881 25.0391C133.701 22.8183 134.116 20.1593 132.718 17.9391C131.259 15.6219 128.624 15 126.287 15V21C127.016 21 127.426 21.1013 127.618 21.1775C127.776 21.2402 127.714 21.2524 127.64 21.1359C127.577 21.0345 127.64 21.0475 127.633 21.3455C127.625 21.6621 127.538 22.1879 127.252 22.9609L132.881 25.0391ZM126.287 15H113.087V21H126.287V15ZM113.087 15C110.577 15 108.245 15.6842 106.286 17.1141C104.337 18.5359 102.938 20.5622 102.052 22.9609L107.681 25.0391C108.235 23.5378 108.996 22.5641 109.822 21.9609C110.638 21.3658 111.696 21 113.087 21V15ZM102.048 22.9732L89.8078 56.5732L95.4454 58.6268L107.685 25.0268L102.048 22.9732ZM89.7916 56.6187C89.6822 56.9349 89.5814 56.9906 89.605 56.9732C89.6104 56.9691 89.6107 56.9715 89.5916 56.9774C89.5699 56.9841 89.5065 57 89.3866 57V63C90.7241 63 92.045 62.6314 93.1732 61.7968C94.2918 60.9694 95.031 59.8251 95.4615 58.5813L89.7916 56.6187ZM89.3866 57H88.1866V63H89.3866V57ZM88.1866 57C88.0438 57 88.1172 56.9778 88.3091 57.0535C88.5339 57.1421 88.876 57.3513 89.1365 57.7533C89.3885 58.142 89.4236 58.494 89.4231 58.6426C89.4227 58.7722 89.3977 58.7658 89.4615 58.5813L83.7916 56.6187C83.4224 57.6854 83.075 59.4327 84.1016 61.0167C85.1852 62.6885 87.0078 63 88.1866 63V57ZM89.4454 58.6268L101.685 25.0268L96.0478 22.9732L83.8078 56.5732L89.4454 58.6268ZM101.681 25.0391C102.501 22.8183 102.916 20.1593 101.518 17.9391C100.059 15.6219 97.4239 15 95.0866 15V21C95.8156 21 96.2264 21.1013 96.4185 21.1775C96.5763 21.2402 96.5137 21.2524 96.4404 21.1359C96.3765 21.0345 96.4399 21.0475 96.4328 21.3455C96.4252 21.6621 96.3377 22.1879 96.0523 22.9609L101.681 25.0391ZM95.0866 15H81.8866V21H95.0866V15ZM81.8866 15C79.3775 15 77.0453 15.6842 75.0857 17.1141C73.1373 18.5359 71.738 20.5622 70.8523 22.9609L76.4809 25.0391C77.0352 23.5378 77.7959 22.5641 78.6225 21.9609C79.4379 21.3658 80.4957 21 81.8866 21V15ZM70.8462 22.9776L62.1462 46.9776L67.787 49.0224L76.487 25.0224L70.8462 22.9776ZM62.1476 46.9736C59.9186 53.0956 59.4661 58.7512 62.1457 62.9904C64.8869 67.3271 70.127 69 76.3666 69V63C70.9062 63 68.3162 61.5229 67.2175 59.7846C66.057 57.9487 65.7546 54.6044 67.7855 49.0264L62.1476 46.9736ZM174.948 60L177.762 61.0391L177.765 61.0316L177.767 61.024L174.948 60ZM179.088 48.6L176.273 47.5609L176.27 47.5684L176.268 47.576L179.088 48.6ZM154.548 42.6L151.728 41.5748L150.264 45.6H154.548V42.6ZM156.948 36V33H154.846L154.128 34.9748L156.948 36ZM176.748 33.6L179.548 34.6769L179.564 34.6342L179.579 34.5911L176.748 33.6ZM177.168 32.4L174.367 31.3231L174.351 31.3658L174.336 31.4089L177.168 32.4ZM159.168 30L156.345 28.9838L154.899 33H159.168V30ZM161.328 24V21H159.219L158.505 22.9838L161.328 24ZM186.528 21.6L189.328 22.6769L189.344 22.6342L189.359 22.5911L186.528 21.6ZM186.948 20.4L189.779 21.3911L189.782 21.3813L186.948 20.4ZM136.128 24L133.313 22.9609L133.311 22.9682L133.308 22.9755L136.128 24ZM123.048 60L125.862 61.0391L125.865 61.0318L125.867 61.0245L123.048 60ZM126.828 69H166.728V63H126.828V69ZM166.728 69C169.237 69 171.569 68.3158 173.528 66.8859C175.477 65.4641 176.876 63.4378 177.762 61.0391L172.133 58.9609C171.579 60.4622 170.818 61.4359 169.992 62.0391C169.176 62.6342 168.118 63 166.728 63V69ZM177.767 61.024L181.907 49.624L176.268 47.576L172.128 58.976L177.767 61.024ZM181.902 49.6391C182.73 47.3967 183.121 44.7295 181.692 42.5124C180.216 40.2221 177.588 39.6 175.248 39.6V45.6C176.808 45.6 176.819 46.0279 176.648 45.7626C176.587 45.6674 176.649 45.6802 176.644 45.9681C176.639 46.2764 176.556 46.7946 176.273 47.5609L181.902 49.6391ZM175.248 39.6H154.548V45.6H175.248V39.6ZM157.367 43.6252L159.767 37.0252L154.128 34.9748L151.728 41.5748L157.367 43.6252ZM156.948 39H173.448V33H156.948V39ZM173.448 39C174.789 39 176.101 38.6294 177.226 37.8084C178.336 36.9985 179.084 35.8832 179.548 34.6769L173.947 32.5231C173.811 32.8768 173.689 32.9615 173.689 32.9616C173.685 32.9649 173.678 32.9699 173.656 32.9767C173.631 32.9842 173.567 33 173.448 33V39ZM179.579 34.5911L179.999 33.3911L174.336 31.4089L173.916 32.6089L179.579 34.5911ZM179.968 33.4769C180.374 32.4193 180.792 30.646 179.766 29.0166C178.688 27.304 176.829 27 175.668 27V33C175.811 33 175.736 33.0225 175.541 32.9452C175.312 32.8548 174.956 32.6375 174.689 32.2134C174.43 31.8022 174.402 31.4303 174.407 31.2726C174.411 31.1346 174.439 31.1381 174.367 31.3231L179.968 33.4769ZM175.668 27H159.168V33H175.668V27ZM161.99 31.0162L164.15 25.0162L158.505 22.9838L156.345 28.9838L161.99 31.0162ZM161.328 27H183.228V21H161.328V27ZM183.228 27C184.569 27 185.881 26.6294 187.006 25.8084C188.116 24.9985 188.864 23.8832 189.328 22.6769L183.727 20.5231C183.591 20.8768 183.469 20.9615 183.469 20.9616C183.465 20.9649 183.458 20.9699 183.436 20.9767C183.411 20.9842 183.347 21 183.228 21V27ZM189.359 22.5911L189.779 21.3911L184.116 19.4089L183.696 20.6089L189.359 22.5911ZM189.782 21.3813C190.133 20.369 190.517 18.6413 189.545 17.0506C188.482 15.3112 186.62 15 185.448 15V21C185.593 21 185.505 21.023 185.295 20.9382C185.045 20.8375 184.686 20.6061 184.425 20.1794C184.179 19.7758 184.158 19.4242 184.161 19.3009C184.163 19.1919 184.182 19.2172 184.113 19.4187L189.782 21.3813ZM185.448 15H144.348V21H185.448V15ZM144.348 15C141.838 15 139.506 15.6842 137.547 17.1141C135.598 18.5359 134.199 20.5622 133.313 22.9609L138.942 25.0391C139.496 23.5378 140.257 22.5641 141.083 21.9609C141.899 21.3658 142.957 21 144.348 21V15ZM133.308 22.9755L120.228 58.9755L125.867 61.0245L138.947 25.0245L133.308 22.9755ZM120.233 58.9609C119.413 61.1817 118.998 63.8407 120.396 66.0609C121.855 68.3781 124.49 69 126.828 69V63C126.099 63 125.688 62.8987 125.496 62.8225C125.338 62.7598 125.4 62.7476 125.474 62.8641C125.538 62.9655 125.474 62.9525 125.481 62.6545C125.489 62.3379 125.576 61.8121 125.862 61.0391L120.233 58.9609ZM206.137 60L208.951 61.0391L208.956 61.0268L206.137 60ZM218.377 26.4L221.196 27.4268L221.204 27.4042L221.212 27.3813L218.377 26.4ZM224.377 26.4L227.196 27.4268L227.204 27.4042L227.212 27.3813L224.377 26.4ZM212.137 60L214.951 61.0391L214.956 61.0268L212.137 60ZM237.337 60L240.151 61.0391L240.156 61.0261L237.337 60ZM248.257 30L251.076 31.0261L251.078 31.02L248.257 30ZM191.857 30L194.676 31.0261L194.678 31.02L191.857 30ZM180.937 60L183.751 61.0391L183.756 61.0261L180.937 60ZM184.717 69H197.917V63H184.717V69ZM197.917 69C200.426 69 202.758 68.3158 204.718 66.8859C206.666 65.4641 208.065 63.4378 208.951 61.0391L203.322 58.9609C202.768 60.4622 202.007 61.4359 201.181 62.0391C200.365 62.6342 199.308 63 197.917 63V69ZM208.956 61.0268L221.196 27.4268L215.558 25.3732L203.318 58.9732L208.956 61.0268ZM221.212 27.3813C221.321 27.0651 221.422 27.0094 221.398 27.0268C221.393 27.0309 221.393 27.0285 221.412 27.0226C221.433 27.0159 221.497 27 221.617 27V21C220.279 21 218.958 21.3686 217.83 22.2032C216.712 23.0306 215.972 24.1749 215.542 25.4187L221.212 27.3813ZM221.617 27H222.817V21H221.617V27ZM222.817 27C222.96 27 222.886 27.0222 222.694 26.9465C222.469 26.8579 222.127 26.6487 221.867 26.2467C221.615 25.858 221.58 25.506 221.58 25.3574C221.581 25.2278 221.606 25.2342 221.542 25.4187L227.212 27.3813C227.581 26.3146 227.928 24.5673 226.902 22.9833C225.818 21.3115 223.996 21 222.817 21V27ZM221.558 25.3732L209.318 58.9732L214.956 61.0268L227.196 27.4268L221.558 25.3732ZM209.322 58.9609C208.502 61.1817 208.088 63.8407 209.486 66.0609C210.945 68.3781 213.579 69 215.917 69V63C215.188 63 214.777 62.8987 214.585 62.8225C214.427 62.7598 214.49 62.7476 214.563 62.8641C214.627 62.9655 214.563 62.9525 214.571 62.6545C214.578 62.3379 214.666 61.8121 214.951 61.0391L209.322 58.9609ZM215.917 69H229.117V63H215.917V69ZM229.117 69C231.626 69 233.958 68.3158 235.918 66.8859C237.866 65.4641 239.265 63.4378 240.151 61.0391L234.522 58.9609C233.968 60.4622 233.207 61.4359 232.381 62.0391C231.565 62.6342 230.508 63 229.117 63V69ZM240.156 61.0261L251.076 31.0261L245.438 28.9739L234.518 58.9739L240.156 61.0261ZM251.078 31.02C252.587 26.8474 253.005 22.6935 250.964 19.4698C248.86 16.1484 244.927 15 240.637 15V21C244.146 21 245.433 21.9516 245.895 22.6802C246.418 23.5065 246.747 25.3526 245.435 28.98L251.078 31.02ZM240.637 15H208.237V21H240.637V15ZM208.237 15C203.779 15 199.749 16.2088 196.408 18.6539C193.076 21.0917 190.61 24.6237 189.035 28.98L194.678 31.02C195.923 27.5763 197.747 25.1083 199.951 23.4961C202.144 21.8912 204.895 21 208.237 21V15ZM189.038 28.9739L178.118 58.9739L183.756 61.0261L194.676 31.0261L189.038 28.9739ZM178.122 58.9609C177.302 61.1817 176.888 63.8407 178.286 66.0609C179.745 68.3781 182.379 69 184.717 69V63C183.988 63 183.577 62.8987 183.385 62.8225C183.227 62.7598 183.29 62.7476 183.363 62.8641C183.427 62.9655 183.363 62.9525 183.371 62.6545C183.378 62.3379 183.466 61.8121 183.751 61.0391L178.122 58.9609ZM283.299 60L286.113 61.0391L286.118 61.0274L283.299 60ZM290.079 41.4V38.4H287.98L287.26 40.3726L290.079 41.4ZM306.939 35.4L309.753 36.4391L309.756 36.4316L309.759 36.424L306.939 35.4ZM311.079 24L308.265 22.9609L308.262 22.9684L308.259 22.976L311.079 24ZM256.479 24L253.665 22.9609L253.662 22.9684L253.659 22.976L256.479 24ZM252.339 35.4L255.153 36.4391L255.156 36.4316L255.159 36.424L252.339 35.4ZM264.879 41.4L267.698 42.4274L269.166 38.4H264.879V41.4ZM258.099 60L260.913 61.0391L260.918 61.0274L258.099 60ZM261.879 69H275.079V63H261.879V69ZM275.079 69C277.588 69 279.92 68.3158 281.88 66.8859C283.828 65.4641 285.228 63.4378 286.113 61.0391L280.485 58.9609C279.93 60.4622 279.17 61.4359 278.343 62.0391C277.528 62.6342 276.47 63 275.079 63V69ZM286.118 61.0274L292.898 42.4274L287.26 40.3726L280.48 58.9726L286.118 61.0274ZM290.079 44.4H298.779V38.4H290.079V44.4ZM298.779 44.4C301.29 44.4 303.614 43.7145 305.563 42.2767C307.497 40.8498 308.873 38.8226 309.753 36.4391L304.125 34.3609C303.565 35.8774 302.811 36.8502 302.001 37.4483C301.205 38.0355 300.168 38.4 298.779 38.4V44.4ZM309.759 36.424L313.899 25.024L308.259 22.976L304.119 34.376L309.759 36.424ZM313.893 25.0391C314.713 22.8183 315.128 20.1593 313.73 17.9391C312.271 15.6219 309.636 15 307.299 15V21C308.028 21 308.439 21.1013 308.631 21.1775C308.789 21.2402 308.726 21.2524 308.653 21.1359C308.589 21.0345 308.652 21.0475 308.645 21.3455C308.638 21.6621 308.55 22.1879 308.265 22.9609L313.893 25.0391ZM307.299 15H264.699V21H307.299V15ZM264.699 15C262.19 15 259.858 15.6842 257.898 17.1141C255.95 18.5359 254.55 20.5622 253.665 22.9609L259.293 25.0391C259.848 23.5378 260.608 22.5641 261.435 21.9609C262.25 21.3658 263.308 21 264.699 21V15ZM253.659 22.976L249.519 34.376L255.159 36.424L259.299 25.024L253.659 22.976ZM249.525 34.3609C248.697 36.6033 248.306 39.2705 249.735 41.4876C251.211 43.7779 253.839 44.4 256.179 44.4V38.4C254.619 38.4 254.607 37.9721 254.778 38.2374C254.84 38.3326 254.778 38.3197 254.783 38.0319C254.788 37.7236 254.87 37.2054 255.153 36.4391L249.525 34.3609ZM256.179 44.4H264.879V38.4H256.179V44.4ZM262.061 40.3726L255.281 58.9726L260.918 61.0274L267.698 42.4274L262.061 40.3726ZM255.285 58.9609C254.465 61.1817 254.05 63.8407 255.448 66.0609C256.907 68.3781 259.542 69 261.879 69V63C261.15 63 260.739 62.8987 260.547 62.8225C260.389 62.7598 260.452 62.7476 260.525 62.8641C260.589 62.9655 260.526 62.9525 260.533 62.6545C260.54 62.3379 260.628 61.8121 260.913 61.0391L255.285 58.9609ZM362.544 54L365.365 55.02L365.366 55.0162L362.544 54ZM363.624 51L360.809 49.9609L360.805 49.9723L360.801 49.9838L363.624 51ZM337.704 36.6L340.504 37.6769L340.513 37.6525L340.522 37.6279L337.704 36.6ZM341.424 26.4L344.242 27.4279L344.25 27.4047L344.259 27.3813L341.424 26.4ZM347.424 26.4L350.233 27.4534L350.246 27.4175L350.259 27.3813L347.424 26.4ZM346.524 28.8L343.715 27.7466L343.712 27.7537L343.709 27.7609L346.524 28.8ZM371.724 28.8L374.538 29.8391L374.541 29.8308L374.544 29.8224L371.724 28.8ZM373.464 24L370.649 22.9609L370.646 22.9692L370.643 22.9776L373.464 24ZM314.904 30L312.082 28.98L312.081 28.9838L314.904 30ZM313.824 33L316.638 34.0391L316.642 34.0277L316.646 34.0162L313.824 33ZM339.744 47.4L336.944 46.3231L336.934 46.3475L336.925 46.3721L339.744 47.4ZM336.024 57.6L333.205 56.5721L333.197 56.5953L333.189 56.6187L336.024 57.6ZM330.024 57.6L327.215 56.5466L327.201 56.5825L327.189 56.6187L330.024 57.6ZM330.924 55.2L333.733 56.2534L333.735 56.2463L333.738 56.2391L330.924 55.2ZM305.724 55.2L302.909 54.1609L302.906 54.1692L302.903 54.1776L305.724 55.2ZM303.984 60L306.798 61.0391L306.801 61.0308L306.804 61.0224L303.984 60ZM307.764 69H346.164V63H307.764V69ZM346.164 69C350.622 69 354.651 67.7912 357.993 65.3461C361.324 62.9083 363.79 59.3763 365.365 55.02L359.722 52.98C358.477 56.4237 356.653 58.8917 354.45 60.5039C352.256 62.1088 349.505 63 346.164 63V69ZM365.366 55.0162L366.446 52.0162L360.801 49.9838L359.721 52.9838L365.366 55.0162ZM366.438 52.0391C367.982 47.8575 368.407 43.6944 366.349 40.4632C364.236 37.147 360.292 36 356.004 36V42C359.515 42 360.821 42.953 361.288 43.6868C361.81 44.5056 362.145 46.3425 360.809 49.9609L366.438 52.0391ZM356.004 36H339.204V42H356.004V36ZM339.204 36C339.06 36 339.135 35.9775 339.331 36.0548C339.559 36.1452 339.915 36.3625 340.182 36.7866C340.441 37.1978 340.469 37.5696 340.464 37.7274C340.46 37.8654 340.433 37.8619 340.504 37.6769L334.904 35.5231C334.497 36.5807 334.079 38.354 335.105 39.9834C336.183 41.696 338.042 42 339.204 42V36ZM340.522 37.6279L344.242 27.4279L338.605 25.3721L334.885 35.5721L340.522 37.6279ZM344.259 27.3813C344.368 27.0651 344.469 27.0094 344.445 27.0268C344.44 27.0309 344.439 27.0285 344.459 27.0226C344.48 27.0159 344.544 27 344.664 27V21C343.326 21 342.005 21.3686 340.877 22.2032C339.758 23.0306 339.019 24.1749 338.589 25.4187L344.259 27.3813ZM344.664 27H345.864V21H344.664V27ZM345.864 27C346.006 27 345.933 27.0222 345.741 26.9465C345.516 26.8579 345.174 26.6487 344.914 26.2467C344.662 25.858 344.627 25.506 344.627 25.3574C344.627 25.2278 344.652 25.2342 344.589 25.4187L350.259 27.3813C350.628 26.3146 350.975 24.5673 349.949 22.9833C348.865 21.3115 347.042 21 345.864 21V27ZM344.615 25.3466L343.715 27.7466L349.333 29.8534L350.233 27.4534L344.615 25.3466ZM343.709 27.7609C342.881 30.0033 342.491 32.6705 343.919 34.8876C345.395 37.1779 348.024 37.8 350.364 37.8V31.8C348.804 31.8 348.792 31.3721 348.963 31.6374C349.024 31.7326 348.963 31.7197 348.967 31.4319C348.972 31.1236 349.055 30.6054 349.338 29.8391L343.709 27.7609ZM350.364 37.8H363.564V31.8H350.364V37.8ZM363.564 37.8C366.075 37.8 368.398 37.1145 370.347 35.6767C372.281 34.2498 373.658 32.2226 374.538 29.8391L368.909 27.7609C368.349 29.2774 367.596 30.2502 366.785 30.8483C365.989 31.4355 364.952 31.8 363.564 31.8V37.8ZM374.544 29.8224L376.284 25.0224L370.643 22.9776L368.903 27.7776L374.544 29.8224ZM376.278 25.0391C377.098 22.8183 377.513 20.1593 376.115 17.9391C374.656 15.6219 372.021 15 369.684 15V21C370.413 21 370.823 21.1013 371.016 21.1775C371.173 21.2402 371.111 21.2524 371.037 21.1359C370.974 21.0345 371.037 21.0475 371.03 21.3455C371.022 21.6621 370.935 22.1879 370.649 22.9609L376.278 25.0391ZM369.684 15H331.284V21H369.684V15ZM331.284 15C326.825 15 322.796 16.2088 319.455 18.6539C316.123 21.0917 313.657 24.6237 312.082 28.98L317.725 31.02C318.97 27.5763 320.794 25.1083 322.998 23.4961C325.191 21.8912 327.942 21 331.284 21V15ZM312.081 28.9838L311.001 31.9838L316.646 34.0162L317.726 31.0162L312.081 28.9838ZM311.009 31.9609C309.465 36.1425 309.04 40.3056 311.098 43.5368C313.211 46.853 317.155 48 321.444 48V42C317.932 42 316.626 41.047 316.159 40.3132C315.637 39.4944 315.302 37.6575 316.638 34.0391L311.009 31.9609ZM321.444 48H338.244V42H321.444V48ZM338.244 48C338.388 48 338.312 48.0225 338.117 47.9452C337.888 47.8548 337.532 47.6375 337.265 47.2134C337.006 46.8022 336.978 46.4303 336.983 46.2726C336.988 46.1346 337.015 46.1381 336.944 46.3231L342.544 48.4769C342.95 47.4193 343.368 45.646 342.342 44.0166C341.264 42.304 339.405 42 338.244 42V48ZM336.925 46.3721L333.205 56.5721L338.842 58.6279L342.562 48.4279L336.925 46.3721ZM333.189 56.6187C333.079 56.9349 332.978 56.9906 333.002 56.9732C333.007 56.9691 333.008 56.9715 332.989 56.9774C332.967 56.9841 332.904 57 332.784 57V63C334.121 63 335.442 62.6314 336.57 61.7968C337.689 60.9694 338.428 59.8251 338.859 58.5813L333.189 56.6187ZM332.784 57H331.584V63H332.784V57ZM331.584 57C331.441 57 331.514 56.9778 331.706 57.0535C331.931 57.1421 332.273 57.3513 332.534 57.7533C332.785 58.142 332.821 58.494 332.82 58.6426C332.82 58.7722 332.795 58.7658 332.859 58.5813L327.189 56.6187C326.819 57.6854 326.472 59.4327 327.499 61.0167C328.582 62.6885 330.405 63 331.584 63V57ZM332.833 58.6534L333.733 56.2534L328.115 54.1466L327.215 56.5466L332.833 58.6534ZM333.738 56.2391C334.566 53.9967 334.957 51.3295 333.528 49.1124C332.052 46.8221 329.424 46.2 327.084 46.2V52.2C328.644 52.2 328.655 52.6279 328.484 52.3626C328.423 52.2674 328.485 52.2802 328.48 52.5681C328.475 52.8764 328.392 53.3946 328.109 54.1609L333.738 56.2391ZM327.084 46.2H313.884V52.2H327.084V46.2ZM313.884 46.2C311.372 46.2 309.049 46.8855 307.1 48.3233C305.166 49.7502 303.789 51.7774 302.909 54.1609L308.538 56.2391C309.098 54.7226 309.851 53.7498 310.662 53.1517C311.458 52.5645 312.495 52.2 313.884 52.2V46.2ZM302.903 54.1776L301.163 58.9776L306.804 61.0224L308.544 56.2224L302.903 54.1776ZM301.169 58.9609C300.349 61.1817 299.935 63.8407 301.332 66.0609C302.791 68.3781 305.426 69 307.764 69V63C307.035 63 306.624 62.8987 306.432 62.8225C306.274 62.7598 306.336 62.7476 306.41 62.8641C306.474 62.9655 306.41 62.9525 306.417 62.6545C306.425 62.3379 306.513 61.8121 306.798 61.0391L301.169 58.9609Z" fill="black"/>
</svg>
