<svg width="187" height="276" viewBox="0 0 187 276" fill="none" xmlns="http://www.w3.org/2000/svg">
<path d="M166.473 121.319C165.595 116.251 89.4787 128.951 89.4787 128.951L63.6647 133.259L71.3371 122.446C71.3371 122.446 101.011 80.6285 96.8015 77.6442C92.5921 74.6599 62.9183 116.478 62.9183 116.478L55.2459 127.29L50.7784 101.515C50.7784 101.515 37.6052 25.5124 32.5297 26.3593C27.4542 27.2061 40.6274 103.208 40.6274 103.208L45.0949 128.984L34.211 121.267C34.211 121.267 -7.88341 91.4245 -10.8508 95.6063C-13.8182 99.788 28.2762 129.631 28.2762 129.631L39.1601 137.347L13.3462 141.654C13.3462 141.654 -62.7701 154.354 -61.8917 159.422C-61.0133 164.49 15.103 151.79 15.103 151.79L40.9169 147.483L33.2445 158.295C33.2445 158.295 3.5707 200.113 7.78014 203.097C11.9896 206.082 41.6634 164.264 41.6634 164.264L49.3358 153.452L53.8033 179.227C53.8033 179.227 66.9764 255.229 72.0519 254.382C77.1274 253.535 63.9543 177.533 63.9543 177.533L59.4868 151.758L70.3707 159.474C70.3707 159.474 112.465 189.317 115.432 185.135C118.4 180.953 76.3054 151.11 76.3054 151.11L65.4215 143.394L91.2355 139.087C91.2355 139.087 167.352 126.387 166.473 121.319Z" fill="black"/>
<path d="M156.899 116.221C156.02 111.153 79.9041 123.853 79.9041 123.853L54.0902 128.16L61.7626 117.348C61.7626 117.348 91.4364 75.5304 87.2269 72.5461C83.0175 69.5618 53.3437 111.379 53.3437 111.379L45.6713 122.192L41.2038 96.4165C41.2038 96.4165 28.0306 20.4143 22.9551 21.2611C17.8796 22.108 31.0528 98.1103 31.0528 98.1103L35.5203 123.885L24.6364 116.169C24.6364 116.169 -17.458 86.3264 -20.4254 90.5081C-23.3928 94.6899 18.7017 124.533 18.7017 124.533L29.5855 132.249L3.7716 136.556C3.7716 136.556 -72.3447 149.256 -71.4663 154.324C-70.5879 159.392 5.52839 146.692 5.52839 146.692L31.3423 142.385L23.6699 153.197C23.6699 153.197 -6.00389 195.015 -1.79445 197.999C2.41499 200.983 32.0888 159.166 32.0888 159.166L39.7612 148.353L44.2287 174.129C44.2287 174.129 57.4018 250.131 62.4773 249.284C67.5528 248.437 54.3797 172.435 54.3797 172.435L49.9122 146.66L60.7961 154.376C60.7961 154.376 102.89 184.219 105.858 180.037C108.825 175.855 66.7308 146.012 66.7308 146.012L55.8469 138.296L81.6609 133.989C81.6609 133.989 157.777 121.289 156.899 116.221Z" fill="white" stroke="black" stroke-width="2.35" stroke-linecap="round" stroke-linejoin="round"/>
</svg>
