<svg width="195" height="193" viewBox="0 0 195 193" fill="none" xmlns="http://www.w3.org/2000/svg">
<path d="M167.249 125.303C117.505 118.639 104.528 125.122 79.9553 168.981C78.9397 170.8 76.1618 169.885 76.447 167.825C83.5262 118.204 77.1217 105.324 33.2982 81.1818C31.48 80.184 32.4201 77.4086 34.4855 77.6767C84.2293 84.3411 97.2063 77.8579 121.779 33.9989C122.795 32.1793 125.573 33.0943 125.287 35.1545C118.208 84.7756 124.613 97.6561 168.436 121.798C170.255 122.796 169.314 125.571 167.249 125.303Z" fill="black"/>
<path d="M160.375 115.017C110.642 108.369 97.6653 114.857 73.0814 158.732C72.0653 160.552 69.2882 159.638 69.5741 157.578C76.6694 107.946 70.2705 95.0652 26.463 70.9342C24.6455 69.9368 25.5864 67.1607 27.6513 67.4281C77.3841 74.0768 90.3611 67.5881 114.945 23.7134C115.961 21.8931 118.738 22.8073 118.452 24.868C111.357 74.4999 117.756 87.3803 161.563 111.511C163.381 112.509 162.44 115.285 160.375 115.017V115.017Z" fill="#8F55FF"/>
<path d="M160.375 115.017C110.642 108.369 97.6653 114.857 73.0814 158.732C72.0653 160.552 69.2882 159.638 69.5741 157.578C76.6694 107.946 70.2705 95.0652 26.463 70.9342C24.6455 69.9368 25.5864 67.1607 27.6513 67.4281C77.3841 74.0768 90.3611 67.5881 114.945 23.7134C115.961 21.8931 118.738 22.8073 118.452 24.868C111.357 74.4999 117.756 87.3803 161.563 111.511C163.381 112.509 162.44 115.285 160.375 115.017V115.017Z" stroke="black" stroke-width="2.35" stroke-linecap="round" stroke-linejoin="round"/>
</svg>
