<svg width="440" height="551" viewBox="0 0 440 551" fill="none" xmlns="http://www.w3.org/2000/svg">
<path d="M163.532 345.728C165.412 342.257 170.347 342.755 171.798 346.608C178.454 364.171 185.495 381.607 193.018 398.883C205.979 428.311 219.892 457.386 236.673 485.551C239.294 489.93 245.617 487.841 245.114 482.763C241.815 450.144 235.67 418.502 228.551 387.145C224.302 368.787 219.56 350.554 214.445 332.482C213.315 328.523 216.982 325.183 220.559 326.851C226.825 329.76 233.079 332.635 239.448 335.319C258.284 343.196 277.358 350.5 297.192 356.223C302.034 357.626 305.038 351.199 301.098 347.788C285.026 333.944 268.237 321.704 251.167 310.013C245.348 306.083 239.477 302.322 233.586 298.606C230.216 296.489 230.497 291.304 234.1 289.923C250.54 283.542 266.855 276.784 283.013 269.547C310.421 257.034 337.459 243.504 363.543 226.982C367.61 224.422 365.358 217.604 360.566 217.971C329.773 220.238 299.996 225.477 270.528 231.753C253.227 235.53 236.097 239.821 219.102 244.523C215.386 245.561 212.072 241.563 213.517 237.856C216.035 231.361 218.51 224.843 220.844 218.22C227.59 198.661 233.784 178.83 238.447 158.135C239.59 153.083 233.37 149.666 230.284 153.687C217.763 170.099 206.794 187.328 196.356 204.875C192.851 210.86 189.507 216.904 186.208 222.973C184.328 226.444 179.393 225.946 177.942 222.093C171.243 204.507 164.19 187.037 156.688 169.715C143.738 140.322 129.837 111.281 113.132 83.1286C110.542 78.7395 104.155 80.8496 104.69 85.9174C108.042 118.481 114.176 150.088 121.283 181.411C125.532 199.769 130.274 218.002 135.39 236.074C136.52 240.033 132.852 243.373 129.275 241.705C123.01 238.796 116.723 235.932 110.386 233.237C91.5067 225.337 72.3892 218.009 52.4915 212.307C47.6492 210.904 44.6778 217.32 48.585 220.742C64.6689 234.621 81.5121 246.918 98.6254 258.632C104.402 262.539 110.24 266.31 116.12 269.992C119.49 272.11 119.209 277.295 115.606 278.675C99.187 285.011 82.9035 291.759 66.7898 299.02C39.3489 311.543 12.2796 325.084 -13.8144 341.685C-17.8704 344.279 -15.6405 351.029 -10.8374 350.696C20.0106 348.486 49.8191 343.238 79.3201 336.95C96.5883 333.184 113.687 328.904 130.649 324.212C134.365 323.175 137.68 327.172 136.234 330.88C133.705 337.34 131.262 343.848 128.949 350.426C122.182 370.029 115.967 389.906 111.327 410.669C110.184 415.721 116.392 419.104 119.489 415.117C132.043 398.695 143.065 381.41 153.523 363.818C157.008 357.878 160.363 351.868 163.631 345.81L163.532 345.728Z" fill="black"/>
<path d="M165.612 327.673C167.492 324.202 172.427 324.7 173.878 328.553C180.534 346.116 187.576 363.552 195.098 380.828C208.059 410.256 221.972 439.331 238.753 467.496C241.374 471.875 247.697 469.786 247.195 464.707C243.895 432.088 237.75 400.447 230.631 369.09C226.382 350.732 221.64 332.498 216.525 314.427C215.395 310.467 219.062 307.128 222.639 308.796C228.905 311.705 235.159 314.579 241.528 317.264C260.364 325.141 279.438 332.445 299.272 338.168C304.114 339.57 307.118 333.144 303.178 329.733C287.106 315.888 270.317 303.649 253.248 291.958C247.428 288.028 241.557 284.267 235.666 280.551C232.296 278.434 232.577 273.248 236.18 271.868C252.62 265.487 268.935 258.729 285.093 251.492C312.501 238.979 339.539 225.449 365.623 208.927C369.69 206.367 367.438 199.549 362.646 199.916C331.853 202.183 302.077 207.421 272.608 213.698C255.307 217.475 238.177 221.766 221.182 226.468C217.466 227.506 214.152 223.508 215.597 219.8C218.115 213.306 220.59 206.788 222.924 200.165C229.67 180.606 235.864 160.774 240.527 140.08C241.671 135.028 235.451 131.61 232.365 135.632C219.843 152.044 208.874 169.273 198.436 186.82C194.931 192.804 191.587 198.849 188.288 204.918C186.408 208.389 181.473 207.891 180.022 204.038C173.323 186.451 166.27 168.981 158.768 151.66C145.818 122.267 131.917 93.226 115.212 65.0735C112.622 60.6843 106.235 62.7944 106.77 67.8622C110.122 100.426 116.256 132.033 123.364 163.356C127.612 181.714 132.354 199.947 137.47 218.019C138.6 221.978 134.932 225.318 131.355 223.649C125.09 220.741 118.804 217.877 112.466 215.182C93.5868 207.282 74.4693 199.954 54.5715 194.252C49.7293 192.849 46.7579 199.265 50.6651 202.687C66.7489 216.565 83.5921 228.863 100.705 240.577C106.482 244.483 112.32 248.255 118.2 251.937C121.57 254.054 121.289 259.24 117.686 260.62C101.267 266.956 84.9836 273.703 68.8699 280.965C41.4289 293.488 14.3596 307.029 -11.7343 323.63C-15.7903 326.224 -13.5605 332.974 -8.7574 332.641C22.0906 330.431 51.8991 325.182 81.4001 318.895C98.6684 315.129 115.767 310.848 132.73 306.157C136.445 305.119 139.76 309.117 138.314 312.825C135.785 319.285 133.342 325.792 131.029 332.371C124.262 351.974 118.047 371.851 113.407 392.613C112.264 397.666 118.472 401.049 121.57 397.062C134.123 380.639 145.145 363.355 155.604 345.763C159.088 339.823 162.443 333.813 165.711 327.755L165.612 327.673Z" fill="#8F55FF" stroke="black" stroke-width="2.35" stroke-linecap="round" stroke-linejoin="round"/>
</svg>
