<svg width="143" height="154" viewBox="0 0 143 154" fill="none" xmlns="http://www.w3.org/2000/svg">
<path d="M130.333 90.9633C90.0752 92.9645 80.5684 100.698 66.3905 143.043C65.8054 144.799 63.4915 144.435 63.4682 142.583C63.0745 97.9432 56.4357 87.656 18.7571 73.3938C17.1943 72.8055 17.6039 70.2229 19.2743 70.1323C59.532 68.131 69.0388 60.3976 83.2166 18.0525C83.8018 16.2963 86.1157 16.6607 86.1389 18.5127C86.5327 63.1523 93.1715 73.4395 130.85 87.7017C132.413 88.29 132.003 90.8726 130.333 90.9633Z" fill="black"/>
<path d="M123.687 83.0351C83.4271 85.0366 73.9199 92.7697 59.7414 135.113C59.1561 136.869 56.8421 136.505 56.8189 134.653C56.4253 90.0153 49.7862 79.7286 12.1061 65.4673C10.5433 64.879 10.9528 62.2966 12.6234 62.2059C52.8828 60.2044 62.39 52.4712 76.5685 10.1278C77.1538 8.37166 79.4678 8.73599 79.491 10.5879C79.8846 55.2256 86.5237 65.5124 124.204 79.7736C125.767 80.3619 125.357 82.9444 123.687 83.0351Z" fill="#F9346C"/>
<path d="M123.687 83.0351C83.4271 85.0366 73.9199 92.7697 59.7414 135.113C59.1561 136.869 56.8421 136.505 56.8189 134.653C56.4253 90.0153 49.7862 79.7286 12.1061 65.4673C10.5433 64.879 10.9528 62.2966 12.6234 62.2059C52.8828 60.2044 62.39 52.4712 76.5685 10.1278C77.1538 8.37166 79.4678 8.73599 79.491 10.5879C79.8846 55.2256 86.5237 65.5124 124.204 79.7736C125.767 80.3619 125.357 82.9444 123.687 83.0351V83.0351Z" stroke="black" stroke-width="2.35" stroke-linecap="round" stroke-linejoin="round"/>
</svg>
