<svg width="386" height="391" viewBox="0 0 386 391" fill="none" xmlns="http://www.w3.org/2000/svg">
<path d="M256.25 61.702C257.341 56.5811 252.086 54.5302 249.441 59.0445C240.289 74.736 230.925 92.0715 221.666 111.01C212.743 129.281 205.102 146.725 198.504 163.048C197.515 165.518 195.228 166.917 193.312 166.203C175.106 159.263 155.337 152.709 133.979 146.931C114.056 141.546 94.8363 137.399 76.5078 134.264C72.2959 133.55 69.4047 140.957 72.9755 143.314C89.5412 154.197 106.681 163.61 124.011 172.533C142.644 181.998 161.593 190.589 180.822 198.527C182.672 199.282 183.396 201.823 182.483 204.29C175.926 222.123 169.796 240.157 164.202 258.366C158.459 277.348 153.12 296.52 148.931 316.108C147.84 321.229 153.095 323.28 155.762 318.774C165.949 301.528 175.01 283.808 183.644 265.954C191.864 248.77 199.56 231.381 206.817 213.821C207.817 211.388 210.06 210.038 211.943 210.706C231.465 217.894 251.223 224.41 271.33 230.099C290.452 235.404 309.82 240.14 329.763 243.341C333.964 244.017 336.844 236.639 333.295 234.29C316.457 223.135 299.001 213.499 281.342 204.447C262.72 195.02 243.782 186.4 224.542 178.492C222.692 177.737 221.969 175.196 222.881 172.729C229.46 154.904 235.557 136.89 241.172 118.689C246.848 99.9471 252.118 81.0798 256.261 61.7394L256.25 61.702Z" fill="black"/>
<path d="M236.922 75.1512C238.013 70.0303 232.758 67.9795 230.113 72.4937C220.961 88.1852 211.597 105.521 202.338 124.459C193.415 142.731 185.774 160.174 179.176 176.497C178.187 178.968 175.9 180.367 173.984 179.652C155.778 172.712 136.009 166.159 114.651 160.38C94.7281 154.995 75.5081 150.848 57.1797 147.713C52.9677 146.999 50.0766 154.406 53.6473 156.763C70.2131 167.646 87.3525 177.059 104.683 185.983C123.316 195.447 142.265 204.039 161.494 211.976C163.344 212.731 164.068 215.272 163.155 217.739C156.598 235.572 150.468 253.606 144.874 271.815C139.131 290.797 133.792 309.969 129.603 329.558C128.512 334.678 133.767 336.729 136.434 332.224C146.621 314.977 155.682 297.257 164.315 279.403C172.536 262.219 180.232 244.83 187.489 227.27C188.489 224.837 190.732 223.487 192.615 224.156C212.137 231.343 231.895 237.86 252.002 243.549C271.124 248.853 290.492 253.589 310.435 256.79C314.636 257.467 317.516 250.088 313.967 247.74C297.129 236.584 279.673 226.948 262.014 217.897C243.392 208.469 224.454 199.849 205.214 191.941C203.364 191.186 202.64 188.645 203.553 186.178C210.132 168.353 216.229 150.34 221.844 132.139C227.52 113.396 232.79 94.529 236.933 75.1886L236.922 75.1512Z" fill="#FF8B13" stroke="black" stroke-width="2.35" stroke-linecap="round" stroke-linejoin="round"/>
</svg>
