<svg width="85" height="91" viewBox="0 0 85 91" fill="none" xmlns="http://www.w3.org/2000/svg">
<path d="M81.5306 48.5496L52.3704 55.5428C52.0536 55.6175 51.8249 55.8958 51.7707 56.2506L47.3363 88.9121C47.2041 89.866 45.9732 89.8811 45.7567 88.9315L38.1948 56.4176C38.1138 56.0644 37.8519 55.8 37.528 55.7253L7.72422 49.4571C6.85384 49.271 6.78854 47.9102 7.64043 47.7109L36.8007 40.7176C37.1175 40.6429 37.3462 40.3646 37.4004 40.0098L41.8347 7.34835C41.967 6.39441 43.1979 6.37928 43.4143 7.32893L50.9762 39.8428C51.0573 40.196 51.3191 40.4604 51.6431 40.5351L81.4397 46.8035C82.3101 46.9895 82.3754 48.3503 81.5235 48.5496L81.5306 48.5496Z" fill="black"/>
<path d="M77.1471 43.3121L47.9872 50.3076C47.6704 50.3823 47.4417 50.6606 47.3876 51.0154L42.9546 83.6773C42.8224 84.6313 41.5915 84.6465 41.375 83.6968L33.8117 51.1834C33.7307 50.8302 33.4688 50.5659 33.1449 50.4912L3.34806 44.2251C2.47768 44.0391 2.41232 42.6784 3.2642 42.4789L32.4241 35.4834C32.7409 35.4087 32.9695 35.1304 33.0237 34.7755L37.4567 2.11368C37.5889 1.15973 38.8198 1.1445 39.0363 2.09414L46.5995 34.6076C46.6806 34.9607 46.9424 35.2251 47.2664 35.2998L77.0632 41.5659C77.9336 41.7519 77.9989 43.1126 77.1471 43.3121Z" fill="#0071C6" stroke="black" stroke-width="2.35" stroke-linecap="round" stroke-linejoin="round"/>
</svg>
