<svg width="132" height="129" viewBox="0 0 132 129" fill="none" xmlns="http://www.w3.org/2000/svg">
<path d="M119.269 57.8962L81.8711 73.8636C81.4646 74.0355 81.2216 74.4326 81.2292 74.8783L82.6642 115.759C82.7025 116.953 81.0607 117.286 80.5574 116.186L63.1222 78.5532C62.9343 78.1441 62.5247 77.8893 62.0749 77.8813L20.8283 77.875C19.6231 77.8711 19.2291 76.2319 20.3228 75.7714L57.7202 59.8041C58.1268 59.6322 58.3697 59.235 58.3621 58.7894L56.9271 17.9091C56.8888 16.7144 58.5306 16.3812 59.0339 17.4815L76.4691 55.1145C76.657 55.5236 77.0666 55.7783 77.5164 55.7864L118.754 55.7946C119.959 55.7985 120.353 57.4377 119.259 57.8982L119.269 57.8962Z" fill="black"/>
<path d="M112.22 52.66L74.8206 68.625C74.414 68.7969 74.171 69.194 74.1785 69.6397L75.6055 110.521C75.6436 111.716 74.0018 112.049 73.4987 110.948L56.0712 73.3133C55.8834 72.9042 55.4738 72.6494 55.024 72.6413L13.7879 72.6301C12.5827 72.6262 12.189 70.9869 13.2827 70.5265L50.6824 54.5615C51.089 54.3896 51.332 53.9925 51.3245 53.5468L49.8975 12.6655C49.8594 11.4707 51.5012 11.1377 52.0043 12.238L69.4318 49.8732C69.6196 50.2822 70.0292 50.537 70.479 50.5451L111.715 50.5564C112.92 50.5603 113.314 52.1996 112.22 52.66Z" fill="#FF8B13" stroke="black" stroke-width="2.35" stroke-linecap="round" stroke-linejoin="round"/>
</svg>
