<svg width="220" height="223" viewBox="0 0 220 223" fill="none" xmlns="http://www.w3.org/2000/svg">
<path d="M206.573 127.842C207.065 123.619 144.712 114.668 144.712 114.668L123.566 111.633L132.066 105.004C132.066 105.004 164.94 79.3643 162.348 75.9564C159.757 72.5485 126.883 98.188 126.883 98.188L118.383 104.817L120.885 83.3376C120.885 83.3376 128.264 20.0015 124.106 19.4047C119.949 18.8079 112.57 82.144 112.57 82.144L110.068 103.624L103.367 94.8123C103.367 94.8123 77.45 60.7337 74.1626 63.2977C70.8753 65.8616 96.7919 99.9402 96.7919 99.9402L103.493 108.752L82.3468 105.716C82.3468 105.716 19.9945 96.7657 19.5025 100.989C19.0105 105.212 81.3628 114.163 81.3628 114.163L102.509 117.198L94.009 123.827C94.009 123.827 61.1352 149.467 63.7269 152.875C66.3185 156.283 99.1924 130.643 99.1924 130.643L107.692 124.014L105.19 145.494C105.19 145.494 97.8111 208.83 101.969 209.426C106.127 210.023 113.505 146.687 113.505 146.687L116.008 125.208L122.709 134.019C122.709 134.019 148.625 168.097 151.913 165.533C155.2 162.97 129.283 128.891 129.283 128.891L122.582 120.08L143.728 123.115C143.728 123.115 206.081 132.065 206.573 127.842Z" fill="black"/>
<path d="M200.503 121.891C200.996 117.668 138.645 108.708 138.645 108.708L117.499 105.669L126 99.0409C126 99.0409 158.879 73.4068 156.288 69.9985C153.697 66.5903 120.818 92.2244 120.818 92.2244L112.317 98.8523L114.823 77.3732C114.823 77.3732 122.213 14.0387 118.056 13.4412C113.898 12.8437 106.508 76.1783 106.508 76.1783L104.002 97.6574L97.3026 88.8451C97.3026 88.8451 71.3918 54.7627 68.1039 57.3261C64.8161 59.8895 90.7269 93.9719 90.7269 93.9719L97.4263 102.784L76.2807 99.7455C76.2807 99.7455 13.9295 90.7854 13.4367 95.0086C12.944 99.2318 75.2951 108.192 75.2951 108.192L96.4408 111.231L87.9397 117.859C87.9397 117.859 55.0611 143.493 57.6522 146.901C60.2433 150.309 93.1219 124.675 93.1219 124.675L101.623 118.047L99.1167 139.526C99.1167 139.526 91.7267 202.861 95.8844 203.458C100.042 204.056 107.432 140.721 107.432 140.721L109.938 119.242L116.638 128.054C116.638 128.054 142.548 162.137 145.836 159.573C149.124 157.01 123.213 122.928 123.213 122.928L116.514 114.115L137.66 117.154C137.66 117.154 200.011 126.114 200.503 121.891Z" fill="#FF8B13" stroke="black" stroke-width="2.35" stroke-linecap="round" stroke-linejoin="round"/>
</svg>
