<svg width="218" height="242" viewBox="0 0 218 242" fill="none" xmlns="http://www.w3.org/2000/svg">
<path d="M202.574 155.32C203.901 151.482 149.026 130.857 149.026 130.857L130.416 123.863L139.531 119.361C139.531 119.361 174.784 101.947 173.135 98.2615C171.487 94.5756 136.233 111.989 136.233 111.989L127.118 116.491L133.868 96.97C133.868 96.97 153.771 39.4094 150.112 38.0341C146.453 36.6589 126.55 94.2195 126.55 94.2195L119.8 113.74L115.537 104.21C115.537 104.21 99.0502 67.3508 95.5249 69.0921C91.9996 70.8334 108.487 107.693 108.487 107.693L112.75 117.223L94.1394 110.229C94.1394 110.229 39.2644 89.6042 37.9372 93.4424C36.6101 97.2806 91.485 117.905 91.485 117.905L110.095 124.899L100.98 129.402C100.98 129.402 65.727 146.815 67.3757 150.501C69.0244 154.187 104.278 136.774 104.278 136.774L113.393 132.271L106.643 151.792C106.643 151.792 86.7397 209.353 90.3988 210.728C94.0579 212.103 113.961 154.543 113.961 154.543L120.711 135.022L124.974 144.552C124.974 144.552 141.461 181.412 144.986 179.67C148.511 177.929 132.024 141.07 132.024 141.07L127.761 131.539L146.372 138.534C146.372 138.534 201.247 159.158 202.574 155.32Z" fill="black"/>
<path d="M198.321 148.541C199.649 144.703 144.772 124.084 144.772 124.084L126.161 117.092L135.276 112.589C135.276 112.589 170.53 95.1726 168.881 91.487C167.232 87.8013 131.978 105.217 131.978 105.217L122.863 109.72L129.613 90.1992C129.613 90.1992 149.515 32.6383 145.855 31.2634C142.196 29.8886 122.294 87.4495 122.294 87.4495L115.545 106.971L111.281 97.441C111.281 97.441 94.7928 60.5842 91.2675 62.3258C87.7421 64.0674 104.231 100.924 104.231 100.924L108.494 110.454L89.8829 103.461C89.8829 103.461 35.0059 82.8426 33.6788 86.6808C32.3517 90.519 87.2287 111.138 87.2287 111.138L105.84 118.13L96.7244 122.633C96.7244 122.633 61.4707 140.049 63.1196 143.735C64.7684 147.421 100.022 130.005 100.022 130.005L109.137 125.502L102.388 145.023C102.388 145.023 82.4855 202.584 86.1447 203.958C89.804 205.333 109.706 147.772 109.706 147.772L116.456 128.251L120.719 137.781C120.719 137.781 137.207 174.638 140.733 172.896C144.258 171.155 127.77 134.298 127.77 134.298L123.506 124.768L142.117 131.761C142.117 131.761 196.994 152.379 198.321 148.541Z" fill="#0071C6" stroke="black" stroke-width="2.35" stroke-linecap="round" stroke-linejoin="round"/>
</svg>
