<svg width="166" height="166" viewBox="0 0 166 166" fill="none" xmlns="http://www.w3.org/2000/svg">
<path d="M106.794 97.4622C105.795 96.308 106.539 94.4889 108.056 94.4214C114.978 94.097 121.9 93.6097 128.821 92.9188C140.628 91.6858 152.421 90.0455 164.226 87.197C166.063 86.7494 166.061 84.0749 164.223 83.6265C152.414 80.773 140.618 79.1279 128.809 77.89C121.887 77.1962 114.951 76.706 108.029 76.3787C106.511 76.3105 105.764 74.4911 106.762 73.3374C108.504 71.3149 110.233 69.2924 111.908 67.202C116.842 61.0124 121.603 54.6597 125.897 47.8182C126.947 46.1486 125.042 44.1932 123.392 45.2654C116.686 49.6491 110.46 54.5081 104.394 59.5435C102.346 61.2673 100.35 63.0318 98.3683 64.8098C97.2376 65.8278 95.4532 65.0672 95.3854 63.5195C95.047 56.4462 94.5621 49.373 93.8908 42.2997C92.6698 30.271 91.0495 18.2557 88.271 6.22671C87.8435 4.35311 85.1945 4.35256 84.77 6.22598C82.0108 18.2539 80.4097 30.2684 79.208 42.2966C78.5347 49.3696 78.0612 56.4427 77.7473 63.5158C77.682 65.0635 75.8988 65.8233 74.7665 64.8049C72.7817 63.026 70.7835 61.2607 68.7321 59.5361C62.6579 54.4981 56.4241 49.6365 49.7114 45.2501C48.0732 44.1772 46.1579 46.1182 47.2109 47.8018C51.516 54.6451 56.2867 60.9997 61.2304 67.1915C62.9226 69.2826 64.6548 71.3193 66.4003 73.3425C67.3996 74.4967 66.6556 76.3158 65.1381 76.3833C58.2029 76.7213 51.2679 77.2086 44.333 77.8859C32.5397 79.1189 20.7601 80.7592 8.96817 83.5805C7.13149 84.0146 7.13365 86.7163 8.97103 87.1511C20.7675 89.9774 32.5497 91.6225 44.345 92.8604C51.2676 93.5542 58.2035 94.0444 65.1259 94.3717C66.6434 94.4399 67.3904 96.2593 66.3929 97.413C64.6507 99.4355 62.9218 101.472 61.2462 103.548C56.2991 109.752 51.5253 116.118 47.2311 122.986C46.1808 124.656 48.086 126.598 49.7358 125.539C56.4547 121.156 62.7073 116.283 68.7868 111.234C70.8221 109.524 72.8175 107.773 74.7862 105.995C75.9169 104.977 77.7013 105.738 77.7691 107.285C78.0942 114.345 78.5791 121.405 79.2636 128.464C80.4846 140.507 82.105 152.535 84.9101 164.578C85.3509 166.452 87.9733 166.452 88.4111 164.579C91.1969 152.537 92.798 140.509 93.9997 128.467C94.673 121.408 95.1466 114.348 95.4604 107.289C95.5257 105.741 97.3089 104.981 98.4412 106C100.413 107.779 102.411 109.53 104.449 111.241C110.537 116.293 116.784 121.168 123.523 125.555C125.161 126.628 127.063 124.687 126.023 123.003C121.718 116.146 116.934 109.764 111.977 103.559C110.298 101.481 108.58 99.4447 106.834 97.435L106.794 97.4622Z" fill="black"/>
<path d="M100.711 94.3934C99.7113 93.2392 100.455 91.4201 101.973 91.3526C108.895 91.0282 115.816 90.541 122.738 89.8501C134.545 88.6172 146.337 86.977 158.143 84.1285C159.979 83.6809 159.977 81.0064 158.14 80.558C146.33 77.7045 134.535 76.0593 122.726 74.8213C115.803 74.1274 108.868 73.6372 101.945 73.3099C100.428 73.2417 99.6807 71.4223 100.678 70.2686C102.42 68.2461 104.149 66.2236 105.825 64.1333C110.759 57.9436 115.519 51.591 119.813 44.7495C120.864 43.0799 118.959 41.1245 117.309 42.1967C110.603 46.5804 104.377 51.4393 98.311 56.4747C96.2624 58.1985 94.267 59.9629 92.285 61.741C91.1543 62.7589 89.3699 61.9983 89.3021 60.4506C88.9637 53.3774 88.4788 46.3041 87.8076 39.2308C86.5867 27.2021 84.9664 15.1869 82.188 3.15781C81.7605 1.28421 79.1115 1.28364 78.687 3.15706C75.9277 15.1849 74.3266 27.1995 73.1247 39.2276C72.4515 46.3007 71.9779 53.3737 71.664 60.4468C71.5987 61.9945 69.8155 62.7544 68.6832 61.7359C66.6983 59.957 64.7002 58.1917 62.6488 56.4671C56.5746 51.4291 50.3408 46.5675 43.6282 42.1809C41.99 41.1081 40.0747 43.049 41.1276 44.7327C45.4328 51.576 50.2034 57.9307 55.147 64.1224C56.8393 66.2135 58.5714 68.2503 60.3169 70.2735C61.3162 71.4277 60.5722 73.2468 59.0547 73.3143C52.1195 73.6522 45.1845 74.1395 38.2496 74.8168C26.4563 76.0497 14.6767 77.6899 2.88473 80.5112C1.04805 80.9453 1.0502 83.6469 2.88757 84.0817C14.684 86.9081 26.4663 88.5533 38.2615 89.7913C45.1841 90.4852 52.12 90.9754 59.0424 91.3027C60.5599 91.3709 61.3069 93.1902 60.3094 94.344C58.5672 96.3665 56.8382 98.4025 55.1626 100.479C50.2156 106.683 45.4417 113.049 41.1475 119.917C40.0972 121.587 42.0023 123.529 43.6521 122.47C50.3711 118.087 56.6237 113.214 62.7032 108.165C64.7385 106.455 66.7339 104.704 68.7026 102.926C69.8333 101.908 71.6177 102.669 71.6855 104.216C72.0106 111.276 72.4954 118.336 73.1799 125.395C74.4009 137.438 76.0212 149.466 78.8262 161.509C79.267 163.383 81.8894 163.383 82.3272 161.51C85.1131 149.468 86.7143 137.44 87.9161 125.399C88.5893 118.339 89.063 111.28 89.3768 104.22C89.4422 102.672 91.2253 101.913 92.3576 102.931C94.3292 104.71 96.3273 106.462 98.3654 108.173C104.453 113.224 110.7 118.099 117.439 122.486C119.077 123.559 120.979 121.618 119.94 119.934C115.635 113.077 110.851 106.696 105.894 100.49C104.215 98.4127 102.496 96.3759 100.751 94.3662L100.711 94.3934Z" fill="#0071C6" stroke="black" stroke-width="2.35" stroke-linecap="round" stroke-linejoin="round"/>
</svg>
