<svg width="148" height="153" viewBox="0 0 148 153" fill="none" xmlns="http://www.w3.org/2000/svg">
<path d="M116.736 109.033L78.7378 94.5541C78.3258 94.3956 77.8753 94.5126 77.5713 94.8386L50.2169 125.252C49.4149 126.139 48.0021 125.238 48.404 124.097L61.9897 84.9096C62.1386 84.4848 62.0207 84.0171 61.7026 83.6989L32.0262 55.053C31.1615 54.2134 32.0163 52.7602 33.123 53.1883L71.1217 67.6668C71.5336 67.8253 71.9842 67.7083 72.2882 67.3823L99.6426 36.9686C100.445 36.0823 101.857 36.9825 101.456 38.1238L87.8698 77.3113C87.7209 77.7361 87.8388 78.2038 88.1568 78.522L117.825 107.163C118.69 108.002 117.835 109.455 116.728 109.027L116.736 109.033Z" fill="black"/>
<path d="M115.3 100.37L77.3013 85.8882C76.8894 85.7296 76.4387 85.8466 76.1347 86.1725L48.7738 116.582C47.9717 117.468 46.5589 116.567 46.961 115.426L60.5538 76.2425C60.7027 75.8177 60.5849 75.35 60.2669 75.0318L30.6013 46.3897C29.7368 45.55 30.5918 44.097 31.6986 44.5251L69.6972 59.0069C70.1091 59.1655 70.5598 59.0485 70.8639 58.7226L98.2247 28.3136C99.0269 27.4275 100.44 28.3278 100.038 29.469L86.4447 68.6526C86.2958 69.0774 86.4136 69.5451 86.7316 69.8633L116.397 98.5055C117.262 99.3452 116.407 100.798 115.3 100.37Z" fill="white" stroke="black" stroke-width="2.35" stroke-linecap="round" stroke-linejoin="round"/>
</svg>
