<svg width="194" height="197" viewBox="0 0 194 197" fill="none" xmlns="http://www.w3.org/2000/svg">
<path d="M116.553 116.556C115.83 115.215 116.931 113.579 118.412 113.826C125.17 114.936 131.962 115.887 138.797 116.636C150.468 117.862 162.21 118.684 174.219 118.32C176.088 118.259 176.648 115.629 174.966 114.808C164.152 109.563 153.097 105.509 141.944 101.854C135.398 99.7416 128.798 97.8273 122.176 96.076C120.724 95.6955 120.384 93.752 121.59 92.8233C123.699 91.194 125.795 89.562 127.854 87.8522C133.923 82.7836 139.859 77.5191 145.447 71.6775C146.813 70.2523 145.382 67.9359 143.562 68.6496C136.16 71.5761 129.122 75.0691 122.201 78.7687C119.858 80.0409 117.559 81.3641 115.27 82.7035C113.963 83.4712 112.398 82.3546 112.658 80.8185C113.817 73.7923 114.835 66.7359 115.672 59.6409C117.019 47.5589 117.978 35.4077 117.82 23.0038C117.8 21.0729 115.24 20.5254 114.436 22.2802C109.242 33.5394 105.17 45.0247 101.481 56.6059C99.3445 63.4229 97.4007 70.2813 95.6112 77.1726C95.2229 78.6812 93.3398 79.0603 92.4594 77.8249C90.9147 75.6656 89.3543 73.5168 87.734 71.3971C82.9217 65.1881 77.9181 59.1196 72.3518 53.4195C70.9939 52.0261 68.7349 53.5394 69.3988 55.4127C72.122 63.0319 75.3978 70.2666 78.875 77.3768C80.0712 79.7828 81.3174 82.1436 82.5794 84.4938C83.3027 85.8352 82.2014 87.4706 80.7205 87.2236C73.9466 86.1239 67.1413 85.1711 60.2963 84.4052C48.6389 83.1825 36.909 82.3631 24.9191 82.7028C23.0527 82.7504 22.4871 85.4078 24.1716 86.2149C34.9793 91.4304 46.0214 95.4814 57.1616 99.1346C63.7067 101.246 70.3073 103.161 76.9292 104.912C78.3816 105.293 78.7213 107.236 77.5148 108.165C75.4059 109.794 73.3071 111.439 71.2513 113.136C65.1665 118.215 59.2149 123.49 53.6213 129.359C52.2554 130.784 53.6887 133.087 55.5057 132.386C62.9207 129.463 69.9878 125.962 76.9246 122.252C79.2511 120.99 81.5475 119.68 83.8239 118.338C85.1306 117.57 86.6954 118.687 86.4358 120.223C85.2667 127.233 84.252 134.276 83.4303 141.361C82.0803 153.456 81.119 165.62 81.2999 178.043C81.3323 179.977 83.8668 180.519 84.6835 178.767C89.9061 167.5 93.9808 156.001 97.6724 144.407C99.8064 137.603 101.747 130.758 103.534 123.88C103.922 122.371 105.805 121.992 106.686 123.228C108.218 125.384 109.781 127.52 111.391 129.623C116.214 135.848 121.227 141.933 126.819 147.639C128.177 149.032 130.423 147.516 129.772 145.645C127.052 138.013 123.769 130.749 120.282 123.622C119.095 121.232 117.862 118.874 116.597 116.538L116.553 116.556Z" fill="black"/>
<path d="M111.318 112.281C110.595 110.94 111.696 109.305 113.177 109.551C119.936 110.662 126.728 111.612 133.563 112.362C145.233 113.587 156.976 114.409 168.984 114.046C170.854 113.985 171.414 111.354 169.732 110.534C158.917 105.289 147.862 101.235 136.709 97.5789C130.164 95.467 123.563 93.5526 116.941 91.8013C115.489 91.4208 115.149 89.4773 116.356 88.5486C118.465 86.9193 120.561 85.2873 122.619 83.5775C128.688 78.509 134.624 73.2444 140.212 67.4028C141.578 65.9777 140.148 63.6612 138.328 64.375C130.926 67.3015 123.887 70.7944 116.966 74.494C114.624 75.7662 112.325 77.0894 110.035 78.4288C108.729 79.1965 107.164 78.0799 107.423 76.5438C108.583 69.5176 109.6 62.4612 110.437 55.3662C111.785 43.2842 112.743 31.1331 112.585 18.7291C112.566 16.7982 110.005 16.2507 109.202 18.0055C104.008 29.2647 99.9356 40.75 96.2469 52.3312C94.11 59.1482 92.1662 66.0066 90.3767 72.8979C89.9884 74.4065 88.1053 74.7856 87.2249 73.5502C85.6802 71.3908 84.1198 69.2421 82.4995 67.1224C77.6872 60.9133 72.6836 54.8448 67.1174 49.1447C65.7594 47.7513 63.5004 49.2647 64.1644 51.1379C66.8876 58.7571 70.1633 65.9918 73.6405 73.1021C74.8367 75.508 76.0829 77.8688 77.3448 80.219C78.0682 81.5605 76.9669 83.1958 75.486 82.9489C68.712 81.8491 61.9068 80.8963 55.0618 80.1304C43.4043 78.9076 31.6745 78.0883 19.6845 78.4279C17.8182 78.4755 17.2526 81.133 18.9371 81.94C29.7448 87.1556 40.7869 91.2066 51.9271 94.8598C58.4722 96.9717 65.0728 98.886 71.6946 100.637C73.1471 101.018 73.4867 102.961 72.2802 103.89C70.1714 105.519 68.0726 107.165 66.0167 108.861C59.9319 113.94 53.9803 119.215 48.3867 125.084C47.0208 126.509 48.4541 128.812 50.2711 128.112C57.6862 125.188 64.7532 121.687 71.69 117.977C74.0165 116.715 76.3129 115.405 78.5893 114.063C79.896 113.296 81.4609 114.412 81.2012 115.948C80.0321 122.958 79.0175 130.001 78.1957 137.086C76.8456 149.181 75.8843 161.346 76.0652 173.768C76.0976 175.702 78.6321 176.244 79.4488 174.492C84.6715 163.225 88.7462 151.726 92.4378 140.132C94.5718 133.328 96.5128 126.483 98.2994 119.605C98.6878 118.097 100.571 117.717 101.451 118.953C102.983 121.109 104.546 123.245 106.157 125.348C110.979 131.574 115.993 137.658 121.585 143.364C122.942 144.757 125.189 143.241 124.538 141.371C121.817 133.738 118.534 126.474 115.047 119.348C113.861 116.958 112.627 114.6 111.363 112.263L111.318 112.281Z" fill="#FCF43D" stroke="black" stroke-width="2.35" stroke-linecap="round" stroke-linejoin="round"/>
</svg>
