<svg width="74" height="77" viewBox="0 0 74 77" fill="none" xmlns="http://www.w3.org/2000/svg">
<path d="M71.911 39.8633C49.1663 45.039 44.5143 50.1188 40.6279 74.0645C40.4683 75.0573 39.1136 75.1001 38.9169 74.1185C34.2717 50.4423 29.4694 45.655 6.58395 41.9267C5.63505 41.7737 5.61269 40.3598 6.55571 40.141C29.3004 34.9653 33.9525 29.8855 37.8388 5.93984C37.9984 4.94701 39.3532 4.90422 39.5498 5.8858C44.195 29.562 48.9973 34.3493 71.8828 38.0776C72.8317 38.2306 72.854 39.6445 71.911 39.8633Z" fill="black"/>
<path d="M67.2124 36.2834C44.5137 41.5021 39.8636 46.5986 35.942 70.5965C35.7809 71.5915 34.4294 71.6364 34.2351 70.6531C29.6455 46.9376 24.8639 42.1479 2.04143 38.4456C1.09514 38.2937 1.07548 36.8771 2.0166 36.6565C24.7153 31.4377 29.3655 26.3412 33.2871 2.34329C33.4481 1.34829 34.7996 1.30345 34.994 2.28666C39.5836 26.0022 44.3651 30.7919 67.1876 34.4942C68.1339 34.6461 68.1535 36.0627 67.2124 36.2834Z" fill="#0071C6"/>
<path d="M67.2124 36.2833C44.5137 41.5021 39.8636 46.5986 35.942 70.5965C35.7809 71.5915 34.4294 71.6364 34.2351 70.6531C29.6455 46.9376 24.8639 42.1479 2.04143 38.4456C1.09514 38.2937 1.07548 36.8771 2.0166 36.6565C24.7153 31.4377 29.3655 26.3412 33.2871 2.34329C33.4481 1.34829 34.7996 1.30345 34.994 2.28666C39.5836 26.0022 44.3651 30.7919 67.1876 34.4942C68.1339 34.6461 68.1535 36.0627 67.2124 36.2833V36.2833Z" stroke="black" stroke-width="2.35" stroke-linecap="round" stroke-linejoin="round"/>
</svg>
