<svg width="156" height="158" viewBox="0 0 156 158" fill="none" xmlns="http://www.w3.org/2000/svg">
<path d="M92.0393 94.129C91.5241 93.0538 92.4587 91.8361 93.6155 92.0972C98.8955 93.2759 104.209 94.3319 109.564 95.2344C118.71 96.7328 127.929 97.9215 137.406 98.2023C138.882 98.2426 139.43 96.2268 138.139 95.5112C129.831 90.9327 121.286 87.2677 112.647 83.907C107.575 81.9608 102.453 80.1653 97.3063 78.4954C96.1773 78.132 95.989 76.6074 96.9776 75.9431C98.7058 74.7773 100.424 73.6087 102.116 72.3781C107.105 68.7282 111.998 64.92 116.639 60.6476C117.774 59.6054 116.741 57.7402 115.278 58.2089C109.326 60.1335 103.637 62.5148 98.0323 65.0621C96.1348 65.9398 94.269 66.8591 92.4104 67.7914C91.3494 68.3261 90.162 67.386 90.4293 66.2058C91.6295 60.8062 92.7194 55.3764 93.6689 49.9084C95.2238 40.5931 96.4752 31.2059 96.8571 21.5702C96.9206 20.0704 94.9255 19.5253 94.2204 20.8498C89.668 29.346 85.9905 38.0704 82.611 46.8871C80.6489 52.0786 78.8372 57.3111 77.1458 62.5765C76.7782 63.7293 75.2789 63.9353 74.6356 62.935C73.5066 61.1864 72.3648 59.4453 71.1746 57.724C67.6362 52.6787 63.9412 47.7335 59.7879 43.0479C58.7748 41.9026 56.933 42.9714 57.3797 44.4567C59.2144 50.4986 61.5002 56.268 63.9498 61.9502C64.7942 63.8739 65.6798 65.7649 66.5782 67.6483C67.0934 68.7235 66.1588 69.9413 65.002 69.6802C59.7092 68.5089 54.3858 67.4502 49.0234 66.5348C39.8876 65.0391 30.6782 63.8531 21.2166 63.5546C19.744 63.504 19.1899 65.5403 20.4843 66.2457C28.7875 70.8009 37.3229 74.4632 45.9519 77.8212C51.023 79.7674 56.146 81.5629 61.2923 83.2328C62.4213 83.5962 62.6095 85.1208 61.6209 85.7851C59.8927 86.9509 58.1717 88.1297 56.4825 89.3501C51.4805 93.0075 46.5754 96.8231 41.9282 101.116C40.7937 102.158 41.8291 104.013 43.2895 103.555C49.2517 101.633 54.9633 99.2468 60.5807 96.6921C62.4654 95.8219 64.3284 94.9127 66.177 93.9777C67.238 93.4431 68.4254 94.3831 68.1581 95.5633C66.9507 100.95 65.8636 106.369 64.9269 111.83C63.3692 121.156 62.115 130.553 61.7504 140.204C61.6969 141.707 63.6719 142.247 64.387 140.925C68.9623 132.424 72.6426 123.689 76.0248 114.862C77.9842 109.681 79.7931 104.459 81.4817 99.2036C81.8493 98.0508 83.3486 97.8448 83.9919 98.8451C85.1109 100.591 86.2554 102.322 87.4384 104.03C90.9841 109.088 94.6863 114.047 98.8596 118.738C99.8728 119.883 101.705 118.811 101.268 117.329C99.436 111.277 97.1457 105.484 94.6889 99.7889C93.8517 97.8782 92.9762 95.99 92.075 94.1168L92.0393 94.129Z" fill="black"/>
<path d="M88.0902 90.5647C87.575 89.4895 88.5095 88.2717 89.6663 88.5328C94.9463 89.7115 100.26 90.7674 105.615 91.6699C114.761 93.1682 123.98 94.3568 133.457 94.6375C134.933 94.6778 135.481 92.662 134.19 91.9463C125.882 87.368 117.336 83.7031 108.697 80.3424C103.626 78.3963 98.5033 76.6009 93.3569 74.931C92.228 74.5676 92.0397 73.0431 93.0283 72.3787C94.7565 71.2129 96.4747 70.0443 98.1667 68.8136C103.156 65.1638 108.048 61.3555 112.69 57.083C113.824 56.0408 112.791 54.1756 111.328 54.6443C105.376 56.569 99.6875 58.9504 94.0829 61.4977C92.1853 62.3754 90.3195 63.2948 88.461 64.2271C87.4 64.7618 86.2125 63.8217 86.4799 62.6415C87.68 57.2419 88.7698 51.8121 89.7192 46.344C91.274 37.0287 92.5253 27.6415 92.9071 18.0058C92.9705 16.506 90.9755 15.961 90.2704 17.2854C85.7181 25.7817 82.0407 34.5061 78.6613 43.3229C76.6993 48.5144 74.8877 53.7469 73.1963 59.0123C72.8288 60.1651 71.3294 60.3711 70.6861 59.3709C69.5571 57.6223 68.4153 55.8812 67.225 54.1599C63.6865 49.1146 59.9916 44.1695 55.8382 39.4839C54.8251 38.3387 52.9832 39.4075 53.4299 40.8927C55.2647 46.9346 57.5506 52.704 60.0003 58.3862C60.8447 60.3099 61.7303 62.2008 62.6287 64.0843C63.1439 65.1595 62.2094 66.3773 61.0526 66.1162C55.7598 64.945 50.4364 63.8863 45.0739 62.9709C35.9381 61.4753 26.7288 60.2894 17.2672 59.9911C15.7946 59.9405 15.2405 61.9768 16.5348 62.6822C24.8381 67.2373 33.3736 70.8995 42.0026 74.2574C47.0738 76.2036 52.1967 77.999 57.343 79.6688C58.472 80.0322 58.6603 81.5568 57.6717 82.2211C55.9435 83.387 54.2225 84.5658 52.5333 85.7862C47.5314 89.4436 42.6264 93.2593 37.9792 97.5523C36.8447 98.5945 37.8801 100.449 39.3405 99.991C45.3027 98.0691 51.0142 95.6829 56.6316 93.1281C58.5163 92.2579 60.3793 91.3487 62.2279 90.4137C63.2888 89.879 64.4763 90.8191 64.209 91.9993C63.0017 97.3859 61.9146 102.805 60.978 108.266C59.4204 117.592 58.1664 126.989 57.8018 136.64C57.7484 138.143 59.7234 138.683 60.4385 137.361C65.0137 128.86 68.6938 120.125 72.076 111.298C74.0352 106.117 75.8441 100.895 77.5326 95.6394C77.9002 94.4866 79.3995 94.2806 80.0428 95.2809C81.1618 97.0267 82.3064 98.7576 83.4894 100.466C87.0352 105.524 90.7374 110.482 94.9108 115.173C95.9239 116.319 97.7558 115.247 97.3191 113.764C95.4871 107.712 93.1967 101.92 90.7398 96.2246C89.9027 94.3139 89.0271 92.4257 88.1258 90.5525L88.0902 90.5647Z" fill="#0071C6" stroke="black" stroke-width="2.35" stroke-linecap="round" stroke-linejoin="round"/>
</svg>
