<svg width="306" height="392" viewBox="0 0 306 392" fill="none" xmlns="http://www.w3.org/2000/svg">
<path d="M361.274 163.21C359.523 156.46 256.797 180.209 256.797 180.209L221.958 188.264L231.279 173.028C231.279 173.028 267.328 114.105 261.248 110.451C255.167 106.798 219.117 165.722 219.117 165.722L209.797 180.957L200.891 146.624C200.891 146.624 174.631 45.3856 167.781 46.9692C160.931 48.5529 187.191 149.791 187.191 149.791L196.097 184.125L180.374 174.679C180.374 174.679 119.565 138.148 115.96 144.041C112.355 149.933 173.164 186.464 173.164 186.464L188.887 195.909L154.049 203.964C154.049 203.964 51.3222 227.713 53.0732 234.464C54.8243 241.215 157.551 217.465 157.551 217.465L192.389 209.411L183.068 224.646C183.068 224.646 147.019 283.57 153.1 287.223C159.181 290.876 195.23 231.952 195.23 231.952L204.551 216.717L213.457 251.051C213.457 251.051 239.716 352.289 246.566 350.705C253.416 349.122 227.156 247.883 227.156 247.883L218.251 213.55L233.973 222.995C233.973 222.995 294.782 259.526 298.387 253.634C301.992 247.741 241.183 211.21 241.183 211.21L225.46 201.765L260.299 193.711C260.299 193.711 363.025 169.961 361.274 163.21Z" fill="black"/>
<path d="M348.231 157.823C346.483 151.072 243.747 174.786 243.747 174.786L208.906 182.828L218.232 167.596C218.232 167.596 254.303 108.685 248.224 105.03C242.144 101.374 206.073 160.286 206.073 160.286L196.747 175.518L187.854 141.181C187.854 141.181 161.631 39.9343 154.781 41.5156C147.93 43.0969 174.153 144.344 174.153 144.344L183.046 178.681L167.327 169.23C167.327 169.23 106.531 132.678 102.924 138.569C99.3169 144.46 160.112 181.012 160.112 181.012L175.832 190.463L140.99 198.505C140.99 198.505 38.255 222.22 40.0035 228.971C41.7521 235.722 144.487 212.008 144.487 212.008L179.329 203.965L170.002 219.197C170.002 219.197 133.931 278.109 140.011 281.764C146.09 285.419 182.161 226.508 182.161 226.508L191.488 211.276L200.381 245.612C200.381 245.612 226.603 346.859 233.454 345.278C240.304 343.697 214.082 242.45 214.082 242.45L205.189 208.113L220.908 217.564C220.908 217.564 281.704 254.116 285.311 248.225C288.918 242.333 228.122 205.782 228.122 205.782L212.403 196.331L247.244 188.288C247.244 188.288 349.98 164.574 348.231 157.823Z" fill="#0071C6" stroke="black" stroke-width="2.35" stroke-linecap="round" stroke-linejoin="round"/>
</svg>
