<svg width="95" height="106" viewBox="0 0 95 106" fill="none" xmlns="http://www.w3.org/2000/svg">
<path d="M88.0301 60.0488C60.7873 63.4678 54.5744 69.4399 46.2442 100.264C45.9006 101.542 44.3202 101.397 44.2483 100.081C42.6261 68.3476 37.8112 61.3591 11.8239 53.0818C10.7461 52.7408 10.9455 50.8834 12.0757 50.7362C39.3185 47.3172 45.5314 41.345 53.8616 10.5214C54.2052 9.24317 55.7856 9.38765 55.8575 10.7039C57.4797 42.4374 62.2946 49.4258 88.2819 57.7031C89.3597 58.0442 89.1603 59.9015 88.0301 60.0488Z" fill="black"/>
<path d="M83.1437 54.659C55.9475 58.1413 49.7341 64.1356 41.3546 95.0225C41.009 96.3034 39.4321 96.1621 39.363 94.844C37.8118 63.0672 33.0213 56.0787 7.10305 47.8448C6.02814 47.5055 6.23107 45.645 7.35934 45.4951C34.5556 42.0128 40.769 36.0185 49.1484 5.13161C49.4941 3.85075 51.071 3.99207 51.14 5.31008C52.6913 37.0869 57.4818 44.0754 83.4 52.3093C84.4749 52.6486 84.272 54.5091 83.1437 54.659Z" fill="#8F55FF"/>
<path d="M83.1437 54.659C55.9475 58.1413 49.7341 64.1356 41.3546 95.0225C41.009 96.3034 39.4321 96.1621 39.3631 94.844C37.8118 63.0672 33.0213 56.0787 7.10305 47.8448C6.02814 47.5055 6.23107 45.645 7.35934 45.4951C34.5556 42.0128 40.769 36.0185 49.1484 5.13161C49.4941 3.85075 51.071 3.99207 51.14 5.31008C52.6913 37.0869 57.4818 44.0754 83.4 52.3093C84.4749 52.6486 84.272 54.5091 83.1437 54.659V54.659Z" stroke="black" stroke-width="2.35" stroke-linecap="round" stroke-linejoin="round"/>
</svg>
