<svg width="113" height="116" viewBox="0 0 113 116" fill="none" xmlns="http://www.w3.org/2000/svg">
<path d="M100.962 50.5917C73.4324 63.2177 68.8709 70.9107 70.2995 102.377C70.3607 103.681 68.6503 104.095 68.1394 102.9C55.9397 74.0456 48.5635 69.2385 18.4871 70.5859C17.2405 70.6438 16.8361 68.8529 17.9764 68.324C45.5061 55.698 50.0676 48.005 48.639 16.5391C48.5778 15.2349 50.2882 14.8203 50.7991 16.0155C62.9987 44.8701 70.375 49.6772 100.451 48.3298C101.698 48.2718 102.102 50.0628 100.962 50.5917Z" fill="black"/>
<path d="M94.0397 47.2914C66.5799 59.9599 62.0253 67.6736 63.4229 99.2152C63.4829 100.523 61.7771 100.939 61.2687 99.7411C49.1293 70.8216 41.7788 66.006 11.7894 67.3697C10.5463 67.4283 10.1446 65.6332 11.282 65.1026C38.7418 52.434 43.2965 44.7203 41.8988 13.1787C41.8389 11.8713 43.5446 11.4549 44.0531 12.6528C56.1924 41.5723 63.5429 46.3879 93.5324 45.0242C94.7754 44.9656 95.1771 46.7607 94.0397 47.2914Z" fill="#8F55FF"/>
<path d="M94.0397 47.2914C66.5799 59.9599 62.0253 67.6736 63.4229 99.2152C63.4829 100.523 61.7771 100.939 61.2687 99.7411C49.1293 70.8216 41.7788 66.006 11.7894 67.3697C10.5463 67.4283 10.1446 65.6332 11.282 65.1026C38.7418 52.434 43.2965 44.7203 41.8988 13.1787C41.8389 11.8713 43.5446 11.4549 44.0531 12.6528C56.1924 41.5723 63.5429 46.3879 93.5324 45.0242C94.7754 44.9656 95.1771 46.7607 94.0397 47.2914V47.2914Z" stroke="black" stroke-width="2.35" stroke-linecap="round" stroke-linejoin="round"/>
</svg>
