<svg width="100%" height="951" viewBox="0 0 1025 951" fill="none" xmlns="http://www.w3.org/2000/svg" preserveAspectRatio="none">
<path d="M337.426 620.245C193.9 649.871 68.2484 626.741 -42.5721 564.37C-153.393 501.999 -318.883 461.476 -232.251 497.093C-165.16 524.676 -209.612 547.905 -83.9992 629.07C168.075 791.95 457.6 666.942 660.518 597.458C863.437 527.973 909.581 340.276 1151.74 407.562C1230.98 429.581 1226.11 329.496 1137.88 309.82C1049.65 290.144 916.525 350.37 811.066 438.539C668.671 557.587 480.953 590.62 337.426 620.245Z" fill="#FEDC97"/>
<path d="M345.151 680.122C201.624 709.747 75.9731 686.617 -34.8474 624.246C-145.668 561.875 -309.355 507.637 -222.724 543.253C-155.632 570.836 -200.084 594.065 -74.4713 675.231C177.603 838.11 465.324 726.818 668.243 657.334C871.161 587.85 917.306 400.152 1159.46 467.438C1238.71 489.458 1233.83 389.373 1145.6 369.697C1057.37 350.02 924.25 410.246 818.79 498.415C676.396 617.463 488.677 650.497 345.151 680.122Z" fill="#D48C8D"/>
</svg>
